<svg class="main-svg" xmlns="http://www.w3.org/2000/svg" xmlns:xlink="http://www.w3.org/1999/xlink" width="600" height="300" style="" viewBox="0 0 600 300"><rect x="0" y="0" width="600" height="300" style="fill: rgb(255, 255, 255); fill-opacity: 1;"/><defs id="defs-1ba8b3"><g class="clips"><clipPath id="clip1ba8b3xyplot" class="plotclip"><rect width="342" height="252"/></clipPath><clipPath class="axesclip" id="clip1ba8b3x"><rect x="53" y="0" width="342" height="300"/></clipPath><clipPath class="axesclip" id="clip1ba8b3y"><rect x="0" y="7" width="600" height="252"/></clipPath><clipPath class="axesclip" id="clip1ba8b3xy"><rect x="53" y="7" width="342" height="252"/></clipPath></g><g class="gradients"/></defs><g class="bglayer"><rect class="bg" x="53" y="7" width="342" height="252" style="fill: rgb(229, 236, 246); fill-opacity: 1; stroke-width: 0;"/></g><g class="layer-below"><g class="imagelayer"/><g class="shapelayer"/></g><g class="cartesianlayer"><g class="subplot xy"><g class="layer-subplot"><g class="shapelayer"/><g class="imagelayer"/></g><g class="gridlayer"><g class="x"><path class="xgrid crisp" transform="translate(137.04000000000002,0)" d="M0,7v252" style="stroke: rgb(255, 255, 255); stroke-opacity: 1; stroke-width: 1px;"/><path class="xgrid crisp" transform="translate(223.93,0)" d="M0,7v252" style="stroke: rgb(255, 255, 255); stroke-opacity: 1; stroke-width: 1px;"/><path class="xgrid crisp" transform="translate(310.82,0)" d="M0,7v252" style="stroke: rgb(255, 255, 255); stroke-opacity: 1; stroke-width: 1px;"/></g><g class="y"><path class="ygrid crisp" transform="translate(0,215.36)" d="M53,0h342" style="stroke: rgb(255, 255, 255); stroke-opacity: 1; stroke-width: 1px;"/><path class="ygrid crisp" transform="translate(0,146.82)" d="M53,0h342" style="stroke: rgb(255, 255, 255); stroke-opacity: 1; stroke-width: 1px;"/><path class="ygrid crisp" transform="translate(0,78.29)" d="M53,0h342" style="stroke: rgb(255, 255, 255); stroke-opacity: 1; stroke-width: 1px;"/></g></g><g class="zerolinelayer"><path class="yzl zl crisp" transform="translate(0,9.76)" d="M53,0h342" style="stroke: rgb(255, 255, 255); stroke-opacity: 1; stroke-width: 2px;"/></g><path class="xlines-below"/><path class="ylines-below"/><g class="overlines-below"/><g class="xaxislayer-below"/><g class="yaxislayer-below"/><g class="overaxes-below"/><g class="plot" transform="translate(53,7)" clip-path="url('#clip1ba8b3xyplot')"><g class="scatterlayer mlayer"><g class="trace scatter trace2b2846" style="stroke-miterlimit: 2; opacity: 1;"><g class="fills"/><g class="errorbars"/><g class="lines"><path class="js-line" d="M0,239.4L2.85,233.4L5.7,231.38L8.55,214.09L11.4,201.57L14.25,171.34L17.1,130.37L19.95,126.23L22.8,138.33L25.65,111.46L28.5,95.41L31.35,111.8L34.2,100.17L37.05,78.59L39.9,97.18L42.75,96.67L45.6,83.15L48.45,84.77L51.3,62.17L54.15,59.95L57,54.84L59.85,46.01L62.7,44.65L65.55,50.69L68.4,44.68L71.25,38.95L74.1,31.16L76.95,30.28L79.8,31.58L82.65,29.48L85.5,29.78L88.35,26.03L91.2,27.92L94.05,25.29L96.9,26.77L105.45,23.34L108.3,22.76L114,21.41L116.85,22.13L122.55,21.47L125.4,22.93L128.25,23.49L131.1,20.04L133.95,19.41L136.8,21.19L139.65,22.06L142.5,20.2L148.2,19.36L151.05,20.57L153.9,20.1L156.75,18.5L162.45,18.64L165.3,18.44L171,18.14L173.85,18.77L176.7,18.09L179.55,18.53L182.4,17.89L185.25,18.78L188.1,17.93L190.95,18.53L196.65,18.66L199.5,17.23L205.2,18L208.05,17.24L213.75,16.68L216.6,17.59L219.45,16.69L222.3,16.98L225.15,16.3L228,16.89L236.55,16.15L239.4,17.01L242.25,17.27L245.1,16.69L259.35,17.12" style="vector-effect: non-scaling-stroke; fill: none; stroke: rgb(99, 110, 250); stroke-opacity: 1; stroke-width: 2px; opacity: 1;"/></g><g class="points"/><g class="text"/></g><g class="trace scatter traceec5f0a" style="stroke-miterlimit: 2; opacity: 1;"><g class="fills"/><g class="errorbars"/><g class="lines"><path class="js-line" d="M0,234.46L2.85,230.6L5.7,218.97L11.4,173.27L14.25,161.04L19.95,100.33L22.8,119.23L25.65,128.44L28.5,109.64L31.35,76.71L34.2,86.17L37.05,89.73L39.9,97.32L42.75,98.83L45.6,83.35L48.45,96.51L51.3,84.39L54.15,82.56L57,64.57L62.7,41.81L65.55,36.43L68.4,31.09L71.25,33.81L74.1,28.76L76.95,31.72L82.65,24.82L85.5,27.45L88.35,29L91.2,27.41L94.05,28.13L96.9,27.51L99.75,24.54L102.6,23.07L105.45,26.49L108.3,21.63L111.15,22.19L114,21.2L116.85,20.6L119.7,22.93L122.55,21.76L125.4,21.91L136.8,20L139.65,19.97L142.5,18.96L145.35,21.58L148.2,19.6L151.05,18.9L153.9,18.69L156.75,19.99L159.6,18.97L162.45,19.29L165.3,18.56L168.15,19.13L171,19.6L173.85,18L176.7,19.46L179.55,18.93L182.4,18.17L185.25,19.59L188.1,17.75L190.95,20.18L193.8,17.36L196.65,18.49L205.2,18.73L208.05,17.36L213.75,17.62L216.6,17.12L219.45,18.24L222.3,18.25L225.15,17.07L228,17.38L230.85,16.35L233.7,17.39L236.55,18.66L239.4,17.35L242.25,16.37L245.1,16.3L247.95,18.5L250.8,16.6L253.65,15.96L256.5,17.07L262.2,16.62L265.05,17.85L267.9,16.33L270.75,16.21L273.6,18.13L276.45,16.86L279.3,15.74L282.15,16.27L285,17.37L287.85,16.86L290.7,16.52L293.55,17.87L302.1,15.91L304.95,17.66L310.65,17.63L313.5,17.38L316.35,17.98L319.2,17.53L322.05,17.9L324.9,15.73L327.75,17.57L330.6,16.33L342,18.09" style="vector-effect: non-scaling-stroke; fill: none; stroke: rgb(239, 85, 59); stroke-opacity: 1; stroke-width: 2px; opacity: 1;"/></g><g class="points"/><g class="text"/></g><g class="trace scatter tracef8a05a" style="stroke-miterlimit: 2; opacity: 1;"><g class="fills"/><g class="errorbars"/><g class="lines"><path class="js-line" d="M0,234.38L8.55,180.1L11.4,177.35L14.25,176.66L17.1,109.86L19.95,101.58L22.8,87.18L25.65,119.88L28.5,107.42L31.35,97.95L34.2,73.13L37.05,82.55L39.9,111.34L42.75,81.07L45.6,60.25L48.45,58.61L51.3,53.69L54.15,49.93L57,48.96L59.85,42.63L62.7,39.99L65.55,38.08L68.4,37.27L71.25,35.35L74.1,35.65L76.95,31.06L79.8,31.27L82.65,29.44L85.5,25.72L88.35,27.81L91.2,24.93L96.9,24.2L99.75,22.82L102.6,22.92L105.45,19.66L111.15,20.73L114,20.06L116.85,19.83L119.7,20.54L122.55,21.05L125.4,19.02L128.25,18.57L131.1,19.64L133.95,18.34L136.8,18.26L139.65,18.18L142.5,17.15L145.35,17.52L148.2,18.83L156.75,16.88L159.6,17.1L162.45,17.26L165.3,16.57L168.15,18.14L171,17.2L176.7,16.32L179.55,16.92L182.4,15.52L185.25,15.6L190.95,15.59L193.8,15.85L205.2,15.57L208.05,16.1L213.75,14.81L216.6,14.75L219.45,15.49L222.3,14.57L228,15.73L230.85,15.65L233.7,15.48L236.55,14.26L239.4,15.44L242.25,15.22L253.65,14.25L256.5,15.13L259.35,14.53L262.2,14.81L267.9,15.83L270.75,15.38L273.6,14.62L276.45,14.99L293.55,14.95L296.4,14.08L302.1,14.86L304.95,14.88L307.8,15.12L310.65,14.54L313.5,14.18L316.35,14.89L319.2,15.2L322.05,14.65L342,14.27" style="vector-effect: non-scaling-stroke; fill: none; stroke: rgb(0, 204, 150); stroke-opacity: 1; stroke-width: 2px; opacity: 1;"/></g><g class="points"/><g class="text"/></g><g class="trace scatter trace868ad8" style="stroke-miterlimit: 2; opacity: 1;"><g class="fills"/><g class="errorbars"/><g class="lines"><path class="js-line" d="M0,238.28L8.55,185.6L11.4,155.52L14.25,143.13L17.1,98.03L19.95,69.16L22.8,70.28L25.65,85.33L28.5,84.7L31.35,66.9L34.2,68.6L37.05,66.59L39.9,61.97L42.75,53.16L45.6,47.8L51.3,42.42L54.15,40.98L57,35.53L59.85,35.69L62.7,31.89L65.55,30.56L68.4,29.21L71.25,30.67L76.95,28.42L79.8,25.13L82.65,24.43L85.5,24.87L91.2,21.71L94.05,23.59L99.75,20.12L102.6,21.02L108.3,20.52L111.15,19.09L116.85,20.07L119.7,19.18L122.55,18.58L125.4,18.97L128.25,18.34L131.1,18.75L133.95,17.55L136.8,18.87L139.65,17.26L142.5,17.61L148.2,16.79L151.05,17.9L156.75,16.87L159.6,17.22L162.45,16.3L165.3,16.67L168.15,16.5L171,17.1L179.55,16.2L182.4,16.94L185.25,15.75L188.1,15.45L190.95,16.2L193.8,15.85L199.5,15.84L202.35,15.34L205.2,16.1L208.05,15.16L210.9,15.49L213.75,14.88L219.45,15.03L222.3,14.5L250.8,14.79L253.65,13.75L259.35,14.91L262.2,13.91L265.05,14.58L267.9,14.03L270.75,14.34L273.6,13.82L279.3,13.71L282.15,14.89L290.7,13.36L293.55,14.15L296.4,14.46L299.25,13.88L307.8,14.16L310.65,13.51L319.2,14.32L322.05,13.07L330.6,14.4L333.45,13.66L339.15,14.73L342,14.13" style="vector-effect: non-scaling-stroke; fill: none; stroke: rgb(171, 99, 250); stroke-opacity: 1; stroke-width: 2px; opacity: 1;"/></g><g class="points"/><g class="text"/></g><g class="trace scatter trace8097ac" style="stroke-miterlimit: 2; opacity: 1;"><g class="fills"/><g class="errorbars"/><g class="lines"><path class="js-line" d="M0,238.73L2.85,198L5.7,190.51L11.4,152.31L14.25,115.75L17.1,66.77L19.95,48.43L25.65,33.52L28.5,31.09L31.35,29.84L34.2,29.94L39.9,24.09L42.75,25.47L48.45,22.76L51.3,22.88L54.15,23.09L57,21.35L65.55,20.29L68.4,20.03L71.25,19.42L74.1,17.92L76.95,18.73L79.8,18.45L82.65,18.8L85.5,17.35L94.05,16.26L96.9,16.08L99.75,16.42L102.6,15.93L105.45,15.59L108.3,16.34L111.15,15.53L114,15.51L119.7,15.26L122.55,15.32L125.4,14.58L128.25,15.3L131.1,14.72L133.95,14.95L139.65,13.86L142.5,14.55L153.9,13.66L156.75,14.24L168.15,14.21L171,13.74L173.85,14.52L176.7,13.13L182.4,14.32L185.25,13.89L188.1,12.76L190.95,13.1L205.2,13.07L208.05,14.25L210.9,13.35L213.75,13.36L216.6,12.69L219.45,13.84L225.15,13.54L228,13.21L230.85,14.04L233.7,13.67L247.95,13.63L250.8,13.72L259.35,12.92L262.2,13.67L267.9,13.5L270.75,13.26L279.3,12.66L282.15,13.35L287.85,13.39L290.7,13.2L307.8,13.38L310.65,12.91L327.75,13.48L330.6,13.03L333.45,12.69L336.3,13.46L342,13.49" style="vector-effect: non-scaling-stroke; fill: none; stroke: rgb(255, 161, 90); stroke-opacity: 1; stroke-width: 2px; opacity: 1;"/></g><g class="points"/><g class="text"/></g><g class="trace scatter tracea463f0" style="stroke-miterlimit: 2; opacity: 1;"><g class="fills"/><g class="errorbars"/><g class="lines"><path class="js-line" d="M0,221.73L5.7,178.44L8.55,131.64L11.4,147.46L14.25,81.03L17.1,67.54L19.95,45.07L22.8,31.77L25.65,30.97L28.5,27.81L31.35,27.66L34.2,24.4L37.05,23.11L45.6,21.11L48.45,22.54L51.3,22.8L54.15,21.3L57,21.25L59.85,22.42L62.7,20.49L65.55,21.08L68.4,19.93L71.25,20.43L74.1,20.57L76.95,19.8L79.8,19.54L82.65,18.26L85.5,18.09L88.35,19.03L91.2,17.34L94.05,18.18L96.9,16.53L99.75,17.51L108.3,16.84L111.15,16.25L116.85,16.57L119.7,15.76L122.55,14.86L125.4,16.16L128.25,15.54L131.1,15.86L133.95,14.99L136.8,15.24L142.5,14.85L145.35,14.91L148.2,14.38L151.05,15.15L159.6,14.6L162.45,14.97L165.3,15.51L168.15,15.2L171,14.02L173.85,14.61L190.95,14.08L193.8,14.22L199.5,13.89L202.35,13.62L208.05,14.4L210.9,13.85L219.45,14.23L222.3,13.98L225.15,14.34L228,13.19L233.7,14.37L236.55,13.53L242.25,13.72L245.1,13.56L247.95,14.35L250.8,13.82L256.5,13.1L259.35,13.79L265.05,12.84L267.9,13.86L282.15,13.75L285,13.43L296.4,12.6L299.25,13.29L302.1,13.8L304.95,13.22L307.8,13.88L310.65,13.3L313.5,13.92L316.35,13.19L319.2,13.45L322.05,12.76L327.75,13.17L330.6,14.39L336.3,12.95L339.15,13.57L342,13.74" style="vector-effect: non-scaling-stroke; fill: none; stroke: rgb(25, 211, 243); stroke-opacity: 1; stroke-width: 2px; opacity: 1;"/></g><g class="points"/><g class="text"/></g></g></g><g class="overplot"/><path class="xlines-above crisp" d="M0,0" style="fill: none;"/><path class="ylines-above crisp" d="M0,0" style="fill: none;"/><g class="overlines-above"/><g class="xaxislayer-above"><g class="xtick"><text text-anchor="middle" x="0" y="272" transform="translate(137.04000000000002,0)" style="font-family: 'Latin Modern Roman'; font-size: 12px; fill: rgb(0, 0, 0); fill-opacity: 1; white-space: pre;">5M</text></g><g class="xtick"><text text-anchor="middle" x="0" y="272" transform="translate(223.93,0)" style="font-family: 'Latin Modern Roman'; font-size: 12px; fill: rgb(0, 0, 0); fill-opacity: 1; white-space: pre;">10M</text></g><g class="xtick"><text text-anchor="middle" x="0" y="272" transform="translate(310.82,0)" style="font-family: 'Latin Modern Roman'; font-size: 12px; fill: rgb(0, 0, 0); fill-opacity: 1; white-space: pre;">15M</text></g></g><g class="yaxislayer-above"><g class="ytick"><text text-anchor="end" x="52" y="4.199999999999999" transform="translate(0,215.36)" style="font-family: 'Latin Modern Roman'; font-size: 12px; fill: rgb(0, 0, 0); fill-opacity: 1; white-space: pre;">−300</text></g><g class="ytick"><text text-anchor="end" x="52" y="4.199999999999999" transform="translate(0,146.82)" style="font-family: 'Latin Modern Roman'; font-size: 12px; fill: rgb(0, 0, 0); fill-opacity: 1; white-space: pre;">−200</text></g><g class="ytick"><text text-anchor="end" x="52" y="4.199999999999999" transform="translate(0,78.29)" style="font-family: 'Latin Modern Roman'; font-size: 12px; fill: rgb(0, 0, 0); fill-opacity: 1; white-space: pre;">−100</text></g><g class="ytick"><text text-anchor="end" x="52" y="4.199999999999999" transform="translate(0,9.76)" style="font-family: 'Latin Modern Roman'; font-size: 12px; fill: rgb(0, 0, 0); fill-opacity: 1; white-space: pre;">0</text></g></g><g class="overaxes-above"/></g></g><g class="polarlayer"/><g class="ternarylayer"/><g class="geolayer"/><g class="funnelarealayer"/><g class="pielayer"/><g class="treemaplayer"/><g class="sunburstlayer"/><g class="glimages"/><defs id="topdefs-1ba8b3"><g class="clips"/><clipPath id="legend1ba8b3"><rect width="198" height="124" x="0" y="0"/></clipPath></defs><g class="layer-above"><g class="imagelayer"/><g class="shapelayer"/></g><g class="infolayer"><g class="legend" pointer-events="all" transform="translate(401.84000000000003,7)"><rect class="bg" shape-rendering="crispEdges" width="198" height="124" x="0" y="0" style="stroke: rgb(68, 68, 68); stroke-opacity: 1; fill: rgb(255, 255, 255); fill-opacity: 1; stroke-width: 0px;"/><g class="scrollbox" transform="" clip-path="url('#legend1ba8b3')"><g class="groups"><g class="traces" transform="translate(0,14.5)" style="opacity: 1;"><text class="legendtext" text-anchor="start" x="40" y="4.680000000000001" style="font-family: 'Latin Modern Roman'; font-size: 12px; fill: rgb(0, 0, 0); fill-opacity: 1; white-space: pre;">Bayes agg. (medium) (n=17)</text><g class="layers" style="opacity: 1;"><g class="legendfill"/><g class="legendlines"><path class="js-line" d="M5,0h30" style="fill: none; stroke: rgb(99, 110, 250); stroke-opacity: 1; stroke-width: 2px;"/></g><g class="legendsymbols"><g class="legendpoints"/></g></g><rect class="legendtoggle" x="0" y="-9.5" width="192.234375" height="19" style="fill: rgb(0, 0, 0); fill-opacity: 0;"/></g><g class="traces" transform="translate(0,33.5)" style="opacity: 1;"><text class="legendtext" text-anchor="start" x="40" y="4.680000000000001" style="font-family: 'Latin Modern Roman'; font-size: 12px; fill: rgb(0, 0, 0); fill-opacity: 1; white-space: pre;">Mean agg. (medium) (n=14)</text><g class="layers" style="opacity: 1;"><g class="legendfill"/><g class="legendlines"><path class="js-line" d="M5,0h30" style="fill: none; stroke: rgb(239, 85, 59); stroke-opacity: 1; stroke-width: 2px;"/></g><g class="legendsymbols"><g class="legendpoints"/></g></g><rect class="legendtoggle" x="0" y="-9.5" width="192.234375" height="19" style="fill: rgb(0, 0, 0); fill-opacity: 0;"/></g><g class="traces" transform="translate(0,52.5)" style="opacity: 1;"><text class="legendtext" text-anchor="start" x="40" y="4.680000000000001" style="font-family: 'Latin Modern Roman'; font-size: 12px; fill: rgb(0, 0, 0); fill-opacity: 1; white-space: pre;">Bayes agg. (simple) (n=16)</text><g class="layers" style="opacity: 1;"><g class="legendfill"/><g class="legendlines"><path class="js-line" d="M5,0h30" style="fill: none; stroke: rgb(0, 204, 150); stroke-opacity: 1; stroke-width: 2px;"/></g><g class="legendsymbols"><g class="legendpoints"/></g></g><rect class="legendtoggle" x="0" y="-9.5" width="192.234375" height="19" style="fill: rgb(0, 0, 0); fill-opacity: 0;"/></g><g class="traces" transform="translate(0,71.5)" style="opacity: 1;"><text class="legendtext" text-anchor="start" x="40" y="4.680000000000001" style="font-family: 'Latin Modern Roman'; font-size: 12px; fill: rgb(0, 0, 0); fill-opacity: 1; white-space: pre;">Mean agg. (simple) (n=18)</text><g class="layers" style="opacity: 1;"><g class="legendfill"/><g class="legendlines"><path class="js-line" d="M5,0h30" style="fill: none; stroke: rgb(171, 99, 250); stroke-opacity: 1; stroke-width: 2px;"/></g><g class="legendsymbols"><g class="legendpoints"/></g></g><rect class="legendtoggle" x="0" y="-9.5" width="192.234375" height="19" style="fill: rgb(0, 0, 0); fill-opacity: 0;"/></g><g class="traces" transform="translate(0,90.5)" style="opacity: 1;"><text class="legendtext" text-anchor="start" x="40" y="4.680000000000001" style="font-family: 'Latin Modern Roman'; font-size: 12px; fill: rgb(0, 0, 0); fill-opacity: 1; white-space: pre;">Bayes agg. (opt) (n=16)</text><g class="layers" style="opacity: 1;"><g class="legendfill"/><g class="legendlines"><path class="js-line" d="M5,0h30" style="fill: none; stroke: rgb(255, 161, 90); stroke-opacity: 1; stroke-width: 2px;"/></g><g class="legendsymbols"><g class="legendpoints"/></g></g><rect class="legendtoggle" x="0" y="-9.5" width="192.234375" height="19" style="fill: rgb(0, 0, 0); fill-opacity: 0;"/></g><g class="traces" transform="translate(0,109.5)" style="opacity: 1;"><text class="legendtext" text-anchor="start" x="40" y="4.680000000000001" style="font-family: 'Latin Modern Roman'; font-size: 12px; fill: rgb(0, 0, 0); fill-opacity: 1; white-space: pre;">Mean agg. (opt) (n=18)</text><g class="layers" style="opacity: 1;"><g class="legendfill"/><g class="legendlines"><path class="js-line" d="M5,0h30" style="fill: none; stroke: rgb(25, 211, 243); stroke-opacity: 1; stroke-width: 2px;"/></g><g class="legendsymbols"><g class="legendpoints"/></g></g><rect class="legendtoggle" x="0" y="-9.5" width="192.234375" height="19" style="fill: rgb(0, 0, 0); fill-opacity: 0;"/></g></g></g><rect class="scrollbar" rx="20" ry="3" width="0" height="0" x="0" y="0" style="fill: rgb(128, 139, 164); fill-opacity: 1;"/></g><g class="g-gtitle"/><g class="g-xtitle" transform="translate(0,-3.8000000000000114)"><text class="xtitle" x="224" y="299.8" text-anchor="middle" style="font-family: 'Latin Modern Roman'; font-size: 14px; fill: rgb(0, 0, 0); opacity: 1; font-weight: normal; white-space: pre;">Agent Steps</text></g><g class="g-ytitle" transform="translate(16.1435546875,0)"><text class="ytitle" transform="rotate(-90,-0.14374999999999716,133)" x="-0.14374999999999716" y="133" text-anchor="middle" style="font-family: 'Latin Modern Roman'; font-size: 14px; fill: rgb(0, 0, 0); opacity: 1; font-weight: normal; white-space: pre;">Avg. Reward</text></g></g></svg>