<svg class="main-svg" xmlns="http://www.w3.org/2000/svg" xmlns:xlink="http://www.w3.org/1999/xlink" width="600" height="300" style="" viewBox="0 0 600 300"><rect x="0" y="0" width="600" height="300" style="fill: rgb(255, 255, 255); fill-opacity: 1;"/><defs id="defs-9863a0"><g class="clips"><clipPath id="clip9863a0xyplot" class="plotclip"><rect width="396" height="259"/></clipPath><clipPath class="axesclip" id="clip9863a0x"><rect x="38" y="0" width="396" height="300"/></clipPath><clipPath class="axesclip" id="clip9863a0y"><rect x="0" y="0" width="600" height="259"/></clipPath><clipPath class="axesclip" id="clip9863a0xy"><rect x="38" y="0" width="396" height="259"/></clipPath></g><g class="gradients"/></defs><g class="bglayer"><rect class="bg" x="38" y="0" width="396" height="259" style="fill: rgb(229, 236, 246); fill-opacity: 1; stroke-width: 0;"/></g><g class="layer-below"><g class="imagelayer"/><g class="shapelayer"/></g><g class="cartesianlayer"><g class="subplot xy"><g class="layer-subplot"><g class="shapelayer"/><g class="imagelayer"/></g><g class="gridlayer"><g class="x"><path class="xgrid crisp" transform="translate(115.01,0)" d="M0,0v259" style="stroke: rgb(255, 255, 255); stroke-opacity: 1; stroke-width: 1px;"/><path class="xgrid crisp" transform="translate(192.81,0)" d="M0,0v259" style="stroke: rgb(255, 255, 255); stroke-opacity: 1; stroke-width: 1px;"/><path class="xgrid crisp" transform="translate(270.61,0)" d="M0,0v259" style="stroke: rgb(255, 255, 255); stroke-opacity: 1; stroke-width: 1px;"/><path class="xgrid crisp" transform="translate(348.42,0)" d="M0,0v259" style="stroke: rgb(255, 255, 255); stroke-opacity: 1; stroke-width: 1px;"/><path class="xgrid crisp" transform="translate(426.22,0)" d="M0,0v259" style="stroke: rgb(255, 255, 255); stroke-opacity: 1; stroke-width: 1px;"/></g><g class="y"><path class="ygrid crisp" transform="translate(0,208.45)" d="M38,0h396" style="stroke: rgb(255, 255, 255); stroke-opacity: 1; stroke-width: 1px;"/><path class="ygrid crisp" transform="translate(0,170.86)" d="M38,0h396" style="stroke: rgb(255, 255, 255); stroke-opacity: 1; stroke-width: 1px;"/><path class="ygrid crisp" transform="translate(0,133.26)" d="M38,0h396" style="stroke: rgb(255, 255, 255); stroke-opacity: 1; stroke-width: 1px;"/><path class="ygrid crisp" transform="translate(0,95.66)" d="M38,0h396" style="stroke: rgb(255, 255, 255); stroke-opacity: 1; stroke-width: 1px;"/><path class="ygrid crisp" transform="translate(0,58.07)" d="M38,0h396" style="stroke: rgb(255, 255, 255); stroke-opacity: 1; stroke-width: 1px;"/><path class="ygrid crisp" transform="translate(0,20.47)" d="M38,0h396" style="stroke: rgb(255, 255, 255); stroke-opacity: 1; stroke-width: 1px;"/></g></g><g class="zerolinelayer"><path class="yzl zl crisp" transform="translate(0,246.05)" d="M38,0h396" style="stroke: rgb(255, 255, 255); stroke-opacity: 1; stroke-width: 2px;"/></g><path class="xlines-below"/><path class="ylines-below"/><g class="overlines-below"/><g class="xaxislayer-below"/><g class="yaxislayer-below"/><g class="overaxes-below"/><g class="plot" transform="translate(38,0)" clip-path="url('#clip9863a0xyplot')"><g class="scatterlayer mlayer"><g class="trace scatter tracef39a75" style="stroke-miterlimit: 2; opacity: 1;"><g class="fills"/><g class="errorbars"/><g class="lines"><path class="js-line" d="M0,244.73L26.19,243.98L26.98,243.89L29.36,243.98L30.16,243.98L39.68,242.95L40.47,241.91L41.27,240.5L42.06,241.73L44.44,239L45.23,236.27L47.62,225.56L48.41,226.12L49.2,223.12L50,215.6L50.79,221.52L51.58,215.03L52.38,224.43L53.17,212.31L53.96,215.78L54.76,207.04L57.14,214L57.93,208.64L58.73,208.55L59.52,205.92L61.9,194.07L62.69,198.3L63.49,195.29L64.28,196.89L65.87,185.99L66.66,187.78L68.25,179.03L69.04,183.45L69.84,180.91L70.63,173.86L71.42,177.25L72.22,171.8L73.01,175.65L73.8,175.18L74.6,172.74L75.39,166.81L76.18,171.61L76.98,168.22L77.77,166.34L78.57,166.72L79.36,174.24L80.15,162.4L80.95,165.97L81.74,164L82.53,161.93L83.33,156.85L84.12,157.98L84.91,164.65L85.71,165.12L86.5,162.12L87.29,156.29L88.09,162.87L89.68,159.67L90.47,157.13L91.26,163.9L92.06,152.53L92.85,154.03L93.64,147.17L94.44,147.55L95.23,151.96L96.82,149.8L97.61,150.37L98.4,151.59L99.2,148.77L99.99,149.71L100.79,147.64L101.58,141.06L102.37,146.14L103.17,143.03L103.96,150.37L104.75,148.67L105.55,155.07L108.72,146.42L109.52,151.4L110.31,155.25L111.1,147.64L111.9,153L112.69,146.23L114.28,153.19L115.07,148.02L115.86,153.84L116.66,150.37L117.45,147.55L118.24,140.5L119.04,147.17L119.83,143.13L121.42,146.23L122.21,144.73L123.01,148.77L123.8,146.61L124.59,146.98L125.39,143.41L126.18,142.75L126.97,145.57L127.77,141.16L128.56,141.34L129.35,147.17L130.15,141.53L130.94,144.54L131.74,143.13L132.53,144.91L133.32,143.41L134.91,144.07L135.7,143.22L136.5,145.67L137.29,141.44L138.08,142.47L138.88,136.17L139.67,134.76L140.46,139.84L141.26,140.59L142.05,138.81L143.64,142.56L144.43,134.95L145.23,137.96L146.02,136.46L146.81,141.81L147.61,140.59L148.4,145.2L149.19,140.4L149.99,138.24L150.78,132.6L152.37,133.64L153.16,139.28L153.96,137.77L154.75,138.52L155.54,138.05L156.34,141.06L157.13,141.62L157.92,137.02L159.51,133.17L160.3,136.27L161.1,131.29L161.89,133.73L162.69,133.54L163.48,135.8L164.27,140.4L165.07,138.24L165.86,135.8L166.65,137.21L168.24,134.48L169.03,134.86L169.83,134.58L170.62,130.06L171.41,136.27L172.21,132.88L173,136.83L173.8,133.92L174.59,136.17L175.38,130.44L176.18,138.24L176.97,131.29L177.76,133.45L178.56,132.79L179.35,132.32L180.14,130.44L181.73,137.02L182.53,140.03L183.32,131.47L184.11,132.32L185.7,135.42L186.49,134.11L187.29,129.41L188.08,132.6L188.87,127.81L189.67,128.75L190.46,126.12L191.25,128.94L192.05,126.21L192.84,130.06L195.22,125.93L196.02,127.06L196.81,127.15L197.6,133.26L198.4,124.99L199.19,128.56L199.98,133.73L200.78,125.83L201.57,128.28L202.36,124.8L203.95,123.77L204.75,132.98L205.54,130.25L206.33,130.72L207.92,130.35L208.71,131.66L209.51,131.94L210.3,130.91L211.89,129.78L212.68,133.82L213.47,129.78L214.27,133.35L215.06,123.77L215.86,128.65L216.65,125.83L217.44,126.02L218.24,132.23L219.03,124.61L220.62,129.12L221.41,128.94L222.2,127.43L223,127.81L223.79,128.65L224.59,128L225.38,129.31L226.17,132.88L226.97,127.06L227.76,127.81L228.55,128L229.35,126.59L230.93,130.72L231.73,123.95L232.52,129.97L233.31,129.12L234.11,130.72L234.9,137.11L236.49,123.11L237.28,126.96L238.08,128.84L238.87,124.14L239.66,127.15L240.46,123.77L242.04,129.78L242.84,121.6L243.63,131.94L244.42,126.21L245.22,130.16L246.01,124.42L247.6,127.53L248.39,123.3L249.19,120.57L249.98,121.98L252.36,125.65L253.15,120.66L253.95,123.39L254.74,122.64L255.54,121.23L256.33,123.77L257.12,119.72L257.92,125.93L259.5,123.48L260.3,123.01L261.09,121.98L261.88,124.52L262.68,120.19L263.47,123.67L264.26,128.09L265.06,121.32L267.44,120.95L268.23,124.61L269.03,125.83L269.82,124.8L270.61,124.42L271.41,121.7L272.2,127.43L272.99,122.73L273.79,126.3L274.58,122.45L276.17,125.27L276.96,120.29L278.55,131.85L279.34,125.27L280.93,124.42L281.72,126.59L282.52,122.73L283.31,122.73L284.1,122.45L284.9,117.66L285.69,125.93L286.48,126.02L288.07,122.17L288.87,127.81L289.66,123.86L290.45,125.74L291.25,124.33L292.04,131.47L292.83,132.51L293.63,122.36L294.42,128.65L295.21,125.36L296.01,133.17L296.8,129.12L298.39,126.49L299.18,127.43L299.98,127.34L300.77,124.52L301.56,125.08L302.36,129.22L303.15,132.32L303.94,130.35L304.74,132.51L305.53,132.23L307.12,128.65L307.91,128.37L308.71,126.3L309.5,128.94L310.29,129.41L311.09,122.64L311.88,130.63L312.67,128.37L313.47,135.42L314.26,133.92L315.05,128.56L315.85,132.41L316.64,130.16L317.43,130.53L318.23,127.15L319.02,131L319.82,129.59L320.61,131.76L321.4,131.85L322.2,129.03L322.99,131L323.78,128.84L325.37,131.19L326.16,128.18L327.75,134.39L328.55,133.64L330.13,130.16L330.93,127.9L332.51,126.02L333.31,127.9L334.1,129.22L334.89,133.45L337.27,127.15L338.07,133.45L338.86,125.74L339.66,129.78L340.45,127.81L341.24,134.01L342.04,131.47L342.83,133.82L343.62,128.94L344.42,132.23L346,125.55L346.8,127.62L348.38,132.41L349.18,129.97L349.97,135.89L350.77,129.59L352.35,133.64L353.15,131.94L353.94,129.12L354.73,134.67L355.53,128.18L356.32,130.72L357.11,128.18L357.91,131.19L358.7,129.97L359.49,131.1L360.29,128.09L361.08,132.32L361.88,129.22L362.67,135.23L363.46,134.76L364.26,131.29L365.05,131.29L365.84,134.11L366.64,130.35L367.43,135.7L368.22,125.55L369.02,129.5L371.4,136.46L372.19,127.62L372.99,132.13L373.78,132.04L374.57,133.26L375.37,136.36L376.16,137.4L376.95,133.92L377.75,129.97L378.54,133.82L379.33,132.32L380.13,138.34L380.92,133.07L381.72,135.23L382.51,138.62L383.3,133.54L384.1,133.07L384.89,137.58L385.68,129.31L386.48,138.24L387.27,141.16L388.06,138.43L390.44,132.41L391.24,142.38L392.83,136.55L393.62,138.9L394.41,135.23L395.21,138.9L396,133.26" style="vector-effect: non-scaling-stroke; fill: none; stroke: rgb(99, 110, 250); stroke-opacity: 1; stroke-width: 2px; opacity: 1;"/></g><g class="points"/><g class="text"/></g><g class="trace scatter trace138c19" style="stroke-miterlimit: 2; opacity: 1;"><g class="fills"><g><path class="js-fill" d="M0,244.5L2.38,243.98L3.17,244.12L7.14,243.7L7.94,243.23L8.73,243.65L9.52,242.43L11.11,240.55L11.9,241.54L13.49,237.73L14.28,238.95L16.67,237.03L17.46,234.16L18.25,236.23L19.05,234.44L19.84,229.37L20.63,237.07L22.22,228.1L23.01,231.29L24.6,226.26L25.39,225.75L26.98,227.96L27.78,231.15L28.57,227.91L29.36,229.23L30.16,227.82L30.95,228.43L31.74,228.1L32.54,222.6L35.71,217.15L36.51,220.53L37.3,206.71L38.09,213.53L39.68,197.5L40.47,202.81L41.27,202.63L42.06,192.1L42.85,191.72L43.65,183.92L44.44,192L45.23,191.3L46.03,192.66L46.82,191.39L47.62,182.32L48.41,184.77L49.2,182.61L50,173.16L50.79,168.65L51.58,170.1L53.17,177.81L53.96,169.73L54.76,178.94L55.55,167.99L57.14,167.14L57.93,162.12L58.73,164.79L59.52,162.59L60.31,159.11L61.11,160.05L61.9,154.55L62.69,155.25L64.28,154.03L65.07,150.88L66.66,145.67L67.45,144.21L69.84,137.35L70.63,130.58L71.42,137.96L72.22,137.16L73.01,137.87L73.8,133.87L74.6,133.92L75.39,135.61L76.18,135.42L76.98,138.57L77.77,137.16L78.57,130.58L79.36,135.89L80.15,127.48L80.95,137.49L81.74,133.07L82.53,128L83.33,130.58L84.12,131.24L84.91,128.89L85.71,129.17L86.5,124.05L88.09,130.11L88.88,129.22L90.47,132.04L91.26,125.41L92.85,131.43L93.64,131.47L95.23,129.55L96.02,125.22L96.82,130.58L97.61,129.69L98.4,122.78L99.2,128.65L99.99,122.03L100.79,126.96L101.58,122.97L102.37,125.65L103.17,127.57L103.96,124.94L106.34,119.16L107.13,122.69L107.93,126.35L108.72,125.88L109.52,125.55L110.31,117.99L111.1,127.01L111.9,122.97L112.69,122.97L113.48,120.01L114.28,119.21L115.07,124.94L115.86,118.83L116.66,119.21L117.45,117.66L118.24,122.5L119.04,120.1L119.83,123.53L121.42,118.31L122.21,122.26L123.8,116.81L124.59,120.62L126.18,116.58L126.97,115.5L127.77,115.59L128.56,120.48L129.35,124.42L130.15,116.91L130.94,109.01L131.74,112.06L133.32,107.83L134.12,108.21L134.91,110.65L135.7,110L136.5,111.12L137.29,106.57L138.88,110L139.67,113.33L140.46,107.41L141.26,111.12L142.05,112.39L142.85,104.73L143.64,105.96L144.43,104.59L146.02,109.2L146.81,108.82L148.4,106.05L149.19,107.88L149.99,99.38L150.78,109.67L151.58,102.81L152.37,107.79L153.96,103.46L154.75,108.35L156.34,105.06L157.13,107.98L158.72,102.48L159.51,106.99L160.3,106.94L161.1,108.68L162.69,99.99L163.48,101.02L165.07,95.94L165.86,106.14L166.65,101.07L167.45,102.29L168.24,102.81L169.03,105.44L169.83,99.42L170.62,104.36L171.41,98.53L172.21,103.37L173,99.8L173.8,100.79L174.59,104.26L175.38,99L177.76,107.08L178.56,98.2L180.14,102.85L180.94,101.82L181.73,106.99L182.53,99L183.32,101.35L184.11,99.7L184.91,101.82L185.7,100.27L186.49,98.15L187.29,107.32L188.08,98.11L188.87,98.81L189.67,94.02L190.46,101.54L192.05,100.83L192.84,98.62L193.64,100.55L194.43,94.3L195.22,96.79L196.02,94.63L197.6,98.62L198.4,96.7L199.19,93.97L199.98,96.23L200.78,99.19L201.57,94.3L203.16,97.35L203.95,99.75L204.75,101.82L205.54,97.87L206.33,100.03L207.13,99.52L208.71,103.56L209.51,100.83L210.3,103.32L211.09,98.53L213.47,103.79L214.27,100.27L215.06,98.29L215.86,103.09L217.44,101.07L218.24,102.05L219.03,99.75L219.82,101.77L220.62,97.26L221.41,103.23L223,94.49L223.79,100.36L224.59,101.91L225.38,96.88L226.17,94.35L226.97,95.29L227.76,95.62L228.55,99.89L229.35,94.63L230.14,98.48L230.93,97.45L231.73,94.53L232.52,99L233.31,97.59L234.11,92.04L234.9,93.92L235.7,96.13L236.49,100.64L237.28,98.86L238.08,92.84L238.87,96.32L239.66,96.23L240.46,99.14L241.25,95.99L242.84,99.28L243.63,92.19L244.42,101.63L245.22,95.47L246.01,102.62L246.81,100.55L249.19,95.94L249.98,100.32L250.77,102.15L251.57,97.03L253.15,94.96L253.95,98.81L254.74,100.93L255.54,100.69L256.33,96.32L257.12,100.17L258.71,90.78L259.5,96.18L260.3,94.39L261.09,89.93L261.88,97.35L262.68,90.4L265.06,101.26L265.85,92.94L266.65,97.5L267.44,96.41L269.03,100.41L269.82,93.27L270.61,97.45L271.41,95.94L272.2,101.87L272.99,96.56L273.79,98.11L274.58,97.73L275.37,99.19L276.17,91.86L277.76,95.94L278.55,96.41L279.34,96.23L280.14,94.11L280.93,97.73L281.72,95.05L282.52,101.3L283.31,94.96L284.1,99.61L284.9,97.73L285.69,95.99L286.48,101.35L287.28,92.09L288.07,95.15L289.66,91.48L290.45,96.56L291.25,99.33L292.04,98.62L292.83,96.18L293.63,97.68L294.42,95.24L295.21,96.09L296.01,94.25L296.8,99.47L297.6,95.19L298.39,99.47L300.77,94.72L301.56,101.68L302.36,95.43L303.15,97.92L303.94,98.2L304.74,101.54L306.32,94.72L307.12,99.85L307.91,98.2L308.71,94.21L310.29,99.23L311.09,96.6L311.88,95.52L312.67,99.14L314.26,93.5L315.05,93.6L315.85,100.22L316.64,98.39L318.23,95.62L319.02,98.29L319.82,93.74L320.61,97.17L322.2,92.98L322.99,94.07L323.78,93.41L324.58,91.29L325.37,96.74L326.16,93.83L326.96,91.53L327.75,97.73L328.55,91.39L329.34,97.78L330.13,95.52L330.93,88.61L331.72,97.35L332.51,97.26L333.31,98.58L334.1,94.02L334.89,94.72L335.69,101.26L336.48,91.29L337.27,97.87L338.86,91.62L339.66,94.58L340.45,96.79L341.24,95.85L342.04,95.19L342.83,96.13L343.62,94.21L344.42,95.57L346,90.16L346.8,98.81L348.38,92.23L349.18,91.9L350.77,96.18L351.56,98.62L352.35,100.17L353.15,94.54L353.94,93.92L354.73,96.41L355.53,98.2L356.32,93.88L357.11,90.4L357.91,96.13L359.49,96.09L360.29,96.84L361.88,99.56L362.67,92L363.46,96.46L364.26,96.23L365.05,98.53L365.84,94.72L367.43,97.68L368.22,96.65L369.81,98.01L370.61,95.9L372.19,98.06L372.99,93.69L374.57,99.56L375.37,98.39L376.16,97.07L376.95,98.29L377.75,96.79L378.54,99.28L380.92,95.24L381.72,98.11L383.3,91.29L384.1,96.74L384.89,92.47L385.68,94.91L386.48,93.69L387.27,94.91L388.06,93.45L388.86,96.32L389.65,96.56L390.44,95.47L391.24,97.03L392.03,94.91L393.62,99.56L394.41,90.73L395.21,95.62L396,95.52L396,168.65L395.21,170.01L394.41,165.97L393.62,168.41L392.03,167.43L391.24,168.04L390.44,171.61L389.65,169.21L388.86,166.02L388.06,169.68L387.27,165.4L386.48,167.43L384.89,165.55L384.1,163.48L383.3,165.83L382.51,163.81L381.72,162.21L380.92,166.49L380.13,162.77L379.33,167.47L378.54,164.47L377.75,166.34L376.95,167.57L376.16,166.77L374.57,163.85L373.78,164.04L372.19,167.8L371.4,163.34L370.61,165.83L369.81,165.78L369.02,168.41L368.22,165.78L367.43,168.93L366.64,163.01L365.84,163.06L365.05,168.74L364.26,165.12L363.46,167.9L362.67,164.65L361.88,166.02L361.08,166.96L360.29,163.1L359.49,167.75L358.7,164.93L357.91,161.36L357.11,163.06L356.32,160.56L355.53,161.27L354.73,158.83L353.94,166.39L352.35,162.4L351.56,162.77L350.77,158.78L349.97,159.39L348.38,165.03L347.59,160.14L346.8,158.31L346,161.46L345.21,161.08L344.42,158.5L343.62,160.71L342.83,159.86L341.24,158.92L340.45,163.62L339.66,160.99L338.86,161.13L336.48,155.77L335.69,157.51L334.89,157.74L334.1,163.38L331.72,156.57L330.93,162.63L330.13,157.6L329.34,160.99L328.55,160.14L327.75,160.56L326.16,157.6L325.37,158.64L324.58,159.3L323.78,161.69L322.2,157.46L321.4,157.93L320.61,158.73L319.82,154.45L319.02,153.28L318.23,153.61L317.43,159.06L316.64,158.5L315.85,156.19L315.05,156.48L313.47,162.02L312.67,160.75L311.88,160.66L311.09,159.81L310.29,158.5L309.5,155.11L308.71,155.44L307.91,160.47L306.32,157.93L305.53,159.62L303.94,156.95L303.15,157.6L301.56,162.3L300.77,159.58L299.98,160.61L299.18,159.91L298.39,162.4L297.6,157.93L296.8,159.25L296.01,157.42L295.21,166.67L294.42,159.3L293.63,153.8L292.83,164.32L292.04,157.51L291.25,166.25L289.66,156.8L288.87,160.33L288.07,161.88L287.28,160.71L286.48,160.52L285.69,155.58L284.9,157.93L284.1,156.9L283.31,158.45L282.52,158.31L281.72,159.25L280.93,163.01L280.14,157.93L279.34,158.97L278.55,159.67L277.76,159.15L276.96,161.32L276.17,158.17L275.37,158.03L274.58,156.99L272.99,160.52L272.2,155.02L270.61,162.35L269.82,161.18L268.23,157.18L267.44,163.24L266.65,164L265.85,162.26L263.47,164.7L262.68,157.09L259.5,168.27L258.71,164.42L257.92,162.87L257.12,167.05L256.33,164.18L255.54,167.43L253.95,162.12L253.15,163.53L252.36,161.46L251.57,165.4L249.19,159.01L248.39,162.44L247.6,164.61L246.81,161.69L246.01,165.36L245.22,163.29L244.42,165.97L243.63,163.76L242.84,161.08L242.04,164.37L241.25,159.11L240.46,163.15L238.87,160.8L238.08,157.98L237.28,165.17L236.49,154.64L235.7,165.08L234.9,160.61L234.11,166.25L233.31,161.88L232.52,164.04L231.73,169.96L230.93,156.05L230.14,163.85L228.55,157.98L227.76,166.3L226.97,167.38L226.17,161.41L225.38,164.56L224.59,161.36L223.79,159.62L223,165.08L222.2,162.12L221.41,165.97L220.62,162.63L219.82,163.76L219.03,167.43L218.24,160.75L217.44,159.62L216.65,164.65L215.86,163.81L215.06,164.75L212.68,160.47L211.89,161.88L211.09,166.86L210.3,159.44L209.51,164.28L208.71,159.81L207.92,162.54L207.13,159.77L204.75,168.27L203.95,162.54L203.16,160.05L202.36,162.12L201.57,167L200.78,161.46L199.98,172.22L199.19,165.83L198.4,165.87L197.6,163.67L196.81,169.4L196.02,163.01L192.84,172.17L192.05,163.2L191.25,170.43L190.46,163.06L189.67,162.02L188.87,165.5L188.08,173.3L187.29,168.37L186.49,171.04L185.7,167.71L184.91,161.79L184.11,167.52L183.32,171L182.53,170.01L181.73,166.63L180.94,171.47L180.14,172.45L179.35,168.51L178.56,164.09L177.76,172.36L176.18,170.15L175.38,170.53L174.59,160L173.8,168.98L172.21,167.43L171.41,169.96L169.83,175.13L169.03,173.49L168.24,168.41L167.45,169.26L166.65,169.78L165.86,165.08L165.07,165.22L164.27,166.67L163.48,171.37L162.69,167.57L161.89,165.31L161.1,168.08L160.3,171.09L159.51,170.48L158.72,171.98L157.92,171.28L156.34,171.94L155.54,167.14L154.75,170.2L153.96,167.47L153.16,167.75L152.37,175.51L151.58,173.82L150.78,177.11L149.99,175.37L149.19,176.73L148.4,176.5L147.61,174.99L146.81,176.03L146.02,178.33L145.23,177.58L144.43,181.05L143.64,180.73L142.85,181.85L142.05,186.98L141.26,181.01L140.46,182.32L139.67,186.13L138.88,181.2L138.08,184.25L137.29,185.75L136.5,190.92L134.91,184.72L134.12,187.07L133.32,182.61L132.53,185.99L131.74,186.74L130.94,191.49L130.15,188.39L129.35,190.41L127.77,186.41L126.97,187.59L126.18,195.2L125.39,193.04L124.59,191.44L123.8,192.71L122.21,195.06L121.42,191.86L120.63,199.2L119.83,193.6L118.24,201.07L117.45,198.68L116.66,202.81L115.86,195.34L115.07,196L114.28,205.73L113.48,205.07L112.69,210.47L111.1,205.07L110.31,205.92L109.52,207.98L108.72,205.73L107.93,213.72L107.13,213.72L106.34,203.8L105.55,212.45L104.75,209.58L103.96,215.6L103.17,213.53L102.37,207.84L101.58,214.33L100.79,212.4L99.99,217.1L99.2,216.54L96.82,223.59L96.02,218.6L95.23,219.22L94.44,225.32L93.64,222.93L92.85,226.78L91.26,223.02L90.47,229.88L89.68,226.45L88.88,232.56L87.29,234.91L86.5,237.26L85.71,235.66L84.91,238.58L83.33,237.21L82.53,235.43L80.95,238.15L80.15,239.75L79.36,241.35L78.57,239.38L77.77,241.35L76.98,240.83L76.18,240.08L75.39,235.52L74.6,239.33L73.8,239.33L71.42,242.1L70.63,241.12L69.84,241.3L69.04,242.57L68.25,239.89L67.45,242.29L66.66,241.35L65.87,241.77L65.07,241.21L64.28,243.09L63.49,243.7L62.69,242.95L61.11,242.81L60.31,241.02L59.52,241.63L58.73,241.02L57.93,243L57.14,242.34L56.34,242.15L55.55,243.42L54.76,242.38L53.96,243.32L50,243.65L49.2,243.84L47.62,243.98L46.82,244.03L44.44,243.79L43.65,244.08L34.92,244.59L34.12,244.41L28.57,244.73L27.78,244.55L13.49,244.92L12.7,244.73L8.73,244.73L7.94,244.92L3.97,244.73L3.17,244.97L0,244.92Z" style="fill: rgb(99, 110, 250); fill-opacity: 0.3; stroke-width: 0;"/></g></g><g class="errorbars"/><g class="lines"><path class="js-line" d="M0,244.5L2.38,243.98L3.17,244.12L7.14,243.7L7.94,243.23L8.73,243.65L9.52,242.43L11.11,240.55L11.9,241.54L13.49,237.73L14.28,238.95L16.67,237.03L17.46,234.16L18.25,236.23L19.05,234.44L19.84,229.37L20.63,237.07L22.22,228.1L23.01,231.29L24.6,226.26L25.39,225.75L26.98,227.96L27.78,231.15L28.57,227.91L29.36,229.23L30.16,227.82L30.95,228.43L31.74,228.1L32.54,222.6L35.71,217.15L36.51,220.53L37.3,206.71L38.09,213.53L39.68,197.5L40.47,202.81L41.27,202.63L42.06,192.1L42.85,191.72L43.65,183.92L44.44,192L45.23,191.3L46.03,192.66L46.82,191.39L47.62,182.32L48.41,184.77L49.2,182.61L50,173.16L50.79,168.65L51.58,170.1L53.17,177.81L53.96,169.73L54.76,178.94L55.55,167.99L57.14,167.14L57.93,162.12L58.73,164.79L59.52,162.59L60.31,159.11L61.11,160.05L61.9,154.55L62.69,155.25L64.28,154.03L65.07,150.88L66.66,145.67L67.45,144.21L69.84,137.35L70.63,130.58L71.42,137.96L72.22,137.16L73.01,137.87L73.8,133.87L74.6,133.92L75.39,135.61L76.18,135.42L76.98,138.57L77.77,137.16L78.57,130.58L79.36,135.89L80.15,127.48L80.95,137.49L81.74,133.07L82.53,128L83.33,130.58L84.12,131.24L84.91,128.89L85.71,129.17L86.5,124.05L88.09,130.11L88.88,129.22L90.47,132.04L91.26,125.41L92.85,131.43L93.64,131.47L95.23,129.55L96.02,125.22L96.82,130.58L97.61,129.69L98.4,122.78L99.2,128.65L99.99,122.03L100.79,126.96L101.58,122.97L102.37,125.65L103.17,127.57L103.96,124.94L106.34,119.16L107.13,122.69L107.93,126.35L108.72,125.88L109.52,125.55L110.31,117.99L111.1,127.01L111.9,122.97L112.69,122.97L113.48,120.01L114.28,119.21L115.07,124.94L115.86,118.83L116.66,119.21L117.45,117.66L118.24,122.5L119.04,120.1L119.83,123.53L121.42,118.31L122.21,122.26L123.8,116.81L124.59,120.62L126.18,116.58L126.97,115.5L127.77,115.59L128.56,120.48L129.35,124.42L130.15,116.91L130.94,109.01L131.74,112.06L133.32,107.83L134.12,108.21L134.91,110.65L135.7,110L136.5,111.12L137.29,106.57L138.88,110L139.67,113.33L140.46,107.41L141.26,111.12L142.05,112.39L142.85,104.73L143.64,105.96L144.43,104.59L146.02,109.2L146.81,108.82L148.4,106.05L149.19,107.88L149.99,99.38L150.78,109.67L151.58,102.81L152.37,107.79L153.96,103.46L154.75,108.35L156.34,105.06L157.13,107.98L158.72,102.48L159.51,106.99L160.3,106.94L161.1,108.68L162.69,99.99L163.48,101.02L165.07,95.94L165.86,106.14L166.65,101.07L167.45,102.29L168.24,102.81L169.03,105.44L169.83,99.42L170.62,104.36L171.41,98.53L172.21,103.37L173,99.8L173.8,100.79L174.59,104.26L175.38,99L177.76,107.08L178.56,98.2L180.14,102.85L180.94,101.82L181.73,106.99L182.53,99L183.32,101.35L184.11,99.7L184.91,101.82L185.7,100.27L186.49,98.15L187.29,107.32L188.08,98.11L188.87,98.81L189.67,94.02L190.46,101.54L192.05,100.83L192.84,98.62L193.64,100.55L194.43,94.3L195.22,96.79L196.02,94.63L197.6,98.62L198.4,96.7L199.19,93.97L199.98,96.23L200.78,99.19L201.57,94.3L203.16,97.35L203.95,99.75L204.75,101.82L205.54,97.87L206.33,100.03L207.13,99.52L208.71,103.56L209.51,100.83L210.3,103.32L211.09,98.53L213.47,103.79L214.27,100.27L215.06,98.29L215.86,103.09L217.44,101.07L218.24,102.05L219.03,99.75L219.82,101.77L220.62,97.26L221.41,103.23L223,94.49L223.79,100.36L224.59,101.91L225.38,96.88L226.17,94.35L226.97,95.29L227.76,95.62L228.55,99.89L229.35,94.63L230.14,98.48L230.93,97.45L231.73,94.53L232.52,99L233.31,97.59L234.11,92.04L234.9,93.92L235.7,96.13L236.49,100.64L237.28,98.86L238.08,92.84L238.87,96.32L239.66,96.23L240.46,99.14L241.25,95.99L242.84,99.28L243.63,92.19L244.42,101.63L245.22,95.47L246.01,102.62L246.81,100.55L249.19,95.94L249.98,100.32L250.77,102.15L251.57,97.03L253.15,94.96L253.95,98.81L254.74,100.93L255.54,100.69L256.33,96.32L257.12,100.17L258.71,90.78L259.5,96.18L260.3,94.39L261.09,89.93L261.88,97.35L262.68,90.4L265.06,101.26L265.85,92.94L266.65,97.5L267.44,96.41L269.03,100.41L269.82,93.27L270.61,97.45L271.41,95.94L272.2,101.87L272.99,96.56L273.79,98.11L274.58,97.73L275.37,99.19L276.17,91.86L277.76,95.94L278.55,96.41L279.34,96.23L280.14,94.11L280.93,97.73L281.72,95.05L282.52,101.3L283.31,94.96L284.1,99.61L284.9,97.73L285.69,95.99L286.48,101.35L287.28,92.09L288.07,95.15L289.66,91.48L290.45,96.56L291.25,99.33L292.04,98.62L292.83,96.18L293.63,97.68L294.42,95.24L295.21,96.09L296.01,94.25L296.8,99.47L297.6,95.19L298.39,99.47L300.77,94.72L301.56,101.68L302.36,95.43L303.15,97.92L303.94,98.2L304.74,101.54L306.32,94.72L307.12,99.85L307.91,98.2L308.71,94.21L310.29,99.23L311.09,96.6L311.88,95.52L312.67,99.14L314.26,93.5L315.05,93.6L315.85,100.22L316.64,98.39L318.23,95.62L319.02,98.29L319.82,93.74L320.61,97.17L322.2,92.98L322.99,94.07L323.78,93.41L324.58,91.29L325.37,96.74L326.16,93.83L326.96,91.53L327.75,97.73L328.55,91.39L329.34,97.78L330.13,95.52L330.93,88.61L331.72,97.35L332.51,97.26L333.31,98.58L334.1,94.02L334.89,94.72L335.69,101.26L336.48,91.29L337.27,97.87L338.86,91.62L339.66,94.58L340.45,96.79L341.24,95.85L342.04,95.19L342.83,96.13L343.62,94.21L344.42,95.57L346,90.16L346.8,98.81L348.38,92.23L349.18,91.9L350.77,96.18L351.56,98.62L352.35,100.17L353.15,94.54L353.94,93.92L354.73,96.41L355.53,98.2L356.32,93.88L357.11,90.4L357.91,96.13L359.49,96.09L360.29,96.84L361.88,99.56L362.67,92L363.46,96.46L364.26,96.23L365.05,98.53L365.84,94.72L367.43,97.68L368.22,96.65L369.81,98.01L370.61,95.9L372.19,98.06L372.99,93.69L374.57,99.56L375.37,98.39L376.16,97.07L376.95,98.29L377.75,96.79L378.54,99.28L380.92,95.24L381.72,98.11L383.3,91.29L384.1,96.74L384.89,92.47L385.68,94.91L386.48,93.69L387.27,94.91L388.06,93.45L388.86,96.32L389.65,96.56L390.44,95.47L391.24,97.03L392.03,94.91L393.62,99.56L394.41,90.73L395.21,95.62L396,95.52L396,168.65L395.21,170.01L394.41,165.97L393.62,168.41L392.03,167.43L391.24,168.04L390.44,171.61L389.65,169.21L388.86,166.02L388.06,169.68L387.27,165.4L386.48,167.43L384.89,165.55L384.1,163.48L383.3,165.83L382.51,163.81L381.72,162.21L380.92,166.49L380.13,162.77L379.33,167.47L378.54,164.47L377.75,166.34L376.95,167.57L376.16,166.77L374.57,163.85L373.78,164.04L372.19,167.8L371.4,163.34L370.61,165.83L369.81,165.78L369.02,168.41L368.22,165.78L367.43,168.93L366.64,163.01L365.84,163.06L365.05,168.74L364.26,165.12L363.46,167.9L362.67,164.65L361.88,166.02L361.08,166.96L360.29,163.1L359.49,167.75L358.7,164.93L357.91,161.36L357.11,163.06L356.32,160.56L355.53,161.27L354.73,158.83L353.94,166.39L352.35,162.4L351.56,162.77L350.77,158.78L349.97,159.39L348.38,165.03L347.59,160.14L346.8,158.31L346,161.46L345.21,161.08L344.42,158.5L343.62,160.71L342.83,159.86L341.24,158.92L340.45,163.62L339.66,160.99L338.86,161.13L336.48,155.77L335.69,157.51L334.89,157.74L334.1,163.38L331.72,156.57L330.93,162.63L330.13,157.6L329.34,160.99L328.55,160.14L327.75,160.56L326.16,157.6L325.37,158.64L324.58,159.3L323.78,161.69L322.2,157.46L321.4,157.93L320.61,158.73L319.82,154.45L319.02,153.28L318.23,153.61L317.43,159.06L316.64,158.5L315.85,156.19L315.05,156.48L313.47,162.02L312.67,160.75L311.88,160.66L311.09,159.81L310.29,158.5L309.5,155.11L308.71,155.44L307.91,160.47L306.32,157.93L305.53,159.62L303.94,156.95L303.15,157.6L301.56,162.3L300.77,159.58L299.98,160.61L299.18,159.91L298.39,162.4L297.6,157.93L296.8,159.25L296.01,157.42L295.21,166.67L294.42,159.3L293.63,153.8L292.83,164.32L292.04,157.51L291.25,166.25L289.66,156.8L288.87,160.33L288.07,161.88L287.28,160.71L286.48,160.52L285.69,155.58L284.9,157.93L284.1,156.9L283.31,158.45L282.52,158.31L281.72,159.25L280.93,163.01L280.14,157.93L279.34,158.97L278.55,159.67L277.76,159.15L276.96,161.32L276.17,158.17L275.37,158.03L274.58,156.99L272.99,160.52L272.2,155.02L270.61,162.35L269.82,161.18L268.23,157.18L267.44,163.24L266.65,164L265.85,162.26L263.47,164.7L262.68,157.09L259.5,168.27L258.71,164.42L257.92,162.87L257.12,167.05L256.33,164.18L255.54,167.43L253.95,162.12L253.15,163.53L252.36,161.46L251.57,165.4L249.19,159.01L248.39,162.44L247.6,164.61L246.81,161.69L246.01,165.36L245.22,163.29L244.42,165.97L243.63,163.76L242.84,161.08L242.04,164.37L241.25,159.11L240.46,163.15L238.87,160.8L238.08,157.98L237.28,165.17L236.49,154.64L235.7,165.08L234.9,160.61L234.11,166.25L233.31,161.88L232.52,164.04L231.73,169.96L230.93,156.05L230.14,163.85L228.55,157.98L227.76,166.3L226.97,167.38L226.17,161.41L225.38,164.56L224.59,161.36L223.79,159.62L223,165.08L222.2,162.12L221.41,165.97L220.62,162.63L219.82,163.76L219.03,167.43L218.24,160.75L217.44,159.62L216.65,164.65L215.86,163.81L215.06,164.75L212.68,160.47L211.89,161.88L211.09,166.86L210.3,159.44L209.51,164.28L208.71,159.81L207.92,162.54L207.13,159.77L204.75,168.27L203.95,162.54L203.16,160.05L202.36,162.12L201.57,167L200.78,161.46L199.98,172.22L199.19,165.83L198.4,165.87L197.6,163.67L196.81,169.4L196.02,163.01L192.84,172.17L192.05,163.2L191.25,170.43L190.46,163.06L189.67,162.02L188.87,165.5L188.08,173.3L187.29,168.37L186.49,171.04L185.7,167.71L184.91,161.79L184.11,167.52L183.32,171L182.53,170.01L181.73,166.63L180.94,171.47L180.14,172.45L179.35,168.51L178.56,164.09L177.76,172.36L176.18,170.15L175.38,170.53L174.59,160L173.8,168.98L172.21,167.43L171.41,169.96L169.83,175.13L169.03,173.49L168.24,168.41L167.45,169.26L166.65,169.78L165.86,165.08L165.07,165.22L164.27,166.67L163.48,171.37L162.69,167.57L161.89,165.31L161.1,168.08L160.3,171.09L159.51,170.48L158.72,171.98L157.92,171.28L156.34,171.94L155.54,167.14L154.75,170.2L153.96,167.47L153.16,167.75L152.37,175.51L151.58,173.82L150.78,177.11L149.99,175.37L149.19,176.73L148.4,176.5L147.61,174.99L146.81,176.03L146.02,178.33L145.23,177.58L144.43,181.05L143.64,180.73L142.85,181.85L142.05,186.98L141.26,181.01L140.46,182.32L139.67,186.13L138.88,181.2L138.08,184.25L137.29,185.75L136.5,190.92L134.91,184.72L134.12,187.07L133.32,182.61L132.53,185.99L131.74,186.74L130.94,191.49L130.15,188.39L129.35,190.41L127.77,186.41L126.97,187.59L126.18,195.2L125.39,193.04L124.59,191.44L123.8,192.71L122.21,195.06L121.42,191.86L120.63,199.2L119.83,193.6L118.24,201.07L117.45,198.68L116.66,202.81L115.86,195.34L115.07,196L114.28,205.73L113.48,205.07L112.69,210.47L111.1,205.07L110.31,205.92L109.52,207.98L108.72,205.73L107.93,213.72L107.13,213.72L106.34,203.8L105.55,212.45L104.75,209.58L103.96,215.6L103.17,213.53L102.37,207.84L101.58,214.33L100.79,212.4L99.99,217.1L99.2,216.54L96.82,223.59L96.02,218.6L95.23,219.22L94.44,225.32L93.64,222.93L92.85,226.78L91.26,223.02L90.47,229.88L89.68,226.45L88.88,232.56L87.29,234.91L86.5,237.26L85.71,235.66L84.91,238.58L83.33,237.21L82.53,235.43L80.95,238.15L80.15,239.75L79.36,241.35L78.57,239.38L77.77,241.35L76.98,240.83L76.18,240.08L75.39,235.52L74.6,239.33L73.8,239.33L71.42,242.1L70.63,241.12L69.84,241.3L69.04,242.57L68.25,239.89L67.45,242.29L66.66,241.35L65.87,241.77L65.07,241.21L64.28,243.09L63.49,243.7L62.69,242.95L61.11,242.81L60.31,241.02L59.52,241.63L58.73,241.02L57.93,243L57.14,242.34L56.34,242.15L55.55,243.42L54.76,242.38L53.96,243.32L50,243.65L49.2,243.84L47.62,243.98L46.82,244.03L44.44,243.79L43.65,244.08L34.92,244.59L34.12,244.41L28.57,244.73L27.78,244.55L13.49,244.92L12.7,244.73L8.73,244.73L7.94,244.92L3.97,244.73L3.17,244.97L0,244.92" style="vector-effect: non-scaling-stroke; fill: none; stroke: rgb(0, 0, 0); stroke-opacity: 0; stroke-width: 2px; opacity: 1;"/></g><g class="points"/><g class="text"/></g><g class="trace scatter trace6ac35e" style="stroke-miterlimit: 2; opacity: 1;"><g class="fills"/><g class="errorbars"/><g class="lines"><path class="js-line" d="M0,244.92L1.59,244.55L2.38,244.17L3.17,243.79L3.97,244.36L5.56,243.98L6.35,244.17L9.52,243.98L10.32,242.1L11.9,243.79L12.7,243.61L16.67,244.17L17.46,243.98L18.25,242.29L19.05,243.61L19.84,242.67L20.63,240.22L22.22,235.52L23.01,240.6L23.81,242.29L24.6,238.53L25.39,241.54L26.19,234.21L26.98,234.58L27.78,239.47L28.57,238.53L29.36,231.01L30.16,233.08L30.95,232.7L32.54,237.78L33.33,234.77L34.12,234.58L34.92,230.82L36.51,224.62L37.3,228.57L38.09,232.52L38.89,218.42L39.68,224.43L40.47,223.68L42.06,226.5L42.85,219.73L45.23,219.73L46.03,212.21L46.82,214.66L47.62,222.18L48.41,224.24L49.2,213.72L50,212.21L50.79,200.93L53.17,212.21L53.96,205.82L54.76,204.69L55.55,197.93L56.34,197.55L57.14,188.34L57.93,190.41L58.73,190.03L59.52,185.33L60.31,187.78L61.9,173.86L62.69,176.5L63.49,171.98L64.28,174.62L65.07,174.99L65.87,163.71L66.66,167.47L67.45,162.21L68.25,161.27L69.04,154.88L69.84,156.57L70.63,163.34L71.42,156.57L72.22,160.14L73.01,154.5L73.8,156.19L74.6,162.77L75.39,154.13L76.18,153.19L76.98,159.01L77.77,143.03L78.57,159.39L79.36,147.36L80.15,156.19L81.74,149.61L82.53,149.99L83.33,148.49L84.12,148.86L85.71,140.22L86.5,143.41L87.29,149.99L88.09,142.28L89.68,141.72L90.47,137.77L92.85,144.54L93.64,139.46L94.44,145.1L95.23,143.03L96.02,138.71L96.82,141.53L97.61,140.59L98.4,138.15L99.2,146.61L99.99,134.01L101.58,132.51L102.37,130.63L103.96,143.22L104.75,132.88L105.55,144.91L106.34,143.97L107.13,137.96L107.93,140.4L108.72,142.28L109.52,134.39L110.31,131.57L111.1,131.76L111.9,134.2L112.69,128.37L113.48,124.42L114.28,132.51L115.86,125.74L116.66,124.61L117.45,125.74L118.24,125.55L119.04,120.85L119.83,123.3L120.63,125.36L121.42,115.59L122.21,121.98L123.01,115.59L124.59,125.74L125.39,120.1L126.97,125.74L127.77,118.22L128.56,121.23L129.35,116.91L130.15,114.46L130.94,128.75L132.53,110.7L133.32,108.07L134.91,123.3L135.7,120.29L136.5,109.76L137.29,112.58L138.08,123.3L138.88,114.84L139.67,117.28L140.46,110.33L141.26,110.7L142.05,106.38L143.64,107.32L144.43,111.83L145.23,107.13L146.02,114.46L146.81,113.9L147.61,111.45L149.19,106.75L149.99,104.5L151.58,113.33L152.37,98.29L153.96,112.02L154.75,107.51L155.54,106.75L156.34,115.21L157.13,106.38L157.92,112.77L159.51,106.94L160.3,106.94L161.1,94.91L161.89,100.36L162.69,105.06L163.48,99.42L164.27,102.62L165.07,109.2L167.45,95.66L168.24,105.81L169.03,106.94L169.83,92.66L170.62,99.42L171.41,98.48L172.21,102.62L173,102.24L173.8,96.04L174.59,101.3L175.38,97.92L176.18,98.67L176.97,93.03L177.76,103.93L178.56,94.54L179.35,96.6L180.14,101.3L180.94,93.78L181.73,96.6L182.53,96.41L183.32,94.16L184.11,103.75L184.91,92.66L185.7,94.54L186.49,96.6L187.29,93.03L188.87,100.93L189.67,99.61L190.46,91.53L191.25,92.47L192.05,98.48L192.84,92.66L194.43,94.16L195.22,89.46L196.02,99.23L196.81,97.92L197.6,92.66L198.4,95.66L199.19,92.09L199.98,95.1L200.78,88.9L201.57,101.68L202.36,93.97L203.16,95.66L204.75,99.61L205.54,93.22L206.33,95.1L207.13,103.18L208.71,102.43L209.51,96.41L210.3,110.7L211.09,99.8L211.89,95.47L212.68,97.54L213.47,99.23L214.27,93.41L215.06,101.68L215.86,96.98L217.44,99.61L218.24,89.27L219.03,93.41L219.82,103.37L220.62,98.48L221.41,101.87L223.79,96.98L224.59,101.11L225.38,99.42L226.17,104.87L226.97,99.8L227.76,100.36L229.35,93.78L230.14,96.79L232.52,98.86L233.31,101.11L234.11,100.74L234.9,103.75L235.7,100.55L236.49,103.37L237.28,102.05L238.08,93.97L239.66,101.49L240.46,99.05L241.25,99.8L242.04,107.13L242.84,104.12L243.63,95.66L245.22,108.82L246.01,100.93L246.81,106.94L247.6,99.8L248.39,94.16L249.19,98.67L252.36,109.39L253.15,99.42L253.95,93.03L254.74,102.81L256.33,101.87L257.12,108.07L257.92,92.28L258.71,103.93L259.5,104.69L260.3,91.34L261.88,109.01L262.68,104.69L265.06,101.3L265.85,106.75L266.65,104.12L267.44,109.01L268.23,103.93L269.03,106.19L269.82,95.85L270.61,104.69L272.2,98.67L272.99,102.43L274.58,107.88L275.37,106.38L276.17,103.93L276.96,105.63L277.76,108.82L278.55,105.44L279.34,109.76L280.14,103.18L280.93,103.56L281.72,106.94L282.52,101.3L283.31,101.68L284.1,102.24L284.9,105.25L285.69,103.37L286.48,105.25L288.07,102.62L288.87,97.73L289.66,103.18L290.45,99.42L291.25,106.94L292.04,100.36L293.63,102.05L294.42,99.42L295.21,99.8L296.01,107.13L297.6,98.67L298.39,107.13L299.18,106.75L299.98,102.62L302.36,105.44L303.15,108.82" style="vector-effect: non-scaling-stroke; fill: none; stroke: rgb(239, 85, 59); stroke-opacity: 1; stroke-width: 2px; opacity: 1;"/></g><g class="points"/><g class="text"/></g><g class="trace scatter trace5890ea" style="stroke-miterlimit: 2; opacity: 1;"><g class="fills"><g><path class="js-fill" d="M0,244.55L1.59,243.98L2.38,242.48L4.76,241.54L5.56,239.85L6.35,239.66L7.14,234.77L7.94,233.27L8.73,234.4L9.52,234.96L10.32,232.14L11.11,239.09L11.9,232.7L12.7,232.7L13.49,237.4L14.28,235.52L15.08,238.15L15.87,239.66L16.67,225.75L17.46,238.53L18.25,232.33L19.05,226.88L19.84,227.82L20.63,223.49L21.43,226.31L23.01,219.54L23.81,217.29L24.6,221.61L25.39,217.48L26.98,223.49L27.78,210.33L28.57,223.49L29.36,215.6L30.16,193.23L30.95,204.51L31.74,190.41L32.54,208.27L34.92,193.41L35.71,200.93L36.51,193.79L37.3,197.36L38.89,184.39L39.68,191.91L40.47,179.88L41.27,195.67L42.06,184.02L42.85,190.03L43.65,187.02L44.44,189.09L45.23,187.21L46.03,188.53L47.62,174.62L48.41,176.12L49.2,180.82L50,165.97L50.79,173.3L51.58,159.58L53.17,171.98L53.96,167.85L54.76,165.4L55.55,154.88L56.34,159.58L57.14,155.82L57.93,142.09L58.73,147.55L59.52,142.85L60.31,144.91L61.9,126.87L62.69,133.26L63.49,133.82L64.28,130.25L65.07,129.5L65.87,127.06L67.45,132.32L68.25,123.67L69.04,122.17L69.84,118.22L70.63,131.38L71.42,118.22L72.22,121.98L73.01,121.79L73.8,106.38L74.6,114.46L75.39,110.7L76.18,115.4L76.98,122.73L77.77,112.39L78.57,105.81L79.36,109.95L80.95,118.78L81.74,116.72L82.53,115.4L83.33,106.94L84.91,109.95L85.71,103.18L86.5,97.73L87.29,104.5L88.09,114.46L88.88,104.12L90.47,101.87L91.26,111.27L92.06,104.31L92.85,107.32L94.44,97.35L95.23,92.84L96.82,103.18L97.61,95.29L98.4,100.55L99.2,95.1L99.99,103.56L100.79,100.74L101.58,92.28L102.37,99.42L103.17,93.22L103.96,95.66L105.55,102.62L106.34,98.11L107.13,99.42L107.93,88.71L108.72,94.54L109.52,90.78L110.31,98.29L111.1,97.92L111.9,95.29L112.69,99.61L113.48,102.99L114.28,98.11L115.07,100.36L115.86,87.39L117.45,95.29L118.24,93.03L119.83,86.26L120.63,96.04L121.42,96.41L122.21,99.42L123.01,99.8L123.8,96.79L124.59,95.85L125.39,97.54L126.97,90.02L127.77,95.47L129.35,88.14L130.15,91.9L130.94,102.62L131.74,94.35L132.53,89.08L133.32,92.47L134.91,89.27L135.7,89.65L136.5,86.83L137.29,87.96L138.08,88.33L138.88,87.39L139.67,88.9L140.46,85.14L141.26,83.82L142.05,86.45L142.85,88.33L143.64,86.45L144.43,88.33L145.23,84.2L146.02,87.77L146.81,78.18L147.61,83.44L148.4,76.86L149.19,84.01L149.99,82.5L150.78,78.18L151.58,80.81L152.37,84.01L153.16,73.1L154.75,81.38L155.54,78.37L156.34,78.18L157.13,75.17L157.92,75.92L158.72,84.76L161.1,77.99L161.89,80.06L163.48,81.75L164.27,76.68L165.07,80.25L165.86,78.37L166.65,81.75L167.45,81.75L168.24,83.26L169.03,82.69L169.83,76.3L170.62,80.62L171.41,79.68L172.21,75.55L173,74.61L173.8,79.31L174.59,85.7L175.38,78.18L176.18,84.76L176.97,77.05L177.76,76.86L178.56,78.74L180.14,86.26L180.94,81.94L181.73,74.61L182.53,76.86L183.32,83.07L184.11,76.68L185.7,72.73L186.49,81.56L187.29,77.24L188.08,77.43L188.87,73.86L189.67,80.62L191.25,76.11L192.05,77.62L192.84,71.6L193.64,76.86L194.43,74.61L195.22,76.3L196.02,76.49L196.81,68.03L198.4,83.44L199.19,74.8L199.98,73.86L200.78,75.36L201.57,76.86L202.36,76.3L203.16,83.63L203.95,76.86L204.75,78.18L205.54,74.61L206.33,82.88L207.13,74.23L208.71,86.45L209.51,79.31L210.3,82.69L211.09,74.04L211.89,73.1L212.68,81.19L214.27,80.62L215.06,77.62L215.86,76.11L216.65,76.86L217.44,80.81L218.24,74.04L219.03,73.1L219.82,77.43L220.62,80.62L221.41,73.67L223,81L223.79,82.69L225.38,72.92L226.17,87.39L226.97,76.86L227.76,84.38L228.55,74.23L229.35,80.81L230.14,73.1L230.93,83.44L231.73,85.32L232.52,78.56L233.31,78.18L234.11,70.1L235.7,81.75L236.49,77.62L237.28,82.5L238.08,80.44L238.87,80.81L239.66,75.74L240.46,74.04L241.25,78.18L242.04,76.86L242.84,70.66L245.22,85.7L246.01,84.38L246.81,76.3L247.6,78.56L248.39,73.1L249.19,78.18L249.98,73.1L250.77,79.31L251.57,74.8L252.36,75.74L253.15,72.54L253.95,74.04L254.74,78.93L255.54,72.35L257.12,80.62L257.92,80.06L258.71,85.14L259.5,71.6L261.09,73.86L261.88,73.29L262.68,86.08L263.47,84.38L264.26,75.36L265.06,76.86L265.85,81.19L266.65,80.62L267.44,80.25L268.23,86.45L269.82,76.49L270.61,84.57L271.41,72.35L272.2,78.93L272.99,81.19L273.79,80.62L274.58,84.01L275.37,79.87L276.17,73.1L276.96,82.13L277.76,76.86L278.55,76.86L279.34,82.32L280.14,76.49L280.93,77.8L281.72,83.44L282.52,75.92L283.31,80.44L284.1,79.68L284.9,83.26L285.69,73.1L286.48,81.56L287.28,87.39L288.07,76.86L288.87,75.17L289.66,87.02L290.45,71.04L291.25,80.62L292.83,76.49L293.63,79.87L294.42,77.05L295.21,65.59L296.01,77.62L296.8,74.98L297.6,71.22L298.39,72.54L299.18,77.62L299.98,76.86L300.77,76.86L301.56,68.22L303.15,82.5L303.15,127.06L302.36,133.64L301.56,126.68L299.98,120.1L299.18,121.6L298.39,130.63L297.6,125.74L296.8,129.5L296.01,128.94L295.21,126.12L294.42,118.41L292.83,130.63L292.04,122.54L291.25,118.22L290.45,124.05L289.66,120.66L288.87,120.85L288.07,118.22L287.28,118.22L286.48,128L285.69,121.98L284.9,121.98L284.1,120.66L283.31,131.19L282.52,121.6L281.72,129.5L280.93,118.03L280.14,113.71L279.34,118.6L278.55,133.26L277.76,125.36L276.96,125.93L276.17,116.91L275.37,147.17L274.58,133.26L273.79,133.26L272.99,131.19L272.2,137.21L271.41,124.42L270.61,120.1L269.82,121.98L268.23,125.74L267.44,116.53L266.65,118.22L265.85,117.28L265.06,119.35L264.26,140.78L263.47,124.05L262.68,126.87L261.88,118.41L261.09,123.67L260.3,114.27L259.5,114.27L258.71,121.42L257.92,117.85L257.12,121.98L256.33,119.54L255.54,133.45L254.74,130.25L253.15,118.78L252.36,120.66L251.57,137.21L250.77,121.23L249.98,121.98L249.19,116.15L248.39,116.91L247.6,120.1L246.81,148.3L246.01,120.48L245.22,120.29L244.42,121.98L243.63,118.03L242.84,119.54L242.04,125.93L241.25,125.74L239.66,133.26L238.87,126.68L237.28,137.4L236.49,129.5L235.7,127.81L234.9,144.35L234.11,138.52L233.31,125.74L231.73,137.02L230.93,154.13L230.14,136.27L229.35,141.91L228.55,128.75L227.76,137.02L226.97,128.37L226.17,157.51L224.59,133.26L223.79,144.54L223,150.74L222.2,140.78L221.41,132.51L220.62,146.23L219.82,133.82L219.03,148.3L217.44,129.31L216.65,133.07L215.86,148.11L215.06,143.6L214.27,148.3L213.47,122.92L212.68,145.48L211.89,146.23L211.09,143.41L210.3,153.19L209.51,150.37L208.71,131.19L207.92,132.88L207.13,143.6L206.33,146.61L205.54,144.54L204.75,143.97L203.95,140.78L202.36,152.62L201.57,137.77L200.78,131.57L199.98,146.61L198.4,134.01L197.6,146.23L196.81,135.33L196.02,138.52L194.43,144.16L193.64,140.78L192.84,144.54L192.05,141.91L191.25,139.84L190.46,141.91L189.67,152.06L188.87,150.55L188.08,153.94L187.29,148.11L186.49,149.8L185.7,140.78L184.91,145.85L184.11,159.58L183.32,145.85L182.53,146.04L181.73,145.48L180.94,149.43L179.35,146.61L178.56,132.13L177.76,121.04L176.97,145.1L176.18,140.78L175.38,130.25L174.59,141.72L173.8,134.95L173,142.09L172.21,133.07L171.41,130.25L170.62,143.22L169.83,133.07L169.03,146.23L168.24,148.3L167.45,134.95L165.86,124.99L165.07,129.31L163.48,125.74L162.69,143.22L161.89,125.36L161.1,132.88L160.3,119.16L159.51,139.65L158.72,126.87L157.92,137.96L157.13,133.26L156.34,133.26L155.54,138.52L154.75,128.18L153.96,137.96L153.16,133.26L152.37,149.43L151.58,141.91L150.78,127.62L149.99,138.52L149.19,138.52L148.4,136.64L147.61,134.39L146.81,143.41L146.02,167.28L145.23,145.85L144.43,146.61L143.64,144.91L142.85,146.79L142.05,132.88L141.26,144.54L140.46,140.78L139.67,152.06L138.88,134.76L137.29,140.03L136.5,133.64L135.7,136.83L134.91,133.26L134.12,135.52L133.32,142.09L132.53,146.04L131.74,141.53L130.94,144.54L130.15,134.95L128.56,142.28L127.77,150.37L126.97,150.55L126.18,143.79L125.39,156.19L124.59,150.37L123.8,163.15L123.01,157.13L122.21,154.88L121.42,160.33L119.83,149.24L119.04,152.81L118.24,155.07L117.45,154.5L115.86,151.31L115.07,159.58L114.28,158.64L113.48,162.96L112.69,161.08L111.9,153.94L111.1,153.56L110.31,155.63L108.72,154.88L107.93,155.07L107.13,161.08L106.34,158.07L105.55,158.64L104.75,163.9L103.96,155.63L103.17,163.15L101.58,164.84L100.79,160.33L99.99,157.13L99.2,161.65L97.61,157.51L96.82,170.1L96.02,169.16L95.23,158.07L94.44,176.68L93.64,175.37L92.06,183.83L91.26,193.79L90.47,188.34L89.68,192.29L88.09,204.88L87.29,213.34L86.5,193.04L85.71,203.19L84.12,192.47L83.33,193.04L82.53,200.56L81.74,198.11L80.95,192.66L80.15,212.4L79.36,205.63L78.57,190.22L76.18,202.25L75.39,192.66L73.8,198.11L73.01,206.76L72.22,201.12L71.42,208.45L69.84,203.57L69.04,213.9L68.25,208.64L67.45,210.71L65.87,216.72L65.07,225.94L64.28,213.53L63.49,218.04L62.69,226.31L61.9,220.86L60.31,234.02L59.52,226.5L58.73,230.45L57.93,230.26L57.14,233.08L56.34,232.14L54.76,242.29L53.96,238.53L53.17,231.76L52.38,235.15L51.58,231.95L50.79,240.22L49.2,234.77L48.41,234.77L46.82,238.53L46.03,237.59L44.44,242.29L43.65,242.29L42.85,240.22L42.06,240.41L41.27,238.53L40.47,242.29L39.68,241.16L38.89,242.29L38.09,242.67L37.3,243.98L36.51,243.42L35.71,243.98L33.33,243.23L32.54,243.79L31.74,244.55L30.95,243.79L29.36,242.85L28.57,243.79L24.6,244.17L23.81,244.17L18.25,244.73L17.46,244.55L15.87,244.73L15.08,244.55L13.49,244.92L12.7,244.36L7.94,244.73L7.14,244.55L1.59,245.3L0.79,244.73L0,245.11Z" style="fill: rgb(239, 85, 59); fill-opacity: 0.3; stroke-width: 0;"/></g></g><g class="errorbars"/><g class="lines"><path class="js-line" d="M0,244.55L1.59,243.98L2.38,242.48L4.76,241.54L5.56,239.85L6.35,239.66L7.14,234.77L7.94,233.27L8.73,234.4L9.52,234.96L10.32,232.14L11.11,239.09L11.9,232.7L12.7,232.7L13.49,237.4L14.28,235.52L15.08,238.15L15.87,239.66L16.67,225.75L17.46,238.53L18.25,232.33L19.05,226.88L19.84,227.82L20.63,223.49L21.43,226.31L23.01,219.54L23.81,217.29L24.6,221.61L25.39,217.48L26.98,223.49L27.78,210.33L28.57,223.49L29.36,215.6L30.16,193.23L30.95,204.51L31.74,190.41L32.54,208.27L34.92,193.41L35.71,200.93L36.51,193.79L37.3,197.36L38.89,184.39L39.68,191.91L40.47,179.88L41.27,195.67L42.06,184.02L42.85,190.03L43.65,187.02L44.44,189.09L45.23,187.21L46.03,188.53L47.62,174.62L48.41,176.12L49.2,180.82L50,165.97L50.79,173.3L51.58,159.58L53.17,171.98L53.96,167.85L54.76,165.4L55.55,154.88L56.34,159.58L57.14,155.82L57.93,142.09L58.73,147.55L59.52,142.85L60.31,144.91L61.9,126.87L62.69,133.26L63.49,133.82L64.28,130.25L65.07,129.5L65.87,127.06L67.45,132.32L68.25,123.67L69.04,122.17L69.84,118.22L70.63,131.38L71.42,118.22L72.22,121.98L73.01,121.79L73.8,106.38L74.6,114.46L75.39,110.7L76.18,115.4L76.98,122.73L77.77,112.39L78.57,105.81L79.36,109.95L80.95,118.78L81.74,116.72L82.53,115.4L83.33,106.94L84.91,109.95L85.71,103.18L86.5,97.73L87.29,104.5L88.09,114.46L88.88,104.12L90.47,101.87L91.26,111.27L92.06,104.31L92.85,107.32L94.44,97.35L95.23,92.84L96.82,103.18L97.61,95.29L98.4,100.55L99.2,95.1L99.99,103.56L100.79,100.74L101.58,92.28L102.37,99.42L103.17,93.22L103.96,95.66L105.55,102.62L106.34,98.11L107.13,99.42L107.93,88.71L108.72,94.54L109.52,90.78L110.31,98.29L111.1,97.92L111.9,95.29L112.69,99.61L113.48,102.99L114.28,98.11L115.07,100.36L115.86,87.39L117.45,95.29L118.24,93.03L119.83,86.26L120.63,96.04L121.42,96.41L122.21,99.42L123.01,99.8L123.8,96.79L124.59,95.85L125.39,97.54L126.97,90.02L127.77,95.47L129.35,88.14L130.15,91.9L130.94,102.62L131.74,94.35L132.53,89.08L133.32,92.47L134.91,89.27L135.7,89.65L136.5,86.83L137.29,87.96L138.08,88.33L138.88,87.39L139.67,88.9L140.46,85.14L141.26,83.82L142.05,86.45L142.85,88.33L143.64,86.45L144.43,88.33L145.23,84.2L146.02,87.77L146.81,78.18L147.61,83.44L148.4,76.86L149.19,84.01L149.99,82.5L150.78,78.18L151.58,80.81L152.37,84.01L153.16,73.1L154.75,81.38L155.54,78.37L156.34,78.18L157.13,75.17L157.92,75.92L158.72,84.76L161.1,77.99L161.89,80.06L163.48,81.75L164.27,76.68L165.07,80.25L165.86,78.37L166.65,81.75L167.45,81.75L168.24,83.26L169.03,82.69L169.83,76.3L170.62,80.62L171.41,79.68L172.21,75.55L173,74.61L173.8,79.31L174.59,85.7L175.38,78.18L176.18,84.76L176.97,77.05L177.76,76.86L178.56,78.74L180.14,86.26L180.94,81.94L181.73,74.61L182.53,76.86L183.32,83.07L184.11,76.68L185.7,72.73L186.49,81.56L187.29,77.24L188.08,77.43L188.87,73.86L189.67,80.62L191.25,76.11L192.05,77.62L192.84,71.6L193.64,76.86L194.43,74.61L195.22,76.3L196.02,76.49L196.81,68.03L198.4,83.44L199.19,74.8L199.98,73.86L200.78,75.36L201.57,76.86L202.36,76.3L203.16,83.63L203.95,76.86L204.75,78.18L205.54,74.61L206.33,82.88L207.13,74.23L208.71,86.45L209.51,79.31L210.3,82.69L211.09,74.04L211.89,73.1L212.68,81.19L214.27,80.62L215.06,77.62L215.86,76.11L216.65,76.86L217.44,80.81L218.24,74.04L219.03,73.1L219.82,77.43L220.62,80.62L221.41,73.67L223,81L223.79,82.69L225.38,72.92L226.17,87.39L226.97,76.86L227.76,84.38L228.55,74.23L229.35,80.81L230.14,73.1L230.93,83.44L231.73,85.32L232.52,78.56L233.31,78.18L234.11,70.1L235.7,81.75L236.49,77.62L237.28,82.5L238.08,80.44L238.87,80.81L239.66,75.74L240.46,74.04L241.25,78.18L242.04,76.86L242.84,70.66L245.22,85.7L246.01,84.38L246.81,76.3L247.6,78.56L248.39,73.1L249.19,78.18L249.98,73.1L250.77,79.31L251.57,74.8L252.36,75.74L253.15,72.54L253.95,74.04L254.74,78.93L255.54,72.35L257.12,80.62L257.92,80.06L258.71,85.14L259.5,71.6L261.09,73.86L261.88,73.29L262.68,86.08L263.47,84.38L264.26,75.36L265.06,76.86L265.85,81.19L266.65,80.62L267.44,80.25L268.23,86.45L269.82,76.49L270.61,84.57L271.41,72.35L272.2,78.93L272.99,81.19L273.79,80.62L274.58,84.01L275.37,79.87L276.17,73.1L276.96,82.13L277.76,76.86L278.55,76.86L279.34,82.32L280.14,76.49L280.93,77.8L281.72,83.44L282.52,75.92L283.31,80.44L284.1,79.68L284.9,83.26L285.69,73.1L286.48,81.56L287.28,87.39L288.07,76.86L288.87,75.17L289.66,87.02L290.45,71.04L291.25,80.62L292.83,76.49L293.63,79.87L294.42,77.05L295.21,65.59L296.01,77.62L296.8,74.98L297.6,71.22L298.39,72.54L299.18,77.62L299.98,76.86L300.77,76.86L301.56,68.22L303.15,82.5L303.15,127.06L302.36,133.64L301.56,126.68L299.98,120.1L299.18,121.6L298.39,130.63L297.6,125.74L296.8,129.5L296.01,128.94L295.21,126.12L294.42,118.41L292.83,130.63L292.04,122.54L291.25,118.22L290.45,124.05L289.66,120.66L288.87,120.85L288.07,118.22L287.28,118.22L286.48,128L285.69,121.98L284.9,121.98L284.1,120.66L283.31,131.19L282.52,121.6L281.72,129.5L280.93,118.03L280.14,113.71L279.34,118.6L278.55,133.26L277.76,125.36L276.96,125.93L276.17,116.91L275.37,147.17L274.58,133.26L273.79,133.26L272.99,131.19L272.2,137.21L271.41,124.42L270.61,120.1L269.82,121.98L268.23,125.74L267.44,116.53L266.65,118.22L265.85,117.28L265.06,119.35L264.26,140.78L263.47,124.05L262.68,126.87L261.88,118.41L261.09,123.67L260.3,114.27L259.5,114.27L258.71,121.42L257.92,117.85L257.12,121.98L256.33,119.54L255.54,133.45L254.74,130.25L253.15,118.78L252.36,120.66L251.57,137.21L250.77,121.23L249.98,121.98L249.19,116.15L248.39,116.91L247.6,120.1L246.81,148.3L246.01,120.48L245.22,120.29L244.42,121.98L243.63,118.03L242.84,119.54L242.04,125.93L241.25,125.74L239.66,133.26L238.87,126.68L237.28,137.4L236.49,129.5L235.7,127.81L234.9,144.35L234.11,138.52L233.31,125.74L231.73,137.02L230.93,154.13L230.14,136.27L229.35,141.91L228.55,128.75L227.76,137.02L226.97,128.37L226.17,157.51L224.59,133.26L223.79,144.54L223,150.74L222.2,140.78L221.41,132.51L220.62,146.23L219.82,133.82L219.03,148.3L217.44,129.31L216.65,133.07L215.86,148.11L215.06,143.6L214.27,148.3L213.47,122.92L212.68,145.48L211.89,146.23L211.09,143.41L210.3,153.19L209.51,150.37L208.71,131.19L207.92,132.88L207.13,143.6L206.33,146.61L205.54,144.54L204.75,143.97L203.95,140.78L202.36,152.62L201.57,137.77L200.78,131.57L199.98,146.61L198.4,134.01L197.6,146.23L196.81,135.33L196.02,138.52L194.43,144.16L193.64,140.78L192.84,144.54L192.05,141.91L191.25,139.84L190.46,141.91L189.67,152.06L188.87,150.55L188.08,153.94L187.29,148.11L186.49,149.8L185.7,140.78L184.91,145.85L184.11,159.58L183.32,145.85L182.53,146.04L181.73,145.48L180.94,149.43L179.35,146.61L178.56,132.13L177.76,121.04L176.97,145.1L176.18,140.78L175.38,130.25L174.59,141.72L173.8,134.95L173,142.09L172.21,133.07L171.41,130.25L170.62,143.22L169.83,133.07L169.03,146.23L168.24,148.3L167.45,134.95L165.86,124.99L165.07,129.31L163.48,125.74L162.69,143.22L161.89,125.36L161.1,132.88L160.3,119.16L159.51,139.65L158.72,126.87L157.92,137.96L157.13,133.26L156.34,133.26L155.54,138.52L154.75,128.18L153.96,137.96L153.16,133.26L152.37,149.43L151.58,141.91L150.78,127.62L149.99,138.52L149.19,138.52L148.4,136.64L147.61,134.39L146.81,143.41L146.02,167.28L145.23,145.85L144.43,146.61L143.64,144.91L142.85,146.79L142.05,132.88L141.26,144.54L140.46,140.78L139.67,152.06L138.88,134.76L137.29,140.03L136.5,133.64L135.7,136.83L134.91,133.26L134.12,135.52L133.32,142.09L132.53,146.04L131.74,141.53L130.94,144.54L130.15,134.95L128.56,142.28L127.77,150.37L126.97,150.55L126.18,143.79L125.39,156.19L124.59,150.37L123.8,163.15L123.01,157.13L122.21,154.88L121.42,160.33L119.83,149.24L119.04,152.81L118.24,155.07L117.45,154.5L115.86,151.31L115.07,159.58L114.28,158.64L113.48,162.96L112.69,161.08L111.9,153.94L111.1,153.56L110.31,155.63L108.72,154.88L107.93,155.07L107.13,161.08L106.34,158.07L105.55,158.64L104.75,163.9L103.96,155.63L103.17,163.15L101.58,164.84L100.79,160.33L99.99,157.13L99.2,161.65L97.61,157.51L96.82,170.1L96.02,169.16L95.23,158.07L94.44,176.68L93.64,175.37L92.06,183.83L91.26,193.79L90.47,188.34L89.68,192.29L88.09,204.88L87.29,213.34L86.5,193.04L85.71,203.19L84.12,192.47L83.33,193.04L82.53,200.56L81.74,198.11L80.95,192.66L80.15,212.4L79.36,205.63L78.57,190.22L76.18,202.25L75.39,192.66L73.8,198.11L73.01,206.76L72.22,201.12L71.42,208.45L69.84,203.57L69.04,213.9L68.25,208.64L67.45,210.71L65.87,216.72L65.07,225.94L64.28,213.53L63.49,218.04L62.69,226.31L61.9,220.86L60.31,234.02L59.52,226.5L58.73,230.45L57.93,230.26L57.14,233.08L56.34,232.14L54.76,242.29L53.96,238.53L53.17,231.76L52.38,235.15L51.58,231.95L50.79,240.22L49.2,234.77L48.41,234.77L46.82,238.53L46.03,237.59L44.44,242.29L43.65,242.29L42.85,240.22L42.06,240.41L41.27,238.53L40.47,242.29L39.68,241.16L38.89,242.29L38.09,242.67L37.3,243.98L36.51,243.42L35.71,243.98L33.33,243.23L32.54,243.79L31.74,244.55L30.95,243.79L29.36,242.85L28.57,243.79L24.6,244.17L23.81,244.17L18.25,244.73L17.46,244.55L15.87,244.73L15.08,244.55L13.49,244.92L12.7,244.36L7.94,244.73L7.14,244.55L1.59,245.3L0.79,244.73L0,245.11" style="vector-effect: non-scaling-stroke; fill: none; stroke: rgb(0, 0, 0); stroke-opacity: 0; stroke-width: 2px; opacity: 1;"/></g><g class="points"/><g class="text"/></g><g class="trace scatter trace329a7e" style="stroke-miterlimit: 2; opacity: 1;"><g class="fills"/><g class="errorbars"/><g class="lines"><path class="js-line" d="M0,246.05L3.17,246.05L3.97,242.29L4.76,242.29L5.56,223.49L6.35,234.77L7.14,234.77L7.94,246.05L8.73,246.05L9.52,246.05L10.32,223.49L11.11,215.97L11.9,193.41L12.7,197.17L13.49,219.73L15.08,185.9L15.87,144.54L16.67,148.3L17.46,155.82L18.25,178.38L19.05,155.82L19.84,152.06L20.63,185.9L21.43,182.14L22.22,197.17L23.01,200.93L23.81,178.38L24.6,167.1L25.39,200.93L26.19,170.86L26.98,208.45L28.57,140.78L29.36,137.02L30.16,125.74L30.95,140.78L31.74,137.02L32.54,174.62L33.33,189.65L34.12,118.22L35.71,174.62L36.51,167.1L37.3,103.18L38.09,144.54L38.89,212.21L39.68,189.65L40.47,140.78L41.27,155.82L42.06,163.34L42.85,163.34L43.65,103.18L44.44,133.26L45.23,155.82L46.03,106.94L46.82,148.3L47.62,121.98L48.41,144.54L49.2,129.5L50,163.34L50.79,114.46L51.58,114.46L52.38,137.02L53.96,106.94L54.76,159.58L55.55,114.46L56.34,159.58L57.14,129.5L57.93,159.58L58.73,91.9L59.52,152.06L61.11,106.94L61.9,193.41L63.49,114.46L64.28,174.62L65.87,110.7L66.66,118.22L67.45,137.02L68.25,137.02L69.04,121.98L69.84,129.5L70.63,118.22L71.42,121.98L72.22,73.1L73.01,91.9L73.8,103.18L74.6,88.14L75.39,95.66L76.18,76.86L76.98,91.9L77.77,121.98L78.57,84.38L79.36,99.42L80.15,152.06L80.95,121.98L81.74,80.62L82.53,178.38L83.33,91.9L84.12,129.5L84.91,73.1L85.71,159.58L86.5,182.14L87.29,95.66L88.09,88.14L88.88,118.22L90.47,140.78L91.26,73.1L92.85,152.06L93.64,95.66L94.44,99.42L95.23,80.62L96.82,58.07L97.61,84.38L98.4,148.3L99.2,58.07L99.99,118.22L100.79,110.7L101.58,103.18L102.37,103.18L103.17,88.14L103.96,99.42L104.75,155.82L105.55,118.22L106.34,88.14L107.13,91.9L107.93,76.86L108.72,174.62L110.31,73.1L111.1,106.94L112.69,80.62L113.48,163.34L115.07,76.86L115.86,76.86L116.66,110.7L117.45,88.14L118.24,43.03L119.04,54.31L119.83,118.22L120.63,80.62L121.42,91.9L122.21,73.1L123.01,103.18L123.8,58.07L124.59,69.35L125.39,91.9L126.18,88.14L126.97,76.86L127.77,84.38L128.56,73.1L129.35,95.66L130.15,73.1L130.94,84.38L131.74,140.78L132.53,88.14L133.32,95.66L134.12,73.1L134.91,73.1L135.7,84.38L136.5,80.62L137.29,76.86L138.08,58.07L138.88,106.94L139.67,73.1L140.46,69.35L141.26,76.86L142.85,43.03L143.64,103.18L145.23,103.18L146.02,73.1L146.81,148.3L147.61,95.66L149.19,125.74L149.99,61.83L150.78,125.74L151.58,76.86L152.37,73.1L153.16,99.42L153.96,106.94L154.75,69.35L155.54,95.66L156.34,88.14L157.13,65.59L157.92,73.1L158.72,69.35L159.51,103.18L160.3,61.83L161.1,65.59L161.89,65.59L162.69,73.1L163.48,88.14L164.27,54.31L165.07,114.46L165.86,54.31L166.65,110.7L167.45,80.62L169.03,91.9L169.83,76.86L170.62,103.18L171.41,91.9L172.21,69.35L173,91.9L173.8,76.86L174.59,91.9L175.38,84.38L176.18,65.59L177.76,95.66L178.56,65.59L179.35,58.07L180.14,91.9L180.94,110.7L181.73,61.83L183.32,103.18L184.11,58.07L185.7,84.38L186.49,12.95L188.87,80.62L189.67,80.62L190.46,69.35L191.25,95.66L192.84,35.51L193.64,76.86L194.43,106.94L195.22,73.1L196.81,58.07L197.6,125.74L198.4,54.31L199.19,69.35L199.98,69.35L200.78,84.38L201.57,73.1L202.36,46.79L203.16,88.14L203.95,73.1L204.75,84.38L205.54,69.35L206.33,58.07L207.13,91.9L207.92,76.86L208.71,144.54L209.51,61.83L210.3,61.83L211.09,80.62L211.89,69.35L212.68,58.07L213.47,84.38L214.27,106.94L215.06,95.66L216.65,73.1L217.44,88.14L218.24,58.07L219.03,88.14L220.62,58.07L221.41,50.55L222.2,69.35L223,69.35L223.79,61.83L224.59,73.1L225.38,58.07L226.17,73.1L226.97,73.1L227.76,31.75L229.35,95.66L230.14,95.66L231.73,54.31L232.52,54.31L233.31,133.26L234.11,54.31L234.9,50.55L235.7,65.59L236.49,61.83L237.28,80.62L238.08,73.1L238.87,80.62L239.66,88.14L240.46,80.62L242.04,137.02L242.84,95.66L243.63,46.79L244.42,99.42L245.22,88.14L246.01,61.83L246.81,58.07L247.6,99.42L248.39,69.35L249.19,84.38L249.98,46.79L250.77,110.7L252.36,103.18L253.15,43.03L253.95,46.79L254.74,69.35L255.54,99.42L256.33,46.79L257.12,50.55L257.92,95.66L259.5,39.27L260.3,76.86L261.09,118.22L261.88,58.07L262.68,99.42L263.47,99.42L264.26,103.18L265.06,88.14L265.85,118.22L266.65,73.1L267.44,69.35L268.23,99.42L269.03,61.83L269.82,110.7L270.61,137.02L271.41,69.35L272.99,61.83L273.79,65.59L274.58,58.07L275.37,106.94L276.17,99.42L276.96,99.42L277.76,80.62L278.55,114.46L279.34,80.62L280.14,80.62L280.93,69.35L281.72,152.06L283.31,103.18L284.1,106.94L284.9,54.31L285.69,103.18L286.48,88.14L287.28,114.46L288.07,95.66L288.87,99.42L289.66,118.22L290.45,54.31L291.25,80.62L292.04,50.55L293.63,137.02L294.42,80.62L295.21,121.98L296.01,80.62L296.8,114.46L297.6,95.66L298.39,76.86L299.18,110.7L299.98,88.14L300.77,137.02L302.36,61.83L303.15,121.98L303.94,80.62L304.74,88.14L305.53,91.9L306.32,114.46L307.12,76.86L307.91,99.42L308.71,95.66L309.5,110.7L310.29,129.5L311.09,76.86L311.88,88.14L312.67,118.22L313.47,125.74L314.26,91.9L315.85,121.98L316.64,114.46L317.43,58.07L318.23,76.86L319.02,144.54L319.82,91.9L321.4,121.98L322.2,103.18L322.99,91.9L323.78,95.66L324.58,110.7L325.37,73.1L326.96,118.22L327.75,73.1L328.55,114.46L329.34,84.38L330.13,125.74L330.93,103.18L331.72,80.62L332.51,121.98L333.31,99.42L334.1,129.5L335.69,76.86L336.48,80.62L337.27,69.35L338.07,91.9L340.45,118.22L341.24,88.14L342.04,159.58L342.83,137.02L345.21,58.07L346,114.46L346.8,39.27L347.59,121.98L348.38,84.38L349.18,95.66L349.97,76.86L350.77,88.14L352.35,106.94L353.15,65.59L354.73,95.66L355.53,69.35L356.32,106.94L357.11,103.18L357.91,88.14L358.7,103.18L359.49,148.3L360.29,103.18L361.08,114.46L361.88,69.35L363.46,114.46L364.26,114.46L365.05,121.98L365.84,80.62L366.64,84.38L367.43,91.9L368.22,103.18L369.02,80.62L371.4,118.22L372.19,91.9L372.99,114.46L373.78,88.14L375.37,125.74L376.16,118.22L376.95,88.14L377.75,88.14L378.54,99.42L379.33,80.62L380.13,73.1L380.92,106.94L382.51,69.35L383.3,106.94L384.1,88.14L384.89,99.42L385.68,103.18L386.48,76.86L387.27,110.7L388.06,76.86L388.86,110.7L389.65,73.1L390.44,43.03L391.24,80.62L392.03,91.9L392.83,121.98L394.41,73.1L395.21,144.54L396,65.59" style="vector-effect: non-scaling-stroke; fill: none; stroke: rgb(0, 204, 150); stroke-opacity: 1; stroke-width: 2px; opacity: 1;"/></g><g class="points"/><g class="text"/></g><g class="trace scatter tracee14eca" style="stroke-miterlimit: 2; opacity: 1;"><g class="fills"><g><path class="js-fill" d="M0,246.05L3.17,246.05L3.97,242.29L4.76,242.29L5.56,223.49L6.35,234.77L7.14,234.77L7.94,246.05L8.73,246.05L9.52,246.05L10.32,223.49L11.11,215.97L11.9,193.41L12.7,197.17L13.49,219.73L15.08,185.9L15.87,144.54L16.67,148.3L17.46,155.82L18.25,178.38L19.05,155.82L19.84,152.06L20.63,185.9L21.43,182.14L22.22,197.17L23.01,200.93L23.81,178.38L24.6,167.1L25.39,200.93L26.19,170.86L26.98,208.45L28.57,140.78L29.36,137.02L30.16,125.74L30.95,140.78L31.74,137.02L32.54,174.62L33.33,189.65L34.12,118.22L35.71,174.62L36.51,167.1L37.3,103.18L38.09,144.54L38.89,212.21L39.68,189.65L40.47,140.78L41.27,155.82L42.06,163.34L42.85,163.34L43.65,103.18L44.44,133.26L45.23,155.82L46.03,106.94L46.82,148.3L47.62,121.98L48.41,144.54L49.2,129.5L50,163.34L50.79,114.46L51.58,114.46L52.38,137.02L53.96,106.94L54.76,159.58L55.55,114.46L56.34,159.58L57.14,129.5L57.93,159.58L58.73,91.9L59.52,152.06L61.11,106.94L61.9,193.41L63.49,114.46L64.28,174.62L65.87,110.7L66.66,118.22L67.45,137.02L68.25,137.02L69.04,121.98L69.84,129.5L70.63,118.22L71.42,121.98L72.22,73.1L73.01,91.9L73.8,103.18L74.6,88.14L75.39,95.66L76.18,76.86L76.98,91.9L77.77,121.98L78.57,84.38L79.36,99.42L80.15,152.06L80.95,121.98L81.74,80.62L82.53,178.38L83.33,91.9L84.12,129.5L84.91,73.1L85.71,159.58L86.5,182.14L87.29,95.66L88.09,88.14L88.88,118.22L90.47,140.78L91.26,73.1L92.85,152.06L93.64,95.66L94.44,99.42L95.23,80.62L96.82,58.07L97.61,84.38L98.4,148.3L99.2,58.07L99.99,118.22L100.79,110.7L101.58,103.18L102.37,103.18L103.17,88.14L103.96,99.42L104.75,155.82L105.55,118.22L106.34,88.14L107.13,91.9L107.93,76.86L108.72,174.62L110.31,73.1L111.1,106.94L112.69,80.62L113.48,163.34L115.07,76.86L115.86,76.86L116.66,110.7L117.45,88.14L118.24,43.03L119.04,54.31L119.83,118.22L120.63,80.62L121.42,91.9L122.21,73.1L123.01,103.18L123.8,58.07L124.59,69.35L125.39,91.9L126.18,88.14L126.97,76.86L127.77,84.38L128.56,73.1L129.35,95.66L130.15,73.1L130.94,84.38L131.74,140.78L132.53,88.14L133.32,95.66L134.12,73.1L134.91,73.1L135.7,84.38L136.5,80.62L137.29,76.86L138.08,58.07L138.88,106.94L139.67,73.1L140.46,69.35L141.26,76.86L142.85,43.03L143.64,103.18L145.23,103.18L146.02,73.1L146.81,148.3L147.61,95.66L149.19,125.74L149.99,61.83L150.78,125.74L151.58,76.86L152.37,73.1L153.16,99.42L153.96,106.94L154.75,69.35L155.54,95.66L156.34,88.14L157.13,65.59L157.92,73.1L158.72,69.35L159.51,103.18L160.3,61.83L161.1,65.59L161.89,65.59L162.69,73.1L163.48,88.14L164.27,54.31L165.07,114.46L165.86,54.31L166.65,110.7L167.45,80.62L169.03,91.9L169.83,76.86L170.62,103.18L171.41,91.9L172.21,69.35L173,91.9L173.8,76.86L174.59,91.9L175.38,84.38L176.18,65.59L177.76,95.66L178.56,65.59L179.35,58.07L180.14,91.9L180.94,110.7L181.73,61.83L183.32,103.18L184.11,58.07L185.7,84.38L186.49,12.95L188.87,80.62L189.67,80.62L190.46,69.35L191.25,95.66L192.84,35.51L193.64,76.86L194.43,106.94L195.22,73.1L196.81,58.07L197.6,125.74L198.4,54.31L199.19,69.35L199.98,69.35L200.78,84.38L201.57,73.1L202.36,46.79L203.16,88.14L203.95,73.1L204.75,84.38L205.54,69.35L206.33,58.07L207.13,91.9L207.92,76.86L208.71,144.54L209.51,61.83L210.3,61.83L211.09,80.62L211.89,69.35L212.68,58.07L213.47,84.38L214.27,106.94L215.06,95.66L216.65,73.1L217.44,88.14L218.24,58.07L219.03,88.14L220.62,58.07L221.41,50.55L222.2,69.35L223,69.35L223.79,61.83L224.59,73.1L225.38,58.07L226.17,73.1L226.97,73.1L227.76,31.75L229.35,95.66L230.14,95.66L231.73,54.31L232.52,54.31L233.31,133.26L234.11,54.31L234.9,50.55L235.7,65.59L236.49,61.83L237.28,80.62L238.08,73.1L238.87,80.62L239.66,88.14L240.46,80.62L242.04,137.02L242.84,95.66L243.63,46.79L244.42,99.42L245.22,88.14L246.01,61.83L246.81,58.07L247.6,99.42L248.39,69.35L249.19,84.38L249.98,46.79L250.77,110.7L252.36,103.18L253.15,43.03L253.95,46.79L254.74,69.35L255.54,99.42L256.33,46.79L257.12,50.55L257.92,95.66L259.5,39.27L260.3,76.86L261.09,118.22L261.88,58.07L262.68,99.42L263.47,99.42L264.26,103.18L265.06,88.14L265.85,118.22L266.65,73.1L267.44,69.35L268.23,99.42L269.03,61.83L269.82,110.7L270.61,137.02L271.41,69.35L272.99,61.83L273.79,65.59L274.58,58.07L275.37,106.94L276.17,99.42L276.96,99.42L277.76,80.62L278.55,114.46L279.34,80.62L280.14,80.62L280.93,69.35L281.72,152.06L283.31,103.18L284.1,106.94L284.9,54.31L285.69,103.18L286.48,88.14L287.28,114.46L288.07,95.66L288.87,99.42L289.66,118.22L290.45,54.31L291.25,80.62L292.04,50.55L293.63,137.02L294.42,80.62L295.21,121.98L296.01,80.62L296.8,114.46L297.6,95.66L298.39,76.86L299.18,110.7L299.98,88.14L300.77,137.02L302.36,61.83L303.15,121.98L303.94,80.62L304.74,88.14L305.53,91.9L306.32,114.46L307.12,76.86L307.91,99.42L308.71,95.66L309.5,110.7L310.29,129.5L311.09,76.86L311.88,88.14L312.67,118.22L313.47,125.74L314.26,91.9L315.85,121.98L316.64,114.46L317.43,58.07L318.23,76.86L319.02,144.54L319.82,91.9L321.4,121.98L322.2,103.18L322.99,91.9L323.78,95.66L324.58,110.7L325.37,73.1L326.96,118.22L327.75,73.1L328.55,114.46L329.34,84.38L330.13,125.74L330.93,103.18L331.72,80.62L332.51,121.98L333.31,99.42L334.1,129.5L335.69,76.86L336.48,80.62L337.27,69.35L338.07,91.9L340.45,118.22L341.24,88.14L342.04,159.58L342.83,137.02L345.21,58.07L346,114.46L346.8,39.27L347.59,121.98L348.38,84.38L349.18,95.66L349.97,76.86L350.77,88.14L352.35,106.94L353.15,65.59L354.73,95.66L355.53,69.35L356.32,106.94L357.11,103.18L357.91,88.14L358.7,103.18L359.49,148.3L360.29,103.18L361.08,114.46L361.88,69.35L363.46,114.46L364.26,114.46L365.05,121.98L365.84,80.62L366.64,84.38L367.43,91.9L368.22,103.18L369.02,80.62L371.4,118.22L372.19,91.9L372.99,114.46L373.78,88.14L375.37,125.74L376.16,118.22L376.95,88.14L377.75,88.14L378.54,99.42L379.33,80.62L380.13,73.1L380.92,106.94L382.51,69.35L383.3,106.94L384.1,88.14L384.89,99.42L385.68,103.18L386.48,76.86L387.27,110.7L388.06,76.86L388.86,110.7L389.65,73.1L390.44,43.03L391.24,80.62L392.03,91.9L392.83,121.98L394.41,73.1L395.21,144.54L396,65.59L395.21,144.54L394.41,73.1L393.62,88.14L392.83,121.98L390.44,43.03L389.65,73.1L388.86,110.7L388.06,76.86L387.27,110.7L386.48,76.86L385.68,103.18L384.89,99.42L384.1,88.14L383.3,106.94L382.51,69.35L381.72,76.86L380.92,106.94L380.13,73.1L379.33,80.62L378.54,99.42L377.75,88.14L376.95,88.14L375.37,125.74L374.57,121.98L373.78,88.14L372.99,114.46L372.19,91.9L371.4,118.22L369.02,80.62L368.22,103.18L366.64,84.38L365.84,80.62L365.05,121.98L364.26,114.46L363.46,114.46L362.67,88.14L361.88,69.35L361.08,114.46L360.29,103.18L359.49,148.3L357.91,88.14L357.11,103.18L356.32,106.94L355.53,69.35L354.73,95.66L353.94,91.9L353.15,65.59L352.35,106.94L350.77,88.14L349.97,76.86L349.18,95.66L348.38,84.38L347.59,121.98L346.8,39.27L346,114.46L345.21,58.07L344.42,73.1L343.62,110.7L342.04,159.58L341.24,88.14L340.45,118.22L339.66,106.94L338.86,103.18L338.07,91.9L337.27,69.35L336.48,80.62L335.69,76.86L334.89,80.62L334.1,129.5L333.31,99.42L332.51,121.98L331.72,80.62L330.13,125.74L329.34,84.38L328.55,114.46L327.75,73.1L326.96,118.22L326.16,91.9L325.37,73.1L324.58,110.7L322.99,91.9L322.2,103.18L321.4,121.98L320.61,110.7L319.82,91.9L319.02,144.54L317.43,58.07L316.64,114.46L315.85,121.98L315.05,106.94L314.26,91.9L313.47,125.74L312.67,118.22L311.88,88.14L311.09,76.86L310.29,129.5L308.71,95.66L307.91,99.42L307.12,76.86L306.32,114.46L304.74,88.14L303.94,80.62L303.15,121.98L302.36,61.83L301.56,76.86L300.77,137.02L299.98,88.14L299.18,110.7L298.39,76.86L297.6,95.66L296.8,114.46L296.01,80.62L295.21,121.98L294.42,80.62L293.63,137.02L292.83,110.7L292.04,50.55L291.25,80.62L290.45,54.31L289.66,118.22L288.07,95.66L287.28,114.46L286.48,88.14L285.69,103.18L284.9,54.31L284.1,106.94L283.31,103.18L282.52,106.94L281.72,152.06L280.93,69.35L280.14,80.62L279.34,80.62L278.55,114.46L277.76,80.62L276.96,99.42L276.17,99.42L275.37,106.94L274.58,58.07L273.79,65.59L272.99,61.83L271.41,69.35L270.61,137.02L269.03,61.83L268.23,99.42L267.44,69.35L266.65,73.1L265.85,118.22L265.06,88.14L264.26,103.18L263.47,99.42L262.68,99.42L261.88,58.07L261.09,118.22L260.3,76.86L259.5,39.27L258.71,58.07L257.92,95.66L257.12,50.55L256.33,46.79L255.54,99.42L253.95,46.79L253.15,43.03L251.57,106.94L250.77,110.7L249.98,46.79L249.19,84.38L248.39,69.35L247.6,99.42L246.81,58.07L246.01,61.83L244.42,99.42L243.63,46.79L242.04,137.02L241.25,103.18L240.46,80.62L239.66,88.14L238.08,73.1L237.28,80.62L236.49,61.83L235.7,65.59L234.9,50.55L234.11,54.31L233.31,133.26L232.52,54.31L231.73,54.31L230.93,80.62L230.14,95.66L229.35,95.66L228.55,88.14L227.76,31.75L226.97,73.1L226.17,73.1L225.38,58.07L224.59,73.1L223.79,61.83L223,69.35L222.2,69.35L221.41,50.55L219.82,61.83L219.03,88.14L218.24,58.07L217.44,88.14L216.65,73.1L215.86,80.62L214.27,106.94L213.47,84.38L212.68,58.07L211.89,69.35L211.09,80.62L210.3,61.83L209.51,61.83L208.71,144.54L207.92,76.86L207.13,91.9L206.33,58.07L205.54,69.35L204.75,84.38L203.95,73.1L203.16,88.14L202.36,46.79L200.78,84.38L199.98,69.35L199.19,69.35L198.4,54.31L197.6,125.74L196.81,58.07L196.02,61.83L195.22,73.1L194.43,106.94L193.64,76.86L192.84,35.51L192.05,73.1L191.25,95.66L190.46,69.35L189.67,80.62L188.87,80.62L187.29,43.03L186.49,12.95L185.7,84.38L184.91,76.86L184.11,58.07L183.32,103.18L181.73,61.83L180.94,110.7L179.35,58.07L178.56,65.59L177.76,95.66L176.97,84.38L176.18,65.59L175.38,84.38L174.59,91.9L173.8,76.86L173,91.9L172.21,69.35L170.62,103.18L169.83,76.86L169.03,91.9L168.24,88.14L167.45,80.62L166.65,110.7L165.86,54.31L165.07,114.46L164.27,54.31L163.48,88.14L161.89,65.59L161.1,65.59L160.3,61.83L159.51,103.18L158.72,69.35L157.92,73.1L157.13,65.59L156.34,88.14L155.54,95.66L154.75,69.35L153.96,106.94L153.16,99.42L152.37,73.1L151.58,76.86L150.78,125.74L149.99,61.83L149.19,125.74L148.4,118.22L147.61,95.66L146.81,148.3L146.02,73.1L145.23,103.18L143.64,103.18L142.85,43.03L142.05,54.31L141.26,76.86L140.46,69.35L139.67,73.1L138.88,106.94L138.08,58.07L136.5,80.62L135.7,84.38L134.91,73.1L134.12,73.1L133.32,95.66L132.53,88.14L131.74,140.78L130.94,84.38L130.15,73.1L129.35,95.66L128.56,73.1L127.77,84.38L126.97,76.86L126.18,88.14L125.39,91.9L124.59,69.35L123.8,58.07L123.01,103.18L122.21,73.1L121.42,91.9L120.63,80.62L119.83,118.22L118.24,43.03L117.45,88.14L116.66,110.7L115.86,76.86L115.07,76.86L114.28,99.42L113.48,163.34L112.69,80.62L111.9,88.14L111.1,106.94L110.31,73.1L109.52,84.38L108.72,174.62L107.93,76.86L107.13,91.9L106.34,88.14L104.75,155.82L103.96,99.42L103.17,88.14L102.37,103.18L101.58,103.18L100.79,110.7L99.99,118.22L99.2,58.07L98.4,148.3L97.61,84.38L96.82,58.07L96.02,69.35L94.44,99.42L93.64,95.66L92.85,152.06L92.06,137.02L91.26,73.1L90.47,140.78L88.88,118.22L88.09,88.14L87.29,95.66L86.5,182.14L85.71,159.58L84.91,73.1L84.12,129.5L83.33,91.9L82.53,178.38L81.74,80.62L80.15,152.06L79.36,99.42L78.57,84.38L77.77,121.98L76.18,76.86L75.39,95.66L74.6,88.14L73.8,103.18L72.22,73.1L71.42,121.98L70.63,118.22L69.84,129.5L69.04,121.98L68.25,137.02L67.45,137.02L66.66,118.22L65.87,110.7L65.07,118.22L64.28,174.62L63.49,114.46L61.9,193.41L61.11,106.94L60.31,121.98L59.52,152.06L58.73,91.9L57.93,159.58L57.14,129.5L56.34,159.58L55.55,114.46L54.76,159.58L53.96,106.94L53.17,118.22L52.38,137.02L51.58,114.46L50.79,114.46L50,163.34L49.2,129.5L48.41,144.54L47.62,121.98L46.82,148.3L46.03,106.94L45.23,155.82L43.65,103.18L42.85,163.34L42.06,163.34L41.27,155.82L40.47,140.78L39.68,189.65L38.89,212.21L38.09,144.54L37.3,103.18L36.51,167.1L35.71,174.62L34.92,155.82L34.12,118.22L33.33,189.65L32.54,174.62L31.74,137.02L30.95,140.78L30.16,125.74L28.57,140.78L27.78,163.34L26.98,208.45L26.19,170.86L25.39,200.93L24.6,167.1L23.81,178.38L23.01,200.93L22.22,197.17L21.43,182.14L20.63,185.9L19.84,152.06L19.05,155.82L18.25,178.38L16.67,148.3L15.87,144.54L14.28,200.93L13.49,219.73L11.9,193.41L11.11,215.97L10.32,223.49L9.52,246.05L7.94,246.05L7.14,234.77L6.35,234.77L5.56,223.49L4.76,242.29L3.97,242.29L3.17,246.05L2.38,246.05L0,246.05Z" style="fill: rgb(0, 204, 150); fill-opacity: 0.3; stroke-width: 0;"/></g></g><g class="errorbars"/><g class="lines"><path class="js-line" d="M0,246.05L3.17,246.05L3.97,242.29L4.76,242.29L5.56,223.49L6.35,234.77L7.14,234.77L7.94,246.05L8.73,246.05L9.52,246.05L10.32,223.49L11.11,215.97L11.9,193.41L12.7,197.17L13.49,219.73L15.08,185.9L15.87,144.54L16.67,148.3L17.46,155.82L18.25,178.38L19.05,155.82L19.84,152.06L20.63,185.9L21.43,182.14L22.22,197.17L23.01,200.93L23.81,178.38L24.6,167.1L25.39,200.93L26.19,170.86L26.98,208.45L28.57,140.78L29.36,137.02L30.16,125.74L30.95,140.78L31.74,137.02L32.54,174.62L33.33,189.65L34.12,118.22L35.71,174.62L36.51,167.1L37.3,103.18L38.09,144.54L38.89,212.21L39.68,189.65L40.47,140.78L41.27,155.82L42.06,163.34L42.85,163.34L43.65,103.18L44.44,133.26L45.23,155.82L46.03,106.94L46.82,148.3L47.62,121.98L48.41,144.54L49.2,129.5L50,163.34L50.79,114.46L51.58,114.46L52.38,137.02L53.96,106.94L54.76,159.58L55.55,114.46L56.34,159.58L57.14,129.5L57.93,159.58L58.73,91.9L59.52,152.06L61.11,106.94L61.9,193.41L63.49,114.46L64.28,174.62L65.87,110.7L66.66,118.22L67.45,137.02L68.25,137.02L69.04,121.98L69.84,129.5L70.63,118.22L71.42,121.98L72.22,73.1L73.01,91.9L73.8,103.18L74.6,88.14L75.39,95.66L76.18,76.86L76.98,91.9L77.77,121.98L78.57,84.38L79.36,99.42L80.15,152.06L80.95,121.98L81.74,80.62L82.53,178.38L83.33,91.9L84.12,129.5L84.91,73.1L85.71,159.58L86.5,182.14L87.29,95.66L88.09,88.14L88.88,118.22L90.47,140.78L91.26,73.1L92.85,152.06L93.64,95.66L94.44,99.42L95.23,80.62L96.82,58.07L97.61,84.38L98.4,148.3L99.2,58.07L99.99,118.22L100.79,110.7L101.58,103.18L102.37,103.18L103.17,88.14L103.96,99.42L104.75,155.82L105.55,118.22L106.34,88.14L107.13,91.9L107.93,76.86L108.72,174.62L110.31,73.1L111.1,106.94L112.69,80.62L113.48,163.34L115.07,76.86L115.86,76.86L116.66,110.7L117.45,88.14L118.24,43.03L119.04,54.31L119.83,118.22L120.63,80.62L121.42,91.9L122.21,73.1L123.01,103.18L123.8,58.07L124.59,69.35L125.39,91.9L126.18,88.14L126.97,76.86L127.77,84.38L128.56,73.1L129.35,95.66L130.15,73.1L130.94,84.38L131.74,140.78L132.53,88.14L133.32,95.66L134.12,73.1L134.91,73.1L135.7,84.38L136.5,80.62L137.29,76.86L138.08,58.07L138.88,106.94L139.67,73.1L140.46,69.35L141.26,76.86L142.85,43.03L143.64,103.18L145.23,103.18L146.02,73.1L146.81,148.3L147.61,95.66L149.19,125.74L149.99,61.83L150.78,125.74L151.58,76.86L152.37,73.1L153.16,99.42L153.96,106.94L154.75,69.35L155.54,95.66L156.34,88.14L157.13,65.59L157.92,73.1L158.72,69.35L159.51,103.18L160.3,61.83L161.1,65.59L161.89,65.59L162.69,73.1L163.48,88.14L164.27,54.31L165.07,114.46L165.86,54.31L166.65,110.7L167.45,80.62L169.03,91.9L169.83,76.86L170.62,103.18L171.41,91.9L172.21,69.35L173,91.9L173.8,76.86L174.59,91.9L175.38,84.38L176.18,65.59L177.76,95.66L178.56,65.59L179.35,58.07L180.14,91.9L180.94,110.7L181.73,61.83L183.32,103.18L184.11,58.07L185.7,84.38L186.49,12.95L188.87,80.62L189.67,80.62L190.46,69.35L191.25,95.66L192.84,35.51L193.64,76.86L194.43,106.94L195.22,73.1L196.81,58.07L197.6,125.74L198.4,54.31L199.19,69.35L199.98,69.35L200.78,84.38L201.57,73.1L202.36,46.79L203.16,88.14L203.95,73.1L204.75,84.38L205.54,69.35L206.33,58.07L207.13,91.9L207.92,76.86L208.71,144.54L209.51,61.83L210.3,61.83L211.09,80.62L211.89,69.35L212.68,58.07L213.47,84.38L214.27,106.94L215.06,95.66L216.65,73.1L217.44,88.14L218.24,58.07L219.03,88.14L220.62,58.07L221.41,50.55L222.2,69.35L223,69.35L223.79,61.83L224.59,73.1L225.38,58.07L226.17,73.1L226.97,73.1L227.76,31.75L229.35,95.66L230.14,95.66L231.73,54.31L232.52,54.31L233.31,133.26L234.11,54.31L234.9,50.55L235.7,65.59L236.49,61.83L237.28,80.62L238.08,73.1L238.87,80.62L239.66,88.14L240.46,80.62L242.04,137.02L242.84,95.66L243.63,46.79L244.42,99.42L245.22,88.14L246.01,61.83L246.81,58.07L247.6,99.42L248.39,69.35L249.19,84.38L249.98,46.79L250.77,110.7L252.36,103.18L253.15,43.03L253.95,46.79L254.74,69.35L255.54,99.42L256.33,46.79L257.12,50.55L257.92,95.66L259.5,39.27L260.3,76.86L261.09,118.22L261.88,58.07L262.68,99.42L263.47,99.42L264.26,103.18L265.06,88.14L265.85,118.22L266.65,73.1L267.44,69.35L268.23,99.42L269.03,61.83L269.82,110.7L270.61,137.02L271.41,69.35L272.99,61.83L273.79,65.59L274.58,58.07L275.37,106.94L276.17,99.42L276.96,99.42L277.76,80.62L278.55,114.46L279.34,80.62L280.14,80.62L280.93,69.35L281.72,152.06L283.31,103.18L284.1,106.94L284.9,54.31L285.69,103.18L286.48,88.14L287.28,114.46L288.07,95.66L288.87,99.42L289.66,118.22L290.45,54.31L291.25,80.62L292.04,50.55L293.63,137.02L294.42,80.62L295.21,121.98L296.01,80.62L296.8,114.46L297.6,95.66L298.39,76.86L299.18,110.7L299.98,88.14L300.77,137.02L302.36,61.83L303.15,121.98L303.94,80.62L304.74,88.14L305.53,91.9L306.32,114.46L307.12,76.86L307.91,99.42L308.71,95.66L309.5,110.7L310.29,129.5L311.09,76.86L311.88,88.14L312.67,118.22L313.47,125.74L314.26,91.9L315.85,121.98L316.64,114.46L317.43,58.07L318.23,76.86L319.02,144.54L319.82,91.9L321.4,121.98L322.2,103.18L322.99,91.9L323.78,95.66L324.58,110.7L325.37,73.1L326.96,118.22L327.75,73.1L328.55,114.46L329.34,84.38L330.13,125.74L330.93,103.18L331.72,80.62L332.51,121.98L333.31,99.42L334.1,129.5L335.69,76.86L336.48,80.62L337.27,69.35L338.07,91.9L340.45,118.22L341.24,88.14L342.04,159.58L342.83,137.02L345.21,58.07L346,114.46L346.8,39.27L347.59,121.98L348.38,84.38L349.18,95.66L349.97,76.86L350.77,88.14L352.35,106.94L353.15,65.59L354.73,95.66L355.53,69.35L356.32,106.94L357.11,103.18L357.91,88.14L358.7,103.18L359.49,148.3L360.29,103.18L361.08,114.46L361.88,69.35L363.46,114.46L364.26,114.46L365.05,121.98L365.84,80.62L366.64,84.38L367.43,91.9L368.22,103.18L369.02,80.62L371.4,118.22L372.19,91.9L372.99,114.46L373.78,88.14L375.37,125.74L376.16,118.22L376.95,88.14L377.75,88.14L378.54,99.42L379.33,80.62L380.13,73.1L380.92,106.94L382.51,69.35L383.3,106.94L384.1,88.14L384.89,99.42L385.68,103.18L386.48,76.86L387.27,110.7L388.06,76.86L388.86,110.7L389.65,73.1L390.44,43.03L391.24,80.62L392.03,91.9L392.83,121.98L394.41,73.1L395.21,144.54L396,65.59L395.21,144.54L394.41,73.1L393.62,88.14L392.83,121.98L390.44,43.03L389.65,73.1L388.86,110.7L388.06,76.86L387.27,110.7L386.48,76.86L385.68,103.18L384.89,99.42L384.1,88.14L383.3,106.94L382.51,69.35L381.72,76.86L380.92,106.94L380.13,73.1L379.33,80.62L378.54,99.42L377.75,88.14L376.95,88.14L375.37,125.74L374.57,121.98L373.78,88.14L372.99,114.46L372.19,91.9L371.4,118.22L369.02,80.62L368.22,103.18L366.64,84.38L365.84,80.62L365.05,121.98L364.26,114.46L363.46,114.46L362.67,88.14L361.88,69.35L361.08,114.46L360.29,103.18L359.49,148.3L357.91,88.14L357.11,103.18L356.32,106.94L355.53,69.35L354.73,95.66L353.94,91.9L353.15,65.59L352.35,106.94L350.77,88.14L349.97,76.86L349.18,95.66L348.38,84.38L347.59,121.98L346.8,39.27L346,114.46L345.21,58.07L344.42,73.1L343.62,110.7L342.04,159.58L341.24,88.14L340.45,118.22L339.66,106.94L338.86,103.18L338.07,91.9L337.27,69.35L336.48,80.62L335.69,76.86L334.89,80.62L334.1,129.5L333.31,99.42L332.51,121.98L331.72,80.62L330.13,125.74L329.34,84.38L328.55,114.46L327.75,73.1L326.96,118.22L326.16,91.9L325.37,73.1L324.58,110.7L322.99,91.9L322.2,103.18L321.4,121.98L320.61,110.7L319.82,91.9L319.02,144.54L317.43,58.07L316.64,114.46L315.85,121.98L315.05,106.94L314.26,91.9L313.47,125.74L312.67,118.22L311.88,88.14L311.09,76.86L310.29,129.5L308.71,95.66L307.91,99.42L307.12,76.86L306.32,114.46L304.74,88.14L303.94,80.62L303.15,121.98L302.36,61.83L301.56,76.86L300.77,137.02L299.98,88.14L299.18,110.7L298.39,76.86L297.6,95.66L296.8,114.46L296.01,80.62L295.21,121.98L294.42,80.62L293.63,137.02L292.83,110.7L292.04,50.55L291.25,80.62L290.45,54.31L289.66,118.22L288.07,95.66L287.28,114.46L286.48,88.14L285.69,103.18L284.9,54.31L284.1,106.94L283.31,103.18L282.52,106.94L281.72,152.06L280.93,69.35L280.14,80.62L279.34,80.62L278.55,114.46L277.76,80.62L276.96,99.42L276.17,99.42L275.37,106.94L274.58,58.07L273.79,65.59L272.99,61.83L271.41,69.35L270.61,137.02L269.03,61.83L268.23,99.42L267.44,69.35L266.65,73.1L265.85,118.22L265.06,88.14L264.26,103.18L263.47,99.42L262.68,99.42L261.88,58.07L261.09,118.22L260.3,76.86L259.5,39.27L258.71,58.07L257.92,95.66L257.12,50.55L256.33,46.79L255.54,99.42L253.95,46.79L253.15,43.03L251.57,106.94L250.77,110.7L249.98,46.79L249.19,84.38L248.39,69.35L247.6,99.42L246.81,58.07L246.01,61.83L244.42,99.42L243.63,46.79L242.04,137.02L241.25,103.18L240.46,80.62L239.66,88.14L238.08,73.1L237.28,80.62L236.49,61.83L235.7,65.59L234.9,50.55L234.11,54.31L233.31,133.26L232.52,54.31L231.73,54.31L230.93,80.62L230.14,95.66L229.35,95.66L228.55,88.14L227.76,31.75L226.97,73.1L226.17,73.1L225.38,58.07L224.59,73.1L223.79,61.83L223,69.35L222.2,69.35L221.41,50.55L219.82,61.83L219.03,88.14L218.24,58.07L217.44,88.14L216.65,73.1L215.86,80.62L214.27,106.94L213.47,84.38L212.68,58.07L211.89,69.35L211.09,80.62L210.3,61.83L209.51,61.83L208.71,144.54L207.92,76.86L207.13,91.9L206.33,58.07L205.54,69.35L204.75,84.38L203.95,73.1L203.16,88.14L202.36,46.79L200.78,84.38L199.98,69.35L199.19,69.35L198.4,54.31L197.6,125.74L196.81,58.07L196.02,61.83L195.22,73.1L194.43,106.94L193.64,76.86L192.84,35.51L192.05,73.1L191.25,95.66L190.46,69.35L189.67,80.62L188.87,80.62L187.29,43.03L186.49,12.95L185.7,84.38L184.91,76.86L184.11,58.07L183.32,103.18L181.73,61.83L180.94,110.7L179.35,58.07L178.56,65.59L177.76,95.66L176.97,84.38L176.18,65.59L175.38,84.38L174.59,91.9L173.8,76.86L173,91.9L172.21,69.35L170.62,103.18L169.83,76.86L169.03,91.9L168.24,88.14L167.45,80.62L166.65,110.7L165.86,54.31L165.07,114.46L164.27,54.31L163.48,88.14L161.89,65.59L161.1,65.59L160.3,61.83L159.51,103.18L158.72,69.35L157.92,73.1L157.13,65.59L156.34,88.14L155.54,95.66L154.75,69.35L153.96,106.94L153.16,99.42L152.37,73.1L151.58,76.86L150.78,125.74L149.99,61.83L149.19,125.74L148.4,118.22L147.61,95.66L146.81,148.3L146.02,73.1L145.23,103.18L143.64,103.18L142.85,43.03L142.05,54.31L141.26,76.86L140.46,69.35L139.67,73.1L138.88,106.94L138.08,58.07L136.5,80.62L135.7,84.38L134.91,73.1L134.12,73.1L133.32,95.66L132.53,88.14L131.74,140.78L130.94,84.38L130.15,73.1L129.35,95.66L128.56,73.1L127.77,84.38L126.97,76.86L126.18,88.14L125.39,91.9L124.59,69.35L123.8,58.07L123.01,103.18L122.21,73.1L121.42,91.9L120.63,80.62L119.83,118.22L118.24,43.03L117.45,88.14L116.66,110.7L115.86,76.86L115.07,76.86L114.28,99.42L113.48,163.34L112.69,80.62L111.9,88.14L111.1,106.94L110.31,73.1L109.52,84.38L108.72,174.62L107.93,76.86L107.13,91.9L106.34,88.14L104.75,155.82L103.96,99.42L103.17,88.14L102.37,103.18L101.58,103.18L100.79,110.7L99.99,118.22L99.2,58.07L98.4,148.3L97.61,84.38L96.82,58.07L96.02,69.35L94.44,99.42L93.64,95.66L92.85,152.06L92.06,137.02L91.26,73.1L90.47,140.78L88.88,118.22L88.09,88.14L87.29,95.66L86.5,182.14L85.71,159.58L84.91,73.1L84.12,129.5L83.33,91.9L82.53,178.38L81.74,80.62L80.15,152.06L79.36,99.42L78.57,84.38L77.77,121.98L76.18,76.86L75.39,95.66L74.6,88.14L73.8,103.18L72.22,73.1L71.42,121.98L70.63,118.22L69.84,129.5L69.04,121.98L68.25,137.02L67.45,137.02L66.66,118.22L65.87,110.7L65.07,118.22L64.28,174.62L63.49,114.46L61.9,193.41L61.11,106.94L60.31,121.98L59.52,152.06L58.73,91.9L57.93,159.58L57.14,129.5L56.34,159.58L55.55,114.46L54.76,159.58L53.96,106.94L53.17,118.22L52.38,137.02L51.58,114.46L50.79,114.46L50,163.34L49.2,129.5L48.41,144.54L47.62,121.98L46.82,148.3L46.03,106.94L45.23,155.82L43.65,103.18L42.85,163.34L42.06,163.34L41.27,155.82L40.47,140.78L39.68,189.65L38.89,212.21L38.09,144.54L37.3,103.18L36.51,167.1L35.71,174.62L34.92,155.82L34.12,118.22L33.33,189.65L32.54,174.62L31.74,137.02L30.95,140.78L30.16,125.74L28.57,140.78L27.78,163.34L26.98,208.45L26.19,170.86L25.39,200.93L24.6,167.1L23.81,178.38L23.01,200.93L22.22,197.17L21.43,182.14L20.63,185.9L19.84,152.06L19.05,155.82L18.25,178.38L16.67,148.3L15.87,144.54L14.28,200.93L13.49,219.73L11.9,193.41L11.11,215.97L10.32,223.49L9.52,246.05L7.94,246.05L7.14,234.77L6.35,234.77L5.56,223.49L4.76,242.29L3.97,242.29L3.17,246.05L2.38,246.05L0,246.05" style="vector-effect: non-scaling-stroke; fill: none; stroke: rgb(0, 0, 0); stroke-opacity: 0; stroke-width: 2px; opacity: 1;"/></g><g class="points"/><g class="text"/></g></g></g><g class="overplot"/><path class="xlines-above crisp" d="M0,0" style="fill: none;"/><path class="ylines-above crisp" d="M0,0" style="fill: none;"/><g class="overlines-above"/><g class="xaxislayer-above"><g class="xtick"><text text-anchor="middle" x="0" y="272" transform="translate(115.01,0)" style="font-family: 'Latin Modern Roman'; font-size: 12px; fill: rgb(0, 0, 0); fill-opacity: 1; white-space: pre;">10M</text></g><g class="xtick"><text text-anchor="middle" x="0" y="272" transform="translate(192.81,0)" style="font-family: 'Latin Modern Roman'; font-size: 12px; fill: rgb(0, 0, 0); fill-opacity: 1; white-space: pre;">20M</text></g><g class="xtick"><text text-anchor="middle" x="0" y="272" transform="translate(270.61,0)" style="font-family: 'Latin Modern Roman'; font-size: 12px; fill: rgb(0, 0, 0); fill-opacity: 1; white-space: pre;">30M</text></g><g class="xtick"><text text-anchor="middle" x="0" y="272" transform="translate(348.42,0)" style="font-family: 'Latin Modern Roman'; font-size: 12px; fill: rgb(0, 0, 0); fill-opacity: 1; white-space: pre;">40M</text></g><g class="xtick"><text text-anchor="middle" x="0" y="272" transform="translate(426.22,0)" style="font-family: 'Latin Modern Roman'; font-size: 12px; fill: rgb(0, 0, 0); fill-opacity: 1; white-space: pre;">50M</text></g></g><g class="yaxislayer-above"><g class="ytick"><text text-anchor="end" x="37" y="4.199999999999999" transform="translate(0,246.05)" style="font-family: 'Latin Modern Roman'; font-size: 12px; fill: rgb(0, 0, 0); fill-opacity: 1; white-space: pre;">0</text></g><g class="ytick"><text text-anchor="end" x="37" y="4.199999999999999" transform="translate(0,208.45)" style="font-family: 'Latin Modern Roman'; font-size: 12px; fill: rgb(0, 0, 0); fill-opacity: 1; white-space: pre;">10</text></g><g class="ytick"><text text-anchor="end" x="37" y="4.199999999999999" transform="translate(0,170.86)" style="font-family: 'Latin Modern Roman'; font-size: 12px; fill: rgb(0, 0, 0); fill-opacity: 1; white-space: pre;">20</text></g><g class="ytick"><text text-anchor="end" x="37" y="4.199999999999999" transform="translate(0,133.26)" style="font-family: 'Latin Modern Roman'; font-size: 12px; fill: rgb(0, 0, 0); fill-opacity: 1; white-space: pre;">30</text></g><g class="ytick"><text text-anchor="end" x="37" y="4.199999999999999" transform="translate(0,95.66)" style="font-family: 'Latin Modern Roman'; font-size: 12px; fill: rgb(0, 0, 0); fill-opacity: 1; white-space: pre;">40</text></g><g class="ytick"><text text-anchor="end" x="37" y="4.199999999999999" transform="translate(0,58.07)" style="font-family: 'Latin Modern Roman'; font-size: 12px; fill: rgb(0, 0, 0); fill-opacity: 1; white-space: pre;">50</text></g><g class="ytick"><text text-anchor="end" x="37" y="4.199999999999999" transform="translate(0,20.47)" style="font-family: 'Latin Modern Roman'; font-size: 12px; fill: rgb(0, 0, 0); fill-opacity: 1; white-space: pre;">60</text></g></g><g class="overaxes-above"/></g></g><g class="polarlayer"/><g class="ternarylayer"/><g class="geolayer"/><g class="funnelarealayer"/><g class="pielayer"/><g class="treemaplayer"/><g class="sunburstlayer"/><g class="glimages"/><defs id="topdefs-9863a0"><g class="clips"/><clipPath id="legend9863a0"><rect width="158" height="67" x="0" y="0"/></clipPath></defs><g class="layer-above"><g class="imagelayer"/><g class="shapelayer"/></g><g class="infolayer"><g class="legend" pointer-events="all" transform="translate(441.92,0)"><rect class="bg" shape-rendering="crispEdges" style="stroke: rgb(68, 68, 68); stroke-opacity: 1; fill: rgb(255, 255, 255); fill-opacity: 1; stroke-width: 0px;" width="158" height="67" x="0" y="0"/><g class="scrollbox" transform="" clip-path="url('#legend9863a0')"><g class="groups"><g class="traces" transform="translate(0,14.5)" style="opacity: 1;"><text class="legendtext" text-anchor="start" x="40" y="4.680000000000001" style="font-family: 'Latin Modern Roman'; font-size: 12px; fill: rgb(0, 0, 0); fill-opacity: 1; white-space: pre;">Bayesian agg. (n=40)</text><g class="layers" style="opacity: 1;"><g class="legendfill"/><g class="legendlines"><path class="js-line" d="M5,0h30" style="fill: none; stroke: rgb(99, 110, 250); stroke-opacity: 1; stroke-width: 2px;"/></g><g class="legendsymbols"><g class="legendpoints"/></g></g><rect class="legendtoggle" x="0" y="-9.5" width="152.90625" height="19" style="fill: rgb(0, 0, 0); fill-opacity: 0;"/></g><g class="traces" transform="translate(0,33.5)" style="opacity: 1;"><text class="legendtext" text-anchor="start" x="40" y="4.680000000000001" style="font-family: 'Latin Modern Roman'; font-size: 12px; fill: rgb(0, 0, 0); fill-opacity: 1; white-space: pre;">Mean agg. (n=25)</text><g class="layers" style="opacity: 1;"><g class="legendfill"/><g class="legendlines"><path class="js-line" d="M5,0h30" style="fill: none; stroke: rgb(239, 85, 59); stroke-opacity: 1; stroke-width: 2px;"/></g><g class="legendsymbols"><g class="legendpoints"/></g></g><rect class="legendtoggle" x="0" y="-9.5" width="152.90625" height="19" style="fill: rgb(0, 0, 0); fill-opacity: 0;"/></g><g class="traces" transform="translate(0,52.5)" style="opacity: 1;"><text class="legendtext" text-anchor="start" x="40" y="4.680000000000001" style="font-family: 'Latin Modern Roman'; font-size: 12px; fill: rgb(0, 0, 0); fill-opacity: 1; white-space: pre;">Max Agg. (n=1)</text><g class="layers" style="opacity: 1;"><g class="legendfill"/><g class="legendlines"><path class="js-line" d="M5,0h30" style="fill: none; stroke: rgb(0, 204, 150); stroke-opacity: 1; stroke-width: 2px;"/></g><g class="legendsymbols"><g class="legendpoints"/></g></g><rect class="legendtoggle" x="0" y="-9.5" width="152.90625" height="19" style="fill: rgb(0, 0, 0); fill-opacity: 0;"/></g></g></g><rect class="scrollbar" rx="20" ry="3" width="0" height="0" style="fill: rgb(128, 139, 164); fill-opacity: 1;" x="0" y="0"/></g><g class="g-gtitle"/><g class="g-xtitle" transform="translate(0,-3.8000000000000114)"><text class="xtitle" x="236" y="299.8" text-anchor="middle" style="font-family: 'Latin Modern Roman'; font-size: 14px; fill: rgb(0, 0, 0); opacity: 1; font-weight: normal; white-space: pre;">Agent Steps</text></g><g class="g-ytitle" transform="translate(15.8154296875,0)"><text class="ytitle" transform="rotate(-90,0.18437500000000284,129.5)" x="0.18437500000000284" y="129.5" text-anchor="middle" style="font-family: 'Latin Modern Roman'; font-size: 14px; fill: rgb(0, 0, 0); opacity: 1; font-weight: normal; white-space: pre;">Avg. Reward</text></g></g></svg>