<svg class="main-svg" xmlns="http://www.w3.org/2000/svg" xmlns:xlink="http://www.w3.org/1999/xlink" width="700" height="500" style="" viewBox="0 0 700 500"><rect x="0" y="0" width="700" height="500" style="fill: rgb(255, 255, 255); fill-opacity: 1;"/><defs id="defs-21bfd8"><g class="clips"><clipPath id="clip21bfd8xyplot" class="plotclip"><rect width="416" height="320"/></clipPath><clipPath class="axesclip" id="clip21bfd8x"><rect x="80" y="0" width="416" height="500"/></clipPath><clipPath class="axesclip" id="clip21bfd8y"><rect x="0" y="100" width="700" height="320"/></clipPath><clipPath class="axesclip" id="clip21bfd8xy"><rect x="80" y="100" width="416" height="320"/></clipPath></g><g class="gradients"/></defs><g class="bglayer"><rect class="bg" x="80" y="100" width="416" height="320" style="fill: rgb(229, 236, 246); fill-opacity: 1; stroke-width: 0;"/></g><g class="layer-below"><g class="imagelayer"/><g class="shapelayer"/></g><g class="cartesianlayer"><g class="subplot xy"><g class="layer-subplot"><g class="shapelayer"/><g class="imagelayer"/></g><g class="gridlayer"><g class="x"><path class="xgrid crisp" transform="translate(160.9,0)" d="M0,100v320" style="stroke: rgb(255, 255, 255); stroke-opacity: 1; stroke-width: 1px;"/><path class="xgrid crisp" transform="translate(242.63,0)" d="M0,100v320" style="stroke: rgb(255, 255, 255); stroke-opacity: 1; stroke-width: 1px;"/><path class="xgrid crisp" transform="translate(324.36,0)" d="M0,100v320" style="stroke: rgb(255, 255, 255); stroke-opacity: 1; stroke-width: 1px;"/><path class="xgrid crisp" transform="translate(406.09,0)" d="M0,100v320" style="stroke: rgb(255, 255, 255); stroke-opacity: 1; stroke-width: 1px;"/><path class="xgrid crisp" transform="translate(487.83,0)" d="M0,100v320" style="stroke: rgb(255, 255, 255); stroke-opacity: 1; stroke-width: 1px;"/></g><g class="y"><path class="ygrid crisp" transform="translate(0,399.24)" d="M80,0h416" style="stroke: rgb(255, 255, 255); stroke-opacity: 1; stroke-width: 1px;"/><path class="ygrid crisp" transform="translate(0,341.53999999999996)" d="M80,0h416" style="stroke: rgb(255, 255, 255); stroke-opacity: 1; stroke-width: 1px;"/><path class="ygrid crisp" transform="translate(0,283.85)" d="M80,0h416" style="stroke: rgb(255, 255, 255); stroke-opacity: 1; stroke-width: 1px;"/><path class="ygrid crisp" transform="translate(0,226.16)" d="M80,0h416" style="stroke: rgb(255, 255, 255); stroke-opacity: 1; stroke-width: 1px;"/><path class="ygrid crisp" transform="translate(0,168.47)" d="M80,0h416" style="stroke: rgb(255, 255, 255); stroke-opacity: 1; stroke-width: 1px;"/></g></g><g class="zerolinelayer"><path class="yzl zl crisp" transform="translate(0,110.78)" d="M80,0h416" style="stroke: rgb(255, 255, 255); stroke-opacity: 1; stroke-width: 2px;"/></g><path class="xlines-below"/><path class="ylines-below"/><g class="overlines-below"/><g class="xaxislayer-below"/><g class="yaxislayer-below"/><g class="overaxes-below"/><g class="plot" transform="translate(80,100)" clip-path="url('#clip21bfd8xyplot')"><g class="scatterlayer mlayer"><g class="trace scatter trace7a4a00" style="stroke-miterlimit: 2; opacity: 1;"><g class="fills"/><g class="errorbars"/><g class="lines"><path class="js-line" d="M0,250.02L0.83,257.65L1.67,235L2.5,238.24L3.33,212.58L5,238.86L5.84,225.71L6.67,221.85L7.5,226.07L10,166.55L10.84,157.84L12.51,143.28L13.34,138.89L14.17,135.56L15.01,141.31L17.51,131.52L18.34,131.52L20.01,125.52L20.84,120.16L21.68,118.03L22.51,123.76L24.18,116.98L25.01,124.69L25.84,112.26L26.68,120.04L28.34,111.38L29.18,115.24L32.51,104.82L33.35,109.52L34.18,106.38L35.01,91.44L35.85,109.99L36.68,101.19L37.52,103.46L38.35,107.88L39.18,99.64L40.02,105.23L42.52,69.31L43.35,100.35L44.18,92.68L45.02,99.45L45.85,95.27L46.69,74.68L47.52,69.54L48.35,74.95L49.19,51.43L50.02,79.57L50.85,66.61L51.69,88.72L52.52,45.14L53.35,51.74L55.02,63.38L55.86,44L56.69,33.81L57.52,64.55L58.36,54.99L59.19,32.39L60.02,28.4L60.86,29.42L62.53,25.5L63.36,25.56L65.03,30.22L65.86,24.19L66.69,29.33L67.53,23.96L68.36,25.1L69.19,21.08L70.86,28.35L71.7,25.58L72.53,22.8L73.36,27.94L74.2,30.3L75.03,28.09L75.86,22.03L76.7,24.27L77.53,20.09L78.36,23.24L79.2,22.99L80.03,21.83L81.7,20.09L82.53,23.97L83.37,20.14L84.2,21.52L85.03,22.79L85.87,20.4L86.7,24.47L87.54,23.5L88.37,20.99L89.2,22.58L90.04,20.9L90.87,21.21L91.7,19.94L92.54,20.54L93.37,21.61L94.2,20.14L95.04,20.25L95.87,19.31L97.54,21.16L98.37,22.41L99.21,18.64L100.04,21.4L100.87,21.69L101.71,19.51L102.54,19.47L103.37,20.81L105.04,20.47L105.88,21.12L106.71,21.7L107.54,24.91L109.21,21.75L110.04,22.19L110.88,20.08L111.71,23.85L114.21,21.64L115.05,18.72L115.88,20.95L116.71,20.71L117.55,19.2L118.38,19.94L119.21,17.12L120.05,19.1L122.55,17.6L123.38,18.37L125.05,19.38L125.88,18.79L127.55,20.16L128.38,18.74L129.22,19.47L130.05,18.09L130.89,21.79L131.72,19.23L132.55,19.58L133.39,21.9L134.22,19.16L135.05,19.4L135.89,18.76L136.72,19.73L137.56,18.03L138.39,19.98L140.06,17.45L140.89,18.84L141.72,18.38L142.56,23.66L143.39,18.66L144.22,21.69L145.06,18.96L145.89,19.29L147.56,17.68L148.39,19.62L149.23,19.72L150.06,18.98L150.89,18.05L151.73,20.4L152.56,17.76L153.39,22.04L155.06,17.14L155.9,19.73L157.56,18.39L158.4,17.84L159.23,19.06L160.06,17.18L160.9,16.74L161.73,20.51L162.57,18.18L163.4,18.96L164.23,17.57L165.07,17.92L165.9,17.12L166.73,21.29L167.57,24.15L168.4,17.83L169.23,18.19L170.07,20.37L171.74,18.19L172.57,18.04L173.4,20.68L174.24,18.1L175.07,21.34L175.9,19.99L176.74,18.52L177.57,19.54L179.24,17.69L180.07,17.27L181.74,19.93L182.57,20.87L183.41,21.31L184.24,19.25L185.07,19.19L185.91,20.5L186.74,17.6L187.58,21.48L188.41,18.17L189.24,19.25L190.08,17.64L190.91,19.87L193.41,18.47L194.24,18.34L195.08,22.16L195.91,16.72L196.75,20.91L197.58,17.54L199.25,19.66L200.08,17.15L200.91,17.43L201.75,21.27L202.58,17.47L203.41,18.31L204.25,18.49L205.08,19.44L205.92,17.99L206.75,19.53L208.42,18.64L209.25,19.1L210.08,18.73L210.92,21.39L211.75,19.07L212.59,21.16L213.42,17.89L214.25,18.03L215.09,18.52L215.92,17.66L216.75,20.78L217.59,18.2L219.25,19.58L220.09,17.24L220.92,22.77L221.76,20.46L223.42,17.71L224.26,18.47L225.09,17.96L225.92,18.74L226.76,16.68L227.59,19.05L228.42,20.06L229.26,18.04L230.09,24.94L230.93,16.9L231.76,20.07L232.59,17.57L233.43,18.88L234.26,17.58L235.09,17.52L235.93,19.07L236.76,18.08L237.6,20.61L238.43,18.41L239.26,18.42L240.93,17.58L241.76,18.33L242.6,18.7L243.43,17.96L244.26,18.6L245.1,17.92L245.93,17.11L246.77,18.6L247.6,20.37L248.43,17.7L250.1,18.8L250.93,21.68L251.77,17.95L252.6,20.27L253.43,19.07L254.27,19.75L255.1,17.94L255.94,19.2L256.77,19.62L257.6,17.31L258.44,18.7L259.27,17.9L260.1,16.85L260.94,17.36L261.77,20.79L262.61,18.93L264.27,18.66L265.11,17.36L265.94,18.07L266.77,20.67L267.61,19.04L268.44,19.59L269.27,18.66L270.11,20.04L271.78,17.82L272.61,19.69L273.44,19.51L274.28,16.98L275.11,18.62L275.94,16.1L276.78,19.2L277.61,18.86L278.44,17.62L279.28,17.73L280.11,18.65L280.95,17.62L281.78,20.82L282.61,18.85L283.45,19.87L284.28,18.61L285.11,17.58L285.95,18.35L286.78,22.18L287.62,19.77L289.28,16.48L290.12,19.3L291.78,18.56L292.62,17.89L295.12,19.59L295.95,17.05L296.79,19.02L297.62,17.83L298.45,22.25L299.29,17.54L300.12,18.25L300.95,20.4L302.62,17.73L303.45,18.17L304.29,23.16L305.12,19.25L305.96,17.12L306.79,18.2L307.62,17.18L308.46,17.82L310.12,19.33L310.96,16.33L313.46,18.03L314.29,17.49L315.13,17.66L315.96,16.64L317.63,20.01L318.46,19.77L319.29,18.41L320.13,19.48L320.96,17.11L321.8,18.09L322.63,17.63L323.46,18.57L324.3,19.15L325.13,17.55L325.96,18.54L326.8,17.87L327.63,17.81L328.46,18.7L329.3,17.17L330.13,19.69L330.97,20.69L331.8,17.92L332.63,17.77L333.47,19.86L335.13,18.76L335.97,18.44L337.64,18.76L338.47,17.59L339.3,19.73L340.14,19.56L341.8,19.16L342.64,17.54L345.14,18.5L345.97,17.68L347.64,16.82L348.47,17.77L349.31,19.41L350.14,18.79L350.97,18.13L351.81,18.99L354.31,17.15L355.14,17.16L355.98,17.52L356.81,19.04L357.64,17.62L358.48,18.12L360.14,18.73L360.98,17.52L362.65,19.28L363.48,18.83L365.15,19.24L365.98,16.24L366.81,19.69L367.65,18.33L368.48,19.51L369.31,17.49L370.15,17.95L370.98,20.83L371.82,18.09L372.65,18.5L373.48,19.32L374.32,17.94L375.15,20.54L375.98,19.38L377.65,18.09L378.48,20.04L379.32,23.27L380.15,16.75L380.99,19.47L381.82,18.39L383.49,19.61L384.32,17.38L385.15,17.77L385.99,19.02L387.66,18.04L388.49,18.71L390.16,16.06L390.99,16.98L391.82,17.39L392.66,21.32L393.49,16.71L394.32,18.07L395.16,16.38L395.99,17.36L396.83,17.14L397.66,18.1L399.33,16.52L400.16,20.46L400.99,18.2L401.83,18.77L402.66,17.4L403.49,17.92L404.33,18.4L405.16,17.21L406,19L406.83,17.7L407.66,18.8L408.5,17.44L409.33,17.82L410.16,19.69L411.83,18.24L412.67,19.06L413.5,18.78L414.33,17.28L415.17,18.8L416,18.4" style="vector-effect: non-scaling-stroke; fill: none; stroke: rgb(99, 110, 250); stroke-opacity: 1; stroke-width: 2px; opacity: 1;"/></g><g class="points"/><g class="text"/></g><g class="trace scatter trace92cc90" style="stroke-miterlimit: 2; opacity: 1;"><g class="fills"/><g class="errorbars"/><g class="lines"><path class="js-line" d="M0,304L2.5,232.26L3.33,252.06L5,237.47L5.84,243.78L6.67,228.4L7.5,193.8L8.34,199.27L9.17,164.08L10,159.43L10.84,150.18L11.67,142.3L12.51,142.1L13.34,138.79L14.17,145.61L15.01,144.32L15.84,158L16.67,146.74L17.51,149.14L18.34,152.91L19.17,152.93L21.68,116.74L22.51,117.57L23.34,120.38L24.18,114.73L25.01,107.27L25.84,115.96L26.68,115.09L27.51,105.94L28.34,105.53L29.18,92.03L30.01,94.69L30.85,63.29L32.51,102.21L33.35,93.01L35.01,63.01L35.85,53.54L36.68,40.93L37.52,53.76L38.35,49.49L39.18,38.32L40.02,57.94L40.85,43.88L41.68,60.49L42.52,43.97L43.35,29.15L44.18,28.91L45.85,29.3L46.69,27.72L48.35,28.42L49.19,24.61L50.02,28.37L50.85,27.75L51.69,25.39L52.52,30.46L53.35,21.2L54.19,30.66L55.86,22.34L56.69,25.51L59.19,20.43L60.02,22.03L60.86,24.97L61.69,23.16L62.53,19.52L63.36,21.39L64.19,21.64L65.03,20.19L67.53,23.9L68.36,18.34L70.03,20.88L70.86,21.67L71.7,20.52L72.53,25.44L73.36,23.44L74.2,23.72L75.86,19.75L76.7,21.71L77.53,20.58L78.36,21.67L79.2,20.03L80.03,22.05L80.87,21.96L81.7,24.53L84.2,19.67L85.03,25.22L85.87,19.59L86.7,19.77L87.54,20.32L88.37,19.26L89.2,19.96L90.04,21.73L90.87,20.73L91.7,24.99L92.54,17.76L93.37,18.39L94.2,21.43L95.04,20.93L95.87,20L96.71,21.32L97.54,18.62L98.37,19.34L99.21,18.68L100.04,20.53L101.71,19.18L102.54,21.9L103.37,18.98L104.21,21.35L105.88,19.41L106.71,21.84L107.54,21.6L108.38,25.87L110.04,19.13L110.88,21.76L111.71,19.62L112.55,21.88L113.38,22.36L114.21,18.75L115.05,21.19L115.88,18.35L116.71,20.32L117.55,19.74L118.38,18.93L119.21,19.75L120.88,18.89L121.72,20.98L123.38,18.24L124.22,20.26L125.05,19.58L125.88,22.59L126.72,18.82L127.55,18.65L128.38,20.17L129.22,18.87L130.05,18.79L130.89,16.7L131.72,18.61L132.55,18.34L134.22,20.71L135.05,16.7L135.89,21.63L136.72,20.09L137.56,19.09L138.39,19.56L140.06,19.16L140.89,17.85L141.72,21.3L142.56,19.11L143.39,18.43L144.22,20.52L145.06,20.02L145.89,17.77L146.73,21.89L147.56,19.48L148.39,19.94L149.23,19.3L150.06,17.78L150.89,18.28L151.73,20.23L152.56,17.86L153.39,18.58L154.23,20.46L155.9,18.43L156.73,18.81L157.56,16.91L158.4,18.51L159.23,19.7L160.06,19.13L160.9,19.69L161.73,18.87L163.4,19.77L164.23,17.83L165.07,20.3L165.9,18.09L166.73,19.44L167.57,19.02L168.4,19.11L169.23,17.83L170.07,18.31L170.9,21.82L172.57,17.14L173.4,18.18L174.24,19.96L175.07,19.78L175.9,20.89L176.74,19.28L177.57,21.07L178.4,18.98L179.24,21.12L180.07,19.06L181.74,17.6L182.57,18.23L183.41,20.49L184.24,17.11L185.07,17.78L185.91,20.36L187.58,18.09L188.41,19.81L189.24,20.14L190.08,21.33L191.74,18.23L192.58,19.52L193.41,18.03L194.24,19.05L195.08,18.01L195.91,19.71L197.58,17.65L198.41,17.82L200.91,19.22L201.75,19.19L202.58,18.37L203.41,19.37L204.25,17.97L205.08,19.7L205.92,17.1L206.75,19.57L207.58,21.38L208.42,16.33L209.25,20.87L210.08,18.86L210.92,19.06L211.75,17.95L212.59,19.48L213.42,18.14L215.09,19.57L215.92,18.89L216.75,16.07L217.59,20.61L218.42,16.88L219.25,18.23L220.09,19.12L220.92,18.49L222.59,20.78L223.42,20.09L224.26,18.73L225.09,19.75L225.92,18.62L226.76,19.56L231.76,17.13L232.59,18.77L233.43,18.76L234.26,17.79L235.93,19.43L236.76,20.96L238.43,16.75L239.26,17.63L240.93,20.14L241.76,20.02L242.6,17.55L243.43,17.91L244.26,19.35L245.1,18.75L245.93,19.96L246.77,19L249.27,20.69L250.1,20.58L252.6,16.45L253.43,18.59L255.1,18.12L255.94,19.12L257.6,18.86L258.44,19.33L260.1,19.71L260.94,17.77L264.27,18.03L265.11,17.21L265.94,17.13L266.77,18.53L267.61,18.35L268.44,19.89L269.27,17.73L270.11,18.94L270.94,17.31L271.78,17.95L272.61,19.49L273.44,19.22L274.28,19.29L275.11,20.91L276.78,19.29L277.61,18.49L278.44,17.87L279.28,18.57L280.11,17.48L280.95,19.32L281.78,20.75L282.61,19.12L283.45,17.2L284.28,18.46L285.95,17.58L286.78,18.15L287.62,19.65L288.45,18L289.28,19.05L290.12,18.07L290.95,17.32L291.78,18.4L292.62,16.78L293.45,18.48L294.28,18.43L295.12,19.87L295.95,17.98L296.79,18.32L299.29,19.53L300.12,17.44L300.95,19.66L301.79,17.43L303.45,19.92L304.29,18.26L305.96,18.59L306.79,18.25L307.62,17.87L308.46,19.76L309.29,16.61L310.12,17.49L310.96,18.37L311.79,18.06L312.63,18.53L313.46,17.86L315.13,18.44L315.96,19.08L317.63,18.3L318.46,19.03L320.13,16.8L320.96,17.99L321.8,17.8L322.63,16.24L323.46,18.95L324.3,17.65L325.96,18.57L326.8,17.64L327.63,17.47L328.46,18.57L330.13,17.59L330.97,17.99L331.8,16.73L332.63,17.25L333.47,16.92L334.3,18.76L335.13,17L335.97,17.09L337.64,19.14L338.47,17.73L339.3,18.28L340.14,16.77L341.8,17.72L342.64,18.64L344.3,19.64L345.14,17.61L347.64,16.85L348.47,18.39L349.31,16.62L350.14,18.51L350.97,21.12L351.81,17.8L352.64,19.24L353.47,18.51L354.31,17.06L355.14,19.64L355.98,16.6L356.81,18.04L359.31,18.13L360.14,17.45L360.98,18.25L361.81,17.54L364.31,17.61L365.15,17.41L366.81,18.1L367.65,17.41L368.48,18.19L369.31,20.86L371.82,16.59L372.65,17.16L373.48,19.97L374.32,17.94L375.15,17.8L375.98,19.81L376.82,19.13L377.65,17L380.15,19.02L380.99,17.23L381.82,17.92L382.65,17.46L384.32,17.73L385.15,16.82L385.99,16.77L386.82,18.24L387.66,16.26L388.49,18.06L390.16,17.91L390.99,17.02L392.66,18.65L393.49,17.34L395.16,17.17L395.99,19.25L396.83,16.92L397.66,17.72L400.16,18.89L400.99,18.23L401.83,19.09L402.66,17.05L403.49,19.21L404.33,18.69L405.16,17.73L406,18.14L406.83,17.71L407.66,18.88L408.5,17.32L409.33,18.43L411,16.85L411.83,16L412.67,18.65L413.5,18.07L414.33,17.91L415.17,18.81L416,17.97" style="vector-effect: non-scaling-stroke; fill: none; stroke: rgb(239, 85, 59); stroke-opacity: 1; stroke-width: 2px; opacity: 1;"/></g><g class="points"/><g class="text"/></g><g class="trace scatter trace6e19eb" style="stroke-miterlimit: 2; opacity: 1;"><g class="fills"/><g class="errorbars"/><g class="lines"><path class="js-line" d="M0,301.36L1.67,240.51L2.5,234.33L3.33,235.78L4.17,229.54L5,242.66L5.84,228.96L6.67,252.86L7.5,211.1L8.34,171.22L9.17,198.68L10,201.27L10.84,188.72L14.17,144.31L15.01,135.28L15.84,132.92L16.67,133.59L18.34,145.03L19.17,134.43L20.01,139.55L20.84,132.08L21.68,135.23L22.51,132.45L23.34,130.71L24.18,131.52L25.01,127.64L25.84,131.74L26.68,126.12L27.51,131.84L28.34,132.27L29.18,106.4L30.01,100.9L30.85,112.24L31.68,113.43L32.51,108.38L33.35,119.48L34.18,115.52L35.85,98.93L36.68,72.27L37.52,104.96L38.35,106.38L39.18,89.57L40.02,108.09L40.85,103.75L41.68,103.64L42.52,91.47L43.35,100.06L44.18,87.67L45.02,101.09L46.69,78.05L47.52,71.87L48.35,98.31L49.19,54.03L50.02,57.9L50.85,110.22L52.52,57.76L53.35,66.49L54.19,109.71L55.02,94.26L55.86,67.37L56.69,80.39L57.52,81.94L58.36,25.63L60.02,90.11L60.86,102L61.69,65.12L62.53,103.57L63.36,66.28L64.19,75.48L65.03,96.95L65.86,19.59L66.69,101.7L67.53,66.86L68.36,88.44L69.19,50.63L70.86,98.13L71.7,100.42L73.36,52.43L74.2,77.01L75.03,35.12L75.86,61.54L76.7,108.52L77.53,27.83L78.36,40.31L79.2,83.82L80.03,90.65L80.87,28.63L81.7,52.39L82.53,34.89L83.37,30L84.2,35.18L85.87,67.45L86.7,63.73L87.54,36.72L88.37,45.27L89.2,34.16L90.04,54.36L90.87,28.63L91.7,33.76L92.54,54.21L93.37,25.61L94.2,21.27L95.04,25.06L95.87,29.13L96.71,38.19L97.54,44.47L98.37,22.97L99.21,56.64L100.04,33.43L100.87,31.18L101.71,24.05L102.54,26.13L103.37,23.4L104.21,39.01L105.04,24.59L106.71,32.42L107.54,23.45L108.38,23.77L109.21,36.99L110.88,23.81L111.71,39.92L114.21,25.35L115.05,23.82L115.88,23.97L116.71,20.12L117.55,37.37L118.38,22.98L119.21,23.28L120.05,22.04L120.88,16.44L121.72,22.53L122.55,22.29L123.38,25.76L124.22,21.76L125.05,23.27L125.88,31.61L126.72,21.22L127.55,21.24L128.38,46.45L129.22,19.31L130.05,37.76L131.72,23.66L132.55,37.38L133.39,23.13L134.22,31.49L135.05,25.71L135.89,39.49L136.72,43.78L137.56,22.62L139.22,39.2L140.06,23.05L140.89,29.23L141.72,23.19L142.56,23.73L143.39,21.25L144.22,23.5L145.06,34.9L145.89,21.69L146.73,31L148.39,20.48L149.23,31.68L150.89,21.9L151.73,33.83L152.56,23.48L153.39,26.19L155.06,17.46L155.9,27.68L156.73,23.55L157.56,29.15L158.4,22.39L159.23,28.61L160.06,23.62L160.9,28.9L161.73,20.61L162.57,21.44L164.23,26.34L165.07,19.48L165.9,26.32L166.73,23.2L168.4,20.72L169.23,25.33L170.9,21.49L171.74,23.52L172.57,23.66L173.4,22.31L174.24,24.03L175.07,19.3L175.9,18.12L176.74,20.04L178.4,22.76L179.24,21.42L180.07,20.13L180.91,20.72L181.74,24.19L182.57,19.79L183.41,25.71L184.24,23.44L185.07,22.12L185.91,17.75L186.74,18.82L187.58,22.59L188.41,19.32L189.24,20.78L190.91,19.19L191.74,21.99L192.58,29.02L193.41,23.3L194.24,22.39L195.08,19.58L195.91,21.17L196.75,20.26L197.58,19.14L198.41,21.51L199.25,22.36L200.08,19.01L200.91,23.81L201.75,23.2L202.58,20.59L203.41,21.1L204.25,29.56L205.08,19.2L205.92,20.33L206.75,23.64L207.58,18.41L208.42,19.83L210.92,23.1L211.75,19.78L212.59,18.45L213.42,19.61L215.09,22.99L215.92,19.92L216.75,20.58L217.59,22.22L218.42,18.53L219.25,20.54L220.09,17.16L220.92,21.19L222.59,23.16L223.42,20.8L224.26,19.65L225.09,16.69L226.76,22.7L227.59,19.42L228.42,19.54L229.26,26.07L230.93,18.15L231.76,21.85L232.59,23.46L233.43,19.14L234.26,19.87L235.09,22.13L235.93,20.46L236.76,23.18L237.6,17.89L238.43,22.4L240.1,17.27L240.93,18.37L241.76,26.82L242.6,16.54L244.26,24.24L245.1,18.44L245.93,21.61L246.77,17.78L247.6,16.95L248.43,20.67L249.27,17.84L250.1,20.33L250.93,23.51L251.77,17.94L252.6,21.48L253.43,16.74L254.27,22.02L255.1,16.8L255.94,18.96L256.77,18.18L257.6,19.97L258.44,18.12L260.1,20.12L260.94,18.17L261.77,19.59L262.61,17.38L263.44,19.17L264.27,19.01L265.94,22.15L266.77,20.86L267.61,21.5L268.44,18.13L269.27,19.96L270.11,28.22L270.94,20.95L271.78,21.47L273.44,20.63L274.28,19L275.11,20.69L275.94,19.83L276.78,18.15L277.61,20.48L278.44,22.02L279.28,21.16L280.11,23.17L280.95,17.75L281.78,18.8L282.61,22.51L283.45,22.2L284.28,20.16L285.11,22.04L285.95,17.35L286.78,22.7L287.62,17.67L288.45,19.09L289.28,18.54L290.12,19.91L290.95,18.1L291.78,19.14L292.62,21.51L294.28,17.47L295.12,18.02L295.95,17.61L296.79,21.04L298.45,17.37L299.29,20.86L300.12,23.27L300.95,19.02L302.62,21.3L303.45,20.66L304.29,18.14L305.12,18.8L305.96,21.17L306.79,19.85L307.62,17.36L308.46,20.22L309.29,19.11L310.12,19.64L310.96,27.57L311.79,20.15L312.63,19.99L313.46,26.37L314.29,20.36L315.13,22.75L316.79,17.82L317.63,19.26L318.46,19.41L319.29,18.01L320.13,23.89L320.96,18.9L322.63,21.91L323.46,21.52L325.13,19.46L325.96,18.03L327.63,18.35L328.46,21.76L329.3,17.99L330.13,20.67L331.8,22.06L332.63,18.86L334.3,20.63L335.13,22.72L337.64,17.37L338.47,21.07L340.14,16.62L340.97,20.29L341.8,19.33L342.64,23.28L344.3,20.24L345.14,18.68L345.97,22.8L346.81,18.98L347.64,22.4L348.47,18.51L349.31,18.28L350.14,19.99L350.97,22.35L351.81,18.15L352.64,17.86L353.47,24.39L355.14,18.27L355.98,18.88L356.81,18.02L357.64,19.53L358.48,18.51L359.31,19.09L360.98,21.49L361.81,20.28L362.65,18.8L363.48,21.09L364.31,20.97L365.15,18.34L365.98,22.24L366.81,19.02L367.65,20.41L368.48,18.45L369.31,21.24L370.15,18.9L370.98,18.21L371.82,22.08L372.65,18.04L373.48,19.02L374.32,23.62L375.15,18.78L375.98,20.02L376.82,19.71L377.65,21.28L378.48,17.75L379.32,20.33L380.15,17.71L380.99,22.62L381.82,18.73L382.65,18.08L383.49,19.58L384.32,19.1L385.15,19.88L386.82,18.6L387.66,19.16L388.49,18.47L389.32,20.17L390.16,20.16L390.99,16.9L391.82,18.3L392.66,22.03L393.49,21.5L394.32,17.77L395.16,18.95L395.99,17.31L396.83,24.11L397.66,18.64L399.33,18.33L400.16,18.45L400.99,22.88L401.83,18.52L403.49,17.44L404.33,18.8L405.16,19.19L406,18.41L406.83,19.29L407.66,18.17L409.33,20.13L410.16,19.48L411,19.29L411.83,20.64L412.67,25.32L413.5,17.61L414.33,17.28L415.17,18.09L416,21.46" style="vector-effect: non-scaling-stroke; fill: none; stroke: rgb(0, 204, 150); stroke-opacity: 1; stroke-width: 2px; opacity: 1;"/></g><g class="points"/><g class="text"/></g><g class="trace scatter traceb7a62d" style="stroke-miterlimit: 2; opacity: 1;"><g class="fills"/><g class="errorbars"/><g class="lines"><path class="js-line" d="M0,278.14L0.83,242.36L1.67,257.93L3.33,211.05L4.17,224.01L5,230.03L5.84,251.97L6.67,226.23L7.5,242.99L8.34,239.11L9.17,200.46L10,207.52L10.84,193.36L12.51,153.61L13.34,132.45L15.01,139.21L15.84,171.41L16.67,144.22L17.51,145L19.17,160.65L20.01,166.82L20.84,163.9L21.68,148.11L22.51,148.45L23.34,136.71L24.18,133.76L25.01,122.37L25.84,119.98L26.68,137.85L27.51,123.28L28.34,124.39L29.18,114.91L30.01,120.1L30.85,124.65L31.68,123.38L34.18,128.75L35.01,116.1L35.85,118.5L36.68,109.52L37.52,106.69L38.35,116.1L39.18,92.93L40.02,107.74L40.85,105.23L41.68,70.1L42.52,105.48L43.35,100.79L45.02,35.5L45.85,36.81L46.69,36.08L47.52,38.07L49.19,25.53L50.02,25.99L50.85,34.3L51.69,29.86L52.52,21.94L53.35,30.3L54.19,29.06L55.02,24.63L55.86,23.53L56.69,26.16L57.52,29.37L58.36,28.15L59.19,37.4L60.02,26.7L61.69,21.97L62.53,26.72L63.36,35.4L64.19,23.61L65.03,26.2L65.86,22.7L66.69,24.1L67.53,21.04L68.36,31.94L69.19,26.11L70.03,23.28L70.86,23.85L71.7,25.87L72.53,19.45L73.36,27.68L74.2,24.2L75.03,22.06L75.86,26.71L76.7,26.65L77.53,23.33L78.36,20.15L79.2,25.75L80.87,20.91L81.7,23.84L83.37,23.71L84.2,19.26L85.03,19.58L85.87,24.56L86.7,30.16L87.54,26.28L89.2,20.01L90.04,22.33L90.87,22.21L91.7,21.18L92.54,26.23L93.37,20.61L94.2,22.57L95.04,21.76L95.87,21.96L96.71,19.54L97.54,20.33L98.37,26.58L100.04,19.83L100.87,21.96L101.71,23.26L102.54,22.7L103.37,20.19L104.21,21.03L105.88,19.49L106.71,20.45L107.54,18.91L108.38,20.35L109.21,22.06L110.04,20.6L110.88,19.62L111.71,19.81L112.55,24.47L113.38,22.9L114.21,22.16L115.05,19.98L115.88,20.36L116.71,18.33L117.55,23.14L118.38,20.49L119.21,17.68L120.05,20.99L120.88,19.49L121.72,22.12L122.55,23.35L123.38,16.58L125.05,20.41L125.88,17.83L126.72,20.64L127.55,18.66L129.22,20.34L130.05,19.94L131.72,21.9L132.55,21.76L133.39,18.22L134.22,19.21L135.89,18.34L136.72,20.72L137.56,19.64L138.39,20.54L139.22,20.83L140.06,22.51L140.89,18.22L141.72,19.06L142.56,21.49L143.39,26.45L144.22,18.29L145.06,17.69L145.89,19.47L146.73,18.23L148.39,19.14L149.23,21.81L150.06,19.01L150.89,20.5L153.39,19.48L154.23,18.26L155.06,17.58L155.9,18.39L157.56,19.09L158.4,20.25L159.23,18.13L160.06,23.24L160.9,18.31L161.73,22.71L163.4,17.28L164.23,19.41L165.07,20.89L165.9,18.53L166.73,21.79L167.57,17.36L168.4,20.02L169.23,17.29L170.07,17.23L170.9,22.01L172.57,22.28L173.4,22.62L175.07,18.76L175.9,18.26L176.74,24.09L177.57,19.06L178.4,17.08L179.24,20.3L180.07,19.64L180.91,17.99L183.41,19.58L184.24,17.56L185.07,17.65L185.91,20.52L186.74,18.54L187.58,23.41L188.41,18.76L189.24,20.13L190.08,18.45L190.91,18.6L191.74,19.61L192.58,16.99L194.24,21.03L195.08,16.2L196.75,20.54L197.58,17.75L198.41,19.99L199.25,18.86L200.08,16.83L200.91,20.07L203.41,18.15L204.25,19.97L205.92,18.64L206.75,18.78L207.58,17.35L208.42,19.16L209.25,17.96L210.08,19.66L210.92,17.78L211.75,17.82L212.59,22.96L213.42,21.21L214.25,18.05L215.09,18.54L216.75,16.88L217.59,18.16L219.25,16.6L220.09,20.91L220.92,17.53L221.76,17.66L222.59,17.18L223.42,18.81L224.26,20.28L225.09,17.48L225.92,20.17L226.76,18.95L227.59,16.96L228.42,18.87L230.09,22.3L230.93,18.83L232.59,17.31L233.43,19.48L234.26,19.96L235.09,16.16L235.93,20.18L236.76,19.41L238.43,17.11L239.26,17.89L240.1,17.29L240.93,20.12L241.76,16.57L242.6,16.29L244.26,19.64L245.1,19.76L245.93,17.62L246.77,23.21L248.43,16.07L249.27,17.22L250.1,19.44L250.93,18.46L251.77,21.56L252.6,20.38L253.43,18.74L254.27,19.71L255.1,17.43L255.94,18.21L256.77,20.69L257.6,18.12L259.27,19.43L260.1,18.61L260.94,18.12L261.77,20.41L262.61,18.96L263.44,20.19L264.27,16.92L265.11,18.62L266.77,19.03L267.61,18.04L268.44,18.77L269.27,16.49L270.94,18.73L271.78,18.74L272.61,19.91L273.44,16.13L274.28,21.28L275.11,19.56L275.94,17.62L276.78,19.55L277.61,19.94L278.44,23L279.28,24.33L280.11,19.62L282.61,16.11L283.45,16.83L284.28,18.33L285.11,18.09L285.95,17.17L286.78,22.54L288.45,17.33L289.28,18.87L290.95,20.33L291.78,18.43L292.62,18.83L293.45,17.91L294.28,18.49L295.12,17.7L295.95,26.82L296.79,17.41L297.62,20.09L298.45,19.05L299.29,20.17L300.12,17.81L300.95,18.15L301.79,17.57L303.45,18.02L304.29,18.14L305.12,17.6L305.96,18.96L306.79,21.62L307.62,18.51L308.46,19.98L309.29,18.53L310.96,18.34L311.79,16.23L312.63,19.85L313.46,18.89L314.29,18.81L315.13,17.59L315.96,17.43L316.79,18.56L317.63,20.7L318.46,18.23L319.29,18.61L320.13,16.69L320.96,18.53L321.8,18.38L322.63,18.21L323.46,19.33L324.3,17.37L325.13,20.13L328.46,18.14L329.3,19L330.97,17.48L331.8,21.2L332.63,17.53L333.47,18.36L334.3,17.15L335.13,18.85L335.97,18.51L336.8,22.82L337.64,16.49L338.47,21.12L339.3,17.16L340.14,18L340.97,16.54L341.8,19.79L343.47,17.22L344.3,18.41L345.14,20.84L345.97,19.02L346.81,17.55L347.64,18.78L348.47,17.19L349.31,18.5L350.14,17.97L350.97,16.45L351.81,19.03L352.64,17.48L353.47,18.54L354.31,18L355.14,17.32L355.98,19.14L356.81,19.12L357.64,25.54L358.48,16.65L359.31,17.55L360.14,18.44L360.98,17L361.81,20.42L362.65,17.94L363.48,20.97L364.31,16.73L365.15,20.62L365.98,19.22L366.81,19.43L367.65,18.14L369.31,19.96L370.15,18.48L371.82,18.52L372.65,20.29L373.48,16.14L374.32,17.6L375.15,17.4L375.98,18.45L376.82,19.56L377.65,18.48L379.32,17.32L380.15,19.02L380.99,16.01L381.82,20.08L382.65,18.38L383.49,19L385.15,17.65L385.99,18.91L386.82,16.23L387.66,19.44L388.49,16.22L389.32,17.52L390.16,16.4L390.99,17.58L391.82,16.74L392.66,17.8L394.32,17.4L395.16,17.86L398.49,18.92L399.33,18.14L400.16,17.18L400.99,18.01L401.83,16.36L402.66,21.36L403.49,16.86L404.33,17.63L405.16,17.17L406,18.07L406.83,17.87L407.66,18.69L409.33,16.16L410.16,18.47L411,16.81L411.83,17.86L412.67,19.66L413.5,16.64L415.17,18.83L416,16.8" style="vector-effect: non-scaling-stroke; fill: none; stroke: rgb(171, 99, 250); stroke-opacity: 1; stroke-width: 2px; opacity: 1;"/></g><g class="points"/><g class="text"/></g></g></g><g class="overplot"/><path class="xlines-above crisp" d="M0,0" style="fill: none;"/><path class="ylines-above crisp" d="M0,0" style="fill: none;"/><g class="overlines-above"/><g class="xaxislayer-above"><g class="xtick"><text text-anchor="middle" x="0" y="433" transform="translate(160.9,0)" style="font-family: 'Open Sans', verdana, arial, sans-serif; font-size: 12px; fill: rgb(42, 63, 95); fill-opacity: 1; white-space: pre;">10M</text></g><g class="xtick"><text text-anchor="middle" x="0" y="433" transform="translate(242.63,0)" style="font-family: 'Open Sans', verdana, arial, sans-serif; font-size: 12px; fill: rgb(42, 63, 95); fill-opacity: 1; white-space: pre;">20M</text></g><g class="xtick"><text text-anchor="middle" x="0" y="433" transform="translate(324.36,0)" style="font-family: 'Open Sans', verdana, arial, sans-serif; font-size: 12px; fill: rgb(42, 63, 95); fill-opacity: 1; white-space: pre;">30M</text></g><g class="xtick"><text text-anchor="middle" x="0" y="433" transform="translate(406.09,0)" style="font-family: 'Open Sans', verdana, arial, sans-serif; font-size: 12px; fill: rgb(42, 63, 95); fill-opacity: 1; white-space: pre;">40M</text></g><g class="xtick"><text text-anchor="middle" x="0" y="433" transform="translate(487.83,0)" style="font-family: 'Open Sans', verdana, arial, sans-serif; font-size: 12px; fill: rgb(42, 63, 95); fill-opacity: 1; white-space: pre;">50M</text></g></g><g class="yaxislayer-above"><g class="ytick"><text text-anchor="end" x="79" y="4.199999999999999" transform="translate(0,399.24)" style="font-family: 'Open Sans', verdana, arial, sans-serif; font-size: 12px; fill: rgb(42, 63, 95); fill-opacity: 1; white-space: pre;">−250</text></g><g class="ytick"><text text-anchor="end" x="79" y="4.199999999999999" transform="translate(0,341.53999999999996)" style="font-family: 'Open Sans', verdana, arial, sans-serif; font-size: 12px; fill: rgb(42, 63, 95); fill-opacity: 1; white-space: pre;">−200</text></g><g class="ytick"><text text-anchor="end" x="79" y="4.199999999999999" transform="translate(0,283.85)" style="font-family: 'Open Sans', verdana, arial, sans-serif; font-size: 12px; fill: rgb(42, 63, 95); fill-opacity: 1; white-space: pre;">−150</text></g><g class="ytick"><text text-anchor="end" x="79" y="4.199999999999999" transform="translate(0,226.16)" style="font-family: 'Open Sans', verdana, arial, sans-serif; font-size: 12px; fill: rgb(42, 63, 95); fill-opacity: 1; white-space: pre;">−100</text></g><g class="ytick"><text text-anchor="end" x="79" y="4.199999999999999" transform="translate(0,168.47)" style="font-family: 'Open Sans', verdana, arial, sans-serif; font-size: 12px; fill: rgb(42, 63, 95); fill-opacity: 1; white-space: pre;">−50</text></g><g class="ytick"><text text-anchor="end" x="79" y="4.199999999999999" transform="translate(0,110.78)" style="font-family: 'Open Sans', verdana, arial, sans-serif; font-size: 12px; fill: rgb(42, 63, 95); fill-opacity: 1; white-space: pre;">0</text></g></g><g class="overaxes-above"/></g></g><g class="polarlayer"/><g class="ternarylayer"/><g class="geolayer"/><g class="funnelarealayer"/><g class="pielayer"/><g class="treemaplayer"/><g class="sunburstlayer"/><g class="glimages"/><defs id="topdefs-21bfd8"><g class="clips"/><clipPath id="legend21bfd8"><rect width="184" height="86" x="0" y="0"/></clipPath></defs><g class="layer-above"><g class="imagelayer"/><g class="shapelayer"/></g><g class="infolayer"><g class="legend" pointer-events="all" transform="translate(504.32,100)"><rect class="bg" shape-rendering="crispEdges" style="stroke: rgb(68, 68, 68); stroke-opacity: 1; fill: rgb(255, 255, 255); fill-opacity: 1; stroke-width: 0px;" width="184" height="86" x="0" y="0"/><g class="scrollbox" transform="" clip-path="url('#legend21bfd8')"><g class="groups"><g class="traces" transform="translate(0,14.5)" style="opacity: 1;"><text class="legendtext" text-anchor="start" x="40" y="4.680000000000001" style="font-family: 'Open Sans', verdana, arial, sans-serif; font-size: 12px; fill: rgb(42, 63, 95); fill-opacity: 1; white-space: pre;">ppo, mean agg (n=16)</text><g class="layers" style="opacity: 1;"><g class="legendfill"/><g class="legendlines"><path class="js-line" d="M5,0h30" style="fill: none; stroke: rgb(99, 110, 250); stroke-opacity: 1; stroke-width: 2px;"/></g><g class="legendsymbols"><g class="legendpoints"/></g></g><rect class="legendtoggle" x="0" y="-9.5" width="178.4375" height="19" style="fill: rgb(0, 0, 0); fill-opacity: 0;"/></g><g class="traces" transform="translate(0,33.5)" style="opacity: 1;"><text class="legendtext" text-anchor="start" x="40" y="4.680000000000001" style="font-family: 'Open Sans', verdana, arial, sans-serif; font-size: 12px; fill: rgb(42, 63, 95); fill-opacity: 1; white-space: pre;">trl, mean agg (n=16)</text><g class="layers" style="opacity: 1;"><g class="legendfill"/><g class="legendlines"><path class="js-line" d="M5,0h30" style="fill: none; stroke: rgb(239, 85, 59); stroke-opacity: 1; stroke-width: 2px;"/></g><g class="legendsymbols"><g class="legendpoints"/></g></g><rect class="legendtoggle" x="0" y="-9.5" width="178.4375" height="19" style="fill: rgb(0, 0, 0); fill-opacity: 0;"/></g><g class="traces" transform="translate(0,52.5)" style="opacity: 1;"><text class="legendtext" text-anchor="start" x="40" y="4.680000000000001" style="font-family: 'Open Sans', verdana, arial, sans-serif; font-size: 12px; fill: rgb(42, 63, 95); fill-opacity: 1; white-space: pre;">ppo, bayes agg (n=8)</text><g class="layers" style="opacity: 1;"><g class="legendfill"/><g class="legendlines"><path class="js-line" d="M5,0h30" style="fill: none; stroke: rgb(0, 204, 150); stroke-opacity: 1; stroke-width: 2px;"/></g><g class="legendsymbols"><g class="legendpoints"/></g></g><rect class="legendtoggle" x="0" y="-9.5" width="178.4375" height="19" style="fill: rgb(0, 0, 0); fill-opacity: 0;"/></g><g class="traces" transform="translate(0,71.5)" style="opacity: 1;"><text class="legendtext" text-anchor="start" x="40" y="4.680000000000001" style="font-family: 'Open Sans', verdana, arial, sans-serif; font-size: 12px; fill: rgb(42, 63, 95); fill-opacity: 1; white-space: pre;">trl, bayes agg (n=8)</text><g class="layers" style="opacity: 1;"><g class="legendfill"/><g class="legendlines"><path class="js-line" d="M5,0h30" style="fill: none; stroke: rgb(171, 99, 250); stroke-opacity: 1; stroke-width: 2px;"/></g><g class="legendsymbols"><g class="legendpoints"/></g></g><rect class="legendtoggle" x="0" y="-9.5" width="178.4375" height="19" style="fill: rgb(0, 0, 0); fill-opacity: 0;"/></g></g></g><rect class="scrollbar" rx="20" ry="3" width="0" height="0" style="fill: rgb(128, 139, 164); fill-opacity: 1;" x="0" y="0"/></g><g class="g-gtitle"><text class="gtitle" x="35" y="50" text-anchor="start" dy="0em" style="font-family: 'Open Sans', verdana, arial, sans-serif; font-size: 17px; fill: rgb(42, 63, 95); opacity: 1; font-weight: normal; white-space: pre;">singlepursuit (by train algo and agg method)</text></g><g class="g-xtitle"><text class="xtitle" x="288" y="460.8" text-anchor="middle" style="font-family: 'Open Sans', verdana, arial, sans-serif; font-size: 14px; fill: rgb(42, 63, 95); opacity: 1; font-weight: normal; white-space: pre;">Agent Steps</text></g><g class="g-ytitle"><text class="ytitle" transform="rotate(-90,21.481250000000003,260)" x="21.481250000000003" y="260" text-anchor="middle" style="font-family: 'Open Sans', verdana, arial, sans-serif; font-size: 14px; fill: rgb(42, 63, 95); opacity: 1; font-weight: normal; white-space: pre;">Avg. Reward</text></g></g></svg>