<svg class="main-svg" xmlns="http://www.w3.org/2000/svg" xmlns:xlink="http://www.w3.org/1999/xlink" width="600" height="300" style="" viewBox="0 0 600 300"><rect x="0" y="0" width="600" height="300" style="fill: rgb(255, 255, 255); fill-opacity: 1;"/><defs id="defs-7ab597"><g class="clips"><clipPath id="clip7ab597xyplot" class="plotclip"><rect width="433" height="259"/></clipPath><clipPath class="axesclip" id="clip7ab597x"><rect x="38" y="0" width="433" height="300"/></clipPath><clipPath class="axesclip" id="clip7ab597y"><rect x="0" y="0" width="600" height="259"/></clipPath><clipPath class="axesclip" id="clip7ab597xy"><rect x="38" y="0" width="433" height="259"/></clipPath></g><g class="gradients"/></defs><g class="bglayer"><rect class="bg" x="38" y="0" width="433" height="259" style="fill: rgb(229, 236, 246); fill-opacity: 1; stroke-width: 0;"/></g><g class="layer-below"><g class="imagelayer"/><g class="shapelayer"/></g><g class="cartesianlayer"><g class="subplot xy"><g class="layer-subplot"><g class="shapelayer"/><g class="imagelayer"/></g><g class="gridlayer"><g class="x"><path class="xgrid crisp" transform="translate(122.2,0)" d="M0,0v259" style="stroke: rgb(255, 255, 255); stroke-opacity: 1; stroke-width: 1px;"/><path class="xgrid crisp" transform="translate(207.28,0)" d="M0,0v259" style="stroke: rgb(255, 255, 255); stroke-opacity: 1; stroke-width: 1px;"/><path class="xgrid crisp" transform="translate(292.35,0)" d="M0,0v259" style="stroke: rgb(255, 255, 255); stroke-opacity: 1; stroke-width: 1px;"/><path class="xgrid crisp" transform="translate(377.42,0)" d="M0,0v259" style="stroke: rgb(255, 255, 255); stroke-opacity: 1; stroke-width: 1px;"/><path class="xgrid crisp" transform="translate(462.49,0)" d="M0,0v259" style="stroke: rgb(255, 255, 255); stroke-opacity: 1; stroke-width: 1px;"/></g><g class="y"><path class="ygrid crisp" transform="translate(0,190.38)" d="M38,0h433" style="stroke: rgb(255, 255, 255); stroke-opacity: 1; stroke-width: 1px;"/><path class="ygrid crisp" transform="translate(0,134.72)" d="M38,0h433" style="stroke: rgb(255, 255, 255); stroke-opacity: 1; stroke-width: 1px;"/><path class="ygrid crisp" transform="translate(0,79.05)" d="M38,0h433" style="stroke: rgb(255, 255, 255); stroke-opacity: 1; stroke-width: 1px;"/><path class="ygrid crisp" transform="translate(0,23.39)" d="M38,0h433" style="stroke: rgb(255, 255, 255); stroke-opacity: 1; stroke-width: 1px;"/></g></g><g class="zerolinelayer"><path class="yzl zl crisp" transform="translate(0,246.05)" d="M38,0h433" style="stroke: rgb(255, 255, 255); stroke-opacity: 1; stroke-width: 2px;"/></g><path class="xlines-below"/><path class="ylines-below"/><g class="overlines-below"/><g class="xaxislayer-below"/><g class="yaxislayer-below"/><g class="overaxes-below"/><g class="plot" transform="translate(38,0)" clip-path="url('#clip7ab597xyplot')"><g class="scatterlayer mlayer"><g class="trace scatter trace44e8e1" style="stroke-miterlimit: 2; opacity: 1;"><g class="fills"/><g class="errorbars"/><g class="lines"><path class="js-line" d="M0,244.1L12.15,243.55L13.02,243.13L14.75,243.68L15.62,243.27L18.22,243.41L19.09,243.55L33.84,242.85L34.71,242.71L36.44,242.15L37.31,242.15L38.18,242.85L39.05,242.57L39.92,241.74L40.78,242.01L42.52,241.46L43.39,241.46L45.12,237.84L45.99,239.65L48.59,235.61L49.46,231.58L51.2,222.53L52.06,215.71L52.93,216.55L53.8,212.09L54.67,200.96L55.54,209.73L56.4,200.13L57.27,214.04L58.14,196.09L59.01,201.24L59.87,188.3L60.74,192.19L62.48,198.6L63.34,190.66L64.21,190.52L65.08,186.63L67.68,169.09L68.55,175.35L69.42,170.9L70.29,173.27L72.02,157.12L72.89,159.77L74.63,146.83L75.49,153.37L76.36,149.61L77.23,139.17L78.1,144.18L78.96,136.11L79.83,141.82L80.7,141.12L81.57,137.5L82.43,128.73L83.3,135.83L84.17,130.82L85.04,128.04L85.91,128.6L86.77,139.73L87.64,122.19L88.51,127.48L89.38,124.56L90.24,121.5L91.11,113.98L91.98,115.65L92.85,125.53L93.72,126.23L94.58,121.78L95.45,113.15L96.32,122.89L97.19,118.44L98.05,118.16L98.92,114.4L99.79,124.42L100.66,107.58L101.53,109.81L102.39,99.65L103.26,100.21L104.13,106.75L105,105.63L105.86,103.55L106.73,104.38L107.6,106.19L108.47,102.02L109.33,103.41L110.2,100.35L111.07,90.6L111.94,98.12L112.81,93.53L113.67,104.38L114.54,101.88L115.41,111.34L118.88,98.54L119.75,105.91L120.62,111.62L121.48,100.35L122.35,108.28L123.22,98.26L124.95,108.56L125.82,100.9L126.69,109.53L127.56,104.38L128.42,100.21L129.29,89.77L130.16,99.65L131.03,93.67L132.76,98.26L133.63,96.03L134.5,102.02L135.37,98.81L136.23,99.37L137.1,94.08L137.97,93.11L138.84,97.28L139.71,90.74L140.57,91.02L141.44,99.65L142.31,91.3L143.18,95.75L144.04,93.67L144.91,96.31L145.78,94.08L146.65,94.08L147.52,95.06L148.38,93.8L149.25,97.42L150.12,91.16L150.99,92.69L152.72,81.28L153.59,88.79L154.46,89.91L155.32,87.26L157.06,92.83L157.93,81.56L158.8,86.01L159.66,83.78L160.53,91.72L161.4,89.91L162.27,96.73L163.13,89.63L164,86.43L164.87,78.08L166.61,79.61L167.47,87.96L168.34,85.73L169.21,86.85L170.08,86.15L170.94,90.6L171.81,91.44L172.68,84.62L174.41,78.91L175.28,83.51L176.15,76.13L177.02,79.75L177.89,79.47L178.75,82.81L179.62,89.63L180.49,86.43L181.36,82.81L182.22,84.9L183.96,80.86L184.83,81.42L185.7,81L186.56,74.32L187.43,83.51L188.3,78.5L189.17,84.34L190.03,80.03L190.9,83.37L191.77,74.88L192.64,86.43L193.51,76.13L194.37,79.33L195.24,78.36L196.11,77.66L196.98,74.88L197.84,83.78L198.71,84.62L199.58,89.07L200.45,76.41L201.31,77.66L202.18,81.14L203.05,82.25L203.92,80.31L204.79,73.35L205.65,78.08L206.52,70.98L207.39,72.37L208.26,68.48L209.12,72.65L209.99,68.62L210.86,74.32L213.46,68.2L214.33,69.87L215.2,70.01L216.07,79.05L216.93,66.81L217.8,72.09L218.67,79.75L219.54,68.06L220.4,71.68L221.27,66.53L223.01,65L223.88,78.64L224.74,74.6L225.61,75.3L227.35,74.74L228.21,76.69L229.08,77.1L229.95,75.57L231.69,73.9L232.55,79.89L233.42,73.9L234.29,79.19L235.16,65L236.02,72.23L236.89,68.06L237.76,68.34L238.63,77.52L239.49,66.25L241.23,72.93L242.1,72.65L242.97,70.42L243.83,70.98L244.7,72.23L245.57,71.26L246.44,73.21L247.3,78.5L248.17,69.87L249.04,70.98L249.91,71.26L250.78,69.17L252.51,75.3L253.38,65.28L254.25,74.18L255.11,72.93L255.98,75.3L256.85,84.76L258.59,64.02L259.45,69.73L260.32,72.51L261.19,65.55L262.06,70.01L262.92,65L263.79,72.93L264.66,73.9L265.53,61.8L266.39,77.1L267.26,68.62L268.13,74.46L269,65.97L269.87,69.59L270.73,70.56L271.6,64.3L272.47,60.27L273.34,62.35L275.94,67.78L276.81,60.4L277.68,64.44L278.54,63.33L279.41,61.24L280.28,65L281.15,59.01L282.01,68.2L283.75,64.58L284.62,63.88L285.48,62.35L286.35,66.11L287.22,59.71L288.09,64.86L288.96,71.4L289.82,61.38L292.43,60.82L293.29,66.25L294.16,68.06L295.03,66.53L295.9,65.97L296.77,61.94L297.63,70.42L298.5,63.47L299.37,68.75L300.24,63.05L301.97,67.22L302.84,59.85L304.58,76.97L305.44,67.22L306.31,65.69L307.18,65.97L308.05,69.17L308.91,63.47L310.65,63.05L311.52,55.95L312.38,68.2L313.25,68.34L314.99,62.63L315.86,70.98L316.72,65.14L317.59,67.92L318.46,65.83L319.33,76.41L320.19,77.94L321.06,62.91L321.93,72.23L322.8,67.36L323.67,78.91L324.53,72.93L326.27,69.03L327.14,70.42L328,70.29L328.87,66.11L329.74,66.95L330.61,73.07L331.47,77.66L332.34,74.74L333.21,77.94L334.08,77.52L335.81,72.23L336.68,71.82L337.55,68.75L338.42,72.65L339.28,73.35L340.15,63.33L341.02,75.16L341.89,71.82L342.76,82.25L343.62,80.03L344.49,72.09L345.36,77.8L346.23,74.46L347.09,75.02L347.96,70.01L348.83,75.71L349.7,73.63L350.57,76.83L351.43,76.97L352.3,72.79L353.17,75.71L354.04,72.51L355.77,75.99L356.64,71.54L358.37,80.72L359.24,79.61L360.98,74.46L361.85,71.12L363.58,68.34L364.45,71.12L365.32,73.07L366.18,79.33L367.05,75.57L367.92,75.43L368.79,70.01L369.66,79.33L370.52,67.92L371.39,73.9L372.26,70.98L373.13,80.17L373.99,76.41L374.86,79.89L375.73,72.65L376.6,77.52L377.46,68.62L378.33,67.64L380.94,77.8L381.8,74.18L382.67,82.95L383.54,73.63L385.27,79.61L386.14,77.1L387.01,72.93L387.88,81.14L388.75,71.54L389.61,75.3L390.48,71.54L391.35,75.99L392.22,74.18L393.08,75.85L393.95,71.4L394.82,77.66L395.69,73.07L396.56,81.98L397.42,81.28L398.29,76.13L399.16,76.13L400.03,80.31L400.89,74.74L401.76,82.67L402.63,67.64L403.5,73.49L406.1,83.78L406.97,70.7L407.84,77.38L408.7,77.24L409.57,79.05L410.44,83.65L411.31,85.18L412.17,80.03L413.04,74.18L413.91,79.89L414.78,77.66L415.65,86.57L416.51,78.77L417.38,81.98L418.25,86.99L419.12,79.47L419.98,78.77L420.85,85.45L421.72,73.21L422.59,86.43L423.45,90.74L424.32,86.71L426.93,77.8L427.79,92.55L429.53,83.92L430.4,87.4L431.26,81.98L432.13,87.4L433,79.05" style="vector-effect: non-scaling-stroke; fill: none; stroke: rgb(99, 110, 250); stroke-opacity: 1; stroke-width: 2px; opacity: 1;"/></g><g class="points"/><g class="text"/></g><g class="trace scatter trace043355" style="stroke-miterlimit: 2; opacity: 1;"><g class="fills"><g><path class="js-fill" d="M0,243.75L2.6,242.99L3.47,243.2L4.34,243.2L5.21,242.43L9.55,242.5L10.41,240.69L12.15,237.91L13.02,239.37L14.75,233.73L15.62,235.54L18.22,232.69L19.09,228.45L19.96,231.51L20.83,228.86L21.69,221.35L22.56,232.76L24.3,219.47L25.16,224.2L26.03,217.45L26.9,216.76L27.77,215.99L28.64,217.24L29.5,219.26L30.37,223.99L31.24,219.19L32.11,221.14L32.97,219.05L33.84,219.96L34.71,219.47L35.58,211.33L39.05,203.26L39.92,208.27L40.78,187.81L41.65,197.9L43.39,174.17L44.25,182.03L45.12,181.76L45.99,166.17L46.86,165.61L47.73,154.06L48.59,166.03L49.46,164.99L50.33,167L51.2,165.13L52.06,151.7L52.93,155.31L53.8,152.11L54.67,138.13L55.54,131.45L56.4,133.61L58.14,145.02L59.01,133.05L59.87,146.69L60.74,130.47L62.48,129.22L63.34,121.78L64.21,125.74L65.08,122.47L65.95,117.32L66.82,118.71L67.68,110.57L68.55,111.62L70.29,109.81L71.15,105.15L72.89,97.42L73.76,95.27L76.36,85.11L77.23,75.09L78.1,86.01L78.96,84.83L79.83,85.87L80.7,79.96L81.57,80.03L82.43,82.53L83.3,82.25L84.17,86.92L85.04,84.83L85.91,75.09L86.77,82.95L87.64,70.49L88.51,85.32L89.38,78.77L90.24,71.26L91.11,75.09L91.98,76.06L92.85,72.58L93.72,73L94.58,65.41L96.32,74.39L97.19,73.07L98.92,77.24L99.79,67.43L101.53,76.34L102.39,76.41L104.13,73.56L105,67.15L105.86,75.09L106.73,73.76L107.6,63.54L108.47,72.23L109.33,62.42L110.2,69.73L111.07,63.81L111.94,67.78L112.81,70.63L113.67,66.74L115.41,63.54L116.28,58.18L118.01,68.82L118.88,68.13L119.75,67.64L120.62,56.44L121.48,69.8L122.35,63.81L123.22,63.81L124.09,59.43L124.95,58.25L125.82,66.74L126.69,57.69L127.56,58.25L128.42,55.95L129.29,63.12L130.16,59.57L131.03,64.65L132.76,56.93L133.63,62.77L135.37,54.7L136.23,60.34L137.97,54.35L138.84,52.75L139.71,52.89L140.57,60.13L141.44,65.97L142.31,54.84L143.18,43.15L144.04,47.67L145.78,41.41L146.65,41.97L147.52,45.58L148.38,44.61L149.25,46.28L150.12,39.53L151.85,44.61L152.72,49.55L153.59,40.78L154.46,46.28L155.32,48.16L156.19,36.82L157.06,38.63L157.93,36.61L159.66,43.43L160.53,42.87L162.27,38.76L163.13,41.48L164,28.88L164.87,44.12L165.74,33.96L166.61,41.34L168.34,34.94L169.21,42.17L170.94,37.3L171.81,41.62L173.55,33.48L174.41,40.16L175.28,40.09L176.15,42.66L177.89,29.79L178.75,31.32L180.49,23.8L181.36,38.9L182.22,31.39L183.09,33.2L183.96,33.96L184.83,37.86L185.7,28.95L186.56,36.26L187.43,27.63L188.3,34.8L189.17,29.51L190.03,30.97L190.9,36.12L191.77,28.33L194.37,40.3L195.24,27.14L196.98,34.03L197.84,32.5L198.71,40.16L199.58,28.33L200.45,31.81L201.31,29.37L202.18,32.5L203.05,30.21L203.92,27.08L204.79,40.64L205.65,27.01L206.52,28.05L207.39,20.95L208.26,32.09L209.12,31.95L209.99,31.04L210.86,27.77L211.73,30.62L212.6,21.37L213.46,25.06L214.33,21.86L215.2,25.13L216.07,27.77L216.93,24.92L217.8,20.88L218.67,24.22L219.54,28.61L220.4,21.37L221.27,25.68L222.14,25.89L223.88,32.5L224.74,26.66L225.61,29.86L226.48,29.09L228.21,35.08L229.08,31.04L229.95,34.73L230.82,27.63L233.42,35.43L234.29,30.21L235.16,27.28L236.02,34.38L237.76,31.39L238.63,32.85L239.49,29.44L240.36,32.43L241.23,25.75L242.1,34.59L243.83,21.65L244.7,30.35L245.57,32.64L246.44,25.2L247.3,21.44L248.17,22.83L249.04,23.32L249.91,29.65L250.78,21.86L251.64,27.56L252.51,26.03L253.38,21.72L254.25,28.33L255.11,26.24L255.98,18.03L256.85,20.81L257.72,24.08L258.59,30.76L259.45,28.12L260.32,19.21L261.19,24.36L262.06,24.22L262.92,28.54L263.79,23.87L265.53,28.75L266.39,18.24L267.26,32.22L268.13,23.11L269,33.69L269.87,30.62L272.47,23.8L273.34,30.28L274.2,32.99L275.07,25.41L276.81,22.34L277.68,28.05L278.54,31.18L279.41,30.83L280.28,24.36L281.15,30.07L282.88,16.15L283.75,24.15L284.62,21.51L285.48,14.9L286.35,25.89L287.22,15.59L289.82,31.67L290.69,19.35L291.56,26.1L292.43,24.5L294.16,30.42L295.03,19.84L295.9,26.03L296.77,23.8L297.63,32.57L298.5,24.71L299.37,27.01L300.24,26.45L301.1,28.61L301.97,17.75L303.71,23.8L304.58,24.5L305.44,24.22L306.31,21.09L307.18,26.45L308.05,22.48L308.91,31.74L309.78,22.34L310.65,29.23L311.52,26.45L312.38,23.87L313.25,31.81L314.12,18.1L314.99,22.62L316.72,17.19L317.59,24.71L318.46,28.81L319.33,27.77L320.19,24.15L321.06,26.38L321.93,22.76L322.8,24.01L323.67,21.3L324.53,29.02L325.4,22.69L326.27,29.02L328.87,22L329.74,32.29L330.61,23.04L331.47,26.73L332.34,27.14L333.21,32.09L334.95,22L335.81,29.58L336.68,27.14L337.55,21.23L339.28,28.68L340.15,24.78L341.02,23.18L341.89,28.54L342.76,20.53L343.62,20.19L344.49,20.33L345.36,30.14L347.09,23.53L347.96,23.32L348.83,27.28L349.7,20.53L350.57,25.61L351.43,20.88L352.3,19.42L353.17,21.02L354.04,20.05L354.9,16.92L355.77,24.99L356.64,20.67L357.51,17.26L358.37,26.45L359.24,17.06L360.11,26.52L360.98,23.18L361.85,12.95L362.71,25.89L363.58,25.75L364.45,27.7L365.32,20.95L366.18,22L367.05,31.67L367.92,16.92L368.79,26.66L369.66,17.96L370.52,17.4L372.26,25.06L373.13,23.67L373.99,22.69L374.86,24.08L375.73,21.23L376.6,23.25L378.33,15.25L379.2,28.05L380.94,18.31L381.8,17.82L383.54,24.15L384.41,27.77L385.27,30.07L386.14,21.72L387.01,20.81L387.88,24.5L388.75,27.14L389.61,20.74L390.48,15.59L391.35,24.08L393.08,24.01L393.95,25.13L395.69,29.16L396.56,17.96L397.42,24.57L398.29,24.22L399.16,27.63L400.03,22L401.76,26.38L402.63,24.85L404.36,26.87L405.23,23.74L406.97,26.94L407.84,20.46L409.57,29.16L410.44,27.42L411.31,25.47L412.17,27.28L413.04,25.06L413.91,28.75L416.51,22.76L417.38,27.01L419.12,16.92L419.98,24.99L420.85,18.66L421.72,22.27L422.59,20.46L423.45,22.27L424.32,20.12L425.19,24.36L426.06,24.71L426.93,23.11L427.79,25.41L428.66,22.27L429.53,24.57L430.4,29.16L431.26,16.08L432.13,23.32L433,23.18L433,131.45L432.13,133.47L431.26,127.48L430.4,131.1L429.53,129.57L428.66,129.64L427.79,130.54L426.93,135.83L426.06,132.28L425.19,127.55L424.32,132.98L423.45,126.65L422.59,129.64L420.85,126.86L419.98,123.79L419.12,127.27L418.25,124.28L417.38,121.92L416.51,128.25L415.65,122.75L414.78,129.71L413.91,125.26L413.04,128.04L412.17,129.85L411.31,128.67L409.57,124.35L408.7,124.63L406.97,130.2L406.1,123.59L405.23,127.27L404.36,127.2L403.5,131.1L402.63,127.2L401.76,131.87L400.89,123.1L400.03,123.17L399.16,131.59L398.29,126.23L397.42,130.33L396.56,125.53L395.69,127.55L394.82,128.94L393.95,123.24L393.08,130.13L392.22,125.95L391.35,120.66L390.48,123.17L389.61,119.48L388.75,120.52L387.88,116.91L387.01,128.11L385.27,122.19L384.41,122.75L383.54,116.84L382.67,117.74L380.94,126.09L380.07,118.85L379.2,116.14L378.33,120.8L377.46,120.25L376.6,116.42L375.73,119.69L374.86,118.44L373.13,117.04L372.26,124L371.39,120.11L370.52,120.32L368.79,116.98L367.92,112.38L366.18,115.31L365.32,123.66L362.71,113.57L361.85,122.54L360.98,115.1L360.11,120.11L359.24,118.85L358.37,119.48L356.64,115.1L355.77,116.63L354.9,117.6L354.04,121.15L352.3,114.89L351.43,115.58L350.57,116.77L349.7,110.43L348.83,108.69L347.96,109.18L347.09,117.25L346.23,116.42L345.36,113.01L344.49,113.43L342.76,121.64L341.89,119.76L341.02,119.62L340.15,118.37L339.28,116.42L338.42,111.41L337.55,111.9L336.68,119.34L335.81,115.79L334.95,115.58L334.08,118.09L333.21,116.14L332.34,114.12L331.47,115.1L329.74,122.05L328.87,118.02L328,119.55L327.14,118.51L326.27,122.19L325.4,115.58L324.53,117.53L323.67,114.82L322.8,128.53L321.93,117.6L321.06,109.46L320.19,125.05L319.33,114.96L318.46,127.9L316.72,113.91L315.86,119.13L314.99,121.43L314.12,119.69L313.25,119.41L312.38,112.1L311.52,115.58L310.65,114.05L309.78,116.35L308.91,116.14L308.05,117.53L307.18,123.1L306.31,115.58L305.44,117.11L304.58,118.16L303.71,117.39L302.84,120.59L301.97,115.93L301.1,115.72L300.24,114.19L298.5,119.41L297.63,111.27L295.9,122.12L295.03,120.38L293.29,114.47L292.43,123.45L291.56,124.56L290.69,121.99L288.96,125.88L288.09,125.6L287.22,114.33L286.35,118.23L283.75,130.89L282.88,125.19L282.01,122.89L281.15,129.08L280.28,124.84L279.41,129.64L277.68,121.78L276.81,123.86L275.94,120.8L275.07,126.65L274.2,121.99L273.34,121.78L272.47,117.18L271.6,122.26L270.73,125.46L269.87,121.15L269,126.58L268.13,123.52L267.26,127.48L266.39,124.21L265.53,120.25L264.66,125.12L263.79,117.32L262.92,123.31L261.19,119.83L260.32,115.65L259.45,126.3L258.59,110.71L257.72,126.16L256.85,119.55L255.98,127.9L255.11,121.43L254.25,124.63L253.38,133.4L252.51,112.8L251.64,124.35L249.91,115.65L249.04,127.97L248.17,129.57L247.3,120.73L246.44,125.39L245.57,120.66L244.7,118.09L243.83,126.16L242.97,121.78L242.1,127.48L241.23,122.54L240.36,124.21L239.49,129.64L238.63,119.76L237.76,118.09L236.89,125.53L236.02,124.28L235.16,125.67L232.55,119.34L231.69,121.43L230.82,128.8L229.95,117.81L229.08,124.98L228.21,118.37L227.35,122.4L226.48,118.3L223.88,130.89L223.01,122.4L222.14,118.71L221.27,121.78L220.4,129.01L219.54,120.8L218.67,136.74L217.8,127.27L216.93,127.34L216.07,124.07L215.2,132.56L214.33,123.1L210.86,136.67L209.99,123.38L209.12,134.09L208.26,123.17L207.39,121.64L206.52,126.79L205.65,138.34L204.79,131.03L203.92,135L203.05,130.06L202.18,121.29L201.31,129.78L200.45,134.93L199.58,133.47L198.71,128.46L197.84,135.62L196.98,137.08L196.11,131.24L195.24,124.7L194.37,136.95L192.64,133.67L191.77,134.23L190.9,118.65L190.03,131.94L188.3,129.64L187.43,133.4L185.7,141.05L184.83,138.62L183.96,131.1L183.09,132.35L182.22,133.12L181.36,126.16L180.49,126.37L179.62,128.53L178.75,135.48L177.89,129.85L177.02,126.51L176.15,130.61L175.28,135.07L174.41,134.16L173.55,136.39L172.68,135.34L171.81,135.34L170.94,136.32L170.08,129.22L169.21,133.74L168.34,129.71L167.47,130.13L166.61,141.61L165.74,139.1L164.87,143.97L164,141.4L163.13,143.42L162.27,143.07L161.4,140.84L160.53,142.37L159.66,145.78L158.8,144.67L157.93,149.82L157.06,149.33L156.19,151L155.32,158.59L154.46,149.75L153.59,151.7L152.72,157.33L151.85,150.03L149.25,164.43L148.38,157.26L147.52,155.25L146.65,158.72L145.78,152.11L144.91,157.12L144.04,158.24L143.18,165.27L142.31,160.67L141.44,163.66L140.57,158.17L139.71,157.75L138.84,159.49L137.97,170.76L136.23,165.2L135.37,167.07L134.5,170.28L133.63,170.55L132.76,165.82L131.9,176.68L131.03,168.4L130.16,177.16L129.29,179.46L128.42,175.91L127.56,182.03L126.69,170.97L125.82,171.95L124.95,186.35L124.09,185.37L123.22,193.38L121.48,185.37L120.62,186.63L119.75,189.69L118.88,186.35L118.01,198.18L117.14,198.18L116.28,183.5L115.41,196.3L114.54,192.05L113.67,200.96L112.81,197.9L111.94,189.48L111.07,199.08L110.2,196.23L109.33,203.19L108.47,202.35L105.86,212.79L105,205.41L104.13,206.32L103.26,215.36L102.39,211.82L101.53,217.52L99.79,211.95L98.92,222.11L98.05,217.03L97.19,226.08L95.45,229.56L94.58,233.04L93.72,230.67L92.85,234.99L91.11,232.97L90.24,230.32L88.51,234.36L87.64,236.73L86.77,239.09L85.91,236.17L85.04,239.09L84.17,238.33L83.3,237.21L82.43,230.46L81.57,236.1L80.7,236.1L78.96,239.09L78.1,240.21L77.23,238.74L76.36,239.02L75.49,240.9L74.63,236.93L73.76,240.48L72.89,239.09L72.02,239.72L71.15,238.88L69.42,242.57L68.55,241.46L66.82,241.25L65.95,238.6L65.08,239.51L64.21,238.6L63.34,241.53L62.48,240.55L61.61,240.27L60.74,242.15L59.87,240.62L59.01,242.01L57.27,242.29L56.4,242.78L53.8,242.78L52.93,243.34L50.33,242.71L49.46,243.34L48.59,242.71L47.73,243.13L45.99,243.61L45.12,242.85L42.52,243.55L41.65,243.55L38.18,243.89L37.31,243.61L32.97,244.1L32.11,243.82L29.5,243.89L28.64,244.1L0,244.38Z" style="fill: rgb(99, 110, 250); fill-opacity: 0.3; stroke-width: 0;"/></g></g><g class="errorbars"/><g class="lines"><path class="js-line" d="M0,243.75L2.6,242.99L3.47,243.2L4.34,243.2L5.21,242.43L9.55,242.5L10.41,240.69L12.15,237.91L13.02,239.37L14.75,233.73L15.62,235.54L18.22,232.69L19.09,228.45L19.96,231.51L20.83,228.86L21.69,221.35L22.56,232.76L24.3,219.47L25.16,224.2L26.03,217.45L26.9,216.76L27.77,215.99L28.64,217.24L29.5,219.26L30.37,223.99L31.24,219.19L32.11,221.14L32.97,219.05L33.84,219.96L34.71,219.47L35.58,211.33L39.05,203.26L39.92,208.27L40.78,187.81L41.65,197.9L43.39,174.17L44.25,182.03L45.12,181.76L45.99,166.17L46.86,165.61L47.73,154.06L48.59,166.03L49.46,164.99L50.33,167L51.2,165.13L52.06,151.7L52.93,155.31L53.8,152.11L54.67,138.13L55.54,131.45L56.4,133.61L58.14,145.02L59.01,133.05L59.87,146.69L60.74,130.47L62.48,129.22L63.34,121.78L64.21,125.74L65.08,122.47L65.95,117.32L66.82,118.71L67.68,110.57L68.55,111.62L70.29,109.81L71.15,105.15L72.89,97.42L73.76,95.27L76.36,85.11L77.23,75.09L78.1,86.01L78.96,84.83L79.83,85.87L80.7,79.96L81.57,80.03L82.43,82.53L83.3,82.25L84.17,86.92L85.04,84.83L85.91,75.09L86.77,82.95L87.64,70.49L88.51,85.32L89.38,78.77L90.24,71.26L91.11,75.09L91.98,76.06L92.85,72.58L93.72,73L94.58,65.41L96.32,74.39L97.19,73.07L98.92,77.24L99.79,67.43L101.53,76.34L102.39,76.41L104.13,73.56L105,67.15L105.86,75.09L106.73,73.76L107.6,63.54L108.47,72.23L109.33,62.42L110.2,69.73L111.07,63.81L111.94,67.78L112.81,70.63L113.67,66.74L115.41,63.54L116.28,58.18L118.01,68.82L118.88,68.13L119.75,67.64L120.62,56.44L121.48,69.8L122.35,63.81L123.22,63.81L124.09,59.43L124.95,58.25L125.82,66.74L126.69,57.69L127.56,58.25L128.42,55.95L129.29,63.12L130.16,59.57L131.03,64.65L132.76,56.93L133.63,62.77L135.37,54.7L136.23,60.34L137.97,54.35L138.84,52.75L139.71,52.89L140.57,60.13L141.44,65.97L142.31,54.84L143.18,43.15L144.04,47.67L145.78,41.41L146.65,41.97L147.52,45.58L148.38,44.61L149.25,46.28L150.12,39.53L151.85,44.61L152.72,49.55L153.59,40.78L154.46,46.28L155.32,48.16L156.19,36.82L157.06,38.63L157.93,36.61L159.66,43.43L160.53,42.87L162.27,38.76L163.13,41.48L164,28.88L164.87,44.12L165.74,33.96L166.61,41.34L168.34,34.94L169.21,42.17L170.94,37.3L171.81,41.62L173.55,33.48L174.41,40.16L175.28,40.09L176.15,42.66L177.89,29.79L178.75,31.32L180.49,23.8L181.36,38.9L182.22,31.39L183.09,33.2L183.96,33.96L184.83,37.86L185.7,28.95L186.56,36.26L187.43,27.63L188.3,34.8L189.17,29.51L190.03,30.97L190.9,36.12L191.77,28.33L194.37,40.3L195.24,27.14L196.98,34.03L197.84,32.5L198.71,40.16L199.58,28.33L200.45,31.81L201.31,29.37L202.18,32.5L203.05,30.21L203.92,27.08L204.79,40.64L205.65,27.01L206.52,28.05L207.39,20.95L208.26,32.09L209.12,31.95L209.99,31.04L210.86,27.77L211.73,30.62L212.6,21.37L213.46,25.06L214.33,21.86L215.2,25.13L216.07,27.77L216.93,24.92L217.8,20.88L218.67,24.22L219.54,28.61L220.4,21.37L221.27,25.68L222.14,25.89L223.88,32.5L224.74,26.66L225.61,29.86L226.48,29.09L228.21,35.08L229.08,31.04L229.95,34.73L230.82,27.63L233.42,35.43L234.29,30.21L235.16,27.28L236.02,34.38L237.76,31.39L238.63,32.85L239.49,29.44L240.36,32.43L241.23,25.75L242.1,34.59L243.83,21.65L244.7,30.35L245.57,32.64L246.44,25.2L247.3,21.44L248.17,22.83L249.04,23.32L249.91,29.65L250.78,21.86L251.64,27.56L252.51,26.03L253.38,21.72L254.25,28.33L255.11,26.24L255.98,18.03L256.85,20.81L257.72,24.08L258.59,30.76L259.45,28.12L260.32,19.21L261.19,24.36L262.06,24.22L262.92,28.54L263.79,23.87L265.53,28.75L266.39,18.24L267.26,32.22L268.13,23.11L269,33.69L269.87,30.62L272.47,23.8L273.34,30.28L274.2,32.99L275.07,25.41L276.81,22.34L277.68,28.05L278.54,31.18L279.41,30.83L280.28,24.36L281.15,30.07L282.88,16.15L283.75,24.15L284.62,21.51L285.48,14.9L286.35,25.89L287.22,15.59L289.82,31.67L290.69,19.35L291.56,26.1L292.43,24.5L294.16,30.42L295.03,19.84L295.9,26.03L296.77,23.8L297.63,32.57L298.5,24.71L299.37,27.01L300.24,26.45L301.1,28.61L301.97,17.75L303.71,23.8L304.58,24.5L305.44,24.22L306.31,21.09L307.18,26.45L308.05,22.48L308.91,31.74L309.78,22.34L310.65,29.23L311.52,26.45L312.38,23.87L313.25,31.81L314.12,18.1L314.99,22.62L316.72,17.19L317.59,24.71L318.46,28.81L319.33,27.77L320.19,24.15L321.06,26.38L321.93,22.76L322.8,24.01L323.67,21.3L324.53,29.02L325.4,22.69L326.27,29.02L328.87,22L329.74,32.29L330.61,23.04L331.47,26.73L332.34,27.14L333.21,32.09L334.95,22L335.81,29.58L336.68,27.14L337.55,21.23L339.28,28.68L340.15,24.78L341.02,23.18L341.89,28.54L342.76,20.53L343.62,20.19L344.49,20.33L345.36,30.14L347.09,23.53L347.96,23.32L348.83,27.28L349.7,20.53L350.57,25.61L351.43,20.88L352.3,19.42L353.17,21.02L354.04,20.05L354.9,16.92L355.77,24.99L356.64,20.67L357.51,17.26L358.37,26.45L359.24,17.06L360.11,26.52L360.98,23.18L361.85,12.95L362.71,25.89L363.58,25.75L364.45,27.7L365.32,20.95L366.18,22L367.05,31.67L367.92,16.92L368.79,26.66L369.66,17.96L370.52,17.4L372.26,25.06L373.13,23.67L373.99,22.69L374.86,24.08L375.73,21.23L376.6,23.25L378.33,15.25L379.2,28.05L380.94,18.31L381.8,17.82L383.54,24.15L384.41,27.77L385.27,30.07L386.14,21.72L387.01,20.81L387.88,24.5L388.75,27.14L389.61,20.74L390.48,15.59L391.35,24.08L393.08,24.01L393.95,25.13L395.69,29.16L396.56,17.96L397.42,24.57L398.29,24.22L399.16,27.63L400.03,22L401.76,26.38L402.63,24.85L404.36,26.87L405.23,23.74L406.97,26.94L407.84,20.46L409.57,29.16L410.44,27.42L411.31,25.47L412.17,27.28L413.04,25.06L413.91,28.75L416.51,22.76L417.38,27.01L419.12,16.92L419.98,24.99L420.85,18.66L421.72,22.27L422.59,20.46L423.45,22.27L424.32,20.12L425.19,24.36L426.06,24.71L426.93,23.11L427.79,25.41L428.66,22.27L429.53,24.57L430.4,29.16L431.26,16.08L432.13,23.32L433,23.18L433,131.45L432.13,133.47L431.26,127.48L430.4,131.1L429.53,129.57L428.66,129.64L427.79,130.54L426.93,135.83L426.06,132.28L425.19,127.55L424.32,132.98L423.45,126.65L422.59,129.64L420.85,126.86L419.98,123.79L419.12,127.27L418.25,124.28L417.38,121.92L416.51,128.25L415.65,122.75L414.78,129.71L413.91,125.26L413.04,128.04L412.17,129.85L411.31,128.67L409.57,124.35L408.7,124.63L406.97,130.2L406.1,123.59L405.23,127.27L404.36,127.2L403.5,131.1L402.63,127.2L401.76,131.87L400.89,123.1L400.03,123.17L399.16,131.59L398.29,126.23L397.42,130.33L396.56,125.53L395.69,127.55L394.82,128.94L393.95,123.24L393.08,130.13L392.22,125.95L391.35,120.66L390.48,123.17L389.61,119.48L388.75,120.52L387.88,116.91L387.01,128.11L385.27,122.19L384.41,122.75L383.54,116.84L382.67,117.74L380.94,126.09L380.07,118.85L379.2,116.14L378.33,120.8L377.46,120.25L376.6,116.42L375.73,119.69L374.86,118.44L373.13,117.04L372.26,124L371.39,120.11L370.52,120.32L368.79,116.98L367.92,112.38L366.18,115.31L365.32,123.66L362.71,113.57L361.85,122.54L360.98,115.1L360.11,120.11L359.24,118.85L358.37,119.48L356.64,115.1L355.77,116.63L354.9,117.6L354.04,121.15L352.3,114.89L351.43,115.58L350.57,116.77L349.7,110.43L348.83,108.69L347.96,109.18L347.09,117.25L346.23,116.42L345.36,113.01L344.49,113.43L342.76,121.64L341.89,119.76L341.02,119.62L340.15,118.37L339.28,116.42L338.42,111.41L337.55,111.9L336.68,119.34L335.81,115.79L334.95,115.58L334.08,118.09L333.21,116.14L332.34,114.12L331.47,115.1L329.74,122.05L328.87,118.02L328,119.55L327.14,118.51L326.27,122.19L325.4,115.58L324.53,117.53L323.67,114.82L322.8,128.53L321.93,117.6L321.06,109.46L320.19,125.05L319.33,114.96L318.46,127.9L316.72,113.91L315.86,119.13L314.99,121.43L314.12,119.69L313.25,119.41L312.38,112.1L311.52,115.58L310.65,114.05L309.78,116.35L308.91,116.14L308.05,117.53L307.18,123.1L306.31,115.58L305.44,117.11L304.58,118.16L303.71,117.39L302.84,120.59L301.97,115.93L301.1,115.72L300.24,114.19L298.5,119.41L297.63,111.27L295.9,122.12L295.03,120.38L293.29,114.47L292.43,123.45L291.56,124.56L290.69,121.99L288.96,125.88L288.09,125.6L287.22,114.33L286.35,118.23L283.75,130.89L282.88,125.19L282.01,122.89L281.15,129.08L280.28,124.84L279.41,129.64L277.68,121.78L276.81,123.86L275.94,120.8L275.07,126.65L274.2,121.99L273.34,121.78L272.47,117.18L271.6,122.26L270.73,125.46L269.87,121.15L269,126.58L268.13,123.52L267.26,127.48L266.39,124.21L265.53,120.25L264.66,125.12L263.79,117.32L262.92,123.31L261.19,119.83L260.32,115.65L259.45,126.3L258.59,110.71L257.72,126.16L256.85,119.55L255.98,127.9L255.11,121.43L254.25,124.63L253.38,133.4L252.51,112.8L251.64,124.35L249.91,115.65L249.04,127.97L248.17,129.57L247.3,120.73L246.44,125.39L245.57,120.66L244.7,118.09L243.83,126.16L242.97,121.78L242.1,127.48L241.23,122.54L240.36,124.21L239.49,129.64L238.63,119.76L237.76,118.09L236.89,125.53L236.02,124.28L235.16,125.67L232.55,119.34L231.69,121.43L230.82,128.8L229.95,117.81L229.08,124.98L228.21,118.37L227.35,122.4L226.48,118.3L223.88,130.89L223.01,122.4L222.14,118.71L221.27,121.78L220.4,129.01L219.54,120.8L218.67,136.74L217.8,127.27L216.93,127.34L216.07,124.07L215.2,132.56L214.33,123.1L210.86,136.67L209.99,123.38L209.12,134.09L208.26,123.17L207.39,121.64L206.52,126.79L205.65,138.34L204.79,131.03L203.92,135L203.05,130.06L202.18,121.29L201.31,129.78L200.45,134.93L199.58,133.47L198.71,128.46L197.84,135.62L196.98,137.08L196.11,131.24L195.24,124.7L194.37,136.95L192.64,133.67L191.77,134.23L190.9,118.65L190.03,131.94L188.3,129.64L187.43,133.4L185.7,141.05L184.83,138.62L183.96,131.1L183.09,132.35L182.22,133.12L181.36,126.16L180.49,126.37L179.62,128.53L178.75,135.48L177.89,129.85L177.02,126.51L176.15,130.61L175.28,135.07L174.41,134.16L173.55,136.39L172.68,135.34L171.81,135.34L170.94,136.32L170.08,129.22L169.21,133.74L168.34,129.71L167.47,130.13L166.61,141.61L165.74,139.1L164.87,143.97L164,141.4L163.13,143.42L162.27,143.07L161.4,140.84L160.53,142.37L159.66,145.78L158.8,144.67L157.93,149.82L157.06,149.33L156.19,151L155.32,158.59L154.46,149.75L153.59,151.7L152.72,157.33L151.85,150.03L149.25,164.43L148.38,157.26L147.52,155.25L146.65,158.72L145.78,152.11L144.91,157.12L144.04,158.24L143.18,165.27L142.31,160.67L141.44,163.66L140.57,158.17L139.71,157.75L138.84,159.49L137.97,170.76L136.23,165.2L135.37,167.07L134.5,170.28L133.63,170.55L132.76,165.82L131.9,176.68L131.03,168.4L130.16,177.16L129.29,179.46L128.42,175.91L127.56,182.03L126.69,170.97L125.82,171.95L124.95,186.35L124.09,185.37L123.22,193.38L121.48,185.37L120.62,186.63L119.75,189.69L118.88,186.35L118.01,198.18L117.14,198.18L116.28,183.5L115.41,196.3L114.54,192.05L113.67,200.96L112.81,197.9L111.94,189.48L111.07,199.08L110.2,196.23L109.33,203.19L108.47,202.35L105.86,212.79L105,205.41L104.13,206.32L103.26,215.36L102.39,211.82L101.53,217.52L99.79,211.95L98.92,222.11L98.05,217.03L97.19,226.08L95.45,229.56L94.58,233.04L93.72,230.67L92.85,234.99L91.11,232.97L90.24,230.32L88.51,234.36L87.64,236.73L86.77,239.09L85.91,236.17L85.04,239.09L84.17,238.33L83.3,237.21L82.43,230.46L81.57,236.1L80.7,236.1L78.96,239.09L78.1,240.21L77.23,238.74L76.36,239.02L75.49,240.9L74.63,236.93L73.76,240.48L72.89,239.09L72.02,239.72L71.15,238.88L69.42,242.57L68.55,241.46L66.82,241.25L65.95,238.6L65.08,239.51L64.21,238.6L63.34,241.53L62.48,240.55L61.61,240.27L60.74,242.15L59.87,240.62L59.01,242.01L57.27,242.29L56.4,242.78L53.8,242.78L52.93,243.34L50.33,242.71L49.46,243.34L48.59,242.71L47.73,243.13L45.99,243.61L45.12,242.85L42.52,243.55L41.65,243.55L38.18,243.89L37.31,243.61L32.97,244.1L32.11,243.82L29.5,243.89L28.64,244.1L0,244.38" style="vector-effect: non-scaling-stroke; fill: none; stroke: rgb(0, 0, 0); stroke-opacity: 0; stroke-width: 2px; opacity: 1;"/></g><g class="points"/><g class="text"/></g><g class="trace scatter trace8d7074" style="stroke-miterlimit: 2; opacity: 1;"><g class="fills"/><g class="errorbars"/><g class="lines"><path class="js-line" d="M0,246.05L0.87,246.05L1.74,240.48L2.6,246.05L3.47,246.05L4.34,240.48L5.21,246.05L8.68,246.05L9.55,240.48L11.28,240.48L12.15,246.05L20.83,246.05L21.69,240.48L22.56,246.05L23.43,240.48L24.3,246.05L25.16,246.05L34.71,246.05L35.58,240.48L36.44,246.05L37.31,246.05L39.05,246.05L39.92,240.48L40.78,246.05L41.65,246.05L42.52,240.48L43.39,246.05L45.12,246.05L45.99,240.48L46.86,246.05L47.73,246.05L48.59,240.48L49.46,246.05L50.33,240.48L51.2,246.05L52.06,240.48L52.93,240.48L53.8,246.05L54.67,246.05L55.54,240.48L56.4,246.05L59.01,246.05L59.87,240.48L60.74,246.05L61.61,240.48L65.95,240.48L66.82,246.05L68.55,234.92L69.42,240.48L71.15,240.48L72.02,234.92L72.89,240.48L73.76,240.48L74.63,240.48L75.49,246.05L76.36,229.35L77.23,246.05L78.96,246.05L79.83,234.92L80.7,234.92L81.57,240.48L83.3,240.48L84.17,246.05L85.04,240.48L85.91,240.48L86.77,246.05L87.64,246.05L88.51,240.48L89.38,240.48L91.98,240.48L92.85,234.92L93.72,240.48L94.58,229.35L95.45,223.78L96.32,223.78L97.19,223.78L98.05,240.48L100.66,240.48L101.53,246.05L102.39,229.35L103.26,229.35L104.13,212.65L105,229.35L105.86,240.48L106.73,223.78L107.6,184.82L108.47,234.92L109.33,240.48L110.2,218.22L111.07,240.48L111.94,223.78L112.81,229.35L113.67,246.05L114.54,218.22L115.41,223.78L116.28,234.92L117.14,234.92L119.75,218.22L120.62,234.92L121.48,218.22L122.35,234.92L123.22,229.35L124.09,229.35L124.95,218.22L125.82,218.22L126.69,218.22L127.56,234.92L129.29,190.38L130.16,218.22L131.9,201.52L132.76,212.65L133.63,201.52L134.5,207.08L135.37,229.35L136.23,179.25L137.1,207.08L137.97,173.68L138.84,212.65L139.71,207.08L140.57,184.82L141.44,184.82L142.31,212.65L143.18,190.38L144.04,207.08L144.91,173.68L145.78,207.08L146.65,195.95L147.52,190.38L148.38,190.38L149.25,162.55L150.12,179.25L150.99,168.12L151.85,168.12L152.72,179.25L153.59,207.08L154.46,195.95L155.32,145.85L156.19,184.82L157.06,151.42L157.93,156.98L158.8,190.38L159.66,162.55L160.53,168.12L161.4,184.82L162.27,140.29L163.13,184.82L164,168.12L164.87,179.25L165.74,179.25L167.47,151.42L168.34,168.12L169.21,145.85L170.08,179.25L170.94,173.68L171.81,179.25L172.68,201.52L173.55,156.98L174.41,145.85L175.28,184.82L176.15,168.12L177.02,173.68L178.75,195.95L179.62,184.82L180.49,162.55L181.36,190.38L182.22,201.52L183.09,151.42L183.96,195.95L184.83,168.12L185.7,190.38L186.56,151.42L188.3,184.82L189.17,156.98L190.03,179.25L190.9,179.25L191.77,168.12L192.64,184.82L193.51,151.42L194.37,195.95L195.24,151.42L196.11,151.42L196.98,207.08L197.84,151.42L199.58,195.95L200.45,140.29L201.31,123.59L202.18,179.25L203.05,190.38L203.92,168.12L204.79,173.68L205.65,184.82L207.39,212.65L208.26,162.55L209.12,229.35L209.99,190.38L210.86,162.55L211.73,184.82L212.6,179.25L213.46,156.98L214.33,168.12L215.2,168.12L216.07,168.12L216.93,173.68L217.8,129.15L218.67,162.55L219.54,190.38L220.4,140.29L221.27,184.82L222.14,162.55L223.01,129.15L223.88,195.95L224.74,162.55L225.61,179.25L226.48,145.85L227.35,190.38L229.95,162.55L230.82,156.98L232.55,190.38L233.42,179.25L234.29,184.82L235.16,184.82L236.02,195.95L236.89,151.42L237.76,140.29L238.63,162.55L239.49,162.55L240.36,207.08L241.23,223.78L242.1,140.29L243.83,234.92L244.7,173.68L245.57,173.68L246.44,184.82L247.3,162.55L248.17,162.55L249.04,162.55L249.91,151.42L251.64,162.55L252.51,184.82L253.38,156.98L254.25,184.82L255.11,145.85L255.98,179.25L256.85,168.12L257.72,190.38L258.59,212.65L259.45,201.52L260.32,140.29L261.19,179.25L262.06,145.85L262.92,184.82L263.79,156.98L264.66,156.98L265.53,140.29L266.39,162.55L268.13,145.85L269,118.02L269.87,190.38L270.73,173.68L271.6,173.68L272.47,179.25L273.34,173.68L274.2,190.38L275.07,162.55L275.94,168.12L276.81,145.85L277.68,190.38L279.41,129.15L280.28,129.15L281.15,184.82L282.01,173.68L283.75,118.02L284.62,201.52L285.48,140.29L286.35,190.38L287.22,184.82L288.09,162.55L288.96,145.85L289.82,190.38" style="vector-effect: non-scaling-stroke; fill: none; stroke: rgb(239, 85, 59); stroke-opacity: 1; stroke-width: 2px; opacity: 1;"/></g><g class="points"/><g class="text"/></g><g class="trace scatter trace96701c" style="stroke-miterlimit: 2; opacity: 1;"><g class="fills"><g><path class="js-fill" d="M0,246.05L0.87,246.05L1.74,240.48L2.6,240.48L3.47,246.05L4.34,240.48L5.21,240.48L7.81,240.48L8.68,246.05L9.55,240.48L10.41,240.48L12.15,240.48L13.02,246.05L13.88,240.48L14.75,240.48L15.62,240.48L16.49,246.05L20.83,246.05L21.69,240.48L23.43,240.48L24.3,246.05L26.9,246.05L27.77,240.48L28.64,240.48L29.5,246.05L30.37,240.48L31.24,246.05L32.11,246.05L32.97,240.48L33.84,240.48L34.71,246.05L35.58,240.48L36.44,240.48L37.31,246.05L38.18,240.48L39.92,240.48L40.78,246.05L41.65,246.05L42.52,234.92L43.39,240.48L44.25,234.92L45.12,246.05L45.99,240.48L46.86,240.48L47.73,246.05L48.59,240.48L49.46,240.48L57.27,240.48L58.14,234.92L59.01,246.05L59.87,229.35L60.74,246.05L61.61,234.92L62.48,229.35L63.34,240.48L64.21,240.48L65.08,223.78L65.95,229.35L66.82,240.48L67.68,234.92L68.55,234.92L69.42,234.92L70.29,240.48L72.02,229.35L72.89,234.92L73.76,240.48L74.63,240.48L75.49,246.05L76.36,223.78L78.1,246.05L78.96,240.48L79.83,218.22L80.7,218.22L82.43,240.48L83.3,234.92L84.17,229.35L85.04,229.35L85.91,234.92L86.77,246.05L87.64,240.48L88.51,240.48L89.38,223.78L90.24,223.78L91.11,234.92L91.98,207.08L92.85,190.38L93.72,195.95L94.58,212.65L95.45,207.08L96.32,179.25L97.19,207.08L98.05,212.65L98.92,207.08L99.79,212.65L100.66,195.95L101.53,195.95L102.39,184.82L103.26,195.95L104.13,173.68L105.86,184.82L106.73,168.12L108.47,184.82L109.33,184.82L111.07,184.82L111.94,129.15L112.81,156.98L113.67,134.72L115.41,162.55L116.28,162.55L117.14,195.95L118.01,118.02L119.75,190.38L120.62,123.59L121.48,195.95L122.35,156.98L123.22,179.25L124.09,140.29L125.82,195.95L126.69,129.15L127.56,134.72L128.42,129.15L130.16,156.98L131.03,156.98L131.9,118.02L132.76,129.15L133.63,140.29L134.5,190.38L135.37,140.29L136.23,134.72L137.1,112.45L137.97,151.42L138.84,95.75L139.71,140.29L140.57,162.55L141.44,129.15L142.31,123.59L143.18,162.55L144.04,112.45L144.91,140.29L145.78,140.29L146.65,145.85L147.52,134.72L148.38,156.98L149.25,156.98L150.12,162.55L150.99,67.92L151.85,151.42L152.72,140.29L153.59,140.29L154.46,129.15L155.32,145.85L156.19,112.45L157.06,140.29L158.8,95.75L159.66,156.98L160.53,101.32L161.4,106.89L162.27,123.59L163.13,123.59L164,140.29L164.87,90.19L165.74,179.25L166.61,101.32L167.47,112.45L168.34,134.72L170.08,79.05L170.94,123.59L171.81,162.55L172.68,106.89L173.55,112.45L174.41,123.59L175.28,145.85L176.15,123.59L177.02,106.89L177.89,134.72L178.75,129.15L179.62,106.89L180.49,79.05L181.36,168.12L182.22,129.15L183.09,145.85L183.96,95.75L184.83,140.29L185.7,162.55L186.56,101.32L187.43,101.32L188.3,140.29L189.17,123.59L190.03,56.79L190.9,123.59L191.77,112.45L192.64,84.62L193.51,118.02L194.37,79.05L195.24,106.89L196.11,134.72L196.98,101.32L197.84,101.32L198.71,84.62L199.58,84.62L200.45,101.32L201.31,112.45L202.18,28.95L203.92,118.02L204.79,112.45L205.65,140.29L206.52,79.05L207.39,129.15L208.26,90.19L209.99,67.92L210.86,90.19L211.73,118.02L212.6,112.45L213.46,79.05L214.33,134.72L215.2,79.05L216.07,90.19L218.67,140.29L219.54,101.32L220.4,118.02L221.27,79.05L222.14,123.59L223.01,90.19L223.88,145.85L224.74,118.02L225.61,67.92L226.48,140.29L227.35,145.85L228.21,95.75L229.08,129.15L229.95,106.89L230.82,151.42L231.69,112.45L232.55,123.59L233.42,51.22L234.29,140.29L235.16,95.75L236.02,123.59L236.89,95.75L237.76,140.29L238.63,112.45L239.49,129.15L240.36,23.39L241.23,118.02L242.1,79.05L242.97,151.42L243.83,95.75L244.7,118.02L245.57,112.45L246.44,51.22L247.3,151.42L248.17,106.89L249.04,101.32L249.91,90.19L250.78,123.59L251.64,40.09L252.51,90.19L254.25,134.72L255.11,106.89L255.98,118.02L256.85,162.55L257.72,95.75L258.59,140.29L259.45,112.45L260.32,123.59L261.19,123.59L262.06,90.19L263.79,140.29L264.66,123.59L265.53,101.32L266.39,129.15L267.26,106.89L268.13,112.45L269,112.45L269.87,129.15L270.73,134.72L271.6,145.85L272.47,134.72L273.34,140.29L274.2,95.75L275.07,145.85L275.94,145.85L276.81,129.15L277.68,90.19L278.54,123.59L279.41,84.62L280.28,129.15L281.15,151.42L282.01,134.72L282.88,118.02L283.75,84.62L284.62,101.32L285.48,101.32L287.22,140.29L288.09,134.72L289.82,112.45L289.82,195.95L288.96,234.92L288.09,229.35L287.22,190.38L286.35,218.22L285.48,184.82L284.62,223.78L282.01,173.68L281.15,201.52L280.28,184.82L279.41,234.92L278.54,190.38L277.68,201.52L276.81,179.25L275.94,223.78L275.07,184.82L274.2,218.22L273.34,207.08L272.47,207.08L271.6,201.52L270.73,229.35L269.87,223.78L269,223.78L268.13,201.52L267.26,201.52L265.53,229.35L264.66,234.92L263.79,201.52L262.92,229.35L262.06,212.65L261.19,223.78L260.32,229.35L259.45,229.35L258.59,234.92L257.72,229.35L256.85,240.48L255.98,223.78L255.11,246.05L254.25,246.05L253.38,246.05L252.51,234.92L251.64,240.48L250.78,223.78L249.91,223.78L249.04,234.92L248.17,246.05L247.3,246.05L246.44,240.48L245.57,218.22L244.7,240.48L243.83,240.48L242.97,240.48L242.1,234.92L241.23,229.35L240.36,240.48L239.49,234.92L238.63,246.05L237.76,240.48L236.89,246.05L235.16,234.92L234.29,246.05L233.42,246.05L232.55,240.48L229.95,240.48L229.08,246.05L227.35,246.05L226.48,223.78L225.61,229.35L224.74,240.48L223.88,223.78L223.01,240.48L222.14,234.92L221.27,234.92L220.4,246.05L219.54,240.48L217.8,240.48L216.93,246.05L215.2,234.92L214.33,240.48L213.46,240.48L212.6,212.65L211.73,234.92L210.86,207.08L209.99,240.48L209.12,240.48L206.52,240.48L205.65,246.05L204.79,223.78L203.92,246.05L202.18,234.92L201.31,240.48L200.45,229.35L199.58,234.92L197.84,234.92L196.98,240.48L196.11,234.92L195.24,234.92L194.37,234.92L193.51,246.05L192.64,223.78L191.77,223.78L190.9,240.48L190.03,240.48L189.17,240.48L188.3,234.92L186.56,246.05L185.7,234.92L184.83,234.92L183.96,240.48L183.09,246.05L182.22,240.48L181.36,240.48L180.49,234.92L179.62,240.48L178.75,240.48L177.89,246.05L177.02,234.92L176.15,246.05L175.28,240.48L174.41,246.05L173.55,229.35L171.81,246.05L170.94,234.92L170.08,234.92L169.21,246.05L167.47,234.92L166.61,240.48L163.13,240.48L162.27,223.78L161.4,246.05L160.53,234.92L159.66,240.48L158.8,218.22L157.93,240.48L157.06,234.92L156.19,234.92L155.32,246.05L154.46,240.48L153.59,229.35L152.72,229.35L151.85,240.48L150.99,229.35L150.12,240.48L149.25,229.35L148.38,240.48L147.52,234.92L146.65,246.05L145.78,246.05L144.91,240.48L144.04,246.05L143.18,240.48L142.31,240.48L141.44,223.78L140.57,240.48L139.71,240.48L138.84,229.35L137.97,240.48L137.1,234.92L136.23,240.48L135.37,240.48L134.5,234.92L133.63,240.48L132.76,240.48L131.9,246.05L131.03,234.92L130.16,229.35L129.29,246.05L128.42,240.48L127.56,240.48L125.82,240.48L124.95,234.92L124.09,229.35L123.22,240.48L121.48,229.35L120.62,246.05L119.75,246.05L118.88,234.92L118.01,240.48L117.14,240.48L115.41,240.48L114.54,218.22L113.67,246.05L112.81,234.92L111.07,246.05L110.2,240.48L109.33,246.05L108.47,240.48L107.6,229.35L106.73,229.35L105.86,240.48L105,229.35L104.13,246.05L103.26,246.05L102.39,240.48L101.53,246.05L98.92,246.05L98.05,240.48L97.19,246.05L96.32,240.48L94.58,240.48L93.72,246.05L92.85,240.48L91.98,240.48L91.11,246.05L90.24,246.05L89.38,246.05L88.51,240.48L87.64,246.05L86.77,246.05L85.91,240.48L85.04,246.05L81.57,246.05L80.7,240.48L79.83,246.05L78.96,246.05L74.63,246.05L73.76,240.48L72.02,240.48L71.15,246.05L66.82,246.05L65.95,240.48L65.08,246.05L64.21,246.05L63.34,240.48L62.48,246.05L61.61,240.48L60.74,246.05L53.8,246.05L52.93,240.48L52.06,240.48L51.2,246.05L46.86,246.05L45.99,240.48L45.12,246.05L44.25,246.05L43.39,246.05L42.52,240.48L41.65,246.05L40.78,246.05L24.3,246.05L23.43,240.48L22.56,246.05L21.69,246.05L0,246.05Z" style="fill: rgb(239, 85, 59); fill-opacity: 0.3; stroke-width: 0;"/></g></g><g class="errorbars"/><g class="lines"><path class="js-line" d="M0,246.05L0.87,246.05L1.74,240.48L2.6,240.48L3.47,246.05L4.34,240.48L5.21,240.48L7.81,240.48L8.68,246.05L9.55,240.48L10.41,240.48L12.15,240.48L13.02,246.05L13.88,240.48L14.75,240.48L15.62,240.48L16.49,246.05L20.83,246.05L21.69,240.48L23.43,240.48L24.3,246.05L26.9,246.05L27.77,240.48L28.64,240.48L29.5,246.05L30.37,240.48L31.24,246.05L32.11,246.05L32.97,240.48L33.84,240.48L34.71,246.05L35.58,240.48L36.44,240.48L37.31,246.05L38.18,240.48L39.92,240.48L40.78,246.05L41.65,246.05L42.52,234.92L43.39,240.48L44.25,234.92L45.12,246.05L45.99,240.48L46.86,240.48L47.73,246.05L48.59,240.48L49.46,240.48L57.27,240.48L58.14,234.92L59.01,246.05L59.87,229.35L60.74,246.05L61.61,234.92L62.48,229.35L63.34,240.48L64.21,240.48L65.08,223.78L65.95,229.35L66.82,240.48L67.68,234.92L68.55,234.92L69.42,234.92L70.29,240.48L72.02,229.35L72.89,234.92L73.76,240.48L74.63,240.48L75.49,246.05L76.36,223.78L78.1,246.05L78.96,240.48L79.83,218.22L80.7,218.22L82.43,240.48L83.3,234.92L84.17,229.35L85.04,229.35L85.91,234.92L86.77,246.05L87.64,240.48L88.51,240.48L89.38,223.78L90.24,223.78L91.11,234.92L91.98,207.08L92.85,190.38L93.72,195.95L94.58,212.65L95.45,207.08L96.32,179.25L97.19,207.08L98.05,212.65L98.92,207.08L99.79,212.65L100.66,195.95L101.53,195.95L102.39,184.82L103.26,195.95L104.13,173.68L105.86,184.82L106.73,168.12L108.47,184.82L109.33,184.82L111.07,184.82L111.94,129.15L112.81,156.98L113.67,134.72L115.41,162.55L116.28,162.55L117.14,195.95L118.01,118.02L119.75,190.38L120.62,123.59L121.48,195.95L122.35,156.98L123.22,179.25L124.09,140.29L125.82,195.95L126.69,129.15L127.56,134.72L128.42,129.15L130.16,156.98L131.03,156.98L131.9,118.02L132.76,129.15L133.63,140.29L134.5,190.38L135.37,140.29L136.23,134.72L137.1,112.45L137.97,151.42L138.84,95.75L139.71,140.29L140.57,162.55L141.44,129.15L142.31,123.59L143.18,162.55L144.04,112.45L144.91,140.29L145.78,140.29L146.65,145.85L147.52,134.72L148.38,156.98L149.25,156.98L150.12,162.55L150.99,67.92L151.85,151.42L152.72,140.29L153.59,140.29L154.46,129.15L155.32,145.85L156.19,112.45L157.06,140.29L158.8,95.75L159.66,156.98L160.53,101.32L161.4,106.89L162.27,123.59L163.13,123.59L164,140.29L164.87,90.19L165.74,179.25L166.61,101.32L167.47,112.45L168.34,134.72L170.08,79.05L170.94,123.59L171.81,162.55L172.68,106.89L173.55,112.45L174.41,123.59L175.28,145.85L176.15,123.59L177.02,106.89L177.89,134.72L178.75,129.15L179.62,106.89L180.49,79.05L181.36,168.12L182.22,129.15L183.09,145.85L183.96,95.75L184.83,140.29L185.7,162.55L186.56,101.32L187.43,101.32L188.3,140.29L189.17,123.59L190.03,56.79L190.9,123.59L191.77,112.45L192.64,84.62L193.51,118.02L194.37,79.05L195.24,106.89L196.11,134.72L196.98,101.32L197.84,101.32L198.71,84.62L199.58,84.62L200.45,101.32L201.31,112.45L202.18,28.95L203.92,118.02L204.79,112.45L205.65,140.29L206.52,79.05L207.39,129.15L208.26,90.19L209.99,67.92L210.86,90.19L211.73,118.02L212.6,112.45L213.46,79.05L214.33,134.72L215.2,79.05L216.07,90.19L218.67,140.29L219.54,101.32L220.4,118.02L221.27,79.05L222.14,123.59L223.01,90.19L223.88,145.85L224.74,118.02L225.61,67.92L226.48,140.29L227.35,145.85L228.21,95.75L229.08,129.15L229.95,106.89L230.82,151.42L231.69,112.45L232.55,123.59L233.42,51.22L234.29,140.29L235.16,95.75L236.02,123.59L236.89,95.75L237.76,140.29L238.63,112.45L239.49,129.15L240.36,23.39L241.23,118.02L242.1,79.05L242.97,151.42L243.83,95.75L244.7,118.02L245.57,112.45L246.44,51.22L247.3,151.42L248.17,106.89L249.04,101.32L249.91,90.19L250.78,123.59L251.64,40.09L252.51,90.19L254.25,134.72L255.11,106.89L255.98,118.02L256.85,162.55L257.72,95.75L258.59,140.29L259.45,112.45L260.32,123.59L261.19,123.59L262.06,90.19L263.79,140.29L264.66,123.59L265.53,101.32L266.39,129.15L267.26,106.89L268.13,112.45L269,112.45L269.87,129.15L270.73,134.72L271.6,145.85L272.47,134.72L273.34,140.29L274.2,95.75L275.07,145.85L275.94,145.85L276.81,129.15L277.68,90.19L278.54,123.59L279.41,84.62L280.28,129.15L281.15,151.42L282.01,134.72L282.88,118.02L283.75,84.62L284.62,101.32L285.48,101.32L287.22,140.29L288.09,134.72L289.82,112.45L289.82,195.95L288.96,234.92L288.09,229.35L287.22,190.38L286.35,218.22L285.48,184.82L284.62,223.78L282.01,173.68L281.15,201.52L280.28,184.82L279.41,234.92L278.54,190.38L277.68,201.52L276.81,179.25L275.94,223.78L275.07,184.82L274.2,218.22L273.34,207.08L272.47,207.08L271.6,201.52L270.73,229.35L269.87,223.78L269,223.78L268.13,201.52L267.26,201.52L265.53,229.35L264.66,234.92L263.79,201.52L262.92,229.35L262.06,212.65L261.19,223.78L260.32,229.35L259.45,229.35L258.59,234.92L257.72,229.35L256.85,240.48L255.98,223.78L255.11,246.05L254.25,246.05L253.38,246.05L252.51,234.92L251.64,240.48L250.78,223.78L249.91,223.78L249.04,234.92L248.17,246.05L247.3,246.05L246.44,240.48L245.57,218.22L244.7,240.48L243.83,240.48L242.97,240.48L242.1,234.92L241.23,229.35L240.36,240.48L239.49,234.92L238.63,246.05L237.76,240.48L236.89,246.05L235.16,234.92L234.29,246.05L233.42,246.05L232.55,240.48L229.95,240.48L229.08,246.05L227.35,246.05L226.48,223.78L225.61,229.35L224.74,240.48L223.88,223.78L223.01,240.48L222.14,234.92L221.27,234.92L220.4,246.05L219.54,240.48L217.8,240.48L216.93,246.05L215.2,234.92L214.33,240.48L213.46,240.48L212.6,212.65L211.73,234.92L210.86,207.08L209.99,240.48L209.12,240.48L206.52,240.48L205.65,246.05L204.79,223.78L203.92,246.05L202.18,234.92L201.31,240.48L200.45,229.35L199.58,234.92L197.84,234.92L196.98,240.48L196.11,234.92L195.24,234.92L194.37,234.92L193.51,246.05L192.64,223.78L191.77,223.78L190.9,240.48L190.03,240.48L189.17,240.48L188.3,234.92L186.56,246.05L185.7,234.92L184.83,234.92L183.96,240.48L183.09,246.05L182.22,240.48L181.36,240.48L180.49,234.92L179.62,240.48L178.75,240.48L177.89,246.05L177.02,234.92L176.15,246.05L175.28,240.48L174.41,246.05L173.55,229.35L171.81,246.05L170.94,234.92L170.08,234.92L169.21,246.05L167.47,234.92L166.61,240.48L163.13,240.48L162.27,223.78L161.4,246.05L160.53,234.92L159.66,240.48L158.8,218.22L157.93,240.48L157.06,234.92L156.19,234.92L155.32,246.05L154.46,240.48L153.59,229.35L152.72,229.35L151.85,240.48L150.99,229.35L150.12,240.48L149.25,229.35L148.38,240.48L147.52,234.92L146.65,246.05L145.78,246.05L144.91,240.48L144.04,246.05L143.18,240.48L142.31,240.48L141.44,223.78L140.57,240.48L139.71,240.48L138.84,229.35L137.97,240.48L137.1,234.92L136.23,240.48L135.37,240.48L134.5,234.92L133.63,240.48L132.76,240.48L131.9,246.05L131.03,234.92L130.16,229.35L129.29,246.05L128.42,240.48L127.56,240.48L125.82,240.48L124.95,234.92L124.09,229.35L123.22,240.48L121.48,229.35L120.62,246.05L119.75,246.05L118.88,234.92L118.01,240.48L117.14,240.48L115.41,240.48L114.54,218.22L113.67,246.05L112.81,234.92L111.07,246.05L110.2,240.48L109.33,246.05L108.47,240.48L107.6,229.35L106.73,229.35L105.86,240.48L105,229.35L104.13,246.05L103.26,246.05L102.39,240.48L101.53,246.05L98.92,246.05L98.05,240.48L97.19,246.05L96.32,240.48L94.58,240.48L93.72,246.05L92.85,240.48L91.98,240.48L91.11,246.05L90.24,246.05L89.38,246.05L88.51,240.48L87.64,246.05L86.77,246.05L85.91,240.48L85.04,246.05L81.57,246.05L80.7,240.48L79.83,246.05L78.96,246.05L74.63,246.05L73.76,240.48L72.02,240.48L71.15,246.05L66.82,246.05L65.95,240.48L65.08,246.05L64.21,246.05L63.34,240.48L62.48,246.05L61.61,240.48L60.74,246.05L53.8,246.05L52.93,240.48L52.06,240.48L51.2,246.05L46.86,246.05L45.99,240.48L45.12,246.05L44.25,246.05L43.39,246.05L42.52,240.48L41.65,246.05L40.78,246.05L24.3,246.05L23.43,240.48L22.56,246.05L21.69,246.05L0,246.05" style="vector-effect: non-scaling-stroke; fill: none; stroke: rgb(0, 0, 0); stroke-opacity: 0; stroke-width: 2px; opacity: 1;"/></g><g class="points"/><g class="text"/></g></g></g><g class="overplot"/><path class="xlines-above crisp" d="M0,0" style="fill: none;"/><path class="ylines-above crisp" d="M0,0" style="fill: none;"/><g class="overlines-above"/><g class="xaxislayer-above"><g class="xtick"><text text-anchor="middle" x="0" y="272" transform="translate(122.2,0)" style="font-family: 'Latin Modern Roman'; font-size: 12px; fill: rgb(0, 0, 0); fill-opacity: 1; white-space: pre;">10M</text></g><g class="xtick"><text text-anchor="middle" x="0" y="272" transform="translate(207.28,0)" style="font-family: 'Latin Modern Roman'; font-size: 12px; fill: rgb(0, 0, 0); fill-opacity: 1; white-space: pre;">20M</text></g><g class="xtick"><text text-anchor="middle" x="0" y="272" transform="translate(292.35,0)" style="font-family: 'Latin Modern Roman'; font-size: 12px; fill: rgb(0, 0, 0); fill-opacity: 1; white-space: pre;">30M</text></g><g class="xtick"><text text-anchor="middle" x="0" y="272" transform="translate(377.42,0)" style="font-family: 'Latin Modern Roman'; font-size: 12px; fill: rgb(0, 0, 0); fill-opacity: 1; white-space: pre;">40M</text></g><g class="xtick"><text text-anchor="middle" x="0" y="272" transform="translate(462.49,0)" style="font-family: 'Latin Modern Roman'; font-size: 12px; fill: rgb(0, 0, 0); fill-opacity: 1; white-space: pre;">50M</text></g></g><g class="yaxislayer-above"><g class="ytick"><text text-anchor="end" x="37" y="4.199999999999999" transform="translate(0,246.05)" style="font-family: 'Latin Modern Roman'; font-size: 12px; fill: rgb(0, 0, 0); fill-opacity: 1; white-space: pre;">0</text></g><g class="ytick"><text text-anchor="end" x="37" y="4.199999999999999" transform="translate(0,190.38)" style="font-family: 'Latin Modern Roman'; font-size: 12px; fill: rgb(0, 0, 0); fill-opacity: 1; white-space: pre;">10</text></g><g class="ytick"><text text-anchor="end" x="37" y="4.199999999999999" transform="translate(0,134.72)" style="font-family: 'Latin Modern Roman'; font-size: 12px; fill: rgb(0, 0, 0); fill-opacity: 1; white-space: pre;">20</text></g><g class="ytick"><text text-anchor="end" x="37" y="4.199999999999999" transform="translate(0,79.05)" style="font-family: 'Latin Modern Roman'; font-size: 12px; fill: rgb(0, 0, 0); fill-opacity: 1; white-space: pre;">30</text></g><g class="ytick"><text text-anchor="end" x="37" y="4.199999999999999" transform="translate(0,23.39)" style="font-family: 'Latin Modern Roman'; font-size: 12px; fill: rgb(0, 0, 0); fill-opacity: 1; white-space: pre;">40</text></g></g><g class="overaxes-above"/></g></g><g class="polarlayer"/><g class="ternarylayer"/><g class="geolayer"/><g class="funnelarealayer"/><g class="pielayer"/><g class="treemaplayer"/><g class="sunburstlayer"/><g class="glimages"/><defs id="topdefs-7ab597"><g class="clips"/><clipPath id="legend7ab597"><rect width="120" height="48" x="0" y="0"/></clipPath></defs><g class="layer-above"><g class="imagelayer"/><g class="shapelayer"/></g><g class="infolayer"><g class="legend" pointer-events="all" transform="translate(479.66,0)"><rect class="bg" shape-rendering="crispEdges" style="stroke: rgb(68, 68, 68); stroke-opacity: 1; fill: rgb(255, 255, 255); fill-opacity: 1; stroke-width: 0px;" width="120" height="48" x="0" y="0"/><g class="scrollbox" transform="" clip-path="url('#legend7ab597')"><g class="groups"><g class="traces" transform="translate(0,14.5)" style="opacity: 1;"><text class="legendtext" text-anchor="start" x="40" y="4.680000000000001" style="font-family: 'Latin Modern Roman'; font-size: 12px; fill: rgb(0, 0, 0); fill-opacity: 1; white-space: pre;"> only (n=40)</text><g class="layers" style="opacity: 1;"><g class="legendfill"/><g class="legendlines"><path class="js-line" d="M5,0h30" style="fill: none; stroke: rgb(99, 110, 250); stroke-opacity: 1; stroke-width: 2px;"/></g><g class="legendsymbols"><g class="legendpoints"/></g></g><rect class="legendtoggle" x="0" y="-9.5" width="114.125" height="19" style="fill: rgb(0, 0, 0); fill-opacity: 0;"/></g><g class="traces" transform="translate(0,33.5)" style="opacity: 1;"><text class="legendtext" text-anchor="start" x="40" y="4.680000000000001" style="font-family: 'Latin Modern Roman'; font-size: 12px; fill: rgb(0, 0, 0); fill-opacity: 1; white-space: pre;">+ (n=5)</text><g class="layers" style="opacity: 1;"><g class="legendfill"/><g class="legendlines"><path class="js-line" d="M5,0h30" style="fill: none; stroke: rgb(239, 85, 59); stroke-opacity: 1; stroke-width: 2px;"/></g><g class="legendsymbols"><g class="legendpoints"/></g></g><rect class="legendtoggle" x="0" y="-9.5" width="114.125" height="19" style="fill: rgb(0, 0, 0); fill-opacity: 0;"/></g></g></g><rect class="scrollbar" rx="20" ry="3" width="0" height="0" style="fill: rgb(128, 139, 164); fill-opacity: 1;" x="0" y="0"/></g><g class="g-gtitle"/><g class="g-xtitle" transform="translate(0,-3.8000000000000114)"><text class="xtitle" x="254.5" y="299.8" text-anchor="middle" style="font-family: 'Latin Modern Roman'; font-size: 14px; fill: rgb(0, 0, 0); opacity: 1; font-weight: normal; white-space: pre;">Agent Steps</text></g><g class="g-ytitle" transform="translate(15.8154296875,0)"><text class="ytitle" transform="rotate(-90,0.18437500000000284,129.5)" x="0.18437500000000284" y="129.5" text-anchor="middle" style="font-family: 'Latin Modern Roman'; font-size: 14px; fill: rgb(0, 0, 0); opacity: 1; font-weight: normal; white-space: pre;">Avg. Reward</text></g></g></svg>