<svg class="main-svg" xmlns="http://www.w3.org/2000/svg" xmlns:xlink="http://www.w3.org/1999/xlink" width="600" height="300" style="" viewBox="0 0 600 300"><rect x="0" y="0" width="600" height="300" style="fill: rgb(255, 255, 255); fill-opacity: 1;"/><defs id="defs-f4ed1e"><g class="clips"><clipPath id="clipf4ed1exyplot" class="plotclip"><rect width="361" height="259"/></clipPath><clipPath class="axesclip" id="clipf4ed1ex"><rect x="38" y="0" width="361" height="300"/></clipPath><clipPath class="axesclip" id="clipf4ed1ey"><rect x="0" y="0" width="600" height="259"/></clipPath><clipPath class="axesclip" id="clipf4ed1exy"><rect x="38" y="0" width="361" height="259"/></clipPath></g><g class="gradients"/></defs><g class="bglayer"><rect class="bg" x="38" y="0" width="361" height="259" style="fill: rgb(229, 236, 246); fill-opacity: 1; stroke-width: 0;"/></g><g class="layer-below"><g class="imagelayer"/><g class="shapelayer"/></g><g class="cartesianlayer"><g class="subplot xy"><g class="layer-subplot"><g class="shapelayer"/><g class="imagelayer"/></g><g class="gridlayer"><g class="x"><path class="xgrid crisp" transform="translate(108.2,0)" d="M0,0v259" style="stroke: rgb(255, 255, 255); stroke-opacity: 1; stroke-width: 1px;"/><path class="xgrid crisp" transform="translate(179.13,0)" d="M0,0v259" style="stroke: rgb(255, 255, 255); stroke-opacity: 1; stroke-width: 1px;"/><path class="xgrid crisp" transform="translate(250.06,0)" d="M0,0v259" style="stroke: rgb(255, 255, 255); stroke-opacity: 1; stroke-width: 1px;"/><path class="xgrid crisp" transform="translate(320.98,0)" d="M0,0v259" style="stroke: rgb(255, 255, 255); stroke-opacity: 1; stroke-width: 1px;"/><path class="xgrid crisp" transform="translate(391.91,0)" d="M0,0v259" style="stroke: rgb(255, 255, 255); stroke-opacity: 1; stroke-width: 1px;"/></g><g class="y"><path class="ygrid crisp" transform="translate(0,204.2)" d="M38,0h361" style="stroke: rgb(255, 255, 255); stroke-opacity: 1; stroke-width: 1px;"/><path class="ygrid crisp" transform="translate(0,161.39)" d="M38,0h361" style="stroke: rgb(255, 255, 255); stroke-opacity: 1; stroke-width: 1px;"/><path class="ygrid crisp" transform="translate(0,118.58)" d="M38,0h361" style="stroke: rgb(255, 255, 255); stroke-opacity: 1; stroke-width: 1px;"/><path class="ygrid crisp" transform="translate(0,75.77)" d="M38,0h361" style="stroke: rgb(255, 255, 255); stroke-opacity: 1; stroke-width: 1px;"/><path class="ygrid crisp" transform="translate(0,32.96)" d="M38,0h361" style="stroke: rgb(255, 255, 255); stroke-opacity: 1; stroke-width: 1px;"/></g></g><g class="zerolinelayer"><path class="yzl zl crisp" transform="translate(0,247.01)" d="M38,0h361" style="stroke: rgb(255, 255, 255); stroke-opacity: 1; stroke-width: 2px;"/></g><path class="xlines-below"/><path class="ylines-below"/><g class="overlines-below"/><g class="xaxislayer-below"/><g class="yaxislayer-below"/><g class="overaxes-below"/><g class="plot" transform="translate(38,0)" clip-path="url('#clipf4ed1exyplot')"><g class="scatterlayer mlayer"><g class="trace scatter tracecca67b" style="stroke-miterlimit: 2; opacity: 1;"><g class="fills"/><g class="errorbars"/><g class="lines"><path class="js-line" d="M0,245.51L3.62,245.3L4.34,244.44L5.06,244.23L5.79,242.3L6.51,242.73L7.23,244.66L7.96,244.66L8.68,241.23L9.4,241.66L10.13,233.74L10.85,236.31L11.58,235.03L13.02,224.97L13.75,232.24L14.47,232.46L15.19,235.45L15.92,232.03L16.64,221.54L17.36,222.83L18.09,220.26L18.81,223.9L19.53,218.97L20.26,217.26L20.98,225.39L22.43,220.47L23.15,208.48L24.6,196.5L25.32,198L26.04,205.06L26.77,224.75L27.49,219.61L28.21,224.54L29.66,217.9L30.38,209.13L31.11,212.55L31.83,209.13L34,190.08L34.73,190.93L36.17,171.67L36.9,183.23L37.62,182.16L38.34,172.74L39.07,176.8L39.79,168.46L40.51,172.95L41.24,168.46L43.41,156.04L44.13,161.39L46.3,149.83L47.02,155.61L48.47,140.42L49.19,135.71L49.92,132.92L50.64,135.49L51.36,139.99L52.09,138.92L52.81,139.35L53.54,133.78L54.26,122.01L54.98,125L55.71,121.15L56.43,128.43L57.15,117.94L57.88,125.22L59.32,115.8L60.05,125.65L60.77,119.23L61.49,121.37L62.22,112.38L62.94,115.37L63.66,116.87L64.39,112.16L65.11,114.73L65.83,108.95L66.56,116.44L67.28,108.74L68,109.38L68.73,108.31L69.45,99.32L70.17,107.02L70.9,102.74L71.62,106.6L72.34,95.68L73.07,108.74L73.79,92.9L74.52,98.68L75.24,105.95L75.96,102.96L77.41,95.68L78.13,101.25L78.86,105.1L79.58,95.25L81.03,108.95L81.75,97.39L82.47,106.81L83.2,102.1L84.64,93.33L85.37,104.88L86.09,96.11L86.81,97.82L87.54,103.17L88.26,100.6L88.98,99.1L89.71,101.03L91.15,99.53L91.88,96.54L92.6,97.82L93.32,101.46L94.05,88.19L94.77,99.1L98.39,77.06L99.11,84.98L99.84,84.55L100.56,79.84L101.28,85.41L102.01,80.27L102.73,90.54L103.45,82.2L104.18,82.84L104.9,89.47L105.62,79.2L106.35,93.33L107.07,77.27L107.79,80.91L108.52,88.83L109.24,82.84L109.96,83.05L110.69,86.69L111.41,82.62L112.13,84.76L112.86,89.9L113.58,75.99L114.3,87.55L115.03,75.77L115.75,83.27L116.47,77.06L117.2,78.13L117.92,86.26L118.65,66.57L119.37,74.28L120.09,85.83L120.82,77.7L122.26,74.92L122.99,81.12L123.71,69.99L124.43,84.55L125.16,83.05L125.88,77.06L127.33,81.12L128.05,80.05L128.77,73.63L129.5,75.13L130.22,76.42L130.94,71.92L131.67,72.99L132.39,72.35L133.11,70.64L133.84,70.85L134.56,67.64L135.28,69.57L136.01,73.2L136.73,69.35L137.45,72.13L138.18,66.78L138.9,74.49L139.63,72.78L140.35,75.35L141.07,68.07L141.8,65.5L142.52,76.63L143.24,65.07L143.97,78.56L144.69,66.78L145.41,71.06L146.14,67.43L146.86,68.92L147.58,58.86L148.31,63.36L149.75,64.21L150.48,59.72L151.2,67.21L151.92,63.14L154.09,59.08L154.82,62.29L155.54,60.36L156.26,64.64L156.99,59.93L157.71,61.22L158.43,58.86L159.16,59.72L159.88,62.5L160.61,59.72L162.05,67L162.78,63.79L163.5,60.79L164.22,64.43L164.95,63.14L165.67,59.51L166.39,58.44L167.12,59.29L168.56,71.92L169.29,70.64L170.73,67.21L171.46,67.64L172.9,59.93L173.63,60.79L174.35,63.14L175.07,68.71L175.8,66.78L176.52,69.57L178.69,64L179.41,65.93L180.14,58.65L180.86,72.56L182.31,66.57L183.03,69.14L183.76,58.44L184.48,59.72L185.2,59.29L185.93,67L186.65,70.85L187.37,54.58L188.1,63.79L188.82,57.15L190.27,62.29L190.99,53.08L191.71,54.37L192.44,58.01L193.16,59.72L193.88,68.07L194.61,69.35L195.33,61.43L196.78,62.93L197.5,74.49L198.22,61.65L198.95,65.5L200.39,61.43L201.12,65.07L202.57,50.94L203.29,66.57L204.01,63.36L204.74,64.64L205.46,67.64L206.18,65.5L206.91,66.57L207.63,50.52L208.35,59.93L209.08,56.3L209.8,49.87L210.52,56.72L211.25,60.36L211.97,58.01L212.69,64.64L213.42,56.51L214.86,65.5L215.59,67.43L216.31,59.29L217.03,69.78L217.76,57.15L218.48,65.29L219.2,67.21L219.93,54.37L221.37,65.93L222.1,60.79L222.82,64.43L223.55,61.86L224.27,60.79L224.99,65.5L225.72,60.15L226.44,63.14L227.16,64.86L227.89,63.57L228.61,63.14L229.33,55.44L230.78,66.57L231.5,64.64L232.23,68.92L232.95,61.86L233.67,59.93L234.4,63.79L235.12,59.29L235.84,61.65L237.29,62.5L238.01,64.64L238.74,60.58L239.46,65.29L240.18,59.72L240.91,63.36L241.63,65.07L242.35,59.93L243.08,65.5L243.8,58.65L244.53,66.78L245.25,63.57L245.97,61L246.7,51.37L248.14,68.92L248.87,54.8L249.59,55.01L250.31,62.93L251.04,63.79L251.76,67.21L252.48,69.14L253.21,68.5L253.93,57.79L254.65,60.79L256.1,70.21L256.82,60.36L257.55,66.36L258.27,60.15L258.99,69.99L259.72,67.43L261.16,62.5L261.89,59.51L262.61,59.08L263.33,62.5L264.78,58.86L265.51,68.07L266.95,61.86L267.68,62.5L268.4,65.71L269.12,62.93L270.57,72.78L271.29,63.57L272.02,70.64L272.74,65.29L273.46,67.64L274.19,66.36L274.91,70.42L275.63,66.36L276.36,64.86L277.08,70.21L277.8,68.07L278.53,76.42L279.25,67.43L279.97,74.92L280.7,66.36L281.42,69.99L282.14,68.5L282.87,62.29L284.31,73.2L285.04,72.13L285.76,65.29L286.48,68.5L287.93,70.64L288.66,71.92L290.1,66.57L290.83,72.78L291.55,68.07L292.27,75.99L293,61.86L293.72,68.07L294.44,68.92L295.17,66.57L295.89,62.29L296.61,66.36L297.34,64L298.06,66.78L298.78,62.07L299.51,65.93L300.23,73.42L300.95,69.35L301.68,62.5L302.4,72.99L306.02,62.93L306.74,58.65L308.19,66.36L308.91,64.43L309.64,66.36L310.36,64.21L311.08,62.72L311.81,64.43L313.98,68.5L314.7,68.5L315.42,65.93L316.15,69.99L317.59,68.07L318.32,60.36L319.04,70.64L319.76,64.43L320.49,66.78L321.21,64.43L321.93,69.57L322.66,64.21L323.38,64.21L324.1,65.93L324.83,62.93L325.55,65.93L326.27,72.78L327,60.79L327.72,63.57L328.44,63.14L329.17,70.21L329.89,65.71L331.34,65.29L332.06,63.57L332.79,73.2L333.51,66.57L334.96,68.07L335.68,69.78L337.13,71.49L337.85,68.07L338.57,63.79L339.3,69.57L340.74,58.01L341.47,72.35L342.19,62.72L342.91,68.71L343.64,66.14L344.36,67.64L345.08,73.2L345.81,72.78L347.25,63.36L347.98,68.28L348.7,67.64L349.42,57.58L350.15,60.36L350.87,69.78L351.6,69.99L352.32,58.01L353.77,61.22L354.49,61.43L355.21,60.15L355.94,64.43L357.38,66.57L358.11,71.92L358.83,73.2L359.55,61.65L360.28,66.36L361,62.07" style="vector-effect: non-scaling-stroke; fill: none; stroke: rgb(99, 110, 250); stroke-opacity: 1; stroke-width: 2px; opacity: 1;"/></g><g class="points"/><g class="text"/></g><g class="trace scatter trace761f19" style="stroke-miterlimit: 2; opacity: 1;"><g class="fills"><g><path class="js-fill" d="M0,245.3L2.17,243.59L2.89,244.66L4.34,238.88L5.06,240.81L5.79,232.03L6.51,234.6L7.23,235.24L7.96,234.6L9.4,216.62L10.13,218.97L10.85,218.97L11.58,211.48L12.3,211.48L13.02,197.35L13.75,196.5L14.47,202.06L15.19,208.06L15.92,207.63L17.36,198L18.09,189.86L18.81,196.07L19.53,191.36L20.26,197.14L20.98,195.43L21.7,203.78L22.43,191.36L23.15,186.44L23.87,168.89L25.32,166.74L26.04,175.73L26.77,179.37L27.49,176.8L28.94,157.54L29.66,161.82L30.38,165.25L31.11,154.33L33.28,167.6L34,151.55L35.45,158.4L36.17,138.28L36.9,138.7L37.62,119.23L39.07,135.07L39.79,129.93L40.51,128L41.24,128.86L41.96,125.86L42.68,132.28L43.41,115.8L44.13,125L44.85,114.73L45.58,116.44L46.3,135.71L47.02,122.01L47.75,128.43L48.47,121.37L49.19,127.36L49.92,120.3L50.64,114.3L51.36,125.65L52.09,115.8L52.81,121.58L53.54,101.67L54.26,112.16L54.98,107.88L55.71,110.45L56.43,121.37L57.15,107.24L57.88,115.59L58.6,112.38L59.32,108.52L60.05,108.95L60.77,114.09L61.49,108.74L62.22,106.81L62.94,107.88L63.66,96.96L64.39,101.46L65.11,98.68L65.83,92.26L66.56,90.11L67.28,91.83L68.73,88.83L69.45,82.62L70.17,79.84L70.9,85.41L71.62,78.34L72.34,83.91L73.07,76.63L73.79,88.83L75.24,79.2L75.96,89.26L76.69,79.63L77.41,80.91L78.13,78.13L78.86,81.34L79.58,75.56L80.3,77.7L81.03,75.13L81.75,83.91L83.2,78.98L83.92,85.83L84.64,76.84L85.37,80.27L86.09,89.47L86.81,82.84L87.54,90.76L88.26,80.48L88.98,88.62L89.71,81.55L90.43,80.7L91.15,81.77L91.88,74.7L92.6,75.56L93.32,80.05L94.05,68.07L94.77,65.93L95.49,76.42L96.22,72.78L96.94,63.57L97.67,71.92L98.39,68.5L99.11,66.57L99.84,72.99L100.56,62.07L101.28,67.21L102.01,62.72L102.73,64.43L103.45,56.08L104.18,70.42L104.9,57.15L105.62,60.79L106.35,71.71L107.07,69.57L107.79,54.15L108.52,59.72L109.24,68.5L109.96,56.51L110.69,56.3L111.41,57.15L112.13,72.13L112.86,58.44L113.58,63.14L114.3,56.08L115.03,53.08L115.75,53.51L116.47,60.58L117.2,60.36L117.92,63.14L118.65,56.08L119.37,67.43L120.09,60.15L120.82,69.35L122.26,55.22L122.99,64.64L124.43,64.21L125.16,55.01L126.6,65.29L127.33,63.14L128.05,53.3L128.77,56.51L129.5,68.92L130.22,65.5L130.94,64.43L131.67,69.14L132.39,66.78L133.11,61.65L133.84,66.14L134.56,55.87L135.28,56.94L136.01,63.57L138.18,55.65L138.9,67.21L140.35,47.52L141.07,59.93L141.8,56.72L142.52,58.86L143.24,58.65L143.97,52.66L144.69,51.16L145.41,63.36L146.86,54.8L147.58,56.08L148.31,52.66L149.03,53.08L149.75,53.3L150.48,55.01L151.2,55.87L151.92,52.01L152.65,47.3L153.37,55.01L154.09,53.08L154.82,56.3L155.54,46.45L156.26,48.38L156.99,50.73L157.71,46.45L158.43,56.51L159.16,50.3L159.88,49.66L160.61,55.44L162.05,47.52L162.78,49.66L163.5,43.24L164.22,47.09L164.95,52.01L165.67,48.59L167.12,43.67L167.84,48.16L168.56,59.29L169.29,43.88L170.01,52.87L170.73,52.66L171.46,52.44L172.9,45.81L173.63,48.38L175.07,53.94L175.8,55.01L177.24,46.45L177.97,49.66L178.69,51.16L179.41,47.52L181.59,55.22L182.31,49.87L183.03,46.02L183.76,47.95L184.48,42.81L185.2,52.23L185.93,54.8L186.65,43.88L187.37,39.81L188.1,50.09L188.82,46.45L189.54,49.66L190.27,47.73L190.99,50.3L192.44,51.37L193.16,36.82L193.88,41.74L194.61,38.53L195.33,47.09L196.05,43.45L196.78,48.8L197.5,44.74L198.22,49.23L198.95,43.02L199.67,49.87L200.39,42.38L201.84,43.24L202.57,49.87L204.01,46.02L204.74,49.87L206.18,41.31L206.91,46.02L207.63,42.38L208.35,46.88L209.08,40.03L209.8,42.17L210.52,43.88L211.25,49.66L211.97,52.44L212.69,46.88L214.14,38.74L214.86,43.45L215.59,44.95L216.31,48.59L217.03,39.6L217.76,46.23L219.2,39.6L219.93,45.16L220.65,47.52L221.37,47.3L222.1,47.73L222.82,53.3L223.55,46.45L224.27,50.94L224.99,41.53L225.72,44.74L227.16,40.88L227.89,47.73L228.61,43.45L229.33,44.95L230.06,38.31L230.78,50.73L231.5,40.88L232.23,45.81L232.95,47.09L233.67,43.67L234.4,40.67L235.12,45.38L235.84,48.16L236.57,41.74L237.29,52.87L238.01,45.38L239.46,41.74L240.18,51.37L240.91,41.74L241.63,49.87L242.35,48.59L243.08,49.23L243.8,35.53L244.53,47.95L245.97,39.6L246.7,45.59L248.14,49.87L248.87,46.66L249.59,38.53L250.31,52.66L251.04,41.95L251.76,43.02L252.48,36.82L253.21,38.74L253.93,40.24L254.65,47.95L255.38,44.52L256.1,50.52L258.27,37.67L258.99,35.96L261.16,46.88L261.89,44.95L262.61,45.16L263.33,42.6L264.06,37.46L264.78,44.52L265.51,45.16L266.23,52.23L266.95,40.24L267.68,44.95L269.85,35.96L270.57,38.74L271.29,42.6L272.02,38.31L273.46,44.09L274.19,41.53L274.91,49.87L275.63,35.1L276.36,41.53L277.08,41.1L277.8,31.47L278.53,42.38L279.25,42.81L279.97,36.6L280.7,43.67L281.42,42.81L282.14,35.1L282.87,46.02L283.59,35.75L284.31,46.23L285.04,41.74L285.76,50.3L287.21,38.53L287.93,41.95L288.66,41.74L289.38,49.66L290.1,47.3L290.83,41.53L291.55,43.88L292.27,39.39L293.72,47.73L294.44,38.53L295.17,34.03L295.89,42.6L296.61,43.02L297.34,47.09L298.78,40.24L299.51,35.32L300.23,36.39L300.95,41.74L301.68,42.38L302.4,44.95L303.85,38.31L304.57,40.46L305.29,41.53L306.02,33.61L306.74,34.68L307.46,47.3L308.19,37.89L308.91,42.17L309.64,43.45L310.36,51.37L311.08,41.74L311.81,42.38L312.53,44.09L313.25,40.24L313.98,44.74L314.7,40.88L315.42,47.95L316.15,36.39L317.59,46.02L318.32,41.1L319.04,47.3L319.76,47.09L320.49,40.88L321.21,52.44L321.93,37.46L323.38,44.74L324.1,40.67L324.83,44.52L325.55,40.03L326.27,40.24L327,29.32L328.44,48.16L329.17,45.16L329.89,49.87L330.62,48.16L331.34,36.6L332.06,46.66L332.79,37.67L333.51,47.95L334.23,53.51L334.96,52.01L335.68,43.02L336.4,43.88L337.13,46.88L337.85,41.1L339.3,41.31L340.02,38.96L340.74,48.38L341.47,46.88L342.19,53.51L342.91,40.46L343.64,47.09L344.36,44.52L345.08,53.08L345.81,45.16L346.53,46.02L347.25,48.8L347.98,35.96L348.7,47.52L349.42,46.45L350.15,49.45L350.87,40.67L351.6,50.3L352.32,41.31L353.04,50.09L353.77,47.95L354.49,50.3L355.21,52.01L355.94,41.31L356.66,40.67L357.38,56.3L358.11,51.59L358.83,52.66L359.55,55.87L360.28,55.65L361,38.96L361,78.34L360.28,75.99L359.55,70.64L358.83,80.7L358.11,76.84L357.38,75.13L356.66,78.13L355.94,76.84L355.21,77.27L354.49,80.91L353.77,74.06L353.04,77.06L352.32,74.28L351.6,76.84L350.87,73.2L350.15,77.49L349.42,71.49L348.7,75.99L347.98,85.83L347.25,75.77L346.53,78.77L345.08,82.2L344.36,75.13L343.64,79.63L342.91,78.77L342.19,82.2L341.47,81.98L340.74,74.49L340.02,74.06L339.3,79.63L338.57,72.78L337.85,74.28L337.13,83.48L336.4,78.56L335.68,77.06L334.96,77.91L334.23,78.56L333.51,73.42L332.79,80.27L332.06,77.49L331.34,80.7L330.62,72.13L329.89,83.05L329.17,79.41L328.44,74.7L327.72,77.06L327,73.85L326.27,76.63L325.55,69.99L324.83,74.7L324.1,79.2L323.38,76.84L322.66,74.28L321.93,74.49L321.21,82.84L320.49,80.91L318.32,72.13L317.59,72.35L316.87,74.49L316.15,79.41L315.42,69.57L314.7,73.2L313.98,76.2L313.25,74.28L312.53,78.13L311.81,75.35L310.36,78.98L309.64,75.13L308.19,71.92L307.46,80.48L306.74,71.71L306.02,83.69L304.57,74.28L303.85,80.7L303.12,77.91L302.4,78.13L301.68,68.07L300.95,77.49L300.23,78.34L299.51,71.28L298.78,78.98L298.06,72.13L297.34,74.7L296.61,83.05L295.89,70.85L295.17,73.85L294.44,74.28L293.72,72.78L293,73.85L292.27,77.49L291.55,73.85L290.83,80.48L290.1,75.99L289.38,77.06L287.93,81.77L287.21,75.77L286.48,78.98L285.76,73.42L285.04,80.27L284.31,76.2L283.59,76.84L282.87,81.34L282.14,79.41L281.42,72.35L279.97,85.19L279.25,75.13L277.8,85.62L277.08,79.84L276.36,74.49L275.63,75.77L274.91,80.05L274.19,73.42L272.02,81.12L271.29,74.92L270.57,80.27L269.85,76.2L269.12,69.35L268.4,80.05L266.95,76.42L266.23,78.98L264.78,75.99L264.06,70.85L263.33,73.63L262.61,73.42L261.89,72.56L261.16,77.91L260.44,69.57L258.99,76.42L258.27,72.56L257.55,75.13L256.82,74.28L256.1,78.13L255.38,73.2L254.65,71.28L253.93,74.06L253.21,71.28L252.48,74.7L251.76,71.49L251.04,86.9L250.31,86.9L249.59,76.63L248.87,71.49L248.14,77.06L247.42,79.63L246.7,76.2L245.97,70.64L245.25,75.56L244.53,78.56L243.8,75.99L243.08,73.85L242.35,74.7L241.63,83.05L240.91,71.49L239.46,70.21L238.74,71.28L238.01,69.78L237.29,75.13L236.57,77.7L235.84,71.49L234.4,80.27L233.67,72.35L232.23,82.62L231.5,79.63L230.78,80.05L230.06,77.91L229.33,79.63L228.61,88.19L227.89,84.76L227.16,75.13L225.72,71.92L224.99,82.2L224.27,84.98L223.55,76.63L222.82,81.77L222.1,71.49L221.37,82.62L220.65,77.49L219.93,77.49L219.2,80.05L218.48,78.13L217.76,72.99L217.03,72.99L216.31,80.7L215.59,83.91L214.86,77.91L214.14,78.77L213.42,71.92L211.97,87.33L211.25,78.56L210.52,73.63L209.8,78.98L209.08,76.63L208.35,77.7L207.63,72.35L206.91,76.2L206.18,74.28L205.46,78.13L204.74,84.12L204.01,83.91L203.29,78.56L201.84,87.12L201.12,84.98L199.67,81.12L198.95,83.05L198.22,78.56L197.5,83.05L196.78,86.48L196.05,80.05L195.33,77.49L194.61,85.62L193.88,84.76L193.16,81.12L192.44,79.2L191.71,86.69L190.99,82.84L190.27,85.41L189.54,84.76L188.82,80.7L187.37,78.56L186.65,81.34L185.93,80.7L185.2,78.34L184.48,77.06L183.76,73.42L183.03,80.27L182.31,76.84L181.59,73.85L180.86,75.99L180.14,75.13L179.41,77.27L178.69,72.99L177.97,75.77L177.24,72.13L176.52,78.13L175.8,75.77L175.07,81.98L174.35,77.7L173.63,84.55L172.9,75.77L172.18,78.56L171.46,78.98L170.73,87.76L170.01,76.2L169.29,81.12L168.56,83.05L167.84,81.77L167.12,79.2L166.39,81.98L165.67,90.76L164.95,83.05L163.5,83.91L162.78,78.98L162.05,84.76L161.33,83.27L160.61,82.41L159.88,79.63L159.16,86.48L158.43,81.12L157.71,80.48L156.99,85.62L156.26,78.56L155.54,85.19L154.82,78.13L154.09,85.62L153.37,84.12L152.65,80.27L151.92,82.2L151.2,87.55L150.48,77.27L149.75,77.91L149.03,82.84L148.31,80.7L147.58,86.69L146.86,81.12L146.14,87.97L145.41,81.77L144.69,81.77L143.97,83.69L143.24,83.05L142.52,86.69L141.8,87.97L141.07,87.33L140.35,84.76L139.63,87.12L138.9,92.47L138.18,80.05L137.45,90.76L136.73,80.48L136.01,90.76L135.28,83.27L134.56,84.76L133.84,83.69L133.11,91.61L132.39,86.26L131.67,82.41L130.94,88.62L130.22,84.98L129.5,90.33L128.05,85.62L127.33,93.97L125.88,87.33L125.16,86.26L124.43,93.97L123.71,90.33L122.99,88.19L122.26,90.97L121.54,81.77L120.82,84.34L120.09,96.11L119.37,89.69L117.92,98.25L117.2,98.89L115.75,91.61L115.03,108.74L114.3,92.26L113.58,102.1L112.86,95.68L112.13,100.82L111.41,101.25L110.69,98.03L109.96,97.82L109.24,103.81L108.52,102.96L107.79,99.75L107.07,96.32L106.35,99.53L104.9,102.53L104.18,101.46L103.45,103.17L102.73,107.45L101.28,111.52L100.56,110.88L99.84,109.81L99.11,114.94L98.39,117.09L97.67,123.93L96.22,113.45L95.49,118.58L94.77,118.16L94.05,116.23L93.32,125.65L92.6,118.37L91.88,115.59L91.15,125L89.71,126.08L88.98,122.86L88.26,120.3L87.54,121.15L86.81,125.43L86.09,123.51L85.37,126.29L84.64,124.58L83.92,127.36L83.2,126.08L81.75,118.58L81.03,124.15L80.3,133.78L79.58,123.08L78.86,130.14L78.13,117.09L77.41,124.15L76.69,116.87L75.96,120.72L75.24,114.3L73.79,132.07L73.07,112.16L72.34,123.51L71.62,116.44L70.9,124.36L70.17,117.09L68.73,126.5L68,120.3L67.28,120.72L66.56,123.93L65.83,119.65L65.11,123.29L64.39,115.37L63.66,122.44L62.94,124.15L62.22,130.14L61.49,128.64L60.77,133.35L59.32,136.56L58.6,151.55L57.15,148.55L56.43,143.41L54.98,182.16L54.26,177.02L52.81,162.46L52.09,165.46L51.36,160.32L50.64,161.39L49.19,189.86L48.47,179.16L47.75,186.01L47.02,182.8L45.58,190.93L44.85,180.66L43.41,204.42L42.68,199.28L41.96,203.56L41.24,201.21L40.51,205.27L39.79,214.69L39.07,221.54L38.34,210.62L37.62,216.19L36.9,212.12L36.17,194.14L35.45,203.99L32.56,232.89L31.83,232.89L30.38,223.47L29.66,222.83L26.77,239.52L26.04,243.37L25.32,244.87L24.6,243.37L23.15,244.44L22.43,244.66L21.7,243.37L20.98,244.23L19.53,244.02L18.81,245.09L17.36,245.51L16.64,245.09L15.92,244.23L15.19,245.3L12.3,244.66L11.58,245.3L10.85,244.23L10.13,245.09L9.4,244.87L8.68,245.51L7.96,245.09L7.23,245.73L5.79,244.87L5.06,244.87L2.89,245.73L2.17,245.51L0,245.73Z" style="fill: rgb(99, 110, 250); fill-opacity: 0.3; stroke-width: 0;"/></g></g><g class="errorbars"/><g class="lines"><path class="js-line" d="M0,245.3L2.17,243.59L2.89,244.66L4.34,238.88L5.06,240.81L5.79,232.03L6.51,234.6L7.23,235.24L7.96,234.6L9.4,216.62L10.13,218.97L10.85,218.97L11.58,211.48L12.3,211.48L13.02,197.35L13.75,196.5L14.47,202.06L15.19,208.06L15.92,207.63L17.36,198L18.09,189.86L18.81,196.07L19.53,191.36L20.26,197.14L20.98,195.43L21.7,203.78L22.43,191.36L23.15,186.44L23.87,168.89L25.32,166.74L26.04,175.73L26.77,179.37L27.49,176.8L28.94,157.54L29.66,161.82L30.38,165.25L31.11,154.33L33.28,167.6L34,151.55L35.45,158.4L36.17,138.28L36.9,138.7L37.62,119.23L39.07,135.07L39.79,129.93L40.51,128L41.24,128.86L41.96,125.86L42.68,132.28L43.41,115.8L44.13,125L44.85,114.73L45.58,116.44L46.3,135.71L47.02,122.01L47.75,128.43L48.47,121.37L49.19,127.36L49.92,120.3L50.64,114.3L51.36,125.65L52.09,115.8L52.81,121.58L53.54,101.67L54.26,112.16L54.98,107.88L55.71,110.45L56.43,121.37L57.15,107.24L57.88,115.59L58.6,112.38L59.32,108.52L60.05,108.95L60.77,114.09L61.49,108.74L62.22,106.81L62.94,107.88L63.66,96.96L64.39,101.46L65.11,98.68L65.83,92.26L66.56,90.11L67.28,91.83L68.73,88.83L69.45,82.62L70.17,79.84L70.9,85.41L71.62,78.34L72.34,83.91L73.07,76.63L73.79,88.83L75.24,79.2L75.96,89.26L76.69,79.63L77.41,80.91L78.13,78.13L78.86,81.34L79.58,75.56L80.3,77.7L81.03,75.13L81.75,83.91L83.2,78.98L83.92,85.83L84.64,76.84L85.37,80.27L86.09,89.47L86.81,82.84L87.54,90.76L88.26,80.48L88.98,88.62L89.71,81.55L90.43,80.7L91.15,81.77L91.88,74.7L92.6,75.56L93.32,80.05L94.05,68.07L94.77,65.93L95.49,76.42L96.22,72.78L96.94,63.57L97.67,71.92L98.39,68.5L99.11,66.57L99.84,72.99L100.56,62.07L101.28,67.21L102.01,62.72L102.73,64.43L103.45,56.08L104.18,70.42L104.9,57.15L105.62,60.79L106.35,71.71L107.07,69.57L107.79,54.15L108.52,59.72L109.24,68.5L109.96,56.51L110.69,56.3L111.41,57.15L112.13,72.13L112.86,58.44L113.58,63.14L114.3,56.08L115.03,53.08L115.75,53.51L116.47,60.58L117.2,60.36L117.92,63.14L118.65,56.08L119.37,67.43L120.09,60.15L120.82,69.35L122.26,55.22L122.99,64.64L124.43,64.21L125.16,55.01L126.6,65.29L127.33,63.14L128.05,53.3L128.77,56.51L129.5,68.92L130.22,65.5L130.94,64.43L131.67,69.14L132.39,66.78L133.11,61.65L133.84,66.14L134.56,55.87L135.28,56.94L136.01,63.57L138.18,55.65L138.9,67.21L140.35,47.52L141.07,59.93L141.8,56.72L142.52,58.86L143.24,58.65L143.97,52.66L144.69,51.16L145.41,63.36L146.86,54.8L147.58,56.08L148.31,52.66L149.03,53.08L149.75,53.3L150.48,55.01L151.2,55.87L151.92,52.01L152.65,47.3L153.37,55.01L154.09,53.08L154.82,56.3L155.54,46.45L156.26,48.38L156.99,50.73L157.71,46.45L158.43,56.51L159.16,50.3L159.88,49.66L160.61,55.44L162.05,47.52L162.78,49.66L163.5,43.24L164.22,47.09L164.95,52.01L165.67,48.59L167.12,43.67L167.84,48.16L168.56,59.29L169.29,43.88L170.01,52.87L170.73,52.66L171.46,52.44L172.9,45.81L173.63,48.38L175.07,53.94L175.8,55.01L177.24,46.45L177.97,49.66L178.69,51.16L179.41,47.52L181.59,55.22L182.31,49.87L183.03,46.02L183.76,47.95L184.48,42.81L185.2,52.23L185.93,54.8L186.65,43.88L187.37,39.81L188.1,50.09L188.82,46.45L189.54,49.66L190.27,47.73L190.99,50.3L192.44,51.37L193.16,36.82L193.88,41.74L194.61,38.53L195.33,47.09L196.05,43.45L196.78,48.8L197.5,44.74L198.22,49.23L198.95,43.02L199.67,49.87L200.39,42.38L201.84,43.24L202.57,49.87L204.01,46.02L204.74,49.87L206.18,41.31L206.91,46.02L207.63,42.38L208.35,46.88L209.08,40.03L209.8,42.17L210.52,43.88L211.25,49.66L211.97,52.44L212.69,46.88L214.14,38.74L214.86,43.45L215.59,44.95L216.31,48.59L217.03,39.6L217.76,46.23L219.2,39.6L219.93,45.16L220.65,47.52L221.37,47.3L222.1,47.73L222.82,53.3L223.55,46.45L224.27,50.94L224.99,41.53L225.72,44.74L227.16,40.88L227.89,47.73L228.61,43.45L229.33,44.95L230.06,38.31L230.78,50.73L231.5,40.88L232.23,45.81L232.95,47.09L233.67,43.67L234.4,40.67L235.12,45.38L235.84,48.16L236.57,41.74L237.29,52.87L238.01,45.38L239.46,41.74L240.18,51.37L240.91,41.74L241.63,49.87L242.35,48.59L243.08,49.23L243.8,35.53L244.53,47.95L245.97,39.6L246.7,45.59L248.14,49.87L248.87,46.66L249.59,38.53L250.31,52.66L251.04,41.95L251.76,43.02L252.48,36.82L253.21,38.74L253.93,40.24L254.65,47.95L255.38,44.52L256.1,50.52L258.27,37.67L258.99,35.96L261.16,46.88L261.89,44.95L262.61,45.16L263.33,42.6L264.06,37.46L264.78,44.52L265.51,45.16L266.23,52.23L266.95,40.24L267.68,44.95L269.85,35.96L270.57,38.74L271.29,42.6L272.02,38.31L273.46,44.09L274.19,41.53L274.91,49.87L275.63,35.1L276.36,41.53L277.08,41.1L277.8,31.47L278.53,42.38L279.25,42.81L279.97,36.6L280.7,43.67L281.42,42.81L282.14,35.1L282.87,46.02L283.59,35.75L284.31,46.23L285.04,41.74L285.76,50.3L287.21,38.53L287.93,41.95L288.66,41.74L289.38,49.66L290.1,47.3L290.83,41.53L291.55,43.88L292.27,39.39L293.72,47.73L294.44,38.53L295.17,34.03L295.89,42.6L296.61,43.02L297.34,47.09L298.78,40.24L299.51,35.32L300.23,36.39L300.95,41.74L301.68,42.38L302.4,44.95L303.85,38.31L304.57,40.46L305.29,41.53L306.02,33.61L306.74,34.68L307.46,47.3L308.19,37.89L308.91,42.17L309.64,43.45L310.36,51.37L311.08,41.74L311.81,42.38L312.53,44.09L313.25,40.24L313.98,44.74L314.7,40.88L315.42,47.95L316.15,36.39L317.59,46.02L318.32,41.1L319.04,47.3L319.76,47.09L320.49,40.88L321.21,52.44L321.93,37.46L323.38,44.74L324.1,40.67L324.83,44.52L325.55,40.03L326.27,40.24L327,29.32L328.44,48.16L329.17,45.16L329.89,49.87L330.62,48.16L331.34,36.6L332.06,46.66L332.79,37.67L333.51,47.95L334.23,53.51L334.96,52.01L335.68,43.02L336.4,43.88L337.13,46.88L337.85,41.1L339.3,41.31L340.02,38.96L340.74,48.38L341.47,46.88L342.19,53.51L342.91,40.46L343.64,47.09L344.36,44.52L345.08,53.08L345.81,45.16L346.53,46.02L347.25,48.8L347.98,35.96L348.7,47.52L349.42,46.45L350.15,49.45L350.87,40.67L351.6,50.3L352.32,41.31L353.04,50.09L353.77,47.95L354.49,50.3L355.21,52.01L355.94,41.31L356.66,40.67L357.38,56.3L358.11,51.59L358.83,52.66L359.55,55.87L360.28,55.65L361,38.96L361,78.34L360.28,75.99L359.55,70.64L358.83,80.7L358.11,76.84L357.38,75.13L356.66,78.13L355.94,76.84L355.21,77.27L354.49,80.91L353.77,74.06L353.04,77.06L352.32,74.28L351.6,76.84L350.87,73.2L350.15,77.49L349.42,71.49L348.7,75.99L347.98,85.83L347.25,75.77L346.53,78.77L345.08,82.2L344.36,75.13L343.64,79.63L342.91,78.77L342.19,82.2L341.47,81.98L340.74,74.49L340.02,74.06L339.3,79.63L338.57,72.78L337.85,74.28L337.13,83.48L336.4,78.56L335.68,77.06L334.96,77.91L334.23,78.56L333.51,73.42L332.79,80.27L332.06,77.49L331.34,80.7L330.62,72.13L329.89,83.05L329.17,79.41L328.44,74.7L327.72,77.06L327,73.85L326.27,76.63L325.55,69.99L324.83,74.7L324.1,79.2L323.38,76.84L322.66,74.28L321.93,74.49L321.21,82.84L320.49,80.91L318.32,72.13L317.59,72.35L316.87,74.49L316.15,79.41L315.42,69.57L314.7,73.2L313.98,76.2L313.25,74.28L312.53,78.13L311.81,75.35L310.36,78.98L309.64,75.13L308.19,71.92L307.46,80.48L306.74,71.71L306.02,83.69L304.57,74.28L303.85,80.7L303.12,77.91L302.4,78.13L301.68,68.07L300.95,77.49L300.23,78.34L299.51,71.28L298.78,78.98L298.06,72.13L297.34,74.7L296.61,83.05L295.89,70.85L295.17,73.85L294.44,74.28L293.72,72.78L293,73.85L292.27,77.49L291.55,73.85L290.83,80.48L290.1,75.99L289.38,77.06L287.93,81.77L287.21,75.77L286.48,78.98L285.76,73.42L285.04,80.27L284.31,76.2L283.59,76.84L282.87,81.34L282.14,79.41L281.42,72.35L279.97,85.19L279.25,75.13L277.8,85.62L277.08,79.84L276.36,74.49L275.63,75.77L274.91,80.05L274.19,73.42L272.02,81.12L271.29,74.92L270.57,80.27L269.85,76.2L269.12,69.35L268.4,80.05L266.95,76.42L266.23,78.98L264.78,75.99L264.06,70.85L263.33,73.63L262.61,73.42L261.89,72.56L261.16,77.91L260.44,69.57L258.99,76.42L258.27,72.56L257.55,75.13L256.82,74.28L256.1,78.13L255.38,73.2L254.65,71.28L253.93,74.06L253.21,71.28L252.48,74.7L251.76,71.49L251.04,86.9L250.31,86.9L249.59,76.63L248.87,71.49L248.14,77.06L247.42,79.63L246.7,76.2L245.97,70.64L245.25,75.56L244.53,78.56L243.8,75.99L243.08,73.85L242.35,74.7L241.63,83.05L240.91,71.49L239.46,70.21L238.74,71.28L238.01,69.78L237.29,75.13L236.57,77.7L235.84,71.49L234.4,80.27L233.67,72.35L232.23,82.62L231.5,79.63L230.78,80.05L230.06,77.91L229.33,79.63L228.61,88.19L227.89,84.76L227.16,75.13L225.72,71.92L224.99,82.2L224.27,84.98L223.55,76.63L222.82,81.77L222.1,71.49L221.37,82.62L220.65,77.49L219.93,77.49L219.2,80.05L218.48,78.13L217.76,72.99L217.03,72.99L216.31,80.7L215.59,83.91L214.86,77.91L214.14,78.77L213.42,71.92L211.97,87.33L211.25,78.56L210.52,73.63L209.8,78.98L209.08,76.63L208.35,77.7L207.63,72.35L206.91,76.2L206.18,74.28L205.46,78.13L204.74,84.12L204.01,83.91L203.29,78.56L201.84,87.12L201.12,84.98L199.67,81.12L198.95,83.05L198.22,78.56L197.5,83.05L196.78,86.48L196.05,80.05L195.33,77.49L194.61,85.62L193.88,84.76L193.16,81.12L192.44,79.2L191.71,86.69L190.99,82.84L190.27,85.41L189.54,84.76L188.82,80.7L187.37,78.56L186.65,81.34L185.93,80.7L185.2,78.34L184.48,77.06L183.76,73.42L183.03,80.27L182.31,76.84L181.59,73.85L180.86,75.99L180.14,75.13L179.41,77.27L178.69,72.99L177.97,75.77L177.24,72.13L176.52,78.13L175.8,75.77L175.07,81.98L174.35,77.7L173.63,84.55L172.9,75.77L172.18,78.56L171.46,78.98L170.73,87.76L170.01,76.2L169.29,81.12L168.56,83.05L167.84,81.77L167.12,79.2L166.39,81.98L165.67,90.76L164.95,83.05L163.5,83.91L162.78,78.98L162.05,84.76L161.33,83.27L160.61,82.41L159.88,79.63L159.16,86.48L158.43,81.12L157.71,80.48L156.99,85.62L156.26,78.56L155.54,85.19L154.82,78.13L154.09,85.62L153.37,84.12L152.65,80.27L151.92,82.2L151.2,87.55L150.48,77.27L149.75,77.91L149.03,82.84L148.31,80.7L147.58,86.69L146.86,81.12L146.14,87.97L145.41,81.77L144.69,81.77L143.97,83.69L143.24,83.05L142.52,86.69L141.8,87.97L141.07,87.33L140.35,84.76L139.63,87.12L138.9,92.47L138.18,80.05L137.45,90.76L136.73,80.48L136.01,90.76L135.28,83.27L134.56,84.76L133.84,83.69L133.11,91.61L132.39,86.26L131.67,82.41L130.94,88.62L130.22,84.98L129.5,90.33L128.05,85.62L127.33,93.97L125.88,87.33L125.16,86.26L124.43,93.97L123.71,90.33L122.99,88.19L122.26,90.97L121.54,81.77L120.82,84.34L120.09,96.11L119.37,89.69L117.92,98.25L117.2,98.89L115.75,91.61L115.03,108.74L114.3,92.26L113.58,102.1L112.86,95.68L112.13,100.82L111.41,101.25L110.69,98.03L109.96,97.82L109.24,103.81L108.52,102.96L107.79,99.75L107.07,96.32L106.35,99.53L104.9,102.53L104.18,101.46L103.45,103.17L102.73,107.45L101.28,111.52L100.56,110.88L99.84,109.81L99.11,114.94L98.39,117.09L97.67,123.93L96.22,113.45L95.49,118.58L94.77,118.16L94.05,116.23L93.32,125.65L92.6,118.37L91.88,115.59L91.15,125L89.71,126.08L88.98,122.86L88.26,120.3L87.54,121.15L86.81,125.43L86.09,123.51L85.37,126.29L84.64,124.58L83.92,127.36L83.2,126.08L81.75,118.58L81.03,124.15L80.3,133.78L79.58,123.08L78.86,130.14L78.13,117.09L77.41,124.15L76.69,116.87L75.96,120.72L75.24,114.3L73.79,132.07L73.07,112.16L72.34,123.51L71.62,116.44L70.9,124.36L70.17,117.09L68.73,126.5L68,120.3L67.28,120.72L66.56,123.93L65.83,119.65L65.11,123.29L64.39,115.37L63.66,122.44L62.94,124.15L62.22,130.14L61.49,128.64L60.77,133.35L59.32,136.56L58.6,151.55L57.15,148.55L56.43,143.41L54.98,182.16L54.26,177.02L52.81,162.46L52.09,165.46L51.36,160.32L50.64,161.39L49.19,189.86L48.47,179.16L47.75,186.01L47.02,182.8L45.58,190.93L44.85,180.66L43.41,204.42L42.68,199.28L41.96,203.56L41.24,201.21L40.51,205.27L39.79,214.69L39.07,221.54L38.34,210.62L37.62,216.19L36.9,212.12L36.17,194.14L35.45,203.99L32.56,232.89L31.83,232.89L30.38,223.47L29.66,222.83L26.77,239.52L26.04,243.37L25.32,244.87L24.6,243.37L23.15,244.44L22.43,244.66L21.7,243.37L20.98,244.23L19.53,244.02L18.81,245.09L17.36,245.51L16.64,245.09L15.92,244.23L15.19,245.3L12.3,244.66L11.58,245.3L10.85,244.23L10.13,245.09L9.4,244.87L8.68,245.51L7.96,245.09L7.23,245.73L5.79,244.87L5.06,244.87L2.89,245.73L2.17,245.51L0,245.73" style="vector-effect: non-scaling-stroke; fill: none; stroke: rgb(0, 0, 0); stroke-opacity: 0; stroke-width: 2px; opacity: 1;"/></g><g class="points"/><g class="text"/></g><g class="trace scatter tracebba45c" style="stroke-miterlimit: 2; opacity: 1;"><g class="fills"/><g class="errorbars"/><g class="lines"><path class="js-line" d="M0,245.73L0.72,244.87L1.45,245.3L4.34,244.87L5.06,245.09L6.51,245.3L7.23,244.66L8.68,245.51L9.4,244.44L10.85,245.09L11.58,240.38L12.3,237.17L13.02,229.25L13.75,227.32L14.47,221.97L15.92,224.97L16.64,223.47L17.36,223.04L18.09,213.84L18.81,217.26L19.53,214.05L20.26,213.19L20.98,220.69L21.7,214.26L22.43,218.76L23.15,214.48L23.87,217.47L25.32,203.78L26.04,194.57L26.77,193.07L27.49,186.87L28.21,190.93L28.94,181.09L30.38,192.64L31.11,180.02L31.83,158.18L32.56,159.47L34.73,154.12L35.45,147.91L36.9,138.7L37.62,154.54L38.34,126.72L39.07,131.43L39.79,140.63L40.51,136.35L41.24,137.63L41.96,125.86L42.68,124.79L43.41,129.5L44.13,139.77L44.85,125.22L45.58,130.78L46.3,120.72L47.02,125.86L47.75,114.3L48.47,115.8L49.19,110.02L49.92,118.16L50.64,112.59L51.36,107.88L52.09,113.45L52.81,110.88L53.54,111.31L54.26,108.1L54.98,108.52L55.71,117.94L56.43,107.02L57.15,101.03L57.88,111.73L59.32,97.39L60.05,109.59L61.49,97.39L62.22,101.25L62.94,105.95L63.66,98.46L64.39,101.67L65.11,100.82L65.83,99.53L66.56,100.39L67.28,87.97L68,92.04L68.73,90.54L69.45,98.25L70.17,98.68L70.9,80.48L73.07,96.11L73.79,87.97L74.52,86.05L75.24,87.12L75.96,87.97L76.69,84.55L77.41,84.76L78.13,76.2L78.86,77.27L79.58,85.83L80.3,80.48L81.03,85.41L82.47,82.84L83.2,86.26L83.92,82.2L84.64,83.27L85.37,75.35L86.09,77.7L86.81,72.56L87.54,78.13L88.26,71.28L88.98,75.35L89.71,73.63L90.43,67.85L91.88,81.55L92.6,71.92L93.32,78.13L94.05,72.35L94.77,69.99L95.49,73.63L96.22,68.07L96.94,75.13L98.39,62.72L99.11,64.21L99.84,65.29L100.56,62.72L101.28,65.07L102.01,72.13L102.73,67.21L103.45,69.57L104.18,72.35L104.9,60.36L106.35,65.5L107.07,71.92L107.79,72.78L108.52,66.36L109.24,65.07L109.96,72.35L110.69,70.64L111.41,71.06L112.13,63.36L112.86,71.49L114.3,77.06L115.03,72.99L115.75,69.35L116.47,75.56L117.92,62.07L118.65,71.49L119.37,78.77L120.09,70.42L120.82,68.28L121.54,72.13L122.99,61.65L123.71,68.28L124.43,65.71L125.16,67L125.88,67.43L126.6,59.93L127.33,64.86L128.05,58.22L129.5,62.93L130.22,59.08L131.67,67L132.39,58.86L133.11,58.22L133.84,52.87L134.56,61.86L135.28,54.15L136.01,52.44L136.73,60.79L137.45,51.8L138.18,57.58L138.9,61.86L139.63,46.88L141.8,53.08L142.52,49.66L143.97,53.3L144.69,49.87L145.41,61.22L146.14,55.01L147.58,46.23L148.31,58.65L149.03,58.65L149.75,52.44L150.48,57.37L151.2,56.08L151.92,59.93L152.65,56.94L153.37,60.36L154.09,58.86L156.26,48.59L156.99,52.44L157.71,51.8L158.43,53.08L159.16,62.07L159.88,54.58L160.61,58.65L161.33,54.37L162.05,54.37L162.78,52.66L163.5,56.3L164.22,50.52L164.95,59.29L165.67,44.52L167.12,53.73L167.84,50.94L168.56,46.88L169.29,49.66L170.01,46.02L170.73,51.8L171.46,52.01L172.18,44.74L172.9,53.3L173.63,52.44L174.35,48.59L175.07,55.22L176.52,44.52L177.24,50.52L177.97,45.81L178.69,50.3L179.41,39.39L180.14,56.08L180.86,55.87L181.59,47.3L183.03,52.23L183.76,49.02L184.48,44.95L185.2,45.38L185.93,41.1L186.65,49.66L188.82,46.88L189.54,53.73L190.99,46.23L191.71,46.45L192.44,46.23L193.16,49.87L193.88,45.81L194.61,57.79L195.33,52.87L196.05,55.22L197.5,45.38L198.22,48.16L198.95,51.16L199.67,44.31L200.39,51.59L201.12,40.67L202.57,55.87L203.29,50.3L204.01,43.88L204.74,52.66L205.46,49.87L206.18,43.02L207.63,57.15L208.35,51.37L209.8,46.23L210.52,61L211.97,51.8L212.69,55.44L213.42,46.66L214.14,54.15L214.86,43.88L215.59,49.87L217.03,48.38L217.76,43.02L218.48,51.59L219.2,45.59L219.93,48.59L220.65,46.23L221.37,46.88L222.1,40.67L223.55,48.8L224.27,46.23L224.99,52.44L225.72,52.23L226.44,48.8L227.16,50.52L227.89,50.09L228.61,52.66L229.33,46.23L230.06,43.45L230.78,44.74L231.5,47.3L232.23,43.88L234.4,55.65L235.12,44.09L235.84,51.37L236.57,39.39L238.01,50.09L238.74,49.45L239.46,56.08L240.18,47.3L240.91,47.52L241.63,44.31L243.8,48.8L244.53,42.38L246.7,57.79L247.42,45.38L248.87,50.94L249.59,49.02L251.04,56.08L251.76,47.95L252.48,58.65L253.21,50.94L253.93,48.38L254.65,57.15L255.38,44.31L256.1,55.01L257.55,52.44L258.27,55.44L258.99,53.51L259.72,53.73L261.16,49.66L261.89,49.23L263.33,52.44L264.06,52.01L264.78,46.88L265.51,53.08L266.23,52.44L266.95,49.66L267.68,50.52L268.4,54.15L269.12,38.96L269.85,48.8L270.57,50.3L271.29,47.95L272.74,50.94L273.46,43.88L274.91,44.09L275.63,48.59L277.08,41.95L277.8,43.67L278.53,44.74L279.25,47.52L280.7,46.88L281.42,46.23L282.14,47.3L282.87,50.3L283.59,46.66L284.31,50.94L285.04,46.66L285.76,49.02L286.48,43.67L287.21,48.38L287.93,45.59L288.66,48.38L289.38,47.3L290.1,48.8L290.83,51.16L291.55,47.73L292.27,49.02L293,47.3L293.72,46.66L294.44,50.52L295.17,45.38L295.89,49.02L296.61,47.95L297.34,45.16L298.06,51.16L298.78,47.52L299.51,45.16L300.23,46.23L302.4,50.52L303.12,45.16L304.57,50.73L305.29,51.59L306.02,54.8L306.74,46.88L307.46,47.95L308.19,43.67L309.64,38.1L310.36,44.74L311.08,50.73L311.81,46.02L312.53,42.17L313.25,43.24L313.98,53.73L314.7,47.73L315.42,42.17L316.15,45.81L316.87,42.38L317.59,51.16L318.32,40.03L319.04,51.59L319.76,51.37L320.49,42.6L321.21,40.46L321.93,46.23L323.38,41.53L324.1,33.82L324.83,46.45L325.55,44.52L326.27,40.67L327,32.11L328.44,44.74L329.17,40.24L329.89,41.74L330.62,36.82L332.06,54.58L332.79,39.39L333.51,43.88L334.23,42.17L334.96,44.31L335.68,43.88L336.4,44.31L337.13,39.81L337.85,48.38L338.57,41.1L339.3,47.73L340.02,44.09L340.74,54.58L341.47,52.87L342.91,41.31L343.64,43.24L344.36,41.95L345.08,48.59L345.81,54.8L346.53,53.3L347.25,36.6L347.98,55.44L349.42,36.6L350.15,40.67L350.87,32.32L351.6,48.59L352.32,46.66L353.04,35.96L354.49,52.87L355.21,40.03L355.94,49.45L356.66,40.67L359.55,51.16L360.28,41.74L361,46.23" style="vector-effect: non-scaling-stroke; fill: none; stroke: rgb(239, 85, 59); stroke-opacity: 1; stroke-width: 2px; opacity: 1;"/></g><g class="points"/><g class="text"/></g><g class="trace scatter trace3ddc16" style="stroke-miterlimit: 2; opacity: 1;"><g class="fills"><g><path class="js-fill" d="M0,245.73L1.45,243.7L2.17,243.8L2.89,243.37L3.62,244.12L6.51,234.71L7.23,234.17L8.68,228.93L9.4,223.47L10.85,227.43L11.58,220.04L12.3,209.23L13.02,212.02L13.75,205.81L14.47,213.84L15.19,216.83L15.92,208.27L16.64,210.52L17.36,202.6L18.09,202.6L18.81,199.82L19.53,210.3L20.26,207.09L20.98,208.27L21.7,201.31L23.15,205.49L23.87,200.14L24.6,198.21L25.32,191.36L27.49,171.24L28.21,177.23L29.66,168.67L30.38,168.14L32.56,144.7L33.28,148.76L34.73,131.53L35.45,120.94L36.17,121.05L36.9,119.55L37.62,128.64L38.34,122.22L39.07,109.27L39.79,111.31L40.51,114.73L41.24,103.06L41.96,90.65L42.68,107.35L44.13,101.46L44.85,116.23L45.58,112.7L46.3,103.81L48.47,95.04L49.19,90.97L49.92,96.54L50.64,90.11L52.09,101.89L52.81,102.64L53.54,96L54.26,99.85L55.71,105.63L56.43,96.11L57.88,98.46L58.6,96.54L60.05,93.11L60.77,88.4L62.22,86.48L62.94,81.02L63.66,81.02L64.39,83.37L65.11,79.73L65.83,84.44L66.56,87.76L67.28,84.44L68,83.69L68.73,86.26L69.45,87.65L70.17,85.19L71.62,78.98L72.34,88.51L75.24,72.99L75.96,80.38L76.69,81.02L77.41,77.27L78.13,68.5L78.86,70.64L79.58,79.52L80.3,73.95L81.03,71.6L81.75,74.6L82.47,71.06L83.2,72.56L83.92,77.16L84.64,73.74L85.37,71.71L86.09,72.46L88.98,65.61L89.71,69.89L90.43,63.57L91.15,67.75L91.88,66.57L92.6,70.1L94.77,57.37L95.49,63.25L96.22,54.26L96.94,62.82L98.39,52.76L99.11,53.83L99.84,59.83L100.56,54.9L101.28,62.18L102.01,58.22L102.73,58.11L103.45,61L104.18,61.54L104.9,56.4L105.62,56.19L106.35,48.05L107.07,47.3L107.79,63.25L108.52,50.52L109.24,59.4L109.96,62.07L110.69,53.73L111.41,67.32L112.13,59.08L112.86,67.64L113.58,57.26L114.3,74.06L115.03,61.86L115.75,65.07L116.47,56.08L117.2,59.29L117.92,58.54L118.65,64.21L119.37,55.65L120.09,61.97L120.82,58.22L121.54,58.97L122.26,44.09L122.99,55.33L123.71,52.12L124.43,60.79L125.16,54.48L127.33,48.7L128.05,55.44L128.77,49.55L129.5,52.23L130.22,47.2L130.94,47.84L131.67,49.66L132.39,47.2L133.11,47.84L133.84,43.45L134.56,41.42L135.28,48.48L136.01,44.52L136.73,48.7L137.45,35.64L138.18,39.17L138.9,40.24L139.63,42.7L140.35,47.52L141.07,39.49L141.8,40.13L142.52,31.89L143.97,39.17L144.69,31.68L145.41,28.15L146.14,38.64L147.58,28.25L148.31,35.64L150.48,32.11L151.2,27.51L151.92,36.92L152.65,26.86L154.09,39.39L154.82,32L156.26,24.08L156.99,30.61L157.71,28.9L158.43,36.28L159.16,35.75L159.88,39.71L160.61,25.69L161.33,29.54L162.78,27.83L163.5,22.05L164.22,28.68L164.95,28.47L165.67,23.12L167.12,20.87L167.84,27.08L168.56,37.14L169.29,26.54L170.01,25.9L170.73,31.89L172.18,24.72L172.9,28.79L173.63,33.39L174.35,20.44L175.8,33.39L176.52,23.65L177.24,30.18L177.97,24.4L178.69,31.68L179.41,19.05L180.14,33.82L180.86,23.65L181.59,31.25L182.31,27.93L183.76,31.14L184.48,28.04L185.2,23.87L185.93,29L186.65,36.71L187.37,26.54L188.1,27.4L188.82,29.43L189.54,26.76L190.27,20.12L191.71,35.64L192.44,23.33L193.16,39.6L193.88,23.65L194.61,24.62L195.33,30.07L196.78,42.6L197.5,29.22L198.95,36.17L199.67,31.68L200.39,30.4L201.12,34.14L201.84,25.26L202.57,38.1L203.29,31.89L204.01,35.96L204.74,41.1L205.46,28.36L206.18,28.79L206.91,35.32L207.63,34.57L208.35,31.57L209.8,36.71L210.52,39.6L211.25,39.71L211.97,36.17L212.69,44.2L213.42,37.46L214.86,35.53L215.59,35.85L217.03,40.67L217.76,33.71L218.48,35.43L219.2,33.82L219.93,32.32L220.65,34.14L221.37,37.03L222.1,29.75L222.82,46.66L223.55,36.5L224.27,30.29L224.99,34.35L225.72,30.4L226.44,43.45L227.89,37.35L228.61,42.49L230.06,31.04L230.78,35L231.5,34.68L232.23,30.72L234.4,45.06L235.12,41.85L235.84,44.63L236.57,36.92L237.29,39.28L238.01,33.82L238.74,33.28L239.46,49.45L240.91,41.42L241.63,40.67L243.08,39.92L243.8,37.99L244.53,35.53L245.25,41.1L247.42,32.11L248.14,38.1L248.87,33.07L249.59,46.45L251.04,38.85L251.76,35.53L252.48,43.35L253.21,38.74L254.65,40.78L255.38,36.28L256.1,30.07L256.82,43.56L258.27,40.46L258.99,37.67L259.72,43.02L260.44,35.32L261.16,40.56L261.89,36.07L262.61,48.59L263.33,40.46L264.06,43.99L264.78,39.92L265.51,43.45L266.23,39.06L266.95,36.92L267.68,45.06L268.4,50.73L269.12,33.71L270.57,45.49L271.29,38.53L272.02,47.73L272.74,39.17L274.19,42.81L274.91,43.56L275.63,40.24L276.36,41.31L277.08,34.25L277.8,40.78L278.53,34.57L279.25,36.28L279.97,45.91L280.7,40.24L281.42,37.57L282.14,40.88L282.87,39.6L283.59,43.13L284.31,38.85L285.04,42.81L286.48,38.31L287.21,33.93L288.66,40.78L289.38,37.99L290.83,48.7L291.55,46.66L293.72,36.92L294.44,42.7L295.17,39.39L295.89,43.45L297.34,41.95L298.06,41.63L298.78,39.17L299.51,40.03L300.95,44.31L301.68,43.02L302.4,44.09L303.12,40.13L303.85,44.2L304.57,41.74L305.29,46.66L306.02,44.52L308.91,28.47L309.64,36.39L311.08,44.63L311.81,44.42L312.53,35.96L313.25,37.67L313.98,50.73L314.7,44.31L315.42,35.21L316.15,41.85L316.87,36.17L317.59,43.02L318.32,34.68L319.04,41.53L319.76,44.52L320.49,38.21L321.21,37.57L321.93,35.53L322.66,32.54L323.38,37.78L324.1,32L324.83,34.57L325.55,38.96L326.27,35.32L327,29.65L327.72,30.93L328.44,39.28L329.17,31.89L329.89,31.89L330.62,29.86L332.06,39.06L332.79,36.82L334.23,34.25L334.96,37.78L335.68,41.53L336.4,34.57L337.13,34.14L337.85,32.54L340.02,35.21L340.74,42.49L341.47,36.92L342.19,38.42L342.91,33.61L343.64,38.96L344.36,38.64L345.08,39.71L345.81,40.56L346.53,33.93L347.25,30.5L347.98,31.47L348.7,32.11L349.42,30.29L350.15,35.43L350.87,28.04L352.32,43.45L353.04,33.61L353.77,34.35L354.49,43.56L355.21,27.93L355.94,36.07L356.66,39.28L357.38,32.54L358.11,29.22L358.83,38.1L359.55,32.11L360.28,35.75L361,37.78L361,57.58L360.28,56.72L359.55,52.55L358.83,51.48L358.11,60.04L357.38,50.3L356.66,52.23L355.94,56.94L355.21,47.52L354.49,57.15L353.77,56.72L353.04,59.61L352.32,53.62L350.87,57.04L350.15,55.22L349.42,49.45L348.7,53.73L347.98,59.29L347.25,55.12L345.81,63.04L345.08,51.16L344.36,49.55L343.64,54.05L342.91,54.58L342.19,45.59L340.74,59.08L340.02,57.15L339.3,51.8L338.57,52.44L337.13,59.72L336.4,53.83L335.68,54.9L334.96,57.37L334.23,58.11L333.51,56.94L332.79,51.05L332.06,58.97L331.34,58.54L330.62,59.4L329.17,48.7L328.44,53.73L327.72,49.77L327,50.19L326.27,46.13L325.55,50.94L324.83,47.84L324.1,57.37L323.38,54.37L322.66,44.74L321.93,54.48L321.21,46.34L319.04,63.47L318.32,47.63L317.59,58.97L316.87,51.37L316.15,62.4L315.42,50.84L314.7,60.15L313.98,58.76L313.25,61.75L312.53,50.94L311.81,57.79L311.08,53.62L310.36,47.52L309.64,53.08L308.19,59.93L307.46,56.19L306.74,52.76L306.02,55.12L305.29,54.26L304.57,57.15L303.85,53.83L303.12,60.9L301.68,52.55L300.95,55.33L300.23,53.51L299.51,57.47L298.78,53.51L298.06,60.9L296.61,50.19L295.89,55.01L295.17,50.84L294.44,58.22L293.72,57.47L293,54.15L292.27,51.05L291.55,55.44L290.83,55.44L290.1,52.23L289.38,50.41L288.66,52.98L287.93,49.34L287.21,53.51L286.48,49.55L285.76,55.65L285.04,55.01L284.31,56.4L283.59,58.86L282.87,52.01L281.42,56.08L280.7,51.05L279.97,52.66L279.25,61.43L277.8,48.7L277.08,52.66L276.36,55.33L275.63,53.83L274.91,51.59L274.19,54.37L273.46,54.48L272.74,53.73L272.02,55.12L271.29,49.23L269.85,56.08L269.12,59.18L268.4,57.9L267.68,60.04L266.95,56.62L266.23,58.11L265.51,60.36L264.78,50.41L264.06,56.4L263.33,53.19L261.89,57.79L261.16,55.22L260.44,57.26L259.72,64L258.27,58.44L257.55,58.76L256.82,56.08L256.1,57.04L255.38,52.66L254.65,63.04L253.93,53.51L253.21,56.72L252.48,60.36L251.76,55.76L250.31,61.33L249.59,57.9L248.14,55.12L247.42,54.26L246.7,62.5L245.97,55.97L245.25,57.15L244.53,53.62L243.8,54.15L243.08,62.61L242.35,61.11L241.63,54.26L240.91,53.08L240.18,57.9L239.46,63.36L238.74,54.05L238.01,55.97L237.29,61.65L236.57,48.48L235.84,63.57L235.12,54.69L234.4,57.9L232.23,51.48L231.5,57.37L230.78,51.16L230.06,52.34L229.33,52.76L228.61,56.19L227.89,55.65L227.16,61.86L226.44,49.87L225.72,55.65L224.99,57.9L224.27,65.07L222.1,52.23L221.37,50.52L220.65,54.05L219.93,52.87L218.48,53.19L217.76,55.01L217.03,55.44L216.31,57.37L215.59,54.37L214.86,58.11L214.14,56.72L213.42,52.66L212.69,58.76L211.97,57.9L211.25,59.4L210.52,63.14L209.08,52.34L208.35,60.58L207.63,64.75L206.91,56.72L206.18,60.04L205.46,56.72L204.74,54.58L204.01,58.76L203.29,58.22L202.57,59.72L201.84,65.07L201.12,60.47L200.39,56.62L199.67,62.4L198.22,55.87L197.5,55.97L196.78,53.83L196.05,56.72L194.61,59.4L193.88,55.44L193.16,55.33L192.44,49.45L191.71,56.19L190.99,53.19L190.27,58.33L189.54,56.51L188.82,53.41L188.1,57.69L187.37,53.62L186.65,56.19L185.93,53.62L185.2,58.01L184.48,56.51L183.76,59.29L183.03,58.65L182.31,55.65L181.59,52.34L180.86,57.26L180.14,56.83L179.41,50.41L177.97,54.48L177.24,55.97L176.52,61.86L175.8,55.76L175.07,56.62L174.35,55.33L173.63,55.44L172.9,60.9L172.18,55.22L171.46,64.32L170.73,54.9L170.01,62.72L169.29,56.19L168.56,57.37L167.84,64.11L167.12,61.33L165.67,54.15L164.95,63.57L164.22,65.61L163.5,63.36L162.78,56.94L162.05,59.93L159.16,64.54L158.43,59.83L157.71,60.58L156.99,55.76L155.54,61.97L154.82,61.54L154.09,62.4L153.37,62.07L151.92,67.1L151.2,62.72L149.75,54.8L149.03,61.97L148.31,59.72L147.58,60.47L146.86,56.72L146.14,58.11L145.41,64.54L144.69,62.5L143.97,57.15L143.24,58.33L142.52,54.48L141.8,57.9L141.07,53.51L140.35,61.11L139.63,56.4L138.9,62.61L138.18,61.86L137.45,59.72L136.73,61L136.01,60.58L134.56,65.61L133.84,63.04L133.11,63.89L132.39,69.78L130.94,66.68L130.22,67.75L128.77,68.39L128.05,66.03L127.33,73.85L126.6,69.99L125.88,71.39L125.16,74.6L123.71,69.99L122.99,73.95L122.26,71.49L121.54,73.85L120.82,79.09L120.09,73.63L119.37,84.44L118.65,78.77L117.92,77.81L117.2,70.96L116.47,76.63L115.75,73.42L114.3,79.31L113.58,79.2L112.86,79.41L112.13,80.7L111.41,80.59L110.69,78.24L109.96,76.63L109.24,71.81L107.79,75.56L107.07,75.99L106.35,74.49L105.62,69.99L104.9,81.55L104.18,77.38L103.45,85.51L102.73,79.52L100.56,74.17L99.84,76.84L98.39,81.98L97.67,74.81L96.22,90.33L95.49,83.8L94.77,88.83L94.05,79.95L93.32,80.38L92.6,76.09L91.88,88.19L91.15,85.19L90.43,72.78L89.71,88.94L88.26,82.3L87.54,83.27L86.81,84.76L86.09,81.66L85.37,78.66L84.64,92.15L83.92,84.87L83.2,99.43L82.47,85.19L81.75,89.04L80.3,98.03L79.58,88.62L78.86,82.62L78.13,88.62L76.69,94.18L75.96,91.29L75.24,96.54L74.52,94.82L73.07,102.42L72.34,95.47L71.62,88.3L70.9,96.64L69.45,102.96L68.73,92.47L68,97.39L67.28,95.89L65.83,109.81L65.11,106.81L64.39,114.41L63.66,108.31L62.22,122.76L61.49,117.83L60.05,129.82L59.32,126.08L57.88,144.38L57.15,133.89L56.43,137.85L55.71,150.37L54.98,145.77L54.26,147.27L52.81,152.62L52.09,158.08L51.36,152.08L50.64,161.93L49.19,160.75L48.47,154.12L47.75,157.01L47.02,166.32L46.3,171.35L45.58,160.54L44.85,177.55L44.13,171.45L43.41,161.18L42.68,170.6L41.24,168.35L40.51,168.35L39.07,184.62L38.34,186.87L37.62,185.26L36.9,195.64L35.45,193.29L34.73,194.46L34,206.99L33.28,204.63L31.83,208.48L31.11,212.98L30.38,215.98L29.66,215.44L28.94,205.59L28.21,212.34L27.49,206.66L26.77,220.79L26.04,211.27L25.32,216.4L23.87,227.64L23.15,223.79L22.43,227.86L21.7,224.43L20.98,225.39L20.26,224L19.53,228.18L18.81,227.64L15.92,235.45L15.19,239.95L13.75,243.59L13.02,244.23L12.3,245.3L11.58,244.98L8.68,245.84L7.96,245.62L7.23,245.3L6.51,245.94L3.62,245.41L2.89,245.51L0,245.84Z" style="fill: rgb(239, 85, 59); fill-opacity: 0.3; stroke-width: 0;"/></g></g><g class="errorbars"/><g class="lines"><path class="js-line" d="M0,245.73L1.45,243.7L2.17,243.8L2.89,243.37L3.62,244.12L6.51,234.71L7.23,234.17L8.68,228.93L9.4,223.47L10.85,227.43L11.58,220.04L12.3,209.23L13.02,212.02L13.75,205.81L14.47,213.84L15.19,216.83L15.92,208.27L16.64,210.52L17.36,202.6L18.09,202.6L18.81,199.82L19.53,210.3L20.26,207.09L20.98,208.27L21.7,201.31L23.15,205.49L23.87,200.14L24.6,198.21L25.32,191.36L27.49,171.24L28.21,177.23L29.66,168.67L30.38,168.14L32.56,144.7L33.28,148.76L34.73,131.53L35.45,120.94L36.17,121.05L36.9,119.55L37.62,128.64L38.34,122.22L39.07,109.27L39.79,111.31L40.51,114.73L41.24,103.06L41.96,90.65L42.68,107.35L44.13,101.46L44.85,116.23L45.58,112.7L46.3,103.81L48.47,95.04L49.19,90.97L49.92,96.54L50.64,90.11L52.09,101.89L52.81,102.64L53.54,96L54.26,99.85L55.71,105.63L56.43,96.11L57.88,98.46L58.6,96.54L60.05,93.11L60.77,88.4L62.22,86.48L62.94,81.02L63.66,81.02L64.39,83.37L65.11,79.73L65.83,84.44L66.56,87.76L67.28,84.44L68,83.69L68.73,86.26L69.45,87.65L70.17,85.19L71.62,78.98L72.34,88.51L75.24,72.99L75.96,80.38L76.69,81.02L77.41,77.27L78.13,68.5L78.86,70.64L79.58,79.52L80.3,73.95L81.03,71.6L81.75,74.6L82.47,71.06L83.2,72.56L83.92,77.16L84.64,73.74L85.37,71.71L86.09,72.46L88.98,65.61L89.71,69.89L90.43,63.57L91.15,67.75L91.88,66.57L92.6,70.1L94.77,57.37L95.49,63.25L96.22,54.26L96.94,62.82L98.39,52.76L99.11,53.83L99.84,59.83L100.56,54.9L101.28,62.18L102.01,58.22L102.73,58.11L103.45,61L104.18,61.54L104.9,56.4L105.62,56.19L106.35,48.05L107.07,47.3L107.79,63.25L108.52,50.52L109.24,59.4L109.96,62.07L110.69,53.73L111.41,67.32L112.13,59.08L112.86,67.64L113.58,57.26L114.3,74.06L115.03,61.86L115.75,65.07L116.47,56.08L117.2,59.29L117.92,58.54L118.65,64.21L119.37,55.65L120.09,61.97L120.82,58.22L121.54,58.97L122.26,44.09L122.99,55.33L123.71,52.12L124.43,60.79L125.16,54.48L127.33,48.7L128.05,55.44L128.77,49.55L129.5,52.23L130.22,47.2L130.94,47.84L131.67,49.66L132.39,47.2L133.11,47.84L133.84,43.45L134.56,41.42L135.28,48.48L136.01,44.52L136.73,48.7L137.45,35.64L138.18,39.17L138.9,40.24L139.63,42.7L140.35,47.52L141.07,39.49L141.8,40.13L142.52,31.89L143.97,39.17L144.69,31.68L145.41,28.15L146.14,38.64L147.58,28.25L148.31,35.64L150.48,32.11L151.2,27.51L151.92,36.92L152.65,26.86L154.09,39.39L154.82,32L156.26,24.08L156.99,30.61L157.71,28.9L158.43,36.28L159.16,35.75L159.88,39.71L160.61,25.69L161.33,29.54L162.78,27.83L163.5,22.05L164.22,28.68L164.95,28.47L165.67,23.12L167.12,20.87L167.84,27.08L168.56,37.14L169.29,26.54L170.01,25.9L170.73,31.89L172.18,24.72L172.9,28.79L173.63,33.39L174.35,20.44L175.8,33.39L176.52,23.65L177.24,30.18L177.97,24.4L178.69,31.68L179.41,19.05L180.14,33.82L180.86,23.65L181.59,31.25L182.31,27.93L183.76,31.14L184.48,28.04L185.2,23.87L185.93,29L186.65,36.71L187.37,26.54L188.1,27.4L188.82,29.43L189.54,26.76L190.27,20.12L191.71,35.64L192.44,23.33L193.16,39.6L193.88,23.65L194.61,24.62L195.33,30.07L196.78,42.6L197.5,29.22L198.95,36.17L199.67,31.68L200.39,30.4L201.12,34.14L201.84,25.26L202.57,38.1L203.29,31.89L204.01,35.96L204.74,41.1L205.46,28.36L206.18,28.79L206.91,35.32L207.63,34.57L208.35,31.57L209.8,36.71L210.52,39.6L211.25,39.71L211.97,36.17L212.69,44.2L213.42,37.46L214.86,35.53L215.59,35.85L217.03,40.67L217.76,33.71L218.48,35.43L219.2,33.82L219.93,32.32L220.65,34.14L221.37,37.03L222.1,29.75L222.82,46.66L223.55,36.5L224.27,30.29L224.99,34.35L225.72,30.4L226.44,43.45L227.89,37.35L228.61,42.49L230.06,31.04L230.78,35L231.5,34.68L232.23,30.72L234.4,45.06L235.12,41.85L235.84,44.63L236.57,36.92L237.29,39.28L238.01,33.82L238.74,33.28L239.46,49.45L240.91,41.42L241.63,40.67L243.08,39.92L243.8,37.99L244.53,35.53L245.25,41.1L247.42,32.11L248.14,38.1L248.87,33.07L249.59,46.45L251.04,38.85L251.76,35.53L252.48,43.35L253.21,38.74L254.65,40.78L255.38,36.28L256.1,30.07L256.82,43.56L258.27,40.46L258.99,37.67L259.72,43.02L260.44,35.32L261.16,40.56L261.89,36.07L262.61,48.59L263.33,40.46L264.06,43.99L264.78,39.92L265.51,43.45L266.23,39.06L266.95,36.92L267.68,45.06L268.4,50.73L269.12,33.71L270.57,45.49L271.29,38.53L272.02,47.73L272.74,39.17L274.19,42.81L274.91,43.56L275.63,40.24L276.36,41.31L277.08,34.25L277.8,40.78L278.53,34.57L279.25,36.28L279.97,45.91L280.7,40.24L281.42,37.57L282.14,40.88L282.87,39.6L283.59,43.13L284.31,38.85L285.04,42.81L286.48,38.31L287.21,33.93L288.66,40.78L289.38,37.99L290.83,48.7L291.55,46.66L293.72,36.92L294.44,42.7L295.17,39.39L295.89,43.45L297.34,41.95L298.06,41.63L298.78,39.17L299.51,40.03L300.95,44.31L301.68,43.02L302.4,44.09L303.12,40.13L303.85,44.2L304.57,41.74L305.29,46.66L306.02,44.52L308.91,28.47L309.64,36.39L311.08,44.63L311.81,44.42L312.53,35.96L313.25,37.67L313.98,50.73L314.7,44.31L315.42,35.21L316.15,41.85L316.87,36.17L317.59,43.02L318.32,34.68L319.04,41.53L319.76,44.52L320.49,38.21L321.21,37.57L321.93,35.53L322.66,32.54L323.38,37.78L324.1,32L324.83,34.57L325.55,38.96L326.27,35.32L327,29.65L327.72,30.93L328.44,39.28L329.17,31.89L329.89,31.89L330.62,29.86L332.06,39.06L332.79,36.82L334.23,34.25L334.96,37.78L335.68,41.53L336.4,34.57L337.13,34.14L337.85,32.54L340.02,35.21L340.74,42.49L341.47,36.92L342.19,38.42L342.91,33.61L343.64,38.96L344.36,38.64L345.08,39.71L345.81,40.56L346.53,33.93L347.25,30.5L347.98,31.47L348.7,32.11L349.42,30.29L350.15,35.43L350.87,28.04L352.32,43.45L353.04,33.61L353.77,34.35L354.49,43.56L355.21,27.93L355.94,36.07L356.66,39.28L357.38,32.54L358.11,29.22L358.83,38.1L359.55,32.11L360.28,35.75L361,37.78L361,57.58L360.28,56.72L359.55,52.55L358.83,51.48L358.11,60.04L357.38,50.3L356.66,52.23L355.94,56.94L355.21,47.52L354.49,57.15L353.77,56.72L353.04,59.61L352.32,53.62L350.87,57.04L350.15,55.22L349.42,49.45L348.7,53.73L347.98,59.29L347.25,55.12L345.81,63.04L345.08,51.16L344.36,49.55L343.64,54.05L342.91,54.58L342.19,45.59L340.74,59.08L340.02,57.15L339.3,51.8L338.57,52.44L337.13,59.72L336.4,53.83L335.68,54.9L334.96,57.37L334.23,58.11L333.51,56.94L332.79,51.05L332.06,58.97L331.34,58.54L330.62,59.4L329.17,48.7L328.44,53.73L327.72,49.77L327,50.19L326.27,46.13L325.55,50.94L324.83,47.84L324.1,57.37L323.38,54.37L322.66,44.74L321.93,54.48L321.21,46.34L319.04,63.47L318.32,47.63L317.59,58.97L316.87,51.37L316.15,62.4L315.42,50.84L314.7,60.15L313.98,58.76L313.25,61.75L312.53,50.94L311.81,57.79L311.08,53.62L310.36,47.52L309.64,53.08L308.19,59.93L307.46,56.19L306.74,52.76L306.02,55.12L305.29,54.26L304.57,57.15L303.85,53.83L303.12,60.9L301.68,52.55L300.95,55.33L300.23,53.51L299.51,57.47L298.78,53.51L298.06,60.9L296.61,50.19L295.89,55.01L295.17,50.84L294.44,58.22L293.72,57.47L293,54.15L292.27,51.05L291.55,55.44L290.83,55.44L290.1,52.23L289.38,50.41L288.66,52.98L287.93,49.34L287.21,53.51L286.48,49.55L285.76,55.65L285.04,55.01L284.31,56.4L283.59,58.86L282.87,52.01L281.42,56.08L280.7,51.05L279.97,52.66L279.25,61.43L277.8,48.7L277.08,52.66L276.36,55.33L275.63,53.83L274.91,51.59L274.19,54.37L273.46,54.48L272.74,53.73L272.02,55.12L271.29,49.23L269.85,56.08L269.12,59.18L268.4,57.9L267.68,60.04L266.95,56.62L266.23,58.11L265.51,60.36L264.78,50.41L264.06,56.4L263.33,53.19L261.89,57.79L261.16,55.22L260.44,57.26L259.72,64L258.27,58.44L257.55,58.76L256.82,56.08L256.1,57.04L255.38,52.66L254.65,63.04L253.93,53.51L253.21,56.72L252.48,60.36L251.76,55.76L250.31,61.33L249.59,57.9L248.14,55.12L247.42,54.26L246.7,62.5L245.97,55.97L245.25,57.15L244.53,53.62L243.8,54.15L243.08,62.61L242.35,61.11L241.63,54.26L240.91,53.08L240.18,57.9L239.46,63.36L238.74,54.05L238.01,55.97L237.29,61.65L236.57,48.48L235.84,63.57L235.12,54.69L234.4,57.9L232.23,51.48L231.5,57.37L230.78,51.16L230.06,52.34L229.33,52.76L228.61,56.19L227.89,55.65L227.16,61.86L226.44,49.87L225.72,55.65L224.99,57.9L224.27,65.07L222.1,52.23L221.37,50.52L220.65,54.05L219.93,52.87L218.48,53.19L217.76,55.01L217.03,55.44L216.31,57.37L215.59,54.37L214.86,58.11L214.14,56.72L213.42,52.66L212.69,58.76L211.97,57.9L211.25,59.4L210.52,63.14L209.08,52.34L208.35,60.58L207.63,64.75L206.91,56.72L206.18,60.04L205.46,56.72L204.74,54.58L204.01,58.76L203.29,58.22L202.57,59.72L201.84,65.07L201.12,60.47L200.39,56.62L199.67,62.4L198.22,55.87L197.5,55.97L196.78,53.83L196.05,56.72L194.61,59.4L193.88,55.44L193.16,55.33L192.44,49.45L191.71,56.19L190.99,53.19L190.27,58.33L189.54,56.51L188.82,53.41L188.1,57.69L187.37,53.62L186.65,56.19L185.93,53.62L185.2,58.01L184.48,56.51L183.76,59.29L183.03,58.65L182.31,55.65L181.59,52.34L180.86,57.26L180.14,56.83L179.41,50.41L177.97,54.48L177.24,55.97L176.52,61.86L175.8,55.76L175.07,56.62L174.35,55.33L173.63,55.44L172.9,60.9L172.18,55.22L171.46,64.32L170.73,54.9L170.01,62.72L169.29,56.19L168.56,57.37L167.84,64.11L167.12,61.33L165.67,54.15L164.95,63.57L164.22,65.61L163.5,63.36L162.78,56.94L162.05,59.93L159.16,64.54L158.43,59.83L157.71,60.58L156.99,55.76L155.54,61.97L154.82,61.54L154.09,62.4L153.37,62.07L151.92,67.1L151.2,62.72L149.75,54.8L149.03,61.97L148.31,59.72L147.58,60.47L146.86,56.72L146.14,58.11L145.41,64.54L144.69,62.5L143.97,57.15L143.24,58.33L142.52,54.48L141.8,57.9L141.07,53.51L140.35,61.11L139.63,56.4L138.9,62.61L138.18,61.86L137.45,59.72L136.73,61L136.01,60.58L134.56,65.61L133.84,63.04L133.11,63.89L132.39,69.78L130.94,66.68L130.22,67.75L128.77,68.39L128.05,66.03L127.33,73.85L126.6,69.99L125.88,71.39L125.16,74.6L123.71,69.99L122.99,73.95L122.26,71.49L121.54,73.85L120.82,79.09L120.09,73.63L119.37,84.44L118.65,78.77L117.92,77.81L117.2,70.96L116.47,76.63L115.75,73.42L114.3,79.31L113.58,79.2L112.86,79.41L112.13,80.7L111.41,80.59L110.69,78.24L109.96,76.63L109.24,71.81L107.79,75.56L107.07,75.99L106.35,74.49L105.62,69.99L104.9,81.55L104.18,77.38L103.45,85.51L102.73,79.52L100.56,74.17L99.84,76.84L98.39,81.98L97.67,74.81L96.22,90.33L95.49,83.8L94.77,88.83L94.05,79.95L93.32,80.38L92.6,76.09L91.88,88.19L91.15,85.19L90.43,72.78L89.71,88.94L88.26,82.3L87.54,83.27L86.81,84.76L86.09,81.66L85.37,78.66L84.64,92.15L83.92,84.87L83.2,99.43L82.47,85.19L81.75,89.04L80.3,98.03L79.58,88.62L78.86,82.62L78.13,88.62L76.69,94.18L75.96,91.29L75.24,96.54L74.52,94.82L73.07,102.42L72.34,95.47L71.62,88.3L70.9,96.64L69.45,102.96L68.73,92.47L68,97.39L67.28,95.89L65.83,109.81L65.11,106.81L64.39,114.41L63.66,108.31L62.22,122.76L61.49,117.83L60.05,129.82L59.32,126.08L57.88,144.38L57.15,133.89L56.43,137.85L55.71,150.37L54.98,145.77L54.26,147.27L52.81,152.62L52.09,158.08L51.36,152.08L50.64,161.93L49.19,160.75L48.47,154.12L47.75,157.01L47.02,166.32L46.3,171.35L45.58,160.54L44.85,177.55L44.13,171.45L43.41,161.18L42.68,170.6L41.24,168.35L40.51,168.35L39.07,184.62L38.34,186.87L37.62,185.26L36.9,195.64L35.45,193.29L34.73,194.46L34,206.99L33.28,204.63L31.83,208.48L31.11,212.98L30.38,215.98L29.66,215.44L28.94,205.59L28.21,212.34L27.49,206.66L26.77,220.79L26.04,211.27L25.32,216.4L23.87,227.64L23.15,223.79L22.43,227.86L21.7,224.43L20.98,225.39L20.26,224L19.53,228.18L18.81,227.64L15.92,235.45L15.19,239.95L13.75,243.59L13.02,244.23L12.3,245.3L11.58,244.98L8.68,245.84L7.96,245.62L7.23,245.3L6.51,245.94L3.62,245.41L2.89,245.51L0,245.84" style="vector-effect: non-scaling-stroke; fill: none; stroke: rgb(0, 0, 0); stroke-opacity: 0; stroke-width: 2px; opacity: 1;"/></g><g class="points"/><g class="text"/></g><g class="trace scatter tracec4f70b" style="stroke-miterlimit: 2; opacity: 1;"><g class="fills"/><g class="errorbars"/><g class="lines"><path class="js-line" d="M0,245.51L3.62,244.87L4.34,244.66L5.06,244.44L5.79,241.02L6.51,241.02L7.23,233.31L8.68,241.45L9.4,232.89L10.13,225.39L10.85,230.1L11.58,218.54L12.3,222.4L13.02,229.25L13.75,226.68L14.47,226.46L15.19,220.69L15.92,220.04L16.64,227.11L18.09,232.67L18.81,235.24L19.53,232.67L20.26,233.96L20.98,229.68L21.7,231.6L22.43,232.89L23.15,227.11L23.87,231.17L24.6,229.46L26.04,224.11L26.77,211.27L27.49,209.77L28.21,211.48L28.94,194.79L29.66,200.35L31.83,167.39L32.56,163.96L33.28,162.25L34,163.11L35.45,140.2L36.17,147.69L36.9,136.14L37.62,170.81L38.34,168.89L39.07,142.56L39.79,143.84L40.51,154.76L41.24,153.47L41.96,148.12L43.41,123.93L44.13,130.14L44.85,130.57L45.58,111.31L47.02,118.58L47.75,124.15L48.47,114.09L49.19,119.44L49.92,119.01L50.64,122.01L52.09,101.25L52.81,126.93L53.54,128.22L54.26,118.58L55.71,110.24L56.43,114.73L57.15,111.31L57.88,117.09L59.32,101.89L60.05,101.89L61.49,101.25L62.22,107.24L62.94,98.46L63.66,115.16L64.39,115.8L65.11,115.16L65.83,115.37L66.56,103.39L67.28,105.31L68,117.94L68.73,101.25L69.45,123.08L70.9,96.54L71.62,98.89L73.07,97.18L73.79,92.04L75.24,118.37L75.96,102.96L76.69,102.32L77.41,99.53L78.86,109.38L79.58,112.8L80.3,111.52L81.03,89.47L81.75,87.76L82.47,93.75L83.2,86.05L83.92,87.55L84.64,95.47L85.37,95.25L86.09,93.11L86.81,92.04L87.54,102.1L88.26,85.83L88.98,88.62L89.71,84.12L90.43,90.97L91.15,90.11L91.88,92.26L92.6,86.26L93.32,88.62L94.77,98.03L95.49,90.97L96.94,95.89L97.67,88.4L98.39,82.62L99.11,94.18L99.84,78.34L100.56,86.48L101.28,86.9L102.01,89.47L103.45,83.69L104.18,84.12L104.9,86.05L105.62,73.2L106.35,87.55L107.07,83.69L107.79,78.77L108.52,79.63L109.24,77.7L109.96,84.12L110.69,80.48L111.41,82.84L112.13,83.69L112.86,81.98L113.58,82.2L114.3,80.7L115.03,82.84L115.75,74.92L116.47,82.84L117.2,74.06L117.92,77.06L118.65,71.28L119.37,80.27L120.09,74.06L120.82,74.7L121.54,78.13L122.26,75.99L122.99,69.78L123.71,70.42L124.43,67.85L125.16,72.56L125.88,67.43L126.6,61.65L127.33,73.85L128.05,74.49L128.77,62.5L129.5,65.07L130.22,63.36L131.67,73.85L132.39,61.86L133.11,66.14L133.84,63.57L134.56,61.43L135.28,67L136.01,69.14L136.73,67.85L137.45,76.63L138.18,70.64L138.9,69.99L139.63,77.7L140.35,72.78L141.07,73.42L141.8,70.21L142.52,70.42L143.24,75.56L143.97,61.86L144.69,69.14L145.41,72.78L146.14,70.64L146.86,72.13L147.58,68.5L148.31,68.28L149.03,75.13L151.2,65.07L151.92,68.71L152.65,65.29L153.37,72.56L154.82,63.79L155.54,66.78L156.26,64.64L156.99,66.78L158.43,66.57L159.16,68.92L160.61,63.14L161.33,61.86L162.05,59.08L162.78,65.5L163.5,67.21L164.22,58.65L164.95,64.43L165.67,61.86L166.39,61L167.12,64.64L167.84,58.22L168.56,67.43L170.01,56.72L170.73,54.58L171.46,62.93L172.18,53.73L172.9,52.23L173.63,61.43L175.07,56.94L175.8,57.15L176.52,52.87L177.24,64L179.41,47.3L180.14,59.72L181.59,56.72L182.31,47.73L183.76,58.01L184.48,43.67L185.2,60.36L185.93,60.15L186.65,63.79L187.37,55.44L188.1,60.15L189.54,55.22L190.27,48.59L190.99,47.09L191.71,59.51L193.16,50.52L193.88,55.22L194.61,44.31L195.33,58.01L197.5,52.01L198.22,48.16L198.95,43.45L199.67,50.94L200.39,49.23L201.12,59.72L202.57,47.3L203.29,63.79L204.01,52.01L204.74,58.65L206.18,64.64L206.91,52.44L207.63,53.51L208.35,63.79L209.08,55.44L209.8,62.93L210.52,53.3L211.25,55.87L211.97,49.02L212.69,57.37L213.42,57.15L214.14,52.01L214.86,51.37L215.59,54.8L216.31,59.51L217.03,53.51L218.48,61.22L219.2,47.3L220.65,61L221.37,56.94L222.82,57.37L223.55,61.43L224.27,61.22L224.99,55.65L225.72,55.65L226.44,53.3L228.61,49.87L229.33,43.45L230.78,51.16L231.5,48.38L232.23,50.52L232.95,49.66L234.4,39.81L235.12,48.38L235.84,40.24L236.57,43.67L237.29,42.6L238.01,46.66L238.74,43.02L239.46,45.16L240.18,46.02L240.91,43.02L241.63,36.6L242.35,46.88L243.08,45.16L243.8,48.59L244.53,47.3L245.25,41.31L245.97,46.02L246.7,44.09L248.14,41.31L248.87,43.88L249.59,40.46L250.31,50.09L251.76,40.03L252.48,41.31L253.21,47.09L253.93,42.6L254.65,45.16L255.38,40.24L256.1,47.09L256.82,42.81L257.55,47.3L258.27,40.88L258.99,43.24L259.72,41.53L260.44,46.45L261.16,44.74L262.61,46.02L263.33,45.16L264.06,41.95L264.78,48.38L266.23,39.81L266.95,41.74L267.68,41.53L268.4,42.38L269.85,51.16L270.57,43.88L271.29,50.52L272.02,43.67L272.74,46.66L273.46,44.31L274.19,45.81L274.91,45.16L275.63,39.81L276.36,40.03L277.08,43.67L277.8,40.88L279.25,40.46L279.97,36.82L280.7,35.75L281.42,36.82L282.14,35.96L282.87,40.67L283.59,39.6L284.31,40.67L285.04,38.31L285.76,41.1L286.48,32.54L287.21,35.96L288.66,39.17L289.38,40.24L290.1,35.1L290.83,47.3L291.55,37.89L292.27,44.95L293,40.88L293.72,47.09L294.44,44.31L295.17,44.52L295.89,40.67L296.61,49.45L297.34,52.66L298.06,39.6L298.78,50.3L299.51,43.02L300.23,45.38L300.95,41.1L301.68,39.81L302.4,44.09L303.12,51.59L303.85,49.87L305.29,50.52L306.02,44.74L306.74,40.88L307.46,43.24L308.19,38.74L308.91,40.67L310.36,31.25L311.08,34.89L311.81,35.32L312.53,32.32L313.98,32.32L314.7,33.18L316.15,31.68L316.87,31.25L318.32,33.82L319.04,36.82L319.76,34.68L320.49,37.24L321.21,37.46L321.93,36.82L322.66,44.31L323.38,34.68L324.1,30.4L324.83,38.31L325.55,38.1L326.27,44.74L327,52.23L327.72,41.95L328.44,39.81L329.17,49.66L329.89,46.88L330.62,40.46L331.34,36.39L332.06,41.31L333.51,29.97L334.23,38.96L334.96,47.73L335.68,37.89L336.4,40.03L337.13,37.46L337.85,41.31L338.57,38.31L339.3,35.75L340.02,35.96L340.74,41.53L341.47,43.88L342.19,43.24L342.91,37.03L343.64,41.53L344.36,41.95L345.08,44.31L345.81,41.95L346.53,44.31L348.7,40.03L349.42,33.39L350.15,37.03L350.87,36.39L351.6,40.88L352.32,35.96L354.49,46.02L355.21,43.45L355.94,42.38L356.66,35.96L357.38,39.39L358.11,38.74L358.83,32.32L359.55,32.96L361,45.16" style="vector-effect: non-scaling-stroke; fill: none; stroke: rgb(0, 204, 150); stroke-opacity: 1; stroke-width: 2px; opacity: 1;"/></g><g class="points"/><g class="text"/></g><g class="trace scatter trace6d3c5a" style="stroke-miterlimit: 2; opacity: 1;"><g class="fills"><g><path class="js-fill" d="M0,245.3L2.17,244.02L2.89,242.63L4.34,230.96L5.06,223.9L5.79,215.55L6.51,218.01L8.68,205.17L9.4,204.1L10.13,191.79L10.85,201.63L12.3,211.27L13.02,203.35L13.75,203.24L14.47,204.95L15.19,188.47L15.92,205.38L16.64,184.62L17.36,201.1L18.09,202.92L18.81,197.67L19.53,170.92L20.26,193.71L20.98,158.72L21.7,170.17L23.15,194.79L23.87,194.57L24.6,194.89L25.32,166.96L26.77,158.4L27.49,163.64L29.66,144.38L30.38,143.31L31.11,143.09L31.83,131.85L33.28,122.54L34,130.04L34.73,113.45L35.45,116.98L36.17,109.27L36.9,116.55L37.62,120.19L38.34,118.8L39.79,101.14L40.51,109.17L41.24,111.09L41.96,103.17L42.68,114.09L43.41,101.14L44.13,93.86L44.85,103.71L45.58,100.6L46.3,85.83L47.02,84.55L47.75,86.8L48.47,78.98L49.19,81.45L49.92,76.09L50.64,82.84L51.36,72.88L52.09,79.09L52.81,78.66L53.54,84.55L54.26,83.48L54.98,77.49L56.43,92.47L57.15,93.65L57.88,79.63L58.6,87.01L60.05,85.08L60.77,79.41L61.49,93.33L62.22,89.9L63.66,87.44L64.39,96L65.11,96.22L65.83,90.97L66.56,90.11L67.28,82.73L68,84.34L68.73,84.12L70.9,73.95L71.62,78.77L72.34,77.7L73.07,85.73L73.79,83.48L74.52,83.69L75.24,90.01L75.96,80.59L77.41,84.44L78.13,79.84L80.3,64.32L81.03,67.53L81.75,58.33L82.47,69.35L83.92,61.54L84.64,66.25L85.37,66.46L86.09,61.97L87.54,65.18L88.26,63.79L88.98,60.79L89.71,64.54L90.43,70.53L91.15,69.67L91.88,69.03L92.6,77.7L93.32,78.98L94.05,87.01L94.77,87.87L95.49,86.15L96.22,83.69L96.94,84.12L97.67,73.85L98.39,75.02L99.11,79.09L99.84,73.95L100.56,75.02L101.28,71.28L102.01,74.6L102.73,69.25L104.18,73.63L104.9,69.99L105.62,63.04L106.35,74.06L107.07,67.75L107.79,70.74L108.52,75.24L109.24,65.29L112.13,76.84L112.86,77.59L115.03,71.39L115.75,65.39L116.47,74.7L117.2,64.54L117.92,70.42L118.65,67.21L119.37,69.57L120.09,69.35L121.54,56.83L122.26,67.21L122.99,61.54L123.71,62.29L124.43,53.73L125.16,57.04L125.88,55.97L126.6,56.83L127.33,59.93L128.05,54.48L129.5,51.59L130.22,60.36L131.67,63.14L132.39,58.22L133.11,56.4L133.84,59.72L135.28,55.22L136.01,61.11L136.73,66.14L137.45,50.19L138.18,50.19L138.9,57.04L139.63,58.86L140.35,58.01L141.07,55.12L141.8,56.08L142.52,52.98L143.24,58.22L143.97,55.55L144.69,61L146.14,61.75L146.86,57.15L147.58,57.26L148.31,62.07L149.03,59.29L149.75,66.03L151.2,56.3L151.92,58.54L152.65,57.37L153.37,58.86L154.09,58.33L154.82,52.01L156.99,60.25L157.71,58.54L158.43,60.47L159.16,47.3L159.88,51.37L160.61,46.77L161.33,54.37L162.05,50.73L162.78,58.97L163.5,57.79L164.22,47.63L164.95,52.34L165.67,57.26L166.39,50.41L167.12,54.9L167.84,51.91L168.56,42.38L169.29,44.84L170.01,39.28L170.73,45.7L171.46,40.13L172.18,40.78L172.9,42.49L173.63,41.74L174.35,43.67L175.07,49.87L177.24,38.42L177.97,40.99L178.69,42.7L179.41,34.46L180.14,37.78L180.86,35.21L182.31,36.39L183.03,35.64L183.76,33.82L184.48,39.17L185.2,31.47L185.93,33.61L187.37,38.42L188.1,29.11L189.54,36.6L190.27,32.75L190.99,22.58L191.71,36.6L192.44,33.39L193.16,25.04L194.61,32L195.33,30.5L196.05,32.96L196.78,38.42L197.5,34.57L198.22,35L198.95,24.29L199.67,35.21L200.39,25.58L201.12,34.14L201.84,38.1L202.57,34.46L203.29,31.47L204.01,32.32L204.74,27.83L205.46,36.6L206.18,36.71L206.91,31.14L207.63,43.13L208.35,37.46L209.08,36.5L209.8,37.03L211.25,35.64L211.97,38.42L212.69,36.28L213.42,40.46L214.14,39.92L214.86,42.17L215.59,34.25L216.31,36.39L217.03,38.85L217.76,33.5L219.2,24.83L219.93,30.5L220.65,32.54L221.37,30.82L222.1,36.6L222.82,32.96L224.27,23.65L224.99,35L225.72,31.04L226.44,36.07L227.89,29.97L228.61,26.97L230.78,43.13L231.5,32.96L232.23,31.68L232.95,36.6L233.67,33.28L234.4,26.22L235.12,24.72L235.84,31.14L236.57,35.1L237.29,34.78L238.74,29.75L239.46,33.93L240.91,29.32L241.63,30.07L242.35,29L243.08,29.65L243.8,29.54L244.53,31.89L245.25,30.5L245.97,32L246.7,33.61L247.42,37.14L248.14,34.89L248.87,35.64L249.59,34.03L250.31,25.69L251.04,32.32L251.76,24.29L252.48,35.43L253.21,32.43L253.93,37.67L254.65,32.75L256.1,35.85L256.82,34.14L257.55,24.62L258.27,37.78L258.99,38.64L259.72,33.61L260.44,35.85L261.16,33.07L261.89,29.97L262.61,30.93L263.33,32.32L264.06,29.43L264.78,42.6L265.51,40.13L266.23,33.93L266.95,34.89L267.68,35.85L268.4,30.18L270.57,37.24L271.29,34.35L272.02,36.82L272.74,34.68L273.46,38.85L274.19,28.25L274.91,33.28L275.63,29.54L277.8,37.03L278.53,34.03L279.25,34.57L279.97,25.9L280.7,27.4L281.42,25.15L282.14,30.72L282.87,26.22L283.59,30.18L284.31,25.15L285.04,23.33L285.76,26.22L286.48,25.36L287.21,26.22L288.66,24.19L289.38,28.36L290.83,15.84L291.55,25.69L292.27,36.17L293,24.83L293.72,24.72L294.44,23.55L295.17,29.32L295.89,21.83L296.61,25.47L297.34,22.9L298.06,23.97L298.78,23.33L300.23,24.29L300.95,21.4L301.68,25.04L302.4,20.12L303.12,27.18L303.85,22.15L304.57,28.79L305.29,25.79L306.02,29.86L306.74,18.62L307.46,25.15L308.19,18.84L308.91,23.55L309.64,22.69L310.36,18.3L311.08,22.48L311.81,19.05L312.53,21.83L313.25,19.05L313.98,19.8L314.7,12.95L315.42,16.7L316.15,19.05L316.87,24.83L317.59,24.83L318.32,16.8L319.04,26.54L319.76,21.94L320.49,20.55L321.21,16.7L322.66,26.44L323.38,22.05L324.1,24.51L324.83,20.23L325.55,25.58L326.27,20.33L327.72,25.79L328.44,24.83L330.62,20.98L331.34,16.27L332.06,17.23L332.79,20.87L333.51,20.55L334.23,27.4L334.96,20.55L335.68,26.44L336.4,17.55L337.13,21.94L337.85,21.94L338.57,17.87L339.3,27.93L340.02,17.45L341.47,31.04L342.19,25.79L342.91,24.51L343.64,26.33L344.36,21.19L345.08,22.15L345.81,23.44L346.53,18.19L347.25,22.48L347.98,21.83L349.42,16.8L350.15,19.91L350.87,20.12L351.6,16.7L352.32,16.8L353.04,22.48L353.77,17.34L354.49,24.94L355.21,17.23L355.94,21.51L356.66,21.83L357.38,14.13L358.11,22.48L358.83,18.94L360.28,22.8L361,18.19L361,57.58L360.28,52.55L359.55,49.34L358.83,49.87L358.11,48.59L357.38,47.95L356.66,49.98L355.94,56.4L355.21,50.19L354.49,49.34L353.77,53.41L353.04,54.48L352.32,51.05L351.6,57.15L350.87,54.8L350.15,57.04L349.42,51.59L348.7,51.26L347.98,54.58L347.25,45.49L346.53,50.84L345.08,57.26L344.36,55.76L343.64,46.98L342.91,55.87L341.47,57.79L340.74,58.86L339.3,44.95L338.57,56.08L337.85,48.48L337.13,57.58L336.4,58.86L335.68,56.08L334.96,61.75L334.23,53.3L333.51,61.65L332.79,60.04L332.06,48.27L331.34,60.9L330.62,62.72L329.89,60.9L329.17,61.97L328.44,58.44L327.72,63.79L327,56.4L326.27,55.01L325.55,51.69L323.38,40.46L322.66,47.52L321.93,41.42L321.21,44.95L319.04,51.8L318.32,45.06L317.59,37.14L316.87,41.85L314.7,49.23L313.98,46.13L313.25,52.34L312.53,45.38L311.08,50.62L310.36,49.34L308.91,48.48L308.19,51.26L307.46,49.55L306.74,56.4L306.02,58.76L305.29,56.83L304.57,53.19L303.85,58.97L303.12,59.4L302.4,51.16L301.68,59.29L300.95,52.98L299.51,56.94L298.78,58.11L298.06,50.62L297.34,56.83L296.61,56.62L295.89,51.05L294.44,59.18L293.72,55.76L293,54.58L292.27,55.12L291.55,59.08L290.83,56.08L289.38,51.37L288.66,52.34L287.21,57.26L286.48,52.12L285.76,52.12L285.04,57.26L284.31,51.8L283.59,57.47L282.87,56.62L282.14,48.16L280.7,58.44L279.97,53.3L278.53,47.84L277.8,46.88L276.36,50.41L275.63,48.05L274.91,52.23L274.19,63.25L272.74,49.02L272.02,52.98L271.29,53.73L270.57,51.59L269.12,57.26L268.4,50.19L267.68,53.41L266.95,52.76L266.23,56.94L265.51,53.83L264.78,52.44L264.06,59.29L262.61,54.26L261.89,54.15L261.16,55.97L260.44,54.05L259.72,59.18L258.99,56.62L258.27,55.65L257.55,56.19L256.82,51.16L256.1,52.66L255.38,45.49L254.65,51.8L253.93,47.09L253.21,52.34L252.48,51.05L251.76,53.62L251.04,49.12L250.31,54.05L249.59,58.44L248.87,50.41L248.14,53.73L247.42,53.19L245.97,53.08L245.25,58.01L244.53,51.69L243.8,56.94L242.35,52.87L241.63,57.04L240.91,54.48L240.18,47.41L239.46,53.3L238.74,47.63L237.29,51.8L236.57,54.15L235.84,52.76L235.12,62.72L233.67,59.29L232.95,59.51L232.23,65.5L231.5,57.9L230.78,56.51L230.06,57.15L229.33,58.22L228.61,64.54L227.89,65.29L227.16,71.28L226.44,70.85L225.72,65.71L224.99,72.24L224.27,70.64L223.55,74.7L222.82,70.64L221.37,79.31L220.65,71.92L219.93,71.6L219.2,79.52L217.76,93L217.03,76.52L216.31,77.38L215.59,89.47L214.86,82.52L214.14,87.01L212.69,77.59L211.97,78.13L211.25,74.17L210.52,78.98L209.8,87.65L209.08,84.44L208.35,86.58L207.63,71.17L206.18,77.16L205.46,69.67L204.74,73.95L204.01,83.16L203.29,72.88L202.57,73.85L201.84,70.1L201.12,73.63L200.39,63.36L199.67,69.67L198.95,77.27L198.22,76.42L197.5,73.1L196.78,78.02L196.05,64L195.33,71.81L194.61,75.45L193.88,71.49L193.16,66.03L192.44,67.64L190.99,76.74L190.27,72.46L189.54,68.82L188.82,69.25L188.1,69.67L187.37,65.93L185.93,75.02L185.2,70.21L183.76,67.1L183.03,68.28L181.59,64.11L180.86,72.03L179.41,66.57L178.69,66.25L177.97,72.03L177.24,69.67L176.52,59.72L175.8,71.28L175.07,72.13L174.35,70.85L172.9,79.52L172.18,65.29L171.46,80.16L170.73,66.57L169.29,76.84L168.56,79.09L167.84,79.31L167.12,78.56L166.39,70.96L165.67,71.71L164.22,77.59L163.5,70.21L162.78,74.49L162.05,69.14L161.33,72.24L160.61,69.35L159.16,76.84L158.43,75.77L157.71,72.46L156.99,72.67L156.26,75.77L155.54,74.81L154.82,69.67L154.09,79.09L153.37,75.45L151.92,71.17L151.2,72.24L150.48,69.57L149.75,79.84L149.03,80.59L148.31,74.81L147.58,72.56L146.86,79.31L145.41,82.73L144.69,81.55L143.97,83.59L143.24,79.63L142.52,81.87L141.8,73.85L139.63,84.01L138.9,73.42L137.45,80.7L136.73,76.84L136.01,78.56L135.28,85.19L133.11,71.81L132.39,75.67L131.67,80.7L130.94,78.02L130.22,75.77L129.5,76.09L128.05,83.27L127.33,74.38L126.6,86.8L125.88,84.44L125.16,88.4L124.43,80.8L123.71,79.84L122.99,81.34L122.26,79.41L121.54,86.9L120.09,83.27L119.37,85.19L117.92,84.98L117.2,87.44L115.75,84.01L115.03,86.15L114.3,87.65L113.58,87.01L112.86,89.69L112.13,97.61L111.41,96.43L110.69,100.82L109.96,96.54L109.24,110.66L108.52,98.36L107.79,103.6L106.35,104.14L105.62,102.64L104.9,105.63L104.18,103.28L102.73,105.53L102.01,111.84L101.28,105.95L100.56,109.38L99.84,109.49L99.11,107.45L96.94,122.12L96.22,138.81L95.49,137.1L94.77,131.64L94.05,126.72L93.32,145.34L92.6,139.88L91.88,147.05L91.15,149.19L90.43,148.12L89.71,149.09L88.98,152.62L88.26,146.41L87.54,159.36L86.09,153.05L85.37,160.86L82.47,141.38L81.75,147.27L81.03,146.3L80.3,141.7L79.58,140.63L78.86,143.73L77.41,139.24L76.69,147.91L74.52,145.55L73.79,160.97L72.34,146.3L71.62,149.51L70.9,142.88L70.17,149.41L68.73,153.05L68,150.48L66.56,170.6L65.83,163.64L65.11,157.97L64.39,161.71L63.66,167.6L62.94,155.19L62.22,158.93L61.49,171.03L60.77,169.21L60.05,175.09L59.32,172.42L58.6,179.59L57.88,184.72L57.15,173.38L56.43,178.3L55.71,192.86L54.98,193.93L54.26,186.65L52.81,180.44L52.09,197.46L51.36,193.71L50.64,184.51L49.92,171.56L49.19,182.69L48.47,184.94L47.75,191.79L47.02,183.65L46.3,186.97L45.58,186.22L44.85,204.2L43.41,220.36L42.68,210.3L41.96,220.69L41.24,214.58L40.51,222.08L39.79,213.19L38.34,218.33L37.62,217.58L36.9,217.69L36.17,216.08L35.45,217.8L34.73,222.83L33.28,214.05L32.56,226.36L31.83,235.24L31.11,221.65L29.66,243.59L28.94,244.34L26.77,245.51L26.04,243.27L25.32,245.41L24.6,244.34L23.15,245.09L22.43,245.09L20.26,245.62L19.53,245.3L18.09,244.77L17.36,245.73L16.64,245.19L15.92,245.84L15.19,245.19L14.47,245.62L13.75,244.55L13.02,241.55L12.3,244.66L11.58,244.44L10.13,244.55L9.4,243.48L7.23,245.19L6.51,244.66L3.62,245.94L2.89,245.73L1.45,245.62L0.72,246.05L0,246.05Z" style="fill: rgb(0, 204, 150); fill-opacity: 0.3; stroke-width: 0;"/></g></g><g class="errorbars"/><g class="lines"><path class="js-line" d="M0,245.3L2.17,244.02L2.89,242.63L4.34,230.96L5.06,223.9L5.79,215.55L6.51,218.01L8.68,205.17L9.4,204.1L10.13,191.79L10.85,201.63L12.3,211.27L13.02,203.35L13.75,203.24L14.47,204.95L15.19,188.47L15.92,205.38L16.64,184.62L17.36,201.1L18.09,202.92L18.81,197.67L19.53,170.92L20.26,193.71L20.98,158.72L21.7,170.17L23.15,194.79L23.87,194.57L24.6,194.89L25.32,166.96L26.77,158.4L27.49,163.64L29.66,144.38L30.38,143.31L31.11,143.09L31.83,131.85L33.28,122.54L34,130.04L34.73,113.45L35.45,116.98L36.17,109.27L36.9,116.55L37.62,120.19L38.34,118.8L39.79,101.14L40.51,109.17L41.24,111.09L41.96,103.17L42.68,114.09L43.41,101.14L44.13,93.86L44.85,103.71L45.58,100.6L46.3,85.83L47.02,84.55L47.75,86.8L48.47,78.98L49.19,81.45L49.92,76.09L50.64,82.84L51.36,72.88L52.09,79.09L52.81,78.66L53.54,84.55L54.26,83.48L54.98,77.49L56.43,92.47L57.15,93.65L57.88,79.63L58.6,87.01L60.05,85.08L60.77,79.41L61.49,93.33L62.22,89.9L63.66,87.44L64.39,96L65.11,96.22L65.83,90.97L66.56,90.11L67.28,82.73L68,84.34L68.73,84.12L70.9,73.95L71.62,78.77L72.34,77.7L73.07,85.73L73.79,83.48L74.52,83.69L75.24,90.01L75.96,80.59L77.41,84.44L78.13,79.84L80.3,64.32L81.03,67.53L81.75,58.33L82.47,69.35L83.92,61.54L84.64,66.25L85.37,66.46L86.09,61.97L87.54,65.18L88.26,63.79L88.98,60.79L89.71,64.54L90.43,70.53L91.15,69.67L91.88,69.03L92.6,77.7L93.32,78.98L94.05,87.01L94.77,87.87L95.49,86.15L96.22,83.69L96.94,84.12L97.67,73.85L98.39,75.02L99.11,79.09L99.84,73.95L100.56,75.02L101.28,71.28L102.01,74.6L102.73,69.25L104.18,73.63L104.9,69.99L105.62,63.04L106.35,74.06L107.07,67.75L107.79,70.74L108.52,75.24L109.24,65.29L112.13,76.84L112.86,77.59L115.03,71.39L115.75,65.39L116.47,74.7L117.2,64.54L117.92,70.42L118.65,67.21L119.37,69.57L120.09,69.35L121.54,56.83L122.26,67.21L122.99,61.54L123.71,62.29L124.43,53.73L125.16,57.04L125.88,55.97L126.6,56.83L127.33,59.93L128.05,54.48L129.5,51.59L130.22,60.36L131.67,63.14L132.39,58.22L133.11,56.4L133.84,59.72L135.28,55.22L136.01,61.11L136.73,66.14L137.45,50.19L138.18,50.19L138.9,57.04L139.63,58.86L140.35,58.01L141.07,55.12L141.8,56.08L142.52,52.98L143.24,58.22L143.97,55.55L144.69,61L146.14,61.75L146.86,57.15L147.58,57.26L148.31,62.07L149.03,59.29L149.75,66.03L151.2,56.3L151.92,58.54L152.65,57.37L153.37,58.86L154.09,58.33L154.82,52.01L156.99,60.25L157.71,58.54L158.43,60.47L159.16,47.3L159.88,51.37L160.61,46.77L161.33,54.37L162.05,50.73L162.78,58.97L163.5,57.79L164.22,47.63L164.95,52.34L165.67,57.26L166.39,50.41L167.12,54.9L167.84,51.91L168.56,42.38L169.29,44.84L170.01,39.28L170.73,45.7L171.46,40.13L172.18,40.78L172.9,42.49L173.63,41.74L174.35,43.67L175.07,49.87L177.24,38.42L177.97,40.99L178.69,42.7L179.41,34.46L180.14,37.78L180.86,35.21L182.31,36.39L183.03,35.64L183.76,33.82L184.48,39.17L185.2,31.47L185.93,33.61L187.37,38.42L188.1,29.11L189.54,36.6L190.27,32.75L190.99,22.58L191.71,36.6L192.44,33.39L193.16,25.04L194.61,32L195.33,30.5L196.05,32.96L196.78,38.42L197.5,34.57L198.22,35L198.95,24.29L199.67,35.21L200.39,25.58L201.12,34.14L201.84,38.1L202.57,34.46L203.29,31.47L204.01,32.32L204.74,27.83L205.46,36.6L206.18,36.71L206.91,31.14L207.63,43.13L208.35,37.46L209.08,36.5L209.8,37.03L211.25,35.64L211.97,38.42L212.69,36.28L213.42,40.46L214.14,39.92L214.86,42.17L215.59,34.25L216.31,36.39L217.03,38.85L217.76,33.5L219.2,24.83L219.93,30.5L220.65,32.54L221.37,30.82L222.1,36.6L222.82,32.96L224.27,23.65L224.99,35L225.72,31.04L226.44,36.07L227.89,29.97L228.61,26.97L230.78,43.13L231.5,32.96L232.23,31.68L232.95,36.6L233.67,33.28L234.4,26.22L235.12,24.72L235.84,31.14L236.57,35.1L237.29,34.78L238.74,29.75L239.46,33.93L240.91,29.32L241.63,30.07L242.35,29L243.08,29.65L243.8,29.54L244.53,31.89L245.25,30.5L245.97,32L246.7,33.61L247.42,37.14L248.14,34.89L248.87,35.64L249.59,34.03L250.31,25.69L251.04,32.32L251.76,24.29L252.48,35.43L253.21,32.43L253.93,37.67L254.65,32.75L256.1,35.85L256.82,34.14L257.55,24.62L258.27,37.78L258.99,38.64L259.72,33.61L260.44,35.85L261.16,33.07L261.89,29.97L262.61,30.93L263.33,32.32L264.06,29.43L264.78,42.6L265.51,40.13L266.23,33.93L266.95,34.89L267.68,35.85L268.4,30.18L270.57,37.24L271.29,34.35L272.02,36.82L272.74,34.68L273.46,38.85L274.19,28.25L274.91,33.28L275.63,29.54L277.8,37.03L278.53,34.03L279.25,34.57L279.97,25.9L280.7,27.4L281.42,25.15L282.14,30.72L282.87,26.22L283.59,30.18L284.31,25.15L285.04,23.33L285.76,26.22L286.48,25.36L287.21,26.22L288.66,24.19L289.38,28.36L290.83,15.84L291.55,25.69L292.27,36.17L293,24.83L293.72,24.72L294.44,23.55L295.17,29.32L295.89,21.83L296.61,25.47L297.34,22.9L298.06,23.97L298.78,23.33L300.23,24.29L300.95,21.4L301.68,25.04L302.4,20.12L303.12,27.18L303.85,22.15L304.57,28.79L305.29,25.79L306.02,29.86L306.74,18.62L307.46,25.15L308.19,18.84L308.91,23.55L309.64,22.69L310.36,18.3L311.08,22.48L311.81,19.05L312.53,21.83L313.25,19.05L313.98,19.8L314.7,12.95L315.42,16.7L316.15,19.05L316.87,24.83L317.59,24.83L318.32,16.8L319.04,26.54L319.76,21.94L320.49,20.55L321.21,16.7L322.66,26.44L323.38,22.05L324.1,24.51L324.83,20.23L325.55,25.58L326.27,20.33L327.72,25.79L328.44,24.83L330.62,20.98L331.34,16.27L332.06,17.23L332.79,20.87L333.51,20.55L334.23,27.4L334.96,20.55L335.68,26.44L336.4,17.55L337.13,21.94L337.85,21.94L338.57,17.87L339.3,27.93L340.02,17.45L341.47,31.04L342.19,25.79L342.91,24.51L343.64,26.33L344.36,21.19L345.08,22.15L345.81,23.44L346.53,18.19L347.25,22.48L347.98,21.83L349.42,16.8L350.15,19.91L350.87,20.12L351.6,16.7L352.32,16.8L353.04,22.48L353.77,17.34L354.49,24.94L355.21,17.23L355.94,21.51L356.66,21.83L357.38,14.13L358.11,22.48L358.83,18.94L360.28,22.8L361,18.19L361,57.58L360.28,52.55L359.55,49.34L358.83,49.87L358.11,48.59L357.38,47.95L356.66,49.98L355.94,56.4L355.21,50.19L354.49,49.34L353.77,53.41L353.04,54.48L352.32,51.05L351.6,57.15L350.87,54.8L350.15,57.04L349.42,51.59L348.7,51.26L347.98,54.58L347.25,45.49L346.53,50.84L345.08,57.26L344.36,55.76L343.64,46.98L342.91,55.87L341.47,57.79L340.74,58.86L339.3,44.95L338.57,56.08L337.85,48.48L337.13,57.58L336.4,58.86L335.68,56.08L334.96,61.75L334.23,53.3L333.51,61.65L332.79,60.04L332.06,48.27L331.34,60.9L330.62,62.72L329.89,60.9L329.17,61.97L328.44,58.44L327.72,63.79L327,56.4L326.27,55.01L325.55,51.69L323.38,40.46L322.66,47.52L321.93,41.42L321.21,44.95L319.04,51.8L318.32,45.06L317.59,37.14L316.87,41.85L314.7,49.23L313.98,46.13L313.25,52.34L312.53,45.38L311.08,50.62L310.36,49.34L308.91,48.48L308.19,51.26L307.46,49.55L306.74,56.4L306.02,58.76L305.29,56.83L304.57,53.19L303.85,58.97L303.12,59.4L302.4,51.16L301.68,59.29L300.95,52.98L299.51,56.94L298.78,58.11L298.06,50.62L297.34,56.83L296.61,56.62L295.89,51.05L294.44,59.18L293.72,55.76L293,54.58L292.27,55.12L291.55,59.08L290.83,56.08L289.38,51.37L288.66,52.34L287.21,57.26L286.48,52.12L285.76,52.12L285.04,57.26L284.31,51.8L283.59,57.47L282.87,56.62L282.14,48.16L280.7,58.44L279.97,53.3L278.53,47.84L277.8,46.88L276.36,50.41L275.63,48.05L274.91,52.23L274.19,63.25L272.74,49.02L272.02,52.98L271.29,53.73L270.57,51.59L269.12,57.26L268.4,50.19L267.68,53.41L266.95,52.76L266.23,56.94L265.51,53.83L264.78,52.44L264.06,59.29L262.61,54.26L261.89,54.15L261.16,55.97L260.44,54.05L259.72,59.18L258.99,56.62L258.27,55.65L257.55,56.19L256.82,51.16L256.1,52.66L255.38,45.49L254.65,51.8L253.93,47.09L253.21,52.34L252.48,51.05L251.76,53.62L251.04,49.12L250.31,54.05L249.59,58.44L248.87,50.41L248.14,53.73L247.42,53.19L245.97,53.08L245.25,58.01L244.53,51.69L243.8,56.94L242.35,52.87L241.63,57.04L240.91,54.48L240.18,47.41L239.46,53.3L238.74,47.63L237.29,51.8L236.57,54.15L235.84,52.76L235.12,62.72L233.67,59.29L232.95,59.51L232.23,65.5L231.5,57.9L230.78,56.51L230.06,57.15L229.33,58.22L228.61,64.54L227.89,65.29L227.16,71.28L226.44,70.85L225.72,65.71L224.99,72.24L224.27,70.64L223.55,74.7L222.82,70.64L221.37,79.31L220.65,71.92L219.93,71.6L219.2,79.52L217.76,93L217.03,76.52L216.31,77.38L215.59,89.47L214.86,82.52L214.14,87.01L212.69,77.59L211.97,78.13L211.25,74.17L210.52,78.98L209.8,87.65L209.08,84.44L208.35,86.58L207.63,71.17L206.18,77.16L205.46,69.67L204.74,73.95L204.01,83.16L203.29,72.88L202.57,73.85L201.84,70.1L201.12,73.63L200.39,63.36L199.67,69.67L198.95,77.27L198.22,76.42L197.5,73.1L196.78,78.02L196.05,64L195.33,71.81L194.61,75.45L193.88,71.49L193.16,66.03L192.44,67.64L190.99,76.74L190.27,72.46L189.54,68.82L188.82,69.25L188.1,69.67L187.37,65.93L185.93,75.02L185.2,70.21L183.76,67.1L183.03,68.28L181.59,64.11L180.86,72.03L179.41,66.57L178.69,66.25L177.97,72.03L177.24,69.67L176.52,59.72L175.8,71.28L175.07,72.13L174.35,70.85L172.9,79.52L172.18,65.29L171.46,80.16L170.73,66.57L169.29,76.84L168.56,79.09L167.84,79.31L167.12,78.56L166.39,70.96L165.67,71.71L164.22,77.59L163.5,70.21L162.78,74.49L162.05,69.14L161.33,72.24L160.61,69.35L159.16,76.84L158.43,75.77L157.71,72.46L156.99,72.67L156.26,75.77L155.54,74.81L154.82,69.67L154.09,79.09L153.37,75.45L151.92,71.17L151.2,72.24L150.48,69.57L149.75,79.84L149.03,80.59L148.31,74.81L147.58,72.56L146.86,79.31L145.41,82.73L144.69,81.55L143.97,83.59L143.24,79.63L142.52,81.87L141.8,73.85L139.63,84.01L138.9,73.42L137.45,80.7L136.73,76.84L136.01,78.56L135.28,85.19L133.11,71.81L132.39,75.67L131.67,80.7L130.94,78.02L130.22,75.77L129.5,76.09L128.05,83.27L127.33,74.38L126.6,86.8L125.88,84.44L125.16,88.4L124.43,80.8L123.71,79.84L122.99,81.34L122.26,79.41L121.54,86.9L120.09,83.27L119.37,85.19L117.92,84.98L117.2,87.44L115.75,84.01L115.03,86.15L114.3,87.65L113.58,87.01L112.86,89.69L112.13,97.61L111.41,96.43L110.69,100.82L109.96,96.54L109.24,110.66L108.52,98.36L107.79,103.6L106.35,104.14L105.62,102.64L104.9,105.63L104.18,103.28L102.73,105.53L102.01,111.84L101.28,105.95L100.56,109.38L99.84,109.49L99.11,107.45L96.94,122.12L96.22,138.81L95.49,137.1L94.77,131.64L94.05,126.72L93.32,145.34L92.6,139.88L91.88,147.05L91.15,149.19L90.43,148.12L89.71,149.09L88.98,152.62L88.26,146.41L87.54,159.36L86.09,153.05L85.37,160.86L82.47,141.38L81.75,147.27L81.03,146.3L80.3,141.7L79.58,140.63L78.86,143.73L77.41,139.24L76.69,147.91L74.52,145.55L73.79,160.97L72.34,146.3L71.62,149.51L70.9,142.88L70.17,149.41L68.73,153.05L68,150.48L66.56,170.6L65.83,163.64L65.11,157.97L64.39,161.71L63.66,167.6L62.94,155.19L62.22,158.93L61.49,171.03L60.77,169.21L60.05,175.09L59.32,172.42L58.6,179.59L57.88,184.72L57.15,173.38L56.43,178.3L55.71,192.86L54.98,193.93L54.26,186.65L52.81,180.44L52.09,197.46L51.36,193.71L50.64,184.51L49.92,171.56L49.19,182.69L48.47,184.94L47.75,191.79L47.02,183.65L46.3,186.97L45.58,186.22L44.85,204.2L43.41,220.36L42.68,210.3L41.96,220.69L41.24,214.58L40.51,222.08L39.79,213.19L38.34,218.33L37.62,217.58L36.9,217.69L36.17,216.08L35.45,217.8L34.73,222.83L33.28,214.05L32.56,226.36L31.83,235.24L31.11,221.65L29.66,243.59L28.94,244.34L26.77,245.51L26.04,243.27L25.32,245.41L24.6,244.34L23.15,245.09L22.43,245.09L20.26,245.62L19.53,245.3L18.09,244.77L17.36,245.73L16.64,245.19L15.92,245.84L15.19,245.19L14.47,245.62L13.75,244.55L13.02,241.55L12.3,244.66L11.58,244.44L10.13,244.55L9.4,243.48L7.23,245.19L6.51,244.66L3.62,245.94L2.89,245.73L1.45,245.62L0.72,246.05L0,246.05" style="vector-effect: non-scaling-stroke; fill: none; stroke: rgb(0, 0, 0); stroke-opacity: 0; stroke-width: 2px; opacity: 1;"/></g><g class="points"/><g class="text"/></g></g></g><g class="overplot"/><path class="xlines-above crisp" d="M0,0" style="fill: none;"/><path class="ylines-above crisp" d="M0,0" style="fill: none;"/><g class="overlines-above"/><g class="xaxislayer-above"><g class="xtick"><text text-anchor="middle" x="0" y="272" transform="translate(108.2,0)" style="font-family: 'Latin Modern Roman'; font-size: 12px; fill: rgb(0, 0, 0); fill-opacity: 1; white-space: pre;">10M</text></g><g class="xtick"><text text-anchor="middle" x="0" y="272" transform="translate(179.13,0)" style="font-family: 'Latin Modern Roman'; font-size: 12px; fill: rgb(0, 0, 0); fill-opacity: 1; white-space: pre;">20M</text></g><g class="xtick"><text text-anchor="middle" x="0" y="272" transform="translate(250.06,0)" style="font-family: 'Latin Modern Roman'; font-size: 12px; fill: rgb(0, 0, 0); fill-opacity: 1; white-space: pre;">30M</text></g><g class="xtick"><text text-anchor="middle" x="0" y="272" transform="translate(320.98,0)" style="font-family: 'Latin Modern Roman'; font-size: 12px; fill: rgb(0, 0, 0); fill-opacity: 1; white-space: pre;">40M</text></g><g class="xtick"><text text-anchor="middle" x="0" y="272" transform="translate(391.91,0)" style="font-family: 'Latin Modern Roman'; font-size: 12px; fill: rgb(0, 0, 0); fill-opacity: 1; white-space: pre;">50M</text></g></g><g class="yaxislayer-above"><g class="ytick"><text text-anchor="end" x="37" y="4.199999999999999" transform="translate(0,247.01)" style="font-family: 'Latin Modern Roman'; font-size: 12px; fill: rgb(0, 0, 0); fill-opacity: 1; white-space: pre;">0</text></g><g class="ytick"><text text-anchor="end" x="37" y="4.199999999999999" transform="translate(0,204.2)" style="font-family: 'Latin Modern Roman'; font-size: 12px; fill: rgb(0, 0, 0); fill-opacity: 1; white-space: pre;">10</text></g><g class="ytick"><text text-anchor="end" x="37" y="4.199999999999999" transform="translate(0,161.39)" style="font-family: 'Latin Modern Roman'; font-size: 12px; fill: rgb(0, 0, 0); fill-opacity: 1; white-space: pre;">20</text></g><g class="ytick"><text text-anchor="end" x="37" y="4.199999999999999" transform="translate(0,118.58)" style="font-family: 'Latin Modern Roman'; font-size: 12px; fill: rgb(0, 0, 0); fill-opacity: 1; white-space: pre;">30</text></g><g class="ytick"><text text-anchor="end" x="37" y="4.199999999999999" transform="translate(0,75.77)" style="font-family: 'Latin Modern Roman'; font-size: 12px; fill: rgb(0, 0, 0); fill-opacity: 1; white-space: pre;">40</text></g><g class="ytick"><text text-anchor="end" x="37" y="4.199999999999999" transform="translate(0,32.96)" style="font-family: 'Latin Modern Roman'; font-size: 12px; fill: rgb(0, 0, 0); fill-opacity: 1; white-space: pre;">50</text></g></g><g class="overaxes-above"/></g></g><g class="polarlayer"/><g class="ternarylayer"/><g class="geolayer"/><g class="funnelarealayer"/><g class="pielayer"/><g class="treemaplayer"/><g class="sunburstlayer"/><g class="glimages"/><defs id="topdefs-f4ed1e"><g class="clips"/><clipPath id="legendf4ed1e"><rect width="194" height="67" x="0" y="0"/></clipPath></defs><g class="layer-above"><g class="imagelayer"/><g class="shapelayer"/></g><g class="infolayer"><g class="legend" pointer-events="all" transform="translate(406,0)"><rect class="bg" shape-rendering="crispEdges" style="stroke: rgb(68, 68, 68); stroke-opacity: 1; fill: rgb(255, 255, 255); fill-opacity: 1; stroke-width: 0px;" width="194" height="67" x="0" y="0"/><g class="scrollbox" transform="" clip-path="url('#legendf4ed1e')"><g class="groups"><g class="traces" transform="translate(0,14.5)" style="opacity: 1;"><text class="legendtext" text-anchor="start" x="40" y="4.680000000000001" style="font-family: 'Latin Modern Roman'; font-size: 12px; fill: rgb(0, 0, 0); fill-opacity: 1; white-space: pre;">PPO, Bayesian agg. (n=13)</text><g class="layers" style="opacity: 1;"><g class="legendfill"/><g class="legendlines"><path class="js-line" d="M5,0h30" style="fill: none; stroke: rgb(99, 110, 250); stroke-opacity: 1; stroke-width: 2px;"/></g><g class="legendsymbols"><g class="legendpoints"/></g></g><rect class="legendtoggle" x="0" y="-9.5" width="188.234375" height="19" style="fill: rgb(0, 0, 0); fill-opacity: 0;"/></g><g class="traces" transform="translate(0,33.5)" style="opacity: 1;"><text class="legendtext" text-anchor="start" x="40" y="4.680000000000001" style="font-family: 'Latin Modern Roman'; font-size: 12px; fill: rgb(0, 0, 0); fill-opacity: 1; white-space: pre;">PPO, Mean agg. (n=7)</text><g class="layers" style="opacity: 1;"><g class="legendfill"/><g class="legendlines"><path class="js-line" d="M5,0h30" style="fill: none; stroke: rgb(239, 85, 59); stroke-opacity: 1; stroke-width: 2px;"/></g><g class="legendsymbols"><g class="legendpoints"/></g></g><rect class="legendtoggle" x="0" y="-9.5" width="188.234375" height="19" style="fill: rgb(0, 0, 0); fill-opacity: 0;"/></g><g class="traces" transform="translate(0,52.5)" style="opacity: 1;"><text class="legendtext" text-anchor="start" x="40" y="4.680000000000001" style="font-family: 'Latin Modern Roman'; font-size: 12px; fill: rgb(0, 0, 0); fill-opacity: 1; white-space: pre;">TRL, Bayesian Agg. (n=11)</text><g class="layers" style="opacity: 1;"><g class="legendfill"/><g class="legendlines"><path class="js-line" d="M5,0h30" style="fill: none; stroke: rgb(0, 204, 150); stroke-opacity: 1; stroke-width: 2px;"/></g><g class="legendsymbols"><g class="legendpoints"/></g></g><rect class="legendtoggle" x="0" y="-9.5" width="188.234375" height="19" style="fill: rgb(0, 0, 0); fill-opacity: 0;"/></g></g></g><rect class="scrollbar" rx="20" ry="3" width="0" height="0" style="fill: rgb(128, 139, 164); fill-opacity: 1;" x="0" y="0"/></g><g class="g-gtitle"/><g class="g-xtitle" transform="translate(0,-3.8000000000000114)"><text class="xtitle" x="218.5" y="299.8" text-anchor="middle" style="font-family: 'Latin Modern Roman'; font-size: 14px; fill: rgb(0, 0, 0); opacity: 1; font-weight: normal; white-space: pre;">Agent Steps</text></g><g class="g-ytitle" transform="translate(15.8154296875,0)"><text class="ytitle" transform="rotate(-90,0.18437500000000284,129.5)" x="0.18437500000000284" y="129.5" text-anchor="middle" style="font-family: 'Latin Modern Roman'; font-size: 14px; fill: rgb(0, 0, 0); opacity: 1; font-weight: normal; white-space: pre;">Avg. Reward</text></g></g></svg>