<svg class="main-svg" xmlns="http://www.w3.org/2000/svg" xmlns:xlink="http://www.w3.org/1999/xlink" width="700" height="500" style="" viewBox="0 0 700 500"><rect x="0" y="0" width="700" height="500" style="fill: rgb(255, 255, 255); fill-opacity: 1;"/><defs id="defs-881154"><g class="clips"><clipPath id="clip881154xyplot" class="plotclip"><rect width="409" height="320"/></clipPath><clipPath class="axesclip" id="clip881154x"><rect x="80" y="0" width="409" height="500"/></clipPath><clipPath class="axesclip" id="clip881154y"><rect x="0" y="100" width="700" height="320"/></clipPath><clipPath class="axesclip" id="clip881154xy"><rect x="80" y="100" width="409" height="320"/></clipPath></g><g class="gradients"/></defs><g class="bglayer"><rect class="bg" x="80" y="100" width="409" height="320" style="fill: rgb(229, 236, 246); fill-opacity: 1; stroke-width: 0;"/></g><g class="layer-below"><g class="imagelayer"/><g class="shapelayer"/></g><g class="cartesianlayer"><g class="subplot xy"><g class="layer-subplot"><g class="shapelayer"/><g class="imagelayer"/></g><g class="gridlayer"><g class="x"><path class="xgrid crisp" transform="translate(180.72,0)" d="M0,100v320" style="stroke: rgb(255, 255, 255); stroke-opacity: 1; stroke-width: 1px;"/><path class="xgrid crisp" transform="translate(283.53,0)" d="M0,100v320" style="stroke: rgb(255, 255, 255); stroke-opacity: 1; stroke-width: 1px;"/><path class="xgrid crisp" transform="translate(386.35,0)" d="M0,100v320" style="stroke: rgb(255, 255, 255); stroke-opacity: 1; stroke-width: 1px;"/></g><g class="y"><path class="ygrid crisp" transform="translate(0,399.23)" d="M80,0h409" style="stroke: rgb(255, 255, 255); stroke-opacity: 1; stroke-width: 1px;"/><path class="ygrid crisp" transform="translate(0,341.41999999999996)" d="M80,0h409" style="stroke: rgb(255, 255, 255); stroke-opacity: 1; stroke-width: 1px;"/><path class="ygrid crisp" transform="translate(0,283.61)" d="M80,0h409" style="stroke: rgb(255, 255, 255); stroke-opacity: 1; stroke-width: 1px;"/><path class="ygrid crisp" transform="translate(0,225.8)" d="M80,0h409" style="stroke: rgb(255, 255, 255); stroke-opacity: 1; stroke-width: 1px;"/><path class="ygrid crisp" transform="translate(0,167.99)" d="M80,0h409" style="stroke: rgb(255, 255, 255); stroke-opacity: 1; stroke-width: 1px;"/></g></g><g class="zerolinelayer"><path class="yzl zl crisp" transform="translate(0,110.19)" d="M80,0h409" style="stroke: rgb(255, 255, 255); stroke-opacity: 1; stroke-width: 2px;"/></g><path class="xlines-below"/><path class="ylines-below"/><g class="overlines-below"/><g class="xaxislayer-below"/><g class="yaxislayer-below"/><g class="overaxes-below"/><g class="plot" transform="translate(80,100)" clip-path="url('#clip881154xyplot')"><g class="scatterlayer mlayer"><g class="trace scatter trace8de770" style="stroke-miterlimit: 2; opacity: 1;"><g class="fills"/><g class="errorbars"/><g class="lines"><path class="js-line" d="M0,295.21L4.19,242.59L6.29,230.01L8.39,239L10.49,236.43L12.58,235.98L14.68,227.69L16.78,243.85L18.88,213.39L20.97,199.55L23.07,212.1L25.17,201.27L27.27,185.88L31.46,166.27L33.56,160.02L37.75,136.22L39.85,139.83L41.95,134.53L44.05,146.54L46.14,150.36L48.24,141.77L50.34,146.7L52.44,133.94L54.53,134.98L56.63,137.8L58.73,141.09L60.83,137.64L62.92,134.79L65.02,137.34L67.12,131.47L69.22,135.28L71.31,135.96L73.41,115.47L75.51,114.81L77.61,123.24L79.7,115.85L81.8,112.12L83.9,119.55L85.99,119.08L88.09,107.79L90.19,108.72L92.29,88.04L94.38,113.45L96.48,108.82L98.58,109.96L100.68,108.66L102.77,116.75L104.87,110.14L106.97,94.27L109.07,108.14L111.16,93.37L113.26,107.83L115.36,103.34L119.55,106.41L121.65,105.55L125.85,98.84L127.94,113.08L130.04,75.36L132.14,104.71L134.24,96.39L136.33,106.56L138.43,99.26L140.53,73.56L142.63,99.08L144.72,72.27L146.82,67.11L148.92,86.13L151.02,69.29L153.11,77.58L155.21,74.3L157.31,68.98L159.41,57.75L161.5,59.87L163.6,55.25L165.7,25.43L167.79,46.15L169.89,32.48L171.99,39.92L174.09,30.09L176.18,43.29L178.28,25.14L180.38,29.53L182.48,25.94L184.57,22.46L186.67,28.02L188.77,24.94L190.87,24.09L192.96,26.58L195.06,26.16L197.16,29.93L199.26,26.36L201.35,31.35L203.45,22.77L209.74,21.11L211.84,20.5L213.94,30.73L216.04,28.74L218.13,24.4L220.23,25.22L222.33,28.58L224.43,24.54L228.62,22.46L230.72,27.61L232.82,19.49L234.91,21.52L237.01,19.47L239.11,21.83L241.21,24.93L243.3,22.54L245.4,23.77L247.5,22.75L251.69,24.15L253.79,23.83L255.89,22.95L257.98,20.64L260.08,19.13L262.18,19.22L264.28,21.88L266.37,26.86L270.57,21.57L272.67,21.93L276.86,23.02L278.96,21.28L281.06,21.01L283.15,22.13L285.25,26.56L287.35,20.68L289.45,22.34L291.54,22.08L293.64,20.66L295.74,23.4L297.84,21.8L299.93,23.99L302.03,22.36L304.13,19.65L306.23,18.9L308.32,20.61L310.42,23.49L312.52,18.78L314.62,19.14L316.71,28.58L318.81,19.59L320.91,23.32L323.01,22.31L325.1,19.05L329.3,21.06L331.39,19.75L333.49,25.7L335.59,21.79L337.69,21.21L339.78,18.15L341.88,31.04L343.98,21L346.08,21.5L348.17,23.33L350.27,19.77L352.37,19.64L354.47,17.86L356.56,19.8L358.66,18.9L360.76,19.95L362.86,20.73L364.95,22.54L367.05,19.33L369.15,19.5L371.25,21.72L373.34,20.86L375.44,19.9L377.54,23.07L379.64,20.67L381.73,20.3L383.83,18.72L385.93,19.76L388.03,21.54L390.12,17.38L392.22,23.62L394.32,22.76L396.42,27.82L398.51,19.59L400.61,18.66L402.71,21.86L404.81,23.62L406.9,18.89L409,19.65" style="vector-effect: non-scaling-stroke; fill: none; stroke: rgb(99, 110, 250); stroke-opacity: 1; stroke-width: 2px; opacity: 1;"/></g><g class="points"/><g class="text"/></g><g class="trace scatter tracef59e13" style="stroke-miterlimit: 2; opacity: 1;"><g class="fills"/><g class="errorbars"/><g class="lines"><path class="js-line" d="M0,249.91L2.1,257.56L4.19,234.86L6.29,238.1L8.39,212.39L10.49,233.88L12.58,238.73L14.68,225.55L16.78,221.69L18.88,225.92L20.97,202.09L25.17,166.27L27.27,157.55L29.36,145.71L31.46,142.95L35.66,135.22L37.75,140.99L44.05,131.17L46.14,131.17L50.34,125.16L52.44,119.79L54.53,117.65L56.63,123.39L58.73,117.6L60.83,116.6L62.92,124.33L65.02,111.87L67.12,119.67L69.22,114.79L71.31,110.99L73.41,114.86L77.61,108.05L79.7,106.64L81.8,104.42L83.9,109.12L85.99,105.98L88.09,91.01L90.19,109.6L92.29,100.78L94.38,103.06L96.48,107.49L98.58,99.23L100.68,104.82L104.87,84.78L106.97,68.83L109.07,99.94L111.16,92.26L113.26,99.04L115.36,94.84L117.46,74.22L119.55,69.07L121.65,74.49L123.75,50.92L125.85,79.12L127.94,66.13L130.04,88.28L132.14,44.62L138.43,62.9L140.53,43.48L142.63,33.27L144.72,64.07L146.82,54.49L148.92,31.84L151.02,27.84L153.11,28.87L157.31,24.93L159.41,24.99L163.6,29.67L165.7,23.63L167.79,28.78L169.89,23.4L171.99,24.53L174.09,20.51L176.18,27.16L178.28,27.79L182.48,22.23L184.57,27.38L186.67,29.75L188.77,27.53L190.87,21.46L192.96,23.7L195.06,19.52L197.16,22.67L199.26,22.42L201.35,21.26L203.45,20.8L205.55,19.52L207.65,23.4L209.74,19.57L213.94,22.22L216.04,19.83L218.13,23.91L220.23,22.93L222.33,20.42L224.43,22.02L226.52,20.33L228.62,20.64L230.72,19.37L232.82,19.96L234.91,21.04L237.01,19.57L239.11,19.68L241.21,18.74L243.3,20.52L245.4,20.59L247.5,21.84L249.59,18.06L251.69,20.83L253.79,21.12L255.89,18.94L257.98,18.89L260.08,20.23L262.18,19.67L266.37,20.55L268.47,21.13L270.57,24.35L272.67,21.45L276.86,21.62L278.96,19.51L281.06,23.29L283.15,22.12L287.35,21.07L289.45,18.14L291.54,20.38L293.64,20.13L295.74,18.62L297.84,19.37L299.93,16.54L302.03,18.53L308.32,17.02L310.42,17.79L314.62,18.81L316.71,18.22L320.91,19.59L323.01,18.17L325.1,18.89L327.2,17.51L329.3,21.22L331.39,18.66L333.49,19.01L335.59,21.33L337.69,18.59L339.78,18.83L341.88,18.18L343.98,19.16L346.08,17.45L348.17,19.41L352.37,16.87L354.47,18.27L356.56,17.81L358.66,23.1L360.76,18.09L362.86,21.12L364.95,18.38L367.05,18.72L369.15,17.24L371.25,17.1L373.34,19.04L375.44,19.14L379.64,17.47L381.73,19.83L383.83,17.18L385.93,21.48L388.03,17.68L390.12,16.56L392.22,19.16L394.32,18.04L398.51,17.26L400.61,18.49L402.71,16.6L404.81,16.16L406.9,19.94L409,17.61" style="vector-effect: non-scaling-stroke; fill: none; stroke: rgb(239, 85, 59); stroke-opacity: 1; stroke-width: 2px; opacity: 1;"/></g><g class="points"/><g class="text"/></g><g class="trace scatter tracec02960" style="stroke-miterlimit: 2; opacity: 1;"><g class="fills"/><g class="errorbars"/><g class="lines"><path class="js-line" d="M0,278.09L2.1,242.23L4.19,257.83L6.29,217L8.39,210.86L10.49,223.85L12.58,229.89L14.68,251.87L16.78,226.07L18.88,242.87L20.97,238.98L23.07,200.25L25.17,207.32L27.27,193.14L29.36,162.56L31.46,153.31L33.56,132.1L35.66,137.7L37.75,138.88L39.85,171.14L41.95,143.9L44.05,144.68L46.14,155.15L50.34,166.54L52.44,163.62L54.53,147.79L56.63,148.14L58.73,136.38L60.83,133.42L62.92,122L65.02,119.61L67.12,137.51L69.22,122.92L71.31,124.03L73.41,114.53L77.61,124.29L79.7,123.02L81.8,124.51L83.9,127.03L85.99,128.39L88.09,115.72L90.19,118.13L92.29,109.12L94.38,106.3L96.48,115.72L98.58,92.51L100.68,107.34L102.77,104.83L104.87,69.63L106.97,105.08L109.07,100.38L113.26,34.96L115.36,36.27L117.46,35.53L119.55,37.54L123.75,24.97L125.85,25.43L127.94,33.75L130.04,29.31L132.14,21.37L134.24,29.75L136.33,28.51L138.43,24.07L140.53,22.97L142.63,25.6L144.72,28.82L146.82,27.59L148.92,36.86L151.02,26.14L153.11,22.65L155.21,21.4L157.31,26.16L159.41,34.85L161.5,23.04L163.6,25.64L165.7,22.13L167.79,23.54L169.89,20.47L171.99,31.39L174.09,25.55L176.18,22.72L178.28,23.28L180.38,25.31L182.48,18.87L184.57,27.12L188.77,21.49L190.87,26.15L192.96,26.09L195.06,22.77L197.16,19.57L199.26,25.19L201.35,21.35L203.45,20.33L205.55,23.27L207.65,23.32L209.74,23.15L211.84,18.68L213.94,19.01L216.04,24L218.13,29.6L220.23,25.72L222.33,20.26L224.43,19.44L226.52,21.76L228.62,21.64L230.72,20.61L232.82,25.67L234.91,20.03L237.01,22L239.11,21.19L241.21,21.39L243.3,18.96L245.4,19.76L247.5,26.02L249.59,20.79L251.69,19.26L253.79,21.39L255.89,22.69L257.98,22.13L260.08,19.62L262.18,20.46L264.28,19.09L266.37,18.91L268.47,19.87L270.57,18.34L274.76,21.49L276.86,20.03L278.96,19.05L281.06,19.24L283.15,23.91L285.25,22.34L287.35,21.59L289.45,19.41L291.54,19.79L293.64,17.76L295.74,22.58L297.84,19.92L299.93,17.11L302.03,20.42L304.13,18.92L306.23,21.56L308.32,22.79L310.42,16L314.62,19.84L316.71,17.25L318.81,20.06L320.91,18.09L325.1,19.77L327.2,19.37L329.3,21.26L331.39,21.33L333.49,21.19L335.59,17.64L337.69,18.63L339.78,18.29L341.88,17.76L343.98,20.14L346.08,19.06L348.17,19.96L350.27,20.26L352.37,21.95L354.47,17.64L356.56,18.48L358.66,20.92L360.76,25.89L362.86,17.71L364.95,17.11L367.05,18.89L369.15,17.65L373.34,18.56L375.44,21.24L377.54,18.44L379.64,19.93L385.93,18.9L388.03,17.68L390.12,17L392.22,17.81L396.42,18.51L398.51,19.68L400.61,17.56L402.71,22.68L404.81,17.74L406.9,22.14L409,19.39" style="vector-effect: non-scaling-stroke; fill: none; stroke: rgb(0, 204, 150); stroke-opacity: 1; stroke-width: 2px; opacity: 1;"/></g><g class="points"/><g class="text"/></g><g class="trace scatter trace2258ec" style="stroke-miterlimit: 2; opacity: 1;"><g class="fills"/><g class="errorbars"/><g class="lines"><path class="js-line" d="M0,304L4.19,240.32L6.29,232.12L8.39,251.96L10.49,243.45L12.58,237.34L14.68,243.66L16.78,228.25L18.88,193.58L20.97,199.06L23.07,163.8L25.17,159.13L27.27,149.87L29.36,141.98L31.46,141.77L33.56,138.46L35.66,145.3L37.75,143.99L39.85,157.71L41.95,146.42L44.05,148.83L46.14,152.61L48.24,152.63L50.34,140.26L52.44,133.56L54.53,116.36L56.63,117.2L58.73,120.01L60.83,114.35L62.92,106.87L65.02,115.58L67.12,114.7L69.22,105.55L71.31,105.13L73.41,91.6L75.51,94.27L77.61,62.81L79.7,90.01L81.8,101.8L83.9,92.58L85.99,66.47L88.09,62.53L90.19,53.03L92.29,40.4L94.38,53.26L96.48,48.98L98.58,37.78L100.68,57.45L102.77,43.35L104.87,60L106.97,43.45L109.07,28.6L111.16,28.35L115.36,28.75L117.46,27.16L121.65,27.87L123.75,24.05L125.85,27.81L127.94,27.2L130.04,24.83L132.14,29.91L134.24,20.63L136.33,30.11L138.43,23.56L140.53,21.77L142.63,24.94L144.72,23.22L146.82,22.95L148.92,19.86L151.02,21.46L153.11,24.41L155.21,22.59L157.31,18.94L159.41,20.82L161.5,21.07L163.6,19.62L165.7,20.71L169.89,23.33L171.99,17.76L174.09,19.55L176.18,20.31L178.28,21.1L180.38,19.95L182.48,24.88L184.57,22.88L186.67,23.15L188.77,19.71L190.87,19.18L192.96,21.14L195.06,20.01L197.16,21.1L199.26,19.45L201.35,21.48L203.45,21.4L205.55,23.97L207.65,21.61L209.74,20.7L211.84,19.1L213.94,24.66L216.04,19.01L218.13,19.2L220.23,19.75L222.33,18.69L224.43,19.39L226.52,21.16L228.62,20.15L230.72,24.43L232.82,17.18L234.91,17.81L237.01,20.86L239.11,20.36L241.21,19.42L243.3,20.75L245.4,18.04L247.5,18.77L249.59,18.1L251.69,19.96L253.79,18.69L255.89,18.6L257.98,21.33L260.08,18.41L262.18,20.78L264.28,20.16L266.37,18.84L268.47,21.27L270.57,21.03L272.67,25.31L274.76,20.18L276.86,18.56L278.96,21.19L281.06,19.05L283.15,21.31L285.25,21.79L287.35,18.18L289.45,20.62L291.54,17.77L293.64,19.74L297.84,18.36L299.93,19.17L304.13,18.32L306.23,20.41L310.42,17.66L312.52,19.69L314.62,19.01L316.71,22.02L318.81,18.25L320.91,18.07L323.01,19.59L325.1,18.3L327.2,18.21L329.3,16.12L331.39,18.04L333.49,17.76L337.69,20.13L339.78,16.12L341.88,21.06L343.98,19.52L346.08,18.51L348.17,18.99L352.37,18.58L354.47,17.27L356.56,20.73L358.66,18.54L360.76,17.86L362.86,19.95L364.95,19.45L367.05,17.19L369.15,21.32L371.25,18.9L373.34,19.37L375.44,18.73L377.54,17.2L379.64,17.7L381.73,19.66L383.83,17.28L385.93,18L388.03,19.89L390.12,18.34L392.22,17.86L394.32,18.24L396.42,16.33L400.61,19.13L402.71,18.56L404.81,19.12L406.9,18.29L409,18.77" style="vector-effect: non-scaling-stroke; fill: none; stroke: rgb(171, 99, 250); stroke-opacity: 1; stroke-width: 2px; opacity: 1;"/></g><g class="points"/><g class="text"/></g></g></g><g class="overplot"/><path class="xlines-above crisp" d="M0,0" style="fill: none;"/><path class="ylines-above crisp" d="M0,0" style="fill: none;"/><g class="overlines-above"/><g class="xaxislayer-above"><g class="xtick"><text text-anchor="middle" x="0" y="433" transform="translate(180.72,0)" style="font-family: 'Latin Modern Roman'; font-size: 12px; fill: rgb(0, 0, 0); fill-opacity: 1; white-space: pre;">5M</text></g><g class="xtick"><text text-anchor="middle" x="0" y="433" transform="translate(283.53,0)" style="font-family: 'Latin Modern Roman'; font-size: 12px; fill: rgb(0, 0, 0); fill-opacity: 1; white-space: pre;">10M</text></g><g class="xtick"><text text-anchor="middle" x="0" y="433" transform="translate(386.35,0)" style="font-family: 'Latin Modern Roman'; font-size: 12px; fill: rgb(0, 0, 0); fill-opacity: 1; white-space: pre;">15M</text></g></g><g class="yaxislayer-above"><g class="ytick"><text text-anchor="end" x="79" y="4.199999999999999" transform="translate(0,399.23)" style="font-family: 'Latin Modern Roman'; font-size: 12px; fill: rgb(0, 0, 0); fill-opacity: 1; white-space: pre;">−250</text></g><g class="ytick"><text text-anchor="end" x="79" y="4.199999999999999" transform="translate(0,341.41999999999996)" style="font-family: 'Latin Modern Roman'; font-size: 12px; fill: rgb(0, 0, 0); fill-opacity: 1; white-space: pre;">−200</text></g><g class="ytick"><text text-anchor="end" x="79" y="4.199999999999999" transform="translate(0,283.61)" style="font-family: 'Latin Modern Roman'; font-size: 12px; fill: rgb(0, 0, 0); fill-opacity: 1; white-space: pre;">−150</text></g><g class="ytick"><text text-anchor="end" x="79" y="4.199999999999999" transform="translate(0,225.8)" style="font-family: 'Latin Modern Roman'; font-size: 12px; fill: rgb(0, 0, 0); fill-opacity: 1; white-space: pre;">−100</text></g><g class="ytick"><text text-anchor="end" x="79" y="4.199999999999999" transform="translate(0,167.99)" style="font-family: 'Latin Modern Roman'; font-size: 12px; fill: rgb(0, 0, 0); fill-opacity: 1; white-space: pre;">−50</text></g><g class="ytick"><text text-anchor="end" x="79" y="4.199999999999999" transform="translate(0,110.19)" style="font-family: 'Latin Modern Roman'; font-size: 12px; fill: rgb(0, 0, 0); fill-opacity: 1; white-space: pre;">0</text></g></g><g class="overaxes-above"/></g></g><g class="polarlayer"/><g class="ternarylayer"/><g class="geolayer"/><g class="funnelarealayer"/><g class="pielayer"/><g class="treemaplayer"/><g class="sunburstlayer"/><g class="glimages"/><defs id="topdefs-881154"><g class="clips"/><clipPath id="legend881154"><rect width="191" height="86" x="0" y="0"/></clipPath></defs><g class="layer-above"><g class="imagelayer"/><g class="shapelayer"/></g><g class="infolayer"><g class="legend" pointer-events="all" transform="translate(497.18,100)"><rect class="bg" shape-rendering="crispEdges" style="stroke: rgb(68, 68, 68); stroke-opacity: 1; fill: rgb(255, 255, 255); fill-opacity: 1; stroke-width: 0px;" width="191" height="86" x="0" y="0"/><g class="scrollbox" transform="" clip-path="url('#legend881154')"><g class="groups"><g class="traces" transform="translate(0,14.5)" style="opacity: 1;"><text class="legendtext" text-anchor="start" x="40" y="4.680000000000001" style="font-family: 'Latin Modern Roman'; font-size: 12px; fill: rgb(0, 0, 0); fill-opacity: 1; white-space: pre;">PPO, Bayesian agg. (n=13)</text><g class="layers" style="opacity: 1;"><g class="legendfill"/><g class="legendlines"><path class="js-line" d="M5,0h30" style="fill: none; stroke: rgb(99, 110, 250); stroke-opacity: 1; stroke-width: 2px;"/></g><g class="legendsymbols"><g class="legendpoints"/></g></g><rect class="legendtoggle" x="0" y="-9.5" width="185.921875" height="19" style="fill: rgb(0, 0, 0); fill-opacity: 0;"/></g><g class="traces" transform="translate(0,33.5)" style="opacity: 1;"><text class="legendtext" text-anchor="start" x="40" y="4.680000000000001" style="font-family: 'Latin Modern Roman'; font-size: 12px; fill: rgb(0, 0, 0); fill-opacity: 1; white-space: pre;">PPO, Mean agg. (n=16)</text><g class="layers" style="opacity: 1;"><g class="legendfill"/><g class="legendlines"><path class="js-line" d="M5,0h30" style="fill: none; stroke: rgb(239, 85, 59); stroke-opacity: 1; stroke-width: 2px;"/></g><g class="legendsymbols"><g class="legendpoints"/></g></g><rect class="legendtoggle" x="0" y="-9.5" width="185.921875" height="19" style="fill: rgb(0, 0, 0); fill-opacity: 0;"/></g><g class="traces" transform="translate(0,52.5)" style="opacity: 1;"><text class="legendtext" text-anchor="start" x="40" y="4.680000000000001" style="font-family: 'Latin Modern Roman'; font-size: 12px; fill: rgb(0, 0, 0); fill-opacity: 1; white-space: pre;">TRL, Bayesian agg. (n=8)</text><g class="layers" style="opacity: 1;"><g class="legendfill"/><g class="legendlines"><path class="js-line" d="M5,0h30" style="fill: none; stroke: rgb(0, 204, 150); stroke-opacity: 1; stroke-width: 2px;"/></g><g class="legendsymbols"><g class="legendpoints"/></g></g><rect class="legendtoggle" x="0" y="-9.5" width="185.921875" height="19" style="fill: rgb(0, 0, 0); fill-opacity: 0;"/></g><g class="traces" transform="translate(0,71.5)" style="opacity: 1;"><text class="legendtext" text-anchor="start" x="40" y="4.680000000000001" style="font-family: 'Latin Modern Roman'; font-size: 12px; fill: rgb(0, 0, 0); fill-opacity: 1; white-space: pre;">TRL, Mean agg. (n=16)</text><g class="layers" style="opacity: 1;"><g class="legendfill"/><g class="legendlines"><path class="js-line" d="M5,0h30" style="fill: none; stroke: rgb(171, 99, 250); stroke-opacity: 1; stroke-width: 2px;"/></g><g class="legendsymbols"><g class="legendpoints"/></g></g><rect class="legendtoggle" x="0" y="-9.5" width="185.921875" height="19" style="fill: rgb(0, 0, 0); fill-opacity: 0;"/></g></g></g><rect class="scrollbar" rx="20" ry="3" width="0" height="0" style="fill: rgb(128, 139, 164); fill-opacity: 1;" x="0" y="0"/></g><g class="g-gtitle"><text class="gtitle" x="35" y="50" text-anchor="start" dy="0em" style="font-family: 'Latin Modern Roman'; font-size: 17px; fill: rgb(0, 0, 0); opacity: 1; font-weight: normal; white-space: pre;">Single-evader Pursuit TRL vs PPO</text></g><g class="g-xtitle"><text class="xtitle" x="284.5" y="460.8" text-anchor="middle" style="font-family: 'Latin Modern Roman'; font-size: 14px; fill: rgb(0, 0, 0); opacity: 1; font-weight: normal; white-space: pre;">Agent Steps</text></g><g class="g-ytitle"><text class="ytitle" transform="rotate(-90,26.856250000000003,260)" x="26.856250000000003" y="260" text-anchor="middle" style="font-family: 'Latin Modern Roman'; font-size: 14px; fill: rgb(0, 0, 0); opacity: 1; font-weight: normal; white-space: pre;">Avg. Reward</text></g></g></svg>