<svg class="main-svg" xmlns="http://www.w3.org/2000/svg" xmlns:xlink="http://www.w3.org/1999/xlink" width="600" height="300" style="" viewBox="0 0 600 300"><rect x="0" y="0" width="600" height="300" style="fill: rgb(255, 255, 255); fill-opacity: 1;"/><defs id="defs-f4b08d"><g class="clips"><clipPath id="clipf4b08dxyplot" class="plotclip"><rect width="378" height="259"/></clipPath><clipPath class="axesclip" id="clipf4b08dx"><rect x="53" y="0" width="378" height="300"/></clipPath><clipPath class="axesclip" id="clipf4b08dy"><rect x="0" y="0" width="600" height="259"/></clipPath><clipPath class="axesclip" id="clipf4b08dxy"><rect x="53" y="0" width="378" height="259"/></clipPath></g><g class="gradients"/></defs><g class="bglayer"><rect class="bg" x="53" y="0" width="378" height="259" style="fill: rgb(229, 236, 246); fill-opacity: 1; stroke-width: 0;"/></g><g class="layer-below"><g class="imagelayer"/><g class="shapelayer"/></g><g class="cartesianlayer"><g class="subplot xy"><g class="layer-subplot"><g class="shapelayer"/><g class="imagelayer"/></g><g class="gridlayer"><g class="x"><path class="xgrid crisp" transform="translate(146.07999999999998,0)" d="M0,0v259" style="stroke: rgb(255, 255, 255); stroke-opacity: 1; stroke-width: 1px;"/><path class="xgrid crisp" transform="translate(241.11,0)" d="M0,0v259" style="stroke: rgb(255, 255, 255); stroke-opacity: 1; stroke-width: 1px;"/><path class="xgrid crisp" transform="translate(336.13,0)" d="M0,0v259" style="stroke: rgb(255, 255, 255); stroke-opacity: 1; stroke-width: 1px;"/></g><g class="y"><path class="ygrid crisp" transform="translate(0,220.36)" d="M53,0h378" style="stroke: rgb(255, 255, 255); stroke-opacity: 1; stroke-width: 1px;"/><path class="ygrid crisp" transform="translate(0,178.19)" d="M53,0h378" style="stroke: rgb(255, 255, 255); stroke-opacity: 1; stroke-width: 1px;"/><path class="ygrid crisp" transform="translate(0,136.01)" d="M53,0h378" style="stroke: rgb(255, 255, 255); stroke-opacity: 1; stroke-width: 1px;"/><path class="ygrid crisp" transform="translate(0,93.83)" d="M53,0h378" style="stroke: rgb(255, 255, 255); stroke-opacity: 1; stroke-width: 1px;"/><path class="ygrid crisp" transform="translate(0,51.65)" d="M53,0h378" style="stroke: rgb(255, 255, 255); stroke-opacity: 1; stroke-width: 1px;"/></g></g><g class="zerolinelayer"><path class="yzl zl crisp" transform="translate(0,9.47)" d="M53,0h378" style="stroke: rgb(255, 255, 255); stroke-opacity: 1; stroke-width: 2px;"/></g><path class="xlines-below"/><path class="ylines-below"/><g class="overlines-below"/><g class="xaxislayer-below"/><g class="yaxislayer-below"/><g class="overaxes-below"/><g class="plot" transform="translate(53,0)" clip-path="url('#clipf4b08dxyplot')"><g class="scatterlayer mlayer"><g class="trace scatter trace2a0090" style="stroke-miterlimit: 2; opacity: 1;"><g class="fills"/><g class="errorbars"/><g class="lines"><path class="js-line" d="M0,224.45L3.88,181.81L5.82,169.86L7.75,166.27L9.69,168.72L11.63,160.3L13.57,166.84L15.51,179.09L17.45,153.27L21.32,140.91L23.26,147.86L27.14,129.66L29.08,123.36L31.02,119.01L32.95,112.78L34.89,109.26L36.83,113.49L38.77,103.28L40.71,112.43L42.65,120.76L44.58,105.84L46.52,117.89L48.46,101.76L50.4,112.22L52.34,110.68L54.28,128.85L56.22,109.73L58.15,102.33L60.09,104.47L62.03,99.19L63.97,103.51L65.91,103L67.85,101.27L69.78,105.89L71.72,115.14L75.6,97.46L77.54,104.13L81.42,87.55L83.35,88.07L85.29,79.58L87.23,86.19L89.17,99.87L91.11,87.59L93.05,84.06L94.98,88.14L96.92,82.4L98.86,82.03L100.8,81.22L102.74,73.53L104.68,80.71L106.62,83.28L108.55,74L110.49,80.09L112.43,79.05L114.37,76.44L116.31,74.16L118.25,79.8L120.18,57.02L122.12,72.21L124.06,61.14L126,74.72L131.82,48.94L133.75,50.4L135.69,44.29L137.63,49.49L139.57,51.42L141.51,51L143.45,42.89L145.38,44.36L147.32,32.41L149.26,40.17L151.2,36.91L153.14,22.27L155.08,33.35L157.02,25.74L158.95,25.76L160.89,23.99L162.83,30.12L164.77,20.89L166.71,22.85L168.65,20.93L170.58,18.43L172.52,22.41L174.46,19.01L176.4,19.29L178.34,20.95L180.28,21.24L182.22,18.99L184.15,19.05L186.09,23.88L188.03,18.19L189.97,18.37L191.91,17.65L193.85,17.44L195.78,18.28L197.72,20.96L199.66,20.34L201.6,19.84L203.54,20.25L207.42,18.77L209.35,19.53L211.29,17.77L213.23,20.27L215.17,16.26L217.11,17.74L219.05,16.24L220.98,18.5L222.92,16.92L224.86,18.22L226.8,17.82L228.74,15.87L232.62,19.66L234.55,17.4L238.43,17.72L240.37,16L242.31,16.36L244.25,17.61L246.18,19.15L248.12,18.4L250.06,17.03L252,17L253.94,18.21L255.88,16.94L259.75,16.02L261.69,17.56L265.57,18.71L267.51,16.01L269.45,17.15L271.38,16.43L275.26,16.84L277.2,19.54L279.14,16.79L281.08,16.05L284.95,15.64L286.89,17.92L288.83,15.55L290.77,16.76L294.65,16.33L296.58,15L298.52,17.02L300.46,16.36L304.34,17L306.28,16.48L310.15,17.93L312.09,15.33L315.97,16.69L317.91,16.77L319.85,16.3L321.78,18.12L323.72,16.46L325.66,16.37L327.6,15.07L329.54,16.49L333.42,16.59L335.35,16.32L339.23,16.22L341.17,15.98L345.05,17.26L346.98,16.33L348.92,17.53L350.86,15.61L352.8,16.85L354.74,15.86L356.68,15.55L358.62,17.76L360.55,15.32L362.49,17.04L364.43,17.86L366.37,16.16L370.25,15.5L372.18,17.39L376.06,15.82L378,16.37" style="vector-effect: non-scaling-stroke; fill: none; stroke: rgb(99, 110, 250); stroke-opacity: 1; stroke-width: 2px; opacity: 1;"/></g><g class="points"/><g class="text"/></g><g class="trace scatter tracef81a88" style="stroke-miterlimit: 2; opacity: 1;"><g class="fills"><g><path class="js-fill" d="M0,206.15L3.88,166.96L5.82,160.05L9.69,162.2L11.63,157.34L13.57,154.81L15.51,150.83L21.32,102.96L23.26,135.26L29.08,112.26L31.02,113.62L32.95,106.9L34.89,96.89L36.83,96.79L38.77,97.71L40.71,100.15L42.65,103.98L44.58,98.15L46.52,98.87L48.46,96.15L50.4,97.95L52.34,98.43L54.28,92.28L56.22,94.88L58.15,90.18L60.09,95.31L62.03,89.45L63.97,93.62L65.91,82.16L67.85,79.38L69.78,84.75L71.72,77.85L73.66,81.04L75.6,76.64L77.54,68.16L79.48,79.29L81.42,71.98L85.29,60.61L87.23,65.19L89.17,79.37L91.11,61.87L93.05,75.8L94.98,77.44L96.92,73.5L98.86,49.92L100.8,70.16L102.74,59.48L104.68,65.96L106.62,50.15L108.55,53.63L110.49,43.53L112.43,60.03L114.37,44.14L116.31,35.34L118.25,57.15L124.06,28.96L126,32.76L127.94,37.45L129.88,35.94L133.75,29.61L135.69,21.74L137.63,24.47L139.57,22.45L141.51,25.98L143.45,23.36L147.32,23.18L149.26,21.64L151.2,21.99L153.14,16.75L155.08,20.65L157.02,20.67L158.95,19.23L160.89,18.84L162.83,20.7L164.77,17.41L168.65,18.81L170.58,15.39L172.52,19.29L174.46,15.82L176.4,17.72L178.34,17.04L180.28,19.5L182.22,16.55L186.09,18.17L188.03,15.48L197.72,16.74L199.66,15.62L203.54,18.31L205.48,15.8L207.42,16.21L209.35,17.82L211.29,16.35L213.23,17.54L215.17,14.85L217.11,16.75L219.05,14.91L220.98,16.06L222.92,14.9L224.86,15.7L226.8,16.7L228.74,14.24L230.68,16.05L232.62,15.91L234.55,15.26L236.49,15.52L238.43,14.76L240.37,15.36L242.31,14.84L244.25,15.1L246.18,16.17L248.12,15.44L250.06,15.89L252,14.59L257.82,15.12L259.75,15.14L263.63,15.69L265.57,14.99L267.51,14.72L269.45,15.56L273.32,14.22L275.26,15.75L279.14,15.47L281.08,14.16L284.95,14.07L286.89,14.13L290.77,14.88L292.71,14.96L296.58,13.99L298.52,16.28L304.34,13.94L306.28,14.95L314.03,14.33L315.97,16.17L317.91,14.71L319.85,15L325.66,14.23L327.6,13.66L329.54,15.13L331.48,14.71L335.35,15.56L337.29,14.97L343.11,14.82L345.05,14.94L350.86,15.15L352.8,14.79L356.68,14.31L358.62,15.35L360.55,14.14L362.49,14.7L366.37,14.75L368.31,14.41L370.25,13.56L372.18,15.17L376.06,14.23L378,15.17L378,17.82L376.06,18.02L374.12,22.72L372.18,19.43L370.25,27.93L368.31,20.2L366.37,24.76L364.43,20.96L362.49,23.59L360.55,20.2L358.62,24.09L356.68,24.78L354.74,20.97L352.8,27.41L350.86,18.9L348.92,20.12L346.98,25.27L345.05,20.74L343.11,19.68L341.17,26.55L339.23,23.12L337.29,28.37L333.42,17.98L331.48,22.38L329.54,20.66L327.6,28.37L325.66,21.41L323.72,34.14L321.78,28.3L319.85,19.1L317.91,42.29L315.97,30.46L314.03,22.81L312.09,27.55L310.15,20.84L308.22,28.92L306.28,23.3L304.34,21.19L302.4,41.27L300.46,24.67L298.52,35.55L296.58,19.87L292.71,24.7L290.77,20.51L288.83,19.19L286.89,21.2L284.95,18.59L283.02,20.21L281.08,18.62L279.14,24.88L277.2,26.85L275.26,22.04L273.32,28.91L271.38,23.45L267.51,19.69L265.57,26.72L263.63,22.71L261.69,27.17L257.82,26.59L255.88,32.7L253.94,31.4L252,23.29L250.06,20.03L248.12,36.41L246.18,23.26L244.25,22.02L242.31,36.63L240.37,21.97L238.43,24.75L236.49,23.81L234.55,25.49L232.62,28.32L228.74,19.38L226.8,30.83L224.86,35.57L222.92,22.89L219.05,23.65L217.11,26.76L215.17,21.14L213.23,27.74L211.29,24.3L209.35,43.65L207.42,30.34L205.48,34.69L203.54,29.45L201.6,50.79L199.66,52.87L197.72,41.23L195.78,28.07L193.85,46.52L191.91,28.39L189.97,39.9L188.03,26.51L186.09,55.39L184.15,59.85L182.22,31.06L180.28,28.37L178.34,72.03L174.46,33.42L172.52,57.89L170.58,42.52L168.65,59.24L166.71,65.44L164.77,68.81L162.83,59.26L160.89,57.56L158.95,66.25L157.02,51.23L155.08,59.18L153.14,37.26L151.2,70.59L149.26,64.23L147.32,66.9L145.38,73.63L143.45,75.96L141.51,76.67L139.57,74.43L137.63,78.91L135.69,84.04L133.75,78.09L131.82,79.77L129.88,83.93L127.94,85.35L126,85.4L124.06,82.77L122.12,82.75L120.18,88.72L118.25,99.19L116.31,103.55L114.37,113.36L112.43,107.17L110.49,94.79L108.55,93.66L106.62,94.3L104.68,100.31L102.74,111.11L100.8,102.04L98.86,107.98L96.92,114.33L94.98,128.91L93.05,104.85L91.11,127.32L85.29,116.66L83.35,125.82L81.42,117.15L79.48,121.94L77.54,131.43L75.6,121.86L73.66,129L71.72,127.21L67.85,129.66L65.91,123.52L62.03,134.14L60.09,127.9L58.15,127.57L56.22,124.95L54.28,134.14L52.34,136.32L48.46,130.37L46.52,138.88L44.58,129.6L42.65,134.68L40.71,126.35L38.77,124.53L36.83,119.45L34.89,121.43L31.02,130.09L29.08,134.26L27.14,138.45L25.2,148.68L23.26,152.98L21.32,161.44L17.45,186.55L15.51,191L13.57,177.58L11.63,182.92L9.69,186.6L7.75,179.53L5.82,183.65L3.88,199.27L1.94,212.93L0,246.05Z" style="fill: rgb(99, 110, 250); fill-opacity: 0.3; stroke-width: 0;"/></g></g><g class="errorbars"/><g class="lines"><path class="js-line" d="M0,206.15L3.88,166.96L5.82,160.05L9.69,162.2L11.63,157.34L13.57,154.81L15.51,150.83L21.32,102.96L23.26,135.26L29.08,112.26L31.02,113.62L32.95,106.9L34.89,96.89L36.83,96.79L38.77,97.71L40.71,100.15L42.65,103.98L44.58,98.15L46.52,98.87L48.46,96.15L50.4,97.95L52.34,98.43L54.28,92.28L56.22,94.88L58.15,90.18L60.09,95.31L62.03,89.45L63.97,93.62L65.91,82.16L67.85,79.38L69.78,84.75L71.72,77.85L73.66,81.04L75.6,76.64L77.54,68.16L79.48,79.29L81.42,71.98L85.29,60.61L87.23,65.19L89.17,79.37L91.11,61.87L93.05,75.8L94.98,77.44L96.92,73.5L98.86,49.92L100.8,70.16L102.74,59.48L104.68,65.96L106.62,50.15L108.55,53.63L110.49,43.53L112.43,60.03L114.37,44.14L116.31,35.34L118.25,57.15L124.06,28.96L126,32.76L127.94,37.45L129.88,35.94L133.75,29.61L135.69,21.74L137.63,24.47L139.57,22.45L141.51,25.98L143.45,23.36L147.32,23.18L149.26,21.64L151.2,21.99L153.14,16.75L155.08,20.65L157.02,20.67L158.95,19.23L160.89,18.84L162.83,20.7L164.77,17.41L168.65,18.81L170.58,15.39L172.52,19.29L174.46,15.82L176.4,17.72L178.34,17.04L180.28,19.5L182.22,16.55L186.09,18.17L188.03,15.48L197.72,16.74L199.66,15.62L203.54,18.31L205.48,15.8L207.42,16.21L209.35,17.82L211.29,16.35L213.23,17.54L215.17,14.85L217.11,16.75L219.05,14.91L220.98,16.06L222.92,14.9L224.86,15.7L226.8,16.7L228.74,14.24L230.68,16.05L232.62,15.91L234.55,15.26L236.49,15.52L238.43,14.76L240.37,15.36L242.31,14.84L244.25,15.1L246.18,16.17L248.12,15.44L250.06,15.89L252,14.59L257.82,15.12L259.75,15.14L263.63,15.69L265.57,14.99L267.51,14.72L269.45,15.56L273.32,14.22L275.26,15.75L279.14,15.47L281.08,14.16L284.95,14.07L286.89,14.13L290.77,14.88L292.71,14.96L296.58,13.99L298.52,16.28L304.34,13.94L306.28,14.95L314.03,14.33L315.97,16.17L317.91,14.71L319.85,15L325.66,14.23L327.6,13.66L329.54,15.13L331.48,14.71L335.35,15.56L337.29,14.97L343.11,14.82L345.05,14.94L350.86,15.15L352.8,14.79L356.68,14.31L358.62,15.35L360.55,14.14L362.49,14.7L366.37,14.75L368.31,14.41L370.25,13.56L372.18,15.17L376.06,14.23L378,15.17L378,17.82L376.06,18.02L374.12,22.72L372.18,19.43L370.25,27.93L368.31,20.2L366.37,24.76L364.43,20.96L362.49,23.59L360.55,20.2L358.62,24.09L356.68,24.78L354.74,20.97L352.8,27.41L350.86,18.9L348.92,20.12L346.98,25.27L345.05,20.74L343.11,19.68L341.17,26.55L339.23,23.12L337.29,28.37L333.42,17.98L331.48,22.38L329.54,20.66L327.6,28.37L325.66,21.41L323.72,34.14L321.78,28.3L319.85,19.1L317.91,42.29L315.97,30.46L314.03,22.81L312.09,27.55L310.15,20.84L308.22,28.92L306.28,23.3L304.34,21.19L302.4,41.27L300.46,24.67L298.52,35.55L296.58,19.87L292.71,24.7L290.77,20.51L288.83,19.19L286.89,21.2L284.95,18.59L283.02,20.21L281.08,18.62L279.14,24.88L277.2,26.85L275.26,22.04L273.32,28.91L271.38,23.45L267.51,19.69L265.57,26.72L263.63,22.71L261.69,27.17L257.82,26.59L255.88,32.7L253.94,31.4L252,23.29L250.06,20.03L248.12,36.41L246.18,23.26L244.25,22.02L242.31,36.63L240.37,21.97L238.43,24.75L236.49,23.81L234.55,25.49L232.62,28.32L228.74,19.38L226.8,30.83L224.86,35.57L222.92,22.89L219.05,23.65L217.11,26.76L215.17,21.14L213.23,27.74L211.29,24.3L209.35,43.65L207.42,30.34L205.48,34.69L203.54,29.45L201.6,50.79L199.66,52.87L197.72,41.23L195.78,28.07L193.85,46.52L191.91,28.39L189.97,39.9L188.03,26.51L186.09,55.39L184.15,59.85L182.22,31.06L180.28,28.37L178.34,72.03L174.46,33.42L172.52,57.89L170.58,42.52L168.65,59.24L166.71,65.44L164.77,68.81L162.83,59.26L160.89,57.56L158.95,66.25L157.02,51.23L155.08,59.18L153.14,37.26L151.2,70.59L149.26,64.23L147.32,66.9L145.38,73.63L143.45,75.96L141.51,76.67L139.57,74.43L137.63,78.91L135.69,84.04L133.75,78.09L131.82,79.77L129.88,83.93L127.94,85.35L126,85.4L124.06,82.77L122.12,82.75L120.18,88.72L118.25,99.19L116.31,103.55L114.37,113.36L112.43,107.17L110.49,94.79L108.55,93.66L106.62,94.3L104.68,100.31L102.74,111.11L100.8,102.04L98.86,107.98L96.92,114.33L94.98,128.91L93.05,104.85L91.11,127.32L85.29,116.66L83.35,125.82L81.42,117.15L79.48,121.94L77.54,131.43L75.6,121.86L73.66,129L71.72,127.21L67.85,129.66L65.91,123.52L62.03,134.14L60.09,127.9L58.15,127.57L56.22,124.95L54.28,134.14L52.34,136.32L48.46,130.37L46.52,138.88L44.58,129.6L42.65,134.68L40.71,126.35L38.77,124.53L36.83,119.45L34.89,121.43L31.02,130.09L29.08,134.26L27.14,138.45L25.2,148.68L23.26,152.98L21.32,161.44L17.45,186.55L15.51,191L13.57,177.58L11.63,182.92L9.69,186.6L7.75,179.53L5.82,183.65L3.88,199.27L1.94,212.93L0,246.05" style="vector-effect: non-scaling-stroke; fill: none; stroke: rgb(0, 0, 0); stroke-opacity: 0; stroke-width: 2px; opacity: 1;"/></g><g class="points"/><g class="text"/></g><g class="trace scatter trace07eace" style="stroke-miterlimit: 2; opacity: 1;"><g class="fills"/><g class="errorbars"/><g class="lines"><path class="js-line" d="M0,184.38L1.94,189.96L3.88,173.4L5.82,175.77L7.75,157.01L9.69,172.69L11.63,176.22L13.57,166.61L15.51,163.79L17.45,166.87L19.38,149.49L23.26,123.35L25.2,116.99L27.14,108.35L29.08,106.34L32.95,100.7L34.89,104.91L40.71,97.74L42.65,97.75L46.52,93.36L48.46,89.44L50.4,87.88L52.34,92.07L54.28,87.84L56.22,87.12L58.15,92.75L60.09,83.67L62.03,89.35L63.97,85.8L65.91,83.02L67.85,85.84L73.66,79.85L75.6,78.22L77.54,81.66L79.48,79.37L81.42,68.44L83.35,82.01L85.29,75.57L87.23,77.23L89.17,80.47L91.11,74.44L93.05,78.52L94.98,70.51L96.92,63.9L98.86,52.26L100.8,74.96L102.74,69.35L104.68,74.3L106.62,71.24L108.55,56.19L110.49,52.43L112.43,56.39L114.37,39.19L116.31,59.77L118.25,50.29L120.18,66.45L122.12,34.6L127.94,47.93L129.88,33.76L131.82,26.31L133.75,48.78L135.69,41.8L137.63,25.27L139.57,22.35L141.51,23.1L145.38,20.23L147.32,20.27L151.2,23.69L153.14,19.28L155.08,23.04L157.02,19.11L158.95,19.94L160.89,17.01L162.83,21.86L164.77,22.32L168.65,18.26L170.58,22.02L172.52,23.74L174.46,22.13L176.4,17.69L178.34,19.33L180.28,16.28L182.22,18.58L186.09,17.55L188.03,17.22L189.97,16.28L191.91,19.11L193.85,16.32L195.78,17.32L197.72,18.25L199.66,16.51L201.6,19.48L203.54,18.77L205.48,16.94L207.42,18.1L209.35,16.87L211.29,17.1L213.23,16.17L215.17,16.61L217.11,17.39L219.05,16.32L220.98,16.4L222.92,15.71L224.86,17.01L226.8,17.06L228.74,17.97L230.68,15.22L232.62,17.24L234.55,17.45L236.49,15.86L238.43,15.82L240.37,16.8L242.31,16.39L248.12,17.46L250.06,19.8L252,17.69L253.94,17.49L255.88,17.81L257.82,16.28L259.75,19.03L261.69,18.18L265.57,17.41L267.51,15.28L269.45,16.91L271.38,16.73L273.32,15.63L275.26,16.17L277.2,14.11L279.14,15.56L284.95,14.46L286.89,15.02L290.77,15.76L292.71,15.33L296.58,16.33L298.52,15.29L300.46,15.82L302.4,14.82L304.34,17.52L306.28,15.65L308.22,15.91L310.15,17.6L312.09,15.6L314.03,15.77L315.97,15.31L317.91,16.02L319.85,14.77L321.78,16.2L325.66,14.35L327.6,15.37L329.54,15.03L331.48,18.89L333.42,15.24L335.35,17.45L337.29,15.45L339.23,15.7L341.17,14.62L343.11,14.52L345.05,15.93L346.98,16.01L350.86,14.79L352.8,16.5L354.74,14.57L356.68,17.71L358.62,14.94L360.55,14.12L362.49,16.02L364.43,15.2L368.31,14.63L370.25,15.53L372.18,14.15L374.12,13.83L376.06,16.59L378,14.88" style="vector-effect: non-scaling-stroke; fill: none; stroke: rgb(239, 85, 59); stroke-opacity: 1; stroke-width: 2px; opacity: 1;"/></g><g class="points"/><g class="text"/></g><g class="trace scatter trace77f1b1" style="stroke-miterlimit: 2; opacity: 1;"><g class="fills"><g><path class="js-fill" d="M0,175.07L1.94,175.13L3.88,155.86L5.82,168.85L7.75,142.73L11.63,160.82L13.57,153.82L15.51,142.29L17.45,154.4L19.38,139.62L21.32,131.44L23.26,115.78L25.2,112.7L27.14,104.87L29.08,104.8L31.02,95.56L32.95,98.3L34.89,98.83L36.83,97.9L40.71,92.03L42.65,90.87L44.58,86.41L46.52,75.24L48.46,77.28L50.4,68.8L52.34,82.22L54.28,67.89L56.22,77.12L58.15,80.88L60.09,64.3L62.03,77.93L63.97,72.16L65.91,61.42L67.85,65.64L69.78,54.98L71.72,55.69L73.66,52.04L75.6,64.99L77.54,59.44L79.48,71.85L81.42,53.12L83.35,53.97L85.29,47.03L87.23,58.42L89.17,57.98L91.11,52.19L93.05,50.07L94.98,43.22L96.92,40.98L98.86,32.26L100.8,37.73L104.68,40.6L106.62,26.85L108.55,32.48L110.49,21.91L112.43,29.79L114.37,27.01L116.31,23.72L118.25,26.2L120.18,24.87L122.12,21.2L124.06,21.63L126,19.36L129.88,20.69L131.82,15.55L133.75,20.05L135.69,16.03L137.63,18.67L139.57,18.09L141.51,18.51L143.45,15.32L145.38,16.22L147.32,16.05L151.2,16.74L153.14,16.22L158.95,16.17L160.89,14.89L166.71,15.44L168.65,14.82L170.58,16.89L172.52,14.84L174.46,15.73L176.4,14.97L180.28,15.04L182.22,15.88L184.15,14.96L186.09,15.12L193.85,14.87L195.78,16.27L199.66,15L201.6,16.73L203.54,17.22L205.48,15.09L207.42,15.57L209.35,14.12L213.23,15.38L215.17,14.84L219.05,14.82L220.98,15.42L222.92,13.67L224.86,15.34L226.8,14.95L228.74,15.57L230.68,14.23L232.62,15.01L234.55,14.47L236.49,14.93L242.31,14.55L244.25,14.95L246.18,14.03L248.12,14.01L250.06,16.35L252,14.4L253.94,14.69L255.88,13.96L257.82,13.21L259.75,15.62L261.69,14.51L263.63,14.62L267.51,14.36L269.45,14.8L273.32,13.75L275.26,14.28L279.14,14.06L281.08,14.18L284.95,13.63L286.89,14.02L288.83,13.93L290.77,14.72L296.58,13.43L298.52,14.48L302.4,14.17L304.34,16.19L306.28,14.34L308.22,15.17L310.15,14.12L312.09,13.97L314.03,14.82L315.97,13.87L317.91,14.71L319.85,13.86L323.72,14.21L325.66,13.79L327.6,13.56L329.54,14.38L331.48,14.78L333.42,14.25L337.29,14.61L339.23,14.77L341.17,13.14L343.11,13.37L345.05,14.73L346.98,14.39L350.86,13.85L352.8,14.74L354.74,13.66L356.68,13.89L360.55,13.32L362.49,14.28L366.37,13.56L368.31,14.07L370.25,14.49L372.18,13.27L376.06,14.26L378,13.34L378,16.45L376.06,21.39L372.18,14.97L370.25,17.51L368.31,17.52L366.37,19.67L364.43,27.2L362.49,21.29L360.55,18.11L358.62,19.5L356.68,21.91L354.74,23.12L352.8,23.71L350.86,16.74L348.92,18.13L346.98,18.35L345.05,21.2L343.11,17.41L339.23,20.4L337.29,18.51L335.35,20.08L333.42,17.48L331.48,30.93L329.54,17.59L327.6,19.81L325.66,19.37L323.72,22.43L321.78,19.55L319.85,18.83L317.91,20.18L312.09,17.48L310.15,23.85L308.22,21.51L306.28,22.1L304.34,22.78L302.4,21.13L300.46,19.2L298.52,19.4L296.58,20.58L294.65,19.04L292.71,22.53L290.77,19.12L286.89,23.28L284.95,16.51L283.02,16.49L281.08,18.35L279.14,20.92L277.2,21.88L275.26,17.32L273.32,18.12L271.38,19.15L269.45,26.66L267.51,18.2L265.57,35.23L263.63,24L261.69,26.62L259.75,24.38L257.82,19.07L255.88,26.91L253.94,22.93L252,20.6L250.06,23.96L248.12,24.47L246.18,20.52L244.25,21.26L242.31,17.81L240.37,21.86L238.43,19.19L236.49,20.18L234.55,19.66L232.62,24.5L230.68,19.88L228.74,21.43L226.8,24.78L224.86,20.19L222.92,17.61L220.98,18.55L219.05,20.67L217.11,22.83L215.17,23.82L213.23,20.74L211.29,23.85L209.35,18.99L207.42,22.43L205.48,43.42L203.54,23.32L201.6,25.16L199.66,22.66L197.72,20.31L195.78,19.73L193.85,25.72L191.91,21.33L189.97,23.77L188.03,23.52L186.09,35.4L184.15,36.83L182.22,36.89L180.28,33.15L178.34,43.05L176.4,26.78L174.46,52.55L172.52,49.04L170.58,66.81L168.65,55.74L166.71,66.55L164.77,39.47L162.83,59.71L160.89,39.57L158.95,57.58L157.02,47.44L155.08,60.32L153.14,39.16L151.2,36.29L149.26,39.15L145.38,73.25L143.45,67.11L141.51,45.37L139.57,75.28L137.63,75.12L135.69,79.24L133.75,76.77L131.82,77.54L129.88,82.19L127.94,80.77L124.06,78.25L122.12,54.17L120.18,84.75L118.25,77.76L114.37,81.02L112.43,80.8L110.49,76.69L108.55,78.73L104.68,88.08L102.74,85.64L100.8,79.81L98.86,84.31L96.92,79.87L94.98,79.85L93.05,86.28L91.11,87.73L89.17,82.89L87.23,84.29L85.29,83.77L83.35,87.52L81.42,77.52L79.48,83.92L77.54,86.02L75.6,94.26L73.66,86.13L71.72,84.44L69.78,93.78L67.85,96.88L65.91,99.38L63.97,96.16L62.03,102.2L60.09,94.54L58.15,98.22L56.22,91.36L54.28,91.23L52.34,96.7L50.4,98.35L48.46,112.73L46.52,102.58L44.58,119.33L42.65,108.79L40.71,115.7L38.77,109.44L36.83,115.53L34.89,118.14L32.95,108.99L31.02,112.16L29.08,109.92L27.14,111.48L25.2,122.69L23.26,131.82L21.32,147.75L19.38,153.25L17.45,171.7L11.63,201.5L9.69,194.45L7.75,181.09L5.82,199.78L3.88,188.92L1.94,210.98L0,231.22Z" style="fill: rgb(239, 85, 59); fill-opacity: 0.3; stroke-width: 0;"/></g></g><g class="errorbars"/><g class="lines"><path class="js-line" d="M0,175.07L1.94,175.13L3.88,155.86L5.82,168.85L7.75,142.73L11.63,160.82L13.57,153.82L15.51,142.29L17.45,154.4L19.38,139.62L21.32,131.44L23.26,115.78L25.2,112.7L27.14,104.87L29.08,104.8L31.02,95.56L32.95,98.3L34.89,98.83L36.83,97.9L40.71,92.03L42.65,90.87L44.58,86.41L46.52,75.24L48.46,77.28L50.4,68.8L52.34,82.22L54.28,67.89L56.22,77.12L58.15,80.88L60.09,64.3L62.03,77.93L63.97,72.16L65.91,61.42L67.85,65.64L69.78,54.98L71.72,55.69L73.66,52.04L75.6,64.99L77.54,59.44L79.48,71.85L81.42,53.12L83.35,53.97L85.29,47.03L87.23,58.42L89.17,57.98L91.11,52.19L93.05,50.07L94.98,43.22L96.92,40.98L98.86,32.26L100.8,37.73L104.68,40.6L106.62,26.85L108.55,32.48L110.49,21.91L112.43,29.79L114.37,27.01L116.31,23.72L118.25,26.2L120.18,24.87L122.12,21.2L124.06,21.63L126,19.36L129.88,20.69L131.82,15.55L133.75,20.05L135.69,16.03L137.63,18.67L139.57,18.09L141.51,18.51L143.45,15.32L145.38,16.22L147.32,16.05L151.2,16.74L153.14,16.22L158.95,16.17L160.89,14.89L166.71,15.44L168.65,14.82L170.58,16.89L172.52,14.84L174.46,15.73L176.4,14.97L180.28,15.04L182.22,15.88L184.15,14.96L186.09,15.12L193.85,14.87L195.78,16.27L199.66,15L201.6,16.73L203.54,17.22L205.48,15.09L207.42,15.57L209.35,14.12L213.23,15.38L215.17,14.84L219.05,14.82L220.98,15.42L222.92,13.67L224.86,15.34L226.8,14.95L228.74,15.57L230.68,14.23L232.62,15.01L234.55,14.47L236.49,14.93L242.31,14.55L244.25,14.95L246.18,14.03L248.12,14.01L250.06,16.35L252,14.4L253.94,14.69L255.88,13.96L257.82,13.21L259.75,15.62L261.69,14.51L263.63,14.62L267.51,14.36L269.45,14.8L273.32,13.75L275.26,14.28L279.14,14.06L281.08,14.18L284.95,13.63L286.89,14.02L288.83,13.93L290.77,14.72L296.58,13.43L298.52,14.48L302.4,14.17L304.34,16.19L306.28,14.34L308.22,15.17L310.15,14.12L312.09,13.97L314.03,14.82L315.97,13.87L317.91,14.71L319.85,13.86L323.72,14.21L325.66,13.79L327.6,13.56L329.54,14.38L331.48,14.78L333.42,14.25L337.29,14.61L339.23,14.77L341.17,13.14L343.11,13.37L345.05,14.73L346.98,14.39L350.86,13.85L352.8,14.74L354.74,13.66L356.68,13.89L360.55,13.32L362.49,14.28L366.37,13.56L368.31,14.07L370.25,14.49L372.18,13.27L376.06,14.26L378,13.34L378,16.45L376.06,21.39L372.18,14.97L370.25,17.51L368.31,17.52L366.37,19.67L364.43,27.2L362.49,21.29L360.55,18.11L358.62,19.5L356.68,21.91L354.74,23.12L352.8,23.71L350.86,16.74L348.92,18.13L346.98,18.35L345.05,21.2L343.11,17.41L339.23,20.4L337.29,18.51L335.35,20.08L333.42,17.48L331.48,30.93L329.54,17.59L327.6,19.81L325.66,19.37L323.72,22.43L321.78,19.55L319.85,18.83L317.91,20.18L312.09,17.48L310.15,23.85L308.22,21.51L306.28,22.1L304.34,22.78L302.4,21.13L300.46,19.2L298.52,19.4L296.58,20.58L294.65,19.04L292.71,22.53L290.77,19.12L286.89,23.28L284.95,16.51L283.02,16.49L281.08,18.35L279.14,20.92L277.2,21.88L275.26,17.32L273.32,18.12L271.38,19.15L269.45,26.66L267.51,18.2L265.57,35.23L263.63,24L261.69,26.62L259.75,24.38L257.82,19.07L255.88,26.91L253.94,22.93L252,20.6L250.06,23.96L248.12,24.47L246.18,20.52L244.25,21.26L242.31,17.81L240.37,21.86L238.43,19.19L236.49,20.18L234.55,19.66L232.62,24.5L230.68,19.88L228.74,21.43L226.8,24.78L224.86,20.19L222.92,17.61L220.98,18.55L219.05,20.67L217.11,22.83L215.17,23.82L213.23,20.74L211.29,23.85L209.35,18.99L207.42,22.43L205.48,43.42L203.54,23.32L201.6,25.16L199.66,22.66L197.72,20.31L195.78,19.73L193.85,25.72L191.91,21.33L189.97,23.77L188.03,23.52L186.09,35.4L184.15,36.83L182.22,36.89L180.28,33.15L178.34,43.05L176.4,26.78L174.46,52.55L172.52,49.04L170.58,66.81L168.65,55.74L166.71,66.55L164.77,39.47L162.83,59.71L160.89,39.57L158.95,57.58L157.02,47.44L155.08,60.32L153.14,39.16L151.2,36.29L149.26,39.15L145.38,73.25L143.45,67.11L141.51,45.37L139.57,75.28L137.63,75.12L135.69,79.24L133.75,76.77L131.82,77.54L129.88,82.19L127.94,80.77L124.06,78.25L122.12,54.17L120.18,84.75L118.25,77.76L114.37,81.02L112.43,80.8L110.49,76.69L108.55,78.73L104.68,88.08L102.74,85.64L100.8,79.81L98.86,84.31L96.92,79.87L94.98,79.85L93.05,86.28L91.11,87.73L89.17,82.89L87.23,84.29L85.29,83.77L83.35,87.52L81.42,77.52L79.48,83.92L77.54,86.02L75.6,94.26L73.66,86.13L71.72,84.44L69.78,93.78L67.85,96.88L65.91,99.38L63.97,96.16L62.03,102.2L60.09,94.54L58.15,98.22L56.22,91.36L54.28,91.23L52.34,96.7L50.4,98.35L48.46,112.73L46.52,102.58L44.58,119.33L42.65,108.79L40.71,115.7L38.77,109.44L36.83,115.53L34.89,118.14L32.95,108.99L31.02,112.16L29.08,109.92L27.14,111.48L25.2,122.69L23.26,131.82L21.32,147.75L19.38,153.25L17.45,171.7L11.63,201.5L9.69,194.45L7.75,181.09L5.82,199.78L3.88,188.92L1.94,210.98L0,231.22" style="vector-effect: non-scaling-stroke; fill: none; stroke: rgb(0, 0, 0); stroke-opacity: 0; stroke-width: 2px; opacity: 1;"/></g><g class="points"/><g class="text"/></g><g class="trace scatter trace1a9188" style="stroke-miterlimit: 2; opacity: 1;"><g class="fills"/><g class="errorbars"/><g class="lines"><path class="js-line" d="M0,193.01L1.94,172.85L3.88,166.77L5.82,152.26L7.75,165.59L9.69,169.05L11.63,162.96L15.51,142.88L17.45,135.27L19.38,120.07L21.32,111.37L23.26,109.36L25.2,104.41L27.14,103.83L29.08,101.21L34.89,102.12L36.83,100.29L38.77,95.69L40.71,93.18L42.65,94.54L44.58,93.66L46.52,94.27L48.46,92.05L54.28,90.75L56.22,83.46L58.15,81.74L60.09,89.17L62.03,83.95L63.97,84.08L65.91,83.72L67.85,84.56L69.78,78.76L71.72,75.58L73.66,77.47L75.6,72.25L77.54,79.02L79.48,79.32L81.42,79.21L83.35,75.2L85.29,77.78L87.23,76.51L89.17,77.05L91.11,71.16L93.05,72.88L94.98,70.87L96.92,74.51L98.86,68.9L100.8,76.01L102.74,76.34L106.62,70.05L108.55,56.72L110.49,64.6L112.43,64.02L114.37,72.42L116.31,60.97L118.25,69.6L120.18,59.62L122.12,66.28L124.06,43.05L126,51.44L127.94,51.06L129.88,55.67L131.82,66.12L133.75,66.47L135.69,60.8L137.63,59.06L139.57,67.84L141.51,42.28L143.45,65.08L145.38,42.87L147.32,51.64L149.26,67.85L151.2,50.21L153.14,66.75L155.08,55.3L157.02,55.29L158.95,40.99L160.89,51.15L162.83,37.48L164.77,45.83L166.71,45.22L168.65,41.48L170.58,33.42L172.52,36.94L174.46,44.71L176.4,57.98L178.34,31.4L180.28,42.19L182.22,41.96L184.15,35.01L186.09,32.97L188.03,38.12L189.97,32.38L191.91,32.49L193.85,51.37L195.78,40.93L197.72,39.44L199.66,49.87L201.6,31.88L203.54,41.93L205.48,40.86L207.42,45.61L209.35,56.74L211.29,29.66L213.23,43.25L215.17,32.02L217.11,27.6L219.05,37.68L220.98,34.8L222.92,29.16L224.86,29.52L226.8,41.74L228.74,29.89L230.68,24.37L232.62,27.89L234.55,23.91L236.49,29.82L238.43,45.04L240.37,31.32L242.31,35.21L244.25,23.22L246.18,21.41L248.12,28.4L250.06,20.34L252,27.12L255.88,35.91L257.82,22.05L259.75,24.55L261.69,33.65L263.63,21.01L265.57,24.33L267.51,19.84L269.45,38.82L271.38,21.9L273.32,40.73L275.26,24.2L277.2,18.38L279.14,16.3L281.08,23.91L283.02,28.9L284.95,31.77L286.89,27.46L288.83,31.21L292.71,27.95L294.65,25.75L296.58,27.68L298.52,30.69L300.46,31.31L302.4,27.18L304.34,22.13L306.28,28.49L308.22,25.99L310.15,20.35L312.09,22.75L314.03,22.9L317.91,20.49L319.85,21.21L321.78,23.13L323.72,28.61L325.66,26.02L327.6,19.59L329.54,20.5L331.48,26.7L333.42,19.73L335.35,21.26L337.29,22.13L339.23,28.22L341.17,21.6L343.11,25.99L345.05,24.33L346.98,18.54L348.92,22.04L350.86,17.21L352.8,22.91L354.74,19.55L356.68,20.7L358.62,19.82L360.55,26.17L362.49,29.82L364.43,21.21L366.37,16.7L368.31,22.56L370.25,17.61L372.18,15.08L374.12,22L376.06,15.91L378,19.53" style="vector-effect: non-scaling-stroke; fill: none; stroke: rgb(0, 204, 150); stroke-opacity: 1; stroke-width: 2px; opacity: 1;"/></g><g class="points"/><g class="text"/></g><g class="trace scatter trace839ff8" style="stroke-miterlimit: 2; opacity: 1;"><g class="fills"><g><path class="js-fill" d="M0,182.52L5.82,135.43L7.75,132.29L9.69,140.68L11.63,141.11L13.57,143.79L15.51,132.35L21.32,103.84L23.26,102.21L25.2,96.36L27.14,94.43L29.08,93.15L31.02,93.84L32.95,93.25L34.89,94.1L36.83,94.36L38.77,90.36L40.71,85.41L42.65,73.14L44.58,84.05L46.52,86.11L48.46,71.86L50.4,46.79L52.34,77.86L54.28,79.72L56.22,77.24L58.15,68.48L60.09,67.01L62.03,44.29L63.97,75.65L65.91,75.18L67.85,46.58L69.78,55.95L71.72,50.26L73.66,65.53L75.6,30.43L77.54,57.76L79.48,66.05L81.42,52.37L83.35,27.95L85.29,55.68L87.23,66.13L89.17,63.14L91.11,34.77L93.05,26.31L94.98,31.09L96.92,38.91L98.86,24.38L100.8,51.79L102.74,39.23L104.68,55.32L106.62,39.65L108.55,32.99L110.49,44.12L112.43,35.13L114.37,33.96L116.31,27.2L118.25,39.85L120.18,25.14L122.12,24.77L124.06,17.53L126,20.49L127.94,25.24L129.88,38.89L131.82,39.58L133.75,26.16L135.69,27.03L137.63,34.25L139.57,30.25L141.51,22.19L143.45,20.52L145.38,28.06L147.32,30.17L149.26,41.16L151.2,24.51L153.14,32.92L155.08,25.5L157.02,24.35L158.95,25.46L160.89,27.14L162.83,25.69L164.77,28.85L166.71,20.4L168.65,24.52L170.58,17.08L172.52,22.06L174.46,23.09L176.4,20.02L178.34,22.82L180.28,28.07L182.22,19.15L184.15,19.6L186.09,18.67L188.03,25.68L189.97,29.01L191.91,16.92L193.85,28.37L195.78,30.18L197.72,15.86L201.6,17.7L203.54,22.46L205.48,18.08L207.42,15.78L209.35,22.64L211.29,15.32L213.23,17.84L215.17,14.14L217.11,21.39L219.05,23.33L220.98,20.52L222.92,21.85L224.86,17.94L226.8,17.19L232.62,14.92L234.55,18.7L236.49,17.34L238.43,18.19L240.37,16.15L242.31,17.46L246.18,15.34L248.12,17.04L250.06,15.58L252,16.45L253.94,13.8L255.88,17.94L257.82,14.12L259.75,17.54L263.63,15.18L265.57,15.53L267.51,14.79L269.45,16.27L271.38,15.74L273.32,16.85L275.26,16.05L277.2,14.41L281.08,14.62L283.02,13.99L284.95,14.91L286.89,13.65L288.83,16.7L290.77,16.22L292.71,15.17L294.65,15.43L300.46,16.36L302.4,14.56L304.34,14.7L306.28,15.88L308.22,20.36L310.15,15.75L312.09,13.25L314.03,14.64L315.97,15.03L317.91,14.53L319.85,16.65L321.78,16.4L323.72,15.38L325.66,16.8L327.6,14.84L329.54,15.59L331.48,16.96L333.42,15.63L335.35,16.89L337.29,14.76L339.23,18.56L341.17,15.51L343.11,16.65L345.05,15.97L346.98,14.97L348.92,16.96L350.86,14.41L352.8,16.11L354.74,14.35L356.68,15.31L358.62,14.94L360.55,16.72L362.49,14.98L364.43,14.91L366.37,13.99L368.31,16.03L370.25,15.48L372.18,12.95L374.12,14.75L376.06,13.73L378,16.12L378,29.4L376.06,46.02L374.12,36.56L372.18,28.7L370.25,33.2L368.31,51.94L366.37,53.77L364.43,58.4L362.49,48.03L360.55,53.47L358.62,42.84L356.68,49.6L354.74,60.25L352.8,28.22L350.86,23.68L348.92,36.01L346.98,28.2L345.05,47.51L343.11,56.51L341.17,57.77L339.23,65.36L337.29,38.3L335.35,30.74L331.48,62.14L329.54,62.14L327.6,25.43L325.66,68.52L323.72,43.35L321.78,54.83L315.97,29.53L314.03,31.62L312.09,65L310.15,48.94L308.22,48.49L306.28,63.2L304.34,47.89L302.4,68.14L296.58,45.05L294.65,50.74L292.71,64.66L290.77,64.05L288.83,61.16L286.89,49.3L284.95,69.55L283.02,47.27L281.08,42.4L279.14,41.54L277.2,39.44L275.26,47.15L273.32,68.18L271.38,51.16L269.45,51.07L267.51,65.34L265.57,50.41L263.63,63.18L261.69,53.2L259.75,51.99L257.82,31.99L255.88,67.34L253.94,45.79L252,53.59L250.06,46.44L248.12,70.04L246.18,54.16L244.25,47.54L242.31,68.06L240.37,60L238.43,66.53L236.49,40.1L234.55,65.29L232.62,74.7L228.74,43.75L226.8,68.5L224.86,67L222.92,56.75L220.98,71.54L219.05,68.92L217.11,54.58L215.17,53.86L213.23,69.54L211.29,61.45L209.35,72.72L207.42,69.24L205.48,68.24L203.54,69L201.6,57.84L199.66,69.7L197.72,60.41L195.78,61.85L193.85,70.84L191.91,69.03L189.97,65.03L188.03,69.16L186.09,56.16L184.15,63.53L182.22,62.97L180.28,70.74L178.34,57.93L176.4,71.38L174.46,59.14L172.52,72.24L170.58,68.73L168.65,69.98L164.77,71.74L162.83,69.9L160.89,70.59L158.95,60.68L157.02,69.88L155.08,71.93L153.14,77.12L151.2,73.08L149.26,75.27L147.32,75.11L145.38,74.52L143.45,76.98L141.51,74.87L139.57,79.47L137.63,77.11L135.69,76.64L133.75,77.64L131.82,74L127.94,76L126,74.42L124.06,71.36L122.12,74.45L120.18,77.03L118.25,81.16L116.31,76.71L114.37,78.06L112.43,75.99L110.49,76.94L108.55,77.74L106.62,80.42L104.68,79.16L102.74,81.54L100.8,81.2L98.86,79.12L96.92,77.99L94.98,82.99L93.05,84.21L91.11,82L89.17,84.76L87.23,85.25L85.29,84.26L83.35,89.64L81.42,89.19L79.48,89.99L77.54,87.86L75.6,90.48L73.66,86.28L71.72,91.16L69.78,95.44L67.85,90.65L65.91,96.66L63.97,97.62L62.03,97.05L60.09,101.23L58.15,92.55L56.22,93.78L54.28,96.47L52.34,97.09L50.4,105.81L48.46,102.27L46.52,100.8L44.58,100.37L42.65,102.01L40.71,106.44L38.77,108.6L36.83,108.35L32.95,119.11L31.02,104.54L29.08,110.73L27.14,113.73L25.2,110.21L23.26,115.01L21.32,119.58L19.38,131.07L17.45,141.91L15.51,157.46L11.63,172.99L9.69,175.51L7.75,175.12L5.82,173.93L1.94,183.73L0,203.16Z" style="fill: rgb(0, 204, 150); fill-opacity: 0.3; stroke-width: 0;"/></g></g><g class="errorbars"/><g class="lines"><path class="js-line" d="M0,182.52L5.82,135.43L7.75,132.29L9.69,140.68L11.63,141.11L13.57,143.79L15.51,132.35L21.32,103.84L23.26,102.21L25.2,96.36L27.14,94.43L29.08,93.15L31.02,93.84L32.95,93.25L34.89,94.1L36.83,94.36L38.77,90.36L40.71,85.41L42.65,73.14L44.58,84.05L46.52,86.11L48.46,71.86L50.4,46.79L52.34,77.86L54.28,79.72L56.22,77.24L58.15,68.48L60.09,67.01L62.03,44.29L63.97,75.65L65.91,75.18L67.85,46.58L69.78,55.95L71.72,50.26L73.66,65.53L75.6,30.43L77.54,57.76L79.48,66.05L81.42,52.37L83.35,27.95L85.29,55.68L87.23,66.13L89.17,63.14L91.11,34.77L93.05,26.31L94.98,31.09L96.92,38.91L98.86,24.38L100.8,51.79L102.74,39.23L104.68,55.32L106.62,39.65L108.55,32.99L110.49,44.12L112.43,35.13L114.37,33.96L116.31,27.2L118.25,39.85L120.18,25.14L122.12,24.77L124.06,17.53L126,20.49L127.94,25.24L129.88,38.89L131.82,39.58L133.75,26.16L135.69,27.03L137.63,34.25L139.57,30.25L141.51,22.19L143.45,20.52L145.38,28.06L147.32,30.17L149.26,41.16L151.2,24.51L153.14,32.92L155.08,25.5L157.02,24.35L158.95,25.46L160.89,27.14L162.83,25.69L164.77,28.85L166.71,20.4L168.65,24.52L170.58,17.08L172.52,22.06L174.46,23.09L176.4,20.02L178.34,22.82L180.28,28.07L182.22,19.15L184.15,19.6L186.09,18.67L188.03,25.68L189.97,29.01L191.91,16.92L193.85,28.37L195.78,30.18L197.72,15.86L201.6,17.7L203.54,22.46L205.48,18.08L207.42,15.78L209.35,22.64L211.29,15.32L213.23,17.84L215.17,14.14L217.11,21.39L219.05,23.33L220.98,20.52L222.92,21.85L224.86,17.94L226.8,17.19L232.62,14.92L234.55,18.7L236.49,17.34L238.43,18.19L240.37,16.15L242.31,17.46L246.18,15.34L248.12,17.04L250.06,15.58L252,16.45L253.94,13.8L255.88,17.94L257.82,14.12L259.75,17.54L263.63,15.18L265.57,15.53L267.51,14.79L269.45,16.27L271.38,15.74L273.32,16.85L275.26,16.05L277.2,14.41L281.08,14.62L283.02,13.99L284.95,14.91L286.89,13.65L288.83,16.7L290.77,16.22L292.71,15.17L294.65,15.43L300.46,16.36L302.4,14.56L304.34,14.7L306.28,15.88L308.22,20.36L310.15,15.75L312.09,13.25L314.03,14.64L315.97,15.03L317.91,14.53L319.85,16.65L321.78,16.4L323.72,15.38L325.66,16.8L327.6,14.84L329.54,15.59L331.48,16.96L333.42,15.63L335.35,16.89L337.29,14.76L339.23,18.56L341.17,15.51L343.11,16.65L345.05,15.97L346.98,14.97L348.92,16.96L350.86,14.41L352.8,16.11L354.74,14.35L356.68,15.31L358.62,14.94L360.55,16.72L362.49,14.98L364.43,14.91L366.37,13.99L368.31,16.03L370.25,15.48L372.18,12.95L374.12,14.75L376.06,13.73L378,16.12L378,29.4L376.06,46.02L374.12,36.56L372.18,28.7L370.25,33.2L368.31,51.94L366.37,53.77L364.43,58.4L362.49,48.03L360.55,53.47L358.62,42.84L356.68,49.6L354.74,60.25L352.8,28.22L350.86,23.68L348.92,36.01L346.98,28.2L345.05,47.51L343.11,56.51L341.17,57.77L339.23,65.36L337.29,38.3L335.35,30.74L331.48,62.14L329.54,62.14L327.6,25.43L325.66,68.52L323.72,43.35L321.78,54.83L315.97,29.53L314.03,31.62L312.09,65L310.15,48.94L308.22,48.49L306.28,63.2L304.34,47.89L302.4,68.14L296.58,45.05L294.65,50.74L292.71,64.66L290.77,64.05L288.83,61.16L286.89,49.3L284.95,69.55L283.02,47.27L281.08,42.4L279.14,41.54L277.2,39.44L275.26,47.15L273.32,68.18L271.38,51.16L269.45,51.07L267.51,65.34L265.57,50.41L263.63,63.18L261.69,53.2L259.75,51.99L257.82,31.99L255.88,67.34L253.94,45.79L252,53.59L250.06,46.44L248.12,70.04L246.18,54.16L244.25,47.54L242.31,68.06L240.37,60L238.43,66.53L236.49,40.1L234.55,65.29L232.62,74.7L228.74,43.75L226.8,68.5L224.86,67L222.92,56.75L220.98,71.54L219.05,68.92L217.11,54.58L215.17,53.86L213.23,69.54L211.29,61.45L209.35,72.72L207.42,69.24L205.48,68.24L203.54,69L201.6,57.84L199.66,69.7L197.72,60.41L195.78,61.85L193.85,70.84L191.91,69.03L189.97,65.03L188.03,69.16L186.09,56.16L184.15,63.53L182.22,62.97L180.28,70.74L178.34,57.93L176.4,71.38L174.46,59.14L172.52,72.24L170.58,68.73L168.65,69.98L164.77,71.74L162.83,69.9L160.89,70.59L158.95,60.68L157.02,69.88L155.08,71.93L153.14,77.12L151.2,73.08L149.26,75.27L147.32,75.11L145.38,74.52L143.45,76.98L141.51,74.87L139.57,79.47L137.63,77.11L135.69,76.64L133.75,77.64L131.82,74L127.94,76L126,74.42L124.06,71.36L122.12,74.45L120.18,77.03L118.25,81.16L116.31,76.71L114.37,78.06L112.43,75.99L110.49,76.94L108.55,77.74L106.62,80.42L104.68,79.16L102.74,81.54L100.8,81.2L98.86,79.12L96.92,77.99L94.98,82.99L93.05,84.21L91.11,82L89.17,84.76L87.23,85.25L85.29,84.26L83.35,89.64L81.42,89.19L79.48,89.99L77.54,87.86L75.6,90.48L73.66,86.28L71.72,91.16L69.78,95.44L67.85,90.65L65.91,96.66L63.97,97.62L62.03,97.05L60.09,101.23L58.15,92.55L56.22,93.78L54.28,96.47L52.34,97.09L50.4,105.81L48.46,102.27L46.52,100.8L44.58,100.37L42.65,102.01L40.71,106.44L38.77,108.6L36.83,108.35L32.95,119.11L31.02,104.54L29.08,110.73L27.14,113.73L25.2,110.21L23.26,115.01L21.32,119.58L19.38,131.07L17.45,141.91L15.51,157.46L11.63,172.99L9.69,175.51L7.75,175.12L5.82,173.93L1.94,183.73L0,203.16" style="vector-effect: non-scaling-stroke; fill: none; stroke: rgb(0, 0, 0); stroke-opacity: 0; stroke-width: 2px; opacity: 1;"/></g><g class="points"/><g class="text"/></g></g></g><g class="overplot"/><path class="xlines-above crisp" d="M0,0" style="fill: none;"/><path class="ylines-above crisp" d="M0,0" style="fill: none;"/><g class="overlines-above"/><g class="xaxislayer-above"><g class="xtick"><text text-anchor="middle" x="0" y="272" transform="translate(146.07999999999998,0)" style="font-family: 'Latin Modern Roman'; font-size: 12px; fill: rgb(0, 0, 0); fill-opacity: 1; white-space: pre;">5M</text></g><g class="xtick"><text text-anchor="middle" x="0" y="272" transform="translate(241.11,0)" style="font-family: 'Latin Modern Roman'; font-size: 12px; fill: rgb(0, 0, 0); fill-opacity: 1; white-space: pre;">10M</text></g><g class="xtick"><text text-anchor="middle" x="0" y="272" transform="translate(336.13,0)" style="font-family: 'Latin Modern Roman'; font-size: 12px; fill: rgb(0, 0, 0); fill-opacity: 1; white-space: pre;">15M</text></g></g><g class="yaxislayer-above"><g class="ytick"><text text-anchor="end" x="52" y="4.199999999999999" transform="translate(0,220.36)" style="font-family: 'Latin Modern Roman'; font-size: 12px; fill: rgb(0, 0, 0); fill-opacity: 1; white-space: pre;">−250</text></g><g class="ytick"><text text-anchor="end" x="52" y="4.199999999999999" transform="translate(0,178.19)" style="font-family: 'Latin Modern Roman'; font-size: 12px; fill: rgb(0, 0, 0); fill-opacity: 1; white-space: pre;">−200</text></g><g class="ytick"><text text-anchor="end" x="52" y="4.199999999999999" transform="translate(0,136.01)" style="font-family: 'Latin Modern Roman'; font-size: 12px; fill: rgb(0, 0, 0); fill-opacity: 1; white-space: pre;">−150</text></g><g class="ytick"><text text-anchor="end" x="52" y="4.199999999999999" transform="translate(0,93.83)" style="font-family: 'Latin Modern Roman'; font-size: 12px; fill: rgb(0, 0, 0); fill-opacity: 1; white-space: pre;">−100</text></g><g class="ytick"><text text-anchor="end" x="52" y="4.199999999999999" transform="translate(0,51.65)" style="font-family: 'Latin Modern Roman'; font-size: 12px; fill: rgb(0, 0, 0); fill-opacity: 1; white-space: pre;">−50</text></g><g class="ytick"><text text-anchor="end" x="52" y="4.199999999999999" transform="translate(0,9.47)" style="font-family: 'Latin Modern Roman'; font-size: 12px; fill: rgb(0, 0, 0); fill-opacity: 1; white-space: pre;">0</text></g></g><g class="overaxes-above"/></g></g><g class="polarlayer"/><g class="ternarylayer"/><g class="geolayer"/><g class="funnelarealayer"/><g class="pielayer"/><g class="treemaplayer"/><g class="sunburstlayer"/><g class="glimages"/><defs id="topdefs-f4b08d"><g class="clips"/><clipPath id="legendf4b08d"><rect width="161" height="67" x="0" y="0"/></clipPath></defs><g class="layer-above"><g class="imagelayer"/><g class="shapelayer"/></g><g class="infolayer"><g class="legend" pointer-events="all" transform="translate(438.56,0)"><rect class="bg" shape-rendering="crispEdges" style="stroke: rgb(68, 68, 68); stroke-opacity: 1; fill: rgb(255, 255, 255); fill-opacity: 1; stroke-width: 0px;" width="161" height="67" x="0" y="0"/><g class="scrollbox" transform="" clip-path="url('#legendf4b08d')"><g class="groups"><g class="traces" transform="translate(0,14.5)" style="opacity: 1;"><text class="legendtext" text-anchor="start" x="40" y="4.680000000000001" style="font-family: 'Latin Modern Roman'; font-size: 12px; fill: rgb(0, 0, 0); fill-opacity: 1; white-space: pre;">Bayesian agg. (n=19)</text><g class="layers" style="opacity: 1;"><g class="legendfill"/><g class="legendlines"><path class="js-line" d="M5,0h30" style="fill: none; stroke: rgb(99, 110, 250); stroke-opacity: 1; stroke-width: 2px;"/></g><g class="legendsymbols"><g class="legendpoints"/></g></g><rect class="legendtoggle" x="0" y="-9.5" width="155.671875" height="19" style="fill: rgb(0, 0, 0); fill-opacity: 0;"/></g><g class="traces" transform="translate(0,33.5)" style="opacity: 1;"><text class="legendtext" text-anchor="start" x="40" y="4.680000000000001" style="font-family: 'Latin Modern Roman'; font-size: 12px; fill: rgb(0, 0, 0); fill-opacity: 1; white-space: pre;">Mean agg. (n=16)</text><g class="layers" style="opacity: 1;"><g class="legendfill"/><g class="legendlines"><path class="js-line" d="M5,0h30" style="fill: none; stroke: rgb(239, 85, 59); stroke-opacity: 1; stroke-width: 2px;"/></g><g class="legendsymbols"><g class="legendpoints"/></g></g><rect class="legendtoggle" x="0" y="-9.5" width="155.671875" height="19" style="fill: rgb(0, 0, 0); fill-opacity: 0;"/></g><g class="traces" transform="translate(0,52.5)" style="opacity: 1;"><text class="legendtext" text-anchor="start" x="40" y="4.680000000000001" style="font-family: 'Latin Modern Roman'; font-size: 12px; fill: rgb(0, 0, 0); fill-opacity: 1; white-space: pre;">Attentive agg. (n=18)</text><g class="layers" style="opacity: 1;"><g class="legendfill"/><g class="legendlines"><path class="js-line" d="M5,0h30" style="fill: none; stroke: rgb(0, 204, 150); stroke-opacity: 1; stroke-width: 2px;"/></g><g class="legendsymbols"><g class="legendpoints"/></g></g><rect class="legendtoggle" x="0" y="-9.5" width="155.671875" height="19" style="fill: rgb(0, 0, 0); fill-opacity: 0;"/></g></g></g><rect class="scrollbar" rx="20" ry="3" width="0" height="0" style="fill: rgb(128, 139, 164); fill-opacity: 1;" x="0" y="0"/></g><g class="g-gtitle"/><g class="g-xtitle" transform="translate(0,-3.8000000000000114)"><text class="xtitle" x="242" y="299.8" text-anchor="middle" style="font-family: 'Latin Modern Roman'; font-size: 14px; fill: rgb(0, 0, 0); opacity: 1; font-weight: normal; white-space: pre;">Agent Steps</text></g><g class="g-ytitle" transform="translate(16.1435546875,0)"><text class="ytitle" transform="rotate(-90,-0.14374999999999716,129.5)" x="-0.14374999999999716" y="129.5" text-anchor="middle" style="font-family: 'Latin Modern Roman'; font-size: 14px; fill: rgb(0, 0, 0); opacity: 1; font-weight: normal; white-space: pre;">Avg. Reward</text></g></g></svg>