<svg class="main-svg" xmlns="http://www.w3.org/2000/svg" xmlns:xlink="http://www.w3.org/1999/xlink" width="600" height="300" style="" viewBox="0 0 600 300"><rect x="0" y="0" width="600" height="300" style="fill: rgb(255, 255, 255); fill-opacity: 1;"/><defs id="defs-eface6"><g class="clips"><clipPath id="clipeface6xyplot" class="plotclip"><rect width="311" height="259"/></clipPath><clipPath class="axesclip" id="clipeface6x"><rect x="50" y="0" width="311" height="300"/></clipPath><clipPath class="axesclip" id="clipeface6y"><rect x="0" y="0" width="600" height="259"/></clipPath><clipPath class="axesclip" id="clipeface6xy"><rect x="50" y="0" width="311" height="259"/></clipPath></g><g class="gradients"/></defs><g class="bglayer"><rect class="bg" x="50" y="0" width="311" height="259" style="fill: rgb(229, 236, 246); fill-opacity: 1; stroke-width: 0;"/></g><g class="layer-below"><g class="imagelayer"/><g class="shapelayer"/></g><g class="cartesianlayer"><g class="subplot xy"><g class="layer-subplot"><g class="shapelayer"/><g class="imagelayer"/></g><g class="gridlayer"><g class="x"><path class="xgrid crisp" transform="translate(170.53,0)" d="M0,0v259" style="stroke: rgb(255, 255, 255); stroke-opacity: 1; stroke-width: 1px;"/><path class="xgrid crisp" transform="translate(292.63,0)" d="M0,0v259" style="stroke: rgb(255, 255, 255); stroke-opacity: 1; stroke-width: 1px;"/></g><g class="y"><path class="ygrid crisp" transform="translate(0,240.18)" d="M50,0h311" style="stroke: rgb(255, 255, 255); stroke-opacity: 1; stroke-width: 1px;"/><path class="ygrid crisp" transform="translate(0,151.79)" d="M50,0h311" style="stroke: rgb(255, 255, 255); stroke-opacity: 1; stroke-width: 1px;"/><path class="ygrid crisp" transform="translate(0,107.6)" d="M50,0h311" style="stroke: rgb(255, 255, 255); stroke-opacity: 1; stroke-width: 1px;"/><path class="ygrid crisp" transform="translate(0,63.4)" d="M50,0h311" style="stroke: rgb(255, 255, 255); stroke-opacity: 1; stroke-width: 1px;"/><path class="ygrid crisp" transform="translate(0,19.21)" d="M50,0h311" style="stroke: rgb(255, 255, 255); stroke-opacity: 1; stroke-width: 1px;"/></g></g><g class="zerolinelayer"><path class="yzl zl crisp" transform="translate(0,195.98)" d="M50,0h311" style="stroke: rgb(255, 255, 255); stroke-opacity: 1; stroke-width: 2px;"/></g><path class="xlines-below"/><path class="ylines-below"/><g class="overlines-below"/><g class="xaxislayer-below"/><g class="yaxislayer-below"/><g class="overaxes-below"/><g class="plot" transform="translate(50,0)" clip-path="url('#clipeface6xyplot')"><g class="scatterlayer mlayer"><g class="trace scatter tracefc73d5" style="stroke-miterlimit: 2; opacity: 1;"><g class="fills"/><g class="errorbars"/><g class="lines"><path class="js-line" d="M0,204.07L1.56,208.73L3.13,196.24L6.25,212.94L7.81,200.87L9.38,204.45L10.94,205.94L12.5,212.33L14.07,206.82L17.19,214.36L18.75,225.57L20.32,203.12L21.88,217.39L23.44,212.59L25.01,218.11L26.57,210.65L28.13,224.25L29.69,210.65L31.26,207.11L32.82,204.09L34.38,212.75L35.94,210.32L37.51,202.89L39.07,211.95L40.63,204.52L42.2,198.32L43.76,196.23L45.32,178.52L46.88,193.07L50.01,182.76L51.57,190.93L53.14,195.77L54.7,173.55L56.26,174.97L57.82,167.62L59.39,181.48L60.95,157.85L62.51,152.6L64.08,143.71L67.2,149.97L68.76,142.92L70.33,143L71.89,134.4L73.45,133.8L75.02,145.46L78.14,136.37L79.7,116.97L81.27,131.2L82.83,115.12L84.39,112.66L85.95,99.5L87.52,130.48L89.08,110.17L90.64,118.58L92.21,81.01L93.77,106.15L95.33,107.58L96.89,103.73L98.46,106.24L100.02,89.33L101.58,94L103.15,94.44L104.71,82.56L106.27,96.01L107.83,95.15L109.4,111.16L110.96,96.06L112.52,90.3L114.09,104.8L117.21,87.76L118.77,95.95L120.34,102.35L121.9,98.64L125.03,72.13L126.59,100.02L128.15,104.66L129.71,90.25L131.28,94.23L132.84,73.85L134.4,77.42L135.96,109.84L137.53,80.88L139.09,80.97L140.65,90.28L142.22,82.43L143.78,63.57L145.34,84.59L146.9,95.83L148.47,75.78L153.16,93.28L154.72,86.48L156.28,78.75L157.84,79.7L160.97,104.88L162.53,69.21L164.1,70.36L165.66,67.86L167.22,97.85L168.78,96.13L170.35,102.97L171.91,92.15L173.47,102.11L175.04,85.37L176.6,65.91L178.16,82.16L179.72,79.65L181.29,83.37L182.85,71.13L184.41,97.51L187.54,71.02L189.1,85.35L190.66,99.34L192.23,101.32L193.79,67.99L195.35,60.3L196.91,83.85L198.48,68.89L200.04,71.93L201.6,70.87L203.17,72.11L204.73,77.1L206.29,71.91L207.85,63.02L209.42,70.35L210.98,95.96L214.11,78.39L215.67,79.25L217.23,74.29L218.79,98.09L220.36,100.25L221.92,91.37L223.48,94.33L225.05,62.05L228.17,80.78L229.73,70.29L231.3,73.02L232.86,69.83L234.42,81.72L235.98,52.35L237.55,80.11L239.11,82.69L240.67,70.97L242.24,81.26L243.8,74.94L245.36,80.72L246.92,61.9L248.49,83.45L250.05,57.14L251.61,77.05L253.18,93.31L254.74,69L256.3,74.54L257.86,55.19L259.43,68.48L260.99,97.71L262.55,62.71L264.12,87.73L265.68,76.5L267.24,91.31L268.8,63.24L270.37,91.39L271.93,69.65L273.49,90.95L276.62,64.73L278.18,80.81L279.74,78.86L281.31,69.23L282.87,59.47L284.43,85.4L285.99,39.52L287.56,74.09L289.12,72.81L290.68,88.67L292.25,102.06L293.81,66.45L295.37,92.25L296.93,85.19L298.5,70.58L300.06,71.34L301.62,69.44L303.19,65.64L304.75,58.62L306.31,91.53L307.87,61L309.44,75.21L311,88.98" style="vector-effect: non-scaling-stroke; fill: none; stroke: rgb(99, 110, 250); stroke-opacity: 1; stroke-width: 2px; opacity: 1;"/></g><g class="points"/><g class="text"/></g><g class="trace scatter trace887416" style="stroke-miterlimit: 2; opacity: 1;"><g class="fills"><g><path class="js-fill" d="M0,199.91L1.56,200.26L3.13,193.62L4.69,196.65L6.25,208.05L7.81,196.7L9.38,195.11L10.94,201.11L12.5,198.24L14.07,195.59L15.63,196.24L17.19,203.38L18.75,202.7L20.32,186.9L21.88,197.92L23.44,206.8L25.01,194.07L26.57,189.63L28.13,212.45L29.69,191.2L31.26,191.31L32.82,190.85L34.38,198.72L35.94,199.57L37.51,189.46L39.07,190.71L40.63,195.81L45.32,167.12L46.88,182.09L48.45,167.31L50.01,161.56L51.57,141.29L53.14,160.7L54.7,147.81L56.26,145.41L57.82,155.71L59.39,144.62L60.95,139.31L62.51,124.25L64.08,127.73L65.64,114.5L67.2,129.62L68.76,125.33L70.33,102.28L71.89,115.68L73.45,90.42L75.02,118.47L76.58,102.96L78.14,106.64L79.7,95.87L81.27,71.67L84.39,95.01L85.95,54.73L89.08,99.41L90.64,92L92.21,55.13L93.77,69.56L95.33,79.38L96.89,74.54L98.46,92.06L100.02,72.58L101.58,51.24L103.15,48.52L104.71,71.78L106.27,79.34L107.83,71.12L109.4,84.48L110.96,74.55L112.52,78.62L115.65,68.87L117.21,67.34L118.77,60.31L120.34,91.59L121.9,72.47L123.46,70.13L125.03,50.61L126.59,65.47L128.15,84.48L129.71,76.03L131.28,71.32L132.84,59.24L134.4,64L135.96,91.88L137.53,71.99L139.09,69.43L143.78,58.36L145.34,52.2L146.9,58.52L148.47,42.26L151.59,71.95L153.16,62.6L154.72,59.81L156.28,63.04L159.41,55.57L160.97,70.31L162.53,54.33L164.1,59.11L165.66,47.02L167.22,76.3L168.78,47.32L170.35,87.88L171.91,63.04L173.47,58.13L175.04,64.01L176.6,49.02L178.16,62.42L179.72,60.59L181.29,57.61L182.85,23.93L184.41,71.7L185.97,65.01L187.54,37.54L189.1,58.48L190.66,74.74L192.23,74.08L193.79,55.18L195.35,48.91L196.91,64.75L198.48,53.49L200.04,32.48L201.6,50.23L203.17,37.96L204.73,67.94L207.85,39.43L209.42,49.84L210.98,66.91L212.54,54.07L214.11,49.48L215.67,62.74L217.23,40.62L218.79,64.32L220.36,86.03L221.92,70.46L225.05,40.31L226.61,47.34L228.17,52.14L229.73,53.83L231.3,55.09L232.86,46.95L234.42,57.07L235.98,44.34L237.55,66.65L239.11,69.6L240.67,55.09L242.24,57.72L243.8,63.33L245.36,64.94L246.92,48.29L248.49,51.92L250.05,29.58L251.61,58.51L253.18,71.66L254.74,41.8L256.3,44.45L257.86,12.95L259.43,35.22L260.99,82.63L262.55,31.02L264.12,62.14L265.68,53.51L267.24,61.46L268.8,49.4L270.37,67.45L271.93,40.35L273.49,63.17L276.62,57.82L278.18,51.37L279.74,59.29L281.31,50.52L282.87,38.53L284.43,70.7L285.99,27.19L287.56,54.02L289.12,42.63L290.68,62.62L292.25,74.19L293.81,40.43L295.37,37.28L296.93,70.11L300.06,51.18L301.62,33.05L303.19,42.31L304.75,44.26L306.31,64.2L307.87,44.11L309.44,50.37L311,72.69L311,118.66L309.44,92.42L307.87,96.88L306.31,107.57L304.75,108.23L303.19,85.13L301.62,122.14L300.06,85.39L298.5,82.86L296.93,101.71L295.37,106.27L293.81,80.85L292.25,118.98L290.68,119.95L289.12,97.42L287.56,114.91L285.99,88.77L284.43,99.67L282.87,96.25L281.31,112.65L275.06,93.07L273.49,108.22L271.93,103.48L270.37,104.52L268.8,107.83L267.24,107.08L265.68,102.41L264.12,102.83L262.55,88.57L260.99,111.19L259.43,92.42L257.86,100.07L256.3,114.4L254.74,110.64L251.61,110.61L250.05,83.67L248.49,109.53L246.92,85.73L245.36,105.33L243.8,85.24L242.24,114.33L240.67,121.86L239.11,96.34L237.55,97.74L235.98,71.08L234.42,99.51L232.86,95.72L231.3,98.97L229.73,86.97L228.17,114.49L226.61,102.81L225.05,75.64L223.48,103.35L221.92,109.19L220.36,115.8L218.79,137.14L217.23,108.15L215.67,107.12L212.54,130.58L210.98,129.08L209.42,96.66L207.85,106.26L206.29,128.15L204.73,98.27L203.17,98.59L201.6,102.17L200.04,100.66L198.48,125.9L195.35,90.05L193.79,89.97L192.23,113.73L190.66,124.23L189.1,109.95L187.54,103.08L185.97,110.85L184.41,113.38L182.85,93.4L181.29,110.22L179.72,124.52L178.16,91.86L176.6,77.53L175.04,113.88L173.47,115.99L171.91,108.01L170.35,118.95L168.78,107.97L167.22,113.51L165.66,96.11L164.1,106.57L162.53,104.23L160.97,130.19L159.41,114.56L156.28,96.37L154.72,100.45L151.59,127.62L150.03,93.23L148.47,100.47L146.9,115.11L143.78,88.9L142.22,97.96L140.65,119.24L139.09,113.9L137.53,94.04L135.96,129.8L134.4,96.59L132.84,103.96L131.28,109.79L129.71,126.64L128.15,142.62L126.59,119.61L125.03,108.86L123.46,110.87L121.9,126.72L120.34,121.78L118.77,107.83L117.21,109.07L115.65,112.14L114.09,124.99L110.96,109.56L109.4,132.26L107.83,106.95L106.27,114.91L104.71,94.17L103.15,113.71L101.58,131.65L100.02,109.41L98.46,125.17L96.89,152.38L95.33,124.99L93.77,150.64L92.21,111.84L90.64,142.54L89.08,136.62L87.52,158.68L85.95,125.59L84.39,139.49L82.83,167.77L81.27,160.63L79.7,139.71L78.14,170.57L76.58,167.02L75.02,181.24L73.45,169.6L71.89,164.35L70.33,182.82L68.76,180.91L67.2,187.98L65.64,175.01L64.08,192.42L62.51,170.02L60.95,162.08L59.39,191.53L57.82,184.32L56.26,190.11L54.7,183.1L53.14,199.03L51.57,201.46L50.01,191.37L48.45,205.46L46.88,205.18L45.32,201.76L43.76,212.72L42.2,212.83L40.63,220.54L39.07,233.11L37.51,213.21L35.94,232.78L34.38,224.78L32.82,217.23L31.26,232.31L29.69,232.25L28.13,246.05L26.57,230.12L25.01,232.35L23.44,225L21.88,239.18L20.32,219.08L18.75,244.38L17.19,222.43L15.63,227.13L14.07,220.5L12.5,229.17L10.94,221.32L9.38,220.95L7.81,209.77L6.25,217.89L4.69,214.16L3.13,202.82L1.56,219.82L0,217.95Z" style="fill: rgb(99, 110, 250); fill-opacity: 0.3; stroke-width: 0;"/></g></g><g class="errorbars"/><g class="lines"><path class="js-line" d="M0,199.91L1.56,200.26L3.13,193.62L4.69,196.65L6.25,208.05L7.81,196.7L9.38,195.11L10.94,201.11L12.5,198.24L14.07,195.59L15.63,196.24L17.19,203.38L18.75,202.7L20.32,186.9L21.88,197.92L23.44,206.8L25.01,194.07L26.57,189.63L28.13,212.45L29.69,191.2L31.26,191.31L32.82,190.85L34.38,198.72L35.94,199.57L37.51,189.46L39.07,190.71L40.63,195.81L45.32,167.12L46.88,182.09L48.45,167.31L50.01,161.56L51.57,141.29L53.14,160.7L54.7,147.81L56.26,145.41L57.82,155.71L59.39,144.62L60.95,139.31L62.51,124.25L64.08,127.73L65.64,114.5L67.2,129.62L68.76,125.33L70.33,102.28L71.89,115.68L73.45,90.42L75.02,118.47L76.58,102.96L78.14,106.64L79.7,95.87L81.27,71.67L84.39,95.01L85.95,54.73L89.08,99.41L90.64,92L92.21,55.13L93.77,69.56L95.33,79.38L96.89,74.54L98.46,92.06L100.02,72.58L101.58,51.24L103.15,48.52L104.71,71.78L106.27,79.34L107.83,71.12L109.4,84.48L110.96,74.55L112.52,78.62L115.65,68.87L117.21,67.34L118.77,60.31L120.34,91.59L121.9,72.47L123.46,70.13L125.03,50.61L126.59,65.47L128.15,84.48L129.71,76.03L131.28,71.32L132.84,59.24L134.4,64L135.96,91.88L137.53,71.99L139.09,69.43L143.78,58.36L145.34,52.2L146.9,58.52L148.47,42.26L151.59,71.95L153.16,62.6L154.72,59.81L156.28,63.04L159.41,55.57L160.97,70.31L162.53,54.33L164.1,59.11L165.66,47.02L167.22,76.3L168.78,47.32L170.35,87.88L171.91,63.04L173.47,58.13L175.04,64.01L176.6,49.02L178.16,62.42L179.72,60.59L181.29,57.61L182.85,23.93L184.41,71.7L185.97,65.01L187.54,37.54L189.1,58.48L190.66,74.74L192.23,74.08L193.79,55.18L195.35,48.91L196.91,64.75L198.48,53.49L200.04,32.48L201.6,50.23L203.17,37.96L204.73,67.94L207.85,39.43L209.42,49.84L210.98,66.91L212.54,54.07L214.11,49.48L215.67,62.74L217.23,40.62L218.79,64.32L220.36,86.03L221.92,70.46L225.05,40.31L226.61,47.34L228.17,52.14L229.73,53.83L231.3,55.09L232.86,46.95L234.42,57.07L235.98,44.34L237.55,66.65L239.11,69.6L240.67,55.09L242.24,57.72L243.8,63.33L245.36,64.94L246.92,48.29L248.49,51.92L250.05,29.58L251.61,58.51L253.18,71.66L254.74,41.8L256.3,44.45L257.86,12.95L259.43,35.22L260.99,82.63L262.55,31.02L264.12,62.14L265.68,53.51L267.24,61.46L268.8,49.4L270.37,67.45L271.93,40.35L273.49,63.17L276.62,57.82L278.18,51.37L279.74,59.29L281.31,50.52L282.87,38.53L284.43,70.7L285.99,27.19L287.56,54.02L289.12,42.63L290.68,62.62L292.25,74.19L293.81,40.43L295.37,37.28L296.93,70.11L300.06,51.18L301.62,33.05L303.19,42.31L304.75,44.26L306.31,64.2L307.87,44.11L309.44,50.37L311,72.69L311,118.66L309.44,92.42L307.87,96.88L306.31,107.57L304.75,108.23L303.19,85.13L301.62,122.14L300.06,85.39L298.5,82.86L296.93,101.71L295.37,106.27L293.81,80.85L292.25,118.98L290.68,119.95L289.12,97.42L287.56,114.91L285.99,88.77L284.43,99.67L282.87,96.25L281.31,112.65L275.06,93.07L273.49,108.22L271.93,103.48L270.37,104.52L268.8,107.83L267.24,107.08L265.68,102.41L264.12,102.83L262.55,88.57L260.99,111.19L259.43,92.42L257.86,100.07L256.3,114.4L254.74,110.64L251.61,110.61L250.05,83.67L248.49,109.53L246.92,85.73L245.36,105.33L243.8,85.24L242.24,114.33L240.67,121.86L239.11,96.34L237.55,97.74L235.98,71.08L234.42,99.51L232.86,95.72L231.3,98.97L229.73,86.97L228.17,114.49L226.61,102.81L225.05,75.64L223.48,103.35L221.92,109.19L220.36,115.8L218.79,137.14L217.23,108.15L215.67,107.12L212.54,130.58L210.98,129.08L209.42,96.66L207.85,106.26L206.29,128.15L204.73,98.27L203.17,98.59L201.6,102.17L200.04,100.66L198.48,125.9L195.35,90.05L193.79,89.97L192.23,113.73L190.66,124.23L189.1,109.95L187.54,103.08L185.97,110.85L184.41,113.38L182.85,93.4L181.29,110.22L179.72,124.52L178.16,91.86L176.6,77.53L175.04,113.88L173.47,115.99L171.91,108.01L170.35,118.95L168.78,107.97L167.22,113.51L165.66,96.11L164.1,106.57L162.53,104.23L160.97,130.19L159.41,114.56L156.28,96.37L154.72,100.45L151.59,127.62L150.03,93.23L148.47,100.47L146.9,115.11L143.78,88.9L142.22,97.96L140.65,119.24L139.09,113.9L137.53,94.04L135.96,129.8L134.4,96.59L132.84,103.96L131.28,109.79L129.71,126.64L128.15,142.62L126.59,119.61L125.03,108.86L123.46,110.87L121.9,126.72L120.34,121.78L118.77,107.83L117.21,109.07L115.65,112.14L114.09,124.99L110.96,109.56L109.4,132.26L107.83,106.95L106.27,114.91L104.71,94.17L103.15,113.71L101.58,131.65L100.02,109.41L98.46,125.17L96.89,152.38L95.33,124.99L93.77,150.64L92.21,111.84L90.64,142.54L89.08,136.62L87.52,158.68L85.95,125.59L84.39,139.49L82.83,167.77L81.27,160.63L79.7,139.71L78.14,170.57L76.58,167.02L75.02,181.24L73.45,169.6L71.89,164.35L70.33,182.82L68.76,180.91L67.2,187.98L65.64,175.01L64.08,192.42L62.51,170.02L60.95,162.08L59.39,191.53L57.82,184.32L56.26,190.11L54.7,183.1L53.14,199.03L51.57,201.46L50.01,191.37L48.45,205.46L46.88,205.18L45.32,201.76L43.76,212.72L42.2,212.83L40.63,220.54L39.07,233.11L37.51,213.21L35.94,232.78L34.38,224.78L32.82,217.23L31.26,232.31L29.69,232.25L28.13,246.05L26.57,230.12L25.01,232.35L23.44,225L21.88,239.18L20.32,219.08L18.75,244.38L17.19,222.43L15.63,227.13L14.07,220.5L12.5,229.17L10.94,221.32L9.38,220.95L7.81,209.77L6.25,217.89L4.69,214.16L3.13,202.82L1.56,219.82L0,217.95" style="vector-effect: non-scaling-stroke; fill: none; stroke: rgb(0, 0, 0); stroke-opacity: 0; stroke-width: 2px; opacity: 1;"/></g><g class="points"/><g class="text"/></g><g class="trace scatter trace402e17" style="stroke-miterlimit: 2; opacity: 1;"><g class="fills"/><g class="errorbars"/><g class="lines"><path class="js-line" d="M0,207.83L3.13,205.98L4.69,206.84L6.25,206.69L7.81,209.79L10.94,206.45L12.5,208.73L15.63,205.74L17.19,207.23L18.75,205.13L20.32,206.25L21.88,206.7L23.44,203.87L25.01,200.13L26.57,199.5L28.13,199.39L29.69,196.75L32.82,193.85L34.38,193.91L35.94,192.49L37.51,187.53L39.07,186.5L40.63,187.43L45.32,168.89L46.88,171.37L51.57,156.8L53.14,149.11L54.7,152.72L56.26,139.93L57.82,124.32L59.39,130.27L60.95,121.24L62.51,127.4L64.08,111.17L65.64,110.3L67.2,113.88L68.76,104.11L70.33,101.75L71.89,96.62L73.45,94.41L75.02,96.05L78.14,87.28L79.7,90.11L82.83,84.9L84.39,83.76L85.95,89.22L87.52,86.59L89.08,88.01L90.64,84.52L92.21,90.7L93.77,84.27L95.33,81.64L96.89,87.75L98.46,83.99L100.02,82.96L101.58,82.8L103.15,78.43L104.71,80.01L106.27,82.68L107.83,80.39L109.4,84.62L110.96,85.03L112.52,81.57L117.21,85.45L118.77,76.75L120.34,78.43L121.9,81.33L123.46,81.09L125.03,82.22L126.59,83.3L128.15,81.28L129.71,84.73L131.28,82.82L132.84,80.94L134.4,82.52L137.53,77.56L139.09,80.35L140.65,79.05L142.22,83.7L143.78,82.08L145.34,78.7L146.9,83.81L148.47,80.17L150.03,82.02L151.59,81.15L153.16,81.39L154.72,76.87L156.28,80.88L157.84,79.93L159.41,75.63L160.97,81.13L162.53,79.87L164.1,81.23L165.66,77.58L167.22,77.54L168.78,82.29L170.35,76.87L171.91,78.94L173.47,76.39L175.04,78.28L176.6,81.9L178.16,76.9L179.72,77.51L181.29,77.95L182.85,74.49L184.41,74.49L185.97,75.68L187.54,75.28L189.1,77.43L192.23,76.26L193.79,75.56L196.91,74.92L198.48,76.69L200.04,75.04L201.6,75.43L203.17,73.79L204.73,76.06L206.29,74.5L207.85,77.6L209.42,74.9L210.98,75.9L214.11,74.41L215.67,80.67L217.23,74.52L218.79,76.86L220.36,73.22L221.92,77.7L225.05,76.59L226.61,76.76L228.17,77.25L229.73,73.95L231.3,75.5L232.86,71.9L237.55,74.62L239.11,76.58L240.67,76.48L242.24,73.65L243.8,72.71L245.36,76.37L246.92,79.02L248.49,74.19L250.05,75.44L251.61,73.17L253.18,76.25L254.74,73.33L256.3,72.17L257.86,73.01L259.43,72.97L260.99,71.27L264.12,77.15L265.68,73.2L268.8,78.23L270.37,72.86L271.93,76.03L273.49,70L275.06,72.65L276.62,72.39L278.18,72.69L279.74,69.85L281.31,72.83L282.87,70.52L285.99,74.52L287.56,74.43L289.12,74.51L290.68,70.06L292.25,75.82L293.81,73L295.37,71.62L296.93,71.73L298.5,74.22L300.06,65.67L301.62,71.93L303.19,75.07L304.75,73.82L306.31,68.48L307.87,74.15L309.44,72.05L311,71.17" style="vector-effect: non-scaling-stroke; fill: none; stroke: rgb(239, 85, 59); stroke-opacity: 1; stroke-width: 2px; opacity: 1;"/></g><g class="points"/><g class="text"/></g><g class="trace scatter traceaf69dc" style="stroke-miterlimit: 2; opacity: 1;"><g class="fills"><g><path class="js-fill" d="M0,203.9L1.56,204.35L3.13,203.95L4.69,204.49L6.25,203.76L7.81,204.53L9.38,202.06L12.5,204.94L14.07,203.63L15.63,200.69L17.19,202.19L18.75,199.2L20.32,199.69L21.88,198.38L23.44,199.14L26.57,194.69L28.13,196.17L29.69,194.55L31.26,187.72L32.82,188.41L34.38,185.54L35.94,183.4L37.51,176.86L40.63,165.45L42.2,168.56L43.76,160.59L45.32,157.93L46.88,153.94L48.45,141.99L50.01,144.47L51.57,127.5L53.14,124L54.7,125L56.26,120.11L57.82,111.92L59.39,107.71L60.95,110.27L62.51,94.2L64.08,98.19L65.64,94.78L67.2,94.34L70.33,80.95L71.89,84.25L73.45,81.38L75.02,84.12L76.58,80.53L78.14,82.03L79.7,77.02L81.27,76.65L87.52,74.93L89.08,76.26L92.21,77.78L93.77,75.7L95.33,70.77L96.89,78.54L98.46,73.61L100.02,73.7L101.58,75.2L103.15,70.88L104.71,74.25L106.27,74.13L107.83,76.03L109.4,75.65L110.96,76.1L112.52,73.61L115.65,76.4L117.21,73.51L118.77,69.92L120.34,74.53L121.9,72.57L123.46,72.78L125.03,74.82L126.59,71.16L129.71,73.64L131.28,72.54L132.84,68.66L134.4,76.18L135.96,74.57L137.53,67.11L139.09,68.17L140.65,70.27L142.22,77.22L143.78,70.94L145.34,69.54L146.9,75.94L148.47,68.09L150.03,74.98L151.59,75.5L153.16,70.59L154.72,69.24L156.28,71.95L159.41,69.91L160.97,71.78L162.53,72.44L164.1,72.08L165.66,70.36L167.22,72.86L168.78,76.05L170.35,70.22L171.91,66.02L173.47,73L178.16,68.64L179.72,73.41L182.85,68.33L184.41,68.08L187.54,67.74L189.1,71.05L190.66,70.05L192.23,70.04L193.79,66.27L195.35,67.3L196.91,65.7L198.48,70.29L200.04,66.74L201.6,67.75L203.17,68.06L204.73,70.31L206.29,66.9L207.85,72.11L209.42,68.33L210.98,70.21L212.54,64.62L214.11,67.38L215.67,72.26L217.23,65.81L218.79,70.27L220.36,66.43L221.92,65.48L223.48,71.55L225.05,65.59L226.61,70.31L228.17,65.01L229.73,66.6L231.3,65.88L232.86,63.51L234.42,66.98L235.98,65.29L237.55,65.99L239.11,65.85L240.67,70.5L242.24,65.52L243.8,61.66L245.36,65.41L246.92,67.65L248.49,67.33L250.05,70.38L251.61,67.25L253.18,69.81L254.74,65.35L256.3,66.93L257.86,63.49L259.43,65.29L260.99,65.92L264.12,67.75L265.68,66.54L267.24,66.48L268.8,69.45L270.37,67.5L271.93,70.61L273.49,63.69L275.06,66.81L278.18,61.02L279.74,63.91L281.31,65.92L282.87,59.15L284.43,66.2L285.99,65.12L287.56,62.87L289.12,63.52L290.68,61.87L292.25,67.51L293.81,68.97L295.37,65.39L296.93,63.84L298.5,67.37L300.06,62.14L301.62,61.57L303.19,67.29L304.75,68.36L306.31,64.55L307.87,66.28L309.44,65.3L311,62.45L311,77.72L309.44,83.76L307.87,83.67L306.31,78.05L304.75,84.17L303.19,82.72L301.62,81.54L300.06,78.29L298.5,84.15L296.93,83.71L295.37,80.5L293.81,81.66L292.25,83.87L290.68,83.73L289.12,83.63L287.56,82.65L285.99,88.65L284.43,83.23L282.87,86.7L281.31,79.46L279.74,84.82L278.18,85.49L276.62,78.65L275.06,81.27L273.49,84.28L271.93,83.54L270.37,82.12L268.8,86.43L267.24,83L265.68,86.9L264.12,82.69L262.55,83.37L260.99,82.63L259.43,85.7L257.86,79.23L256.3,81.33L254.74,82.15L253.18,86.61L251.61,87.12L250.05,86.06L248.49,86.29L246.92,87.46L245.36,88.65L243.8,82.42L242.24,82.44L240.67,84.38L239.11,85.36L237.55,82.04L235.98,81.21L234.42,84.95L232.86,83.21L231.3,89.07L229.73,85.05L228.17,90.89L226.61,89.9L225.05,90.56L223.48,84.45L221.92,87.31L220.36,85.18L218.79,89.48L217.23,79.99L215.67,90.02L214.11,82.77L212.54,91.09L209.42,81.18L207.85,87.04L206.29,93.29L204.73,87.68L203.17,88.72L201.6,88.21L200.04,88.78L198.48,86.67L196.91,87L195.35,94.4L193.79,86.21L192.23,89.31L190.66,90.74L189.1,84.63L187.54,87.7L185.97,92.52L184.41,87.5L182.85,87.69L181.29,90.86L179.72,88.86L178.16,91.23L176.6,90.12L175.04,92.58L173.47,85.54L171.91,92.61L170.35,87.13L168.78,88.88L167.22,88.39L165.66,92.03L164.1,90.7L162.53,88.46L160.97,95.25L157.84,89.07L156.28,89.12L154.72,98.21L153.16,95.37L151.59,88.85L150.03,86.51L146.9,97.53L145.34,88.65L143.78,89.44L142.22,95.88L140.65,94.56L139.09,98.12L137.53,92.08L135.96,90.43L134.4,94.72L132.84,95.68L131.28,97.26L129.71,95.56L128.15,93.41L126.59,101.54L125.03,96.4L123.46,96.16L121.9,93.54L120.34,99.84L118.77,94.13L117.21,104.8L115.65,92.38L114.09,94.76L112.52,94.07L110.96,97.29L109.4,104.54L107.83,100.39L106.27,100.67L104.71,89.14L103.15,95.46L101.58,89.93L100.02,97.95L98.46,101.24L96.89,101L95.33,96.38L93.77,96.24L92.21,99.49L90.64,100.17L89.08,110.1L87.52,101L85.95,96.29L84.39,100.5L82.83,114.2L81.27,99.3L79.7,106.93L78.14,118.58L76.58,120.08L75.02,122.23L73.45,125.91L71.89,125L70.33,137.04L68.76,145.89L67.2,142.75L65.64,144.54L64.08,148.31L62.51,160.91L60.95,160.99L59.39,162.87L57.82,166.1L54.7,173.88L53.14,172.29L51.57,182.22L50.01,180.31L48.45,188.18L46.88,185.47L45.32,188.01L43.76,187.63L40.63,194.3L39.07,195.44L37.51,196.02L35.94,197.59L34.38,197.31L32.82,198.3L29.69,201.13L28.13,207.32L26.57,206.25L25.01,206.82L23.44,213.13L21.88,211.79L20.32,213.78L18.75,213.53L17.19,214.31L15.63,212.63L14.07,213.7L12.5,213.84L10.94,210.75L9.38,216.05L7.81,214.58L6.25,211.3L4.69,211.19L3.13,209.51L0,210.18Z" style="fill: rgb(239, 85, 59); fill-opacity: 0.3; stroke-width: 0;"/></g></g><g class="errorbars"/><g class="lines"><path class="js-line" d="M0,203.9L1.56,204.35L3.13,203.95L4.69,204.49L6.25,203.76L7.81,204.53L9.38,202.06L12.5,204.94L14.07,203.63L15.63,200.69L17.19,202.19L18.75,199.2L20.32,199.69L21.88,198.38L23.44,199.14L26.57,194.69L28.13,196.17L29.69,194.55L31.26,187.72L32.82,188.41L34.38,185.54L35.94,183.4L37.51,176.86L40.63,165.45L42.2,168.56L43.76,160.59L45.32,157.93L46.88,153.94L48.45,141.99L50.01,144.47L51.57,127.5L53.14,124L54.7,125L56.26,120.11L57.82,111.92L59.39,107.71L60.95,110.27L62.51,94.2L64.08,98.19L65.64,94.78L67.2,94.34L70.33,80.95L71.89,84.25L73.45,81.38L75.02,84.12L76.58,80.53L78.14,82.03L79.7,77.02L81.27,76.65L87.52,74.93L89.08,76.26L92.21,77.78L93.77,75.7L95.33,70.77L96.89,78.54L98.46,73.61L100.02,73.7L101.58,75.2L103.15,70.88L104.71,74.25L106.27,74.13L107.83,76.03L109.4,75.65L110.96,76.1L112.52,73.61L115.65,76.4L117.21,73.51L118.77,69.92L120.34,74.53L121.9,72.57L123.46,72.78L125.03,74.82L126.59,71.16L129.71,73.64L131.28,72.54L132.84,68.66L134.4,76.18L135.96,74.57L137.53,67.11L139.09,68.17L140.65,70.27L142.22,77.22L143.78,70.94L145.34,69.54L146.9,75.94L148.47,68.09L150.03,74.98L151.59,75.5L153.16,70.59L154.72,69.24L156.28,71.95L159.41,69.91L160.97,71.78L162.53,72.44L164.1,72.08L165.66,70.36L167.22,72.86L168.78,76.05L170.35,70.22L171.91,66.02L173.47,73L178.16,68.64L179.72,73.41L182.85,68.33L184.41,68.08L187.54,67.74L189.1,71.05L190.66,70.05L192.23,70.04L193.79,66.27L195.35,67.3L196.91,65.7L198.48,70.29L200.04,66.74L201.6,67.75L203.17,68.06L204.73,70.31L206.29,66.9L207.85,72.11L209.42,68.33L210.98,70.21L212.54,64.62L214.11,67.38L215.67,72.26L217.23,65.81L218.79,70.27L220.36,66.43L221.92,65.48L223.48,71.55L225.05,65.59L226.61,70.31L228.17,65.01L229.73,66.6L231.3,65.88L232.86,63.51L234.42,66.98L235.98,65.29L237.55,65.99L239.11,65.85L240.67,70.5L242.24,65.52L243.8,61.66L245.36,65.41L246.92,67.65L248.49,67.33L250.05,70.38L251.61,67.25L253.18,69.81L254.74,65.35L256.3,66.93L257.86,63.49L259.43,65.29L260.99,65.92L264.12,67.75L265.68,66.54L267.24,66.48L268.8,69.45L270.37,67.5L271.93,70.61L273.49,63.69L275.06,66.81L278.18,61.02L279.74,63.91L281.31,65.92L282.87,59.15L284.43,66.2L285.99,65.12L287.56,62.87L289.12,63.52L290.68,61.87L292.25,67.51L293.81,68.97L295.37,65.39L296.93,63.84L298.5,67.37L300.06,62.14L301.62,61.57L303.19,67.29L304.75,68.36L306.31,64.55L307.87,66.28L309.44,65.3L311,62.45L311,77.72L309.44,83.76L307.87,83.67L306.31,78.05L304.75,84.17L303.19,82.72L301.62,81.54L300.06,78.29L298.5,84.15L296.93,83.71L295.37,80.5L293.81,81.66L292.25,83.87L290.68,83.73L289.12,83.63L287.56,82.65L285.99,88.65L284.43,83.23L282.87,86.7L281.31,79.46L279.74,84.82L278.18,85.49L276.62,78.65L275.06,81.27L273.49,84.28L271.93,83.54L270.37,82.12L268.8,86.43L267.24,83L265.68,86.9L264.12,82.69L262.55,83.37L260.99,82.63L259.43,85.7L257.86,79.23L256.3,81.33L254.74,82.15L253.18,86.61L251.61,87.12L250.05,86.06L248.49,86.29L246.92,87.46L245.36,88.65L243.8,82.42L242.24,82.44L240.67,84.38L239.11,85.36L237.55,82.04L235.98,81.21L234.42,84.95L232.86,83.21L231.3,89.07L229.73,85.05L228.17,90.89L226.61,89.9L225.05,90.56L223.48,84.45L221.92,87.31L220.36,85.18L218.79,89.48L217.23,79.99L215.67,90.02L214.11,82.77L212.54,91.09L209.42,81.18L207.85,87.04L206.29,93.29L204.73,87.68L203.17,88.72L201.6,88.21L200.04,88.78L198.48,86.67L196.91,87L195.35,94.4L193.79,86.21L192.23,89.31L190.66,90.74L189.1,84.63L187.54,87.7L185.97,92.52L184.41,87.5L182.85,87.69L181.29,90.86L179.72,88.86L178.16,91.23L176.6,90.12L175.04,92.58L173.47,85.54L171.91,92.61L170.35,87.13L168.78,88.88L167.22,88.39L165.66,92.03L164.1,90.7L162.53,88.46L160.97,95.25L157.84,89.07L156.28,89.12L154.72,98.21L153.16,95.37L151.59,88.85L150.03,86.51L146.9,97.53L145.34,88.65L143.78,89.44L142.22,95.88L140.65,94.56L139.09,98.12L137.53,92.08L135.96,90.43L134.4,94.72L132.84,95.68L131.28,97.26L129.71,95.56L128.15,93.41L126.59,101.54L125.03,96.4L123.46,96.16L121.9,93.54L120.34,99.84L118.77,94.13L117.21,104.8L115.65,92.38L114.09,94.76L112.52,94.07L110.96,97.29L109.4,104.54L107.83,100.39L106.27,100.67L104.71,89.14L103.15,95.46L101.58,89.93L100.02,97.95L98.46,101.24L96.89,101L95.33,96.38L93.77,96.24L92.21,99.49L90.64,100.17L89.08,110.1L87.52,101L85.95,96.29L84.39,100.5L82.83,114.2L81.27,99.3L79.7,106.93L78.14,118.58L76.58,120.08L75.02,122.23L73.45,125.91L71.89,125L70.33,137.04L68.76,145.89L67.2,142.75L65.64,144.54L64.08,148.31L62.51,160.91L60.95,160.99L59.39,162.87L57.82,166.1L54.7,173.88L53.14,172.29L51.57,182.22L50.01,180.31L48.45,188.18L46.88,185.47L45.32,188.01L43.76,187.63L40.63,194.3L39.07,195.44L37.51,196.02L35.94,197.59L34.38,197.31L32.82,198.3L29.69,201.13L28.13,207.32L26.57,206.25L25.01,206.82L23.44,213.13L21.88,211.79L20.32,213.78L18.75,213.53L17.19,214.31L15.63,212.63L14.07,213.7L12.5,213.84L10.94,210.75L9.38,216.05L7.81,214.58L6.25,211.3L4.69,211.19L3.13,209.51L0,210.18" style="vector-effect: non-scaling-stroke; fill: none; stroke: rgb(0, 0, 0); stroke-opacity: 0; stroke-width: 2px; opacity: 1;"/></g><g class="points"/><g class="text"/></g></g></g><g class="overplot"/><path class="xlines-above crisp" d="M0,0" style="fill: none;"/><path class="ylines-above crisp" d="M0,0" style="fill: none;"/><g class="overlines-above"/><g class="xaxislayer-above"><g class="xtick"><text text-anchor="middle" x="0" y="272" transform="translate(170.53,0)" style="font-family: 'Latin Modern Roman'; font-size: 12px; fill: rgb(0, 0, 0); fill-opacity: 1; white-space: pre;">20M</text></g><g class="xtick"><text text-anchor="middle" x="0" y="272" transform="translate(292.63,0)" style="font-family: 'Latin Modern Roman'; font-size: 12px; fill: rgb(0, 0, 0); fill-opacity: 1; white-space: pre;">40M</text></g></g><g class="yaxislayer-above"><g class="ytick"><text text-anchor="end" x="49" y="4.199999999999999" transform="translate(0,240.18)" style="font-family: 'Latin Modern Roman'; font-size: 12px; fill: rgb(0, 0, 0); fill-opacity: 1; white-space: pre;">−0.5</text></g><g class="ytick"><text text-anchor="end" x="49" y="4.199999999999999" transform="translate(0,195.98)" style="font-family: 'Latin Modern Roman'; font-size: 12px; fill: rgb(0, 0, 0); fill-opacity: 1; white-space: pre;">0</text></g><g class="ytick"><text text-anchor="end" x="49" y="4.199999999999999" transform="translate(0,151.79)" style="font-family: 'Latin Modern Roman'; font-size: 12px; fill: rgb(0, 0, 0); fill-opacity: 1; white-space: pre;">0.5</text></g><g class="ytick"><text text-anchor="end" x="49" y="4.199999999999999" transform="translate(0,107.6)" style="font-family: 'Latin Modern Roman'; font-size: 12px; fill: rgb(0, 0, 0); fill-opacity: 1; white-space: pre;">1</text></g><g class="ytick"><text text-anchor="end" x="49" y="4.199999999999999" transform="translate(0,63.4)" style="font-family: 'Latin Modern Roman'; font-size: 12px; fill: rgb(0, 0, 0); fill-opacity: 1; white-space: pre;">1.5</text></g><g class="ytick"><text text-anchor="end" x="49" y="4.199999999999999" transform="translate(0,19.21)" style="font-family: 'Latin Modern Roman'; font-size: 12px; fill: rgb(0, 0, 0); fill-opacity: 1; white-space: pre;">2</text></g></g><g class="overaxes-above"/></g></g><g class="polarlayer"/><g class="ternarylayer"/><g class="geolayer"/><g class="funnelarealayer"/><g class="pielayer"/><g class="treemaplayer"/><g class="sunburstlayer"/><g class="glimages"/><defs id="topdefs-eface6"><g class="clips"/><clipPath id="legendeface6"><rect width="233" height="48" x="0" y="0"/></clipPath></defs><g class="layer-above"><g class="imagelayer"/><g class="shapelayer"/></g><g class="infolayer"><g class="legend" pointer-events="all" transform="translate(367,0)"><rect class="bg" shape-rendering="crispEdges" style="stroke: rgb(68, 68, 68); stroke-opacity: 1; fill: rgb(255, 255, 255); fill-opacity: 1; stroke-width: 0px;" width="233" height="48" x="0" y="0"/><g class="scrollbox" transform="" clip-path="url('#legendeface6')"><g class="groups"><g class="traces" transform="translate(0,14.5)" style="opacity: 1;"><text class="legendtext" text-anchor="start" x="40" y="4.680000000000001" style="font-family: 'Latin Modern Roman'; font-size: 12px; fill: rgb(0, 0, 0); fill-opacity: 1; white-space: pre;">Bayesian agg. (single space) (n=16)</text><g class="layers" style="opacity: 1;"><g class="legendfill"/><g class="legendlines"><path class="js-line" d="M5,0h30" style="fill: none; stroke: rgb(99, 110, 250); stroke-opacity: 1; stroke-width: 2px;"/></g><g class="legendsymbols"><g class="legendpoints"/></g></g><rect class="legendtoggle" x="0" y="-9.5" width="227.6875" height="19" style="fill: rgb(0, 0, 0); fill-opacity: 0;"/></g><g class="traces" transform="translate(0,33.5)" style="opacity: 1;"><text class="legendtext" text-anchor="start" x="40" y="4.680000000000001" style="font-family: 'Latin Modern Roman'; font-size: 12px; fill: rgb(0, 0, 0); fill-opacity: 1; white-space: pre;">Bayesian agg. (sep. spaces) (n=32)</text><g class="layers" style="opacity: 1;"><g class="legendfill"/><g class="legendlines"><path class="js-line" d="M5,0h30" style="fill: none; stroke: rgb(239, 85, 59); stroke-opacity: 1; stroke-width: 2px;"/></g><g class="legendsymbols"><g class="legendpoints"/></g></g><rect class="legendtoggle" x="0" y="-9.5" width="227.6875" height="19" style="fill: rgb(0, 0, 0); fill-opacity: 0;"/></g></g></g><rect class="scrollbar" rx="20" ry="3" width="0" height="0" style="fill: rgb(128, 139, 164); fill-opacity: 1;" x="0" y="0"/></g><g class="g-gtitle"/><g class="g-xtitle" transform="translate(0,-3.8000000000000114)"><text class="xtitle" x="205.5" y="299.8" text-anchor="middle" style="font-family: 'Latin Modern Roman'; font-size: 14px; fill: rgb(0, 0, 0); opacity: 1; font-weight: normal; white-space: pre;">Agent Steps</text></g><g class="g-ytitle" transform="translate(16.4873046875,0)"><text class="ytitle" transform="rotate(-90,-0.48749999999999716,129.5)" x="-0.48749999999999716" y="129.5" text-anchor="middle" style="font-family: 'Latin Modern Roman'; font-size: 14px; fill: rgb(0, 0, 0); opacity: 1; font-weight: normal; white-space: pre;">Avg. Reward</text></g></g></svg>