<svg class="main-svg" xmlns="http://www.w3.org/2000/svg" xmlns:xlink="http://www.w3.org/1999/xlink" width="600" height="300" style="" viewBox="0 0 600 300"><rect x="0" y="0" width="600" height="300" style="fill: rgb(255, 255, 255); fill-opacity: 1;"/><defs id="defs-54fab6"><g class="clips"><clipPath id="clip54fab6xyplot" class="plotclip"><rect width="358" height="259"/></clipPath><clipPath class="axesclip" id="clip54fab6x"><rect x="41" y="0" width="358" height="300"/></clipPath><clipPath class="axesclip" id="clip54fab6y"><rect x="0" y="0" width="600" height="259"/></clipPath><clipPath class="axesclip" id="clip54fab6xy"><rect x="41" y="0" width="358" height="259"/></clipPath></g><g class="gradients"/></defs><g class="bglayer"><rect class="bg" x="41" y="0" width="358" height="259" style="fill: rgb(229, 236, 246); fill-opacity: 1; stroke-width: 0;"/></g><g class="layer-below"><g class="imagelayer"/><g class="shapelayer"/></g><g class="cartesianlayer"><g class="subplot xy"><g class="layer-subplot"><g class="shapelayer"/><g class="imagelayer"/></g><g class="gridlayer"><g class="x"><path class="xgrid crisp" transform="translate(109.47,0)" d="M0,0v259" style="stroke: rgb(255, 255, 255); stroke-opacity: 1; stroke-width: 1px;"/><path class="xgrid crisp" transform="translate(179.75,0)" d="M0,0v259" style="stroke: rgb(255, 255, 255); stroke-opacity: 1; stroke-width: 1px;"/><path class="xgrid crisp" transform="translate(250.02,0)" d="M0,0v259" style="stroke: rgb(255, 255, 255); stroke-opacity: 1; stroke-width: 1px;"/><path class="xgrid crisp" transform="translate(320.29,0)" d="M0,0v259" style="stroke: rgb(255, 255, 255); stroke-opacity: 1; stroke-width: 1px;"/><path class="xgrid crisp" transform="translate(390.57,0)" d="M0,0v259" style="stroke: rgb(255, 255, 255); stroke-opacity: 1; stroke-width: 1px;"/></g><g class="y"><path class="ygrid crisp" transform="translate(0,150.99)" d="M41,0h358" style="stroke: rgb(255, 255, 255); stroke-opacity: 1; stroke-width: 1px;"/><path class="ygrid crisp" transform="translate(0,80.15)" d="M41,0h358" style="stroke: rgb(255, 255, 255); stroke-opacity: 1; stroke-width: 1px;"/><path class="ygrid crisp" transform="translate(0,9.31)" d="M41,0h358" style="stroke: rgb(255, 255, 255); stroke-opacity: 1; stroke-width: 1px;"/></g></g><g class="zerolinelayer"><path class="yzl zl crisp" transform="translate(0,221.83)" d="M41,0h358" style="stroke: rgb(255, 255, 255); stroke-opacity: 1; stroke-width: 2px;"/></g><path class="xlines-below"/><path class="ylines-below"/><g class="overlines-below"/><g class="xaxislayer-below"/><g class="yaxislayer-below"/><g class="overaxes-below"/><g class="plot" transform="translate(41,0)" clip-path="url('#clip54fab6xyplot')"><g class="scatterlayer mlayer"><g class="trace scatter traceb81a37" style="stroke-miterlimit: 2; opacity: 1;"><g class="fills"/><g class="errorbars"/><g class="lines"><path class="js-line" d="M0,240.83L3.6,237.86L5.4,239.23L7.2,239L8.99,243.96L10.79,242.03L12.59,238.61L14.39,242.27L16.19,239.34L17.99,237.47L19.79,239.86L21.59,236.5L23.39,238.29L25.19,239.01L26.98,234.48L28.78,228.48L30.58,227.47L32.38,227.29L34.18,223.07L37.78,218.41L39.58,218.51L41.38,216.23L43.18,208.28L44.97,206.64L46.77,208.12L52.17,178.41L53.97,182.38L55.77,174.82L57.57,163.57L59.37,159.02L61.17,146.71L62.96,152.48L64.76,131.99L66.56,106.96L68.36,116.49L70.16,102.03L71.96,111.89L73.76,85.89L75.56,84.49L77.36,90.23L79.16,74.57L80.95,70.78L82.75,62.56L84.55,59.02L86.35,61.65L89.95,47.59L91.75,52.13L95.35,43.78L97.15,41.94L98.94,50.7L100.74,46.48L102.54,48.75L104.34,43.16L106.14,53.07L107.94,42.76L109.74,38.55L111.54,48.34L113.34,42.32L115.14,40.66L116.93,40.41L118.73,33.4L120.53,35.94L122.33,40.21L124.13,36.55L125.93,43.32L127.73,43.97L129.53,38.44L133.13,41.54L134.92,44.66L136.72,30.71L138.52,33.41L140.32,38.05L142.12,37.67L145.72,41.21L147.52,37.96L149.32,43.5L151.12,40.44L152.91,37.43L154.71,39.96L158.31,32L160.11,36.49L161.91,34.4L163.71,41.85L165.51,39.25L167.31,33.83L169.11,42.02L170.9,36.19L172.7,39.16L174.5,37.76L176.3,38.15L178.1,30.9L179.9,37.33L181.7,35.8L183.5,28.92L185.3,37.73L187.1,35.71L188.89,37.89L190.69,32.03L192.49,31.97L194.29,39.59L196.09,30.9L197.89,34.23L199.69,30.13L201.49,33.15L203.29,38.96L205.09,30.94L206.88,31.93L208.68,32.63L210.48,27.09L212.28,27.09L214.08,29L215.88,28.36L217.68,31.79L219.48,30.19L221.28,29.93L223.08,28.8L224.87,28.61L226.67,27.77L228.47,30.61L230.27,27.96L232.07,28.6L233.87,25.97L235.67,29.61L237.47,27.11L239.27,32.07L241.07,27.74L242.86,29.34L246.46,26.95L248.26,37L250.06,27.14L251.86,30.89L253.66,25.05L255.46,32.23L259.06,30.45L260.85,30.73L262.65,31.51L264.45,26.21L266.25,28.71L268.05,22.94L271.65,25.38L273.45,27.29L275.25,30.43L277.05,30.28L278.84,25.74L280.64,24.23L284.24,34.35L286.04,26.61L287.84,28.61L289.64,24.96L291.44,29.9L293.24,25.23L295.04,23.36L296.83,24.72L298.63,24.65L300.43,21.93L304.03,31.35L305.83,25.02L309.43,33.09L311.23,24.47L313.03,29.56L314.82,19.88L316.62,24.14L318.42,23.72L320.22,24.2L322.02,19.66L323.82,24.42L325.62,20.73L329.22,27.13L331.02,26.99L332.81,27.12L334.61,19.98L336.41,29.21L338.21,24.71L340.01,22.49L341.81,22.66L343.61,26.66L345.41,12.95L347.21,22.98L349.01,28.02L350.8,26.02L352.6,17.45L354.4,26.53L356.2,23.17L358,21.77" style="vector-effect: non-scaling-stroke; fill: none; stroke: rgb(99, 110, 250); stroke-opacity: 1; stroke-width: 2px; opacity: 1;"/></g><g class="points"/><g class="text"/></g><g class="trace scatter trace299beb" style="stroke-miterlimit: 2; opacity: 1;"><g class="fills"/><g class="errorbars"/><g class="lines"><path class="js-line" d="M0,240.55L1.8,238.51L3.6,241.69L5.4,240.88L7.2,242.81L8.99,243.42L10.79,246.05L12.59,245.94L14.39,240.73L17.99,235.6L19.79,233.53L21.59,227.19L23.39,228.06L26.98,222.73L28.78,222.52L32.38,217.2L34.18,210.95L35.98,208.68L37.78,205.12L39.58,198.19L41.38,188.26L43.18,190.77L44.97,183.95L46.77,172.81L48.57,177.28L53.97,139.3L55.77,146.9L57.57,130.59L59.37,128.18L61.17,107.43L62.96,107.28L64.76,111.35L66.56,91.23L70.16,72.08L71.96,85.32L73.76,65.86L75.56,75.67L79.16,48.67L80.95,50.69L82.75,60.66L84.55,50.84L86.35,51.25L88.15,53.76L89.95,37.67L91.75,48.65L93.55,51.49L95.35,42.15L97.15,33.04L98.94,48.92L100.74,48.69L102.54,42.34L104.34,42.78L106.14,46.75L107.94,41.76L109.74,39.51L111.54,42.03L113.34,42.56L115.14,43.95L116.93,41.56L118.73,33.14L120.53,37.33L122.33,37.14L124.13,41.06L125.93,33.02L127.73,38.8L129.53,37.05L131.33,33.31L134.92,42.26L136.72,35.98L138.52,33.58L140.32,35.61L143.92,41.57L145.72,32.96L147.52,31.52L149.32,27.58L151.12,34.43L152.91,29.09L154.71,29.06L156.51,33.39L158.31,38.36L160.11,37.29L161.91,41.22L163.71,33.23L165.51,35.1L167.31,31.63L169.11,37.13L170.9,34.38L172.7,33.35L174.5,40.44L178.1,26.53L179.9,36.14L181.7,32.43L183.5,26.77L185.3,42.8L187.1,29.12L188.89,36.57L190.69,36.9L192.49,29.36L194.29,31.93L196.09,33.54L197.89,29.19L199.69,23.27L201.49,27.53L203.29,29.18L205.09,23.34L206.88,32.16L208.68,33.95L210.48,37.88L212.28,37.12L214.08,28.88L215.88,31.11L217.68,25.45L219.48,28.83L221.28,29.5L223.08,28.66L224.87,29.46L226.67,27.54L228.47,35.53L230.27,25.88L232.07,33.12L233.87,21.93L237.47,37.89L239.27,28.33L241.07,27.15L242.86,28.1L244.66,31.4L246.46,29.03L248.26,27.61L250.06,27.2L251.86,33.03L253.66,32.66L259.06,27.1L260.85,25.55L262.65,27.69L264.45,27.44L266.25,35.24L268.05,32.04L269.85,30.98L271.65,31.87L273.45,25.34L275.25,22.63L277.05,23.42L278.84,26.32L282.44,21.9L284.24,28.23L286.04,20.65L287.84,21.34L291.44,21.1L293.24,27.88L295.04,25.48L296.83,25.27L298.63,16.17L300.43,31.14L302.23,31.9L304.03,27.09L305.83,29.97L307.63,25.84L309.43,24.44L311.23,25.66L313.03,25.14L314.82,30.94L318.42,27.21L320.22,27.83L322.02,25.52L323.82,26.98L325.62,18.86L327.42,25.41L329.22,22.44L331.02,27.06L332.81,28.24L334.61,24.42L336.41,28.86L338.21,29.76L340.01,20.89L341.81,17.28L343.61,24.94L345.41,26.34L347.21,25.32L349.01,26.11L350.8,19.07L352.6,29.16L354.4,22.95L356.2,20.13L358,24.67" style="vector-effect: non-scaling-stroke; fill: none; stroke: rgb(239, 85, 59); stroke-opacity: 1; stroke-width: 2px; opacity: 1;"/></g><g class="points"/><g class="text"/></g><g class="trace scatter trace36448a" style="stroke-miterlimit: 2; opacity: 1;"><g class="fills"/><g class="errorbars"/><g class="lines"><path class="js-line" d="M0,237.11L1.8,237.88L3.6,236.29L5.4,236.87L7.2,235.42L8.99,233.04L10.79,234L12.59,228.57L14.39,228.16L16.19,225.77L17.99,228.63L19.79,228.08L21.59,223.98L23.39,221.54L25.19,222.48L26.98,219.74L28.78,214.68L30.58,212.27L32.38,214.38L35.98,204.69L37.78,195.11L39.58,194.29L41.38,198.98L44.97,179.93L46.77,161.96L50.37,141.15L52.17,138.49L53.97,140.41L55.77,127.41L57.57,125.65L59.37,118.09L61.17,107.17L62.96,89.85L64.76,80.32L66.56,76.63L68.36,75.03L70.16,70.74L71.96,79.51L73.76,62.47L75.56,67.8L77.36,57.96L79.16,62.75L80.95,57.34L82.75,62.14L84.55,61.93L86.35,50.31L88.15,55.75L91.75,45.73L93.55,55.44L95.35,43.3L97.15,54.61L98.94,47.9L100.74,45.9L102.54,45.68L104.34,46.98L106.14,44.68L107.94,45.91L109.74,44.43L111.54,48.92L113.34,45.63L115.14,47.34L116.93,41.18L118.73,47.91L120.53,37.64L122.33,42.77L124.13,36.78L125.93,43.83L127.73,40.54L129.53,42.7L131.33,34.48L133.13,37.91L134.92,39.02L136.72,36.33L140.32,40.52L142.12,37.33L143.92,39.1L145.72,36.24L147.52,39.97L149.32,38.32L151.12,36.56L152.91,37.22L154.71,31.91L156.51,37.34L158.31,33.7L160.11,36.51L161.91,44.59L163.71,40.92L165.51,40.77L167.31,32.55L169.11,35.86L170.9,35.07L172.7,36.22L174.5,41.65L178.1,36.23L179.9,29.38L181.7,30.1L183.5,26.87L185.3,27.82L187.1,30.2L188.89,33.66L190.69,33.53L192.49,30.02L194.29,30.99L196.09,36.56L197.89,28.39L199.69,35.81L201.49,35.12L203.29,32.61L205.09,36.55L206.88,27.59L208.68,35.1L210.48,28.82L212.28,35.47L214.08,27.95L215.88,35.04L219.48,28.36L221.28,36.26L224.87,29.42L226.67,34.6L228.47,28.29L230.27,33.62L232.07,38.45L233.87,25.83L235.67,33.19L237.47,30.41L239.27,32.24L241.07,22.5L242.86,31.66L244.66,32.75L246.46,25.75L248.26,36.53L250.06,25.83L251.86,24.24L253.66,23.62L255.46,34.84L259.06,24.72L260.85,35.75L262.65,32.78L264.45,28.15L266.25,24.53L268.05,24.88L269.85,27.33L271.65,27.16L273.45,24.16L275.25,34.66L277.05,25.48L278.84,31.45L280.64,28.5L282.44,35.31L284.24,21.38L286.04,31.34L287.84,28.33L289.64,29.17L291.44,27.53L293.24,27.05L295.04,24.25L296.83,29.18L298.63,34.11L300.43,30.11L302.23,25.48L304.03,29.02L305.83,25.8L307.63,25.58L309.43,18.87L311.23,32.44L314.82,27.02L316.62,32.3L318.42,31.98L320.22,28.58L322.02,29.93L323.82,24.5L325.62,27.97L327.42,23.99L329.22,20.54L331.02,24.18L332.81,21.72L334.61,27.89L336.41,27.01L338.21,30.67L340.01,29.35L341.81,16.37L343.61,27.47L345.41,28.72L347.21,26.01L349.01,25.83L350.8,31.48L352.6,26.09L354.4,31.11L356.2,25.12L358,24.32" style="vector-effect: non-scaling-stroke; fill: none; stroke: rgb(0, 204, 150); stroke-opacity: 1; stroke-width: 2px; opacity: 1;"/></g><g class="points"/><g class="text"/></g><g class="trace scatter tracefc07e0" style="stroke-miterlimit: 2; opacity: 1;"><g class="fills"/><g class="errorbars"/><g class="lines"><path class="js-line" d="M0,238.43L3.6,240.68L5.4,241.06L7.2,241.84L8.99,238.63L12.59,239.87L14.39,239.31L16.19,234.46L17.99,235.44L21.59,229.51L23.39,228.67L25.19,226.05L26.98,226.2L28.78,223.4L30.58,223.71L32.38,222.81L34.18,223.05L35.98,222.71L37.78,219.42L39.58,219.26L41.38,221.54L43.18,214.58L44.97,218.9L46.77,211.76L48.57,214.72L50.37,207.91L52.17,215.06L55.77,209.11L57.57,210.37L59.37,209.3L61.17,205.81L62.96,200.67L64.76,199.6L66.56,198.45L68.36,194L70.16,174.44L71.96,189.83L73.76,182.81L75.56,170.57L77.36,167.32L79.16,160.66L80.95,167.59L82.75,156.38L84.55,154.09L86.35,146.44L88.15,125.33L89.95,123.56L93.55,134L95.35,127.95L97.15,132.87L98.94,132.27L100.74,101.26L102.54,104.9L104.34,89.76L106.14,92.86L107.94,85.28L109.74,90.79L111.54,77.15L113.34,75.3L115.14,82.88L116.93,76.11L118.73,98.21L120.53,81.74L122.33,64.48L124.13,75.83L125.93,71.19L127.73,70.86L129.53,72.21L131.33,79.19L133.13,61.44L134.92,75.85L136.72,85.34L138.52,71.05L140.32,63.92L142.12,65.73L143.92,59.1L145.72,57.65L147.52,60.01L149.32,66.32L151.12,64.51L152.91,56.58L154.71,55.77L156.51,71.93L160.11,58.76L161.91,56.68L163.71,57.63L165.51,52.4L167.31,53.9L169.11,53.2L170.9,65.38L172.7,52.15L174.5,64.71L176.3,48.5L178.1,56.4L179.9,47.46L181.7,62.2L183.5,49.94L185.3,51.45L187.1,48.62L190.69,46.33L192.49,46.27L194.29,36.43L196.09,40.46L197.89,47.35L199.69,48.68L201.49,47.38L203.29,52.03L205.09,49.87L206.88,43.72L208.68,53.49L210.48,39.8L212.28,51.32L214.08,42.08L215.88,45.38L217.68,46.02L219.48,52.21L221.28,44.07L224.87,35.59L226.67,51.27L228.47,47.46L230.27,48.58L232.07,39.49L233.87,35.87L235.67,47.86L237.47,44.24L239.27,34.49L241.07,39.59L242.86,35.39L244.66,46.9L246.46,48.84L248.26,43.11L250.06,41.21L251.86,45.17L253.66,44.45L255.46,52.25L257.26,40.86L259.06,43.09L260.85,32.29L262.65,43.11L264.45,29.61L266.25,36.83L268.05,40.86L269.85,36.91L271.65,34.55L273.45,35.99L275.25,31.48L277.05,41.33L278.84,38.49L280.64,32.39L284.24,42.29L286.04,34.76L287.84,36.52L289.64,46.3L291.44,42.73L293.24,25.71L296.83,39.81L298.63,28.87L300.43,36.72L302.23,40.08L304.03,24.58L305.83,36.2L307.63,32.53L309.43,37.16L311.23,35.7L313.03,40.91L314.82,33.96L316.62,33.14L318.42,39.52L320.22,34.43L322.02,36.88L323.82,35.15L325.62,32.34L327.42,36.44L329.22,29.73L331.02,35.88L332.81,43.92L334.61,30.76L336.41,35.85L338.21,34.16L340.01,30.68L341.81,37.78L343.61,45.42L345.41,41.77L347.21,44.02L349.01,34.14L350.8,39.9L352.6,35.94L354.4,36.65L356.2,39.17L358,29.6" style="vector-effect: non-scaling-stroke; fill: none; stroke: rgb(171, 99, 250); stroke-opacity: 1; stroke-width: 2px; opacity: 1;"/></g><g class="points"/><g class="text"/></g><g class="trace scatter trace61b1a6" style="stroke-miterlimit: 2; opacity: 1;"><g class="fills"/><g class="errorbars"/><g class="lines"><path class="js-line" d="M0,239.84L1.8,239.02L3.6,239.17L5.4,241.74L7.2,238.34L8.99,239.8L10.79,238.05L12.59,238.82L14.39,236.71L16.19,235.62L17.99,229.51L19.79,229.75L21.59,225.95L23.39,228.49L25.19,225.97L26.98,222.28L28.78,222.24L30.58,222.03L32.38,217.46L34.18,210.18L35.98,209.57L37.78,206.05L39.58,200.42L41.38,202.45L43.18,198.22L46.77,176.42L48.57,177.75L50.37,170.54L52.17,167.67L53.97,169.12L55.77,157.62L57.57,141.45L59.37,136.45L61.17,131.43L62.96,116.26L64.76,94.36L66.56,119.68L68.36,94.37L70.16,93.63L73.76,75.31L75.56,78.97L77.36,62.58L79.16,72.39L80.95,89.69L82.75,77.5L84.55,62.24L86.35,54.8L88.15,66.51L89.95,60.9L91.75,65.3L93.55,60.81L95.35,57.35L97.15,57.52L98.94,57.89L100.74,63.68L102.54,49.68L104.34,55.11L106.14,44.22L107.94,52.3L109.74,49.7L111.54,56L113.34,54.54L115.14,45.07L116.93,51.72L118.73,47.96L120.53,49.75L122.33,49.56L124.13,47.2L125.93,48.76L127.73,38.38L129.53,41.25L131.33,42.29L133.13,47.4L134.92,35.43L136.72,43L138.52,42.34L140.32,37.88L142.12,50.99L143.92,46.13L145.72,33.85L147.52,39.31L149.32,50.35L151.12,45.37L152.91,38.96L154.71,43.56L156.51,35.27L158.31,37.37L160.11,37.58L161.91,45.51L163.71,30.4L165.51,34.54L167.31,35L169.11,36.26L170.9,36.61L172.7,32.53L174.5,36.19L176.3,34.74L178.1,37.35L179.9,32.33L181.7,31.51L183.5,28.79L185.3,30.65L187.1,33.82L188.89,26.85L190.69,29.76L192.49,36.36L194.29,37.81L196.09,31.02L197.89,35.43L199.69,29.18L201.49,27.7L203.29,30.94L205.09,26.7L208.68,28.27L210.48,33.17L212.28,29.27L214.08,27.91L215.88,34.47L217.68,32.98L219.48,27.8L221.28,36.21L224.87,24.54L226.67,34.71L230.27,25.72L232.07,30.43L233.87,26.22L235.67,32.16L237.47,31.98L239.27,34.88L241.07,24.95L242.86,32.76L244.66,29.82L246.46,34.83L248.26,32.37L250.06,34.07L253.66,24.66L255.46,30.9L257.26,21.74L259.06,28.96L260.85,29.62L262.65,39.12L264.45,27.68L266.25,23.17L268.05,26.99L269.85,27.86L271.65,30.38L273.45,26.51L275.25,33.08L277.05,21.02L278.84,30.07L280.64,22.18L282.44,28.08L284.24,31.31L286.04,27.01L287.84,28.14L289.64,23.75L291.44,36.37L293.24,34.32L295.04,31.03L296.83,24.89L298.63,22.33L300.43,25.97L302.23,24.52L304.03,33.51L305.83,27.97L307.63,26.48L309.43,28.66L311.23,20.08L313.03,26.26L314.82,15.6L316.62,21.07L318.42,23.21L320.22,28.39L322.02,30.9L323.82,30.45L325.62,24.21L327.42,22.88L329.22,23.75L331.02,22.72L332.81,21.56L334.61,28.21L338.21,21.58L340.01,31.99L341.81,31.73L343.61,19.36L345.41,24.99L347.21,21.81L349.01,22.01L350.8,29.8L352.6,26.35L354.4,28.61L356.2,24.07L358,30.66" style="vector-effect: non-scaling-stroke; fill: none; stroke: rgb(255, 161, 90); stroke-opacity: 1; stroke-width: 2px; opacity: 1;"/></g><g class="points"/><g class="text"/></g><g class="trace scatter trace8bc73e" style="stroke-miterlimit: 2; opacity: 1;"><g class="fills"/><g class="errorbars"/><g class="lines"><path class="js-line" d="M0,237.45L1.8,240.91L3.6,235.23L5.4,236.1L7.2,235.76L8.99,231.15L10.79,231.03L14.39,228.18L16.19,228.47L19.79,224.08L21.59,224.92L25.19,220.64L26.98,220.56L28.78,220.87L30.58,217.51L35.98,208.47L37.78,199.06L39.58,192.88L41.38,184L43.18,188.93L44.97,183.59L46.77,186.96L48.57,178.82L50.37,174.54L52.17,167.78L53.97,155.78L55.77,157.53L57.57,134.87L59.37,137.89L61.17,138.2L62.96,114.59L64.76,115.05L66.56,110.15L68.36,106.46L70.16,100.03L71.96,94.92L73.76,100.05L75.56,93.65L77.36,78.31L79.16,85.97L80.95,77.15L82.75,69.48L84.55,74.02L86.35,62.91L88.15,70.45L89.95,79.67L91.75,77.11L93.55,61.03L95.35,54.8L97.15,48.51L98.94,56.81L100.74,50.48L102.54,58.81L104.34,55.17L106.14,58.59L107.94,49.9L109.74,56.89L111.54,54.01L113.34,45.66L115.14,47.05L116.93,57.17L120.53,44.61L122.33,47.78L124.13,50.7L125.93,47.88L127.73,42.6L129.53,49.7L131.33,48.56L133.13,49.83L134.92,57.86L136.72,50.4L138.52,43.77L140.32,51.38L142.12,50.7L143.92,42.49L145.72,47.84L147.52,45.42L149.32,41.53L151.12,53.72L152.91,45.43L154.71,45.71L156.51,48.23L158.31,45.34L160.11,40.41L161.91,40.39L163.71,54.14L165.51,49.66L167.31,49.26L169.11,46.16L170.9,36.59L172.7,43.22L174.5,42.35L176.3,43.88L178.1,42.04L179.9,43.75L181.7,52.19L183.5,43.44L187.1,40.05L188.89,41.77L190.69,40.81L192.49,45.5L194.29,37.99L196.09,43.33L197.89,35.64L199.69,35.7L201.49,38.12L203.29,37.84L205.09,37.49L206.88,39.36L208.68,32.27L210.48,42.51L212.28,41.12L214.08,36.06L215.88,36.88L217.68,32.21L219.48,38.76L221.28,38.88L223.08,39.52L224.87,31.48L226.67,37.69L228.47,36.82L232.07,37.72L233.87,37.56L235.67,44.81L237.47,34.14L239.27,30.31L241.07,35.11L244.66,38.29L246.46,35.59L248.26,41.49L250.06,36.32L251.86,38.44L253.66,38.67L255.46,40.28L257.26,38.72L259.06,37.15L260.85,27.61L262.65,39.78L264.45,29.29L266.25,35.48L268.05,34.6L269.85,38.65L271.65,32.11L275.25,37.94L277.05,37.18L278.84,31.78L280.64,32.42L282.44,35.07L284.24,30.57L286.04,32.73L287.84,29.69L289.64,32.89L291.44,34L293.24,27.86L295.04,33.92L296.83,34.72L298.63,29.28L300.43,19.36L302.23,32.42L304.03,28.6L305.83,26.56L307.63,23.33L309.43,39.85L311.23,28.05L313.03,22.76L314.82,35.31L316.62,27.86L318.42,30.97L320.22,30.57L322.02,31.99L323.82,32.23L325.62,34.11L327.42,33.51L329.22,28.91L331.02,33.06L332.81,26.21L334.61,31.53L336.41,34.65L338.21,28.13L340.01,32.13L341.81,26.74L343.61,34.59L345.41,27.26L347.21,22.29L349.01,33.71L350.8,36.3L352.6,34.88L354.4,27.8L356.2,29.05L358,39.29" style="vector-effect: non-scaling-stroke; fill: none; stroke: rgb(25, 211, 243); stroke-opacity: 1; stroke-width: 2px; opacity: 1;"/></g><g class="points"/><g class="text"/></g></g></g><g class="overplot"/><path class="xlines-above crisp" d="M0,0" style="fill: none;"/><path class="ylines-above crisp" d="M0,0" style="fill: none;"/><g class="overlines-above"/><g class="xaxislayer-above"><g class="xtick"><text text-anchor="middle" x="0" y="272" transform="translate(109.47,0)" style="font-family: 'Latin Modern Roman'; font-size: 12px; fill: rgb(0, 0, 0); fill-opacity: 1; white-space: pre;">10M</text></g><g class="xtick"><text text-anchor="middle" x="0" y="272" transform="translate(179.75,0)" style="font-family: 'Latin Modern Roman'; font-size: 12px; fill: rgb(0, 0, 0); fill-opacity: 1; white-space: pre;">20M</text></g><g class="xtick"><text text-anchor="middle" x="0" y="272" transform="translate(250.02,0)" style="font-family: 'Latin Modern Roman'; font-size: 12px; fill: rgb(0, 0, 0); fill-opacity: 1; white-space: pre;">30M</text></g><g class="xtick"><text text-anchor="middle" x="0" y="272" transform="translate(320.29,0)" style="font-family: 'Latin Modern Roman'; font-size: 12px; fill: rgb(0, 0, 0); fill-opacity: 1; white-space: pre;">40M</text></g><g class="xtick"><text text-anchor="middle" x="0" y="272" transform="translate(390.57,0)" style="font-family: 'Latin Modern Roman'; font-size: 12px; fill: rgb(0, 0, 0); fill-opacity: 1; white-space: pre;">50M</text></g></g><g class="yaxislayer-above"><g class="ytick"><text text-anchor="end" x="40" y="4.199999999999999" transform="translate(0,221.83)" style="font-family: 'Latin Modern Roman'; font-size: 12px; fill: rgb(0, 0, 0); fill-opacity: 1; white-space: pre;">0</text></g><g class="ytick"><text text-anchor="end" x="40" y="4.199999999999999" transform="translate(0,150.99)" style="font-family: 'Latin Modern Roman'; font-size: 12px; fill: rgb(0, 0, 0); fill-opacity: 1; white-space: pre;">0.5</text></g><g class="ytick"><text text-anchor="end" x="40" y="4.199999999999999" transform="translate(0,80.15)" style="font-family: 'Latin Modern Roman'; font-size: 12px; fill: rgb(0, 0, 0); fill-opacity: 1; white-space: pre;">1</text></g><g class="ytick"><text text-anchor="end" x="40" y="4.199999999999999" transform="translate(0,9.31)" style="font-family: 'Latin Modern Roman'; font-size: 12px; fill: rgb(0, 0, 0); fill-opacity: 1; white-space: pre;">1.5</text></g></g><g class="overaxes-above"/></g></g><g class="polarlayer"/><g class="ternarylayer"/><g class="geolayer"/><g class="funnelarealayer"/><g class="pielayer"/><g class="treemaplayer"/><g class="sunburstlayer"/><g class="glimages"/><defs id="topdefs-54fab6"><g class="clips"/><clipPath id="legend54fab6"><rect width="194" height="124" x="0" y="0"/></clipPath></defs><g class="layer-above"><g class="imagelayer"/><g class="shapelayer"/></g><g class="infolayer"><g class="legend" pointer-events="all" transform="translate(406,0)"><rect class="bg" shape-rendering="crispEdges" style="stroke: rgb(68, 68, 68); stroke-opacity: 1; fill: rgb(255, 255, 255); fill-opacity: 1; stroke-width: 0px;" width="194" height="124" x="0" y="0"/><g class="scrollbox" transform="" clip-path="url('#legend54fab6')"><g class="groups"><g class="traces" transform="translate(0,14.5)" style="opacity: 1;"><text class="legendtext" text-anchor="start" x="40" y="4.680000000000001" style="font-family: 'Latin Modern Roman'; font-size: 12px; fill: rgb(0, 0, 0); fill-opacity: 1; white-space: pre;">PPO, Bayesian agg. (n=32)</text><g class="layers" style="opacity: 1;"><g class="legendfill"/><g class="legendlines"><path class="js-line" d="M5,0h30" style="fill: none; stroke: rgb(99, 110, 250); stroke-opacity: 1; stroke-width: 2px;"/></g><g class="legendsymbols"><g class="legendpoints"/></g></g><rect class="legendtoggle" x="0" y="-9.5" width="188.6875" height="19" style="fill: rgb(0, 0, 0); fill-opacity: 0;"/></g><g class="traces" transform="translate(0,33.5)" style="opacity: 1;"><text class="legendtext" text-anchor="start" x="40" y="4.680000000000001" style="font-family: 'Latin Modern Roman'; font-size: 12px; fill: rgb(0, 0, 0); fill-opacity: 1; white-space: pre;">PPO, Mean agg. (n=30)</text><g class="layers" style="opacity: 1;"><g class="legendfill"/><g class="legendlines"><path class="js-line" d="M5,0h30" style="fill: none; stroke: rgb(239, 85, 59); stroke-opacity: 1; stroke-width: 2px;"/></g><g class="legendsymbols"><g class="legendpoints"/></g></g><rect class="legendtoggle" x="0" y="-9.5" width="188.6875" height="19" style="fill: rgb(0, 0, 0); fill-opacity: 0;"/></g><g class="traces" transform="translate(0,52.5)" style="opacity: 1;"><text class="legendtext" text-anchor="start" x="40" y="4.680000000000001" style="font-family: 'Latin Modern Roman'; font-size: 12px; fill: rgb(0, 0, 0); fill-opacity: 1; white-space: pre;">PPO, Attentive agg. (n=29)</text><g class="layers" style="opacity: 1;"><g class="legendfill"/><g class="legendlines"><path class="js-line" d="M5,0h30" style="fill: none; stroke: rgb(0, 204, 150); stroke-opacity: 1; stroke-width: 2px;"/></g><g class="legendsymbols"><g class="legendpoints"/></g></g><rect class="legendtoggle" x="0" y="-9.5" width="188.6875" height="19" style="fill: rgb(0, 0, 0); fill-opacity: 0;"/></g><g class="traces" transform="translate(0,71.5)" style="opacity: 1;"><text class="legendtext" text-anchor="start" x="40" y="4.680000000000001" style="font-family: 'Latin Modern Roman'; font-size: 12px; fill: rgb(0, 0, 0); fill-opacity: 1; white-space: pre;">TRL, Bayesian agg. (n=31)</text><g class="layers" style="opacity: 1;"><g class="legendfill"/><g class="legendlines"><path class="js-line" d="M5,0h30" style="fill: none; stroke: rgb(171, 99, 250); stroke-opacity: 1; stroke-width: 2px;"/></g><g class="legendsymbols"><g class="legendpoints"/></g></g><rect class="legendtoggle" x="0" y="-9.5" width="188.6875" height="19" style="fill: rgb(0, 0, 0); fill-opacity: 0;"/></g><g class="traces" transform="translate(0,90.5)" style="opacity: 1;"><text class="legendtext" text-anchor="start" x="40" y="4.680000000000001" style="font-family: 'Latin Modern Roman'; font-size: 12px; fill: rgb(0, 0, 0); fill-opacity: 1; white-space: pre;">TRL, Mean agg. (n=31)</text><g class="layers" style="opacity: 1;"><g class="legendfill"/><g class="legendlines"><path class="js-line" d="M5,0h30" style="fill: none; stroke: rgb(255, 161, 90); stroke-opacity: 1; stroke-width: 2px;"/></g><g class="legendsymbols"><g class="legendpoints"/></g></g><rect class="legendtoggle" x="0" y="-9.5" width="188.6875" height="19" style="fill: rgb(0, 0, 0); fill-opacity: 0;"/></g><g class="traces" transform="translate(0,109.5)" style="opacity: 1;"><text class="legendtext" text-anchor="start" x="40" y="4.680000000000001" style="font-family: 'Latin Modern Roman'; font-size: 12px; fill: rgb(0, 0, 0); fill-opacity: 1; white-space: pre;">TRL, Attentive agg. (n=28)</text><g class="layers" style="opacity: 1;"><g class="legendfill"/><g class="legendlines"><path class="js-line" d="M5,0h30" style="fill: none; stroke: rgb(25, 211, 243); stroke-opacity: 1; stroke-width: 2px;"/></g><g class="legendsymbols"><g class="legendpoints"/></g></g><rect class="legendtoggle" x="0" y="-9.5" width="188.6875" height="19" style="fill: rgb(0, 0, 0); fill-opacity: 0;"/></g></g></g><rect class="scrollbar" rx="20" ry="3" width="0" height="0" style="fill: rgb(128, 139, 164); fill-opacity: 1;" x="0" y="0"/></g><g class="g-gtitle"/><g class="g-xtitle" transform="translate(0,-3.8000000000000114)"><text class="xtitle" x="220" y="299.8" text-anchor="middle" style="font-family: 'Latin Modern Roman'; font-size: 14px; fill: rgb(0, 0, 0); opacity: 1; font-weight: normal; white-space: pre;">Agent Steps</text></g><g class="g-ytitle" transform="translate(16.1435546875,0)"><text class="ytitle" transform="rotate(-90,-0.14374999999999716,129.5)" x="-0.14374999999999716" y="129.5" text-anchor="middle" style="font-family: 'Latin Modern Roman'; font-size: 14px; fill: rgb(0, 0, 0); opacity: 1; font-weight: normal; white-space: pre;">Avg. Reward</text></g></g></svg>