<svg class="main-svg" xmlns="http://www.w3.org/2000/svg" xmlns:xlink="http://www.w3.org/1999/xlink" width="600" height="300" style="" viewBox="0 0 600 300"><rect x="0" y="0" width="600" height="300" style="fill: rgb(255, 255, 255); fill-opacity: 1;"/><defs id="defs-442d23"><g class="clips"><clipPath id="clip442d23xyplot" class="plotclip"><rect width="393" height="259"/></clipPath><clipPath class="axesclip" id="clip442d23x"><rect x="38" y="0" width="393" height="300"/></clipPath><clipPath class="axesclip" id="clip442d23y"><rect x="0" y="0" width="600" height="259"/></clipPath><clipPath class="axesclip" id="clip442d23xy"><rect x="38" y="0" width="393" height="259"/></clipPath></g><g class="gradients"/></defs><g class="bglayer"><rect class="bg" x="38" y="0" width="393" height="259" style="fill: rgb(229, 236, 246); fill-opacity: 1; stroke-width: 0;"/></g><g class="layer-below"><g class="imagelayer"/><g class="shapelayer"/></g><g class="cartesianlayer"><g class="subplot xy"><g class="layer-subplot"><g class="shapelayer"/><g class="imagelayer"/></g><g class="gridlayer"><g class="x"><path class="xgrid crisp" transform="translate(114.43,0)" d="M0,0v259" style="stroke: rgb(255, 255, 255); stroke-opacity: 1; stroke-width: 1px;"/><path class="xgrid crisp" transform="translate(191.64,0)" d="M0,0v259" style="stroke: rgb(255, 255, 255); stroke-opacity: 1; stroke-width: 1px;"/><path class="xgrid crisp" transform="translate(268.85,0)" d="M0,0v259" style="stroke: rgb(255, 255, 255); stroke-opacity: 1; stroke-width: 1px;"/><path class="xgrid crisp" transform="translate(346.07,0)" d="M0,0v259" style="stroke: rgb(255, 255, 255); stroke-opacity: 1; stroke-width: 1px;"/><path class="xgrid crisp" transform="translate(423.28,0)" d="M0,0v259" style="stroke: rgb(255, 255, 255); stroke-opacity: 1; stroke-width: 1px;"/></g><g class="y"><path class="ygrid crisp" transform="translate(0,192.64)" d="M38,0h393" style="stroke: rgb(255, 255, 255); stroke-opacity: 1; stroke-width: 1px;"/><path class="ygrid crisp" transform="translate(0,137.85)" d="M38,0h393" style="stroke: rgb(255, 255, 255); stroke-opacity: 1; stroke-width: 1px;"/><path class="ygrid crisp" transform="translate(0,83.07)" d="M38,0h393" style="stroke: rgb(255, 255, 255); stroke-opacity: 1; stroke-width: 1px;"/><path class="ygrid crisp" transform="translate(0,28.29)" d="M38,0h393" style="stroke: rgb(255, 255, 255); stroke-opacity: 1; stroke-width: 1px;"/></g></g><g class="zerolinelayer"><path class="yzl zl crisp" transform="translate(0,247.42)" d="M38,0h393" style="stroke: rgb(255, 255, 255); stroke-opacity: 1; stroke-width: 2px;"/></g><path class="xlines-below"/><path class="ylines-below"/><g class="overlines-below"/><g class="xaxislayer-below"/><g class="yaxislayer-below"/><g class="overaxes-below"/><g class="plot" transform="translate(38,0)" clip-path="url('#clip442d23xyplot')"><g class="scatterlayer mlayer"><g class="trace scatter tracef423e4" style="stroke-miterlimit: 2; opacity: 1;"><g class="fills"/><g class="errorbars"/><g class="lines"><path class="js-line" d="M0,245.5L3.15,244.95L3.94,244.95L11.81,244.68L12.6,243.86L13.39,244.41L14.18,242.76L15.75,244.68L16.54,244.68L18.9,243.86L19.69,244.41L20.48,243.86L21.26,244.68L23.63,243.58L24.41,243.58L25.2,243.86L25.99,242.22L27.57,243.31L28.35,243.04L29.14,241.12L29.93,243.58L31.5,243.31L32.29,243.58L34.65,241.12L35.44,242.49L37.02,241.39L37.8,241.94L38.59,242.22L39.38,240.57L40.17,241.39L40.95,238.93L41.74,239.48L42.53,238.65L43.32,232.9L44.1,235.64L44.89,235.92L45.68,233.72L46.47,232.35L47.25,233.72L48.04,234.55L48.83,234L49.62,226.88L50.4,233.72L51.19,231.81L51.98,233.72L52.77,233.18L53.56,221.95L54.34,217.29L55.13,233.18L55.92,235.09L56.71,232.9L57.49,231.53L58.28,218.93L59.07,220.58L59.86,218.93L60.64,224.68L61.43,215.65L62.22,210.17L63.01,214.28L63.79,212.08L64.58,206.06L65.37,215.65L66.16,214.55L66.94,208.52L67.73,209.62L68.52,205.24L69.31,205.24L70.88,190.99L71.67,193.46L72.46,195.38L73.24,180.31L74.03,193.18L74.82,192.36L75.61,182.23L76.39,188.25L77.18,187.43L77.97,184.97L78.76,184.42L79.55,180.31L80.33,170.45L81.12,175.93L83.48,166.07L84.27,166.62L85.06,161.41L85.85,167.98L86.63,162.23L87.42,167.16L89,152.65L89.78,158.67L90.57,156.48L91.36,158.12L92.93,133.75L93.72,135.39L95.3,145.25L96.08,147.17L96.87,134.84L97.66,141.69L98.45,131.55L99.23,139.5L100.02,146.35L100.81,141.69L101.6,128.82L102.38,133.75L105.54,128.54L106.32,131.83L107.11,129.09L107.9,140.59L109.47,128.82L110.26,139.77L111.05,126.9L111.84,130.46L112.62,129.64L113.41,141.14L114.2,144.7L114.99,132.92L115.77,122.52L116.56,129.36L118.14,119.78L118.92,118.41L119.71,124.98L120.5,120.05L121.29,115.12L122.07,120.87L122.86,110.46L123.65,118.95L126.01,106.63L126.8,108.82L127.59,120.32L128.37,112.38L129.16,114.02L129.95,112.11L130.74,107.72L131.53,109.09L132.31,97.04L133.1,99.23L133.89,105.53L134.68,105.26L136.25,111.01L137.04,110.46L137.83,108.55L138.61,112.38L139.4,100.33L140.19,101.7L140.98,104.44L141.76,101.15L142.55,101.42L143.34,106.9L144.13,108.27L144.91,103.89L146.49,101.97L147.28,107.18L148.85,112.65L149.64,106.08L150.43,100.6L151.21,114.85L152,107.45L152.79,108L154.36,101.15L155.15,106.63L155.94,107.18L156.73,104.71L157.52,100.88L158.3,104.71L159.09,91.29L159.88,98.96L160.67,103.89L161.45,100.88L163.82,89.65L164.6,89.92L166.18,92.38L166.97,77.87L167.75,89.37L168.54,74.85L169.33,84.17L170.12,81.98L171.69,88.28L172.48,81.15L174.84,87.18L175.63,80.61L176.42,86.36L177.2,77.32L177.99,81.98L178.78,78.42L179.57,74.31L180.35,75.4L181.14,74.31L181.93,76.77L182.72,81.43L183.51,75.95L184.29,87.45L185.08,75.4L185.87,84.72L186.66,75.13L187.44,82.8L188.23,81.43L189.02,76.22L189.81,80.06L190.59,73.76L191.38,79.78L192.17,84.17L192.96,83.35L193.74,84.72L194.53,78.14L196.11,85.26L196.89,71.84L198.47,85.26L199.26,72.66L200.04,73.21L200.83,78.42L201.62,77.05L202.41,71.02L203.19,68.28L203.98,73.48L205.56,69.38L206.34,80.06L207.13,86.91L207.92,77.05L208.71,83.35L209.49,76.5L210.28,73.21L211.07,77.59L211.86,70.2L212.65,71.57L213.43,74.03L214.22,70.75L215.8,81.15L216.58,80.33L217.37,77.59L218.16,86.36L219.73,71.02L220.52,85.54L221.31,88.82L222.1,74.03L222.88,79.78L223.67,75.4L224.46,73.76L225.25,78.42L226.03,81.98L226.82,80.88L227.61,87.45L228.4,78.42L229.18,85.26L229.97,74.31L231.55,80.61L232.33,79.78L233.12,78.14L233.91,83.35L234.7,83.89L235.48,78.42L236.27,78.14L237.06,69.38L237.85,80.06L238.64,76.5L239.42,69.65L240.21,73.76L241,63.9L241.79,73.21L243.36,66.91L244.15,73.76L245.72,69.38L246.51,68.28L247.3,64.45L248.09,67.46L249.66,71.02L250.45,60.34L251.24,73.48L252.02,68.28L252.81,65.27L253.6,74.58L254.39,70.75L255.17,72.39L255.96,74.31L256.75,72.39L257.54,60.61L258.32,61.16L259.11,76.77L259.9,60.61L260.69,63.62L261.47,69.92L263.05,78.96L263.84,75.13L265.41,67.46L266.2,76.22L266.99,69.38L267.78,76.5L268.56,70.2L269.35,73.76L270.14,67.18L270.93,70.47L271.71,74.31L272.5,66.36L273.29,68.01L274.08,74.31L274.86,77.05L275.65,70.2L276.44,71.84L277.23,75.95L278.01,71.57L278.8,75.4L279.59,72.12L280.38,76.5L281.16,69.1L281.95,71.02L282.74,71.84L283.53,74.58L284.31,66.91L285.1,67.18L285.89,73.48L286.68,71.29L287.46,82.8L288.25,74.85L289.04,75.68L289.83,66.09L290.62,69.38L291.4,78.69L292.19,68.83L292.98,71.29L293.77,79.51L294.55,74.31L295.34,72.12L296.13,80.06L296.92,81.7L297.7,80.33L298.49,76.5L299.28,66.91L300.07,80.88L300.85,75.4L301.64,77.87L302.43,84.99L303.22,81.7L304,74.03L304.79,74.58L305.58,67.18L306.37,74.31L307.15,73.48L307.94,75.95L308.73,75.95L309.52,79.51L310.3,75.13L311.09,66.64L311.88,72.12L312.67,65.82L313.45,69.1L314.24,77.87L315.03,67.73L315.82,82.8L316.61,80.33L318.18,74.85L318.97,74.31L319.76,75.95L320.54,74.31L322.91,83.62L323.69,77.05L324.48,82.8L325.27,78.42L326.06,80.88L326.84,74.85L327.63,83.89L328.42,78.14L329.21,80.61L329.99,78.69L330.78,88.28L331.57,84.72L332.36,90.19L333.14,81.43L334.72,72.94L335.51,83.07L336.29,85.81L337.08,92.93L337.87,79.78L338.66,88.28L339.44,86.08L340.23,78.96L341.02,94.85L341.81,89.92L342.6,84.17L343.38,89.1L344.96,83.62L345.75,87.18L346.53,84.44L347.32,85.81L348.11,94.58L348.9,81.15L349.68,85.26L350.47,84.17L351.26,85.26L352.05,73.76L352.83,76.5L353.62,71.29L354.41,80.33L355.2,79.51L355.98,83.35L356.77,80.06L357.56,78.42L358.35,79.51L359.13,89.37L359.92,76.5L362.28,81.7L363.07,75.4L364.65,81.43L365.43,83.62L367.01,75.68L367.8,78.42L368.59,77.32L369.37,88L370.16,72.39L370.95,86.63L371.74,76.5L372.52,78.14L373.31,84.17L374.1,78.69L374.89,75.4L375.67,87.73L376.46,84.17L377.25,84.72L378.04,81.15L378.82,83.62L379.61,74.58L380.4,85.54L381.97,83.35L382.76,84.72L383.55,76.22L384.34,78.69L385.12,85.26L385.91,82.52L386.7,79.78L387.49,74.03L388.27,75.68L389.06,73.48L390.64,89.37L391.42,84.17L392.21,76.22L393,85.26" style="vector-effect: non-scaling-stroke; fill: none; stroke: rgb(99, 110, 250); stroke-opacity: 1; stroke-width: 2px; opacity: 1;"/></g><g class="points"/><g class="text"/></g><g class="trace scatter tracef07b53" style="stroke-miterlimit: 2; opacity: 1;"><g class="fills"><g><path class="js-fill" d="M0,244.95L1.58,244.95L2.36,243.86L3.15,243.04L3.94,244.13L4.73,242.49L5.51,243.04L6.3,242.76L7.09,243.58L7.88,239.48L8.66,242.76L10.24,237.56L11.03,236.19L12.6,239.75L13.39,236.19L14.96,240.57L15.75,237.28L16.54,237.28L17.33,235.92L18.11,236.46L18.9,226.6L20.48,214.82L21.26,218.38L22.05,219.48L22.84,230.44L23.63,227.15L24.41,236.19L25.2,223.04L25.99,227.15L26.78,220.58L27.57,221.67L28.35,195.65L29.14,208.25L29.93,196.2L30.72,198.39L31.5,195.65L32.29,183.87L33.08,197.29L33.87,183.87L34.65,180.31L35.44,169.08L36.23,171.27L37.02,161.41L37.8,172.92L38.59,161.41L40.17,177.57L40.95,157.03L41.74,170.18L42.53,160.04L43.32,155.38L44.1,145.52L44.89,146.89L45.68,156.75L46.47,134.02L47.25,150.73L48.04,152.1L48.83,137.31L49.62,138.68L50.4,137.58L51.98,127.45L52.77,127.17L53.56,145.52L54.34,139.22L55.13,133.75L55.92,143.33L56.71,146.62L57.49,141.96L58.28,134.57L59.07,137.31L59.86,144.7L60.64,122.52L62.22,135.39L63.01,118.13L63.79,114.02L64.58,132.65L65.37,121.42L66.16,133.75L66.94,126.35L67.73,148.81L69.31,117.31L70.09,130.73L70.88,113.48L71.67,127.17L72.46,130.18L73.24,119.5L74.03,121.69L74.82,105.26L75.61,130.18L76.39,118.68L77.18,111.28L77.97,112.65L79.55,120.32L80.33,96.22L81.91,106.9L82.7,84.44L83.48,81.43L84.27,72.94L85.85,70.47L86.63,87.18L87.42,76.77L88.21,81.43L89,71.57L89.78,84.17L90.57,85.54L91.36,74.58L92.15,84.44L92.93,73.76L93.72,73.48L94.51,61.98L96.08,80.88L96.87,77.59L98.45,70.75L99.23,70.75L100.02,73.21L100.81,68.28L101.6,73.76L102.38,66.91L103.17,58.69L103.96,63.35L104.75,55.13L105.54,55.41L106.32,65.54L107.11,61.16L107.9,66.64L108.69,57.6L109.47,70.2L110.26,47.74L111.05,52.12L111.84,47.74L112.62,55.95L113.41,49.65L114.2,56.5L114.99,49.38L115.77,53.49L116.56,41.98L118.14,62.25L118.92,44.18L119.71,53.22L120.5,46.64L121.29,46.92L122.07,45.27L122.86,40.89L123.65,49.65L124.44,51.02L125.22,49.93L126.01,51.85L126.8,60.34L128.37,52.39L129.16,52.67L129.95,41.98L130.74,49.93L132.31,47.19L133.1,49.93L133.89,40.89L134.68,53.22L136.25,40.34L137.04,49.65L137.83,42.26L138.61,42.81L139.4,30.75L140.19,40.62L140.98,39.52L141.76,34.59L143.34,39.79L144.13,29.38L145.7,41.71L146.49,27.74L148.06,43.63L148.85,32.95L149.64,37.33L150.43,33.77L151.21,35.41L152,34.59L152.79,25.55L153.58,43.35L155.15,28.84L155.94,32.4L156.73,29.93L157.52,39.52L158.3,29.11L159.09,37.88L159.88,32.12L160.67,32.12L161.45,27.74L162.24,31.3L163.03,34.32L163.82,27.47L164.6,36.23L165.39,33.49L166.18,29.66L166.97,32.4L167.75,34.86L168.54,31.85L169.33,31.3L170.12,32.95L171.69,18.15L172.48,25L174.05,41.16L174.84,34.59L176.42,19.25L177.2,35.14L179.57,23.36L180.35,24.18L181.14,33.49L181.93,24.18L184.29,37.6L185.08,30.75L186.66,31.3L187.44,25L189.02,19.8L189.81,22.81L190.59,21.72L191.38,18.15L194.53,29.66L195.32,24.45L196.11,33.22L196.89,29.66L197.68,18.7L198.47,26.37L199.26,14.59L200.04,20.35L200.83,19.52L201.62,26.1L202.41,23.36L203.19,27.47L204.77,29.11L205.56,27.47L206.34,16.78L207.13,22.54L207.92,29.93L208.71,23.36L210.28,31.85L211.07,24.73L211.86,12.95L212.65,23.36L213.43,17.61L214.22,31.3L216.58,17.61L217.37,24.73L218.16,30.21L218.95,29.11L219.73,23.63L220.52,26.37L222.1,19.25L222.88,23.36L223.67,15.69L224.46,32.12L225.25,31.58L226.03,29.66L226.82,28.84L227.61,33.22L228.4,35.41L229.18,22.54L229.97,35.68L230.76,35.14L231.55,34.59L232.33,24.18L233.12,33.49L233.91,29.38L234.7,37.6L235.48,21.72L236.27,31.03L237.06,23.63L237.85,25L238.64,30.75L239.42,41.71L240.21,32.4L241,21.44L241.79,24.73L243.36,20.62L244.15,37.33L244.94,28.29L245.72,38.7L246.51,27.47L247.3,32.95L248.09,33.49L248.87,37.33L249.66,26.65L250.45,26.92L251.24,34.04L252.02,30.21L252.81,31.03L253.6,48.28L255.17,32.12L255.96,37.6L257.54,31.03L258.32,34.04L259.11,30.21L259.9,35.68L260.69,38.7L261.47,35.14L262.26,41.44L263.05,37.05L263.84,39.52L264.63,31.85L265.41,42.26L266.2,39.52L266.99,33.77L267.78,37.88L268.56,32.67L269.35,35.14L270.14,43.08L270.93,34.04L271.71,39.52L272.5,39.25L274.08,30.48L274.86,36.23L275.65,32.12L276.44,33.49L277.23,31.03L278.01,36.51L279.59,46.09L280.38,29.66L281.95,45.82L282.74,39.25L283.53,41.16L284.31,40.62L285.1,33.77L285.89,37.33L286.68,37.33L287.46,43.9L288.25,40.62L289.04,33.77L289.83,41.98L290.62,41.71L291.4,35.96L292.19,43.35L292.98,37.6L293.77,43.63L294.55,38.15L295.34,43.9L296.13,43.63L296.92,49.11L297.7,48.28L298.49,31.58L299.28,50.2L300.07,49.38L300.85,43.35L301.64,53.76L302.43,41.98L303.22,51.3L304.79,38.97L305.58,36.78L306.37,50.48L307.15,43.08L307.94,40.07L308.73,45L309.52,40.07L310.3,41.71L311.09,45.27L311.88,30.48L312.67,45.27L313.45,41.16L314.24,47.74L315.03,41.44L315.82,41.98L316.61,39.52L317.39,43.9L318.18,23.91L318.97,43.63L319.76,42.26L321.33,50.2L322.12,36.23L322.91,49.38L323.69,33.22L324.48,50.2L325.27,37.6L326.06,36.51L326.84,48.01L328.42,36.51L329.21,42.26L330.78,44.72L331.57,34.04L334.72,44.72L335.51,35.41L336.29,40.89L337.08,32.67L338.66,38.42L339.44,39.52L341.02,43.9L341.81,38.97L342.6,35.96L343.38,44.72L344.17,45.27L344.96,47.74L346.53,37.88L347.32,38.42L348.11,45L348.9,44.45L349.68,36.51L350.47,46.92L352.83,37.05L353.62,36.51L354.41,37.6L355.2,29.93L355.98,33.77L356.77,49.38L358.35,36.23L359.13,39.79L359.92,29.66L360.71,37.6L361.5,30.48L362.28,43.08L363.07,31.85L363.86,43.08L365.43,26.1L366.22,34.59L367.01,31.58L367.8,40.34L368.59,37.05L369.37,38.7L370.16,33.77L370.95,33.77L371.74,28.02L372.52,34.04L373.31,34.59L374.1,45L374.89,34.59L375.67,41.16L376.46,37.05L377.25,28.84L378.04,32.95L378.82,30.21L379.61,27.19L380.4,27.19L381.19,40.89L381.97,34.32L382.76,45L383.55,30.75L384.34,36.23L385.12,30.48L386.7,42.26L387.49,34.59L388.27,36.23L389.06,32.67L389.85,25L390.64,30.21L391.42,44.18L392.21,36.78L393,29.93L393,140.87L392.21,136.21L391.42,124.71L390.64,132.92L389.85,131.83L389.06,138.13L388.27,127.99L387.49,123.06L386.7,126.9L385.91,130.73L385.12,125.25L384.34,134.84L383.55,122.79L382.76,126.08L381.97,122.52L381.19,123.34L380.4,134.57L378.82,123.88L378.04,125.25L376.46,131.01L375.67,119.23L374.89,130.46L374.1,125.25L373.31,136.76L372.52,121.42L371.74,135.39L370.95,123.88L370.16,125.8L369.37,134.57L368.59,134.29L367.8,127.17L367.01,120.87L366.22,126.62L365.43,138.95L364.65,124.98L363.07,130.46L362.28,124.71L361.5,143.61L360.71,112.93L359.13,130.46L358.35,129.36L357.56,131.55L356.77,125.53L355.98,126.9L355.2,135.66L354.41,133.75L353.62,121.42L352.83,124.98L352.05,132.92L350.47,121.15L349.68,126.35L348.9,134.57L348.11,131.83L347.32,136.76L346.53,126.9L345.75,132.92L344.96,129.36L344.17,127.45L343.38,134.57L342.6,135.12L341.81,131.01L341.02,131.83L340.23,127.45L338.66,122.79L337.87,135.66L337.08,135.12L336.29,129.36L335.51,127.99L334.72,129.36L333.14,132.38L332.36,126.62L331.57,131.83L330.78,125.25L329.21,138.13L328.42,138.95L327.63,138.68L326.84,148.81L324.48,127.99L323.69,127.72L322.91,147.17L322.12,136.76L321.33,134.84L320.54,128.54L319.76,131.28L318.97,141.14L318.18,149.36L317.39,148.81L316.61,128.82L315.82,159.22L315.03,152.37L314.24,131.55L313.45,140.05L312.67,131.83L311.88,131.28L311.09,139.77L310.3,147.17L309.52,132.38L308.73,141.14L307.94,137.85L307.15,126.35L306.37,131.83L305.58,146.89L304.79,144.43L304,138.68L303.22,123.61L301.64,134.29L300.85,148.26L299.28,143.88L298.49,144.43L297.7,137.85L296.92,146.35L296.13,133.47L295.34,154.56L294.55,140.87L293.77,153.74L292.98,136.76L292.19,149.36L291.4,141.69L290.62,147.72L289.04,139.22L288.25,135.94L287.46,135.94L286.68,138.68L285.89,140.59L285.1,131.55L284.31,144.98L283.53,139.77L282.74,143.33L281.95,140.59L280.38,156.75L279.59,154.29L278.8,154.84L278.01,149.91L277.23,149.91L276.44,159.49L275.65,158.95L274.86,146.07L274.08,158.95L273.29,155.93L272.5,152.92L271.71,142.24L270.93,154.02L270.14,151.28L269.35,160.04L268.56,140.87L267.78,150.73L266.99,149.63L266.2,149.63L265.41,146.07L264.63,148.26L263.84,144.98L263.05,133.47L262.26,142.78L261.47,146.89L260.69,143.61L259.11,148.81L258.32,147.99L257.54,158.12L256.75,149.63L255.96,138.95L255.17,147.44L254.39,141.96L253.6,157.3L252.81,140.05L252.02,146.07L251.24,137.85L250.45,152.37L249.66,152.1L248.87,134.02L247.3,161.68L246.51,149.91L245.72,146.07L244.94,146.35L244.15,140.59L243.36,144.15L242.57,149.36L241.79,148.81L241,142.78L240.21,144.98L238.64,147.72L237.85,151.82L236.27,160.59L235.48,151.82L233.91,160.59L233.12,149.91L232.33,152.92L231.55,163.88L230.76,146.07L229.97,161.41L229.18,161.41L228.4,167.71L227.61,153.74L226.82,154.56L226.03,161.68L225.25,146.89L224.46,146.07L223.67,143.06L222.88,143.88L222.1,159.22L221.31,152.1L220.52,156.75L219.73,142.24L218.95,151.82L218.16,145.52L217.37,148.81L216.58,151L215.8,142.51L215.01,159.22L214.22,158.12L213.43,157.03L212.65,149.91L211.86,143.61L211.07,143.88L209.49,159.77L208.71,147.17L207.92,152.37L207.13,141.14L206.34,134.02L205.56,148.54L204.77,143.61L203.98,147.17L203.19,151.82L202.41,168.26L200.83,156.21L200.04,163.05L199.26,160.59L198.47,162.78L197.68,158.67L196.89,164.97L196.11,163.6L195.32,159.49L193.74,167.16L192.96,164.42L192.17,168.81L191.38,165.79L190.59,166.89L189.81,153.19L187.44,168.26L186.66,161.14L185.87,161.41L185.08,167.98L184.29,164.97L183.51,155.66L181.93,168.26L181.14,162.51L180.35,163.88L179.57,155.38L178.78,154.56L177.99,164.42L176.42,160.32L175.63,160.86L174.84,158.12L174.05,152.37L171.69,136.48L170.9,144.15L170.12,156.48L169.33,140.05L167.75,145.52L166.97,159.22L166.18,143.61L165.39,152.65L164.6,152.37L163.82,150.73L163.03,157.03L162.24,157.03L161.45,149.08L160.67,155.11L159.88,159.77L159.09,149.08L158.3,145.8L157.52,154.84L156.73,145.52L155.94,155.38L155.15,151.28L154.36,152.1L153.58,157.03L152.79,153.19L152,157.85L151.21,148.54L150.43,156.21L149.64,152.65L148.85,154.84L148.06,152.65L145.7,164.7L144.91,157.58L144.13,157.85L143.34,165.25L142.55,167.71L141.76,164.15L140.98,165.25L140.19,172.92L138.61,164.7L137.83,167.98L137.04,165.79L136.25,175.93L135.46,168.81L134.68,172.92L133.1,168.26L132.31,164.97L131.53,164.97L130.74,163.33L129.95,180.86L129.16,162.51L128.37,184.69L127.59,173.19L126.8,168.81L126.01,175.38L125.22,171.27L124.44,177.57L123.65,187.98L122.86,180.04L122.07,174.56L121.29,179.22L120.5,180.58L119.71,190.72L118.92,178.67L118.14,184.15L117.35,183.32L116.56,187.16L115.77,187.43L114.99,186.06L113.41,200.31L112.62,195.65L111.84,191.54L111.05,196.2L108.69,199.48L107.9,207.98L107.11,208.52L106.32,201.4L105.54,201.4L104.75,207.15L103.96,208.52L103.17,206.33L102.38,200.31L101.6,201.13L99.23,216.19L98.45,210.44L97.66,212.91L96.87,209.07L96.08,218.66L95.3,210.44L94.51,216.19L93.72,215.37L92.93,216.47L92.15,220.03L91.36,217.84L90.57,219.75L89.78,209.89L89,223.32L87.42,214.55L86.63,220.58L85.85,221.12L85.06,226.6L83.48,233.18L82.7,224.96L81.12,232.35L80.33,230.98L79.55,234.27L78.76,229.62L77.18,230.44L76.39,230.16L74.82,234.82L74.03,231.53L73.24,237.56L72.46,237.56L71.67,239.2L70.88,233.72L70.09,238.93L69.31,237.28L68.52,240.85L67.73,240.57L66.94,238.65L66.16,239.2L65.37,241.39L64.58,239.2L63.79,241.39L63.01,238.93L61.43,242.76L60.64,240.02L59.07,243.86L58.28,243.58L57.49,243.86L56.71,242.76L55.13,244.95L54.34,244.41L53.56,244.68L52.77,243.58L51.98,244.68L51.19,243.31L50.4,242.49L49.62,244.13L48.04,243.86L47.25,243.86L45.68,244.13L44.89,243.58L43.32,243.31L42.53,244.13L41.74,243.58L40.95,244.41L37.02,245.23L36.23,244.95L34.65,244.41L33.87,244.95L32.29,245.5L31.5,244.68L30.72,244.41L29.93,244.95L29.14,245.23L28.35,244.68L23.63,245.23L22.84,245.78L21.26,244.95L20.48,244.95L18.11,245.23L17.33,244.95L15.75,245.23L14.96,244.95L12.6,245.23L11.81,245.23L0.79,245.78L0,246.05Z" style="fill: rgb(99, 110, 250); fill-opacity: 0.3; stroke-width: 0;"/></g></g><g class="errorbars"/><g class="lines"><path class="js-line" d="M0,244.95L1.58,244.95L2.36,243.86L3.15,243.04L3.94,244.13L4.73,242.49L5.51,243.04L6.3,242.76L7.09,243.58L7.88,239.48L8.66,242.76L10.24,237.56L11.03,236.19L12.6,239.75L13.39,236.19L14.96,240.57L15.75,237.28L16.54,237.28L17.33,235.92L18.11,236.46L18.9,226.6L20.48,214.82L21.26,218.38L22.05,219.48L22.84,230.44L23.63,227.15L24.41,236.19L25.2,223.04L25.99,227.15L26.78,220.58L27.57,221.67L28.35,195.65L29.14,208.25L29.93,196.2L30.72,198.39L31.5,195.65L32.29,183.87L33.08,197.29L33.87,183.87L34.65,180.31L35.44,169.08L36.23,171.27L37.02,161.41L37.8,172.92L38.59,161.41L40.17,177.57L40.95,157.03L41.74,170.18L42.53,160.04L43.32,155.38L44.1,145.52L44.89,146.89L45.68,156.75L46.47,134.02L47.25,150.73L48.04,152.1L48.83,137.31L49.62,138.68L50.4,137.58L51.98,127.45L52.77,127.17L53.56,145.52L54.34,139.22L55.13,133.75L55.92,143.33L56.71,146.62L57.49,141.96L58.28,134.57L59.07,137.31L59.86,144.7L60.64,122.52L62.22,135.39L63.01,118.13L63.79,114.02L64.58,132.65L65.37,121.42L66.16,133.75L66.94,126.35L67.73,148.81L69.31,117.31L70.09,130.73L70.88,113.48L71.67,127.17L72.46,130.18L73.24,119.5L74.03,121.69L74.82,105.26L75.61,130.18L76.39,118.68L77.18,111.28L77.97,112.65L79.55,120.32L80.33,96.22L81.91,106.9L82.7,84.44L83.48,81.43L84.27,72.94L85.85,70.47L86.63,87.18L87.42,76.77L88.21,81.43L89,71.57L89.78,84.17L90.57,85.54L91.36,74.58L92.15,84.44L92.93,73.76L93.72,73.48L94.51,61.98L96.08,80.88L96.87,77.59L98.45,70.75L99.23,70.75L100.02,73.21L100.81,68.28L101.6,73.76L102.38,66.91L103.17,58.69L103.96,63.35L104.75,55.13L105.54,55.41L106.32,65.54L107.11,61.16L107.9,66.64L108.69,57.6L109.47,70.2L110.26,47.74L111.05,52.12L111.84,47.74L112.62,55.95L113.41,49.65L114.2,56.5L114.99,49.38L115.77,53.49L116.56,41.98L118.14,62.25L118.92,44.18L119.71,53.22L120.5,46.64L121.29,46.92L122.07,45.27L122.86,40.89L123.65,49.65L124.44,51.02L125.22,49.93L126.01,51.85L126.8,60.34L128.37,52.39L129.16,52.67L129.95,41.98L130.74,49.93L132.31,47.19L133.1,49.93L133.89,40.89L134.68,53.22L136.25,40.34L137.04,49.65L137.83,42.26L138.61,42.81L139.4,30.75L140.19,40.62L140.98,39.52L141.76,34.59L143.34,39.79L144.13,29.38L145.7,41.71L146.49,27.74L148.06,43.63L148.85,32.95L149.64,37.33L150.43,33.77L151.21,35.41L152,34.59L152.79,25.55L153.58,43.35L155.15,28.84L155.94,32.4L156.73,29.93L157.52,39.52L158.3,29.11L159.09,37.88L159.88,32.12L160.67,32.12L161.45,27.74L162.24,31.3L163.03,34.32L163.82,27.47L164.6,36.23L165.39,33.49L166.18,29.66L166.97,32.4L167.75,34.86L168.54,31.85L169.33,31.3L170.12,32.95L171.69,18.15L172.48,25L174.05,41.16L174.84,34.59L176.42,19.25L177.2,35.14L179.57,23.36L180.35,24.18L181.14,33.49L181.93,24.18L184.29,37.6L185.08,30.75L186.66,31.3L187.44,25L189.02,19.8L189.81,22.81L190.59,21.72L191.38,18.15L194.53,29.66L195.32,24.45L196.11,33.22L196.89,29.66L197.68,18.7L198.47,26.37L199.26,14.59L200.04,20.35L200.83,19.52L201.62,26.1L202.41,23.36L203.19,27.47L204.77,29.11L205.56,27.47L206.34,16.78L207.13,22.54L207.92,29.93L208.71,23.36L210.28,31.85L211.07,24.73L211.86,12.95L212.65,23.36L213.43,17.61L214.22,31.3L216.58,17.61L217.37,24.73L218.16,30.21L218.95,29.11L219.73,23.63L220.52,26.37L222.1,19.25L222.88,23.36L223.67,15.69L224.46,32.12L225.25,31.58L226.03,29.66L226.82,28.84L227.61,33.22L228.4,35.41L229.18,22.54L229.97,35.68L230.76,35.14L231.55,34.59L232.33,24.18L233.12,33.49L233.91,29.38L234.7,37.6L235.48,21.72L236.27,31.03L237.06,23.63L237.85,25L238.64,30.75L239.42,41.71L240.21,32.4L241,21.44L241.79,24.73L243.36,20.62L244.15,37.33L244.94,28.29L245.72,38.7L246.51,27.47L247.3,32.95L248.09,33.49L248.87,37.33L249.66,26.65L250.45,26.92L251.24,34.04L252.02,30.21L252.81,31.03L253.6,48.28L255.17,32.12L255.96,37.6L257.54,31.03L258.32,34.04L259.11,30.21L259.9,35.68L260.69,38.7L261.47,35.14L262.26,41.44L263.05,37.05L263.84,39.52L264.63,31.85L265.41,42.26L266.2,39.52L266.99,33.77L267.78,37.88L268.56,32.67L269.35,35.14L270.14,43.08L270.93,34.04L271.71,39.52L272.5,39.25L274.08,30.48L274.86,36.23L275.65,32.12L276.44,33.49L277.23,31.03L278.01,36.51L279.59,46.09L280.38,29.66L281.95,45.82L282.74,39.25L283.53,41.16L284.31,40.62L285.1,33.77L285.89,37.33L286.68,37.33L287.46,43.9L288.25,40.62L289.04,33.77L289.83,41.98L290.62,41.71L291.4,35.96L292.19,43.35L292.98,37.6L293.77,43.63L294.55,38.15L295.34,43.9L296.13,43.63L296.92,49.11L297.7,48.28L298.49,31.58L299.28,50.2L300.07,49.38L300.85,43.35L301.64,53.76L302.43,41.98L303.22,51.3L304.79,38.97L305.58,36.78L306.37,50.48L307.15,43.08L307.94,40.07L308.73,45L309.52,40.07L310.3,41.71L311.09,45.27L311.88,30.48L312.67,45.27L313.45,41.16L314.24,47.74L315.03,41.44L315.82,41.98L316.61,39.52L317.39,43.9L318.18,23.91L318.97,43.63L319.76,42.26L321.33,50.2L322.12,36.23L322.91,49.38L323.69,33.22L324.48,50.2L325.27,37.6L326.06,36.51L326.84,48.01L328.42,36.51L329.21,42.26L330.78,44.72L331.57,34.04L334.72,44.72L335.51,35.41L336.29,40.89L337.08,32.67L338.66,38.42L339.44,39.52L341.02,43.9L341.81,38.97L342.6,35.96L343.38,44.72L344.17,45.27L344.96,47.74L346.53,37.88L347.32,38.42L348.11,45L348.9,44.45L349.68,36.51L350.47,46.92L352.83,37.05L353.62,36.51L354.41,37.6L355.2,29.93L355.98,33.77L356.77,49.38L358.35,36.23L359.13,39.79L359.92,29.66L360.71,37.6L361.5,30.48L362.28,43.08L363.07,31.85L363.86,43.08L365.43,26.1L366.22,34.59L367.01,31.58L367.8,40.34L368.59,37.05L369.37,38.7L370.16,33.77L370.95,33.77L371.74,28.02L372.52,34.04L373.31,34.59L374.1,45L374.89,34.59L375.67,41.16L376.46,37.05L377.25,28.84L378.04,32.95L378.82,30.21L379.61,27.19L380.4,27.19L381.19,40.89L381.97,34.32L382.76,45L383.55,30.75L384.34,36.23L385.12,30.48L386.7,42.26L387.49,34.59L388.27,36.23L389.06,32.67L389.85,25L390.64,30.21L391.42,44.18L392.21,36.78L393,29.93L393,140.87L392.21,136.21L391.42,124.71L390.64,132.92L389.85,131.83L389.06,138.13L388.27,127.99L387.49,123.06L386.7,126.9L385.91,130.73L385.12,125.25L384.34,134.84L383.55,122.79L382.76,126.08L381.97,122.52L381.19,123.34L380.4,134.57L378.82,123.88L378.04,125.25L376.46,131.01L375.67,119.23L374.89,130.46L374.1,125.25L373.31,136.76L372.52,121.42L371.74,135.39L370.95,123.88L370.16,125.8L369.37,134.57L368.59,134.29L367.8,127.17L367.01,120.87L366.22,126.62L365.43,138.95L364.65,124.98L363.07,130.46L362.28,124.71L361.5,143.61L360.71,112.93L359.13,130.46L358.35,129.36L357.56,131.55L356.77,125.53L355.98,126.9L355.2,135.66L354.41,133.75L353.62,121.42L352.83,124.98L352.05,132.92L350.47,121.15L349.68,126.35L348.9,134.57L348.11,131.83L347.32,136.76L346.53,126.9L345.75,132.92L344.96,129.36L344.17,127.45L343.38,134.57L342.6,135.12L341.81,131.01L341.02,131.83L340.23,127.45L338.66,122.79L337.87,135.66L337.08,135.12L336.29,129.36L335.51,127.99L334.72,129.36L333.14,132.38L332.36,126.62L331.57,131.83L330.78,125.25L329.21,138.13L328.42,138.95L327.63,138.68L326.84,148.81L324.48,127.99L323.69,127.72L322.91,147.17L322.12,136.76L321.33,134.84L320.54,128.54L319.76,131.28L318.97,141.14L318.18,149.36L317.39,148.81L316.61,128.82L315.82,159.22L315.03,152.37L314.24,131.55L313.45,140.05L312.67,131.83L311.88,131.28L311.09,139.77L310.3,147.17L309.52,132.38L308.73,141.14L307.94,137.85L307.15,126.35L306.37,131.83L305.58,146.89L304.79,144.43L304,138.68L303.22,123.61L301.64,134.29L300.85,148.26L299.28,143.88L298.49,144.43L297.7,137.85L296.92,146.35L296.13,133.47L295.34,154.56L294.55,140.87L293.77,153.74L292.98,136.76L292.19,149.36L291.4,141.69L290.62,147.72L289.04,139.22L288.25,135.94L287.46,135.94L286.68,138.68L285.89,140.59L285.1,131.55L284.31,144.98L283.53,139.77L282.74,143.33L281.95,140.59L280.38,156.75L279.59,154.29L278.8,154.84L278.01,149.91L277.23,149.91L276.44,159.49L275.65,158.95L274.86,146.07L274.08,158.95L273.29,155.93L272.5,152.92L271.71,142.24L270.93,154.02L270.14,151.28L269.35,160.04L268.56,140.87L267.78,150.73L266.99,149.63L266.2,149.63L265.41,146.07L264.63,148.26L263.84,144.98L263.05,133.47L262.26,142.78L261.47,146.89L260.69,143.61L259.11,148.81L258.32,147.99L257.54,158.12L256.75,149.63L255.96,138.95L255.17,147.44L254.39,141.96L253.6,157.3L252.81,140.05L252.02,146.07L251.24,137.85L250.45,152.37L249.66,152.1L248.87,134.02L247.3,161.68L246.51,149.91L245.72,146.07L244.94,146.35L244.15,140.59L243.36,144.15L242.57,149.36L241.79,148.81L241,142.78L240.21,144.98L238.64,147.72L237.85,151.82L236.27,160.59L235.48,151.82L233.91,160.59L233.12,149.91L232.33,152.92L231.55,163.88L230.76,146.07L229.97,161.41L229.18,161.41L228.4,167.71L227.61,153.74L226.82,154.56L226.03,161.68L225.25,146.89L224.46,146.07L223.67,143.06L222.88,143.88L222.1,159.22L221.31,152.1L220.52,156.75L219.73,142.24L218.95,151.82L218.16,145.52L217.37,148.81L216.58,151L215.8,142.51L215.01,159.22L214.22,158.12L213.43,157.03L212.65,149.91L211.86,143.61L211.07,143.88L209.49,159.77L208.71,147.17L207.92,152.37L207.13,141.14L206.34,134.02L205.56,148.54L204.77,143.61L203.98,147.17L203.19,151.82L202.41,168.26L200.83,156.21L200.04,163.05L199.26,160.59L198.47,162.78L197.68,158.67L196.89,164.97L196.11,163.6L195.32,159.49L193.74,167.16L192.96,164.42L192.17,168.81L191.38,165.79L190.59,166.89L189.81,153.19L187.44,168.26L186.66,161.14L185.87,161.41L185.08,167.98L184.29,164.97L183.51,155.66L181.93,168.26L181.14,162.51L180.35,163.88L179.57,155.38L178.78,154.56L177.99,164.42L176.42,160.32L175.63,160.86L174.84,158.12L174.05,152.37L171.69,136.48L170.9,144.15L170.12,156.48L169.33,140.05L167.75,145.52L166.97,159.22L166.18,143.61L165.39,152.65L164.6,152.37L163.82,150.73L163.03,157.03L162.24,157.03L161.45,149.08L160.67,155.11L159.88,159.77L159.09,149.08L158.3,145.8L157.52,154.84L156.73,145.52L155.94,155.38L155.15,151.28L154.36,152.1L153.58,157.03L152.79,153.19L152,157.85L151.21,148.54L150.43,156.21L149.64,152.65L148.85,154.84L148.06,152.65L145.7,164.7L144.91,157.58L144.13,157.85L143.34,165.25L142.55,167.71L141.76,164.15L140.98,165.25L140.19,172.92L138.61,164.7L137.83,167.98L137.04,165.79L136.25,175.93L135.46,168.81L134.68,172.92L133.1,168.26L132.31,164.97L131.53,164.97L130.74,163.33L129.95,180.86L129.16,162.51L128.37,184.69L127.59,173.19L126.8,168.81L126.01,175.38L125.22,171.27L124.44,177.57L123.65,187.98L122.86,180.04L122.07,174.56L121.29,179.22L120.5,180.58L119.71,190.72L118.92,178.67L118.14,184.15L117.35,183.32L116.56,187.16L115.77,187.43L114.99,186.06L113.41,200.31L112.62,195.65L111.84,191.54L111.05,196.2L108.69,199.48L107.9,207.98L107.11,208.52L106.32,201.4L105.54,201.4L104.75,207.15L103.96,208.52L103.17,206.33L102.38,200.31L101.6,201.13L99.23,216.19L98.45,210.44L97.66,212.91L96.87,209.07L96.08,218.66L95.3,210.44L94.51,216.19L93.72,215.37L92.93,216.47L92.15,220.03L91.36,217.84L90.57,219.75L89.78,209.89L89,223.32L87.42,214.55L86.63,220.58L85.85,221.12L85.06,226.6L83.48,233.18L82.7,224.96L81.12,232.35L80.33,230.98L79.55,234.27L78.76,229.62L77.18,230.44L76.39,230.16L74.82,234.82L74.03,231.53L73.24,237.56L72.46,237.56L71.67,239.2L70.88,233.72L70.09,238.93L69.31,237.28L68.52,240.85L67.73,240.57L66.94,238.65L66.16,239.2L65.37,241.39L64.58,239.2L63.79,241.39L63.01,238.93L61.43,242.76L60.64,240.02L59.07,243.86L58.28,243.58L57.49,243.86L56.71,242.76L55.13,244.95L54.34,244.41L53.56,244.68L52.77,243.58L51.98,244.68L51.19,243.31L50.4,242.49L49.62,244.13L48.04,243.86L47.25,243.86L45.68,244.13L44.89,243.58L43.32,243.31L42.53,244.13L41.74,243.58L40.95,244.41L37.02,245.23L36.23,244.95L34.65,244.41L33.87,244.95L32.29,245.5L31.5,244.68L30.72,244.41L29.93,244.95L29.14,245.23L28.35,244.68L23.63,245.23L22.84,245.78L21.26,244.95L20.48,244.95L18.11,245.23L17.33,244.95L15.75,245.23L14.96,244.95L12.6,245.23L11.81,245.23L0.79,245.78L0,246.05" style="vector-effect: non-scaling-stroke; fill: none; stroke: rgb(0, 0, 0); stroke-opacity: 0; stroke-width: 2px; opacity: 1;"/></g><g class="points"/><g class="text"/></g><g class="trace scatter trace81c2b3" style="stroke-miterlimit: 2; opacity: 1;"><g class="fills"/><g class="errorbars"/><g class="lines"><path class="js-line" d="M0,245.23L2.36,245.23L3.15,244.41L4.73,243.86L5.51,244.41L9.45,243.58L10.24,244.95L11.81,244.13L12.6,243.31L14.96,244.41L15.75,243.86L17.33,244.95L18.11,243.86L20.48,244.13L21.26,243.31L22.05,242.49L22.84,243.04L23.63,241.67L24.41,242.22L25.2,242.22L25.99,240.85L27.57,239.2L28.35,240.02L29.14,235.92L29.93,238.38L30.72,233.72L31.5,237.56L33.08,239.75L33.87,236.46L34.65,237.28L35.44,235.64L37.02,231.53L37.8,235.64L38.59,235.92L39.38,230.71L40.17,232.63L40.95,230.98L42.53,224.96L43.32,225.23L44.89,219.75L45.68,223.86L46.47,222.77L47.25,213.18L48.04,214.28L48.83,210.72L49.62,214.82L50.4,211.26L51.19,203.59L51.98,207.98L53.56,194.01L54.34,199.76L55.13,200.58L55.92,192.36L56.71,203.05L57.49,190.45L58.28,200.58L59.07,200.03L59.86,193.46L60.64,194.55L61.43,201.95L62.22,196.75L63.01,196.47L63.79,185.79L65.37,170.72L66.16,181.13L66.94,174.83L67.73,182.78L68.52,173.46L69.31,180.31L70.09,162.51L70.88,172.09L73.24,174.01L74.03,163.6L75.61,163.05L76.39,160.32L77.18,160.04L77.97,154.56L78.76,156.48L79.55,166.89L80.33,163.05L81.12,150.45L81.91,156.75L82.7,151.28L83.48,151.82L84.27,167.44L85.06,157.85L85.85,160.32L87.42,147.17L88.21,157.3L89,154.29L89.78,155.93L91.36,152.65L92.15,147.99L92.93,147.44L93.72,145.8L94.51,154.84L95.3,148.81L96.87,140.32L97.66,145.8L99.23,157.58L100.02,149.08L100.81,147.44L101.6,143.88L102.38,150.18L103.17,136.48L103.96,149.08L104.75,138.13L105.54,138.13L106.32,135.12L107.9,141.42L108.69,143.33L111.05,126.35L111.84,135.39L112.62,130.18L113.41,132.1L114.2,132.92L114.99,129.09L116.56,134.02L117.35,130.18L118.14,127.45L118.92,134.29L120.5,123.34L121.29,123.88L122.07,124.71L122.86,123.88L123.65,120.32L124.44,128.27L125.22,126.08L126.01,116.22L126.8,124.16L127.59,116.76L128.37,119.78L129.16,118.41L129.95,117.86L130.74,120.6L131.53,121.97L132.31,121.42L133.1,123.34L133.89,122.52L135.46,121.69L136.25,116.22L137.04,114.02L137.83,123.61L139.4,117.86L140.19,121.97L140.98,123.06L141.76,121.69L142.55,115.39L143.34,124.71L144.91,116.49L145.7,119.5L147.28,111.01L148.06,115.67L148.85,114.02L149.64,123.34L151.21,116.22L152,120.05L152.79,116.49L153.58,117.04L156.73,118.95L157.52,126.35L159.09,119.23L159.88,119.5L160.67,119.23L161.45,124.43L162.24,115.67L163.03,124.43L163.82,121.97L164.6,127.45L165.39,121.97L166.18,124.71L168.54,117.86L169.33,120.6L170.12,119.78L170.9,120.32L171.69,120.05L172.48,114.3L174.05,119.5L174.84,115.67L175.63,118.41L176.42,107.45L177.2,108.55L177.99,115.94L179.57,104.44L180.35,110.19L181.14,108.27L181.93,116.22L182.72,101.7L183.51,111.01L185.08,107.72L185.87,101.7L186.66,103.62L187.44,110.74L188.23,107.18L189.02,100.05L189.81,101.42L190.59,98.96L191.38,108.55L192.17,98.14L192.96,112.11L193.74,101.97L194.53,104.98L195.32,103.62L196.89,107.18L197.68,104.98L198.47,107.72L199.26,105.81L200.04,99.78L200.83,110.46L201.62,109.64L202.41,96.22L203.19,109.64L203.98,99.51L204.77,94.85L205.56,100.05L206.34,108L207.13,96.77L207.92,103.34L208.71,102.79L209.49,103.07L210.28,98.14L211.07,102.52L211.86,95.4L212.65,103.62L213.43,97.59L214.22,91.84L215.01,100.6L215.8,98.14L216.58,102.25L217.37,96.22L218.16,98.96L218.95,97.59L219.73,94.03L220.52,95.12L221.31,97.86L222.88,102.79L223.67,96.49L225.25,105.53L226.03,101.7L226.82,101.7L227.61,87.73L229.18,102.25L229.97,98.96L230.76,95.95L231.55,96.49L232.33,94.85L233.12,97.04L233.91,99.23L234.7,94.58L235.48,87.18L236.27,94.85L237.06,90.74L237.85,98.68L238.64,89.92L239.42,101.7L240.21,92.11L241,94.3L241.79,98.41L242.57,89.92L243.36,90.47L244.15,87.18L244.94,94.03L245.72,93.48L246.51,92.66L247.3,94.58L248.87,98.68L249.66,94.03L250.45,96.22L251.24,95.67L252.02,91.84L252.81,97.04L253.6,95.4L254.39,101.97L255.17,100.05L255.96,94.3L256.75,92.38L257.54,100.33L258.32,84.99L259.11,85.26L259.9,99.51L260.69,88.55L261.47,100.6L262.26,87.18L263.05,94.58L263.84,89.92L264.63,99.51L265.41,94.03L266.2,83.62L266.99,90.47L267.78,104.44L268.56,93.21L269.35,89.1L270.14,99.51L270.93,96.22L271.71,96.22L272.5,93.75L273.29,95.67L274.86,92.11L275.65,97.59L276.44,93.75L277.23,95.12L278.01,105.53L278.8,99.78L279.59,89.1L280.38,101.7L281.16,95.12L281.95,101.15L282.74,84.99L283.53,100.33L284.31,104.16L285.1,96.49L285.89,96.77L286.68,92.66L287.46,100.05L288.25,99.78L289.04,104.16L289.83,100.33L290.62,101.7L291.4,90.47L292.19,92.11L292.98,97.86L293.77,97.86L294.55,99.23L295.34,99.23L296.13,92.93L297.7,103.07L298.49,106.9L300.07,92.93L300.85,93.21L302.43,97.32L303.22,98.96L304,92.38L304.79,100.33L305.58,107.45L306.37,95.95L307.15,99.23L307.94,98.14L308.73,100.6L309.52,96.49L310.3,99.23L311.09,95.67L312.67,109.92L313.45,95.67L314.24,100.88L315.03,91.84L315.82,93.21L316.61,100.05L318.18,92.66L318.97,90.19L319.76,98.41L320.54,95.95L322.12,95.95L322.91,100.05L323.69,89.65L324.48,93.48L325.27,100.88L326.06,91.84L326.84,91.56L327.63,88.28L329.21,95.67L329.99,88.55L330.78,94.58L331.57,92.93L332.36,95.95L333.14,103.07L333.93,100.6L334.72,92.66L335.51,93.21L336.29,96.22L337.08,91.56L337.87,92.93L338.66,93.48L339.44,96.77L340.23,92.66L341.02,94.85L341.81,91.56L342.6,102.52L344.17,93.21L344.96,94.85L345.75,95.95L346.53,100.05L347.32,99.78L348.11,97.32L348.9,93.75L349.68,97.04L351.26,93.48L352.05,88.28L353.62,102.79L354.41,95.67L355.2,95.4L355.98,98.41L357.56,95.12L358.35,94.58L359.13,93.75L359.92,101.42L360.71,95.4L361.5,95.4L362.28,98.68L363.07,95.4L363.86,102.25L364.65,96.49L366.22,89.65L367.01,90.19L368.59,97.32L369.37,92.11L370.95,99.51L371.74,95.4L372.52,95.67L373.31,89.92L374.1,89.92L374.89,88.55L375.67,92.93L376.46,89.65L377.25,86.91L378.04,91.56L378.82,91.56L379.61,96.77L380.4,97.59L381.19,100.88L381.97,95.4L382.76,99.23L383.55,99.51L384.34,94.85L385.12,87.73L385.91,97.59L386.7,91.84L387.49,99.78L389.06,98.96L389.85,87.18L390.64,98.68L391.42,98.41L392.21,93.75L393,96.77" style="vector-effect: non-scaling-stroke; fill: none; stroke: rgb(239, 85, 59); stroke-opacity: 1; stroke-width: 2px; opacity: 1;"/></g><g class="points"/><g class="text"/></g><g class="trace scatter trace1fa5dc" style="stroke-miterlimit: 2; opacity: 1;"><g class="fills"><g><path class="js-fill" d="M0,244.68L1.58,244.27L2.36,242.9L3.94,236.74L4.73,239.89L5.51,241.67L6.3,239.2L7.09,236.19L7.88,239.61L8.66,234.96L9.45,236.46L10.24,235.37L11.03,232.77L11.81,237.83L12.6,236.19L14.18,233.18L14.96,234.82L15.75,235.09L16.54,232.49L17.33,233.04L18.11,227.01L19.69,221.26L20.48,222.08L21.26,223.04L22.05,225.37L24.41,216.06L25.2,213.04L26.78,207.84L27.57,207.15L28.35,211.4L29.14,201.95L30.72,194.69L31.5,194.28L32.29,198.66L33.08,197.7L33.87,200.31L34.65,192.23L36.23,186.61L37.02,190.17L37.8,187.43L38.59,172.09L40.17,184.83L40.95,179.63L41.74,178.26L42.53,184.01L43.32,177.43L44.1,181.82L44.89,162.92L45.68,162.64L46.47,168.12L47.25,166.34L48.04,173.33L48.83,163.6L49.62,152.1L50.4,154.02L51.19,154.97L51.98,150.59L53.56,147.72L54.34,137.85L55.13,143.2L55.92,139.77L56.71,143.47L57.49,138.4L58.28,150.32L59.07,132.1L60.64,138.68L61.43,130.6L62.22,124.16L63.01,125.94L63.79,126.62L64.58,122.38L65.37,121.28L66.16,115.94L66.94,110.6L67.73,123.75L68.52,117.72L69.31,118.82L70.09,111.15L70.88,119.09L72.46,112.24L73.24,113.34L74.03,115.53L74.82,110.46L75.61,118.13L76.39,111.7L77.18,106.08L77.97,107.31L79.55,112.38L80.33,104.16L81.12,106.77L81.91,104.44L82.7,103.34L83.48,99.92L84.27,98.27L85.06,104.44L85.85,99.23L86.63,103.48L87.42,105.26L88.21,104.57L89,100.6L89.78,105.67L91.36,93.34L92.15,94.99L92.93,102.11L93.72,100.19L94.51,95.12L95.3,101.7L96.08,96.9L96.87,108.82L98.45,92.93L99.23,92.52L100.02,97.59L100.81,95.53L101.6,88.14L102.38,96.9L103.17,96.63L103.96,91.56L104.75,90.88L105.54,85.54L106.32,97.04L107.11,88.82L107.9,89.92L108.69,86.08L109.47,95.12L110.26,87.32L111.05,93.62L111.84,87.87L112.62,94.03L113.41,93.07L114.2,92.52L114.99,84.72L115.77,89.37L116.56,85.54L118.14,87.87L118.92,77.87L119.71,88.55L120.5,82.52L122.07,85.54L122.86,85.13L123.65,76.09L124.44,80.47L125.22,77.05L126.01,70.2L127.59,79.78L128.37,72.25L129.16,74.44L129.95,73.76L130.74,76.36L131.53,72.53L132.31,86.5L133.1,81.02L133.89,78.28L134.68,79.92L135.46,80.06L136.25,82.93L138.61,76.5L139.4,80.61L140.98,85.54L141.76,70.06L143.34,84.72L144.13,90.47L145.7,76.09L146.49,76.91L147.28,79.24L148.06,67.18L148.85,71.84L149.64,70.75L150.43,77.73L151.21,74.03L152,67.73L152.79,70.2L153.58,70.75L154.36,67.46L155.15,76.5L155.94,72.53L156.73,63.21L157.52,73.76L159.09,58.28L159.88,61.3L160.67,71.57L161.45,58.83L162.24,72.53L163.03,62.25L163.82,66.23L164.6,62.94L165.39,61.02L166.18,70.33L166.97,60.2L167.75,67.73L169.33,60.06L170.12,66.36L170.9,58.15L171.69,64.03L172.48,66.64L173.27,62.39L175.63,69.92L176.42,56.37L177.2,66.64L177.99,61.84L178.78,57.6L179.57,69.38L180.35,69.24L181.14,63.62L181.93,58.01L182.72,68.55L183.51,60.88L184.29,69.24L185.87,65.54L186.66,62.53L187.44,63.21L188.23,56.37L189.81,60.47L190.59,69.1L191.38,66.09L192.17,68.14L192.96,66.23L193.74,68.83L194.53,60.61L195.32,63.21L196.11,60.47L196.89,70.88L197.68,61.43L198.47,62.39L199.26,72.39L200.04,66.09L200.83,63.9L201.62,65.4L202.41,66.5L203.19,64.17L203.98,65.95L204.77,59.93L205.56,61.84L206.34,60.75L207.92,67.18L208.71,65.68L210.28,69.92L211.07,64.17L211.86,71.16L212.65,70.88L213.43,70.2L214.22,68.14L215.01,72.53L215.8,64.99L216.58,62.12L217.37,66.09L218.95,68.83L219.73,68.14L221.31,66.77L222.1,72.66L222.88,71.43L223.67,67.73L224.46,69.24L225.25,65.4L226.03,74.31L226.82,64.72L227.61,71.43L228.4,69.65L229.18,59.79L229.97,64.72L231.55,59.24L232.33,68.28L233.12,58.56L233.91,69.65L236.27,58.56L237.06,61.98L237.85,65.27L238.64,64.58L239.42,68.01L240.21,64.99L241,72.53L241.79,68.14L242.57,67.73L243.36,63.21L244.15,61.98L244.94,69.38L246.51,68.69L247.3,71.16L248.09,63.76L248.87,63.9L249.66,64.58L250.45,61.71L251.24,62.12L252.02,65.13L252.81,72.12L253.6,72.25L254.39,57.6L255.17,64.72L256.75,68.55L257.54,63.21L259.11,53.63L259.9,63.21L260.69,61.98L261.47,58.97L262.26,72.39L263.05,61.16L264.63,64.03L265.41,64.31L266.2,61.98L266.99,62.12L267.78,63.08L268.56,69.1L269.35,54.86L270.14,63.9L270.93,65.95L271.71,58.83L272.5,61.3L273.29,69.92L274.86,63.62L275.65,60.75L278.8,74.85L279.59,67.32L280.38,66.5L281.16,67.32L281.95,60.34L282.74,68.69L284.31,69.79L285.1,63.9L285.89,66.77L286.68,64.31L287.46,69.24L288.25,62.94L289.04,63.08L289.83,64.03L292.19,69.38L292.98,72.12L293.77,56.37L294.55,71.7L296.13,66.64L296.92,67.6L297.7,63.35L298.49,72.8L300.07,68.69L300.85,67.46L301.64,64.99L302.43,67.46L303.22,63.62L304,69.92L305.58,61.84L306.37,62.8L307.15,65.68L307.94,61.43L308.73,69.92L309.52,68.14L310.3,67.87L311.09,58.83L311.88,70.2L312.67,70.2L313.45,61.43L314.24,68.55L315.82,58.83L316.61,61.02L317.39,54.58L318.18,55.27L318.97,68.69L319.76,64.03L320.54,68.01L321.33,63.9L322.12,58.28L322.91,64.58L323.69,61.84L324.48,54.45L325.27,67.46L326.06,63.9L326.84,66.36L327.63,60.47L328.42,70.47L329.21,64.45L329.99,65.82L330.78,65.54L331.57,68.42L332.36,55.41L333.14,68.69L333.93,67.05L334.72,72.94L335.51,61.3L336.29,65.95L337.08,61.02L337.87,72.39L338.66,67.46L339.44,58.42L340.23,61.16L341.81,66.23L342.6,61.43L343.38,59.38L344.17,64.58L344.96,58.01L345.75,63.21L347.32,62.25L348.11,64.99L348.9,64.86L349.68,57.19L351.26,69.1L352.05,62.8L352.83,68.83L353.62,67.6L354.41,65.27L355.2,66.91L355.98,63.49L356.77,66.09L357.56,68.55L358.35,64.86L359.13,55.82L359.92,60.06L360.71,58.42L361.5,69.24L362.28,64.72L363.07,64.86L363.86,58.15L364.65,64.86L365.43,68.14L366.22,64.72L367.01,65.54L367.8,63.76L368.59,63.9L369.37,57.19L370.95,67.18L371.74,65.54L372.52,63.21L373.31,64.86L374.1,73.21L374.89,68.69L376.46,56.5L377.25,64.45L378.82,63.35L379.61,68.01L380.4,68.42L381.19,61.98L382.76,70.47L383.55,62.8L384.34,63.21L385.12,56.91L385.91,68.69L386.7,58.56L387.49,64.31L388.27,62.25L389.06,57.73L389.85,59.24L390.64,65.4L391.42,59.52L392.21,64.17L393,62.25L393,142.24L392.21,144.43L391.42,146.07L390.64,141.69L389.06,137.17L388.27,144.7L386.7,143.2L385.91,134.84L385.12,135.8L384.34,146.62L383.55,142.24L382.76,144.84L381.97,138.81L381.19,139.77L379.61,143.74L378.82,134.43L378.04,133.88L377.25,137.03L376.46,145.66L375.67,140.05L374.89,137.99L374.1,141.69L372.52,134.43L371.74,135.8L370.95,138.4L370.16,134.7L368.59,139.5L367.8,138.68L367.01,138.54L366.22,134.98L365.43,136.9L364.65,135.53L363.07,145.25L362.28,140.73L361.5,128.54L360.71,136.21L359.13,125.12L358.35,134.02L357.56,141.14L356.77,125.8L355.2,132.65L354.41,129.23L353.62,126.08L352.83,127.72L352.05,130.46L351.26,124.98L350.47,123.61L349.68,119.5L348.9,124.02L348.11,121.42L347.32,123.75L346.53,120.05L345.75,117.04L344.96,122.52L343.38,122.52L342.6,124.57L341.81,127.45L341.02,119.37L340.23,122.38L339.44,117.04L337.87,131.69L337.08,124.3L336.29,118.95L335.51,127.99L334.72,125.25L333.93,127.03L333.14,122.52L332.36,136.35L331.57,141.83L330.78,136.35L329.99,145.25L329.21,138.68L328.42,134.16L327.63,140.32L326.84,143.33L326.06,139.63L325.27,142.65L324.48,142.51L323.69,142.1L322.91,140.05L322.12,139.77L321.33,142.24L320.54,137.72L319.76,142.37L318.97,144.57L318.18,142.51L316.61,140.18L315.82,141.69L315.03,141.14L314.24,146.89L313.45,135.66L312.67,138.54L311.09,141.55L310.3,139.09L309.52,138.68L308.73,147.17L307.15,124.3L306.37,125.94L303.22,127.99L302.43,126.35L301.64,133.2L300.85,126.9L300.07,137.99L299.28,132.24L298.49,139.77L297.7,131.97L296.92,146.62L296.13,136.48L295.34,147.3L294.55,142.78L293.77,141.83L292.98,143.2L292.19,132.24L291.4,133.06L289.83,131.01L289.04,124.16L288.25,118.95L287.46,123.06L286.68,123.47L285.89,130.05L285.1,121.83L284.31,131.42L283.53,134.02L282.74,145.25L281.95,134.7L281.16,141.96L278.8,122.38L278.01,138.4L276.44,140.05L275.65,129.09L274.86,135.66L274.08,126.9L272.5,140.05L271.71,136.76L270.93,130.6L270.14,141.14L269.35,151.14L268.56,144.57L267.78,136.48L266.99,148.81L266.2,153.06L265.41,139.22L264.63,134.84L263.84,136.76L263.05,136.9L262.26,123.88L261.47,137.85L260.69,135.66L259.9,132.65L259.11,147.72L258.32,133.06L257.54,137.31L256.75,145.25L255.96,132.51L254.39,138.4L253.6,128.4L252.81,126.21L252.02,131.01L251.24,130.6L250.45,122.38L249.66,131.55L248.87,118.54L248.09,131.01L247.3,126.08L246.51,128.27L245.72,121.42L243.36,129.91L242.57,120.19L241,131.14L240.21,129.91L239.42,121.97L238.64,124.71L237.85,131.01L237.06,125.8L236.27,132.24L235.48,130.87L234.7,122.79L233.91,125.53L233.12,120.46L232.33,120.87L231.55,121.15L230.76,128.27L229.97,124.71L229.18,131.42L228.4,124.43L227.61,128.82L226.82,124.84L226.03,129.77L225.25,131.69L224.46,128.4L223.67,128.95L222.88,131.14L222.1,140.46L221.31,140.73L220.52,138.54L219.73,138.95L218.95,143.47L218.16,133.47L217.37,132.38L216.58,137.44L215.8,133.47L215.01,139.22L214.22,141.69L213.43,130.87L212.65,137.85L211.86,133.47L210.28,138.4L209.49,147.17L207.92,135.66L207.13,144.57L205.56,138.95L204.77,146.76L203.19,129.23L202.41,137.03L201.62,129.77L200.83,141.69L200.04,142.1L199.26,140.32L198.47,134.16L197.68,144.57L196.89,140.18L196.11,130.6L194.53,144.98L193.74,137.72L192.96,143.33L192.17,141.42L191.38,146.07L190.59,134.29L189.81,134.16L189.02,140.73L188.23,141.42L187.44,140.05L186.66,133.47L185.87,142.51L185.08,135.8L184.29,139.91L182.72,131.14L181.93,148.13L181.14,136.35L180.35,139.5L179.57,142.65L178.78,129.5L177.2,140.32L176.42,136.35L175.63,143.33L174.84,139.09L174.05,147.3L173.27,141.55L172.48,135.8L171.69,143.47L170.9,150.73L170.12,145.25L169.33,144.57L168.54,151.55L167.75,149.5L166.97,156.48L165.39,147.72L164.6,154.56L163.82,151.14L163.03,155.38L161.45,142.51L160.67,148.4L159.88,159.36L159.09,153.88L158.3,150.73L157.52,161.68L155.94,147.58L155.15,156.62L154.36,151.41L153.58,154.02L152.79,157.71L152,150.32L150.43,156.62L149.64,152.65L148.85,155.66L148.06,155.25L147.28,156.21L146.49,152.37L144.91,160.59L144.13,157.71L143.34,159.08L142.55,164.15L141.76,165.38L140.98,159.49L140.19,155.8L139.4,164.29L138.61,167.03L137.83,176.48L136.25,167.44L135.46,167.44L134.68,175.52L133.89,171.55L133.1,185.52L132.31,174.28L131.53,171.96L130.74,176.07L129.95,169.08L129.16,180.17L128.37,172.5L127.59,178.8L126.8,181.54L126.01,179.63L125.22,173.33L124.44,180.58L122.86,173.46L122.07,183.87L120.5,178.53L119.71,179.49L118.92,181.54L118.14,178.94L117.35,187.71L116.56,182.91L115.77,183.73L114.99,174.7L113.41,185.38L112.62,183.6L111.84,190.45L111.05,185.52L110.26,182.37L109.47,183.6L108.69,190.31L107.9,183.19L106.32,185.38L105.54,194.01L104.75,189.21L103.96,194.42L103.17,197.29L102.38,186.47L100.02,198.12L99.23,189.9L97.66,200.17L96.87,197.43L96.08,196.33L95.3,203.59L93.72,196.75L92.93,198.8L91.36,210.85L90.57,202.22L89.78,215.65L89,207.02L88.21,215.37L87.42,211.26L86.63,208.25L85.85,211.4L85.06,212.36L84.27,209.89L83.48,206.74L82.7,207.57L81.91,213.18L81.12,206.47L80.33,212.77L79.55,209.89L78.76,213.87L77.97,213.73L77.18,216.47L76.39,215.65L75.61,219.75L74.82,217.15L73.24,219.21L72.46,212.77L71.67,219.34L70.88,216.33L70.09,217.84L69.31,221.81L68.52,221.53L67.73,219.62L66.16,225.37L65.37,217.43L63.79,225.37L63.01,218.66L60.64,224.68L59.86,223.59L58.28,225.37L57.49,230.03L55.92,230.16L55.13,228.52L54.34,229.62L53.56,224.55L52.77,226.74L51.98,231.4L51.19,230.57L50.4,233.86L49.62,233.45L48.83,239.89L48.04,240.3L47.25,239.75L45.68,239.75L44.89,241.94L44.1,241.26L43.32,242.22L41.74,242.76L40.95,241.39L40.17,241.26L39.38,242.08L38.59,241.12L37.8,242.49L36.23,242.49L35.44,244.13L33.08,244.95L32.29,244.41L27.57,244.68L26.78,245.37L24.41,244.82L23.63,245.09L18.9,245.23L18.11,245.09L16.54,245.78L15.75,245.23L10.24,245.64L9.45,245.09L3.15,245.23L2.36,245.78L0,245.5Z" style="fill: rgb(239, 85, 59); fill-opacity: 0.3; stroke-width: 0;"/></g></g><g class="errorbars"/><g class="lines"><path class="js-line" d="M0,244.68L1.58,244.27L2.36,242.9L3.94,236.74L4.73,239.89L5.51,241.67L6.3,239.2L7.09,236.19L7.88,239.61L8.66,234.96L9.45,236.46L10.24,235.37L11.03,232.77L11.81,237.83L12.6,236.19L14.18,233.18L14.96,234.82L15.75,235.09L16.54,232.49L17.33,233.04L18.11,227.01L19.69,221.26L20.48,222.08L21.26,223.04L22.05,225.37L24.41,216.06L25.2,213.04L26.78,207.84L27.57,207.15L28.35,211.4L29.14,201.95L30.72,194.69L31.5,194.28L32.29,198.66L33.08,197.7L33.87,200.31L34.65,192.23L36.23,186.61L37.02,190.17L37.8,187.43L38.59,172.09L40.17,184.83L40.95,179.63L41.74,178.26L42.53,184.01L43.32,177.43L44.1,181.82L44.89,162.92L45.68,162.64L46.47,168.12L47.25,166.34L48.04,173.33L48.83,163.6L49.62,152.1L50.4,154.02L51.19,154.97L51.98,150.59L53.56,147.72L54.34,137.85L55.13,143.2L55.92,139.77L56.71,143.47L57.49,138.4L58.28,150.32L59.07,132.1L60.64,138.68L61.43,130.6L62.22,124.16L63.01,125.94L63.79,126.62L64.58,122.38L65.37,121.28L66.16,115.94L66.94,110.6L67.73,123.75L68.52,117.72L69.31,118.82L70.09,111.15L70.88,119.09L72.46,112.24L73.24,113.34L74.03,115.53L74.82,110.46L75.61,118.13L76.39,111.7L77.18,106.08L77.97,107.31L79.55,112.38L80.33,104.16L81.12,106.77L81.91,104.44L82.7,103.34L83.48,99.92L84.27,98.27L85.06,104.44L85.85,99.23L86.63,103.48L87.42,105.26L88.21,104.57L89,100.6L89.78,105.67L91.36,93.34L92.15,94.99L92.93,102.11L93.72,100.19L94.51,95.12L95.3,101.7L96.08,96.9L96.87,108.82L98.45,92.93L99.23,92.52L100.02,97.59L100.81,95.53L101.6,88.14L102.38,96.9L103.17,96.63L103.96,91.56L104.75,90.88L105.54,85.54L106.32,97.04L107.11,88.82L107.9,89.92L108.69,86.08L109.47,95.12L110.26,87.32L111.05,93.62L111.84,87.87L112.62,94.03L113.41,93.07L114.2,92.52L114.99,84.72L115.77,89.37L116.56,85.54L118.14,87.87L118.92,77.87L119.71,88.55L120.5,82.52L122.07,85.54L122.86,85.13L123.65,76.09L124.44,80.47L125.22,77.05L126.01,70.2L127.59,79.78L128.37,72.25L129.16,74.44L129.95,73.76L130.74,76.36L131.53,72.53L132.31,86.5L133.1,81.02L133.89,78.28L134.68,79.92L135.46,80.06L136.25,82.93L138.61,76.5L139.4,80.61L140.98,85.54L141.76,70.06L143.34,84.72L144.13,90.47L145.7,76.09L146.49,76.91L147.28,79.24L148.06,67.18L148.85,71.84L149.64,70.75L150.43,77.73L151.21,74.03L152,67.73L152.79,70.2L153.58,70.75L154.36,67.46L155.15,76.5L155.94,72.53L156.73,63.21L157.52,73.76L159.09,58.28L159.88,61.3L160.67,71.57L161.45,58.83L162.24,72.53L163.03,62.25L163.82,66.23L164.6,62.94L165.39,61.02L166.18,70.33L166.97,60.2L167.75,67.73L169.33,60.06L170.12,66.36L170.9,58.15L171.69,64.03L172.48,66.64L173.27,62.39L175.63,69.92L176.42,56.37L177.2,66.64L177.99,61.84L178.78,57.6L179.57,69.38L180.35,69.24L181.14,63.62L181.93,58.01L182.72,68.55L183.51,60.88L184.29,69.24L185.87,65.54L186.66,62.53L187.44,63.21L188.23,56.37L189.81,60.47L190.59,69.1L191.38,66.09L192.17,68.14L192.96,66.23L193.74,68.83L194.53,60.61L195.32,63.21L196.11,60.47L196.89,70.88L197.68,61.43L198.47,62.39L199.26,72.39L200.04,66.09L200.83,63.9L201.62,65.4L202.41,66.5L203.19,64.17L203.98,65.95L204.77,59.93L205.56,61.84L206.34,60.75L207.92,67.18L208.71,65.68L210.28,69.92L211.07,64.17L211.86,71.16L212.65,70.88L213.43,70.2L214.22,68.14L215.01,72.53L215.8,64.99L216.58,62.12L217.37,66.09L218.95,68.83L219.73,68.14L221.31,66.77L222.1,72.66L222.88,71.43L223.67,67.73L224.46,69.24L225.25,65.4L226.03,74.31L226.82,64.72L227.61,71.43L228.4,69.65L229.18,59.79L229.97,64.72L231.55,59.24L232.33,68.28L233.12,58.56L233.91,69.65L236.27,58.56L237.06,61.98L237.85,65.27L238.64,64.58L239.42,68.01L240.21,64.99L241,72.53L241.79,68.14L242.57,67.73L243.36,63.21L244.15,61.98L244.94,69.38L246.51,68.69L247.3,71.16L248.09,63.76L248.87,63.9L249.66,64.58L250.45,61.71L251.24,62.12L252.02,65.13L252.81,72.12L253.6,72.25L254.39,57.6L255.17,64.72L256.75,68.55L257.54,63.21L259.11,53.63L259.9,63.21L260.69,61.98L261.47,58.97L262.26,72.39L263.05,61.16L264.63,64.03L265.41,64.31L266.2,61.98L266.99,62.12L267.78,63.08L268.56,69.1L269.35,54.86L270.14,63.9L270.93,65.95L271.71,58.83L272.5,61.3L273.29,69.92L274.86,63.62L275.65,60.75L278.8,74.85L279.59,67.32L280.38,66.5L281.16,67.32L281.95,60.34L282.74,68.69L284.31,69.79L285.1,63.9L285.89,66.77L286.68,64.31L287.46,69.24L288.25,62.94L289.04,63.08L289.83,64.03L292.19,69.38L292.98,72.12L293.77,56.37L294.55,71.7L296.13,66.64L296.92,67.6L297.7,63.35L298.49,72.8L300.07,68.69L300.85,67.46L301.64,64.99L302.43,67.46L303.22,63.62L304,69.92L305.58,61.84L306.37,62.8L307.15,65.68L307.94,61.43L308.73,69.92L309.52,68.14L310.3,67.87L311.09,58.83L311.88,70.2L312.67,70.2L313.45,61.43L314.24,68.55L315.82,58.83L316.61,61.02L317.39,54.58L318.18,55.27L318.97,68.69L319.76,64.03L320.54,68.01L321.33,63.9L322.12,58.28L322.91,64.58L323.69,61.84L324.48,54.45L325.27,67.46L326.06,63.9L326.84,66.36L327.63,60.47L328.42,70.47L329.21,64.45L329.99,65.82L330.78,65.54L331.57,68.42L332.36,55.41L333.14,68.69L333.93,67.05L334.72,72.94L335.51,61.3L336.29,65.95L337.08,61.02L337.87,72.39L338.66,67.46L339.44,58.42L340.23,61.16L341.81,66.23L342.6,61.43L343.38,59.38L344.17,64.58L344.96,58.01L345.75,63.21L347.32,62.25L348.11,64.99L348.9,64.86L349.68,57.19L351.26,69.1L352.05,62.8L352.83,68.83L353.62,67.6L354.41,65.27L355.2,66.91L355.98,63.49L356.77,66.09L357.56,68.55L358.35,64.86L359.13,55.82L359.92,60.06L360.71,58.42L361.5,69.24L362.28,64.72L363.07,64.86L363.86,58.15L364.65,64.86L365.43,68.14L366.22,64.72L367.01,65.54L367.8,63.76L368.59,63.9L369.37,57.19L370.95,67.18L371.74,65.54L372.52,63.21L373.31,64.86L374.1,73.21L374.89,68.69L376.46,56.5L377.25,64.45L378.82,63.35L379.61,68.01L380.4,68.42L381.19,61.98L382.76,70.47L383.55,62.8L384.34,63.21L385.12,56.91L385.91,68.69L386.7,58.56L387.49,64.31L388.27,62.25L389.06,57.73L389.85,59.24L390.64,65.4L391.42,59.52L392.21,64.17L393,62.25L393,142.24L392.21,144.43L391.42,146.07L390.64,141.69L389.06,137.17L388.27,144.7L386.7,143.2L385.91,134.84L385.12,135.8L384.34,146.62L383.55,142.24L382.76,144.84L381.97,138.81L381.19,139.77L379.61,143.74L378.82,134.43L378.04,133.88L377.25,137.03L376.46,145.66L375.67,140.05L374.89,137.99L374.1,141.69L372.52,134.43L371.74,135.8L370.95,138.4L370.16,134.7L368.59,139.5L367.8,138.68L367.01,138.54L366.22,134.98L365.43,136.9L364.65,135.53L363.07,145.25L362.28,140.73L361.5,128.54L360.71,136.21L359.13,125.12L358.35,134.02L357.56,141.14L356.77,125.8L355.2,132.65L354.41,129.23L353.62,126.08L352.83,127.72L352.05,130.46L351.26,124.98L350.47,123.61L349.68,119.5L348.9,124.02L348.11,121.42L347.32,123.75L346.53,120.05L345.75,117.04L344.96,122.52L343.38,122.52L342.6,124.57L341.81,127.45L341.02,119.37L340.23,122.38L339.44,117.04L337.87,131.69L337.08,124.3L336.29,118.95L335.51,127.99L334.72,125.25L333.93,127.03L333.14,122.52L332.36,136.35L331.57,141.83L330.78,136.35L329.99,145.25L329.21,138.68L328.42,134.16L327.63,140.32L326.84,143.33L326.06,139.63L325.27,142.65L324.48,142.51L323.69,142.1L322.91,140.05L322.12,139.77L321.33,142.24L320.54,137.72L319.76,142.37L318.97,144.57L318.18,142.51L316.61,140.18L315.82,141.69L315.03,141.14L314.24,146.89L313.45,135.66L312.67,138.54L311.09,141.55L310.3,139.09L309.52,138.68L308.73,147.17L307.15,124.3L306.37,125.94L303.22,127.99L302.43,126.35L301.64,133.2L300.85,126.9L300.07,137.99L299.28,132.24L298.49,139.77L297.7,131.97L296.92,146.62L296.13,136.48L295.34,147.3L294.55,142.78L293.77,141.83L292.98,143.2L292.19,132.24L291.4,133.06L289.83,131.01L289.04,124.16L288.25,118.95L287.46,123.06L286.68,123.47L285.89,130.05L285.1,121.83L284.31,131.42L283.53,134.02L282.74,145.25L281.95,134.7L281.16,141.96L278.8,122.38L278.01,138.4L276.44,140.05L275.65,129.09L274.86,135.66L274.08,126.9L272.5,140.05L271.71,136.76L270.93,130.6L270.14,141.14L269.35,151.14L268.56,144.57L267.78,136.48L266.99,148.81L266.2,153.06L265.41,139.22L264.63,134.84L263.84,136.76L263.05,136.9L262.26,123.88L261.47,137.85L260.69,135.66L259.9,132.65L259.11,147.72L258.32,133.06L257.54,137.31L256.75,145.25L255.96,132.51L254.39,138.4L253.6,128.4L252.81,126.21L252.02,131.01L251.24,130.6L250.45,122.38L249.66,131.55L248.87,118.54L248.09,131.01L247.3,126.08L246.51,128.27L245.72,121.42L243.36,129.91L242.57,120.19L241,131.14L240.21,129.91L239.42,121.97L238.64,124.71L237.85,131.01L237.06,125.8L236.27,132.24L235.48,130.87L234.7,122.79L233.91,125.53L233.12,120.46L232.33,120.87L231.55,121.15L230.76,128.27L229.97,124.71L229.18,131.42L228.4,124.43L227.61,128.82L226.82,124.84L226.03,129.77L225.25,131.69L224.46,128.4L223.67,128.95L222.88,131.14L222.1,140.46L221.31,140.73L220.52,138.54L219.73,138.95L218.95,143.47L218.16,133.47L217.37,132.38L216.58,137.44L215.8,133.47L215.01,139.22L214.22,141.69L213.43,130.87L212.65,137.85L211.86,133.47L210.28,138.4L209.49,147.17L207.92,135.66L207.13,144.57L205.56,138.95L204.77,146.76L203.19,129.23L202.41,137.03L201.62,129.77L200.83,141.69L200.04,142.1L199.26,140.32L198.47,134.16L197.68,144.57L196.89,140.18L196.11,130.6L194.53,144.98L193.74,137.72L192.96,143.33L192.17,141.42L191.38,146.07L190.59,134.29L189.81,134.16L189.02,140.73L188.23,141.42L187.44,140.05L186.66,133.47L185.87,142.51L185.08,135.8L184.29,139.91L182.72,131.14L181.93,148.13L181.14,136.35L180.35,139.5L179.57,142.65L178.78,129.5L177.2,140.32L176.42,136.35L175.63,143.33L174.84,139.09L174.05,147.3L173.27,141.55L172.48,135.8L171.69,143.47L170.9,150.73L170.12,145.25L169.33,144.57L168.54,151.55L167.75,149.5L166.97,156.48L165.39,147.72L164.6,154.56L163.82,151.14L163.03,155.38L161.45,142.51L160.67,148.4L159.88,159.36L159.09,153.88L158.3,150.73L157.52,161.68L155.94,147.58L155.15,156.62L154.36,151.41L153.58,154.02L152.79,157.71L152,150.32L150.43,156.62L149.64,152.65L148.85,155.66L148.06,155.25L147.28,156.21L146.49,152.37L144.91,160.59L144.13,157.71L143.34,159.08L142.55,164.15L141.76,165.38L140.98,159.49L140.19,155.8L139.4,164.29L138.61,167.03L137.83,176.48L136.25,167.44L135.46,167.44L134.68,175.52L133.89,171.55L133.1,185.52L132.31,174.28L131.53,171.96L130.74,176.07L129.95,169.08L129.16,180.17L128.37,172.5L127.59,178.8L126.8,181.54L126.01,179.63L125.22,173.33L124.44,180.58L122.86,173.46L122.07,183.87L120.5,178.53L119.71,179.49L118.92,181.54L118.14,178.94L117.35,187.71L116.56,182.91L115.77,183.73L114.99,174.7L113.41,185.38L112.62,183.6L111.84,190.45L111.05,185.52L110.26,182.37L109.47,183.6L108.69,190.31L107.9,183.19L106.32,185.38L105.54,194.01L104.75,189.21L103.96,194.42L103.17,197.29L102.38,186.47L100.02,198.12L99.23,189.9L97.66,200.17L96.87,197.43L96.08,196.33L95.3,203.59L93.72,196.75L92.93,198.8L91.36,210.85L90.57,202.22L89.78,215.65L89,207.02L88.21,215.37L87.42,211.26L86.63,208.25L85.85,211.4L85.06,212.36L84.27,209.89L83.48,206.74L82.7,207.57L81.91,213.18L81.12,206.47L80.33,212.77L79.55,209.89L78.76,213.87L77.97,213.73L77.18,216.47L76.39,215.65L75.61,219.75L74.82,217.15L73.24,219.21L72.46,212.77L71.67,219.34L70.88,216.33L70.09,217.84L69.31,221.81L68.52,221.53L67.73,219.62L66.16,225.37L65.37,217.43L63.79,225.37L63.01,218.66L60.64,224.68L59.86,223.59L58.28,225.37L57.49,230.03L55.92,230.16L55.13,228.52L54.34,229.62L53.56,224.55L52.77,226.74L51.98,231.4L51.19,230.57L50.4,233.86L49.62,233.45L48.83,239.89L48.04,240.3L47.25,239.75L45.68,239.75L44.89,241.94L44.1,241.26L43.32,242.22L41.74,242.76L40.95,241.39L40.17,241.26L39.38,242.08L38.59,241.12L37.8,242.49L36.23,242.49L35.44,244.13L33.08,244.95L32.29,244.41L27.57,244.68L26.78,245.37L24.41,244.82L23.63,245.09L18.9,245.23L18.11,245.09L16.54,245.78L15.75,245.23L10.24,245.64L9.45,245.09L3.15,245.23L2.36,245.78L0,245.5" style="vector-effect: non-scaling-stroke; fill: none; stroke: rgb(0, 0, 0); stroke-opacity: 0; stroke-width: 2px; opacity: 1;"/></g><g class="points"/><g class="text"/></g><g class="trace scatter tracefc26fa" style="stroke-miterlimit: 2; opacity: 1;"><g class="fills"/><g class="errorbars"/><g class="lines"><path class="js-line" d="M0,245.23L2.36,245.37L3.15,245.09L3.94,244.54L4.73,245.5L7.09,244.68L7.88,245.5L8.66,244.95L9.45,245.37L10.24,244.82L11.03,245.37L22.84,244.82L23.63,244.54L29.14,245.23L29.93,244.41L30.72,245.23L31.5,244.13L32.29,245.09L33.08,244.27L34.65,244.41L35.44,244.13L37.02,244.41L37.8,244.54L39.38,244.68L40.17,244L41.74,243.31L42.53,242.35L43.32,243.86L44.1,243.58L50.4,243.72L51.19,244L51.98,241.67L52.77,242.35L54.34,243.45L55.13,241.67L56.71,242.76L57.49,241.12L58.28,241.53L59.07,238.52L59.86,238.65L60.64,237.28L61.43,234.68L62.22,229.2L63.01,233.31L63.79,231.4L64.58,231.4L65.37,236.46L66.16,236.05L66.94,233.72L67.73,237.01L68.52,237.01L69.31,238.93L70.09,237.42L70.88,235.23L71.67,240.85L73.24,239.61L74.03,240.3L75.61,237.42L76.39,237.56L78.76,227.7L79.55,235.92L80.33,232.9L81.12,234.68L82.7,231.67L83.48,233.04L84.27,226.05L85.06,229.89L85.85,229.07L86.63,232.49L87.42,236.33L88.21,235.09L89,236.6L89.78,233.31L90.57,230.44L91.36,236.87L92.15,237.56L92.93,235.64L94.51,233.86L95.3,231.4L96.08,230.44L96.87,236.33L100.02,228.25L100.81,230.57L101.6,229.2L102.38,236.46L103.17,228.52L103.96,230.98L104.75,229.34L105.54,233.31L106.32,229.48L107.11,230.03L107.9,225.23L108.69,227.01L110.26,229.34L111.05,228.11L111.84,227.15L112.62,233.45L114.2,230.03L114.99,222.49L115.77,225.64L116.56,225.37L118.14,222.77L118.92,225.23L119.71,224.27L120.5,221.67L121.29,226.88L122.07,219.75L123.65,223.32L124.44,222.63L125.22,211.81L126.01,217.43L126.8,220.03L127.59,207.98L128.37,200.85L129.16,201.13L129.95,196.47L130.74,197.7L131.53,197.84L132.31,204.96L133.1,201.54L133.89,203.32L135.46,203.32L136.25,205.1L137.83,201.27L138.61,201.4L139.4,201.27L140.19,203.18L140.98,203.18L141.76,200.58L143.34,194.01L144.13,197.43L144.91,204L145.7,198.94L147.28,193.87L148.06,192.5L148.85,200.85L149.64,196.06L150.43,203.87L151.21,203.87L152,205.1L152.79,203.05L153.58,207.98L154.36,200.58L155.15,195.1L155.94,195.1L156.73,196.33L157.52,193.32L158.3,193.46L159.09,197.29L159.88,198.8L160.67,193.32L161.45,194.01L162.24,187.84L163.03,195.38L163.82,194.28L164.6,200.44L165.39,192.91L166.18,188.53L166.97,196.88L167.75,195.24L168.54,203.18L170.12,214.82L170.9,208.25L171.69,208.52L172.48,210.03L173.27,205.24L174.05,213.73L174.84,210.44L175.63,203.73L177.2,194.69L177.99,198.66L180.35,190.31L181.14,191.27L182.72,187.57L183.51,188.25L184.29,188.25L185.08,187.3L185.87,179.9L186.66,188.12L187.44,188.39L188.23,183.32L189.02,182.37L189.81,192.5L190.59,185.93L191.38,189.08L192.17,182.09L192.96,185.79L193.74,183.32L194.53,184.28L195.32,184.42L196.11,199.07L196.89,191.4L197.68,191.54L199.26,188.8L200.04,200.58L201.62,184.42L202.41,187.43L203.98,182.23L204.77,185.24L205.56,187.57L206.34,186.34L207.13,186.06L207.92,187.02L208.71,185.24L209.49,192.36L211.86,180.31L212.65,193.05L213.43,196.33L214.22,203.46L215.01,189.49L215.8,208.39L216.58,195.1L217.37,204.83L218.95,188.8L219.73,200.03L220.52,180.04L221.31,181.82L222.1,190.17L222.88,188.67L223.67,193.87L224.46,187.57L225.25,188.94L226.03,183.32L226.82,185.52L227.61,184.28L228.4,184.56L229.18,198.25L229.97,184.15L230.76,184.83L231.55,186.06L232.33,183.87L233.12,184.42L233.91,180.72L234.7,185.79L235.48,182.37L236.27,187.84L237.06,182.91L237.85,184.15L238.64,179.9L239.42,180.31L240.21,183.73L241,176.75L241.79,180.86L242.57,187.98L243.36,182.23L244.15,182.23L244.94,183.19L245.72,182.5L246.51,176.75L247.3,184.28L248.09,183.46L248.87,183.32L249.66,185.79L250.45,189.08L251.24,180.17L252.02,179.9L252.81,185.65L253.6,188.53L254.39,183.46L255.17,176.07L255.96,181L256.75,183.32L257.54,171.27L258.32,180.72L259.11,175.79L259.9,175.24L260.69,183.73L262.26,174.28L263.05,181.54L263.84,177.16L264.63,179.08L265.41,178.39L266.2,184.15L267.78,177.43L268.56,182.09L269.35,182.5L270.14,179.35L271.71,187.43L272.5,186.2L273.29,180.86L274.08,185.38L274.86,175.65L275.65,177.43L276.44,187.3L277.23,181.95L278.01,183.6L278.8,177.43L280.38,182.78L281.16,177.57L281.95,174.42L282.74,184.69L283.53,180.58L284.31,190.31L285.1,182.64L285.89,187.84L286.68,193.46L287.46,189.35L288.25,187.43L289.04,188.67L289.83,185.65L290.62,188.12L291.4,183.73L292.19,185.24L292.98,189.35L293.77,182.5L294.55,187.43L295.34,187.57L296.13,181.27L296.92,184.69L297.7,182.37L298.49,184.15L299.28,187.57L300.07,186.06L300.85,187.98L301.64,187.3L302.43,182.64L303.22,185.52L304,193.18L304.79,184.15L305.58,192.23L306.37,183.87L307.94,192.36L308.73,186.34L309.52,188.53L310.3,193.18L311.09,181.27L311.88,182.78L312.67,188.67L313.45,176.48L314.24,184.01L315.03,179.35L315.82,181.54L316.61,181.41L318.18,185.38L318.97,184.83L319.76,181.13L320.54,186.06L321.33,187.57L322.12,184.83L322.91,183.73L323.69,184.97L324.48,186.06L325.27,179.63L326.06,187.3L326.84,177.43L327.63,181.68L328.42,178.39L329.21,183.32L329.99,183.32L330.78,187.84L331.57,185.65L332.36,186.75L333.14,179.22L336.29,187.84L337.08,181.13L337.87,191.68L338.66,182.23L339.44,185.79L340.23,182.91L341.02,177.57L341.81,182.91L343.38,192.36L344.17,179.22L344.96,179.35L345.75,184.83L346.53,179.22L347.32,186.61L348.11,182.37L348.9,184.15L349.68,187.16L350.47,182.5L351.26,184.42L352.05,182.78L353.62,175.79L354.41,185.1L355.98,179.63L356.77,184.56L357.56,179.49L358.35,179.49L359.13,185.38L359.92,182.91L360.71,188.12L361.5,185.65L362.28,179.22L363.07,182.37L363.86,176.34L364.65,180.17L365.43,187.84L366.22,180.04L368.59,187.02L369.37,191.4L370.95,183.87L371.74,188.94L372.52,189.08L373.31,186.61L374.1,182.91L374.89,190.86L375.67,190.72L376.46,186.2L378.04,196.75L378.82,188.8L379.61,187.43L380.4,184.15L381.97,186.2L382.76,191.27L384.34,186.61L385.12,188.25L385.91,184.42L386.7,184.97L387.49,181.41L388.27,183.73L389.06,184.69L389.85,189.21L390.64,185.38L391.42,188.25L392.21,185.79" style="vector-effect: non-scaling-stroke; fill: none; stroke: rgb(0, 204, 150); stroke-opacity: 1; stroke-width: 2px; opacity: 1;"/></g><g class="points"/><g class="text"/></g><g class="trace scatter traceba4bac" style="stroke-miterlimit: 2; opacity: 1;"><g class="fills"><g><path class="js-fill" d="M0,244.95L5.51,243.72L6.3,244.47L7.88,244.2L8.66,244.2L10.24,244.47L11.03,244.34L13.39,244L14.18,244.2L17.33,244.68L18.11,244L18.9,244.68L19.69,243.79L21.26,244.68L22.05,244.13L23.63,242.35L24.41,243.58L26.78,244.41L27.57,242.76L29.93,243.31L30.72,242.35L33.87,244.2L34.65,243.72L35.44,243.17L36.23,243.86L40.17,243.17L40.95,242.22L41.74,240.02L42.53,241.05L44.89,237.49L45.68,237.9L46.47,239.27L47.25,237.56L48.04,238.52L48.83,237.01L49.62,234.48L50.4,236.19L51.19,236.33L51.98,234.89L53.56,218.45L54.34,216.81L55.13,214.14L55.92,221.6L56.71,215.99L57.49,221.53L59.07,215.44L59.86,225.03L60.64,222.56L61.43,217.02L62.22,221.67L63.01,216.81L63.79,223.52L64.58,213.39L65.37,221.6L66.16,214.48L66.94,211.13L67.73,214.41L69.31,211.74L70.09,215.03L70.88,198.18L71.67,203.46L72.46,209.41L73.24,199.96L74.82,204.62L75.61,194.01L76.39,192.91L77.18,194.49L77.97,193.66L78.76,200.03L80.33,190.38L81.12,193.12L81.91,194.83L82.7,203.05L83.48,201.54L84.27,189.28L85.06,195.1L85.85,194.62L87.42,188.05L88.21,193.25L89,203.87L89.78,187.57L90.57,194.76L91.36,184.28L92.93,182.84L93.72,189.42L94.51,185.17L95.3,186.82L96.08,186.41L96.87,189.21L97.66,189.14L98.45,182.71L99.23,188.8L100.02,185.38L100.81,187.16L101.6,179.15L102.38,197.09L103.17,185.1L103.96,184.01L104.75,186.61L105.54,187.3L106.32,183.73L107.11,183.19L107.9,178.67L108.69,173.6L109.47,177.09L110.26,174.83L111.05,170.18L112.62,173.26L113.41,175.31L114.2,176.96L114.99,169.08L115.77,171.75L116.56,167.23L117.35,181.75L118.14,170.11L118.92,170.93L119.71,174.7L121.29,169.77L122.07,172.3L122.86,165.18L123.65,171.82L124.44,159.42L125.22,167.3L126.01,162.44L126.8,168.81L127.59,170.18L128.37,166.07L129.16,167.78L129.95,164.9L130.74,160.25L131.53,161.07L133.1,166.75L133.89,165.52L135.46,160.93L136.25,148.54L137.83,173.6L138.61,167.57L139.4,170.93L140.19,165.79L141.76,173.39L142.55,160.59L143.34,161L144.13,166.55L144.91,161.75L145.7,168.81L146.49,153.12L147.28,155.93L148.06,153.33L148.85,142.85L149.64,153.33L150.43,143.4L151.21,154.56L152,152.03L152.79,152.44L153.58,142.31L154.36,153.06L155.15,143.95L156.73,152.1L157.52,154.02L158.3,147.51L159.09,151.41L159.88,159.77L160.67,155.18L161.45,161.27L162.24,143.81L163.82,154.15L164.6,157.44L165.39,155.11L166.18,149.77L166.97,150.8L167.75,150.11L168.54,152.92L169.33,150.45L170.9,144.84L171.69,155.59L173.27,145.59L174.05,143.06L174.84,152.85L175.63,146.28L176.42,143.06L177.2,157.3L177.99,151.41L178.78,139.02L181.93,145.59L182.72,143.33L183.51,140.05L184.29,142.58L185.08,149.91L185.87,149.15L186.66,144.91L187.44,148.61L188.23,140.05L189.02,145.59L190.59,147.17L191.38,143.81L192.17,138.95L192.96,139.84L193.74,134.5L194.53,146.28L195.32,148.88L196.11,138.27L197.68,146.76L198.47,134.91L200.04,142.92L200.83,143.81L201.62,141.35L202.41,144.22L203.98,147.37L204.77,146.21L205.56,144.63L206.34,132.44L207.13,143.33L207.92,142.44L208.71,149.29L209.49,145.18L210.28,152.03L211.07,140.66L212.65,150.66L213.43,134.43L215.01,140.66L215.8,137.31L216.58,140.87L217.37,133.4L218.16,139.43L218.95,136.48L219.73,141.21L220.52,141.14L221.31,137.51L222.1,139.57L222.88,137.79L223.67,142.99L224.46,142.03L225.25,133.27L226.03,142.24L226.82,131.28L227.61,131.35L228.4,139.16L229.18,126.56L229.97,136.69L230.76,135.53L231.55,138.27L232.33,136.48L233.12,143.54L233.91,130.66L234.7,132.86L236.27,128.75L237.06,131.42L237.85,122.24L238.64,132.92L239.42,126.83L240.21,127.51L241,125.46L241.79,125.53L242.57,126.21L243.36,132.99L244.94,125.12L245.72,130.46L246.51,123.13L247.3,133.27L248.87,130.87L249.66,126.56L250.45,130.8L251.24,123.68L252.81,127.72L253.6,122.58L254.39,135.05L255.17,130.73L255.96,125.6L256.75,132.65L258.32,126.97L259.11,129.64L262.26,142.99L263.05,135.94L264.63,143.47L265.41,137.58L266.2,143.4L266.99,142.03L268.56,136.48L269.35,148.81L270.93,139.98L271.71,146.48L273.29,141.21L274.08,142.99L274.86,139.98L275.65,143.47L276.44,150.32L277.23,140.39L278.01,143.4L278.8,150.52L279.59,146.28L280.38,152.23L281.95,138.33L282.74,146.41L283.53,139.63L284.31,140.87L285.1,143.54L285.89,126.49L286.68,139.91L287.46,139.63L288.25,138.27L289.04,138.95L289.83,137.72L290.62,132.99L291.4,129.77L292.19,135.73L294.55,126.69L295.34,117.31L296.13,129.91L296.92,122.45L297.7,120.94L298.49,121.35L299.28,124.91L300.07,119.71L300.85,129.02L301.64,124.5L302.43,121.08L303.22,127.65L304,131.83L304.79,129.71L306.37,124.3L307.15,128.88L307.94,134.29L308.73,119.16L309.52,133.27L310.3,131.42L311.88,129.36L312.67,133.4L313.45,129.64L314.24,129.98L315.03,132.24L315.82,125.8L316.61,131.14L317.39,143.13L318.18,133.68L318.97,135.94L319.76,127.79L320.54,129.29L322.12,138.4L322.91,137.79L324.48,129.36L325.27,131.83L326.06,132.99L326.84,136.76L327.63,131.62L328.42,136.48L329.21,138.74L329.99,137.38L330.78,127.86L331.57,127.45L333.93,146.07L334.72,139.09L335.51,131.97L336.29,135.39L337.08,136.01L337.87,140.59L339.44,134.7L340.23,143.74L341.81,130.12L342.6,122.04L343.38,130.6L344.17,128.47L344.96,141.69L345.75,140.46L346.53,149.43L347.32,145.46L348.11,138.27L348.9,143.81L350.47,138.95L351.26,142.17L352.05,134.57L352.83,149.08L353.62,148.95L354.41,145.25L355.2,141.76L355.98,149.29L357.56,148.54L358.35,149.43L359.13,141.69L359.92,149.84L360.71,140.39L361.5,151.96L363.86,142.72L364.65,140.39L365.43,141.62L366.22,140.59L367.01,139.16L367.8,145.25L368.59,137.31L369.37,147.51L370.16,140.8L370.95,155.73L371.74,144.5L372.52,149.63L374.1,139.98L374.89,140.05L375.67,143.47L376.46,141.89L377.25,154.77L378.04,149.02L378.82,155.73L379.61,153.95L380.4,146.41L381.19,147.65L381.97,147.72L382.76,151.62L383.55,150.25L384.34,151.28L385.91,148.06L386.7,160.11L387.49,164.42L388.27,154.63L389.85,147.44L390.64,150.45L391.42,151.14L392.21,157.64L392.21,226.12L391.42,234.61L390.64,222.15L389.85,231.26L388.27,226.47L387.49,232.97L386.7,235.85L385.91,225.85L385.12,234.07L384.34,227.15L383.55,228.25L382.76,227.63L381.97,230.23L381.19,235.5L380.4,226.33L379.61,230.92L378.82,229.68L378.04,234.48L377.25,230.23L376.46,233.59L374.89,225.03L374.1,232.15L373.31,227.29L372.52,235.44L370.95,228.66L370.16,231.33L369.37,231.6L368.59,230.85L367.8,232.49L367.01,228.93L366.22,230.44L365.43,229.82L364.65,226.81L363.86,233.45L362.28,229.41L361.5,232.01L360.71,228.79L359.92,229.07L358.35,231.81L357.56,226.81L356.77,232.7L355.98,230.85L354.41,230.51L353.62,228.93L352.83,224.27L352.05,227.9L351.26,228.93L350.47,227.56L349.68,221.53L348.9,229.82L348.11,230.71L347.32,235.02L346.53,235.57L345.75,226.88L344.17,233.11L343.38,227.15L342.6,231.81L341.81,227.7L341.02,234.34L340.23,231.94L339.44,234.13L338.66,229.27L337.87,230.57L337.08,226.47L335.51,230.51L334.72,232.29L333.93,228.66L333.14,231.12L332.36,234.2L331.57,228.52L329.99,227.97L329.21,225.85L327.63,231.94L326.84,232.83L326.06,233.93L325.27,231.26L323.69,227.36L322.91,230.71L322.12,234.34L321.33,230.23L319.76,233.93L318.97,230.16L318.18,232.49L317.39,229.82L316.61,234.41L315.82,230.03L315.03,228.04L314.24,228.66L313.45,232.29L312.67,225.51L311.88,233.72L311.09,228.04L308.73,233.72L307.94,229.96L306.37,235.57L305.58,233.38L304.79,233.66L304,235.09L303.22,230.23L302.43,231.4L301.64,229.27L300.85,234.2L300.07,229.34L299.28,233.93L297.7,231.74L296.92,236.05L296.13,229.34L295.34,230.92L294.55,235.92L293.77,234.34L292.98,231.46L292.19,235.78L291.4,229.14L290.62,232.97L289.83,231.6L289.04,234L288.25,234.61L287.46,228.86L286.68,233.93L285.89,228.86L284.31,233.72L283.53,233.59L282.74,232.63L281.95,228.31L281.16,232.15L280.38,230.51L278.8,233.24L278.01,231.94L277.23,227.15L276.44,230.44L274.86,231.67L274.08,231.05L273.29,231.05L272.5,232.08L270.93,237.22L270.14,228.52L269.35,232.35L268.56,230.09L267.78,226.33L266.99,227.08L266.2,227.83L265.41,232.22L264.63,235.37L263.84,230.37L263.05,226.4L262.26,234.96L261.47,233.45L260.69,225.44L259.9,233.38L259.11,230.64L258.32,234.55L257.54,232.22L256.75,236.53L255.96,234.96L254.39,225.16L253.6,232.56L252.02,228.86L251.24,230.16L249.66,231.87L248.87,226.26L247.3,227.56L246.51,225.85L244.94,230.92L244.15,227.42L242.57,227.22L241.79,232.49L241,225.3L240.21,226.53L239.42,227.01L238.64,230.37L237.06,230.03L236.27,229.2L235.48,229.07L234.7,230.92L233.91,225.99L233.12,231.87L232.33,228.18L231.55,228.59L229.97,228.38L229.18,227.22L228.4,223.45L227.61,231.26L226.82,227.77L226.03,228.59L225.25,227.29L224.46,231.53L223.67,232.49L222.88,225.44L222.1,224.68L221.31,228.45L219.73,230.3L218.95,233.24L217.37,229.34L216.58,232.42L215.8,228.72L215.01,228.86L214.22,227.36L213.43,223.32L212.65,226.74L211.86,225.51L210.28,231.6L209.49,227.49L207.92,228.59L207.13,233.18L206.34,227.63L205.56,230.23L204.77,226.88L203.98,227.7L203.19,236.6L202.41,233.93L201.62,234.13L200.83,231.33L200.04,233.31L199.26,228.86L198.47,229.89L197.68,232.49L196.89,239.68L196.11,234L195.32,234.27L194.53,232.7L193.74,231.53L192.96,233.52L191.38,231.6L190.59,235.3L189.81,233.31L189.02,236.74L187.44,234.27L186.66,235.92L185.08,235.09L184.29,236.74L182.72,233.59L181.93,230.23L181.14,236.39L180.35,231.74L179.57,230.85L178.78,234.07L177.99,237.08L177.2,233.66L176.42,236.6L175.63,235.64L174.84,234.55L174.05,234.82L173.27,233.72L172.48,233.93L171.69,235.16L170.9,234.96L169.33,235.5L168.54,237.01L167.75,236.67L166.97,239.2L166.18,238.52L165.39,235.16L164.6,235.71L163.82,237.56L163.03,240.3L162.24,237.01L159.88,234.27L159.09,235.02L158.3,238.31L157.52,235.37L156.73,237.7L155.94,233.31L155.15,238.79L154.36,232.08L153.58,235.44L152.79,232.29L151.21,235.57L150.43,231.26L149.64,236.05L148.85,234.41L148.06,231.4L147.28,233.52L146.49,230.78L145.7,233.59L144.91,233.45L144.13,234.89L143.34,236.26L142.55,233.45L141.76,237.7L140.98,235.85L140.19,234.89L139.4,235.78L137.04,233.24L136.25,235.3L135.46,235.92L134.68,239.61L133.1,235.16L132.31,235.98L129.95,236.81L129.16,236.19L127.59,238.11L126.8,236.87L126.01,232.35L125.22,235.23L124.44,238.79L123.65,237.22L122.86,240.23L122.07,239.96L121.29,240.71L120.5,238.17L119.71,240.85L118.92,239.13L118.14,241.12L117.35,238.65L115.77,237.97L114.99,238.38L111.84,241.8L111.05,241.32L110.26,242.56L109.47,241.26L107.9,243.31L107.11,243.31L106.32,243.79L105.54,243.31L103.96,243.58L103.17,244.68L102.38,244.41L101.6,243.31L100.81,243.17L100.02,240.09L99.23,244.06L98.45,243.11L97.66,244.61L96.87,243.79L94.51,243.38L93.72,244.75L92.93,245.43L92.15,243.31L90.57,244.2L89.78,242.56L89,243.58L88.21,242.9L86.63,243.58L85.85,242.35L85.06,243.86L84.27,242.83L82.7,242.42L81.91,243.04L81.12,242.49L80.33,243.52L77.97,244.27L77.18,243.72L76.39,243.86L75.61,244.89L74.82,243.65L74.03,244.41L73.24,243.52L72.46,244.34L70.09,243.72L69.31,242.9L67.73,244.2L66.94,243.79L65.37,244.34L64.58,242.35L63.79,243.45L63.01,242.15L61.43,244.75L60.64,243.52L59.07,245.09L58.28,244.13L55.13,243.52L54.34,244.41L52.77,244.82L51.98,242.83L51.19,244.89L50.4,244.61L48.83,245.5L48.04,244.13L44.1,244.95L43.32,244.41L42.53,244.68L41.74,244.06L40.95,245.71L40.17,244.95L38.59,245.64L37.8,245.16L36.23,245.16L35.44,245.43L31.5,245.37L30.72,245.78L29.14,245.23L28.35,245.5L12.6,245.23L11.81,245.98L7.88,245.71L7.09,245.16L4.73,245.5L3.94,245.16L0.79,245.98L0,245.5Z" style="fill: rgb(0, 204, 150); fill-opacity: 0.3; stroke-width: 0;"/></g></g><g class="errorbars"/><g class="lines"><path class="js-line" d="M0,244.95L5.51,243.72L6.3,244.47L7.88,244.2L8.66,244.2L10.24,244.47L11.03,244.34L13.39,244L14.18,244.2L17.33,244.68L18.11,244L18.9,244.68L19.69,243.79L21.26,244.68L22.05,244.13L23.63,242.35L24.41,243.58L26.78,244.41L27.57,242.76L29.93,243.31L30.72,242.35L33.87,244.2L34.65,243.72L35.44,243.17L36.23,243.86L40.17,243.17L40.95,242.22L41.74,240.02L42.53,241.05L44.89,237.49L45.68,237.9L46.47,239.27L47.25,237.56L48.04,238.52L48.83,237.01L49.62,234.48L50.4,236.19L51.19,236.33L51.98,234.89L53.56,218.45L54.34,216.81L55.13,214.14L55.92,221.6L56.71,215.99L57.49,221.53L59.07,215.44L59.86,225.03L60.64,222.56L61.43,217.02L62.22,221.67L63.01,216.81L63.79,223.52L64.58,213.39L65.37,221.6L66.16,214.48L66.94,211.13L67.73,214.41L69.31,211.74L70.09,215.03L70.88,198.18L71.67,203.46L72.46,209.41L73.24,199.96L74.82,204.62L75.61,194.01L76.39,192.91L77.18,194.49L77.97,193.66L78.76,200.03L80.33,190.38L81.12,193.12L81.91,194.83L82.7,203.05L83.48,201.54L84.27,189.28L85.06,195.1L85.85,194.62L87.42,188.05L88.21,193.25L89,203.87L89.78,187.57L90.57,194.76L91.36,184.28L92.93,182.84L93.72,189.42L94.51,185.17L95.3,186.82L96.08,186.41L96.87,189.21L97.66,189.14L98.45,182.71L99.23,188.8L100.02,185.38L100.81,187.16L101.6,179.15L102.38,197.09L103.17,185.1L103.96,184.01L104.75,186.61L105.54,187.3L106.32,183.73L107.11,183.19L107.9,178.67L108.69,173.6L109.47,177.09L110.26,174.83L111.05,170.18L112.62,173.26L113.41,175.31L114.2,176.96L114.99,169.08L115.77,171.75L116.56,167.23L117.35,181.75L118.14,170.11L118.92,170.93L119.71,174.7L121.29,169.77L122.07,172.3L122.86,165.18L123.65,171.82L124.44,159.42L125.22,167.3L126.01,162.44L126.8,168.81L127.59,170.18L128.37,166.07L129.16,167.78L129.95,164.9L130.74,160.25L131.53,161.07L133.1,166.75L133.89,165.52L135.46,160.93L136.25,148.54L137.83,173.6L138.61,167.57L139.4,170.93L140.19,165.79L141.76,173.39L142.55,160.59L143.34,161L144.13,166.55L144.91,161.75L145.7,168.81L146.49,153.12L147.28,155.93L148.06,153.33L148.85,142.85L149.64,153.33L150.43,143.4L151.21,154.56L152,152.03L152.79,152.44L153.58,142.31L154.36,153.06L155.15,143.95L156.73,152.1L157.52,154.02L158.3,147.51L159.09,151.41L159.88,159.77L160.67,155.18L161.45,161.27L162.24,143.81L163.82,154.15L164.6,157.44L165.39,155.11L166.18,149.77L166.97,150.8L167.75,150.11L168.54,152.92L169.33,150.45L170.9,144.84L171.69,155.59L173.27,145.59L174.05,143.06L174.84,152.85L175.63,146.28L176.42,143.06L177.2,157.3L177.99,151.41L178.78,139.02L181.93,145.59L182.72,143.33L183.51,140.05L184.29,142.58L185.08,149.91L185.87,149.15L186.66,144.91L187.44,148.61L188.23,140.05L189.02,145.59L190.59,147.17L191.38,143.81L192.17,138.95L192.96,139.84L193.74,134.5L194.53,146.28L195.32,148.88L196.11,138.27L197.68,146.76L198.47,134.91L200.04,142.92L200.83,143.81L201.62,141.35L202.41,144.22L203.98,147.37L204.77,146.21L205.56,144.63L206.34,132.44L207.13,143.33L207.92,142.44L208.71,149.29L209.49,145.18L210.28,152.03L211.07,140.66L212.65,150.66L213.43,134.43L215.01,140.66L215.8,137.31L216.58,140.87L217.37,133.4L218.16,139.43L218.95,136.48L219.73,141.21L220.52,141.14L221.31,137.51L222.1,139.57L222.88,137.79L223.67,142.99L224.46,142.03L225.25,133.27L226.03,142.24L226.82,131.28L227.61,131.35L228.4,139.16L229.18,126.56L229.97,136.69L230.76,135.53L231.55,138.27L232.33,136.48L233.12,143.54L233.91,130.66L234.7,132.86L236.27,128.75L237.06,131.42L237.85,122.24L238.64,132.92L239.42,126.83L240.21,127.51L241,125.46L241.79,125.53L242.57,126.21L243.36,132.99L244.94,125.12L245.72,130.46L246.51,123.13L247.3,133.27L248.87,130.87L249.66,126.56L250.45,130.8L251.24,123.68L252.81,127.72L253.6,122.58L254.39,135.05L255.17,130.73L255.96,125.6L256.75,132.65L258.32,126.97L259.11,129.64L262.26,142.99L263.05,135.94L264.63,143.47L265.41,137.58L266.2,143.4L266.99,142.03L268.56,136.48L269.35,148.81L270.93,139.98L271.71,146.48L273.29,141.21L274.08,142.99L274.86,139.98L275.65,143.47L276.44,150.32L277.23,140.39L278.01,143.4L278.8,150.52L279.59,146.28L280.38,152.23L281.95,138.33L282.74,146.41L283.53,139.63L284.31,140.87L285.1,143.54L285.89,126.49L286.68,139.91L287.46,139.63L288.25,138.27L289.04,138.95L289.83,137.72L290.62,132.99L291.4,129.77L292.19,135.73L294.55,126.69L295.34,117.31L296.13,129.91L296.92,122.45L297.7,120.94L298.49,121.35L299.28,124.91L300.07,119.71L300.85,129.02L301.64,124.5L302.43,121.08L303.22,127.65L304,131.83L304.79,129.71L306.37,124.3L307.15,128.88L307.94,134.29L308.73,119.16L309.52,133.27L310.3,131.42L311.88,129.36L312.67,133.4L313.45,129.64L314.24,129.98L315.03,132.24L315.82,125.8L316.61,131.14L317.39,143.13L318.18,133.68L318.97,135.94L319.76,127.79L320.54,129.29L322.12,138.4L322.91,137.79L324.48,129.36L325.27,131.83L326.06,132.99L326.84,136.76L327.63,131.62L328.42,136.48L329.21,138.74L329.99,137.38L330.78,127.86L331.57,127.45L333.93,146.07L334.72,139.09L335.51,131.97L336.29,135.39L337.08,136.01L337.87,140.59L339.44,134.7L340.23,143.74L341.81,130.12L342.6,122.04L343.38,130.6L344.17,128.47L344.96,141.69L345.75,140.46L346.53,149.43L347.32,145.46L348.11,138.27L348.9,143.81L350.47,138.95L351.26,142.17L352.05,134.57L352.83,149.08L353.62,148.95L354.41,145.25L355.2,141.76L355.98,149.29L357.56,148.54L358.35,149.43L359.13,141.69L359.92,149.84L360.71,140.39L361.5,151.96L363.86,142.72L364.65,140.39L365.43,141.62L366.22,140.59L367.01,139.16L367.8,145.25L368.59,137.31L369.37,147.51L370.16,140.8L370.95,155.73L371.74,144.5L372.52,149.63L374.1,139.98L374.89,140.05L375.67,143.47L376.46,141.89L377.25,154.77L378.04,149.02L378.82,155.73L379.61,153.95L380.4,146.41L381.19,147.65L381.97,147.72L382.76,151.62L383.55,150.25L384.34,151.28L385.91,148.06L386.7,160.11L387.49,164.42L388.27,154.63L389.85,147.44L390.64,150.45L391.42,151.14L392.21,157.64L392.21,226.12L391.42,234.61L390.64,222.15L389.85,231.26L388.27,226.47L387.49,232.97L386.7,235.85L385.91,225.85L385.12,234.07L384.34,227.15L383.55,228.25L382.76,227.63L381.97,230.23L381.19,235.5L380.4,226.33L379.61,230.92L378.82,229.68L378.04,234.48L377.25,230.23L376.46,233.59L374.89,225.03L374.1,232.15L373.31,227.29L372.52,235.44L370.95,228.66L370.16,231.33L369.37,231.6L368.59,230.85L367.8,232.49L367.01,228.93L366.22,230.44L365.43,229.82L364.65,226.81L363.86,233.45L362.28,229.41L361.5,232.01L360.71,228.79L359.92,229.07L358.35,231.81L357.56,226.81L356.77,232.7L355.98,230.85L354.41,230.51L353.62,228.93L352.83,224.27L352.05,227.9L351.26,228.93L350.47,227.56L349.68,221.53L348.9,229.82L348.11,230.71L347.32,235.02L346.53,235.57L345.75,226.88L344.17,233.11L343.38,227.15L342.6,231.81L341.81,227.7L341.02,234.34L340.23,231.94L339.44,234.13L338.66,229.27L337.87,230.57L337.08,226.47L335.51,230.51L334.72,232.29L333.93,228.66L333.14,231.12L332.36,234.2L331.57,228.52L329.99,227.97L329.21,225.85L327.63,231.94L326.84,232.83L326.06,233.93L325.27,231.26L323.69,227.36L322.91,230.71L322.12,234.34L321.33,230.23L319.76,233.93L318.97,230.16L318.18,232.49L317.39,229.82L316.61,234.41L315.82,230.03L315.03,228.04L314.24,228.66L313.45,232.29L312.67,225.51L311.88,233.72L311.09,228.04L308.73,233.72L307.94,229.96L306.37,235.57L305.58,233.38L304.79,233.66L304,235.09L303.22,230.23L302.43,231.4L301.64,229.27L300.85,234.2L300.07,229.34L299.28,233.93L297.7,231.74L296.92,236.05L296.13,229.34L295.34,230.92L294.55,235.92L293.77,234.34L292.98,231.46L292.19,235.78L291.4,229.14L290.62,232.97L289.83,231.6L289.04,234L288.25,234.61L287.46,228.86L286.68,233.93L285.89,228.86L284.31,233.72L283.53,233.59L282.74,232.63L281.95,228.31L281.16,232.15L280.38,230.51L278.8,233.24L278.01,231.94L277.23,227.15L276.44,230.44L274.86,231.67L274.08,231.05L273.29,231.05L272.5,232.08L270.93,237.22L270.14,228.52L269.35,232.35L268.56,230.09L267.78,226.33L266.99,227.08L266.2,227.83L265.41,232.22L264.63,235.37L263.84,230.37L263.05,226.4L262.26,234.96L261.47,233.45L260.69,225.44L259.9,233.38L259.11,230.64L258.32,234.55L257.54,232.22L256.75,236.53L255.96,234.96L254.39,225.16L253.6,232.56L252.02,228.86L251.24,230.16L249.66,231.87L248.87,226.26L247.3,227.56L246.51,225.85L244.94,230.92L244.15,227.42L242.57,227.22L241.79,232.49L241,225.3L240.21,226.53L239.42,227.01L238.64,230.37L237.06,230.03L236.27,229.2L235.48,229.07L234.7,230.92L233.91,225.99L233.12,231.87L232.33,228.18L231.55,228.59L229.97,228.38L229.18,227.22L228.4,223.45L227.61,231.26L226.82,227.77L226.03,228.59L225.25,227.29L224.46,231.53L223.67,232.49L222.88,225.44L222.1,224.68L221.31,228.45L219.73,230.3L218.95,233.24L217.37,229.34L216.58,232.42L215.8,228.72L215.01,228.86L214.22,227.36L213.43,223.32L212.65,226.74L211.86,225.51L210.28,231.6L209.49,227.49L207.92,228.59L207.13,233.18L206.34,227.63L205.56,230.23L204.77,226.88L203.98,227.7L203.19,236.6L202.41,233.93L201.62,234.13L200.83,231.33L200.04,233.31L199.26,228.86L198.47,229.89L197.68,232.49L196.89,239.68L196.11,234L195.32,234.27L194.53,232.7L193.74,231.53L192.96,233.52L191.38,231.6L190.59,235.3L189.81,233.31L189.02,236.74L187.44,234.27L186.66,235.92L185.08,235.09L184.29,236.74L182.72,233.59L181.93,230.23L181.14,236.39L180.35,231.74L179.57,230.85L178.78,234.07L177.99,237.08L177.2,233.66L176.42,236.6L175.63,235.64L174.84,234.55L174.05,234.82L173.27,233.72L172.48,233.93L171.69,235.16L170.9,234.96L169.33,235.5L168.54,237.01L167.75,236.67L166.97,239.2L166.18,238.52L165.39,235.16L164.6,235.71L163.82,237.56L163.03,240.3L162.24,237.01L159.88,234.27L159.09,235.02L158.3,238.31L157.52,235.37L156.73,237.7L155.94,233.31L155.15,238.79L154.36,232.08L153.58,235.44L152.79,232.29L151.21,235.57L150.43,231.26L149.64,236.05L148.85,234.41L148.06,231.4L147.28,233.52L146.49,230.78L145.7,233.59L144.91,233.45L144.13,234.89L143.34,236.26L142.55,233.45L141.76,237.7L140.98,235.85L140.19,234.89L139.4,235.78L137.04,233.24L136.25,235.3L135.46,235.92L134.68,239.61L133.1,235.16L132.31,235.98L129.95,236.81L129.16,236.19L127.59,238.11L126.8,236.87L126.01,232.35L125.22,235.23L124.44,238.79L123.65,237.22L122.86,240.23L122.07,239.96L121.29,240.71L120.5,238.17L119.71,240.85L118.92,239.13L118.14,241.12L117.35,238.65L115.77,237.97L114.99,238.38L111.84,241.8L111.05,241.32L110.26,242.56L109.47,241.26L107.9,243.31L107.11,243.31L106.32,243.79L105.54,243.31L103.96,243.58L103.17,244.68L102.38,244.41L101.6,243.31L100.81,243.17L100.02,240.09L99.23,244.06L98.45,243.11L97.66,244.61L96.87,243.79L94.51,243.38L93.72,244.75L92.93,245.43L92.15,243.31L90.57,244.2L89.78,242.56L89,243.58L88.21,242.9L86.63,243.58L85.85,242.35L85.06,243.86L84.27,242.83L82.7,242.42L81.91,243.04L81.12,242.49L80.33,243.52L77.97,244.27L77.18,243.72L76.39,243.86L75.61,244.89L74.82,243.65L74.03,244.41L73.24,243.52L72.46,244.34L70.09,243.72L69.31,242.9L67.73,244.2L66.94,243.79L65.37,244.34L64.58,242.35L63.79,243.45L63.01,242.15L61.43,244.75L60.64,243.52L59.07,245.09L58.28,244.13L55.13,243.52L54.34,244.41L52.77,244.82L51.98,242.83L51.19,244.89L50.4,244.61L48.83,245.5L48.04,244.13L44.1,244.95L43.32,244.41L42.53,244.68L41.74,244.06L40.95,245.71L40.17,244.95L38.59,245.64L37.8,245.16L36.23,245.16L35.44,245.43L31.5,245.37L30.72,245.78L29.14,245.23L28.35,245.5L12.6,245.23L11.81,245.98L7.88,245.71L7.09,245.16L4.73,245.5L3.94,245.16L0.79,245.98L0,245.5" style="vector-effect: non-scaling-stroke; fill: none; stroke: rgb(0, 0, 0); stroke-opacity: 0; stroke-width: 2px; opacity: 1;"/></g><g class="points"/><g class="text"/></g></g></g><g class="overplot"/><path class="xlines-above crisp" d="M0,0" style="fill: none;"/><path class="ylines-above crisp" d="M0,0" style="fill: none;"/><g class="overlines-above"/><g class="xaxislayer-above"><g class="xtick"><text text-anchor="middle" x="0" y="272" transform="translate(114.43,0)" style="font-family: 'Latin Modern Roman'; font-size: 12px; fill: rgb(0, 0, 0); fill-opacity: 1; white-space: pre;">10M</text></g><g class="xtick"><text text-anchor="middle" x="0" y="272" transform="translate(191.64,0)" style="font-family: 'Latin Modern Roman'; font-size: 12px; fill: rgb(0, 0, 0); fill-opacity: 1; white-space: pre;">20M</text></g><g class="xtick"><text text-anchor="middle" x="0" y="272" transform="translate(268.85,0)" style="font-family: 'Latin Modern Roman'; font-size: 12px; fill: rgb(0, 0, 0); fill-opacity: 1; white-space: pre;">30M</text></g><g class="xtick"><text text-anchor="middle" x="0" y="272" transform="translate(346.07,0)" style="font-family: 'Latin Modern Roman'; font-size: 12px; fill: rgb(0, 0, 0); fill-opacity: 1; white-space: pre;">40M</text></g><g class="xtick"><text text-anchor="middle" x="0" y="272" transform="translate(423.28,0)" style="font-family: 'Latin Modern Roman'; font-size: 12px; fill: rgb(0, 0, 0); fill-opacity: 1; white-space: pre;">50M</text></g></g><g class="yaxislayer-above"><g class="ytick"><text text-anchor="end" x="37" y="4.199999999999999" transform="translate(0,247.42)" style="font-family: 'Latin Modern Roman'; font-size: 12px; fill: rgb(0, 0, 0); fill-opacity: 1; white-space: pre;">0</text></g><g class="ytick"><text text-anchor="end" x="37" y="4.199999999999999" transform="translate(0,192.64)" style="font-family: 'Latin Modern Roman'; font-size: 12px; fill: rgb(0, 0, 0); fill-opacity: 1; white-space: pre;">10</text></g><g class="ytick"><text text-anchor="end" x="37" y="4.199999999999999" transform="translate(0,137.85)" style="font-family: 'Latin Modern Roman'; font-size: 12px; fill: rgb(0, 0, 0); fill-opacity: 1; white-space: pre;">20</text></g><g class="ytick"><text text-anchor="end" x="37" y="4.199999999999999" transform="translate(0,83.07)" style="font-family: 'Latin Modern Roman'; font-size: 12px; fill: rgb(0, 0, 0); fill-opacity: 1; white-space: pre;">30</text></g><g class="ytick"><text text-anchor="end" x="37" y="4.199999999999999" transform="translate(0,28.29)" style="font-family: 'Latin Modern Roman'; font-size: 12px; fill: rgb(0, 0, 0); fill-opacity: 1; white-space: pre;">40</text></g></g><g class="overaxes-above"/></g></g><g class="polarlayer"/><g class="ternarylayer"/><g class="geolayer"/><g class="funnelarealayer"/><g class="pielayer"/><g class="treemaplayer"/><g class="sunburstlayer"/><g class="glimages"/><defs id="topdefs-442d23"><g class="clips"/><clipPath id="legend442d23"><rect width="161" height="67" x="0" y="0"/></clipPath></defs><g class="layer-above"><g class="imagelayer"/><g class="shapelayer"/></g><g class="infolayer"><g class="legend" pointer-events="all" transform="translate(438.86,0)"><rect class="bg" shape-rendering="crispEdges" style="stroke: rgb(68, 68, 68); stroke-opacity: 1; fill: rgb(255, 255, 255); fill-opacity: 1; stroke-width: 0px;" width="161" height="67" x="0" y="0"/><g class="scrollbox" transform="" clip-path="url('#legend442d23')"><g class="groups"><g class="traces" transform="translate(0,14.5)" style="opacity: 1;"><text class="legendtext" text-anchor="start" x="40" y="4.680000000000001" style="font-family: 'Latin Modern Roman'; font-size: 12px; fill: rgb(0, 0, 0); fill-opacity: 1; white-space: pre;">Bayesian agg. (n=25)</text><g class="layers" style="opacity: 1;"><g class="legendfill"/><g class="legendlines"><path class="js-line" d="M5,0h30" style="fill: none; stroke: rgb(99, 110, 250); stroke-opacity: 1; stroke-width: 2px;"/></g><g class="legendsymbols"><g class="legendpoints"/></g></g><rect class="legendtoggle" x="0" y="-9.5" width="155.671875" height="19" style="fill: rgb(0, 0, 0); fill-opacity: 0;"/></g><g class="traces" transform="translate(0,33.5)" style="opacity: 1;"><text class="legendtext" text-anchor="start" x="40" y="4.680000000000001" style="font-family: 'Latin Modern Roman'; font-size: 12px; fill: rgb(0, 0, 0); fill-opacity: 1; white-space: pre;">Mean agg. (n=31)</text><g class="layers" style="opacity: 1;"><g class="legendfill"/><g class="legendlines"><path class="js-line" d="M5,0h30" style="fill: none; stroke: rgb(239, 85, 59); stroke-opacity: 1; stroke-width: 2px;"/></g><g class="legendsymbols"><g class="legendpoints"/></g></g><rect class="legendtoggle" x="0" y="-9.5" width="155.671875" height="19" style="fill: rgb(0, 0, 0); fill-opacity: 0;"/></g><g class="traces" transform="translate(0,52.5)" style="opacity: 1;"><text class="legendtext" text-anchor="start" x="40" y="4.680000000000001" style="font-family: 'Latin Modern Roman'; font-size: 12px; fill: rgb(0, 0, 0); fill-opacity: 1; white-space: pre;">Attentive agg. (n=14)</text><g class="layers" style="opacity: 1;"><g class="legendfill"/><g class="legendlines"><path class="js-line" d="M5,0h30" style="fill: none; stroke: rgb(0, 204, 150); stroke-opacity: 1; stroke-width: 2px;"/></g><g class="legendsymbols"><g class="legendpoints"/></g></g><rect class="legendtoggle" x="0" y="-9.5" width="155.671875" height="19" style="fill: rgb(0, 0, 0); fill-opacity: 0;"/></g></g></g><rect class="scrollbar" rx="20" ry="3" width="0" height="0" style="fill: rgb(128, 139, 164); fill-opacity: 1;" x="0" y="0"/></g><g class="g-gtitle"/><g class="g-xtitle" transform="translate(0,-3.8000000000000114)"><text class="xtitle" x="234.5" y="299.8" text-anchor="middle" style="font-family: 'Latin Modern Roman'; font-size: 14px; fill: rgb(0, 0, 0); opacity: 1; font-weight: normal; white-space: pre;">Agent Steps</text></g><g class="g-ytitle" transform="translate(15.8154296875,0)"><text class="ytitle" transform="rotate(-90,0.18437500000000284,129.5)" x="0.18437500000000284" y="129.5" text-anchor="middle" style="font-family: 'Latin Modern Roman'; font-size: 14px; fill: rgb(0, 0, 0); opacity: 1; font-weight: normal; white-space: pre;">Avg. Reward</text></g></g></svg>