<svg class="main-svg" xmlns="http://www.w3.org/2000/svg" xmlns:xlink="http://www.w3.org/1999/xlink" width="600" height="300" style="" viewBox="0 0 600 300"><rect x="0" y="0" width="600" height="300" style="fill: rgb(255, 255, 255); fill-opacity: 1;"/><defs id="defs-dc812c"><g class="clips"><clipPath id="clipdc812cxyplot" class="plotclip"><rect width="393" height="253"/></clipPath><clipPath class="axesclip" id="clipdc812cx"><rect x="38" y="0" width="393" height="300"/></clipPath><clipPath class="axesclip" id="clipdc812cy"><rect x="0" y="6" width="600" height="253"/></clipPath><clipPath class="axesclip" id="clipdc812cxy"><rect x="38" y="6" width="393" height="253"/></clipPath></g><g class="gradients"/></defs><g class="bglayer"><rect class="bg" x="38" y="6" width="393" height="253" style="fill: rgb(229, 236, 246); fill-opacity: 1; stroke-width: 0;"/></g><g class="layer-below"><g class="imagelayer"/><g class="shapelayer"/></g><g class="cartesianlayer"><g class="subplot xy"><g class="layer-subplot"><g class="shapelayer"/><g class="imagelayer"/></g><g class="gridlayer"><g class="x"><path class="xgrid crisp" transform="translate(115.11,0)" d="M0,6v253" style="stroke: rgb(255, 255, 255); stroke-opacity: 1; stroke-width: 1px;"/><path class="xgrid crisp" transform="translate(194.24,0)" d="M0,6v253" style="stroke: rgb(255, 255, 255); stroke-opacity: 1; stroke-width: 1px;"/><path class="xgrid crisp" transform="translate(273.37,0)" d="M0,6v253" style="stroke: rgb(255, 255, 255); stroke-opacity: 1; stroke-width: 1px;"/><path class="xgrid crisp" transform="translate(352.5,0)" d="M0,6v253" style="stroke: rgb(255, 255, 255); stroke-opacity: 1; stroke-width: 1px;"/></g><g class="y"><path class="ygrid crisp" transform="translate(0,146.67)" d="M38,0h393" style="stroke: rgb(255, 255, 255); stroke-opacity: 1; stroke-width: 1px;"/><path class="ygrid crisp" transform="translate(0,78.1)" d="M38,0h393" style="stroke: rgb(255, 255, 255); stroke-opacity: 1; stroke-width: 1px;"/><path class="ygrid crisp" transform="translate(0,9.53)" d="M38,0h393" style="stroke: rgb(255, 255, 255); stroke-opacity: 1; stroke-width: 1px;"/></g></g><g class="zerolinelayer"><path class="yzl zl crisp" transform="translate(0,215.23)" d="M38,0h393" style="stroke: rgb(255, 255, 255); stroke-opacity: 1; stroke-width: 2px;"/></g><path class="xlines-below"/><path class="ylines-below"/><g class="overlines-below"/><g class="xaxislayer-below"/><g class="yaxislayer-below"/><g class="overaxes-below"/><g class="plot" transform="translate(38,6)" clip-path="url('#clipdc812cxyplot')"><g class="scatterlayer mlayer"><g class="trace scatter trace76e747" style="stroke-miterlimit: 2; opacity: 1;"><g class="fills"/><g class="errorbars"/><g class="lines"><path class="js-line" d="M0,212.71L2.03,213.28L4.05,215.95L6.08,213.93L8.1,220.7L10.13,216.07L12.15,218.73L14.18,215.48L16.21,225.46L18.23,212.53L20.26,216.57L22.28,214.71L24.31,214.9L26.34,217.64L28.36,217.61L30.39,214.82L32.41,203.51L34.44,209.11L36.46,208.56L38.49,208.26L40.52,200.99L42.54,196.72L44.57,202.91L46.59,192.62L48.62,200.42L50.64,190.19L52.67,175.77L54.7,184.42L56.72,177.55L58.75,171.82L60.77,176.81L62.8,158.88L64.82,151.96L66.85,163.27L68.88,152.03L70.9,151.6L72.93,148.09L76.98,131.09L79.01,143.84L81.03,138.07L83.06,129.27L85.08,125.98L87.11,112.27L89.13,127.9L91.16,116.29L93.19,98.19L95.21,90.06L97.24,111.72L99.26,89.14L101.29,99.65L103.31,92.99L105.34,101.77L107.37,86.61L109.39,101.56L111.42,99.79L113.44,91.64L115.47,76.55L117.49,77.46L119.52,86.67L123.57,68.6L125.6,89.85L127.62,72.71L129.65,73.64L131.68,76.2L133.7,73.35L135.73,67.55L137.75,67.97L139.78,74.28L141.8,65.09L143.83,78.07L145.86,68.69L147.88,68.14L149.91,71.45L151.93,80.4L153.96,66.92L155.98,75.76L158.01,56.65L160.04,64.99L162.06,61.08L164.09,68.4L166.11,53.8L168.14,70.4L170.16,65.21L172.19,78.47L174.22,69.13L176.24,67.87L178.27,62.47L180.29,64.41L182.32,58.81L184.35,64.98L186.37,61.35L188.4,60.87L190.42,53.11L192.45,61.65L194.47,61.67L196.5,57.88L198.53,60.83L200.55,67.41L202.58,58.2L204.6,48.78L206.63,55.5L208.65,72.67L210.68,63.25L212.71,71.94L214.73,50.51L216.76,55.07L218.78,65.62L220.81,50.02L222.84,49.56L226.89,68.37L228.91,55.57L230.94,58.91L232.96,56.29L234.99,67.82L237.02,48.67L239.04,44.32L241.07,53.72L243.09,54.4L245.12,53.98L247.14,63.09L249.17,60.28L251.2,59.25L253.22,54.72L255.25,54.38L257.27,42.78L259.3,54.75L261.32,50.23L263.35,55.62L265.38,51.79L267.4,55.19L269.43,54.4L271.45,62.16L273.48,65.23L275.51,55.1L277.53,50.63L279.56,64.93L281.58,52.86L283.61,52.28L285.63,62.52L287.66,62.82L289.69,51.61L291.71,59.42L293.74,57.01L297.79,60.46L299.81,52.93L301.84,60.85L303.87,53.96L305.89,54.8L307.92,48.64L309.94,45.48L311.97,52.1L313.99,60.46L316.02,60.48L318.05,65.2L320.07,48.19L322.1,72.72L324.12,51.02L326.15,61.34L328.18,58.53L330.2,57.88L332.23,49.04L334.25,53.74L336.28,63.71L340.33,47.33L342.36,57.91L344.38,55.62L346.41,67.67L348.43,54.89L350.46,71.9L354.51,47.33L356.54,70.69L358.56,46.96L360.59,46.54L362.61,65.47L364.64,56.89L366.66,60.04L368.69,55.7L370.72,56.34L372.74,69.05L374.77,56.2L376.79,55.66L378.82,62.72L380.85,55.67L382.87,63.49L384.9,47.89L386.92,51.09L388.95,57.66L390.97,59.12L393,52.67" style="vector-effect: non-scaling-stroke; fill: none; stroke: rgb(99, 110, 250); stroke-opacity: 1; stroke-width: 2px; opacity: 1;"/></g><g class="points"/><g class="text"/></g><g class="trace scatter trace76ef38" style="stroke-miterlimit: 2; opacity: 1;"><g class="fills"><g><path class="js-fill" d="M0,209.8L4.05,211.32L6.08,210.56L8.1,215.84L10.13,211.03L12.15,216.44L14.18,213.2L16.21,212.86L18.23,208.39L20.26,210.09L22.28,208.54L24.31,209.47L26.34,206.97L28.36,211.11L30.39,207.86L32.41,194.81L34.44,199.81L36.46,197.02L38.49,196.82L40.52,194.58L42.54,189.03L44.57,171.07L46.59,160.92L48.62,157.45L50.64,159.97L52.67,151.36L54.7,129.14L56.72,117.07L58.75,121.39L60.77,101.34L62.8,106.52L64.82,102.15L66.85,110.22L68.88,86.41L70.9,82.21L72.93,87.95L74.95,75.47L79.01,91.21L81.03,79.72L83.06,78.58L85.08,69.27L87.11,68.11L89.13,61.8L93.19,79.7L95.21,69.96L97.24,60.99L99.26,61.54L101.29,67.28L103.31,65.8L105.34,69.92L107.37,64.62L109.39,61.62L111.42,74.61L115.47,44.37L117.49,53.42L119.52,55.54L121.55,63.56L123.57,60.25L125.6,52.05L127.62,52.49L129.65,55.08L131.68,49.37L133.7,53.74L135.73,53.1L137.75,57.42L139.78,64.27L141.8,40.5L143.83,50.75L145.86,52.85L147.88,55.24L149.91,55.78L151.93,47.87L153.96,53.59L155.98,52.12L158.01,46.03L160.04,41.8L162.06,50.17L166.11,40.08L168.14,50.63L170.16,53.89L172.19,50.03L174.22,49.96L176.24,53.96L178.27,48.67L180.29,34.9L182.32,52.76L184.35,57.02L186.37,40.06L188.4,50.96L190.42,46.2L192.45,46.73L194.47,51.38L196.5,36.68L198.53,38.63L200.55,50.34L202.58,38.87L204.6,40.61L208.65,65.44L210.68,31.76L212.71,55.97L214.73,40.58L216.76,45.69L218.78,48.31L222.84,32.2L224.86,47.85L226.89,38.56L228.91,40.18L230.94,46.63L232.96,34.3L234.99,42.15L237.02,36.71L239.04,37.14L241.07,44.54L243.09,34.3L245.12,29.76L247.14,53.35L249.17,26.47L251.2,42.14L253.22,37.46L257.27,38.52L259.3,45.04L261.32,34.47L263.35,38.66L265.38,32.83L267.4,31.15L269.43,33.46L271.45,40.67L275.51,42.49L277.53,18.17L279.56,49.63L281.58,33.78L283.61,39.16L285.63,37.88L287.66,47.98L289.69,37.69L291.71,30.89L293.74,35.23L295.76,22.77L297.79,42.27L301.84,27.41L303.87,30.93L305.89,35.65L307.92,38.39L309.94,34.5L311.97,38.77L313.99,35.6L316.02,25.89L318.05,41.66L320.07,40.12L322.1,46.7L324.12,29.51L326.15,36.71L328.18,26.69L330.2,33.39L332.23,35.63L334.25,36.98L336.28,43.67L340.33,36.51L342.36,37.06L344.38,36.53L346.41,26.73L348.43,38.96L350.46,23.69L352.48,35.22L354.51,38.56L356.54,46.38L358.56,30.68L360.59,29.23L362.61,36.66L364.64,45.38L366.66,28.12L368.69,35.84L370.72,24.31L372.74,36.27L374.77,42.65L378.82,44.42L380.85,36.24L382.87,48.36L384.9,33.21L388.95,28.66L390.97,32.68L393,42.32L393,84.79L390.97,79.28L388.95,90.09L386.92,76.9L384.9,72.03L382.87,78.49L380.85,74.41L378.82,85.89L376.79,85.48L374.77,74.13L372.74,79.28L370.72,85.43L368.69,82.75L366.66,98.54L364.64,72.66L362.61,92.38L360.59,88.71L358.56,81.07L356.54,102.53L354.51,87.62L352.48,89.05L350.46,96.9L348.43,77.71L346.41,90.54L344.38,76.66L340.33,82.06L338.3,92.58L336.28,78.2L334.25,86.93L332.23,74.85L330.2,93.97L328.18,97.65L326.15,86.73L324.12,86.58L322.1,89.39L320.07,86.4L318.05,93.93L316.02,76.13L313.99,72.34L311.97,85.57L309.94,89.66L307.92,77.6L305.89,112.36L301.84,79.33L299.81,71.92L297.79,93.54L295.76,106.88L293.74,96.32L291.71,92.95L289.69,108.71L287.66,88.79L283.61,86.85L281.58,84.36L279.56,78.01L277.53,86.6L275.51,79.39L273.48,90.59L271.45,98.31L269.43,88.09L267.4,87.49L265.38,82.89L263.35,83.65L261.32,77.72L259.3,77.61L257.27,78.5L255.25,92.99L253.22,85.65L251.2,97.5L249.17,92.19L247.14,71.11L245.12,90.88L243.09,85.69L241.07,87.96L239.04,88.05L237.02,81.15L234.99,83.73L232.96,83.35L230.94,88.38L228.91,83.61L226.89,86.18L224.86,78.04L222.84,72.43L220.81,79.89L218.78,79.33L216.76,90.2L214.73,91.75L212.71,96.91L208.65,86.4L206.63,86.51L204.6,91.24L202.58,102.88L200.55,103.64L198.53,99.39L194.47,87.77L192.45,98.02L190.42,98.25L188.4,76.42L186.37,81.83L184.35,79.16L182.32,77.97L180.29,102.92L178.27,82.92L176.24,91.79L174.22,87.08L172.19,95.43L170.16,103.53L168.14,88.9L166.11,99.68L164.09,94.02L162.06,91.29L160.04,91.95L158.01,98.5L155.98,92.79L153.96,86.68L151.93,96.7L149.91,86.45L147.88,87.53L145.86,81.93L143.83,89.12L141.8,95.07L139.78,103.33L137.75,90.77L135.73,92.23L133.7,83.84L131.68,90.64L129.65,105.56L127.62,110.87L125.6,109.01L123.57,102.52L121.55,111.79L119.52,108.72L117.49,106.22L115.47,106.22L113.44,107.02L111.42,114.97L109.39,130.54L107.37,116.7L105.34,124.45L103.31,106.01L101.29,140.46L99.26,119.47L95.21,141.2L93.19,145.6L91.16,139.96L89.13,144.71L87.11,160.09L85.08,154.42L83.06,164.47L81.03,157.15L79.01,170.35L76.98,166.46L74.95,178.51L72.93,180.6L70.9,184.84L68.88,178.41L66.85,183.8L64.82,199.87L62.8,196.14L60.77,205.95L58.75,202.51L56.72,196.67L54.7,205.39L52.67,203.55L48.62,211.65L46.59,200.37L44.57,213.63L42.54,206.66L40.52,206.09L38.49,213.15L36.46,218.57L34.44,218.24L32.41,212.04L30.39,222.94L28.36,224.86L26.34,236.38L24.31,222.1L22.28,228.98L20.26,221.33L18.23,233.01L16.21,228.83L14.18,217.74L12.15,224.74L10.13,221.2L8.1,225.46L6.08,225.05L4.05,227.31L2.03,216.04L0,214.83Z" style="fill: rgb(99, 110, 250); fill-opacity: 0.3; stroke-width: 0;"/></g></g><g class="errorbars"/><g class="lines"><path class="js-line" d="M0,209.8L4.05,211.32L6.08,210.56L8.1,215.84L10.13,211.03L12.15,216.44L14.18,213.2L16.21,212.86L18.23,208.39L20.26,210.09L22.28,208.54L24.31,209.47L26.34,206.97L28.36,211.11L30.39,207.86L32.41,194.81L34.44,199.81L36.46,197.02L38.49,196.82L40.52,194.58L42.54,189.03L44.57,171.07L46.59,160.92L48.62,157.45L50.64,159.97L52.67,151.36L54.7,129.14L56.72,117.07L58.75,121.39L60.77,101.34L62.8,106.52L64.82,102.15L66.85,110.22L68.88,86.41L70.9,82.21L72.93,87.95L74.95,75.47L79.01,91.21L81.03,79.72L83.06,78.58L85.08,69.27L87.11,68.11L89.13,61.8L93.19,79.7L95.21,69.96L97.24,60.99L99.26,61.54L101.29,67.28L103.31,65.8L105.34,69.92L107.37,64.62L109.39,61.62L111.42,74.61L115.47,44.37L117.49,53.42L119.52,55.54L121.55,63.56L123.57,60.25L125.6,52.05L127.62,52.49L129.65,55.08L131.68,49.37L133.7,53.74L135.73,53.1L137.75,57.42L139.78,64.27L141.8,40.5L143.83,50.75L145.86,52.85L147.88,55.24L149.91,55.78L151.93,47.87L153.96,53.59L155.98,52.12L158.01,46.03L160.04,41.8L162.06,50.17L166.11,40.08L168.14,50.63L170.16,53.89L172.19,50.03L174.22,49.96L176.24,53.96L178.27,48.67L180.29,34.9L182.32,52.76L184.35,57.02L186.37,40.06L188.4,50.96L190.42,46.2L192.45,46.73L194.47,51.38L196.5,36.68L198.53,38.63L200.55,50.34L202.58,38.87L204.6,40.61L208.65,65.44L210.68,31.76L212.71,55.97L214.73,40.58L216.76,45.69L218.78,48.31L222.84,32.2L224.86,47.85L226.89,38.56L228.91,40.18L230.94,46.63L232.96,34.3L234.99,42.15L237.02,36.71L239.04,37.14L241.07,44.54L243.09,34.3L245.12,29.76L247.14,53.35L249.17,26.47L251.2,42.14L253.22,37.46L257.27,38.52L259.3,45.04L261.32,34.47L263.35,38.66L265.38,32.83L267.4,31.15L269.43,33.46L271.45,40.67L275.51,42.49L277.53,18.17L279.56,49.63L281.58,33.78L283.61,39.16L285.63,37.88L287.66,47.98L289.69,37.69L291.71,30.89L293.74,35.23L295.76,22.77L297.79,42.27L301.84,27.41L303.87,30.93L305.89,35.65L307.92,38.39L309.94,34.5L311.97,38.77L313.99,35.6L316.02,25.89L318.05,41.66L320.07,40.12L322.1,46.7L324.12,29.51L326.15,36.71L328.18,26.69L330.2,33.39L332.23,35.63L334.25,36.98L336.28,43.67L340.33,36.51L342.36,37.06L344.38,36.53L346.41,26.73L348.43,38.96L350.46,23.69L352.48,35.22L354.51,38.56L356.54,46.38L358.56,30.68L360.59,29.23L362.61,36.66L364.64,45.38L366.66,28.12L368.69,35.84L370.72,24.31L372.74,36.27L374.77,42.65L378.82,44.42L380.85,36.24L382.87,48.36L384.9,33.21L388.95,28.66L390.97,32.68L393,42.32L393,84.79L390.97,79.28L388.95,90.09L386.92,76.9L384.9,72.03L382.87,78.49L380.85,74.41L378.82,85.89L376.79,85.48L374.77,74.13L372.74,79.28L370.72,85.43L368.69,82.75L366.66,98.54L364.64,72.66L362.61,92.38L360.59,88.71L358.56,81.07L356.54,102.53L354.51,87.62L352.48,89.05L350.46,96.9L348.43,77.71L346.41,90.54L344.38,76.66L340.33,82.06L338.3,92.58L336.28,78.2L334.25,86.93L332.23,74.85L330.2,93.97L328.18,97.65L326.15,86.73L324.12,86.58L322.1,89.39L320.07,86.4L318.05,93.93L316.02,76.13L313.99,72.34L311.97,85.57L309.94,89.66L307.92,77.6L305.89,112.36L301.84,79.33L299.81,71.92L297.79,93.54L295.76,106.88L293.74,96.32L291.71,92.95L289.69,108.71L287.66,88.79L283.61,86.85L281.58,84.36L279.56,78.01L277.53,86.6L275.51,79.39L273.48,90.59L271.45,98.31L269.43,88.09L267.4,87.49L265.38,82.89L263.35,83.65L261.32,77.72L259.3,77.61L257.27,78.5L255.25,92.99L253.22,85.65L251.2,97.5L249.17,92.19L247.14,71.11L245.12,90.88L243.09,85.69L241.07,87.96L239.04,88.05L237.02,81.15L234.99,83.73L232.96,83.35L230.94,88.38L228.91,83.61L226.89,86.18L224.86,78.04L222.84,72.43L220.81,79.89L218.78,79.33L216.76,90.2L214.73,91.75L212.71,96.91L208.65,86.4L206.63,86.51L204.6,91.24L202.58,102.88L200.55,103.64L198.53,99.39L194.47,87.77L192.45,98.02L190.42,98.25L188.4,76.42L186.37,81.83L184.35,79.16L182.32,77.97L180.29,102.92L178.27,82.92L176.24,91.79L174.22,87.08L172.19,95.43L170.16,103.53L168.14,88.9L166.11,99.68L164.09,94.02L162.06,91.29L160.04,91.95L158.01,98.5L155.98,92.79L153.96,86.68L151.93,96.7L149.91,86.45L147.88,87.53L145.86,81.93L143.83,89.12L141.8,95.07L139.78,103.33L137.75,90.77L135.73,92.23L133.7,83.84L131.68,90.64L129.65,105.56L127.62,110.87L125.6,109.01L123.57,102.52L121.55,111.79L119.52,108.72L117.49,106.22L115.47,106.22L113.44,107.02L111.42,114.97L109.39,130.54L107.37,116.7L105.34,124.45L103.31,106.01L101.29,140.46L99.26,119.47L95.21,141.2L93.19,145.6L91.16,139.96L89.13,144.71L87.11,160.09L85.08,154.42L83.06,164.47L81.03,157.15L79.01,170.35L76.98,166.46L74.95,178.51L72.93,180.6L70.9,184.84L68.88,178.41L66.85,183.8L64.82,199.87L62.8,196.14L60.77,205.95L58.75,202.51L56.72,196.67L54.7,205.39L52.67,203.55L48.62,211.65L46.59,200.37L44.57,213.63L42.54,206.66L40.52,206.09L38.49,213.15L36.46,218.57L34.44,218.24L32.41,212.04L30.39,222.94L28.36,224.86L26.34,236.38L24.31,222.1L22.28,228.98L20.26,221.33L18.23,233.01L16.21,228.83L14.18,217.74L12.15,224.74L10.13,221.2L8.1,225.46L6.08,225.05L4.05,227.31L2.03,216.04L0,214.83" style="vector-effect: non-scaling-stroke; fill: none; stroke: rgb(0, 0, 0); stroke-opacity: 0; stroke-width: 2px; opacity: 1;"/></g><g class="points"/><g class="text"/></g><g class="trace scatter trace3e240c" style="stroke-miterlimit: 2; opacity: 1;"><g class="fills"/><g class="errorbars"/><g class="lines"><path class="js-line" d="M0,211.9L2.03,212.63L4.05,212.3L8.1,213.83L10.13,216.41L16.21,215.76L18.23,213.62L20.26,216.64L22.28,222.39L24.31,215.1L26.34,220.52L28.36,215.05L30.39,215.55L32.41,210.17L34.44,216.37L36.46,211.62L38.49,213.28L40.52,216.54L42.54,213.28L44.57,213.13L46.59,212.12L48.62,211.21L50.64,202.01L52.67,196.11L54.7,196.55L56.72,205.55L58.75,200.41L60.77,191.26L62.8,202.9L64.82,200.38L66.85,190.45L68.88,186.27L70.9,193.99L72.93,194.86L74.95,177.11L76.98,165.81L79.01,177.14L81.03,165.77L83.06,170.95L85.08,155.55L87.11,151.21L89.13,152.67L91.16,156.27L93.19,158.31L95.21,140.79L97.24,110.5L99.26,126.4L101.29,106.02L103.31,115.96L107.37,102.78L109.39,111.14L111.42,91.53L113.44,101.49L115.47,84.91L117.49,90.82L119.52,91.7L121.55,98.98L123.57,96.76L125.6,85.19L127.62,69.09L129.65,84.86L131.68,78.5L133.7,84.53L135.73,86.04L137.75,80.13L139.78,82.9L141.8,65.14L143.83,78.94L145.86,79.77L147.88,69.97L149.91,82.46L151.93,87.51L153.96,78.96L155.98,78.64L158.01,68.05L160.04,70.95L162.06,80.7L164.09,81.12L166.11,73.83L168.14,80.91L170.16,67.09L174.22,93.22L176.24,95.19L180.29,86.14L182.32,69.17L184.35,58.67L186.37,73.84L188.4,70.02L190.42,80.24L192.45,71.28L194.47,77.75L196.5,86.93L198.53,76.28L200.55,64.97L202.58,68.97L204.6,73.34L206.63,58.81L208.65,59.32L210.68,67.46L212.71,85.58L214.73,74.28L216.76,55.95L218.78,63.71L220.81,70.3L222.84,51.61L224.86,67.27L226.89,58.21L228.91,63.92L230.94,58.9L232.96,47.21L234.99,58.12L237.02,65.69L239.04,57.99L241.07,54.37L243.09,70.1L245.12,55.39L247.14,61.55L249.17,62.29L251.2,60.51L253.22,67.35L255.25,61.5L257.27,69.98L259.3,55.49L261.32,55.2L263.35,71.17L265.38,71.03L267.4,63.32L269.43,52.6L271.45,63.99L273.48,65.58L275.51,54.32L277.53,70.58L279.56,63.45L281.58,51.31L283.61,59.35L285.63,65.25L287.66,60.01L289.69,47.3L291.71,48.43L293.74,45.08L295.76,62.49L297.79,53.52L299.81,60.6L301.84,57.98L303.87,44.82L305.89,66.9L307.92,54.84L311.97,55.96L313.99,53.14L316.02,50.05L318.05,69.1L320.07,55.19L322.1,61.09L324.12,56.8L326.15,55.41L328.18,59.05L330.2,54.02L332.23,61.86L334.25,60.43L336.28,56.26L338.3,58.27L340.33,47.18L342.36,61.6L344.38,45.86L346.41,66.41L348.43,50.23L350.46,42.87L352.48,55.67L354.51,49.83L356.54,49.75L358.56,55.77L360.59,56.56L362.61,54.35L364.64,42.89L366.66,59.31L368.69,47.74L370.72,54.34L372.74,63.81L374.77,57.45L376.79,56.69L378.82,50.9L380.85,61.01L382.87,52.87L384.9,55.04L386.92,58.6L388.95,42.33L390.97,55.61L393,52.25" style="vector-effect: non-scaling-stroke; fill: none; stroke: rgb(239, 85, 59); stroke-opacity: 1; stroke-width: 2px; opacity: 1;"/></g><g class="points"/><g class="text"/></g><g class="trace scatter tracee0fd6e" style="stroke-miterlimit: 2; opacity: 1;"><g class="fills"><g><path class="js-fill" d="M0,209.32L2.03,211.55L4.05,210.39L6.08,210.46L8.1,211.51L10.13,212.97L12.15,211.83L14.18,210.44L16.21,211.9L18.23,209.85L20.26,212.66L22.28,212.58L24.31,210.26L26.34,212.33L28.36,208.93L30.39,210.93L32.41,208.46L34.44,210.14L36.46,205.62L38.49,208.26L40.52,208.62L42.54,206L44.57,200.47L46.59,202.39L48.62,209.13L50.64,192.21L52.67,187.45L56.72,177.17L58.75,167.82L60.77,145.89L62.8,161.93L66.85,158.23L68.88,149.94L72.93,141.53L74.95,121.96L76.98,114.31L79.01,135.87L81.03,123.08L83.06,104.61L85.08,92.47L87.11,93.25L89.13,72.86L91.16,91.47L93.19,93.11L95.21,93.1L97.24,77.59L99.26,80.05L101.29,85.04L103.31,80.88L105.34,82.03L107.37,70.7L109.39,60.67L111.42,62.2L113.44,70.42L115.47,73.91L117.49,68.63L119.52,69.99L121.55,74.34L123.57,59.81L125.6,70.19L127.62,58.32L129.65,51.49L131.68,65.79L133.7,64.3L135.73,70.54L137.75,61.88L139.78,64.07L141.8,54.11L143.83,58.98L145.86,60.78L147.88,63.83L149.91,55.7L151.93,53.53L153.96,38.74L155.98,59.23L158.01,51.1L160.04,63.28L162.06,67.03L164.09,58.65L166.11,57.9L168.14,46L170.16,48.06L172.19,74.2L174.22,58.5L176.24,64.43L178.27,55.05L180.29,40.24L182.32,47.72L184.35,44.96L186.37,49.81L188.4,50.33L190.42,54.8L192.45,53.62L194.47,50.88L196.5,46.13L198.53,43.48L200.55,45.41L202.58,49.64L204.6,50.08L206.63,41.64L208.65,43.89L210.68,44.41L212.71,51.97L214.73,53.73L216.76,36.55L218.78,52.68L220.81,46.51L222.84,38.16L224.86,52.64L228.91,33.68L230.94,40.49L232.96,32.24L234.99,42.09L237.02,27.45L239.04,34.28L243.09,52.04L245.12,39.91L247.14,33.06L249.17,33.72L251.2,33.3L253.22,44.56L255.25,38.92L257.27,37.98L259.3,37.45L261.32,49.6L263.35,36.52L265.38,41.18L267.4,31.24L269.43,38.4L271.45,32.38L273.48,43.2L275.51,36.58L277.53,47.52L279.56,46.87L281.58,42.13L283.61,41.96L285.63,28.63L287.66,36.29L289.69,28.86L291.71,35.08L293.74,32.9L295.76,40.98L297.79,25.57L299.81,29.53L301.84,15.34L303.87,30.74L305.89,33.35L307.92,14.73L309.94,26.26L311.97,42.6L313.99,21.12L316.02,31.69L318.05,35.26L320.07,43.43L322.1,19.38L324.12,34.02L326.15,26.03L328.18,31.63L330.2,26.6L332.23,39.29L334.25,33.65L336.28,33.86L338.3,40.37L340.33,33.8L342.36,38L344.38,37.83L346.41,25.46L348.43,15.61L350.46,22.05L352.48,22.39L354.51,31.17L356.54,15.18L358.56,24.45L360.59,46.58L362.61,29.38L364.64,14.83L366.66,19.82L368.69,26.68L370.72,37.22L372.74,28.43L374.77,12.65L376.79,18.42L378.82,29.3L380.85,28.99L382.87,31.35L384.9,31.18L386.92,20.6L388.95,16.67L390.97,29.62L393,33.55L393,91.9L390.97,93.77L388.95,91.62L386.92,86.06L384.9,107.3L382.87,110.87L380.85,89.88L378.82,96.4L376.79,90.34L374.77,97.12L372.74,98.05L370.72,103L368.69,94.57L366.66,100.08L364.64,113.53L362.61,99.65L360.59,95.08L358.56,89.5L356.54,99.65L354.51,89.32L352.48,99.98L350.46,97L348.43,109.03L346.41,88.25L344.38,91.65L342.36,92.05L340.33,84.3L338.3,82.55L336.28,107.2L332.23,102.77L330.2,91.79L328.18,91.87L326.15,97.01L324.12,92.57L322.1,98.05L318.05,91.33L316.02,93.33L313.99,98.75L311.97,98.23L309.94,88.21L307.92,87.15L305.89,104.77L303.87,90.25L301.84,94.8L299.81,105.8L297.79,91.42L295.76,105.16L293.74,103.69L291.71,107.2L289.69,106.96L287.66,93.45L285.63,93.03L283.61,97.56L281.58,88.41L279.56,95.15L277.53,113.52L275.51,103.67L273.48,91.47L271.45,85.17L269.43,94.83L267.4,100.18L265.38,106.61L263.35,105.06L261.32,103.81L259.3,98.48L257.27,92.98L255.25,114.7L253.22,100.66L251.2,107.72L249.17,102.74L247.14,99.85L245.12,91.77L243.09,92.97L237.02,97.03L234.99,118.76L232.96,115.51L230.94,108.81L228.91,97.83L226.89,96.81L224.86,106.24L222.84,100.91L220.81,92.27L218.78,110.45L216.76,111.96L214.73,97.26L212.71,115.23L210.68,103.76L208.65,111.13L206.63,108.89L204.6,120.54L202.58,112.94L200.55,101.51L198.53,113.93L196.5,109.52L194.47,101.36L192.45,98.66L190.42,113.83L188.4,128.68L186.37,120.3L184.35,127.69L182.32,96.97L180.29,133.85L178.27,118.64L176.24,114.23L174.22,119.17L172.19,111.89L170.16,114.9L168.14,135.9L166.11,112.33L164.09,128.2L162.06,106.92L160.04,117.18L158.01,121.44L155.98,113.07L153.96,142.19L151.93,132.34L149.91,129.96L147.88,128.79L145.86,142.14L141.8,133.24L139.78,139.84L135.73,163.55L133.7,162.34L131.68,159.88L129.65,153.89L127.62,145.5L125.6,148.29L123.57,177.23L121.55,187.41L119.52,168.4L117.49,167.35L113.44,181.69L111.42,186.78L109.39,169.32L107.37,186.48L103.31,192.3L101.29,192.07L99.26,197.7L97.24,185.42L95.21,189.16L93.19,198.84L91.16,195.06L89.13,196.28L87.11,196.47L85.08,204.85L83.06,200.75L81.03,206.02L79.01,199.75L76.98,202.65L74.95,206.17L72.93,204.77L70.9,211.36L68.88,204.5L66.85,208.21L64.82,204.87L62.8,209.97L60.77,210.83L54.7,210.55L52.67,205.73L50.64,208.51L48.62,214.7L44.57,224.91L42.54,218.15L40.52,225.87L38.49,223.06L36.46,219.26L34.44,224.09L32.41,218.66L30.39,226.12L28.36,219.29L26.34,235.78L24.31,240.35L22.28,232.68L20.26,223.91L18.23,232.71L16.21,230.65L14.18,221.4L12.15,226.68L10.13,223.1L8.1,216.33L6.08,219.85L4.05,216.93L2.03,216.57L0,216.67Z" style="fill: rgb(239, 85, 59); fill-opacity: 0.3; stroke-width: 0;"/></g></g><g class="errorbars"/><g class="lines"><path class="js-line" d="M0,209.32L2.03,211.55L4.05,210.39L6.08,210.46L8.1,211.51L10.13,212.97L12.15,211.83L14.18,210.44L16.21,211.9L18.23,209.85L20.26,212.66L22.28,212.58L24.31,210.26L26.34,212.33L28.36,208.93L30.39,210.93L32.41,208.46L34.44,210.14L36.46,205.62L38.49,208.26L40.52,208.62L42.54,206L44.57,200.47L46.59,202.39L48.62,209.13L50.64,192.21L52.67,187.45L56.72,177.17L58.75,167.82L60.77,145.89L62.8,161.93L66.85,158.23L68.88,149.94L72.93,141.53L74.95,121.96L76.98,114.31L79.01,135.87L81.03,123.08L83.06,104.61L85.08,92.47L87.11,93.25L89.13,72.86L91.16,91.47L93.19,93.11L95.21,93.1L97.24,77.59L99.26,80.05L101.29,85.04L103.31,80.88L105.34,82.03L107.37,70.7L109.39,60.67L111.42,62.2L113.44,70.42L115.47,73.91L117.49,68.63L119.52,69.99L121.55,74.34L123.57,59.81L125.6,70.19L127.62,58.32L129.65,51.49L131.68,65.79L133.7,64.3L135.73,70.54L137.75,61.88L139.78,64.07L141.8,54.11L143.83,58.98L145.86,60.78L147.88,63.83L149.91,55.7L151.93,53.53L153.96,38.74L155.98,59.23L158.01,51.1L160.04,63.28L162.06,67.03L164.09,58.65L166.11,57.9L168.14,46L170.16,48.06L172.19,74.2L174.22,58.5L176.24,64.43L178.27,55.05L180.29,40.24L182.32,47.72L184.35,44.96L186.37,49.81L188.4,50.33L190.42,54.8L192.45,53.62L194.47,50.88L196.5,46.13L198.53,43.48L200.55,45.41L202.58,49.64L204.6,50.08L206.63,41.64L208.65,43.89L210.68,44.41L212.71,51.97L214.73,53.73L216.76,36.55L218.78,52.68L220.81,46.51L222.84,38.16L224.86,52.64L228.91,33.68L230.94,40.49L232.96,32.24L234.99,42.09L237.02,27.45L239.04,34.28L243.09,52.04L245.12,39.91L247.14,33.06L249.17,33.72L251.2,33.3L253.22,44.56L255.25,38.92L257.27,37.98L259.3,37.45L261.32,49.6L263.35,36.52L265.38,41.18L267.4,31.24L269.43,38.4L271.45,32.38L273.48,43.2L275.51,36.58L277.53,47.52L279.56,46.87L281.58,42.13L283.61,41.96L285.63,28.63L287.66,36.29L289.69,28.86L291.71,35.08L293.74,32.9L295.76,40.98L297.79,25.57L299.81,29.53L301.84,15.34L303.87,30.74L305.89,33.35L307.92,14.73L309.94,26.26L311.97,42.6L313.99,21.12L316.02,31.69L318.05,35.26L320.07,43.43L322.1,19.38L324.12,34.02L326.15,26.03L328.18,31.63L330.2,26.6L332.23,39.29L334.25,33.65L336.28,33.86L338.3,40.37L340.33,33.8L342.36,38L344.38,37.83L346.41,25.46L348.43,15.61L350.46,22.05L352.48,22.39L354.51,31.17L356.54,15.18L358.56,24.45L360.59,46.58L362.61,29.38L364.64,14.83L366.66,19.82L368.69,26.68L370.72,37.22L372.74,28.43L374.77,12.65L376.79,18.42L378.82,29.3L380.85,28.99L382.87,31.35L384.9,31.18L386.92,20.6L388.95,16.67L390.97,29.62L393,33.55L393,91.9L390.97,93.77L388.95,91.62L386.92,86.06L384.9,107.3L382.87,110.87L380.85,89.88L378.82,96.4L376.79,90.34L374.77,97.12L372.74,98.05L370.72,103L368.69,94.57L366.66,100.08L364.64,113.53L362.61,99.65L360.59,95.08L358.56,89.5L356.54,99.65L354.51,89.32L352.48,99.98L350.46,97L348.43,109.03L346.41,88.25L344.38,91.65L342.36,92.05L340.33,84.3L338.3,82.55L336.28,107.2L332.23,102.77L330.2,91.79L328.18,91.87L326.15,97.01L324.12,92.57L322.1,98.05L318.05,91.33L316.02,93.33L313.99,98.75L311.97,98.23L309.94,88.21L307.92,87.15L305.89,104.77L303.87,90.25L301.84,94.8L299.81,105.8L297.79,91.42L295.76,105.16L293.74,103.69L291.71,107.2L289.69,106.96L287.66,93.45L285.63,93.03L283.61,97.56L281.58,88.41L279.56,95.15L277.53,113.52L275.51,103.67L273.48,91.47L271.45,85.17L269.43,94.83L267.4,100.18L265.38,106.61L263.35,105.06L261.32,103.81L259.3,98.48L257.27,92.98L255.25,114.7L253.22,100.66L251.2,107.72L249.17,102.74L247.14,99.85L245.12,91.77L243.09,92.97L237.02,97.03L234.99,118.76L232.96,115.51L230.94,108.81L228.91,97.83L226.89,96.81L224.86,106.24L222.84,100.91L220.81,92.27L218.78,110.45L216.76,111.96L214.73,97.26L212.71,115.23L210.68,103.76L208.65,111.13L206.63,108.89L204.6,120.54L202.58,112.94L200.55,101.51L198.53,113.93L196.5,109.52L194.47,101.36L192.45,98.66L190.42,113.83L188.4,128.68L186.37,120.3L184.35,127.69L182.32,96.97L180.29,133.85L178.27,118.64L176.24,114.23L174.22,119.17L172.19,111.89L170.16,114.9L168.14,135.9L166.11,112.33L164.09,128.2L162.06,106.92L160.04,117.18L158.01,121.44L155.98,113.07L153.96,142.19L151.93,132.34L149.91,129.96L147.88,128.79L145.86,142.14L141.8,133.24L139.78,139.84L135.73,163.55L133.7,162.34L131.68,159.88L129.65,153.89L127.62,145.5L125.6,148.29L123.57,177.23L121.55,187.41L119.52,168.4L117.49,167.35L113.44,181.69L111.42,186.78L109.39,169.32L107.37,186.48L103.31,192.3L101.29,192.07L99.26,197.7L97.24,185.42L95.21,189.16L93.19,198.84L91.16,195.06L89.13,196.28L87.11,196.47L85.08,204.85L83.06,200.75L81.03,206.02L79.01,199.75L76.98,202.65L74.95,206.17L72.93,204.77L70.9,211.36L68.88,204.5L66.85,208.21L64.82,204.87L62.8,209.97L60.77,210.83L54.7,210.55L52.67,205.73L50.64,208.51L48.62,214.7L44.57,224.91L42.54,218.15L40.52,225.87L38.49,223.06L36.46,219.26L34.44,224.09L32.41,218.66L30.39,226.12L28.36,219.29L26.34,235.78L24.31,240.35L22.28,232.68L20.26,223.91L18.23,232.71L16.21,230.65L14.18,221.4L12.15,226.68L10.13,223.1L8.1,216.33L6.08,219.85L4.05,216.93L2.03,216.57L0,216.67" style="vector-effect: non-scaling-stroke; fill: none; stroke: rgb(0, 0, 0); stroke-opacity: 0; stroke-width: 2px; opacity: 1;"/></g><g class="points"/><g class="text"/></g><g class="trace scatter tracea406dc" style="stroke-miterlimit: 2; opacity: 1;"><g class="fills"/><g class="errorbars"/><g class="lines"><path class="js-line" d="M0,215.49L2.03,213.68L4.05,219.7L6.08,219.88L8.1,211.83L10.13,214.9L12.15,212.78L14.18,211.56L16.21,209.39L18.23,206.52L20.26,199.04L22.28,202.9L24.31,201.36L26.34,205.95L28.36,191.2L30.39,195.17L32.41,182.17L34.44,187.82L36.46,185.8L38.49,177.07L40.52,181.37L42.54,166.55L44.57,174.67L46.59,162.93L48.62,171.17L50.64,152.42L52.67,156.12L54.7,161.81L56.72,174.33L58.75,160.59L60.77,152.5L62.8,144.35L64.82,155.07L66.85,145.34L68.88,141.43L70.9,128.22L72.93,149.99L79.01,117.13L81.03,122.95L83.06,125.97L85.08,140.97L87.11,124.66L89.13,124.38L93.19,109.3L95.21,118.02L97.24,124.79L99.26,122.33L101.29,128.1L103.31,99.59L105.34,123.41L107.37,106.82L109.39,107.34L111.42,112.64L113.44,117.26L115.47,99.36L119.52,111.93L121.55,96.27L123.57,111.18L125.6,110.78L127.62,99.11L129.65,92.08L131.68,101.65L133.7,99.46L135.73,111.86L137.75,113.28L139.78,108.63L141.8,100.4L143.83,89.22L145.86,101.08L147.88,96.65L149.91,97.33L151.93,92.09L153.96,101.23L155.98,95.59L158.01,96.58L160.04,105.53L162.06,102.09L164.09,91.42L166.11,100.58L168.14,99.82L170.16,101.25L172.19,93.28L174.22,102.03L176.24,96.28L178.27,94.42L180.29,91.7L182.32,83.8L184.35,82.92L186.37,92.34L188.4,94.76L190.42,92.88L192.45,101.91L194.47,88.79L196.5,83.57L198.53,97.13L200.55,99.59L202.58,91.86L204.6,100.99L206.63,93.04L208.65,89.28L210.68,96.1L212.71,87.88L214.73,84.72L216.76,93.89L218.78,93.46L220.81,90.57L222.84,100.57L224.86,93.02L226.89,71.01L228.91,101.44L230.94,87.32L232.96,95.62L234.99,90.98L237.02,101.14L239.04,87.41L241.07,81.94L243.09,89.27L245.12,95.96L247.14,83.46L249.17,84.83L251.2,75.11L253.22,86.04L255.25,85.65L257.27,94.08L259.3,88.18L261.32,82.02L263.35,80.37L267.4,97.19L269.43,73.55L271.45,82.3L273.48,77.37L275.51,88.23L277.53,79.72L279.56,88.12L281.58,73.38L283.61,84.35L285.63,67.61L287.66,99.6L289.69,91.48L291.71,81.65L293.74,85.41L295.76,91.41L297.79,78.77L299.81,76.78L301.84,83.99L303.87,80.87L305.89,87.84L307.92,78.91L309.94,89.66L311.97,88.43L313.99,70.89L318.05,78.47L320.07,91.52L326.15,71.73L328.18,76L332.23,70.89L334.25,86.92L336.28,82.84L338.3,70.48L340.33,103.12L342.36,79.18L346.41,72.01L348.43,88.13L350.46,77.88L352.48,72.33L354.51,77.95L356.54,75.4L358.56,79.24L360.59,79.28L362.61,96.81L364.64,62.83L366.66,71.44L368.69,85.15L372.74,63.67L374.77,86.6L376.79,69.3L378.82,78.15L380.85,86.06L382.87,76.16L384.9,85.68L386.92,90.98L388.95,80.72L390.97,81.57L393,87.81" style="vector-effect: non-scaling-stroke; fill: none; stroke: rgb(0, 204, 150); stroke-opacity: 1; stroke-width: 2px; opacity: 1;"/></g><g class="points"/><g class="text"/></g><g class="trace scatter trace7a7344" style="stroke-miterlimit: 2; opacity: 1;"><g class="fills"><g><path class="js-fill" d="M0,211.32L2.03,207.52L4.05,210.35L6.08,211.7L8.1,204.35L10.13,211.48L12.15,205.02L14.18,209.02L16.21,202.03L18.23,199.11L20.26,192.23L22.28,182.34L24.31,198.49L26.34,183.84L28.36,187.08L30.39,185.27L32.41,164.81L34.44,173.28L36.46,149.99L38.49,155.04L40.52,151.42L42.54,155.85L44.57,153.02L46.59,151.05L48.62,138.24L50.64,121.88L52.67,121.12L54.7,130.7L56.72,128.38L58.75,126.42L60.77,129.48L62.8,140.21L64.82,115.92L66.85,117.07L68.88,115.87L70.9,112.83L72.93,116.63L74.95,115.88L76.98,98.69L79.01,100.71L81.03,105.59L83.06,97.01L85.08,109.12L89.13,99.26L91.16,90.42L93.19,93.81L95.21,102.41L97.24,107.4L99.26,82.96L101.29,101.46L103.31,83.26L105.34,87.11L107.37,95.65L109.39,88.99L111.42,90.38L113.44,95.65L115.47,84.21L117.49,94.12L119.52,88.66L121.55,80.33L123.57,97.57L125.6,86.44L127.62,80.41L131.68,71.28L133.7,78.88L135.73,83.42L137.75,89.79L139.78,72.28L141.8,69.76L143.83,80.69L145.86,77.86L147.88,84.14L149.91,67.39L155.98,75.33L158.01,80.19L160.04,71.34L162.06,87.03L164.09,70.42L166.11,78.51L168.14,76.01L170.16,66.34L172.19,71.14L174.22,67.55L176.24,71.47L178.27,70.23L180.29,74.97L182.32,71.77L184.35,67.88L186.37,76.02L188.4,63.15L190.42,70.51L192.45,72.42L194.47,72.23L196.5,72L198.53,80.47L200.55,69.93L202.58,80.22L204.6,72.86L206.63,69.72L208.65,74.81L210.68,73.26L214.73,57.48L216.76,81.32L218.78,57.95L220.81,50.6L224.86,70.24L226.89,46.7L228.91,75.4L230.94,69.96L232.96,83.2L234.99,66.24L237.02,67.97L239.04,61.97L241.07,66.54L243.09,64.87L245.12,59.78L247.14,68.92L249.17,73.37L251.2,65.75L253.22,69.72L255.25,62.33L257.27,75.22L259.3,59.82L261.32,65.95L263.35,58.21L265.38,57.86L267.4,75.02L269.43,65.9L271.45,71.88L273.48,68.39L275.51,69.33L279.56,51.68L281.58,65.08L285.63,54.86L287.66,68.55L289.69,69.82L291.71,72.48L293.74,63.77L295.76,62.62L297.79,61.39L299.81,65.08L301.84,71.67L303.87,64.15L305.89,73.24L307.92,66.58L309.94,62.23L311.97,63.69L313.99,54.79L316.02,69.7L318.05,61L320.07,72.89L322.1,70.01L324.12,55.33L326.15,64.99L328.18,58.71L330.2,59.59L332.23,65.78L334.25,72.26L336.28,60.57L338.3,45.15L340.33,69.45L342.36,52.26L344.38,65.44L346.41,59.58L348.43,69.56L350.46,64.7L352.48,67.77L354.51,55.86L356.54,49.75L358.56,61.83L360.59,58.47L362.61,62.37L364.64,49.58L366.66,48.52L368.69,60.02L370.72,61.81L372.74,49.67L374.77,77.6L376.79,59.89L378.82,67.88L380.85,68.98L382.87,59.65L384.9,58.94L386.92,65.9L388.95,61.17L390.97,58.52L393,59.18L393,107L390.97,90L388.95,111.13L386.92,102.64L384.9,99.56L382.87,118.21L380.85,111.21L378.82,115.76L376.79,98.62L374.77,92L372.74,79.37L370.72,99.93L368.69,110.8L366.66,99.7L364.64,83.17L362.61,116.32L360.59,99.7L358.56,98.61L356.54,138.23L354.51,97.2L352.48,106.66L350.46,108.99L348.43,108.17L346.41,104.09L344.38,103.66L342.36,91.59L340.33,117.96L338.3,115.46L336.28,93.48L334.25,91.02L332.23,92.58L330.2,110.87L328.18,108.21L326.15,122.68L324.12,118.46L322.1,95.39L320.07,122.16L318.05,123.82L316.02,100.42L313.99,106.22L311.97,120.67L309.94,105.62L307.92,98.02L305.89,123.07L303.87,121.6L301.84,105.51L299.81,124.1L297.79,98.14L293.74,109.21L291.71,93.65L289.69,121.78L287.66,124.91L285.63,111.48L283.61,106.53L281.58,101.06L279.56,119.08L277.53,131.01L275.51,92.47L271.45,99.81L269.43,113.67L267.4,120.62L265.38,121.1L263.35,107.53L261.32,105.27L259.3,118.19L257.27,103.36L255.25,98.16L253.22,120.36L251.2,96.7L249.17,108.38L247.14,108.02L245.12,118.49L243.09,108.28L241.07,109.48L239.04,107.15L237.02,111.66L234.99,118.62L232.96,114.48L230.94,105.43L228.91,121.95L226.89,98.19L224.86,108.3L222.84,107.94L220.81,129.41L218.78,113.27L216.76,122.62L214.73,115.45L212.71,104.8L210.68,113L208.65,127.06L206.63,107.17L204.6,114.96L202.58,107.01L200.55,115.96L198.53,117.11L196.5,123.06L194.47,122.98L192.45,126.97L190.42,111.52L188.4,136.6L186.37,123.75L184.35,125.15L182.32,113.23L180.29,139.67L178.27,117.17L176.24,126.93L174.22,112.58L172.19,109.99L170.16,132.55L168.14,117.7L166.11,120.77L164.09,113.59L162.06,123.86L160.04,122.21L158.01,124.14L155.98,130.28L153.96,121.56L151.93,117.66L149.91,119.5L147.88,137.88L145.86,120.02L143.83,130.7L141.8,132.57L139.78,129.52L137.75,129.09L135.73,124.34L133.7,114.51L131.68,119.65L129.65,130.29L127.62,129.67L125.6,136.77L123.57,126.83L121.55,122.61L119.52,129.67L117.49,128.7L115.47,123.99L113.44,143.09L111.42,131.64L109.39,131.26L107.37,133.58L105.34,134.49L103.31,125.15L101.29,150.18L99.26,144.88L97.24,148.65L95.21,138.97L93.19,154.11L91.16,135.18L89.13,139.56L87.11,156.18L85.08,151.7L83.06,153.08L81.03,151.1L79.01,145.79L76.98,171.49L74.95,154.72L72.93,188.46L70.9,154L68.88,164.89L66.85,163.99L64.82,175.41L62.8,155.2L60.77,184.51L58.75,181.44L56.72,183.37L54.7,171.2L52.67,174.61L50.64,171L46.59,197.22L44.57,186.63L42.54,198.7L40.52,201.1L38.49,201.66L36.46,198.11L34.44,205.97L32.41,205.4L30.39,207.42L28.36,206.69L26.34,211.9L24.31,205.84L22.28,218.13L20.26,215.41L18.23,212.84L16.21,214.99L14.18,228.51L12.15,225.64L10.13,227.38L8.1,223.31L6.08,225.89L4.05,236.92L2.03,223.05L0,217.25Z" style="fill: rgb(0, 204, 150); fill-opacity: 0.3; stroke-width: 0;"/></g></g><g class="errorbars"/><g class="lines"><path class="js-line" d="M0,211.32L2.03,207.52L4.05,210.35L6.08,211.7L8.1,204.35L10.13,211.48L12.15,205.02L14.18,209.02L16.21,202.03L18.23,199.11L20.26,192.23L22.28,182.34L24.31,198.49L26.34,183.84L28.36,187.08L30.39,185.27L32.41,164.81L34.44,173.28L36.46,149.99L38.49,155.04L40.52,151.42L42.54,155.85L44.57,153.02L46.59,151.05L48.62,138.24L50.64,121.88L52.67,121.12L54.7,130.7L56.72,128.38L58.75,126.42L60.77,129.48L62.8,140.21L64.82,115.92L66.85,117.07L68.88,115.87L70.9,112.83L72.93,116.63L74.95,115.88L76.98,98.69L79.01,100.71L81.03,105.59L83.06,97.01L85.08,109.12L89.13,99.26L91.16,90.42L93.19,93.81L95.21,102.41L97.24,107.4L99.26,82.96L101.29,101.46L103.31,83.26L105.34,87.11L107.37,95.65L109.39,88.99L111.42,90.38L113.44,95.65L115.47,84.21L117.49,94.12L119.52,88.66L121.55,80.33L123.57,97.57L125.6,86.44L127.62,80.41L131.68,71.28L133.7,78.88L135.73,83.42L137.75,89.79L139.78,72.28L141.8,69.76L143.83,80.69L145.86,77.86L147.88,84.14L149.91,67.39L155.98,75.33L158.01,80.19L160.04,71.34L162.06,87.03L164.09,70.42L166.11,78.51L168.14,76.01L170.16,66.34L172.19,71.14L174.22,67.55L176.24,71.47L178.27,70.23L180.29,74.97L182.32,71.77L184.35,67.88L186.37,76.02L188.4,63.15L190.42,70.51L192.45,72.42L194.47,72.23L196.5,72L198.53,80.47L200.55,69.93L202.58,80.22L204.6,72.86L206.63,69.72L208.65,74.81L210.68,73.26L214.73,57.48L216.76,81.32L218.78,57.95L220.81,50.6L224.86,70.24L226.89,46.7L228.91,75.4L230.94,69.96L232.96,83.2L234.99,66.24L237.02,67.97L239.04,61.97L241.07,66.54L243.09,64.87L245.12,59.78L247.14,68.92L249.17,73.37L251.2,65.75L253.22,69.72L255.25,62.33L257.27,75.22L259.3,59.82L261.32,65.95L263.35,58.21L265.38,57.86L267.4,75.02L269.43,65.9L271.45,71.88L273.48,68.39L275.51,69.33L279.56,51.68L281.58,65.08L285.63,54.86L287.66,68.55L289.69,69.82L291.71,72.48L293.74,63.77L295.76,62.62L297.79,61.39L299.81,65.08L301.84,71.67L303.87,64.15L305.89,73.24L307.92,66.58L309.94,62.23L311.97,63.69L313.99,54.79L316.02,69.7L318.05,61L320.07,72.89L322.1,70.01L324.12,55.33L326.15,64.99L328.18,58.71L330.2,59.59L332.23,65.78L334.25,72.26L336.28,60.57L338.3,45.15L340.33,69.45L342.36,52.26L344.38,65.44L346.41,59.58L348.43,69.56L350.46,64.7L352.48,67.77L354.51,55.86L356.54,49.75L358.56,61.83L360.59,58.47L362.61,62.37L364.64,49.58L366.66,48.52L368.69,60.02L370.72,61.81L372.74,49.67L374.77,77.6L376.79,59.89L378.82,67.88L380.85,68.98L382.87,59.65L384.9,58.94L386.92,65.9L388.95,61.17L390.97,58.52L393,59.18L393,107L390.97,90L388.95,111.13L386.92,102.64L384.9,99.56L382.87,118.21L380.85,111.21L378.82,115.76L376.79,98.62L374.77,92L372.74,79.37L370.72,99.93L368.69,110.8L366.66,99.7L364.64,83.17L362.61,116.32L360.59,99.7L358.56,98.61L356.54,138.23L354.51,97.2L352.48,106.66L350.46,108.99L348.43,108.17L346.41,104.09L344.38,103.66L342.36,91.59L340.33,117.96L338.3,115.46L336.28,93.48L334.25,91.02L332.23,92.58L330.2,110.87L328.18,108.21L326.15,122.68L324.12,118.46L322.1,95.39L320.07,122.16L318.05,123.82L316.02,100.42L313.99,106.22L311.97,120.67L309.94,105.62L307.92,98.02L305.89,123.07L303.87,121.6L301.84,105.51L299.81,124.1L297.79,98.14L293.74,109.21L291.71,93.65L289.69,121.78L287.66,124.91L285.63,111.48L283.61,106.53L281.58,101.06L279.56,119.08L277.53,131.01L275.51,92.47L271.45,99.81L269.43,113.67L267.4,120.62L265.38,121.1L263.35,107.53L261.32,105.27L259.3,118.19L257.27,103.36L255.25,98.16L253.22,120.36L251.2,96.7L249.17,108.38L247.14,108.02L245.12,118.49L243.09,108.28L241.07,109.48L239.04,107.15L237.02,111.66L234.99,118.62L232.96,114.48L230.94,105.43L228.91,121.95L226.89,98.19L224.86,108.3L222.84,107.94L220.81,129.41L218.78,113.27L216.76,122.62L214.73,115.45L212.71,104.8L210.68,113L208.65,127.06L206.63,107.17L204.6,114.96L202.58,107.01L200.55,115.96L198.53,117.11L196.5,123.06L194.47,122.98L192.45,126.97L190.42,111.52L188.4,136.6L186.37,123.75L184.35,125.15L182.32,113.23L180.29,139.67L178.27,117.17L176.24,126.93L174.22,112.58L172.19,109.99L170.16,132.55L168.14,117.7L166.11,120.77L164.09,113.59L162.06,123.86L160.04,122.21L158.01,124.14L155.98,130.28L153.96,121.56L151.93,117.66L149.91,119.5L147.88,137.88L145.86,120.02L143.83,130.7L141.8,132.57L139.78,129.52L137.75,129.09L135.73,124.34L133.7,114.51L131.68,119.65L129.65,130.29L127.62,129.67L125.6,136.77L123.57,126.83L121.55,122.61L119.52,129.67L117.49,128.7L115.47,123.99L113.44,143.09L111.42,131.64L109.39,131.26L107.37,133.58L105.34,134.49L103.31,125.15L101.29,150.18L99.26,144.88L97.24,148.65L95.21,138.97L93.19,154.11L91.16,135.18L89.13,139.56L87.11,156.18L85.08,151.7L83.06,153.08L81.03,151.1L79.01,145.79L76.98,171.49L74.95,154.72L72.93,188.46L70.9,154L68.88,164.89L66.85,163.99L64.82,175.41L62.8,155.2L60.77,184.51L58.75,181.44L56.72,183.37L54.7,171.2L52.67,174.61L50.64,171L46.59,197.22L44.57,186.63L42.54,198.7L40.52,201.1L38.49,201.66L36.46,198.11L34.44,205.97L32.41,205.4L30.39,207.42L28.36,206.69L26.34,211.9L24.31,205.84L22.28,218.13L20.26,215.41L18.23,212.84L16.21,214.99L14.18,228.51L12.15,225.64L10.13,227.38L8.1,223.31L6.08,225.89L4.05,236.92L2.03,223.05L0,217.25" style="vector-effect: non-scaling-stroke; fill: none; stroke: rgb(0, 0, 0); stroke-opacity: 0; stroke-width: 2px; opacity: 1;"/></g><g class="points"/><g class="text"/></g></g></g><g class="overplot"/><path class="xlines-above crisp" d="M0,0" style="fill: none;"/><path class="ylines-above crisp" d="M0,0" style="fill: none;"/><g class="overlines-above"/><g class="xaxislayer-above"><g class="xtick"><text text-anchor="middle" x="0" y="272" transform="translate(115.11,0)" style="font-family: 'Latin Modern Roman'; font-size: 12px; fill: rgb(0, 0, 0); fill-opacity: 1; white-space: pre;">10M</text></g><g class="xtick"><text text-anchor="middle" x="0" y="272" transform="translate(194.24,0)" style="font-family: 'Latin Modern Roman'; font-size: 12px; fill: rgb(0, 0, 0); fill-opacity: 1; white-space: pre;">20M</text></g><g class="xtick"><text text-anchor="middle" x="0" y="272" transform="translate(273.37,0)" style="font-family: 'Latin Modern Roman'; font-size: 12px; fill: rgb(0, 0, 0); fill-opacity: 1; white-space: pre;">30M</text></g><g class="xtick"><text text-anchor="middle" x="0" y="272" transform="translate(352.5,0)" style="font-family: 'Latin Modern Roman'; font-size: 12px; fill: rgb(0, 0, 0); fill-opacity: 1; white-space: pre;">40M</text></g></g><g class="yaxislayer-above"><g class="ytick"><text text-anchor="end" x="37" y="4.199999999999999" transform="translate(0,215.23)" style="font-family: 'Latin Modern Roman'; font-size: 12px; fill: rgb(0, 0, 0); fill-opacity: 1; white-space: pre;">0</text></g><g class="ytick"><text text-anchor="end" x="37" y="4.199999999999999" transform="translate(0,146.67)" style="font-family: 'Latin Modern Roman'; font-size: 12px; fill: rgb(0, 0, 0); fill-opacity: 1; white-space: pre;">5</text></g><g class="ytick"><text text-anchor="end" x="37" y="4.199999999999999" transform="translate(0,78.1)" style="font-family: 'Latin Modern Roman'; font-size: 12px; fill: rgb(0, 0, 0); fill-opacity: 1; white-space: pre;">10</text></g><g class="ytick"><text text-anchor="end" x="37" y="4.199999999999999" transform="translate(0,9.53)" style="font-family: 'Latin Modern Roman'; font-size: 12px; fill: rgb(0, 0, 0); fill-opacity: 1; white-space: pre;">15</text></g></g><g class="overaxes-above"/></g></g><g class="polarlayer"/><g class="ternarylayer"/><g class="geolayer"/><g class="funnelarealayer"/><g class="pielayer"/><g class="treemaplayer"/><g class="sunburstlayer"/><g class="glimages"/><defs id="topdefs-dc812c"><g class="clips"/><clipPath id="legenddc812c"><rect width="161" height="67" x="0" y="0"/></clipPath></defs><g class="layer-above"><g class="imagelayer"/><g class="shapelayer"/></g><g class="infolayer"><g class="legend" pointer-events="all" transform="translate(438.86,6)"><rect class="bg" shape-rendering="crispEdges" style="stroke: rgb(68, 68, 68); stroke-opacity: 1; fill: rgb(255, 255, 255); fill-opacity: 1; stroke-width: 0px;" width="161" height="67" x="0" y="0"/><g class="scrollbox" transform="" clip-path="url('#legenddc812c')"><g class="groups"><g class="traces" transform="translate(0,14.5)" style="opacity: 1;"><text class="legendtext" text-anchor="start" x="40" y="4.680000000000001" style="font-family: 'Latin Modern Roman'; font-size: 12px; fill: rgb(0, 0, 0); fill-opacity: 1; white-space: pre;">Mean agg. (n=15)</text><g class="layers" style="opacity: 1;"><g class="legendfill"/><g class="legendlines"><path class="js-line" d="M5,0h30" style="fill: none; stroke: rgb(99, 110, 250); stroke-opacity: 1; stroke-width: 2px;"/></g><g class="legendsymbols"><g class="legendpoints"/></g></g><rect class="legendtoggle" x="0" y="-9.5" width="155.671875" height="19" style="fill: rgb(0, 0, 0); fill-opacity: 0;"/></g><g class="traces" transform="translate(0,33.5)" style="opacity: 1;"><text class="legendtext" text-anchor="start" x="40" y="4.680000000000001" style="font-family: 'Latin Modern Roman'; font-size: 12px; fill: rgb(0, 0, 0); fill-opacity: 1; white-space: pre;">Bayesian agg. (n=16)</text><g class="layers" style="opacity: 1;"><g class="legendfill"/><g class="legendlines"><path class="js-line" d="M5,0h30" style="fill: none; stroke: rgb(239, 85, 59); stroke-opacity: 1; stroke-width: 2px;"/></g><g class="legendsymbols"><g class="legendpoints"/></g></g><rect class="legendtoggle" x="0" y="-9.5" width="155.671875" height="19" style="fill: rgb(0, 0, 0); fill-opacity: 0;"/></g><g class="traces" transform="translate(0,52.5)" style="opacity: 1;"><text class="legendtext" text-anchor="start" x="40" y="4.680000000000001" style="font-family: 'Latin Modern Roman'; font-size: 12px; fill: rgb(0, 0, 0); fill-opacity: 1; white-space: pre;">Attentive agg. (n=14)</text><g class="layers" style="opacity: 1;"><g class="legendfill"/><g class="legendlines"><path class="js-line" d="M5,0h30" style="fill: none; stroke: rgb(0, 204, 150); stroke-opacity: 1; stroke-width: 2px;"/></g><g class="legendsymbols"><g class="legendpoints"/></g></g><rect class="legendtoggle" x="0" y="-9.5" width="155.671875" height="19" style="fill: rgb(0, 0, 0); fill-opacity: 0;"/></g></g></g><rect class="scrollbar" rx="20" ry="3" width="0" height="0" style="fill: rgb(128, 139, 164); fill-opacity: 1;" x="0" y="0"/></g><g class="g-gtitle"/><g class="g-xtitle" transform="translate(0,-3.8000000000000114)"><text class="xtitle" x="234.5" y="299.8" text-anchor="middle" style="font-family: 'Latin Modern Roman'; font-size: 14px; fill: rgb(0, 0, 0); opacity: 1; font-weight: normal; white-space: pre;">Agent Steps</text></g><g class="g-ytitle" transform="translate(15.8154296875,0)"><text class="ytitle" transform="rotate(-90,0.18437500000000284,132.5)" x="0.18437500000000284" y="132.5" text-anchor="middle" style="font-family: 'Latin Modern Roman'; font-size: 14px; fill: rgb(0, 0, 0); opacity: 1; font-weight: normal; white-space: pre;">Avg. Reward</text></g></g></svg>