<svg class="main-svg" xmlns="http://www.w3.org/2000/svg" xmlns:xlink="http://www.w3.org/1999/xlink" width="600" height="300" style="" viewBox="0 0 600 300"><rect x="0" y="0" width="600" height="300" style="fill: rgb(255, 255, 255); fill-opacity: 1;"/><defs id="defs-f33bcb"><g class="clips"><clipPath id="clipf33bcbxyplot" class="plotclip"><rect width="396" height="259"/></clipPath><clipPath class="axesclip" id="clipf33bcbx"><rect x="38" y="0" width="396" height="300"/></clipPath><clipPath class="axesclip" id="clipf33bcby"><rect x="0" y="0" width="600" height="259"/></clipPath><clipPath class="axesclip" id="clipf33bcbxy"><rect x="38" y="0" width="396" height="259"/></clipPath></g><g class="gradients"/></defs><g class="bglayer"><rect class="bg" x="38" y="0" width="396" height="259" style="fill: rgb(229, 236, 246); fill-opacity: 1; stroke-width: 0;"/></g><g class="layer-below"><g class="imagelayer"/><g class="shapelayer"/></g><g class="cartesianlayer"><g class="subplot xy"><g class="layer-subplot"><g class="shapelayer"/><g class="imagelayer"/></g><g class="gridlayer"><g class="x"><path class="xgrid crisp" transform="translate(115.01,0)" d="M0,0v259" style="stroke: rgb(255, 255, 255); stroke-opacity: 1; stroke-width: 1px;"/><path class="xgrid crisp" transform="translate(192.81,0)" d="M0,0v259" style="stroke: rgb(255, 255, 255); stroke-opacity: 1; stroke-width: 1px;"/><path class="xgrid crisp" transform="translate(270.61,0)" d="M0,0v259" style="stroke: rgb(255, 255, 255); stroke-opacity: 1; stroke-width: 1px;"/><path class="xgrid crisp" transform="translate(348.42,0)" d="M0,0v259" style="stroke: rgb(255, 255, 255); stroke-opacity: 1; stroke-width: 1px;"/><path class="xgrid crisp" transform="translate(426.22,0)" d="M0,0v259" style="stroke: rgb(255, 255, 255); stroke-opacity: 1; stroke-width: 1px;"/></g><g class="y"><path class="ygrid crisp" transform="translate(0,201.65)" d="M38,0h396" style="stroke: rgb(255, 255, 255); stroke-opacity: 1; stroke-width: 1px;"/><path class="ygrid crisp" transform="translate(0,157.25)" d="M38,0h396" style="stroke: rgb(255, 255, 255); stroke-opacity: 1; stroke-width: 1px;"/><path class="ygrid crisp" transform="translate(0,112.85)" d="M38,0h396" style="stroke: rgb(255, 255, 255); stroke-opacity: 1; stroke-width: 1px;"/><path class="ygrid crisp" transform="translate(0,68.45)" d="M38,0h396" style="stroke: rgb(255, 255, 255); stroke-opacity: 1; stroke-width: 1px;"/><path class="ygrid crisp" transform="translate(0,24.05)" d="M38,0h396" style="stroke: rgb(255, 255, 255); stroke-opacity: 1; stroke-width: 1px;"/></g></g><g class="zerolinelayer"><path class="yzl zl crisp" transform="translate(0,246.05)" d="M38,0h396" style="stroke: rgb(255, 255, 255); stroke-opacity: 1; stroke-width: 2px;"/></g><path class="xlines-below"/><path class="ylines-below"/><g class="overlines-below"/><g class="xaxislayer-below"/><g class="yaxislayer-below"/><g class="overaxes-below"/><g class="plot" transform="translate(38,0)" clip-path="url('#clipf33bcbxyplot')"><g class="scatterlayer mlayer"><g class="trace scatter tracebb72cb" style="stroke-miterlimit: 2; opacity: 1;"><g class="fills"/><g class="errorbars"/><g class="lines"><path class="js-line" d="M0,244.5L11.11,244.05L11.9,243.72L13.49,244.16L14.28,243.83L17.46,244.05L18.25,244.05L31.74,243.39L32.54,242.94L35.71,243.28L36.51,242.61L38.09,242.39L38.89,242.39L39.68,242.39L40.47,241.17L41.27,239.5L42.06,240.94L44.44,237.73L45.23,234.51L47.62,221.85L48.41,222.52L49.2,218.97L50,210.09L50.79,217.08L51.58,209.42L52.38,220.52L53.17,206.2L53.96,210.31L54.76,199.99L57.14,208.2L57.93,201.87L58.73,201.76L59.52,198.65L61.9,184.67L62.69,189.66L63.49,186.11L64.28,188L65.87,175.12L66.66,177.23L68.25,166.91L69.04,172.12L69.84,169.13L70.63,160.8L71.42,164.8L72.22,158.36L73.01,162.91L73.8,162.36L74.6,159.47L75.39,152.48L76.18,158.14L76.98,154.14L77.77,151.92L78.57,152.37L79.36,161.25L80.15,147.26L80.95,151.48L81.74,149.15L82.53,146.7L83.33,140.71L84.12,142.04L84.91,149.92L85.71,150.48L86.5,146.93L87.29,140.05L88.09,147.82L89.68,144.04L90.47,141.04L91.26,149.04L92.06,135.61L92.85,137.38L93.64,129.28L94.44,129.72L95.23,134.94L96.82,132.39L97.61,133.05L98.4,134.5L99.2,131.17L99.99,132.28L100.79,129.83L101.58,122.06L102.37,128.06L103.17,124.39L103.96,133.05L104.75,131.05L105.55,138.6L108.72,128.39L109.52,134.27L110.31,138.82L111.1,129.83L111.9,136.16L112.69,128.17L114.28,136.38L115.07,130.28L115.86,137.16L116.66,133.05L117.45,129.72L118.24,121.4L119.04,129.28L119.83,124.51L121.42,128.17L122.21,126.39L123.01,131.17L123.8,128.61L124.59,129.06L125.39,124.84L126.18,124.06L126.97,127.39L127.77,122.17L128.56,122.4L129.35,129.28L130.15,122.62L130.94,126.17L131.74,124.51L132.53,126.61L133.32,124.84L134.12,124.84L134.91,125.62L135.7,124.62L136.5,127.5L137.29,122.51L138.08,123.73L139.67,114.63L140.46,120.62L141.26,121.51L142.05,119.4L143.64,123.84L144.43,114.85L145.23,118.4L146.02,116.62L146.81,122.95L147.61,121.51L148.4,126.95L149.19,121.29L149.99,118.73L150.78,112.07L152.37,113.29L153.16,119.95L153.96,118.18L154.75,119.07L155.54,118.51L156.34,122.06L157.13,122.73L157.92,117.29L159.51,112.74L160.3,116.4L161.1,110.52L161.89,113.41L162.69,113.18L163.48,115.85L164.27,121.29L165.07,118.73L165.86,115.85L166.65,117.51L168.24,114.29L169.03,114.74L169.83,114.4L170.62,109.08L171.41,116.4L172.21,112.41L173,117.07L173.8,113.63L174.59,116.29L175.38,109.52L176.18,118.73L176.97,110.52L177.76,113.07L178.56,112.29L179.35,111.74L180.14,109.52L181.73,117.29L182.53,120.84L183.32,110.74L184.11,111.74L185.7,115.4L186.49,113.85L187.29,108.3L188.08,112.07L188.87,106.41L189.67,107.52L190.46,104.41L191.25,107.74L192.05,104.53L192.84,109.08L195.22,104.19L196.02,105.52L196.81,105.64L197.6,112.85L198.4,103.08L199.19,107.3L199.98,113.41L200.78,104.08L201.57,106.97L202.36,102.86L203.95,101.64L204.75,112.52L205.54,109.3L206.33,109.85L207.92,109.41L208.71,110.96L209.51,111.3L210.3,110.07L211.89,108.74L212.68,113.52L213.47,108.74L214.27,112.96L215.06,101.64L215.86,107.41L216.65,104.08L217.44,104.3L218.24,111.63L219.03,102.64L220.62,107.97L221.41,107.74L222.2,105.97L223,106.41L223.79,107.41L224.59,106.63L225.38,108.19L226.17,112.41L226.97,105.52L227.76,106.41L228.55,106.63L229.35,104.97L230.93,109.85L231.73,101.86L232.52,108.97L233.31,107.97L234.11,109.85L234.9,117.4L236.49,100.86L237.28,105.41L238.08,107.63L238.87,102.08L239.66,105.64L240.46,101.64L242.04,108.74L242.84,99.09L243.63,111.3L244.42,104.53L245.22,109.19L246.01,102.42L247.6,106.08L248.39,101.08L249.19,97.87L249.98,99.53L252.36,103.86L253.15,97.98L253.95,101.2L254.74,100.31L255.54,98.64L256.33,101.64L257.12,96.87L257.92,104.19L259.5,101.31L260.3,100.75L261.09,99.53L261.88,102.53L262.68,97.42L263.47,101.53L264.26,106.75L265.06,98.75L267.44,98.31L268.23,102.64L269.03,104.08L269.82,102.86L270.61,102.42L271.41,99.2L272.2,105.97L272.99,100.42L273.79,104.64L274.58,100.09L276.17,103.41L276.96,97.53L278.55,111.19L279.34,103.42L280.14,102.19L280.93,102.42L281.72,104.97L282.52,100.42L284.1,100.09L284.9,94.42L285.69,104.19L286.48,104.3L288.07,99.75L288.87,106.41L289.66,101.75L290.45,103.97L291.25,102.31L292.04,110.74L292.83,111.96L293.63,99.97L294.42,107.41L295.21,103.53L296.01,112.74L296.8,107.97L298.39,104.86L299.18,105.97L299.98,105.86L300.77,102.53L301.56,103.19L302.36,108.08L303.15,111.74L303.94,109.41L304.74,111.96L305.53,111.63L307.12,107.41L307.91,107.08L308.71,104.64L309.5,107.74L310.29,108.3L311.09,100.31L311.88,109.74L312.67,107.08L313.47,115.4L314.26,113.63L315.05,107.3L315.85,111.85L316.64,109.19L317.43,109.63L318.23,105.63L319.02,110.19L319.82,108.52L320.61,111.07L321.4,111.19L322.2,107.85L322.99,110.19L323.78,107.63L325.37,110.41L326.16,106.86L327.75,114.18L328.55,113.29L330.13,109.19L330.93,106.52L332.51,104.3L333.31,106.52L334.1,108.08L334.89,113.07L337.27,105.64L338.07,113.07L338.86,103.97L339.66,108.74L340.45,106.41L341.24,113.74L342.04,110.74L342.83,113.52L343.62,107.74L344.42,111.63L346,103.75L346.8,106.19L348.38,111.85L349.18,108.97L349.97,115.96L350.77,108.52L352.35,113.29L353.15,111.3L353.94,107.97L354.73,114.51L355.53,106.86L356.32,109.85L357.11,106.86L357.91,110.41L358.7,108.97L359.49,110.3L360.29,106.75L361.08,111.74L361.88,108.08L362.67,115.18L363.46,114.63L364.26,110.52L365.05,110.52L365.84,113.85L366.64,109.41L367.43,115.74L368.22,103.75L369.02,108.41L371.4,116.62L372.19,106.19L372.99,111.52L373.78,111.41L374.57,112.85L375.37,116.51L376.16,117.73L376.95,113.63L377.75,108.97L378.54,113.52L379.33,111.74L380.13,118.84L380.92,112.63L381.72,115.18L382.51,119.18L383.3,113.18L384.1,112.63L384.89,117.96L385.68,108.19L386.48,118.73L387.27,122.17L388.06,118.96L390.44,111.85L391.24,123.62L392.83,116.74L393.62,119.51L394.41,115.18L395.21,119.51L396,112.85" style="vector-effect: non-scaling-stroke; fill: none; stroke: rgb(99, 110, 250); stroke-opacity: 1; stroke-width: 2px; opacity: 1;"/></g><g class="points"/><g class="text"/></g><g class="trace scatter trace09bfc9" style="stroke-miterlimit: 2; opacity: 1;"><g class="fills"><g><path class="js-fill" d="M0,244.22L2.38,243.61L3.17,243.77L7.14,243.27L7.94,242.72L8.73,243.22L9.52,241.78L11.11,239.56L11.9,240.72L13.49,236.23L14.28,237.67L16.67,235.39L17.46,232.01L18.25,234.45L19.05,232.34L19.84,226.35L20.63,235.45L22.22,224.85L23.01,228.62L24.6,222.68L25.39,222.07L26.98,224.68L27.78,228.46L28.57,224.63L29.36,226.18L30.16,224.52L30.95,225.24L31.74,224.85L32.54,218.36L35.71,211.92L36.51,215.91L37.3,199.6L38.09,207.64L39.68,188.72L40.47,194.99L41.27,194.77L42.06,182.34L42.85,181.89L43.65,172.68L44.44,182.22L45.23,181.39L46.03,183L46.82,181.5L47.62,170.79L48.41,173.68L49.2,171.12L50,159.97L50.79,154.64L51.58,156.36L53.17,165.46L53.96,155.92L54.76,166.8L55.55,153.86L57.14,152.87L57.93,146.93L58.73,150.09L59.52,147.48L60.31,143.37L61.11,144.49L61.9,137.99L62.69,138.82L64.28,137.38L65.07,133.66L66.66,127.5L67.45,125.78L69.84,117.68L70.63,109.69L71.42,118.4L72.22,117.46L73.01,118.29L73.8,113.57L74.6,113.63L75.39,115.62L76.18,115.4L76.98,119.12L77.77,117.46L78.57,109.69L79.36,115.96L80.15,106.02L80.95,117.85L81.74,112.63L82.53,106.63L83.33,109.69L84.12,110.46L84.91,107.69L85.71,108.02L86.5,101.97L88.09,109.13L88.88,108.08L90.47,111.41L91.26,103.58L92.85,110.69L93.64,110.74L95.23,108.47L96.02,103.36L96.82,109.69L97.61,108.63L98.4,100.47L99.2,107.41L99.99,99.59L100.79,105.41L101.58,100.7L102.37,103.86L103.17,106.13L103.96,103.03L105.55,100.47L106.34,96.2L107.93,104.69L108.72,104.14L109.52,103.75L110.31,94.81L111.1,105.47L111.9,100.7L112.69,100.7L113.48,97.2L114.28,96.26L115.07,103.03L115.86,95.81L116.66,96.26L117.45,94.42L118.24,100.14L119.04,97.31L119.83,101.36L121.42,95.2L122.21,99.86L123.8,93.43L124.59,97.92L126.18,93.15L126.97,91.87L127.77,91.98L128.56,97.75L129.35,102.42L130.15,93.54L130.94,84.21L131.74,87.82L133.32,82.82L134.12,83.27L134.91,86.15L135.7,85.38L136.5,86.71L137.29,81.33L138.88,85.38L139.67,89.32L140.46,82.33L141.26,86.71L142.05,88.21L142.85,79.16L143.64,80.6L144.43,79L146.02,84.43L146.81,83.99L148.4,80.72L149.19,82.88L149.99,72.83L150.78,84.99L151.58,76.89L152.37,82.77L153.96,77.66L154.75,83.43L156.34,79.55L157.13,82.99L158.72,76.5L159.51,81.83L160.3,81.77L161.1,83.82L162.69,73.56L163.48,74.78L165.07,68.78L165.86,80.83L166.65,74.83L167.45,76.28L168.24,76.89L169.03,79.99L169.83,72.89L170.62,78.72L171.41,71.84L172.21,77.55L173,73.33L173.8,74.5L174.59,78.61L175.38,72.39L177.76,81.94L178.56,71.45L180.14,76.94L180.94,75.72L181.73,81.83L182.53,72.39L183.32,75.17L184.11,73.22L184.91,75.72L185.7,73.89L186.49,71.39L187.29,82.21L188.08,71.34L188.87,72.17L189.67,66.51L190.46,75.39L192.05,74.56L192.84,71.95L193.64,74.22L194.43,66.84L195.22,69.78L196.02,67.23L197.6,71.95L198.4,69.67L199.19,66.45L199.98,69.12L200.78,72.61L201.57,66.84L203.16,70.45L203.95,73.28L204.75,75.72L205.54,71.06L206.33,73.61L207.13,73L208.71,77.77L209.51,74.56L210.3,77.5L211.09,71.84L213.47,78.05L214.27,73.89L215.06,71.56L215.86,77.22L217.44,74.83L218.24,76L219.03,73.28L219.82,75.66L220.62,70.34L221.41,77.39L223,67.06L223.79,74L224.59,75.83L225.38,69.89L226.17,66.9L226.97,68.01L227.76,68.39L228.55,73.44L229.35,67.23L230.14,71.78L230.93,70.56L231.73,67.12L232.52,72.39L233.31,70.73L234.11,64.18L234.9,66.4L235.7,69.01L236.49,74.33L237.28,72.22L238.08,65.12L238.87,69.23L239.66,69.12L240.46,72.56L241.25,68.84L242.84,72.72L243.63,64.34L244.42,75.5L245.22,68.23L246.01,76.66L246.81,74.22L249.19,68.78L249.98,73.94L250.77,76.11L251.57,70.06L253.15,67.62L253.95,72.17L254.74,74.67L255.54,74.39L256.33,69.23L257.12,73.78L258.71,62.68L259.5,69.06L260.3,66.95L261.09,61.68L261.88,70.45L262.68,62.23L265.06,75.05L265.85,65.23L266.65,70.61L267.44,69.34L269.03,74.06L269.82,65.62L270.61,70.56L271.41,68.78L272.2,75.78L272.99,69.5L273.79,71.34L274.58,70.89L275.37,72.61L276.17,63.95L277.76,68.78L278.55,69.34L279.34,69.12L280.14,66.62L280.93,70.89L281.72,67.73L282.52,75.11L283.31,67.62L284.1,73.11L284.9,70.89L285.69,68.84L286.48,75.17L287.28,64.23L288.07,67.84L289.66,63.51L290.45,69.5L291.25,72.78L292.04,71.95L292.83,69.06L293.63,70.84L294.42,67.95L295.21,68.95L296.01,66.78L296.8,72.95L297.6,67.9L298.39,72.95L300.77,67.34L301.56,75.55L302.36,68.17L303.15,71.11L303.94,71.45L304.74,75.39L306.32,67.34L307.12,73.39L307.91,71.45L308.71,66.73L310.29,72.67L311.09,69.56L311.88,68.28L312.67,72.56L313.47,66.17L314.26,65.9L315.05,66.01L315.85,73.83L318.23,68.39L319.02,71.56L319.82,66.17L320.61,70.23L322.2,65.29L322.99,66.56L323.78,65.79L324.58,63.29L325.37,69.73L326.16,66.29L326.96,63.57L327.75,70.89L328.55,63.4L329.34,70.95L330.13,68.28L330.93,60.13L331.72,70.45L332.51,70.34L333.31,71.89L334.1,66.51L334.89,67.34L335.69,75.05L336.48,63.29L337.27,71.06L338.86,63.68L339.66,67.17L340.45,69.78L341.24,68.67L342.04,67.9L342.83,69L343.62,66.73L344.42,68.34L346,61.96L346.8,72.17L348.38,64.4L349.18,64.01L350.77,69.06L351.56,71.95L352.35,73.78L353.15,67.12L353.94,66.4L354.73,69.34L355.53,71.45L356.32,66.34L357.11,62.23L357.91,69.01L359.49,68.95L360.29,69.84L361.88,73.06L362.67,64.12L363.46,69.39L364.26,69.12L365.05,71.84L365.84,67.34L367.43,70.84L368.22,69.62L369.81,71.22L370.61,68.73L372.19,71.28L372.99,66.12L374.57,73.06L375.37,71.67L376.16,70.12L376.95,71.56L377.75,69.78L378.54,72.72L380.92,67.95L381.72,71.34L383.3,63.29L384.1,69.73L384.89,64.68L385.68,67.56L386.48,66.12L387.27,67.56L388.06,65.84L388.86,69.23L389.65,69.5L390.44,68.23L391.24,70.06L392.03,67.56L393.62,73.06L394.41,62.62L395.21,68.39L396,68.28L396,154.64L395.21,156.25L394.41,151.48L393.62,154.36L392.03,153.2L391.24,153.92L390.44,158.14L389.65,155.31L388.86,151.53L388.06,155.86L387.27,150.81L386.48,153.2L384.89,150.98L384.1,148.54L383.3,151.31L382.51,148.93L381.72,147.04L380.92,152.09L380.13,147.7L379.33,153.25L378.54,149.7L377.75,151.92L376.95,153.37L376.16,152.42L374.57,148.98L373.78,149.2L372.19,153.64L371.4,148.37L370.61,151.31L369.81,151.26L369.02,154.36L368.22,151.26L367.43,154.97L366.64,147.98L365.84,148.04L365.05,154.75L364.26,150.48L363.46,153.75L362.67,149.92L361.88,151.53L361.08,152.64L360.29,148.09L359.49,153.59L358.7,150.26L357.91,146.04L357.11,148.04L356.32,145.1L355.53,145.93L354.73,143.04L353.94,151.98L352.35,147.26L351.56,147.7L350.77,142.99L349.97,143.71L348.38,150.37L347.59,144.6L346.8,142.43L346,146.15L345.21,145.71L344.42,142.65L343.62,145.26L342.83,144.26L341.24,143.15L340.45,148.7L339.66,145.6L338.86,145.76L336.48,139.43L335.69,141.49L334.89,141.77L334.1,148.43L331.72,140.38L330.93,147.54L330.13,141.6L329.34,145.59L328.55,144.6L327.75,145.1L326.16,141.6L325.37,142.82L324.58,143.6L323.78,146.43L322.2,141.43L321.4,141.99L320.61,142.93L319.82,137.88L319.02,136.49L318.23,136.88L317.43,143.32L316.64,142.65L315.85,139.93L315.05,140.27L313.47,146.82L312.67,145.32L311.88,145.21L311.09,144.21L310.29,142.65L309.5,138.66L308.71,139.05L307.91,144.98L306.32,141.99L305.53,143.99L303.94,140.82L303.15,141.6L301.56,147.15L300.77,143.93L299.98,145.15L299.18,144.32L298.39,147.26L297.6,141.99L296.8,143.54L296.01,141.38L295.21,152.31L294.42,143.6L293.63,137.1L292.83,149.54L292.04,141.49L291.25,151.81L289.66,140.66L288.87,144.82L288.07,146.65L287.28,145.26L286.48,145.04L285.69,139.21L284.9,141.99L284.1,140.77L283.31,142.6L282.52,142.43L281.72,143.54L280.93,147.98L280.14,141.99L279.34,143.21L278.55,144.04L277.76,143.43L276.96,145.98L276.17,142.26L275.37,142.1L274.58,140.88L272.99,145.04L272.2,138.55L270.61,147.2L269.82,145.82L268.23,141.1L267.44,148.26L266.65,149.15L265.85,147.09L264.26,150.2L263.47,149.98L262.68,140.99L261.88,144.1L259.5,154.2L258.71,149.65L257.92,147.81L257.12,152.75L256.33,149.37L255.54,153.2L253.95,146.93L253.15,148.59L252.36,146.15L251.57,150.81L249.19,143.26L248.39,147.32L247.6,149.87L246.81,146.43L246.01,150.76L245.22,148.31L244.42,151.48L243.63,148.87L242.84,145.71L242.04,149.59L241.25,143.38L240.46,148.15L238.87,145.37L238.08,142.04L237.28,150.53L236.49,138.1L235.7,150.42L234.9,145.15L234.11,151.81L233.31,146.65L232.52,149.2L231.73,156.2L230.93,139.77L230.14,148.98L228.55,142.04L227.76,151.87L226.97,153.14L226.17,146.09L225.38,149.81L224.59,146.04L223.79,143.99L223,150.42L222.2,146.93L221.41,151.48L220.62,147.54L219.82,148.87L219.03,153.2L218.24,145.32L217.44,143.99L216.65,149.92L215.86,148.93L215.06,150.03L212.68,144.98L211.89,146.65L211.09,152.53L210.3,143.76L209.51,149.48L208.71,144.21L207.92,147.43L207.13,144.15L204.75,154.2L203.95,147.43L203.16,144.49L202.36,146.93L201.57,152.7L200.78,146.15L199.98,158.86L199.19,151.31L198.4,151.37L197.6,148.76L196.81,155.53L196.02,147.98L192.84,158.8L192.05,148.2L191.25,156.75L190.46,148.04L189.67,146.82L188.87,150.92L188.08,160.14L187.29,154.31L186.49,157.47L185.7,153.53L184.91,146.54L184.11,153.31L183.32,157.42L182.53,156.25L181.73,152.26L180.94,157.97L180.14,159.14L179.35,154.48L178.56,149.26L177.76,159.03L176.18,156.42L175.38,156.86L174.59,144.43L173.8,155.03L172.21,153.2L171.41,156.2L169.83,162.3L169.03,160.36L168.24,154.36L167.45,155.36L166.65,155.97L165.86,150.42L165.07,150.59L164.27,152.31L163.48,157.86L162.69,153.36L161.89,150.7L161.1,153.98L160.3,157.53L159.51,156.81L158.72,158.58L157.92,157.75L157.13,157.75L156.34,158.53L155.54,152.87L154.75,156.47L153.96,153.25L153.16,153.59L152.37,162.74L151.58,160.75L150.78,164.63L149.99,162.58L149.19,164.19L148.4,163.91L147.61,162.13L146.81,163.35L146.02,166.07L145.23,165.19L144.43,169.29L143.64,168.9L142.85,170.24L142.05,176.29L141.26,169.24L140.46,170.79L139.67,175.29L138.88,169.46L136.5,180.95L135.7,175.23L134.91,173.62L134.12,176.4L133.32,171.13L132.53,175.12L131.74,176.01L130.94,181.61L130.15,177.95L129.35,180.34L127.77,175.62L126.97,177.01L126.18,186L125.39,183.45L124.59,181.56L123.8,183.06L122.21,185.83L121.42,182.06L120.63,190.72L119.83,184.11L118.24,192.94L117.45,190.11L116.66,194.99L115.86,186.17L115.07,186.94L114.28,198.43L113.48,197.65L112.69,204.04L111.1,197.65L110.31,198.65L109.52,201.1L108.72,198.43L107.93,207.87L107.13,207.87L106.34,196.16L105.55,206.37L104.75,202.98L103.96,210.09L103.17,207.64L102.37,200.93L101.58,208.59L100.79,206.31L99.99,211.86L99.2,211.2L96.82,219.52L96.02,213.64L95.23,214.36L94.44,221.57L93.64,218.74L92.85,223.3L91.26,218.85L90.47,226.96L89.68,222.91L88.88,230.12L87.29,232.9L86.5,235.67L85.71,233.78L84.91,237.23L83.33,235.62L82.53,233.51L80.95,236.73L80.15,238.61L79.36,240.5L78.57,238.17L77.77,240.5L76.98,239.89L76.18,239L75.39,233.62L74.6,238.11L73.8,238.11L71.42,241.39L70.63,240.22L69.84,240.44L69.04,241.94L68.25,238.78L67.45,241.61L66.66,240.5L65.87,241L65.07,240.33L64.28,242.55L63.49,243.28L62.69,242.39L61.11,242.22L60.31,240.11L59.52,240.83L58.73,240.11L57.93,242.44L57.14,241.67L56.34,241.44L55.55,242.94L54.76,241.72L53.96,242.83L52.38,243.05L51.58,243.44L49.2,243.44L48.41,243.89L46.03,243.39L45.23,243.89L43.65,243.72L42.85,243.83L42.06,244.11L41.27,243.5L38.89,244.05L38.09,244.05L34.92,244.33L34.12,244.11L30.16,244.5L29.36,244.27L26.19,244.5L25.39,244.5L23.01,244.5L22.22,244.5L19.84,244.5L19.05,244.72L15.87,244.5L15.08,244.55L5.56,244.33L4.76,244.72L1.59,244.5L0.79,244.72L0,244.72Z" style="fill: rgb(99, 110, 250); fill-opacity: 0.3; stroke-width: 0;"/></g></g><g class="errorbars"/><g class="lines"><path class="js-line" d="M0,244.22L2.38,243.61L3.17,243.77L7.14,243.27L7.94,242.72L8.73,243.22L9.52,241.78L11.11,239.56L11.9,240.72L13.49,236.23L14.28,237.67L16.67,235.39L17.46,232.01L18.25,234.45L19.05,232.34L19.84,226.35L20.63,235.45L22.22,224.85L23.01,228.62L24.6,222.68L25.39,222.07L26.98,224.68L27.78,228.46L28.57,224.63L29.36,226.18L30.16,224.52L30.95,225.24L31.74,224.85L32.54,218.36L35.71,211.92L36.51,215.91L37.3,199.6L38.09,207.64L39.68,188.72L40.47,194.99L41.27,194.77L42.06,182.34L42.85,181.89L43.65,172.68L44.44,182.22L45.23,181.39L46.03,183L46.82,181.5L47.62,170.79L48.41,173.68L49.2,171.12L50,159.97L50.79,154.64L51.58,156.36L53.17,165.46L53.96,155.92L54.76,166.8L55.55,153.86L57.14,152.87L57.93,146.93L58.73,150.09L59.52,147.48L60.31,143.37L61.11,144.49L61.9,137.99L62.69,138.82L64.28,137.38L65.07,133.66L66.66,127.5L67.45,125.78L69.84,117.68L70.63,109.69L71.42,118.4L72.22,117.46L73.01,118.29L73.8,113.57L74.6,113.63L75.39,115.62L76.18,115.4L76.98,119.12L77.77,117.46L78.57,109.69L79.36,115.96L80.15,106.02L80.95,117.85L81.74,112.63L82.53,106.63L83.33,109.69L84.12,110.46L84.91,107.69L85.71,108.02L86.5,101.97L88.09,109.13L88.88,108.08L90.47,111.41L91.26,103.58L92.85,110.69L93.64,110.74L95.23,108.47L96.02,103.36L96.82,109.69L97.61,108.63L98.4,100.47L99.2,107.41L99.99,99.59L100.79,105.41L101.58,100.7L102.37,103.86L103.17,106.13L103.96,103.03L105.55,100.47L106.34,96.2L107.93,104.69L108.72,104.14L109.52,103.75L110.31,94.81L111.1,105.47L111.9,100.7L112.69,100.7L113.48,97.2L114.28,96.26L115.07,103.03L115.86,95.81L116.66,96.26L117.45,94.42L118.24,100.14L119.04,97.31L119.83,101.36L121.42,95.2L122.21,99.86L123.8,93.43L124.59,97.92L126.18,93.15L126.97,91.87L127.77,91.98L128.56,97.75L129.35,102.42L130.15,93.54L130.94,84.21L131.74,87.82L133.32,82.82L134.12,83.27L134.91,86.15L135.7,85.38L136.5,86.71L137.29,81.33L138.88,85.38L139.67,89.32L140.46,82.33L141.26,86.71L142.05,88.21L142.85,79.16L143.64,80.6L144.43,79L146.02,84.43L146.81,83.99L148.4,80.72L149.19,82.88L149.99,72.83L150.78,84.99L151.58,76.89L152.37,82.77L153.96,77.66L154.75,83.43L156.34,79.55L157.13,82.99L158.72,76.5L159.51,81.83L160.3,81.77L161.1,83.82L162.69,73.56L163.48,74.78L165.07,68.78L165.86,80.83L166.65,74.83L167.45,76.28L168.24,76.89L169.03,79.99L169.83,72.89L170.62,78.72L171.41,71.84L172.21,77.55L173,73.33L173.8,74.5L174.59,78.61L175.38,72.39L177.76,81.94L178.56,71.45L180.14,76.94L180.94,75.72L181.73,81.83L182.53,72.39L183.32,75.17L184.11,73.22L184.91,75.72L185.7,73.89L186.49,71.39L187.29,82.21L188.08,71.34L188.87,72.17L189.67,66.51L190.46,75.39L192.05,74.56L192.84,71.95L193.64,74.22L194.43,66.84L195.22,69.78L196.02,67.23L197.6,71.95L198.4,69.67L199.19,66.45L199.98,69.12L200.78,72.61L201.57,66.84L203.16,70.45L203.95,73.28L204.75,75.72L205.54,71.06L206.33,73.61L207.13,73L208.71,77.77L209.51,74.56L210.3,77.5L211.09,71.84L213.47,78.05L214.27,73.89L215.06,71.56L215.86,77.22L217.44,74.83L218.24,76L219.03,73.28L219.82,75.66L220.62,70.34L221.41,77.39L223,67.06L223.79,74L224.59,75.83L225.38,69.89L226.17,66.9L226.97,68.01L227.76,68.39L228.55,73.44L229.35,67.23L230.14,71.78L230.93,70.56L231.73,67.12L232.52,72.39L233.31,70.73L234.11,64.18L234.9,66.4L235.7,69.01L236.49,74.33L237.28,72.22L238.08,65.12L238.87,69.23L239.66,69.12L240.46,72.56L241.25,68.84L242.84,72.72L243.63,64.34L244.42,75.5L245.22,68.23L246.01,76.66L246.81,74.22L249.19,68.78L249.98,73.94L250.77,76.11L251.57,70.06L253.15,67.62L253.95,72.17L254.74,74.67L255.54,74.39L256.33,69.23L257.12,73.78L258.71,62.68L259.5,69.06L260.3,66.95L261.09,61.68L261.88,70.45L262.68,62.23L265.06,75.05L265.85,65.23L266.65,70.61L267.44,69.34L269.03,74.06L269.82,65.62L270.61,70.56L271.41,68.78L272.2,75.78L272.99,69.5L273.79,71.34L274.58,70.89L275.37,72.61L276.17,63.95L277.76,68.78L278.55,69.34L279.34,69.12L280.14,66.62L280.93,70.89L281.72,67.73L282.52,75.11L283.31,67.62L284.1,73.11L284.9,70.89L285.69,68.84L286.48,75.17L287.28,64.23L288.07,67.84L289.66,63.51L290.45,69.5L291.25,72.78L292.04,71.95L292.83,69.06L293.63,70.84L294.42,67.95L295.21,68.95L296.01,66.78L296.8,72.95L297.6,67.9L298.39,72.95L300.77,67.34L301.56,75.55L302.36,68.17L303.15,71.11L303.94,71.45L304.74,75.39L306.32,67.34L307.12,73.39L307.91,71.45L308.71,66.73L310.29,72.67L311.09,69.56L311.88,68.28L312.67,72.56L313.47,66.17L314.26,65.9L315.05,66.01L315.85,73.83L318.23,68.39L319.02,71.56L319.82,66.17L320.61,70.23L322.2,65.29L322.99,66.56L323.78,65.79L324.58,63.29L325.37,69.73L326.16,66.29L326.96,63.57L327.75,70.89L328.55,63.4L329.34,70.95L330.13,68.28L330.93,60.13L331.72,70.45L332.51,70.34L333.31,71.89L334.1,66.51L334.89,67.34L335.69,75.05L336.48,63.29L337.27,71.06L338.86,63.68L339.66,67.17L340.45,69.78L341.24,68.67L342.04,67.9L342.83,69L343.62,66.73L344.42,68.34L346,61.96L346.8,72.17L348.38,64.4L349.18,64.01L350.77,69.06L351.56,71.95L352.35,73.78L353.15,67.12L353.94,66.4L354.73,69.34L355.53,71.45L356.32,66.34L357.11,62.23L357.91,69.01L359.49,68.95L360.29,69.84L361.88,73.06L362.67,64.12L363.46,69.39L364.26,69.12L365.05,71.84L365.84,67.34L367.43,70.84L368.22,69.62L369.81,71.22L370.61,68.73L372.19,71.28L372.99,66.12L374.57,73.06L375.37,71.67L376.16,70.12L376.95,71.56L377.75,69.78L378.54,72.72L380.92,67.95L381.72,71.34L383.3,63.29L384.1,69.73L384.89,64.68L385.68,67.56L386.48,66.12L387.27,67.56L388.06,65.84L388.86,69.23L389.65,69.5L390.44,68.23L391.24,70.06L392.03,67.56L393.62,73.06L394.41,62.62L395.21,68.39L396,68.28L396,154.64L395.21,156.25L394.41,151.48L393.62,154.36L392.03,153.2L391.24,153.92L390.44,158.14L389.65,155.31L388.86,151.53L388.06,155.86L387.27,150.81L386.48,153.2L384.89,150.98L384.1,148.54L383.3,151.31L382.51,148.93L381.72,147.04L380.92,152.09L380.13,147.7L379.33,153.25L378.54,149.7L377.75,151.92L376.95,153.37L376.16,152.42L374.57,148.98L373.78,149.2L372.19,153.64L371.4,148.37L370.61,151.31L369.81,151.26L369.02,154.36L368.22,151.26L367.43,154.97L366.64,147.98L365.84,148.04L365.05,154.75L364.26,150.48L363.46,153.75L362.67,149.92L361.88,151.53L361.08,152.64L360.29,148.09L359.49,153.59L358.7,150.26L357.91,146.04L357.11,148.04L356.32,145.1L355.53,145.93L354.73,143.04L353.94,151.98L352.35,147.26L351.56,147.7L350.77,142.99L349.97,143.71L348.38,150.37L347.59,144.6L346.8,142.43L346,146.15L345.21,145.71L344.42,142.65L343.62,145.26L342.83,144.26L341.24,143.15L340.45,148.7L339.66,145.6L338.86,145.76L336.48,139.43L335.69,141.49L334.89,141.77L334.1,148.43L331.72,140.38L330.93,147.54L330.13,141.6L329.34,145.59L328.55,144.6L327.75,145.1L326.16,141.6L325.37,142.82L324.58,143.6L323.78,146.43L322.2,141.43L321.4,141.99L320.61,142.93L319.82,137.88L319.02,136.49L318.23,136.88L317.43,143.32L316.64,142.65L315.85,139.93L315.05,140.27L313.47,146.82L312.67,145.32L311.88,145.21L311.09,144.21L310.29,142.65L309.5,138.66L308.71,139.05L307.91,144.98L306.32,141.99L305.53,143.99L303.94,140.82L303.15,141.6L301.56,147.15L300.77,143.93L299.98,145.15L299.18,144.32L298.39,147.26L297.6,141.99L296.8,143.54L296.01,141.38L295.21,152.31L294.42,143.6L293.63,137.1L292.83,149.54L292.04,141.49L291.25,151.81L289.66,140.66L288.87,144.82L288.07,146.65L287.28,145.26L286.48,145.04L285.69,139.21L284.9,141.99L284.1,140.77L283.31,142.6L282.52,142.43L281.72,143.54L280.93,147.98L280.14,141.99L279.34,143.21L278.55,144.04L277.76,143.43L276.96,145.98L276.17,142.26L275.37,142.1L274.58,140.88L272.99,145.04L272.2,138.55L270.61,147.2L269.82,145.82L268.23,141.1L267.44,148.26L266.65,149.15L265.85,147.09L264.26,150.2L263.47,149.98L262.68,140.99L261.88,144.1L259.5,154.2L258.71,149.65L257.92,147.81L257.12,152.75L256.33,149.37L255.54,153.2L253.95,146.93L253.15,148.59L252.36,146.15L251.57,150.81L249.19,143.26L248.39,147.32L247.6,149.87L246.81,146.43L246.01,150.76L245.22,148.31L244.42,151.48L243.63,148.87L242.84,145.71L242.04,149.59L241.25,143.38L240.46,148.15L238.87,145.37L238.08,142.04L237.28,150.53L236.49,138.1L235.7,150.42L234.9,145.15L234.11,151.81L233.31,146.65L232.52,149.2L231.73,156.2L230.93,139.77L230.14,148.98L228.55,142.04L227.76,151.87L226.97,153.14L226.17,146.09L225.38,149.81L224.59,146.04L223.79,143.99L223,150.42L222.2,146.93L221.41,151.48L220.62,147.54L219.82,148.87L219.03,153.2L218.24,145.32L217.44,143.99L216.65,149.92L215.86,148.93L215.06,150.03L212.68,144.98L211.89,146.65L211.09,152.53L210.3,143.76L209.51,149.48L208.71,144.21L207.92,147.43L207.13,144.15L204.75,154.2L203.95,147.43L203.16,144.49L202.36,146.93L201.57,152.7L200.78,146.15L199.98,158.86L199.19,151.31L198.4,151.37L197.6,148.76L196.81,155.53L196.02,147.98L192.84,158.8L192.05,148.2L191.25,156.75L190.46,148.04L189.67,146.82L188.87,150.92L188.08,160.14L187.29,154.31L186.49,157.47L185.7,153.53L184.91,146.54L184.11,153.31L183.32,157.42L182.53,156.25L181.73,152.26L180.94,157.97L180.14,159.14L179.35,154.48L178.56,149.26L177.76,159.03L176.18,156.42L175.38,156.86L174.59,144.43L173.8,155.03L172.21,153.2L171.41,156.2L169.83,162.3L169.03,160.36L168.24,154.36L167.45,155.36L166.65,155.97L165.86,150.42L165.07,150.59L164.27,152.31L163.48,157.86L162.69,153.36L161.89,150.7L161.1,153.98L160.3,157.53L159.51,156.81L158.72,158.58L157.92,157.75L157.13,157.75L156.34,158.53L155.54,152.87L154.75,156.47L153.96,153.25L153.16,153.59L152.37,162.74L151.58,160.75L150.78,164.63L149.99,162.58L149.19,164.19L148.4,163.91L147.61,162.13L146.81,163.35L146.02,166.07L145.23,165.19L144.43,169.29L143.64,168.9L142.85,170.24L142.05,176.29L141.26,169.24L140.46,170.79L139.67,175.29L138.88,169.46L136.5,180.95L135.7,175.23L134.91,173.62L134.12,176.4L133.32,171.13L132.53,175.12L131.74,176.01L130.94,181.61L130.15,177.95L129.35,180.34L127.77,175.62L126.97,177.01L126.18,186L125.39,183.45L124.59,181.56L123.8,183.06L122.21,185.83L121.42,182.06L120.63,190.72L119.83,184.11L118.24,192.94L117.45,190.11L116.66,194.99L115.86,186.17L115.07,186.94L114.28,198.43L113.48,197.65L112.69,204.04L111.1,197.65L110.31,198.65L109.52,201.1L108.72,198.43L107.93,207.87L107.13,207.87L106.34,196.16L105.55,206.37L104.75,202.98L103.96,210.09L103.17,207.64L102.37,200.93L101.58,208.59L100.79,206.31L99.99,211.86L99.2,211.2L96.82,219.52L96.02,213.64L95.23,214.36L94.44,221.57L93.64,218.74L92.85,223.3L91.26,218.85L90.47,226.96L89.68,222.91L88.88,230.12L87.29,232.9L86.5,235.67L85.71,233.78L84.91,237.23L83.33,235.62L82.53,233.51L80.95,236.73L80.15,238.61L79.36,240.5L78.57,238.17L77.77,240.5L76.98,239.89L76.18,239L75.39,233.62L74.6,238.11L73.8,238.11L71.42,241.39L70.63,240.22L69.84,240.44L69.04,241.94L68.25,238.78L67.45,241.61L66.66,240.5L65.87,241L65.07,240.33L64.28,242.55L63.49,243.28L62.69,242.39L61.11,242.22L60.31,240.11L59.52,240.83L58.73,240.11L57.93,242.44L57.14,241.67L56.34,241.44L55.55,242.94L54.76,241.72L53.96,242.83L52.38,243.05L51.58,243.44L49.2,243.44L48.41,243.89L46.03,243.39L45.23,243.89L43.65,243.72L42.85,243.83L42.06,244.11L41.27,243.5L38.89,244.05L38.09,244.05L34.92,244.33L34.12,244.11L30.16,244.5L29.36,244.27L26.19,244.5L25.39,244.5L23.01,244.5L22.22,244.5L19.84,244.5L19.05,244.72L15.87,244.5L15.08,244.55L5.56,244.33L4.76,244.72L1.59,244.5L0.79,244.72L0,244.72" style="vector-effect: non-scaling-stroke; fill: none; stroke: rgb(0, 0, 0); stroke-opacity: 0; stroke-width: 2px; opacity: 1;"/></g><g class="points"/><g class="text"/></g><g class="trace scatter tracef5d1fb" style="stroke-miterlimit: 2; opacity: 1;"><g class="fills"/><g class="errorbars"/><g class="lines"><path class="js-line" d="M0,244.72L1.59,244.27L2.38,243.83L3.17,243.39L3.97,244.05L5.56,243.61L6.35,243.83L8.73,242.94L9.52,243.61L10.32,241.39L11.11,242.5L11.9,243.39L12.7,243.16L15.08,243.83L15.87,243.61L17.46,243.61L18.25,241.61L19.05,243.16L19.84,242.05L22.22,233.62L23.01,239.61L23.81,241.61L24.6,237.17L25.39,240.72L26.19,232.06L26.98,232.51L27.78,238.28L28.57,237.17L29.36,228.29L30.16,230.73L30.95,230.29L32.54,236.28L33.33,232.73L34.12,232.51L34.92,228.07L36.51,220.74L37.3,225.4L38.09,230.07L38.89,213.42L39.68,220.52L40.47,219.63L42.06,222.96L42.85,214.97L45.23,214.97L46.03,206.09L46.82,208.98L47.62,217.86L48.41,220.3L49.2,207.87L50,206.09L50.79,192.77L53.17,206.09L53.96,198.54L54.76,197.21L55.55,189.22L56.34,188.77L57.14,177.9L57.93,180.34L58.73,179.89L59.52,174.34L60.31,177.23L61.9,160.8L62.69,163.91L63.49,158.58L64.28,161.69L65.07,162.13L65.87,148.81L66.66,153.25L67.45,147.04L68.25,145.93L69.04,138.38L69.84,140.38L70.63,148.37L71.42,140.38L72.22,144.6L73.01,137.94L73.8,139.93L74.6,147.7L75.39,137.49L76.18,136.38L76.98,143.26L77.77,124.39L78.57,143.71L79.36,129.5L80.15,139.93L81.74,132.16L82.53,132.61L83.33,130.83L84.12,131.28L85.71,121.06L86.5,124.84L87.29,132.61L88.09,123.51L89.68,122.84L90.47,118.18L92.85,126.17L93.64,120.18L94.44,126.84L95.23,124.39L96.02,119.29L96.82,122.62L97.61,121.51L98.4,118.62L99.2,128.61L99.99,113.74L101.58,111.96L102.37,109.74L103.96,124.62L104.75,112.41L105.55,126.61L106.34,125.5L107.13,118.4L107.93,121.29L108.72,123.51L109.52,114.18L110.31,110.85L111.1,111.07L111.9,113.96L112.69,107.08L113.48,102.42L114.28,111.96L115.86,103.97L116.66,102.64L117.45,103.97L118.24,103.75L119.04,98.2L119.83,101.08L120.63,103.53L121.42,91.98L122.21,99.53L123.01,91.98L124.59,103.97L125.39,97.31L126.97,103.97L127.77,95.09L128.56,98.64L129.35,93.54L130.15,90.65L130.94,107.52L132.53,86.21L133.32,83.1L134.91,101.08L135.7,97.53L136.5,85.1L137.29,88.43L138.08,101.08L138.88,91.09L139.67,93.98L140.46,85.77L141.26,86.21L142.05,81.1L143.64,82.21L144.43,87.54L145.23,81.99L146.02,90.65L146.81,89.98L147.61,87.1L149.19,81.55L149.99,78.88L151.58,89.32L152.37,71.56L153.96,87.76L154.75,82.44L155.54,81.55L156.34,91.54L157.13,81.1L157.92,88.65L159.51,81.77L160.3,81.77L161.1,67.56L161.89,74L162.69,79.55L163.48,72.89L164.27,76.66L165.07,84.43L167.45,68.45L168.24,80.44L169.03,81.77L169.83,64.9L170.62,72.89L171.41,71.78L172.21,76.66L173,76.22L173.8,68.89L174.59,75.11L175.38,71.11L176.18,72L176.97,65.34L177.76,78.22L178.56,67.12L179.35,69.56L180.14,75.11L180.94,66.23L181.73,69.56L182.53,69.34L183.32,66.67L184.11,78L184.91,64.9L185.7,67.12L186.49,69.56L187.29,65.34L188.87,74.67L189.67,73.11L190.46,63.57L191.25,64.68L192.05,71.78L192.84,64.9L194.43,66.67L195.22,61.12L196.02,72.67L196.81,71.11L197.6,64.9L198.4,68.45L199.19,64.23L199.98,67.78L200.78,60.46L201.57,75.55L202.36,66.45L203.16,68.45L204.75,73.11L205.54,65.56L206.33,67.78L207.13,77.33L208.71,76.44L209.51,69.34L210.3,86.21L211.09,73.33L211.89,68.23L212.68,70.67L213.47,72.67L214.27,65.79L215.06,75.55L215.86,70L217.44,73.11L218.24,60.9L219.03,65.79L219.82,77.55L220.62,71.78L221.41,75.78L223.79,70L224.59,74.89L225.38,72.89L226.17,79.33L226.97,73.33L227.76,74L229.35,66.23L230.14,69.78L232.52,72.22L233.31,74.89L234.11,74.44L234.9,78L235.7,74.22L236.49,77.55L237.28,76L238.08,66.45L239.66,75.33L240.46,72.45L241.25,73.33L242.04,81.99L242.84,78.44L243.63,68.45L245.22,83.99L246.01,74.67L246.81,81.77L247.6,73.33L248.39,66.67L249.19,72L252.36,84.66L253.15,72.89L253.95,65.34L254.74,76.89L256.33,75.78L257.12,83.1L257.92,64.45L258.71,78.22L259.5,79.11L260.3,63.34L261.88,84.21L262.68,79.11L265.06,75.11L265.85,81.55L266.65,78.44L267.44,84.21L268.23,78.22L269.03,80.88L269.82,68.67L270.61,79.11L272.2,72L272.99,76.44L274.58,82.88L275.37,81.1L276.17,78.22L276.96,80.22L277.76,83.99L278.55,79.99L279.34,85.1L280.14,77.33L280.93,77.77L281.72,81.77L282.52,75.11L283.31,75.55L284.1,76.22L284.9,79.77L285.69,77.55L286.48,79.77L288.07,76.66L288.87,70.89L289.66,77.33L290.45,72.89L291.25,81.77L292.04,74L293.63,76L294.42,72.89L295.21,73.33L296.01,81.99L297.6,72L298.39,81.99L299.18,81.55L299.98,76.66L302.36,79.99L303.15,83.99" style="vector-effect: non-scaling-stroke; fill: none; stroke: rgb(239, 85, 59); stroke-opacity: 1; stroke-width: 2px; opacity: 1;"/></g><g class="points"/><g class="text"/></g><g class="trace scatter trace5b111d" style="stroke-miterlimit: 2; opacity: 1;"><g class="fills"><g><path class="js-fill" d="M0,244.27L1.59,243.61L2.38,241.83L4.76,240.72L5.56,238.72L6.35,238.5L7.14,232.73L7.94,230.95L8.73,232.29L9.52,232.95L10.32,229.62L11.11,237.84L11.9,230.29L12.7,230.29L13.49,235.84L14.28,233.62L15.08,236.73L15.87,238.5L16.67,222.07L17.46,237.17L18.25,229.84L19.05,223.41L19.84,224.52L20.63,219.41L21.43,222.74L23.01,214.75L23.81,212.08L24.6,217.19L25.39,212.31L26.98,219.41L27.78,203.87L28.57,219.41L29.36,210.09L30.16,183.67L30.95,196.99L31.74,180.34L32.54,201.43L34.92,183.89L35.71,192.77L36.51,184.33L37.3,188.55L38.89,173.23L39.68,182.11L40.47,167.91L41.27,186.55L42.06,172.79L42.85,179.89L43.65,176.34L44.44,178.78L45.23,176.56L46.03,178.12L47.62,161.69L48.41,163.47L49.2,169.02L50,151.48L50.79,160.14L51.58,143.93L53.17,158.58L53.96,153.7L54.76,150.81L55.55,138.38L56.34,143.93L57.14,139.49L57.93,123.28L58.73,129.72L59.52,124.17L60.31,126.61L61.9,105.3L62.69,112.85L63.49,113.52L64.28,109.3L65.07,108.41L65.87,105.52L67.45,111.74L68.25,101.53L69.04,99.75L69.84,95.09L70.63,110.63L71.42,95.09L72.22,99.53L73.01,99.31L73.8,81.1L74.6,90.65L75.39,86.21L76.18,91.76L76.98,100.42L77.77,88.21L78.57,80.44L79.36,85.32L80.95,95.76L81.74,93.31L82.53,91.76L83.33,81.77L84.91,85.32L85.71,77.33L86.5,70.89L87.29,78.88L88.09,90.65L88.88,78.44L90.47,75.78L91.26,86.88L92.06,78.66L92.85,82.21L94.44,70.45L95.23,65.12L96.82,77.33L97.61,68.01L98.4,74.22L99.2,67.78L99.99,77.77L100.79,74.44L101.58,64.45L102.37,72.89L103.17,65.56L103.96,68.45L105.55,76.66L106.34,71.34L107.13,72.89L107.93,60.24L108.72,67.12L109.52,62.68L110.31,71.56L111.1,71.11L111.9,68.01L112.69,73.11L113.48,77.11L114.28,71.34L115.07,74L115.86,58.68L117.45,68.01L118.24,65.34L119.83,57.35L120.63,68.89L121.42,69.34L122.21,72.89L123.01,73.33L123.8,69.78L124.59,68.67L125.39,70.67L126.97,61.79L127.77,68.23L129.35,59.57L130.15,64.01L130.94,76.66L131.74,66.9L132.53,60.68L133.32,64.68L134.91,60.9L135.7,61.35L136.5,58.02L137.29,59.35L138.08,59.79L138.88,58.68L139.67,60.46L140.46,56.02L141.26,54.46L142.05,57.57L142.85,59.79L143.64,57.57L144.43,59.79L145.23,54.91L146.02,59.13L146.81,47.8L147.61,54.02L148.4,46.25L149.19,54.69L149.99,52.91L150.78,47.8L151.58,50.91L152.37,54.69L153.16,41.81L154.75,51.58L155.54,48.03L156.34,47.8L157.13,44.25L157.92,45.14L158.72,55.57L161.1,47.58L161.89,50.02L163.48,52.02L164.27,46.03L165.07,50.25L165.86,48.03L166.65,52.02L167.45,52.02L168.24,53.8L169.03,53.13L169.83,45.58L170.62,50.69L171.41,49.58L172.21,44.7L173,43.59L173.8,49.14L174.59,56.68L175.38,47.8L176.18,55.57L176.97,46.47L177.76,46.25L178.56,48.47L180.14,57.35L180.94,52.24L181.73,43.59L182.53,46.25L183.32,53.58L184.11,46.03L185.7,41.37L186.49,51.8L187.29,46.69L188.08,46.92L188.87,42.7L189.67,50.69L191.25,45.36L192.05,47.14L192.84,40.03L193.64,46.25L194.43,43.59L195.22,45.58L196.02,45.81L196.81,35.82L198.4,54.02L199.19,43.81L199.98,42.7L200.78,44.47L201.57,46.25L202.36,45.58L203.16,54.24L203.95,46.25L204.75,47.8L205.54,43.59L206.33,53.35L207.13,43.14L208.71,57.57L209.51,49.14L210.3,53.13L211.09,42.92L211.89,41.81L212.68,51.36L214.27,50.69L215.06,47.14L215.86,45.36L216.65,46.25L217.44,50.91L218.24,42.92L219.03,41.81L219.82,46.92L220.62,50.69L221.41,42.48L223,51.13L223.79,53.13L225.38,41.59L226.17,58.68L226.97,46.25L227.76,55.13L228.55,43.14L229.35,50.91L230.14,41.81L230.93,54.02L231.73,56.24L232.52,48.25L233.31,47.8L234.11,38.26L235.7,52.02L236.49,47.14L237.28,52.91L238.08,50.47L238.87,50.91L239.66,44.92L240.46,42.92L241.25,47.8L242.04,46.25L242.84,38.92L245.22,56.68L246.01,55.13L246.81,45.58L247.6,48.25L248.39,41.81L249.19,47.8L249.98,41.81L250.77,49.14L251.57,43.81L252.36,44.92L253.15,41.14L253.95,42.92L254.74,48.69L255.54,40.92L257.12,50.69L257.92,50.02L258.71,56.02L259.5,40.03L261.09,42.7L261.88,42.03L262.68,57.13L263.47,55.13L264.26,44.47L265.06,46.25L265.85,51.36L266.65,50.69L267.44,50.25L268.23,57.57L269.82,45.81L270.61,55.35L271.41,40.92L272.2,48.69L272.99,51.36L273.79,50.69L274.58,54.69L275.37,49.8L276.17,41.81L276.96,52.47L277.76,46.25L278.55,46.25L279.34,52.69L280.14,45.81L280.93,47.36L281.72,54.02L282.52,45.14L283.31,50.47L284.1,49.58L284.9,53.8L285.69,41.81L286.48,51.8L287.28,58.68L288.07,46.25L288.87,44.25L289.66,58.24L290.45,39.37L291.25,50.69L292.83,45.81L293.63,49.8L294.42,46.47L295.21,32.93L296.01,47.14L296.8,44.03L297.6,39.59L298.39,41.14L299.18,47.14L299.98,46.25L300.77,46.25L301.56,36.04L303.15,52.91L303.15,105.52L302.36,113.29L301.56,105.08L299.98,97.31L299.18,99.09L298.39,109.74L297.6,103.97L296.8,108.41L296.01,107.74L295.21,104.41L294.42,95.31L292.83,109.74L292.04,100.2L291.25,95.09L290.45,101.97L289.66,97.98L288.87,98.2L288.07,95.09L287.28,95.09L286.48,106.63L285.69,99.53L284.9,99.53L284.1,97.98L283.31,110.41L282.52,99.09L281.72,108.41L280.93,94.87L280.14,89.76L279.34,95.53L278.55,112.85L277.76,103.53L276.96,104.19L276.17,93.54L275.37,129.28L274.58,112.85L273.79,112.85L272.99,110.41L272.2,117.51L271.41,102.42L270.61,97.31L269.82,99.53L268.23,103.97L267.44,93.09L266.65,95.09L265.85,93.98L265.06,96.42L264.26,121.73L263.47,101.97L262.68,105.3L261.88,95.31L261.09,101.53L260.3,90.43L259.5,90.43L258.71,98.86L257.92,94.65L257.12,99.53L256.33,96.64L255.54,113.07L254.74,109.3L253.15,95.76L252.36,97.98L251.57,117.51L250.77,98.64L249.98,99.53L249.19,92.65L248.39,93.54L247.6,97.31L246.81,130.61L246.01,97.75L245.22,97.53L244.42,99.53L243.63,94.87L242.84,96.64L242.04,104.19L241.25,103.97L239.66,112.85L238.87,105.08L237.28,117.73L236.49,108.41L235.7,106.41L234.9,125.95L234.11,119.07L233.31,103.97L231.73,117.29L230.93,137.49L230.14,116.4L229.35,123.06L228.55,107.52L227.76,117.29L226.97,107.08L226.17,141.49L224.59,112.85L223.79,126.17L223,133.5L222.2,121.73L221.41,111.96L220.62,128.17L219.82,113.52L219.03,130.61L217.44,108.19L216.65,112.63L215.86,130.39L215.06,125.06L214.27,130.61L213.47,100.64L212.68,127.28L211.89,128.17L211.09,124.84L210.3,136.38L209.51,133.05L208.71,110.41L207.92,112.41L207.13,125.06L206.33,128.61L205.54,126.17L204.75,125.5L203.95,121.73L202.36,135.72L201.57,118.18L200.78,110.85L199.98,128.61L198.4,113.74L197.6,128.17L196.81,115.29L196.02,119.07L194.43,125.73L193.64,121.73L192.84,126.17L192.05,123.06L191.25,120.62L190.46,123.06L189.67,135.05L188.87,133.27L188.08,137.27L187.29,130.39L186.49,132.39L185.7,121.73L184.91,127.72L184.11,143.93L183.32,127.72L182.53,127.95L181.73,127.28L180.94,131.94L179.35,128.61L178.56,111.52L177.76,98.42L176.97,126.84L176.18,121.73L175.38,109.3L174.59,122.84L173.8,114.85L173,123.28L172.21,112.63L171.41,109.3L170.62,124.62L169.83,112.63L169.03,128.17L168.24,130.61L167.45,114.85L165.86,103.08L165.07,108.19L163.48,103.97L162.69,124.62L161.89,103.53L161.1,112.41L160.3,96.2L159.51,120.4L158.72,105.3L157.92,118.4L157.13,112.85L156.34,112.85L155.54,119.07L154.75,106.86L153.96,118.4L153.16,112.85L152.37,131.94L151.58,123.06L150.78,106.19L149.99,119.07L149.19,119.07L148.4,116.85L147.61,114.18L146.81,124.84L146.02,153.03L145.23,127.72L144.43,128.61L143.64,126.61L142.85,128.83L142.05,112.41L141.26,126.17L140.46,121.73L139.67,135.05L138.88,114.63L137.29,120.84L136.5,113.29L135.7,117.07L134.91,112.85L134.12,115.51L133.32,123.28L132.53,127.95L131.74,122.62L130.94,126.17L130.15,114.85L128.56,123.51L127.77,133.05L126.97,133.27L126.18,125.28L125.39,139.93L124.59,133.05L123.8,148.15L123.01,141.04L122.21,138.38L121.42,144.82L119.83,131.72L119.04,135.94L118.24,138.6L117.45,137.94L115.86,134.16L115.07,143.93L114.28,142.82L113.48,147.93L112.69,145.71L111.9,137.27L111.1,136.83L110.31,139.27L109.52,138.16L108.72,138.38L107.93,138.6L107.13,145.71L106.34,142.15L105.55,142.82L104.75,149.04L103.96,139.27L102.37,149.92L101.58,150.15L99.99,141.04L99.2,146.37L97.61,141.49L96.82,156.36L96.02,155.25L95.23,142.15L94.44,164.13L93.64,162.58L92.06,172.57L91.26,184.33L90.47,177.9L89.68,182.56L88.09,197.43L87.29,207.42L86.5,183.45L85.71,195.43L84.12,182.78L83.33,183.45L82.53,192.33L81.74,189.44L80.95,183L80.15,206.31L79.36,198.32L78.57,180.12L76.18,194.32L75.39,183L73.8,189.44L73.01,199.65L72.22,192.99L71.42,201.65L69.84,195.88L69.04,208.09L68.25,201.87L67.45,204.31L65.87,211.42L65.07,222.3L64.28,207.64L63.49,212.97L62.69,222.74L61.9,216.3L60.31,231.84L59.52,222.96L58.73,227.62L57.93,227.4L57.14,230.73L56.34,229.62L54.76,241.61L53.96,237.17L53.17,229.18L52.38,233.17L51.58,229.4L50.79,239.17L49.2,232.73L48.41,232.73L46.82,237.17L46.03,236.06L44.44,241.61L43.65,241.61L42.85,239.17L42.06,239.39L41.27,237.17L40.47,241.61L39.68,240.28L38.89,241.61L38.09,242.05L37.3,243.61L36.51,242.94L35.71,243.61L33.33,242.72L32.54,243.39L31.74,244.27L30.95,243.39L29.36,242.28L28.57,243.39L25.39,244.27L24.6,243.83L17.46,244.27L16.67,244.72L14.28,244.72L13.49,244.72L11.9,244.27L11.11,244.27L10.32,244.05L9.52,244.72L6.35,244.5L5.56,244.5L3.17,244.5L2.38,244.72L1.59,245.16L0.79,244.5L0,244.94Z" style="fill: rgb(239, 85, 59); fill-opacity: 0.3; stroke-width: 0;"/></g></g><g class="errorbars"/><g class="lines"><path class="js-line" d="M0,244.27L1.59,243.61L2.38,241.83L4.76,240.72L5.56,238.72L6.35,238.5L7.14,232.73L7.94,230.95L8.73,232.29L9.52,232.95L10.32,229.62L11.11,237.84L11.9,230.29L12.7,230.29L13.49,235.84L14.28,233.62L15.08,236.73L15.87,238.5L16.67,222.07L17.46,237.17L18.25,229.84L19.05,223.41L19.84,224.52L20.63,219.41L21.43,222.74L23.01,214.75L23.81,212.08L24.6,217.19L25.39,212.31L26.98,219.41L27.78,203.87L28.57,219.41L29.36,210.09L30.16,183.67L30.95,196.99L31.74,180.34L32.54,201.43L34.92,183.89L35.71,192.77L36.51,184.33L37.3,188.55L38.89,173.23L39.68,182.11L40.47,167.91L41.27,186.55L42.06,172.79L42.85,179.89L43.65,176.34L44.44,178.78L45.23,176.56L46.03,178.12L47.62,161.69L48.41,163.47L49.2,169.02L50,151.48L50.79,160.14L51.58,143.93L53.17,158.58L53.96,153.7L54.76,150.81L55.55,138.38L56.34,143.93L57.14,139.49L57.93,123.28L58.73,129.72L59.52,124.17L60.31,126.61L61.9,105.3L62.69,112.85L63.49,113.52L64.28,109.3L65.07,108.41L65.87,105.52L67.45,111.74L68.25,101.53L69.04,99.75L69.84,95.09L70.63,110.63L71.42,95.09L72.22,99.53L73.01,99.31L73.8,81.1L74.6,90.65L75.39,86.21L76.18,91.76L76.98,100.42L77.77,88.21L78.57,80.44L79.36,85.32L80.95,95.76L81.74,93.31L82.53,91.76L83.33,81.77L84.91,85.32L85.71,77.33L86.5,70.89L87.29,78.88L88.09,90.65L88.88,78.44L90.47,75.78L91.26,86.88L92.06,78.66L92.85,82.21L94.44,70.45L95.23,65.12L96.82,77.33L97.61,68.01L98.4,74.22L99.2,67.78L99.99,77.77L100.79,74.44L101.58,64.45L102.37,72.89L103.17,65.56L103.96,68.45L105.55,76.66L106.34,71.34L107.13,72.89L107.93,60.24L108.72,67.12L109.52,62.68L110.31,71.56L111.1,71.11L111.9,68.01L112.69,73.11L113.48,77.11L114.28,71.34L115.07,74L115.86,58.68L117.45,68.01L118.24,65.34L119.83,57.35L120.63,68.89L121.42,69.34L122.21,72.89L123.01,73.33L123.8,69.78L124.59,68.67L125.39,70.67L126.97,61.79L127.77,68.23L129.35,59.57L130.15,64.01L130.94,76.66L131.74,66.9L132.53,60.68L133.32,64.68L134.91,60.9L135.7,61.35L136.5,58.02L137.29,59.35L138.08,59.79L138.88,58.68L139.67,60.46L140.46,56.02L141.26,54.46L142.05,57.57L142.85,59.79L143.64,57.57L144.43,59.79L145.23,54.91L146.02,59.13L146.81,47.8L147.61,54.02L148.4,46.25L149.19,54.69L149.99,52.91L150.78,47.8L151.58,50.91L152.37,54.69L153.16,41.81L154.75,51.58L155.54,48.03L156.34,47.8L157.13,44.25L157.92,45.14L158.72,55.57L161.1,47.58L161.89,50.02L163.48,52.02L164.27,46.03L165.07,50.25L165.86,48.03L166.65,52.02L167.45,52.02L168.24,53.8L169.03,53.13L169.83,45.58L170.62,50.69L171.41,49.58L172.21,44.7L173,43.59L173.8,49.14L174.59,56.68L175.38,47.8L176.18,55.57L176.97,46.47L177.76,46.25L178.56,48.47L180.14,57.35L180.94,52.24L181.73,43.59L182.53,46.25L183.32,53.58L184.11,46.03L185.7,41.37L186.49,51.8L187.29,46.69L188.08,46.92L188.87,42.7L189.67,50.69L191.25,45.36L192.05,47.14L192.84,40.03L193.64,46.25L194.43,43.59L195.22,45.58L196.02,45.81L196.81,35.82L198.4,54.02L199.19,43.81L199.98,42.7L200.78,44.47L201.57,46.25L202.36,45.58L203.16,54.24L203.95,46.25L204.75,47.8L205.54,43.59L206.33,53.35L207.13,43.14L208.71,57.57L209.51,49.14L210.3,53.13L211.09,42.92L211.89,41.81L212.68,51.36L214.27,50.69L215.06,47.14L215.86,45.36L216.65,46.25L217.44,50.91L218.24,42.92L219.03,41.81L219.82,46.92L220.62,50.69L221.41,42.48L223,51.13L223.79,53.13L225.38,41.59L226.17,58.68L226.97,46.25L227.76,55.13L228.55,43.14L229.35,50.91L230.14,41.81L230.93,54.02L231.73,56.24L232.52,48.25L233.31,47.8L234.11,38.26L235.7,52.02L236.49,47.14L237.28,52.91L238.08,50.47L238.87,50.91L239.66,44.92L240.46,42.92L241.25,47.8L242.04,46.25L242.84,38.92L245.22,56.68L246.01,55.13L246.81,45.58L247.6,48.25L248.39,41.81L249.19,47.8L249.98,41.81L250.77,49.14L251.57,43.81L252.36,44.92L253.15,41.14L253.95,42.92L254.74,48.69L255.54,40.92L257.12,50.69L257.92,50.02L258.71,56.02L259.5,40.03L261.09,42.7L261.88,42.03L262.68,57.13L263.47,55.13L264.26,44.47L265.06,46.25L265.85,51.36L266.65,50.69L267.44,50.25L268.23,57.57L269.82,45.81L270.61,55.35L271.41,40.92L272.2,48.69L272.99,51.36L273.79,50.69L274.58,54.69L275.37,49.8L276.17,41.81L276.96,52.47L277.76,46.25L278.55,46.25L279.34,52.69L280.14,45.81L280.93,47.36L281.72,54.02L282.52,45.14L283.31,50.47L284.1,49.58L284.9,53.8L285.69,41.81L286.48,51.8L287.28,58.68L288.07,46.25L288.87,44.25L289.66,58.24L290.45,39.37L291.25,50.69L292.83,45.81L293.63,49.8L294.42,46.47L295.21,32.93L296.01,47.14L296.8,44.03L297.6,39.59L298.39,41.14L299.18,47.14L299.98,46.25L300.77,46.25L301.56,36.04L303.15,52.91L303.15,105.52L302.36,113.29L301.56,105.08L299.98,97.31L299.18,99.09L298.39,109.74L297.6,103.97L296.8,108.41L296.01,107.74L295.21,104.41L294.42,95.31L292.83,109.74L292.04,100.2L291.25,95.09L290.45,101.97L289.66,97.98L288.87,98.2L288.07,95.09L287.28,95.09L286.48,106.63L285.69,99.53L284.9,99.53L284.1,97.98L283.31,110.41L282.52,99.09L281.72,108.41L280.93,94.87L280.14,89.76L279.34,95.53L278.55,112.85L277.76,103.53L276.96,104.19L276.17,93.54L275.37,129.28L274.58,112.85L273.79,112.85L272.99,110.41L272.2,117.51L271.41,102.42L270.61,97.31L269.82,99.53L268.23,103.97L267.44,93.09L266.65,95.09L265.85,93.98L265.06,96.42L264.26,121.73L263.47,101.97L262.68,105.3L261.88,95.31L261.09,101.53L260.3,90.43L259.5,90.43L258.71,98.86L257.92,94.65L257.12,99.53L256.33,96.64L255.54,113.07L254.74,109.3L253.15,95.76L252.36,97.98L251.57,117.51L250.77,98.64L249.98,99.53L249.19,92.65L248.39,93.54L247.6,97.31L246.81,130.61L246.01,97.75L245.22,97.53L244.42,99.53L243.63,94.87L242.84,96.64L242.04,104.19L241.25,103.97L239.66,112.85L238.87,105.08L237.28,117.73L236.49,108.41L235.7,106.41L234.9,125.95L234.11,119.07L233.31,103.97L231.73,117.29L230.93,137.49L230.14,116.4L229.35,123.06L228.55,107.52L227.76,117.29L226.97,107.08L226.17,141.49L224.59,112.85L223.79,126.17L223,133.5L222.2,121.73L221.41,111.96L220.62,128.17L219.82,113.52L219.03,130.61L217.44,108.19L216.65,112.63L215.86,130.39L215.06,125.06L214.27,130.61L213.47,100.64L212.68,127.28L211.89,128.17L211.09,124.84L210.3,136.38L209.51,133.05L208.71,110.41L207.92,112.41L207.13,125.06L206.33,128.61L205.54,126.17L204.75,125.5L203.95,121.73L202.36,135.72L201.57,118.18L200.78,110.85L199.98,128.61L198.4,113.74L197.6,128.17L196.81,115.29L196.02,119.07L194.43,125.73L193.64,121.73L192.84,126.17L192.05,123.06L191.25,120.62L190.46,123.06L189.67,135.05L188.87,133.27L188.08,137.27L187.29,130.39L186.49,132.39L185.7,121.73L184.91,127.72L184.11,143.93L183.32,127.72L182.53,127.95L181.73,127.28L180.94,131.94L179.35,128.61L178.56,111.52L177.76,98.42L176.97,126.84L176.18,121.73L175.38,109.3L174.59,122.84L173.8,114.85L173,123.28L172.21,112.63L171.41,109.3L170.62,124.62L169.83,112.63L169.03,128.17L168.24,130.61L167.45,114.85L165.86,103.08L165.07,108.19L163.48,103.97L162.69,124.62L161.89,103.53L161.1,112.41L160.3,96.2L159.51,120.4L158.72,105.3L157.92,118.4L157.13,112.85L156.34,112.85L155.54,119.07L154.75,106.86L153.96,118.4L153.16,112.85L152.37,131.94L151.58,123.06L150.78,106.19L149.99,119.07L149.19,119.07L148.4,116.85L147.61,114.18L146.81,124.84L146.02,153.03L145.23,127.72L144.43,128.61L143.64,126.61L142.85,128.83L142.05,112.41L141.26,126.17L140.46,121.73L139.67,135.05L138.88,114.63L137.29,120.84L136.5,113.29L135.7,117.07L134.91,112.85L134.12,115.51L133.32,123.28L132.53,127.95L131.74,122.62L130.94,126.17L130.15,114.85L128.56,123.51L127.77,133.05L126.97,133.27L126.18,125.28L125.39,139.93L124.59,133.05L123.8,148.15L123.01,141.04L122.21,138.38L121.42,144.82L119.83,131.72L119.04,135.94L118.24,138.6L117.45,137.94L115.86,134.16L115.07,143.93L114.28,142.82L113.48,147.93L112.69,145.71L111.9,137.27L111.1,136.83L110.31,139.27L109.52,138.16L108.72,138.38L107.93,138.6L107.13,145.71L106.34,142.15L105.55,142.82L104.75,149.04L103.96,139.27L102.37,149.92L101.58,150.15L99.99,141.04L99.2,146.37L97.61,141.49L96.82,156.36L96.02,155.25L95.23,142.15L94.44,164.13L93.64,162.58L92.06,172.57L91.26,184.33L90.47,177.9L89.68,182.56L88.09,197.43L87.29,207.42L86.5,183.45L85.71,195.43L84.12,182.78L83.33,183.45L82.53,192.33L81.74,189.44L80.95,183L80.15,206.31L79.36,198.32L78.57,180.12L76.18,194.32L75.39,183L73.8,189.44L73.01,199.65L72.22,192.99L71.42,201.65L69.84,195.88L69.04,208.09L68.25,201.87L67.45,204.31L65.87,211.42L65.07,222.3L64.28,207.64L63.49,212.97L62.69,222.74L61.9,216.3L60.31,231.84L59.52,222.96L58.73,227.62L57.93,227.4L57.14,230.73L56.34,229.62L54.76,241.61L53.96,237.17L53.17,229.18L52.38,233.17L51.58,229.4L50.79,239.17L49.2,232.73L48.41,232.73L46.82,237.17L46.03,236.06L44.44,241.61L43.65,241.61L42.85,239.17L42.06,239.39L41.27,237.17L40.47,241.61L39.68,240.28L38.89,241.61L38.09,242.05L37.3,243.61L36.51,242.94L35.71,243.61L33.33,242.72L32.54,243.39L31.74,244.27L30.95,243.39L29.36,242.28L28.57,243.39L25.39,244.27L24.6,243.83L17.46,244.27L16.67,244.72L14.28,244.72L13.49,244.72L11.9,244.27L11.11,244.27L10.32,244.05L9.52,244.72L6.35,244.5L5.56,244.5L3.17,244.5L2.38,244.72L1.59,245.16L0.79,244.5L0,244.94" style="vector-effect: non-scaling-stroke; fill: none; stroke: rgb(0, 0, 0); stroke-opacity: 0; stroke-width: 2px; opacity: 1;"/></g><g class="points"/><g class="text"/></g><g class="trace scatter trace49c7bd" style="stroke-miterlimit: 2; opacity: 1;"><g class="fills"/><g class="errorbars"/><g class="lines"><path class="js-line" d="M0,246.05L2.38,246.05L3.17,243.83L4.76,246.05L5.56,243.83L7.14,243.83L7.94,246.05L9.52,246.05L10.32,239.39L11.11,243.83L11.9,241.61L12.7,246.05L13.49,243.83L14.28,246.05L15.08,239.39L15.87,241.61L16.67,241.61L17.46,246.05L18.25,246.05L19.05,246.05L19.84,243.83L20.63,243.83L21.43,246.05L22.22,241.61L23.01,243.83L25.39,243.83L26.19,246.05L27.78,246.05L28.57,243.83L29.36,241.61L30.16,243.83L31.74,239.39L32.54,239.39L33.33,243.83L34.12,239.39L35.71,232.73L36.51,230.51L38.09,243.83L38.89,221.63L39.68,232.73L40.47,232.73L41.27,241.61L42.06,230.51L42.85,219.41L43.65,239.39L45.23,226.07L46.03,241.61L47.62,206.09L48.41,217.19L50,210.53L50.79,210.53L52.38,197.21L53.17,206.09L53.96,214.97L54.76,190.55L55.55,181.67L56.34,194.99L57.93,172.79L58.73,197.21L59.52,179.45L60.31,199.43L61.11,183.89L61.9,197.21L62.69,203.87L63.49,190.55L64.28,170.57L65.07,170.57L66.66,139.49L67.45,161.69L68.25,192.77L69.04,179.45L69.84,177.23L70.63,186.11L71.42,175.01L72.22,190.55L73.01,175.01L73.8,177.23L74.6,179.45L75.39,197.21L76.98,163.91L77.77,166.13L78.57,161.69L79.36,179.45L80.15,166.13L80.95,188.33L82.53,175.01L83.33,152.81L84.12,166.13L84.91,192.77L85.71,175.01L86.5,186.11L89.68,146.15L90.47,157.25L91.26,146.15L92.06,159.47L92.85,177.23L93.64,159.47L94.44,115.07L95.23,161.69L96.02,143.93L96.82,163.91L97.61,146.15L98.4,170.57L99.2,135.05L99.99,139.49L100.79,170.57L101.58,143.93L102.37,132.83L103.17,146.15L103.96,126.17L104.75,152.81L105.55,139.49L106.34,141.71L107.13,135.05L107.93,119.51L108.72,159.47L109.52,126.17L111.1,117.29L111.9,121.73L112.69,112.85L113.48,143.93L114.28,152.81L115.07,132.83L117.45,141.71L118.24,110.63L119.04,132.83L119.83,130.61L120.63,126.17L121.42,101.75L122.21,141.71L123.01,115.07L123.8,132.83L124.59,121.73L125.39,130.61L126.18,123.95L126.97,121.73L127.77,128.39L128.56,143.93L129.35,135.05L130.15,108.41L130.94,117.29L132.53,130.61L133.32,148.37L134.91,108.41L135.7,137.27L136.5,141.71L137.29,123.95L138.08,99.53L138.88,103.97L139.67,119.51L140.46,115.07L141.26,132.83L142.05,103.97L142.85,143.93L143.64,128.39L144.43,157.25L145.23,121.73L146.02,106.19L146.81,132.83L147.61,119.51L148.4,123.95L149.99,99.53L150.78,119.51L151.58,117.29L152.37,123.95L153.16,108.41L153.96,117.29L154.75,128.39L155.54,119.51L156.34,137.27L157.13,123.95L157.92,106.19L158.72,130.61L159.51,97.31L160.3,126.17L161.1,99.53L161.89,121.73L162.69,81.77L163.48,110.63L164.27,123.95L165.07,99.53L165.86,126.17L166.65,119.51L167.45,92.87L168.24,117.29L169.03,128.39L169.83,115.07L170.62,128.39L171.41,128.39L172.21,79.55L173,128.39L174.59,95.09L175.38,128.39L176.18,72.89L176.97,92.87L177.76,132.83L178.56,97.31L179.35,103.97L180.14,83.99L181.73,123.95L182.53,101.75L183.32,132.83L184.11,99.53L184.91,106.19L185.7,92.87L186.49,115.07L187.29,81.77L188.08,92.87L188.87,83.99L190.46,121.73L191.25,108.41L192.05,101.75L192.84,117.29L193.64,126.17L194.43,106.19L195.22,110.63L196.02,99.53L196.81,83.99L197.6,108.41L198.4,99.53L199.19,99.53L200.78,137.27L201.57,95.09L202.36,92.87L203.16,108.41L203.95,92.87L204.75,112.85L205.54,79.55L206.33,146.15L207.13,130.61L207.92,88.43L208.71,137.27L209.51,115.07L210.3,135.05L211.09,103.97L211.89,95.09L212.68,97.31L214.27,121.73L215.06,95.09L215.86,92.87L216.65,101.75L217.44,72.89L218.24,75.11L219.03,106.19L219.82,79.55L220.62,90.65L221.41,90.65L222.2,83.99L223,99.53L224.59,106.19L225.38,115.07L226.17,135.05L226.97,90.65L227.76,112.85L228.55,95.09L229.35,88.43L230.14,108.41L230.93,101.75L231.73,110.63L233.31,135.05L234.11,108.41L234.9,86.21L235.7,106.19L236.49,86.21L237.28,86.21L238.08,101.75L238.87,99.53L239.66,81.77L240.46,97.31L241.25,115.07L242.04,150.59L242.84,97.31L243.63,143.93L245.22,97.31L246.01,121.73L246.81,101.75L247.6,101.75L248.39,75.11L249.19,97.31L250.77,119.51L251.57,106.19L252.36,108.41L253.15,97.31L253.95,92.87L254.74,68.45L255.54,103.97L256.33,90.65L257.12,83.99L257.92,97.31L258.71,110.63L259.5,88.43L261.09,123.95L261.88,95.09L262.68,90.65L263.47,101.75L265.06,121.73L265.85,126.17L266.65,70.67L267.44,88.43L268.23,121.73L269.03,86.21L269.82,103.97L270.61,141.71L271.41,95.09L272.2,97.31L272.99,77.33L273.79,88.43L274.58,92.87L275.37,126.17L276.17,119.51L276.96,101.75L277.76,88.43L278.55,97.31L279.34,86.21L280.14,108.41L280.93,79.55L281.72,115.07L282.52,115.07L283.31,139.49L284.1,88.43L284.9,90.65L285.69,110.63L286.48,95.09L287.28,103.97L288.07,92.87L288.87,135.05L289.66,121.73L290.45,112.85L291.25,115.07L292.04,97.31L292.83,117.29L293.63,128.39L294.42,66.23L295.21,112.85L296.01,108.41L296.8,146.15L297.6,88.43L298.39,83.99L299.18,99.53L299.98,103.97L300.77,117.29L301.56,121.73L302.36,86.21L303.15,135.05L303.94,106.19L304.74,106.19L305.53,92.87L306.32,121.73L307.12,81.77L308.71,117.29L309.5,108.41L310.29,146.15L311.09,101.75L311.88,119.51L312.67,117.29L313.47,126.17L314.26,110.63L315.05,79.55L315.85,141.71L317.43,70.67L318.23,110.63L319.02,141.71L319.82,106.19L320.61,97.31L321.4,112.85L322.2,123.95L322.99,99.53L324.58,106.19L325.37,79.55L326.96,110.63L327.75,99.53L328.55,110.63L329.34,97.31L330.13,79.55L330.93,121.73L331.72,88.43L332.51,123.95L333.31,108.41L334.1,123.95L334.89,123.95L335.69,75.11L336.48,92.87L337.27,61.79L338.86,119.51L339.66,108.41L340.45,119.51L341.24,79.55L342.04,135.05L342.83,110.63L343.62,117.29L344.42,108.41L345.21,103.97L346,121.73L346.8,90.65" style="vector-effect: non-scaling-stroke; fill: none; stroke: rgb(0, 204, 150); stroke-opacity: 1; stroke-width: 2px; opacity: 1;"/></g><g class="points"/><g class="text"/></g><g class="trace scatter trace29a6d7" style="stroke-miterlimit: 2; opacity: 1;"><g class="fills"><g><path class="js-fill" d="M0,244.94L0.79,244.94L1.59,246.05L2.38,246.05L3.17,239.39L3.97,244.94L4.76,244.94L5.56,236.06L6.35,239.39L7.14,239.39L7.94,246.05L8.73,244.94L9.52,246.05L10.32,232.73L11.11,233.84L11.9,223.85L12.7,231.62L13.49,234.95L14.28,232.73L15.87,212.75L16.67,213.86L18.25,226.07L19.05,219.41L19.84,214.97L20.63,224.96L23.01,229.4L23.81,222.74L24.6,219.41L25.39,229.4L26.19,223.85L26.98,234.95L28.57,211.64L29.36,210.53L30.16,207.2L30.95,208.31L31.74,207.2L32.54,214.97L33.33,226.07L34.12,198.32L35.71,208.31L36.51,206.09L37.3,197.21L38.09,212.75L38.89,206.09L39.68,216.08L40.47,194.99L41.27,216.08L42.85,198.32L43.65,197.21L44.44,192.77L45.23,192.77L46.03,201.65L46.82,180.56L47.62,179.45L48.41,176.12L49.2,168.35L50,175.01L51.58,143.93L52.38,163.91L53.17,161.69L53.96,171.68L55.55,137.27L56.34,177.23L57.93,141.71L58.73,137.27L59.52,161.69L60.31,149.48L61.11,138.38L61.9,178.34L62.69,173.9L63.49,150.59L64.28,160.58L65.07,131.72L65.87,99.53L66.66,101.75L67.45,111.74L68.25,153.92L69.04,129.5L69.84,131.72L70.63,145.04L71.42,139.49L72.22,138.38L73.01,127.28L73.8,130.61L74.6,106.19L75.39,145.04L76.18,109.52L77.77,129.5L78.57,105.08L80.95,159.47L81.74,147.26L82.53,146.15L83.33,97.31L85.71,150.59L86.5,153.92L87.29,125.06L88.09,126.17L88.88,118.4L89.68,99.53L90.47,118.4L91.26,81.77L92.85,129.5L93.64,115.07L94.44,71.78L95.23,120.62L96.02,100.64L96.82,113.96L97.61,88.43L98.4,140.6L99.2,80.66L99.99,90.65L100.79,122.84L101.58,110.63L102.37,107.3L103.17,92.87L103.96,96.2L104.75,142.82L105.55,95.09L106.34,109.52L107.13,113.96L107.93,66.23L108.72,155.03L109.52,85.1L110.31,85.1L111.1,91.76L111.9,86.21L112.69,70.67L113.48,129.5L114.28,102.86L115.07,86.21L115.86,89.54L117.45,106.19L118.24,59.57L119.83,98.42L120.63,80.66L121.42,64.01L122.21,81.77L123.01,93.98L123.8,87.32L124.59,87.32L125.39,80.66L126.18,99.53L126.97,89.54L127.77,91.76L128.56,105.08L130.15,61.79L130.94,81.77L131.74,103.97L132.53,79.55L133.32,101.75L134.12,75.11L134.91,68.45L135.7,81.77L136.5,117.29L137.29,76.22L138.08,54.02L138.88,79.55L139.67,55.13L140.46,93.98L141.26,89.54L142.05,76.22L142.85,89.54L143.64,75.11L144.43,103.97L145.23,93.98L146.02,55.13L146.81,128.39L147.61,57.35L148.4,91.76L149.19,100.64L149.99,35.15L150.78,86.21L151.58,76.22L152.37,51.8L153.16,82.88L153.96,69.56L154.75,83.99L155.54,67.34L156.34,86.21L157.92,58.46L158.72,74L159.51,74L160.3,75.11L161.1,39.59L161.89,69.56L162.69,36.26L163.48,86.21L164.27,66.23L165.07,89.54L165.86,72.89L166.65,79.55L167.45,74L168.24,76.22L169.03,83.99L169.83,69.56L170.62,103.97L171.41,62.9L172.21,32.93L173,80.66L173.8,69.56L174.59,77.33L175.38,68.45L176.18,32.93L177.76,81.77L178.56,46.25L179.35,40.7L180.14,59.57L180.94,71.78L181.73,65.12L182.53,44.03L183.32,100.64L184.11,60.68L184.91,72.89L185.7,75.11L186.49,57.35L188.08,39.59L188.87,54.02L189.67,50.69L190.46,67.34L191.25,59.57L192.05,32.93L193.64,76.22L194.43,81.77L195.22,91.76L196.02,38.48L196.81,57.35L197.6,95.09L199.19,34.04L199.98,57.35L200.78,68.45L201.57,45.14L202.36,34.04L203.16,69.56L203.95,48.47L204.75,61.79L205.54,50.69L206.33,80.66L207.92,45.14L208.71,110.63L209.51,48.47L210.3,51.8L211.09,57.35L211.89,44.03L212.68,47.36L213.47,65.12L214.27,74L215.06,68.45L215.86,44.03L216.65,51.8L217.44,57.35L218.24,24.05L219.03,54.02L219.82,24.05L221.41,35.15L222.2,35.15L223,30.71L223.79,51.8L224.59,45.14L225.38,54.02L226.17,71.78L226.97,51.8L227.76,59.57L228.55,59.57L229.35,64.01L230.14,58.46L231.73,52.91L232.52,69.56L233.31,92.87L234.11,39.59L234.9,55.13L235.7,49.58L236.49,35.15L237.28,54.02L238.08,45.14L238.87,54.02L239.66,66.23L240.46,48.47L241.25,58.46L242.04,100.64L243.63,57.35L244.42,70.67L245.22,72.89L246.01,58.46L246.81,19.61L247.6,56.24L248.39,32.93L249.19,46.25L249.98,44.03L250.77,69.56L251.57,72.89L252.36,72.89L253.95,47.36L254.74,44.03L255.54,62.9L256.33,50.69L257.12,12.95L257.92,65.12L258.71,34.04L259.5,35.15L261.09,92.87L261.88,37.37L263.47,65.12L264.26,69.56L265.06,62.9L265.85,91.76L267.44,40.7L268.23,62.9L269.03,35.15L269.82,83.99L270.61,95.09L271.41,26.27L272.2,36.26L272.99,31.82L273.79,69.56L274.58,37.37L275.37,72.89L276.17,65.12L277.76,47.36L278.55,67.34L279.34,44.03L280.14,46.25L281.72,79.55L282.52,77.33L284.1,60.68L284.9,26.27L285.69,67.34L286.48,48.47L287.28,71.78L288.07,64.01L288.87,56.24L289.66,88.43L290.45,42.92L291.25,60.68L292.04,41.81L292.83,67.34L293.63,96.2L294.42,46.25L295.21,82.88L296.01,57.35L296.8,76.22L297.6,62.9L298.39,46.25L299.18,59.57L299.98,54.02L300.77,93.98L302.36,18.5L303.15,91.76L303.94,47.36L304.74,49.58L306.32,71.78L307.12,41.81L307.91,61.79L308.71,61.79L310.29,92.87L311.09,79.55L311.88,72.89L312.67,78.44L313.47,83.99L314.26,47.36L315.85,96.2L316.64,90.65L317.43,34.04L318.23,66.23L319.02,108.41L319.82,57.35L321.4,80.66L322.2,68.45L322.99,50.69L323.78,62.9L324.58,80.66L325.37,34.04L326.96,74L327.75,61.79L328.55,81.77L329.34,51.8L330.13,45.14L330.93,74L331.72,44.03L332.51,86.21L333.31,64.01L334.1,92.87L335.69,40.7L336.48,39.59L337.27,26.27L338.07,55.13L338.86,58.46L339.66,68.45L340.45,76.22L341.24,55.13L342.04,96.2L342.83,90.65L345.21,47.36L346,71.78L346.8,25.16L346.8,170.57L345.21,176.12L344.42,172.79L343.62,171.68L342.83,149.48L342.04,169.46L341.24,136.16L340.45,168.35L339.66,161.69L338.86,182.78L338.07,151.7L337.27,126.17L336.48,162.8L335.69,138.38L334.89,209.42L334.1,166.13L333.31,169.46L332.51,171.68L331.72,156.14L330.93,186.11L330.13,138.38L329.34,165.02L328.55,159.47L326.96,156.14L326.16,167.24L325.37,147.26L324.58,155.03L323.78,166.13L322.99,162.8L322.2,188.33L321.4,156.14L320.61,141.71L319.82,172.79L319.02,178.34L318.23,172.79L317.43,139.49L316.64,169.46L315.85,197.21L315.05,122.84L314.26,179.45L313.47,172.79L312.67,166.13L311.88,181.67L311.09,146.15L310.29,199.43L309.5,159.47L308.71,186.11L307.12,149.48L306.32,176.12L305.53,150.59L304.74,176.12L303.15,189.44L302.36,168.35L301.56,207.2L300.77,147.26L299.98,172.79L299.18,146.15L298.39,152.81L297.6,141.71L296.8,212.75L296.01,179.45L294.42,122.84L293.63,163.91L292.83,172.79L292.04,169.46L290.45,190.55L289.66,172.79L288.87,208.31L288.07,149.48L287.28,147.26L286.48,157.25L284.9,175.01L284.1,132.83L283.31,212.75L282.52,171.68L281.72,162.8L280.93,122.84L280.14,186.11L279.34,152.81L278.55,139.49L277.76,155.03L276.96,158.36L276.17,185L275.37,189.44L274.58,169.46L273.79,132.83L272.99,152.81L272.2,179.45L271.41,176.12L270.61,186.11L269.82,151.7L269.03,162.8L268.23,187.22L266.65,116.18L265.85,179.45L265.06,193.88L264.26,179.45L262.68,140.6L261.88,171.68L261.09,176.12L260.3,175.01L259.5,158.36L258.71,199.43L257.92,156.14L257.12,173.9L256.33,149.48L255.54,162.8L254.74,129.5L253.95,153.92L252.36,165.02L251.57,159.47L249.98,182.78L249.19,165.02L248.39,146.15L247.6,158.36L246.81,196.1L246.01,190.55L245.22,149.48L244.42,186.11L243.63,222.74L242.84,156.14L242.04,199.43L241.25,176.12L240.46,168.35L239.66,132.83L238.08,178.34L237.28,149.48L235.7,178.34L234.9,138.38L234.11,189.44L233.31,179.45L232.52,191.66L231.73,177.23L230.93,172.79L230.14,172.79L229.35,140.6L228.55,159.47L227.76,169.46L226.97,155.03L226.17,200.54L225.38,185L224.59,186.11L223.79,167.24L223,182.78L222.2,157.25L220.62,172.79L219.82,159.47L219.03,176.12L218.24,155.03L217.44,125.06L216.65,172.79L215.06,151.7L214.27,182.78L212.68,166.13L211.89,169.46L211.09,171.68L210.3,219.41L207.92,159.47L207.13,209.42L206.33,206.09L205.54,139.49L204.75,180.56L203.95,162.8L203.16,167.24L202.36,167.24L201.57,169.46L200.78,211.64L199.98,182.78L199.19,182.78L197.6,146.15L196.81,135.05L196.02,178.34L195.22,146.15L193.64,182.78L192.84,166.13L192.05,181.67L191.25,172.79L189.67,199.43L188.87,146.15L188.08,169.46L187.29,142.82L186.49,169.46L185.7,139.49L184.91,159.47L184.11,155.03L183.32,178.34L182.53,176.12L181.73,188.33L180.94,178.34L180.14,139.49L179.35,182.78L178.56,169.46L177.76,196.1L176.18,146.15L175.38,199.43L174.59,141.71L173.8,165.02L173,188.33L172.21,151.7L171.41,204.98L170.62,169.46L169.83,175.01L169.03,186.11L168.24,175.01L167.45,138.38L165.86,182.78L165.07,142.82L164.27,185L163.48,156.14L162.69,152.81L161.89,181.67L161.1,179.45L160.3,182.78L159.51,149.48L158.72,192.77L157.92,170.57L157.13,178.34L156.34,196.1L155.54,188.33L153.16,159.47L152.37,204.98L150.78,161.69L149.99,182.78L149.19,156.14L148.4,176.12L147.61,189.44L146.81,162.8L146.02,176.12L145.23,168.35L144.43,212.75L143.64,196.1L142.85,189.44L142.05,145.04L141.26,182.78L140.46,149.48L139.67,194.99L138.88,153.92L138.08,161.69L137.29,182.78L136.5,168.35L135.7,199.43L134.12,162.8L133.32,199.43L132.53,192.77L131.74,159.47L130.15,172.79L129.35,194.99L126.97,165.02L126.18,162.8L125.39,192.77L124.59,166.13L123.8,179.45L123.01,159.47L122.21,202.76L121.42,166.13L119.83,182.78L119.04,189.44L118.24,168.35L117.45,181.67L116.66,188.33L115.86,186.11L115.07,186.11L114.28,206.09L113.48,171.68L112.69,172.79L111.9,172.79L111.1,166.13L110.31,166.13L109.52,179.45L107.93,185L107.13,163.91L105.55,198.32L104.75,182.78L103.96,172.79L103.17,201.65L102.37,172.79L101.58,186.11L100.79,216.08L99.99,199.43L99.2,189.44L98.4,209.42L96.82,199.43L96.02,183.89L95.23,196.1L94.44,178.34L92.85,223.85L92.06,209.42L91.26,209.42L90.47,206.09L89.68,198.32L88.88,206.09L88.09,201.65L87.29,213.86L86.5,212.75L85.71,209.42L84.91,227.18L84.12,214.97L83.33,209.42L82.53,198.32L81.74,196.1L80.95,208.31L80.15,206.09L79.36,222.74L76.98,196.1L76.18,214.97L74.6,239.39L73.8,216.08L73.01,210.53L72.22,219.41L71.42,209.42L70.63,219.41L69.04,226.07L68.25,224.96L67.45,216.08L66.66,192.77L65.87,219.41L65.07,206.09L64.28,196.1L63.49,219.41L62.69,229.4L61.9,219.41L61.11,219.41L60.31,236.06L59.52,202.76L58.73,236.06L57.93,212.75L57.14,219.41L56.34,211.64L55.55,219.41L53.96,232.73L53.17,231.62L52.38,222.74L51.58,242.72L50.79,242.72L50,239.39L49.2,239.39L48.41,241.61L47.62,216.08L46.82,242.72L46.03,242.72L45.23,241.61L44.44,242.72L43.65,241.61L42.85,228.29L42.06,242.72L41.27,241.61L40.47,246.05L39.68,239.39L38.89,239.39L38.09,246.05L37.3,242.72L36.51,238.28L35.71,241.61L34.92,246.05L34.12,246.05L32.54,246.05L31.74,242.72L30.95,246.05L30.16,246.05L29.36,242.72L28.57,246.05L23.01,246.05L22.22,242.72L21.43,246.05L20.63,246.05L17.46,246.05L16.67,241.61L15.08,242.72L14.28,246.05L11.11,246.05L10.32,242.72L9.52,246.05L8.73,246.05L0,246.05Z" style="fill: rgb(0, 204, 150); fill-opacity: 0.3; stroke-width: 0;"/></g></g><g class="errorbars"/><g class="lines"><path class="js-line" d="M0,244.94L0.79,244.94L1.59,246.05L2.38,246.05L3.17,239.39L3.97,244.94L4.76,244.94L5.56,236.06L6.35,239.39L7.14,239.39L7.94,246.05L8.73,244.94L9.52,246.05L10.32,232.73L11.11,233.84L11.9,223.85L12.7,231.62L13.49,234.95L14.28,232.73L15.87,212.75L16.67,213.86L18.25,226.07L19.05,219.41L19.84,214.97L20.63,224.96L23.01,229.4L23.81,222.74L24.6,219.41L25.39,229.4L26.19,223.85L26.98,234.95L28.57,211.64L29.36,210.53L30.16,207.2L30.95,208.31L31.74,207.2L32.54,214.97L33.33,226.07L34.12,198.32L35.71,208.31L36.51,206.09L37.3,197.21L38.09,212.75L38.89,206.09L39.68,216.08L40.47,194.99L41.27,216.08L42.85,198.32L43.65,197.21L44.44,192.77L45.23,192.77L46.03,201.65L46.82,180.56L47.62,179.45L48.41,176.12L49.2,168.35L50,175.01L51.58,143.93L52.38,163.91L53.17,161.69L53.96,171.68L55.55,137.27L56.34,177.23L57.93,141.71L58.73,137.27L59.52,161.69L60.31,149.48L61.11,138.38L61.9,178.34L62.69,173.9L63.49,150.59L64.28,160.58L65.07,131.72L65.87,99.53L66.66,101.75L67.45,111.74L68.25,153.92L69.04,129.5L69.84,131.72L70.63,145.04L71.42,139.49L72.22,138.38L73.01,127.28L73.8,130.61L74.6,106.19L75.39,145.04L76.18,109.52L77.77,129.5L78.57,105.08L80.95,159.47L81.74,147.26L82.53,146.15L83.33,97.31L85.71,150.59L86.5,153.92L87.29,125.06L88.09,126.17L88.88,118.4L89.68,99.53L90.47,118.4L91.26,81.77L92.85,129.5L93.64,115.07L94.44,71.78L95.23,120.62L96.02,100.64L96.82,113.96L97.61,88.43L98.4,140.6L99.2,80.66L99.99,90.65L100.79,122.84L101.58,110.63L102.37,107.3L103.17,92.87L103.96,96.2L104.75,142.82L105.55,95.09L106.34,109.52L107.13,113.96L107.93,66.23L108.72,155.03L109.52,85.1L110.31,85.1L111.1,91.76L111.9,86.21L112.69,70.67L113.48,129.5L114.28,102.86L115.07,86.21L115.86,89.54L117.45,106.19L118.24,59.57L119.83,98.42L120.63,80.66L121.42,64.01L122.21,81.77L123.01,93.98L123.8,87.32L124.59,87.32L125.39,80.66L126.18,99.53L126.97,89.54L127.77,91.76L128.56,105.08L130.15,61.79L130.94,81.77L131.74,103.97L132.53,79.55L133.32,101.75L134.12,75.11L134.91,68.45L135.7,81.77L136.5,117.29L137.29,76.22L138.08,54.02L138.88,79.55L139.67,55.13L140.46,93.98L141.26,89.54L142.05,76.22L142.85,89.54L143.64,75.11L144.43,103.97L145.23,93.98L146.02,55.13L146.81,128.39L147.61,57.35L148.4,91.76L149.19,100.64L149.99,35.15L150.78,86.21L151.58,76.22L152.37,51.8L153.16,82.88L153.96,69.56L154.75,83.99L155.54,67.34L156.34,86.21L157.92,58.46L158.72,74L159.51,74L160.3,75.11L161.1,39.59L161.89,69.56L162.69,36.26L163.48,86.21L164.27,66.23L165.07,89.54L165.86,72.89L166.65,79.55L167.45,74L168.24,76.22L169.03,83.99L169.83,69.56L170.62,103.97L171.41,62.9L172.21,32.93L173,80.66L173.8,69.56L174.59,77.33L175.38,68.45L176.18,32.93L177.76,81.77L178.56,46.25L179.35,40.7L180.14,59.57L180.94,71.78L181.73,65.12L182.53,44.03L183.32,100.64L184.11,60.68L184.91,72.89L185.7,75.11L186.49,57.35L188.08,39.59L188.87,54.02L189.67,50.69L190.46,67.34L191.25,59.57L192.05,32.93L193.64,76.22L194.43,81.77L195.22,91.76L196.02,38.48L196.81,57.35L197.6,95.09L199.19,34.04L199.98,57.35L200.78,68.45L201.57,45.14L202.36,34.04L203.16,69.56L203.95,48.47L204.75,61.79L205.54,50.69L206.33,80.66L207.92,45.14L208.71,110.63L209.51,48.47L210.3,51.8L211.09,57.35L211.89,44.03L212.68,47.36L213.47,65.12L214.27,74L215.06,68.45L215.86,44.03L216.65,51.8L217.44,57.35L218.24,24.05L219.03,54.02L219.82,24.05L221.41,35.15L222.2,35.15L223,30.71L223.79,51.8L224.59,45.14L225.38,54.02L226.17,71.78L226.97,51.8L227.76,59.57L228.55,59.57L229.35,64.01L230.14,58.46L231.73,52.91L232.52,69.56L233.31,92.87L234.11,39.59L234.9,55.13L235.7,49.58L236.49,35.15L237.28,54.02L238.08,45.14L238.87,54.02L239.66,66.23L240.46,48.47L241.25,58.46L242.04,100.64L243.63,57.35L244.42,70.67L245.22,72.89L246.01,58.46L246.81,19.61L247.6,56.24L248.39,32.93L249.19,46.25L249.98,44.03L250.77,69.56L251.57,72.89L252.36,72.89L253.95,47.36L254.74,44.03L255.54,62.9L256.33,50.69L257.12,12.95L257.92,65.12L258.71,34.04L259.5,35.15L261.09,92.87L261.88,37.37L263.47,65.12L264.26,69.56L265.06,62.9L265.85,91.76L267.44,40.7L268.23,62.9L269.03,35.15L269.82,83.99L270.61,95.09L271.41,26.27L272.2,36.26L272.99,31.82L273.79,69.56L274.58,37.37L275.37,72.89L276.17,65.12L277.76,47.36L278.55,67.34L279.34,44.03L280.14,46.25L281.72,79.55L282.52,77.33L284.1,60.68L284.9,26.27L285.69,67.34L286.48,48.47L287.28,71.78L288.07,64.01L288.87,56.24L289.66,88.43L290.45,42.92L291.25,60.68L292.04,41.81L292.83,67.34L293.63,96.2L294.42,46.25L295.21,82.88L296.01,57.35L296.8,76.22L297.6,62.9L298.39,46.25L299.18,59.57L299.98,54.02L300.77,93.98L302.36,18.5L303.15,91.76L303.94,47.36L304.74,49.58L306.32,71.78L307.12,41.81L307.91,61.79L308.71,61.79L310.29,92.87L311.09,79.55L311.88,72.89L312.67,78.44L313.47,83.99L314.26,47.36L315.85,96.2L316.64,90.65L317.43,34.04L318.23,66.23L319.02,108.41L319.82,57.35L321.4,80.66L322.2,68.45L322.99,50.69L323.78,62.9L324.58,80.66L325.37,34.04L326.96,74L327.75,61.79L328.55,81.77L329.34,51.8L330.13,45.14L330.93,74L331.72,44.03L332.51,86.21L333.31,64.01L334.1,92.87L335.69,40.7L336.48,39.59L337.27,26.27L338.07,55.13L338.86,58.46L339.66,68.45L340.45,76.22L341.24,55.13L342.04,96.2L342.83,90.65L345.21,47.36L346,71.78L346.8,25.16L346.8,170.57L345.21,176.12L344.42,172.79L343.62,171.68L342.83,149.48L342.04,169.46L341.24,136.16L340.45,168.35L339.66,161.69L338.86,182.78L338.07,151.7L337.27,126.17L336.48,162.8L335.69,138.38L334.89,209.42L334.1,166.13L333.31,169.46L332.51,171.68L331.72,156.14L330.93,186.11L330.13,138.38L329.34,165.02L328.55,159.47L326.96,156.14L326.16,167.24L325.37,147.26L324.58,155.03L323.78,166.13L322.99,162.8L322.2,188.33L321.4,156.14L320.61,141.71L319.82,172.79L319.02,178.34L318.23,172.79L317.43,139.49L316.64,169.46L315.85,197.21L315.05,122.84L314.26,179.45L313.47,172.79L312.67,166.13L311.88,181.67L311.09,146.15L310.29,199.43L309.5,159.47L308.71,186.11L307.12,149.48L306.32,176.12L305.53,150.59L304.74,176.12L303.15,189.44L302.36,168.35L301.56,207.2L300.77,147.26L299.98,172.79L299.18,146.15L298.39,152.81L297.6,141.71L296.8,212.75L296.01,179.45L294.42,122.84L293.63,163.91L292.83,172.79L292.04,169.46L290.45,190.55L289.66,172.79L288.87,208.31L288.07,149.48L287.28,147.26L286.48,157.25L284.9,175.01L284.1,132.83L283.31,212.75L282.52,171.68L281.72,162.8L280.93,122.84L280.14,186.11L279.34,152.81L278.55,139.49L277.76,155.03L276.96,158.36L276.17,185L275.37,189.44L274.58,169.46L273.79,132.83L272.99,152.81L272.2,179.45L271.41,176.12L270.61,186.11L269.82,151.7L269.03,162.8L268.23,187.22L266.65,116.18L265.85,179.45L265.06,193.88L264.26,179.45L262.68,140.6L261.88,171.68L261.09,176.12L260.3,175.01L259.5,158.36L258.71,199.43L257.92,156.14L257.12,173.9L256.33,149.48L255.54,162.8L254.74,129.5L253.95,153.92L252.36,165.02L251.57,159.47L249.98,182.78L249.19,165.02L248.39,146.15L247.6,158.36L246.81,196.1L246.01,190.55L245.22,149.48L244.42,186.11L243.63,222.74L242.84,156.14L242.04,199.43L241.25,176.12L240.46,168.35L239.66,132.83L238.08,178.34L237.28,149.48L235.7,178.34L234.9,138.38L234.11,189.44L233.31,179.45L232.52,191.66L231.73,177.23L230.93,172.79L230.14,172.79L229.35,140.6L228.55,159.47L227.76,169.46L226.97,155.03L226.17,200.54L225.38,185L224.59,186.11L223.79,167.24L223,182.78L222.2,157.25L220.62,172.79L219.82,159.47L219.03,176.12L218.24,155.03L217.44,125.06L216.65,172.79L215.06,151.7L214.27,182.78L212.68,166.13L211.89,169.46L211.09,171.68L210.3,219.41L207.92,159.47L207.13,209.42L206.33,206.09L205.54,139.49L204.75,180.56L203.95,162.8L203.16,167.24L202.36,167.24L201.57,169.46L200.78,211.64L199.98,182.78L199.19,182.78L197.6,146.15L196.81,135.05L196.02,178.34L195.22,146.15L193.64,182.78L192.84,166.13L192.05,181.67L191.25,172.79L189.67,199.43L188.87,146.15L188.08,169.46L187.29,142.82L186.49,169.46L185.7,139.49L184.91,159.47L184.11,155.03L183.32,178.34L182.53,176.12L181.73,188.33L180.94,178.34L180.14,139.49L179.35,182.78L178.56,169.46L177.76,196.1L176.18,146.15L175.38,199.43L174.59,141.71L173.8,165.02L173,188.33L172.21,151.7L171.41,204.98L170.62,169.46L169.83,175.01L169.03,186.11L168.24,175.01L167.45,138.38L165.86,182.78L165.07,142.82L164.27,185L163.48,156.14L162.69,152.81L161.89,181.67L161.1,179.45L160.3,182.78L159.51,149.48L158.72,192.77L157.92,170.57L157.13,178.34L156.34,196.1L155.54,188.33L153.16,159.47L152.37,204.98L150.78,161.69L149.99,182.78L149.19,156.14L148.4,176.12L147.61,189.44L146.81,162.8L146.02,176.12L145.23,168.35L144.43,212.75L143.64,196.1L142.85,189.44L142.05,145.04L141.26,182.78L140.46,149.48L139.67,194.99L138.88,153.92L138.08,161.69L137.29,182.78L136.5,168.35L135.7,199.43L134.12,162.8L133.32,199.43L132.53,192.77L131.74,159.47L130.15,172.79L129.35,194.99L126.97,165.02L126.18,162.8L125.39,192.77L124.59,166.13L123.8,179.45L123.01,159.47L122.21,202.76L121.42,166.13L119.83,182.78L119.04,189.44L118.24,168.35L117.45,181.67L116.66,188.33L115.86,186.11L115.07,186.11L114.28,206.09L113.48,171.68L112.69,172.79L111.9,172.79L111.1,166.13L110.31,166.13L109.52,179.45L107.93,185L107.13,163.91L105.55,198.32L104.75,182.78L103.96,172.79L103.17,201.65L102.37,172.79L101.58,186.11L100.79,216.08L99.99,199.43L99.2,189.44L98.4,209.42L96.82,199.43L96.02,183.89L95.23,196.1L94.44,178.34L92.85,223.85L92.06,209.42L91.26,209.42L90.47,206.09L89.68,198.32L88.88,206.09L88.09,201.65L87.29,213.86L86.5,212.75L85.71,209.42L84.91,227.18L84.12,214.97L83.33,209.42L82.53,198.32L81.74,196.1L80.95,208.31L80.15,206.09L79.36,222.74L76.98,196.1L76.18,214.97L74.6,239.39L73.8,216.08L73.01,210.53L72.22,219.41L71.42,209.42L70.63,219.41L69.04,226.07L68.25,224.96L67.45,216.08L66.66,192.77L65.87,219.41L65.07,206.09L64.28,196.1L63.49,219.41L62.69,229.4L61.9,219.41L61.11,219.41L60.31,236.06L59.52,202.76L58.73,236.06L57.93,212.75L57.14,219.41L56.34,211.64L55.55,219.41L53.96,232.73L53.17,231.62L52.38,222.74L51.58,242.72L50.79,242.72L50,239.39L49.2,239.39L48.41,241.61L47.62,216.08L46.82,242.72L46.03,242.72L45.23,241.61L44.44,242.72L43.65,241.61L42.85,228.29L42.06,242.72L41.27,241.61L40.47,246.05L39.68,239.39L38.89,239.39L38.09,246.05L37.3,242.72L36.51,238.28L35.71,241.61L34.92,246.05L34.12,246.05L32.54,246.05L31.74,242.72L30.95,246.05L30.16,246.05L29.36,242.72L28.57,246.05L23.01,246.05L22.22,242.72L21.43,246.05L20.63,246.05L17.46,246.05L16.67,241.61L15.08,242.72L14.28,246.05L11.11,246.05L10.32,242.72L9.52,246.05L8.73,246.05L0,246.05" style="vector-effect: non-scaling-stroke; fill: none; stroke: rgb(0, 0, 0); stroke-opacity: 0; stroke-width: 2px; opacity: 1;"/></g><g class="points"/><g class="text"/></g></g></g><g class="overplot"/><path class="xlines-above crisp" d="M0,0" style="fill: none;"/><path class="ylines-above crisp" d="M0,0" style="fill: none;"/><g class="overlines-above"/><g class="xaxislayer-above"><g class="xtick"><text text-anchor="middle" x="0" y="272" transform="translate(115.01,0)" style="font-family: 'Latin Modern Roman'; font-size: 12px; fill: rgb(0, 0, 0); fill-opacity: 1; white-space: pre;">10M</text></g><g class="xtick"><text text-anchor="middle" x="0" y="272" transform="translate(192.81,0)" style="font-family: 'Latin Modern Roman'; font-size: 12px; fill: rgb(0, 0, 0); fill-opacity: 1; white-space: pre;">20M</text></g><g class="xtick"><text text-anchor="middle" x="0" y="272" transform="translate(270.61,0)" style="font-family: 'Latin Modern Roman'; font-size: 12px; fill: rgb(0, 0, 0); fill-opacity: 1; white-space: pre;">30M</text></g><g class="xtick"><text text-anchor="middle" x="0" y="272" transform="translate(348.42,0)" style="font-family: 'Latin Modern Roman'; font-size: 12px; fill: rgb(0, 0, 0); fill-opacity: 1; white-space: pre;">40M</text></g><g class="xtick"><text text-anchor="middle" x="0" y="272" transform="translate(426.22,0)" style="font-family: 'Latin Modern Roman'; font-size: 12px; fill: rgb(0, 0, 0); fill-opacity: 1; white-space: pre;">50M</text></g></g><g class="yaxislayer-above"><g class="ytick"><text text-anchor="end" x="37" y="4.199999999999999" transform="translate(0,246.05)" style="font-family: 'Latin Modern Roman'; font-size: 12px; fill: rgb(0, 0, 0); fill-opacity: 1; white-space: pre;">0</text></g><g class="ytick"><text text-anchor="end" x="37" y="4.199999999999999" transform="translate(0,201.65)" style="font-family: 'Latin Modern Roman'; font-size: 12px; fill: rgb(0, 0, 0); fill-opacity: 1; white-space: pre;">10</text></g><g class="ytick"><text text-anchor="end" x="37" y="4.199999999999999" transform="translate(0,157.25)" style="font-family: 'Latin Modern Roman'; font-size: 12px; fill: rgb(0, 0, 0); fill-opacity: 1; white-space: pre;">20</text></g><g class="ytick"><text text-anchor="end" x="37" y="4.199999999999999" transform="translate(0,112.85)" style="font-family: 'Latin Modern Roman'; font-size: 12px; fill: rgb(0, 0, 0); fill-opacity: 1; white-space: pre;">30</text></g><g class="ytick"><text text-anchor="end" x="37" y="4.199999999999999" transform="translate(0,68.45)" style="font-family: 'Latin Modern Roman'; font-size: 12px; fill: rgb(0, 0, 0); fill-opacity: 1; white-space: pre;">40</text></g><g class="ytick"><text text-anchor="end" x="37" y="4.199999999999999" transform="translate(0,24.05)" style="font-family: 'Latin Modern Roman'; font-size: 12px; fill: rgb(0, 0, 0); fill-opacity: 1; white-space: pre;">50</text></g></g><g class="overaxes-above"/></g></g><g class="polarlayer"/><g class="ternarylayer"/><g class="geolayer"/><g class="funnelarealayer"/><g class="pielayer"/><g class="treemaplayer"/><g class="sunburstlayer"/><g class="glimages"/><defs id="topdefs-f33bcb"><g class="clips"/><clipPath id="legendf33bcb"><rect width="158" height="67" x="0" y="0"/></clipPath></defs><g class="layer-above"><g class="imagelayer"/><g class="shapelayer"/></g><g class="infolayer"><g class="legend" pointer-events="all" transform="translate(441.92,0)"><rect class="bg" shape-rendering="crispEdges" style="stroke: rgb(68, 68, 68); stroke-opacity: 1; fill: rgb(255, 255, 255); fill-opacity: 1; stroke-width: 0px;" width="158" height="67" x="0" y="0"/><g class="scrollbox" transform="" clip-path="url('#legendf33bcb')"><g class="groups"><g class="traces" transform="translate(0,14.5)" style="opacity: 1;"><text class="legendtext" text-anchor="start" x="40" y="4.680000000000001" style="font-family: 'Latin Modern Roman'; font-size: 12px; fill: rgb(0, 0, 0); fill-opacity: 1; white-space: pre;">Bayesian agg. (n=40)</text><g class="layers" style="opacity: 1;"><g class="legendfill"/><g class="legendlines"><path class="js-line" d="M5,0h30" style="fill: none; stroke: rgb(99, 110, 250); stroke-opacity: 1; stroke-width: 2px;"/></g><g class="legendsymbols"><g class="legendpoints"/></g></g><rect class="legendtoggle" x="0" y="-9.5" width="152.90625" height="19" style="fill: rgb(0, 0, 0); fill-opacity: 0;"/></g><g class="traces" transform="translate(0,33.5)" style="opacity: 1;"><text class="legendtext" text-anchor="start" x="40" y="4.680000000000001" style="font-family: 'Latin Modern Roman'; font-size: 12px; fill: rgb(0, 0, 0); fill-opacity: 1; white-space: pre;">Mean agg. (n=25)</text><g class="layers" style="opacity: 1;"><g class="legendfill"/><g class="legendlines"><path class="js-line" d="M5,0h30" style="fill: none; stroke: rgb(239, 85, 59); stroke-opacity: 1; stroke-width: 2px;"/></g><g class="legendsymbols"><g class="legendpoints"/></g></g><rect class="legendtoggle" x="0" y="-9.5" width="152.90625" height="19" style="fill: rgb(0, 0, 0); fill-opacity: 0;"/></g><g class="traces" transform="translate(0,52.5)" style="opacity: 1;"><text class="legendtext" text-anchor="start" x="40" y="4.680000000000001" style="font-family: 'Latin Modern Roman'; font-size: 12px; fill: rgb(0, 0, 0); fill-opacity: 1; white-space: pre;">Max Agg. (n=4)</text><g class="layers" style="opacity: 1;"><g class="legendfill"/><g class="legendlines"><path class="js-line" d="M5,0h30" style="fill: none; stroke: rgb(0, 204, 150); stroke-opacity: 1; stroke-width: 2px;"/></g><g class="legendsymbols"><g class="legendpoints"/></g></g><rect class="legendtoggle" x="0" y="-9.5" width="152.90625" height="19" style="fill: rgb(0, 0, 0); fill-opacity: 0;"/></g></g></g><rect class="scrollbar" rx="20" ry="3" width="0" height="0" style="fill: rgb(128, 139, 164); fill-opacity: 1;" x="0" y="0"/></g><g class="g-gtitle"/><g class="g-xtitle" transform="translate(0,-3.8000000000000114)"><text class="xtitle" x="236" y="299.8" text-anchor="middle" style="font-family: 'Latin Modern Roman'; font-size: 14px; fill: rgb(0, 0, 0); opacity: 1; font-weight: normal; white-space: pre;">Agent Steps</text></g><g class="g-ytitle" transform="translate(15.8154296875,0)"><text class="ytitle" transform="rotate(-90,0.18437500000000284,129.5)" x="0.18437500000000284" y="129.5" text-anchor="middle" style="font-family: 'Latin Modern Roman'; font-size: 14px; fill: rgb(0, 0, 0); opacity: 1; font-weight: normal; white-space: pre;">Avg. Reward</text></g></g></svg>