<svg class="main-svg" xmlns="http://www.w3.org/2000/svg" xmlns:xlink="http://www.w3.org/1999/xlink" width="600" height="300" style="" viewBox="0 0 600 300"><rect x="0" y="0" width="600" height="300" style="fill: rgb(255, 255, 255); fill-opacity: 1;"/><defs id="defs-58f21a"><g class="clips"><clipPath id="clip58f21axyplot" class="plotclip"><rect width="393" height="259"/></clipPath><clipPath class="axesclip" id="clip58f21ax"><rect x="38" y="0" width="393" height="300"/></clipPath><clipPath class="axesclip" id="clip58f21ay"><rect x="0" y="0" width="600" height="259"/></clipPath><clipPath class="axesclip" id="clip58f21axy"><rect x="38" y="0" width="393" height="259"/></clipPath></g><g class="gradients"/></defs><g class="bglayer"><rect class="bg" x="38" y="0" width="393" height="259" style="fill: rgb(229, 236, 246); fill-opacity: 1; stroke-width: 0;"/></g><g class="layer-below"><g class="imagelayer"/><g class="shapelayer"/></g><g class="cartesianlayer"><g class="subplot xy"><g class="layer-subplot"><g class="shapelayer"/><g class="imagelayer"/></g><g class="gridlayer"><g class="x"><path class="xgrid crisp" transform="translate(135.54000000000002,0)" d="M0,0v259" style="stroke: rgb(255, 255, 255); stroke-opacity: 1; stroke-width: 1px;"/><path class="xgrid crisp" transform="translate(234.08,0)" d="M0,0v259" style="stroke: rgb(255, 255, 255); stroke-opacity: 1; stroke-width: 1px;"/><path class="xgrid crisp" transform="translate(332.62,0)" d="M0,0v259" style="stroke: rgb(255, 255, 255); stroke-opacity: 1; stroke-width: 1px;"/></g><g class="y"><path class="ygrid crisp" transform="translate(0,199.43)" d="M38,0h393" style="stroke: rgb(255, 255, 255); stroke-opacity: 1; stroke-width: 1px;"/><path class="ygrid crisp" transform="translate(0,152.81)" d="M38,0h393" style="stroke: rgb(255, 255, 255); stroke-opacity: 1; stroke-width: 1px;"/><path class="ygrid crisp" transform="translate(0,106.19)" d="M38,0h393" style="stroke: rgb(255, 255, 255); stroke-opacity: 1; stroke-width: 1px;"/><path class="ygrid crisp" transform="translate(0,59.57)" d="M38,0h393" style="stroke: rgb(255, 255, 255); stroke-opacity: 1; stroke-width: 1px;"/><path class="ygrid crisp" transform="translate(0,12.95)" d="M38,0h393" style="stroke: rgb(255, 255, 255); stroke-opacity: 1; stroke-width: 1px;"/></g></g><g class="zerolinelayer"><path class="yzl zl crisp" transform="translate(0,246.05)" d="M38,0h393" style="stroke: rgb(255, 255, 255); stroke-opacity: 1; stroke-width: 2px;"/></g><path class="xlines-below"/><path class="ylines-below"/><g class="overlines-below"/><g class="xaxislayer-below"/><g class="yaxislayer-below"/><g class="overaxes-below"/><g class="plot" transform="translate(38,0)" clip-path="url('#clip58f21axyplot')"><g class="scatterlayer mlayer"><g class="trace scatter trace3ec730" style="stroke-miterlimit: 2; opacity: 1;"><g class="fills"><g><path class="js-fill" d="M0,244.13L3.02,243.49L4.02,243.66L9.05,243.14L10.05,242.55L11.06,243.08L12.06,241.56L14.07,239.23L15.08,240.46L17.09,235.74L18.09,237.25L21.11,234.86L22.11,231.31L23.12,233.87L24.12,231.66L25.13,225.36L26.13,234.92L28.14,223.79L29.15,227.75L30.15,222.1L31.16,221.52L32.16,220.88L33.17,221.92L34.17,223.61L35.18,227.58L36.18,223.56L37.19,225.19L38.19,223.44L39.2,224.2L40.2,223.79L41.21,216.97L43.22,213.82L44.23,210.79L45.23,210.21L46.24,214.41L47.24,197.27L48.25,205.72L50.26,185.85L51.26,192.44L52.27,192.2L53.27,179.15L54.28,178.68L55.28,169.01L56.29,179.03L57.29,178.16L58.3,179.85L59.3,178.28L60.31,167.03L61.31,170.06L62.32,167.38L63.32,155.67L64.33,150.07L65.33,151.88L67.34,161.43L68.35,151.41L69.35,162.83L70.36,149.26L72.37,148.21L73.37,141.97L74.38,145.29L75.38,142.55L76.39,138.24L77.39,139.41L78.4,132.59L79.4,133.46L81.41,131.95L82.42,128.04L84.43,121.57L85.43,119.77L87.45,111.67L88.45,111.26L89.46,102.87L90.46,112.02L91.47,111.03L92.47,111.9L93.48,106.95L94.48,107.01L95.49,109.1L96.49,108.87L97.5,112.78L98.5,111.03L99.51,102.87L100.51,109.45L101.52,99.02L102.52,111.43L104.53,99.66L105.54,102.87L106.54,103.68L107.55,100.77L108.55,101.12L109.56,94.77L111.57,102.29L112.57,101.18L114.58,104.67L115.59,96.46L117.6,103.92L118.6,103.98L120.61,101.59L121.62,96.22L122.62,102.87L123.63,101.76L124.63,93.19L125.64,100.48L126.64,92.26L127.65,98.38L128.65,93.43L129.66,96.75L130.66,99.14L131.67,95.88L133.68,93.19L134.69,88.71L136.7,97.62L137.7,97.04L138.71,96.63L139.71,87.25L140.72,98.44L141.72,93.43L142.73,93.43L143.73,89.76L144.74,88.77L145.74,95.88L146.75,88.3L147.75,88.77L148.76,86.84L149.76,92.85L150.77,89.87L151.77,94.13L153.78,87.66L154.79,92.55L156.8,85.79L157.8,90.51L158.81,86.09L159.81,85.5L160.82,84.16L161.82,84.28L163.83,95.23L164.84,85.91L165.84,76.12L166.85,79.91L168.86,74.66L169.86,75.13L170.87,78.16L171.87,77.34L172.88,78.74L173.88,73.09L175.9,77.34L176.9,81.48L177.91,74.14L178.91,78.74L179.92,80.32L180.92,70.82L181.93,72.33L182.93,70.64L184.94,76.35L185.95,75.89L187.96,72.45L188.96,74.72L189.97,64.17L190.97,76.94L191.98,68.43L192.98,74.6L193.99,69.94L194.99,69.24L196,75.3L197,73.38L198.01,71.22L199.01,74.84L201.02,68.02L202.03,73.61L203.03,73.56L204.04,75.71L206.05,64.93L207.05,66.21L209.06,59.92L210.07,72.57L211.07,66.27L212.08,67.79L213.08,68.43L214.09,71.69L215.09,64.23L216.1,70.35L217.1,63.12L218.11,69.13L219.12,64.7L220.12,65.92L221.13,70.23L222.13,63.71L225.15,73.73L226.15,62.72L228.16,68.49L229.17,67.2L230.17,73.61L231.18,63.71L232.18,66.62L233.19,64.58L234.19,67.2L235.2,65.28L236.2,62.66L237.21,74.02L238.21,62.6L239.22,63.47L240.22,57.53L241.23,66.85L243.24,65.98L244.24,63.24L245.25,65.63L246.25,57.88L247.26,60.97L248.26,58.29L250.27,63.24L251.28,60.85L252.28,57.47L253.29,60.27L254.29,63.94L255.3,57.88L256.3,61.49L257.31,61.67L259.32,67.2L260.32,62.31L261.33,64.99L262.34,64.35L263.34,68.84L264.35,69.36L265.35,65.98L266.36,69.07L267.36,63.12L268.37,65.28L270.38,69.65L271.38,65.28L272.39,62.83L273.39,68.78L275.4,66.27L276.41,67.5L277.41,64.64L278.42,67.15L279.42,61.55L280.43,68.95L281.43,59.63L282.44,58.11L284.45,67.32L285.45,61.09L286.46,57.94L287.46,59.1L288.47,59.51L289.47,64.81L290.48,58.29L291.48,63.07L292.49,61.78L293.49,58.17L294.5,63.71L295.5,61.96L296.51,55.08L297.51,57.41L298.52,60.15L299.52,65.75L300.53,63.53L301.53,56.07L302.54,60.39L303.54,60.27L304.55,63.88L305.55,59.98L307.57,64.06L308.57,55.26L309.58,66.97L310.58,59.34L311.59,68.19L312.59,65.63L315.61,59.92L316.61,65.34L317.62,67.61L318.62,61.26L320.63,58.7L321.64,63.47L322.64,66.1L323.65,65.81L324.65,60.39L325.66,65.16L327.67,53.51L328.67,60.21L329.68,58L330.68,52.46L331.69,61.67L332.69,53.04L335.71,66.5L336.71,56.19L337.72,61.84L338.72,60.5L339.73,62.19L340.73,65.46L341.74,56.6L342.74,61.78L343.75,59.92L344.75,67.26L345.76,60.68L346.76,62.6L347.77,62.13L348.77,63.94L349.78,54.85L350.79,58.11L352.8,60.5L353.8,60.27L354.81,57.65L355.81,62.13L356.82,58.81L357.82,66.56L358.83,58.7L359.83,64.47L361.84,59.98L362.85,66.62L363.85,55.14L364.86,58.93L366.87,54.38L367.87,60.68L368.88,64.12L369.88,63.24L370.89,60.21L371.89,62.08L372.9,59.05L373.9,60.09L374.91,57.82L375.91,64.29L376.92,58.99L377.92,64.29L379.93,58.75L380.94,58.4L381.94,67.03L382.95,59.28L383.95,62.37L384.96,62.72L385.96,66.85L386.97,62.13L387.97,58.4L388.98,64.76L389.98,62.72L390.99,57.76L391.99,62.83L393,64L393,137.48L391.99,133.29L390.99,133.7L389.98,139.93L388.98,136.96L387.97,136.78L386.97,138.88L385.96,137.25L384.96,135.56L383.95,136.38L381.94,142.2L380.94,138.82L379.93,140.11L378.93,139.23L377.92,142.32L376.92,136.78L375.91,138.42L374.91,136.14L373.9,147.62L372.9,138.47L371.89,131.66L370.89,144.71L369.88,136.26L368.88,147.1L366.87,135.39L365.86,139.76L364.86,141.68L363.85,140.22L362.85,139.99L361.84,133.87L360.84,136.78L359.83,135.5L358.83,137.43L357.82,137.25L356.82,138.42L355.81,143.08L354.81,136.78L353.8,138.07L352.8,138.94L351.79,138.3L350.79,140.98L349.78,137.08L348.77,136.9L347.77,135.62L346.76,139.35L345.76,139.99L344.75,133.17L343.75,140.22L342.74,142.26L341.74,140.81L339.73,135.85L338.72,143.37L337.72,144.3L336.71,142.15L334.7,145.41L333.7,145.18L332.69,135.74L331.69,139L328.67,149.6L327.67,144.83L326.66,142.9L325.66,148.09L324.65,144.53L323.65,148.56L321.64,141.97L320.63,143.72L319.63,141.16L318.62,146.05L317.62,142.15L316.61,141.97L315.61,138.12L314.6,142.38L313.6,145.06L312.59,141.45L311.59,145.99L310.58,143.43L309.58,146.75L308.57,144.01L307.57,140.69L306.56,144.77L305.55,138.24L304.55,143.25L302.54,140.34L301.53,136.84L300.53,145.76L299.52,132.71L298.52,145.64L297.51,140.11L296.51,147.1L295.5,141.68L294.5,144.36L293.49,151.7L292.49,134.45L291.48,144.13L289.47,136.84L288.47,147.16L287.46,148.5L286.46,141.1L285.45,145L284.45,141.04L283.44,138.88L282.44,145.64L281.43,141.97L280.43,146.75L279.42,142.61L278.42,144.01L277.41,148.56L276.41,140.28L275.4,138.88L274.4,145.12L273.39,144.07L272.39,145.23L269.37,139.93L268.37,141.68L267.36,147.86L266.36,138.65L265.35,144.65L264.35,139.12L263.34,142.5L262.34,139.06L260.32,143.95L259.32,149.6L257.31,139.41L256.3,141.97L255.3,148.03L254.29,141.16L253.29,154.5L252.28,146.57L251.28,146.63L250.27,143.89L249.27,151L248.26,143.08L244.24,154.44L243.24,143.31L242.23,152.29L241.23,143.14L240.22,141.85L239.22,146.17L238.21,155.84L237.21,149.72L236.2,153.04L235.2,148.91L234.19,141.56L233.19,148.67L232.18,152.98L231.18,151.76L230.17,147.57L229.17,153.57L228.16,154.79L227.16,149.9L226.15,144.42L225.15,154.67L223.14,151.94L222.13,152.4L221.13,139.35L220.12,150.48L218.11,148.56L217.1,151.7L215.09,158.11L214.09,156.07L213.08,149.78L212.08,150.83L211.07,151.47L210.07,145.64L209.06,145.82L208.06,147.62L207.05,153.45L206.05,148.73L205.04,145.93L204.04,149.37L203.03,153.1L202.03,152.34L201.02,154.21L200.02,153.33L199.01,153.33L198.01,154.15L197,148.21L196,151.99L194.99,148.61L193.99,148.96L192.98,158.58L191.98,156.48L190.97,160.56L189.97,158.4L188.96,160.09L187.96,159.8L186.95,157.94L185.95,159.22L184.94,162.08L183.94,161.14L182.93,165.46L181.93,165.05L180.92,166.45L179.92,172.8L178.91,165.4L177.91,167.03L176.9,171.75L175.9,165.63L172.88,177.69L171.87,171.69L170.87,170L169.86,172.91L168.86,167.38L167.85,171.57L166.85,172.51L165.84,178.39L164.84,174.55L163.83,177.05L162.83,172.45L161.82,172.1L160.82,173.56L159.81,183L157.8,178.33L156.8,179.91L155.79,182.59L154.79,182.82L153.78,178.86L152.78,187.95L151.77,181.02L150.77,188.36L149.76,190.28L148.76,187.31L147.75,192.44L146.75,183.17L145.74,183.99L144.74,196.05L143.73,195.23L142.73,201.94L140.72,195.23L139.71,196.28L138.71,198.85L137.7,196.05L136.7,205.96L135.69,205.96L134.69,193.66L133.68,204.38L132.68,200.83L131.67,208.29L130.66,205.72L129.66,198.67L128.65,206.71L127.65,204.33L126.64,210.15L125.64,209.45L122.62,218.19L121.62,212.02L120.61,212.77L119.61,220.35L118.6,217.38L117.6,222.16L116.59,218.14L115.59,217.5L114.58,226L113.58,221.75L112.57,229.33L111.57,230.55L109.56,235.15L108.55,233.17L107.55,236.78L106.54,236.08L105.54,235.09L104.53,232.88L103.53,235.68L102.52,236.26L100.51,240.22L99.51,237.77L98.5,240.22L97.5,239.58L96.49,238.65L95.49,233L94.48,237.72L93.48,237.72L91.47,240.22L90.46,241.15L89.46,239.93L88.45,240.16L87.45,241.74L86.44,238.42L85.43,241.39L84.43,240.22L83.42,240.75L82.42,240.05L80.41,243.14L79.4,242.2L77.39,242.03L76.39,239.81L75.38,240.57L74.38,239.81L73.37,242.26L72.37,241.45L71.36,241.21L70.36,242.79L69.35,241.5L68.35,242.67L66.34,242.9L65.33,243.31L62.32,243.31L61.31,243.78L58.3,243.25L57.29,243.78L56.29,243.25L55.28,243.6L53.27,244.01L52.27,243.37L49.25,243.95L48.25,243.95L44.23,244.24L43.22,244.01L38.19,244.42L37.19,244.19L33.17,244.42L32.16,244.42L29.15,244.42L28.14,244.42L25.13,244.42L24.12,244.65L20.1,244.42L19.1,244.48L7.04,244.24L6.03,244.65L2.01,244.42L1.01,244.65L0,244.65Z" style="fill: rgb(99, 110, 250); fill-opacity: 0.3; stroke-width: 0;"/></g></g><g class="errorbars"/><g class="lines"><path class="js-line" d="M0,244.13L3.02,243.49L4.02,243.66L9.05,243.14L10.05,242.55L11.06,243.08L12.06,241.56L14.07,239.23L15.08,240.46L17.09,235.74L18.09,237.25L21.11,234.86L22.11,231.31L23.12,233.87L24.12,231.66L25.13,225.36L26.13,234.92L28.14,223.79L29.15,227.75L30.15,222.1L31.16,221.52L32.16,220.88L33.17,221.92L34.17,223.61L35.18,227.58L36.18,223.56L37.19,225.19L38.19,223.44L39.2,224.2L40.2,223.79L41.21,216.97L43.22,213.82L44.23,210.79L45.23,210.21L46.24,214.41L47.24,197.27L48.25,205.72L50.26,185.85L51.26,192.44L52.27,192.2L53.27,179.15L54.28,178.68L55.28,169.01L56.29,179.03L57.29,178.16L58.3,179.85L59.3,178.28L60.31,167.03L61.31,170.06L62.32,167.38L63.32,155.67L64.33,150.07L65.33,151.88L67.34,161.43L68.35,151.41L69.35,162.83L70.36,149.26L72.37,148.21L73.37,141.97L74.38,145.29L75.38,142.55L76.39,138.24L77.39,139.41L78.4,132.59L79.4,133.46L81.41,131.95L82.42,128.04L84.43,121.57L85.43,119.77L87.45,111.67L88.45,111.26L89.46,102.87L90.46,112.02L91.47,111.03L92.47,111.9L93.48,106.95L94.48,107.01L95.49,109.1L96.49,108.87L97.5,112.78L98.5,111.03L99.51,102.87L100.51,109.45L101.52,99.02L102.52,111.43L104.53,99.66L105.54,102.87L106.54,103.68L107.55,100.77L108.55,101.12L109.56,94.77L111.57,102.29L112.57,101.18L114.58,104.67L115.59,96.46L117.6,103.92L118.6,103.98L120.61,101.59L121.62,96.22L122.62,102.87L123.63,101.76L124.63,93.19L125.64,100.48L126.64,92.26L127.65,98.38L128.65,93.43L129.66,96.75L130.66,99.14L131.67,95.88L133.68,93.19L134.69,88.71L136.7,97.62L137.7,97.04L138.71,96.63L139.71,87.25L140.72,98.44L141.72,93.43L142.73,93.43L143.73,89.76L144.74,88.77L145.74,95.88L146.75,88.3L147.75,88.77L148.76,86.84L149.76,92.85L150.77,89.87L151.77,94.13L153.78,87.66L154.79,92.55L156.8,85.79L157.8,90.51L158.81,86.09L159.81,85.5L160.82,84.16L161.82,84.28L163.83,95.23L164.84,85.91L165.84,76.12L166.85,79.91L168.86,74.66L169.86,75.13L170.87,78.16L171.87,77.34L172.88,78.74L173.88,73.09L175.9,77.34L176.9,81.48L177.91,74.14L178.91,78.74L179.92,80.32L180.92,70.82L181.93,72.33L182.93,70.64L184.94,76.35L185.95,75.89L187.96,72.45L188.96,74.72L189.97,64.17L190.97,76.94L191.98,68.43L192.98,74.6L193.99,69.94L194.99,69.24L196,75.3L197,73.38L198.01,71.22L199.01,74.84L201.02,68.02L202.03,73.61L203.03,73.56L204.04,75.71L206.05,64.93L207.05,66.21L209.06,59.92L210.07,72.57L211.07,66.27L212.08,67.79L213.08,68.43L214.09,71.69L215.09,64.23L216.1,70.35L217.1,63.12L218.11,69.13L219.12,64.7L220.12,65.92L221.13,70.23L222.13,63.71L225.15,73.73L226.15,62.72L228.16,68.49L229.17,67.2L230.17,73.61L231.18,63.71L232.18,66.62L233.19,64.58L234.19,67.2L235.2,65.28L236.2,62.66L237.21,74.02L238.21,62.6L239.22,63.47L240.22,57.53L241.23,66.85L243.24,65.98L244.24,63.24L245.25,65.63L246.25,57.88L247.26,60.97L248.26,58.29L250.27,63.24L251.28,60.85L252.28,57.47L253.29,60.27L254.29,63.94L255.3,57.88L256.3,61.49L257.31,61.67L259.32,67.2L260.32,62.31L261.33,64.99L262.34,64.35L263.34,68.84L264.35,69.36L265.35,65.98L266.36,69.07L267.36,63.12L268.37,65.28L270.38,69.65L271.38,65.28L272.39,62.83L273.39,68.78L275.4,66.27L276.41,67.5L277.41,64.64L278.42,67.15L279.42,61.55L280.43,68.95L281.43,59.63L282.44,58.11L284.45,67.32L285.45,61.09L286.46,57.94L287.46,59.1L288.47,59.51L289.47,64.81L290.48,58.29L291.48,63.07L292.49,61.78L293.49,58.17L294.5,63.71L295.5,61.96L296.51,55.08L297.51,57.41L298.52,60.15L299.52,65.75L300.53,63.53L301.53,56.07L302.54,60.39L303.54,60.27L304.55,63.88L305.55,59.98L307.57,64.06L308.57,55.26L309.58,66.97L310.58,59.34L311.59,68.19L312.59,65.63L315.61,59.92L316.61,65.34L317.62,67.61L318.62,61.26L320.63,58.7L321.64,63.47L322.64,66.1L323.65,65.81L324.65,60.39L325.66,65.16L327.67,53.51L328.67,60.21L329.68,58L330.68,52.46L331.69,61.67L332.69,53.04L335.71,66.5L336.71,56.19L337.72,61.84L338.72,60.5L339.73,62.19L340.73,65.46L341.74,56.6L342.74,61.78L343.75,59.92L344.75,67.26L345.76,60.68L346.76,62.6L347.77,62.13L348.77,63.94L349.78,54.85L350.79,58.11L352.8,60.5L353.8,60.27L354.81,57.65L355.81,62.13L356.82,58.81L357.82,66.56L358.83,58.7L359.83,64.47L361.84,59.98L362.85,66.62L363.85,55.14L364.86,58.93L366.87,54.38L367.87,60.68L368.88,64.12L369.88,63.24L370.89,60.21L371.89,62.08L372.9,59.05L373.9,60.09L374.91,57.82L375.91,64.29L376.92,58.99L377.92,64.29L379.93,58.75L380.94,58.4L381.94,67.03L382.95,59.28L383.95,62.37L384.96,62.72L385.96,66.85L386.97,62.13L387.97,58.4L388.98,64.76L389.98,62.72L390.99,57.76L391.99,62.83L393,64L393,137.48L391.99,133.29L390.99,133.7L389.98,139.93L388.98,136.96L387.97,136.78L386.97,138.88L385.96,137.25L384.96,135.56L383.95,136.38L381.94,142.2L380.94,138.82L379.93,140.11L378.93,139.23L377.92,142.32L376.92,136.78L375.91,138.42L374.91,136.14L373.9,147.62L372.9,138.47L371.89,131.66L370.89,144.71L369.88,136.26L368.88,147.1L366.87,135.39L365.86,139.76L364.86,141.68L363.85,140.22L362.85,139.99L361.84,133.87L360.84,136.78L359.83,135.5L358.83,137.43L357.82,137.25L356.82,138.42L355.81,143.08L354.81,136.78L353.8,138.07L352.8,138.94L351.79,138.3L350.79,140.98L349.78,137.08L348.77,136.9L347.77,135.62L346.76,139.35L345.76,139.99L344.75,133.17L343.75,140.22L342.74,142.26L341.74,140.81L339.73,135.85L338.72,143.37L337.72,144.3L336.71,142.15L334.7,145.41L333.7,145.18L332.69,135.74L331.69,139L328.67,149.6L327.67,144.83L326.66,142.9L325.66,148.09L324.65,144.53L323.65,148.56L321.64,141.97L320.63,143.72L319.63,141.16L318.62,146.05L317.62,142.15L316.61,141.97L315.61,138.12L314.6,142.38L313.6,145.06L312.59,141.45L311.59,145.99L310.58,143.43L309.58,146.75L308.57,144.01L307.57,140.69L306.56,144.77L305.55,138.24L304.55,143.25L302.54,140.34L301.53,136.84L300.53,145.76L299.52,132.71L298.52,145.64L297.51,140.11L296.51,147.1L295.5,141.68L294.5,144.36L293.49,151.7L292.49,134.45L291.48,144.13L289.47,136.84L288.47,147.16L287.46,148.5L286.46,141.1L285.45,145L284.45,141.04L283.44,138.88L282.44,145.64L281.43,141.97L280.43,146.75L279.42,142.61L278.42,144.01L277.41,148.56L276.41,140.28L275.4,138.88L274.4,145.12L273.39,144.07L272.39,145.23L269.37,139.93L268.37,141.68L267.36,147.86L266.36,138.65L265.35,144.65L264.35,139.12L263.34,142.5L262.34,139.06L260.32,143.95L259.32,149.6L257.31,139.41L256.3,141.97L255.3,148.03L254.29,141.16L253.29,154.5L252.28,146.57L251.28,146.63L250.27,143.89L249.27,151L248.26,143.08L244.24,154.44L243.24,143.31L242.23,152.29L241.23,143.14L240.22,141.85L239.22,146.17L238.21,155.84L237.21,149.72L236.2,153.04L235.2,148.91L234.19,141.56L233.19,148.67L232.18,152.98L231.18,151.76L230.17,147.57L229.17,153.57L228.16,154.79L227.16,149.9L226.15,144.42L225.15,154.67L223.14,151.94L222.13,152.4L221.13,139.35L220.12,150.48L218.11,148.56L217.1,151.7L215.09,158.11L214.09,156.07L213.08,149.78L212.08,150.83L211.07,151.47L210.07,145.64L209.06,145.82L208.06,147.62L207.05,153.45L206.05,148.73L205.04,145.93L204.04,149.37L203.03,153.1L202.03,152.34L201.02,154.21L200.02,153.33L199.01,153.33L198.01,154.15L197,148.21L196,151.99L194.99,148.61L193.99,148.96L192.98,158.58L191.98,156.48L190.97,160.56L189.97,158.4L188.96,160.09L187.96,159.8L186.95,157.94L185.95,159.22L184.94,162.08L183.94,161.14L182.93,165.46L181.93,165.05L180.92,166.45L179.92,172.8L178.91,165.4L177.91,167.03L176.9,171.75L175.9,165.63L172.88,177.69L171.87,171.69L170.87,170L169.86,172.91L168.86,167.38L167.85,171.57L166.85,172.51L165.84,178.39L164.84,174.55L163.83,177.05L162.83,172.45L161.82,172.1L160.82,173.56L159.81,183L157.8,178.33L156.8,179.91L155.79,182.59L154.79,182.82L153.78,178.86L152.78,187.95L151.77,181.02L150.77,188.36L149.76,190.28L148.76,187.31L147.75,192.44L146.75,183.17L145.74,183.99L144.74,196.05L143.73,195.23L142.73,201.94L140.72,195.23L139.71,196.28L138.71,198.85L137.7,196.05L136.7,205.96L135.69,205.96L134.69,193.66L133.68,204.38L132.68,200.83L131.67,208.29L130.66,205.72L129.66,198.67L128.65,206.71L127.65,204.33L126.64,210.15L125.64,209.45L122.62,218.19L121.62,212.02L120.61,212.77L119.61,220.35L118.6,217.38L117.6,222.16L116.59,218.14L115.59,217.5L114.58,226L113.58,221.75L112.57,229.33L111.57,230.55L109.56,235.15L108.55,233.17L107.55,236.78L106.54,236.08L105.54,235.09L104.53,232.88L103.53,235.68L102.52,236.26L100.51,240.22L99.51,237.77L98.5,240.22L97.5,239.58L96.49,238.65L95.49,233L94.48,237.72L93.48,237.72L91.47,240.22L90.46,241.15L89.46,239.93L88.45,240.16L87.45,241.74L86.44,238.42L85.43,241.39L84.43,240.22L83.42,240.75L82.42,240.05L80.41,243.14L79.4,242.2L77.39,242.03L76.39,239.81L75.38,240.57L74.38,239.81L73.37,242.26L72.37,241.45L71.36,241.21L70.36,242.79L69.35,241.5L68.35,242.67L66.34,242.9L65.33,243.31L62.32,243.31L61.31,243.78L58.3,243.25L57.29,243.78L56.29,243.25L55.28,243.6L53.27,244.01L52.27,243.37L49.25,243.95L48.25,243.95L44.23,244.24L43.22,244.01L38.19,244.42L37.19,244.19L33.17,244.42L32.16,244.42L29.15,244.42L28.14,244.42L25.13,244.42L24.12,244.65L20.1,244.42L19.1,244.48L7.04,244.24L6.03,244.65L2.01,244.42L1.01,244.65L0,244.65" style="vector-effect: non-scaling-stroke; fill: none; stroke: rgb(0, 0, 0); stroke-opacity: 0; stroke-width: 2px; opacity: 1;"/></g><g class="points"/><g class="text"/></g><g class="trace scatter trace90fc30" style="stroke-miterlimit: 2; opacity: 1;"><g class="fills"><g><path class="js-fill" d="M0,244.19L2.01,243.43L3.02,241.62L5.03,240.69L6.03,241.15L8.04,237.6L9.05,232.94L10.05,231.95L11.06,234.22L13.07,228.16L14.07,236.43L15.08,231.07L16.08,233.35L19.1,240.81L20.1,238.01L21.11,229.97L22.11,234.34L24.12,222.1L25.13,221.46L26.13,217.73L27.14,218.72L29.15,212.54L30.15,210.21L31.16,215.63L32.16,210.62L34.17,218.95L35.18,213.12L36.18,212.89L37.19,206.95L38.19,192.44L39.2,200.83L40.2,188.77L41.21,195.53L42.21,192.03L43.22,200.07L44.23,188.82L45.23,190.86L47.24,181.95L48.25,174.49L49.25,169.3L50.26,173.96L51.26,163.47L52.27,177.69L53.27,168.02L54.28,172.16L56.29,165.92L57.29,172.33L59.3,154.27L60.31,159.63L61.31,152.05L62.32,157.59L63.32,144.77L64.33,152.11L66.34,142.32L67.34,146.46L68.35,146.52L69.35,139.99L72.37,131.89L73.37,125.36L74.38,120.76L75.38,123.15L76.39,114.93L77.39,118.31L78.4,105.61L79.4,105.61L80.41,110.39L81.41,102.4L82.42,107.36L83.42,107.06L84.43,100.48L85.43,109.4L86.44,96.22L87.45,94.54L88.45,88.12L89.46,102.34L90.46,90.16L91.47,91.39L92.47,91.91L93.48,75.83L94.48,83.05L95.49,77.98L97.5,91.21L98.5,78.98L99.51,71.69L100.51,79.38L101.52,90.28L102.52,87.25L103.53,90.75L104.53,82.71L105.54,75.13L106.54,74.9L107.55,75.3L108.55,67.5L109.56,61.9L110.56,70.7L111.57,80.55L112.57,73.56L114.58,67.44L115.59,76.94L116.59,69.88L117.6,77.17L118.6,62.78L119.61,62.72L120.61,55.84L121.62,63.36L122.62,68.66L123.63,59.45L124.63,65.28L125.64,57.59L126.64,69.01L127.65,65.16L128.65,57.47L129.66,64.76L130.66,56.36L131.67,59.05L132.68,61.26L133.68,65.86L134.69,62.37L135.69,63.07L136.7,49.55L137.7,57.36L138.71,53.51L139.71,60.33L141.72,59.45L142.73,62.66L143.73,66.39L144.74,61.84L145.74,64.64L146.75,48.15L147.75,58.52L148.76,58.35L150.77,54.91L151.77,48.79L152.78,60.74L153.78,59.05L154.79,64L155.79,64.87L156.8,61.14L157.8,60.33L158.81,61.67L159.81,56.31L160.82,55.55L161.82,59.51L163.83,49.72L164.84,54.91L165.84,66.91L166.85,57.59L167.85,53.33L168.86,56.83L169.86,52.58L170.87,52.34L172.88,51.24L173.88,49.14L174.89,50.36L175.9,47.57L176.9,50.95L177.91,45.29L178.91,44.65L179.92,47.51L182.93,50.36L183.94,44.3L184.94,48.21L185.95,37.89L186.95,46.17L187.96,40.4L188.96,44.07L189.97,43.25L190.97,36.78L191.98,40.81L192.98,45.29L193.99,33.87L196,40.28L197,39.87L199.01,33.99L200.02,38.24L201.02,45.35L202.03,45.82L204.04,37.83L205.04,39.64L206.05,42.09L207.05,42.32L208.06,35.56L209.06,40.22L211.07,44.77L212.08,41.5L213.08,43.84L214.09,42.9L215.09,33.4L216.1,39.12L219.12,32.88L220.12,38.18L221.13,46.57L222.13,37.54L223.14,45.82L224.14,36.43L225.15,35.56L226.15,37.54L228.16,45.93L229.17,42.32L230.17,31.83L231.18,36.03L232.18,45.18L233.19,35.74L234.19,32.12L235.2,32.88L236.2,38.94L237.21,35.91L238.21,36.14L239.22,34.28L240.22,39.81L241.23,35.56L242.23,38.12L243.24,37.37L244.24,40.57L245.25,36.14L246.25,33.11L247.26,36.43L248.26,34.86L249.27,23.96L251.28,43.31L252.28,32.41L253.29,36.38L254.29,34.57L255.3,34.8L256.3,39.58L257.31,42.44L258.31,35.5L259.32,38.42L260.32,35.56L261.33,41.8L262.34,31.77L264.35,46.52L265.35,37.13L266.36,40.86L267.36,31.83L268.37,34.57L269.37,42.67L274.4,34.92L275.4,39.52L276.41,34.69L277.41,37.37L279.42,40.86L280.43,39.99L281.43,42.9L282.44,40.92L283.44,42.26L284.45,35.09L285.45,31.54L286.46,45.88L287.46,35.21L288.47,46.98L289.47,39.81L290.48,39.81L291.48,31.19L292.49,46.52L293.49,45.29L294.5,37.83L295.5,37.78L296.51,29.97L298.52,41.33L299.52,36.96L300.53,41.39L301.53,39.06L302.54,43.08L303.54,34.45L304.55,35.21L305.55,43.66L307.57,28.45L308.57,34.74L310.58,44.42L311.59,41.04L312.59,35.21L313.6,38.01L314.6,31.48L315.61,40.16L316.61,34.74L317.62,38.77L318.62,32.12L319.63,34.45L321.64,32.47L322.64,35.97L323.65,30.08L324.65,37.43L325.66,40.75L326.66,38.42L327.67,46.4L328.67,29.91L329.68,37.37L330.68,36.9L331.69,37.95L332.69,46.87L333.7,42.85L334.7,33L336.71,41.45L337.72,41.16L338.72,38.24L339.73,45.29L341.74,36.84L342.74,45.47L343.75,29.62L344.75,37.95L346.76,40.92L347.77,44.48L348.77,43.66L349.78,31.48L350.79,44.36L351.79,41.39L352.8,35.79L353.8,42.09L354.81,35.09L355.81,37.31L356.82,43.31L357.82,44.01L358.83,39.87L359.83,45.7L360.84,42.03L361.84,34.57L363.85,47.16L364.86,37.48L365.86,34.16L366.87,46.98L367.87,33.4L368.88,40.11L370.89,34.63L371.89,40.69L372.9,41.74L373.9,34.86L374.91,38.59L375.91,35.68L376.92,29.97L377.92,33.7L378.93,36.38L379.93,36.43L380.94,36.14L381.94,30.08L382.95,32.76L383.95,40.28L384.96,30.96L385.96,31.31L386.97,37.08L387.97,38.24L388.98,43.14L389.98,28.28L390.99,35.68L391.99,32.94L393,33.93L393,100.36L391.99,97.91L390.99,108.05L389.98,108.23L388.98,99.08L387.97,99.43L386.97,94.3L385.96,108.23L384.96,97.74L383.95,99.02L382.95,110.04L380.94,96.98L379.93,89.93L378.93,92.5L377.92,104.91L376.92,97.39L375.91,103.33L374.91,106.36L373.9,103.04L372.9,88.01L371.89,104.09L370.89,104.56L369.88,96.22L368.88,94.36L367.87,96.17L365.86,95.82L364.86,89.87L363.85,87.66L362.85,100.95L360.84,86.78L359.83,92.61L358.83,106.6L357.82,93.54L356.82,102.46L355.81,88.59L354.81,84.98L353.8,88.24L352.8,99.31L351.79,96.52L350.79,106.36L349.78,89.99L348.77,123.79L347.77,108.29L346.76,110.85L345.76,105.43L344.75,116.68L343.75,97.22L342.74,92.79L341.74,96.87L340.73,97.86L339.73,100.65L338.72,85.5L337.72,90.4L336.71,92.5L335.71,89.76L334.7,114.93L333.7,97.62L332.69,99.08L331.69,97.8L330.68,96.52L329.68,84.45L328.67,83L327.67,91.74L326.66,88.3L325.66,89.87L324.65,92.79L323.65,113.07L322.64,105.72L321.64,92.9L320.63,99.6L319.63,97.97L318.62,114.76L317.62,96.17L316.61,100.6L315.61,89.81L314.6,93.31L313.6,92.2L312.59,103.98L311.59,90.63L310.58,95.29L309.58,93.25L308.57,88.53L307.57,92.26L306.56,99.37L305.55,98.96L303.54,107.06L302.54,106.31L301.53,96.22L300.53,112.37L299.52,93.66L298.52,102.29L297.51,121.81L296.51,115.75L295.5,98.26L294.5,110.5L293.49,112.31L292.49,132.47L291.48,115.34L290.48,119.01L289.47,104.56L288.47,118.19L287.46,111.09L286.46,138.01L284.45,109.69L283.44,123.03L282.44,128.74L281.43,119.94L280.43,111.26L279.42,122.91L278.42,110.62L277.41,125.25L275.4,106.66L274.4,109.05L273.39,126.29L272.39,121.63L271.38,125.07L270.38,101.53L269.37,123.38L268.37,124.08L267.36,121.05L266.36,131.71L265.35,129.09L264.35,111.49L263.34,111.67L262.34,120.18L261.33,127.29L260.32,124.08L259.32,119.53L258.31,120.18L256.3,132.76L255.3,116.56L254.29,111.61L253.29,123.26L251.28,109.8L250.27,122.91L249.27,109.16L248.26,114.87L246.25,120L245.25,115.57L244.24,120.76L243.24,119.94L242.23,116.91L241.23,120L240.22,129.5L239.22,128.57L238.21,131.89L237.21,126.76L236.2,129.27L235.2,120.93L234.19,124.14L233.19,138.94L232.18,121.87L231.18,126L230.17,121.75L229.17,129.03L227.16,124.14L226.15,105.67L225.15,98.61L224.14,121.87L222.13,108.7L221.13,117.09L220.12,113.77L219.12,117.38L218.11,106.36L217.1,104.03L216.1,121.46L215.09,110.27L214.09,110.74L213.08,125.01L211.07,102.4L210.07,101.99L209.06,108.05L208.06,103.45L207.05,100.48L206.05,120.53L205.04,100.6L204.04,109.86L203.03,94.59L202.03,115.63L201.02,99.43L200.02,118.6L199.01,111.67L198.01,110.27L197,118.31L196,103.86L194.99,112.89L193.99,108.64L192.98,129.79L191.98,118.89L190.97,100.95L189.97,115.75L187.96,112.83L186.95,117.55L185.95,126.18L184.94,148.5L183.94,127.23L182.93,123.26L181.93,122.86L180.92,126.94L179.92,112.89L178.91,124.72L177.91,114.99L176.9,133.99L175.9,111.09L174.89,119.19L173.88,118.54L172.88,115.22L170.87,107.36L169.86,114.64L167.85,125.71L166.85,123.73L164.84,111.78L163.83,120.82L162.83,119.94L161.82,129.38L160.82,128.28L159.81,124.66L158.81,134.92L157.8,129.09L156.8,144.42L155.79,137.6L154.79,135.62L153.78,141.56L151.77,127.05L150.77,130.72L149.76,133.29L148.76,132.94L147.75,130.37L146.75,131.71L145.74,143.02L144.74,140.11L142.73,144.65L141.72,132.41L140.72,133.05L139.71,137.6L138.71,137.25L137.7,133.58L136.7,137.02L135.69,145.88L133.68,140.28L132.68,145.99L131.67,134.1L130.66,143.31L129.66,146.87L128.65,147.22L127.65,142.26L126.64,142.2L125.64,146.98L124.63,141.04L123.63,143.43L122.62,155.67L121.62,155.67L120.61,141.56L119.61,161.67L118.6,159.05L117.6,163.12L116.59,174.26L115.59,181.83L114.58,176.18L110.56,205.67L109.56,185.39L108.55,195.58L107.55,188.07L106.54,185.56L105.54,187.54L104.53,190.86L103.53,186.78L102.52,183L101.52,205.96L99.51,181.89L98.5,187.13L97.5,195.06L96.49,193.66L95.49,188.01L94.48,187.66L92.47,199.08L91.47,195.18L90.46,200.6L89.46,196.92L88.45,197.39L87.45,207.59L85.43,203.33L84.43,208.11L83.42,210.5L82.42,221.4L81.41,207.76L80.41,213.3L79.4,221.75L78.4,216.85L76.39,231.66L75.38,224.72L74.38,229.5L73.37,229.27L72.37,232.94L71.36,230.96L70.36,235.62L69.35,228.39L68.35,234.98L67.34,231.42L66.34,234.74L65.33,232.41L64.33,239.52L63.32,235.79L61.31,232.41L60.31,235.39L59.3,237.13L58.3,237.02L57.29,241.39L56.29,241.45L55.28,241.8L54.28,239.76L53.27,239.87L52.27,236.73L51.26,241.8L50.26,240.63L47.24,243.49L46.24,242.9L45.23,243.49L44.23,243.08L42.21,242.61L41.21,243.31L40.2,244.24L39.2,243.37L37.19,242.26L36.18,243.49L27.14,244.3L26.13,243.72L25.13,244.48L24.12,244.24L20.1,244.42L19.1,244.36L17.09,244.65L16.08,243.95L11.06,244.48L10.05,244.42L6.03,244.24L5.03,244.42L2.01,245.12L1.01,244.24L0,244.88Z" style="fill: rgb(239, 85, 59); fill-opacity: 0.3; stroke-width: 0;"/></g></g><g class="errorbars"/><g class="lines"><path class="js-line" d="M0,244.19L2.01,243.43L3.02,241.62L5.03,240.69L6.03,241.15L8.04,237.6L9.05,232.94L10.05,231.95L11.06,234.22L13.07,228.16L14.07,236.43L15.08,231.07L16.08,233.35L19.1,240.81L20.1,238.01L21.11,229.97L22.11,234.34L24.12,222.1L25.13,221.46L26.13,217.73L27.14,218.72L29.15,212.54L30.15,210.21L31.16,215.63L32.16,210.62L34.17,218.95L35.18,213.12L36.18,212.89L37.19,206.95L38.19,192.44L39.2,200.83L40.2,188.77L41.21,195.53L42.21,192.03L43.22,200.07L44.23,188.82L45.23,190.86L47.24,181.95L48.25,174.49L49.25,169.3L50.26,173.96L51.26,163.47L52.27,177.69L53.27,168.02L54.28,172.16L56.29,165.92L57.29,172.33L59.3,154.27L60.31,159.63L61.31,152.05L62.32,157.59L63.32,144.77L64.33,152.11L66.34,142.32L67.34,146.46L68.35,146.52L69.35,139.99L72.37,131.89L73.37,125.36L74.38,120.76L75.38,123.15L76.39,114.93L77.39,118.31L78.4,105.61L79.4,105.61L80.41,110.39L81.41,102.4L82.42,107.36L83.42,107.06L84.43,100.48L85.43,109.4L86.44,96.22L87.45,94.54L88.45,88.12L89.46,102.34L90.46,90.16L91.47,91.39L92.47,91.91L93.48,75.83L94.48,83.05L95.49,77.98L97.5,91.21L98.5,78.98L99.51,71.69L100.51,79.38L101.52,90.28L102.52,87.25L103.53,90.75L104.53,82.71L105.54,75.13L106.54,74.9L107.55,75.3L108.55,67.5L109.56,61.9L110.56,70.7L111.57,80.55L112.57,73.56L114.58,67.44L115.59,76.94L116.59,69.88L117.6,77.17L118.6,62.78L119.61,62.72L120.61,55.84L121.62,63.36L122.62,68.66L123.63,59.45L124.63,65.28L125.64,57.59L126.64,69.01L127.65,65.16L128.65,57.47L129.66,64.76L130.66,56.36L131.67,59.05L132.68,61.26L133.68,65.86L134.69,62.37L135.69,63.07L136.7,49.55L137.7,57.36L138.71,53.51L139.71,60.33L141.72,59.45L142.73,62.66L143.73,66.39L144.74,61.84L145.74,64.64L146.75,48.15L147.75,58.52L148.76,58.35L150.77,54.91L151.77,48.79L152.78,60.74L153.78,59.05L154.79,64L155.79,64.87L156.8,61.14L157.8,60.33L158.81,61.67L159.81,56.31L160.82,55.55L161.82,59.51L163.83,49.72L164.84,54.91L165.84,66.91L166.85,57.59L167.85,53.33L168.86,56.83L169.86,52.58L170.87,52.34L172.88,51.24L173.88,49.14L174.89,50.36L175.9,47.57L176.9,50.95L177.91,45.29L178.91,44.65L179.92,47.51L182.93,50.36L183.94,44.3L184.94,48.21L185.95,37.89L186.95,46.17L187.96,40.4L188.96,44.07L189.97,43.25L190.97,36.78L191.98,40.81L192.98,45.29L193.99,33.87L196,40.28L197,39.87L199.01,33.99L200.02,38.24L201.02,45.35L202.03,45.82L204.04,37.83L205.04,39.64L206.05,42.09L207.05,42.32L208.06,35.56L209.06,40.22L211.07,44.77L212.08,41.5L213.08,43.84L214.09,42.9L215.09,33.4L216.1,39.12L219.12,32.88L220.12,38.18L221.13,46.57L222.13,37.54L223.14,45.82L224.14,36.43L225.15,35.56L226.15,37.54L228.16,45.93L229.17,42.32L230.17,31.83L231.18,36.03L232.18,45.18L233.19,35.74L234.19,32.12L235.2,32.88L236.2,38.94L237.21,35.91L238.21,36.14L239.22,34.28L240.22,39.81L241.23,35.56L242.23,38.12L243.24,37.37L244.24,40.57L245.25,36.14L246.25,33.11L247.26,36.43L248.26,34.86L249.27,23.96L251.28,43.31L252.28,32.41L253.29,36.38L254.29,34.57L255.3,34.8L256.3,39.58L257.31,42.44L258.31,35.5L259.32,38.42L260.32,35.56L261.33,41.8L262.34,31.77L264.35,46.52L265.35,37.13L266.36,40.86L267.36,31.83L268.37,34.57L269.37,42.67L274.4,34.92L275.4,39.52L276.41,34.69L277.41,37.37L279.42,40.86L280.43,39.99L281.43,42.9L282.44,40.92L283.44,42.26L284.45,35.09L285.45,31.54L286.46,45.88L287.46,35.21L288.47,46.98L289.47,39.81L290.48,39.81L291.48,31.19L292.49,46.52L293.49,45.29L294.5,37.83L295.5,37.78L296.51,29.97L298.52,41.33L299.52,36.96L300.53,41.39L301.53,39.06L302.54,43.08L303.54,34.45L304.55,35.21L305.55,43.66L307.57,28.45L308.57,34.74L310.58,44.42L311.59,41.04L312.59,35.21L313.6,38.01L314.6,31.48L315.61,40.16L316.61,34.74L317.62,38.77L318.62,32.12L319.63,34.45L321.64,32.47L322.64,35.97L323.65,30.08L324.65,37.43L325.66,40.75L326.66,38.42L327.67,46.4L328.67,29.91L329.68,37.37L330.68,36.9L331.69,37.95L332.69,46.87L333.7,42.85L334.7,33L336.71,41.45L337.72,41.16L338.72,38.24L339.73,45.29L341.74,36.84L342.74,45.47L343.75,29.62L344.75,37.95L346.76,40.92L347.77,44.48L348.77,43.66L349.78,31.48L350.79,44.36L351.79,41.39L352.8,35.79L353.8,42.09L354.81,35.09L355.81,37.31L356.82,43.31L357.82,44.01L358.83,39.87L359.83,45.7L360.84,42.03L361.84,34.57L363.85,47.16L364.86,37.48L365.86,34.16L366.87,46.98L367.87,33.4L368.88,40.11L370.89,34.63L371.89,40.69L372.9,41.74L373.9,34.86L374.91,38.59L375.91,35.68L376.92,29.97L377.92,33.7L378.93,36.38L379.93,36.43L380.94,36.14L381.94,30.08L382.95,32.76L383.95,40.28L384.96,30.96L385.96,31.31L386.97,37.08L387.97,38.24L388.98,43.14L389.98,28.28L390.99,35.68L391.99,32.94L393,33.93L393,100.36L391.99,97.91L390.99,108.05L389.98,108.23L388.98,99.08L387.97,99.43L386.97,94.3L385.96,108.23L384.96,97.74L383.95,99.02L382.95,110.04L380.94,96.98L379.93,89.93L378.93,92.5L377.92,104.91L376.92,97.39L375.91,103.33L374.91,106.36L373.9,103.04L372.9,88.01L371.89,104.09L370.89,104.56L369.88,96.22L368.88,94.36L367.87,96.17L365.86,95.82L364.86,89.87L363.85,87.66L362.85,100.95L360.84,86.78L359.83,92.61L358.83,106.6L357.82,93.54L356.82,102.46L355.81,88.59L354.81,84.98L353.8,88.24L352.8,99.31L351.79,96.52L350.79,106.36L349.78,89.99L348.77,123.79L347.77,108.29L346.76,110.85L345.76,105.43L344.75,116.68L343.75,97.22L342.74,92.79L341.74,96.87L340.73,97.86L339.73,100.65L338.72,85.5L337.72,90.4L336.71,92.5L335.71,89.76L334.7,114.93L333.7,97.62L332.69,99.08L331.69,97.8L330.68,96.52L329.68,84.45L328.67,83L327.67,91.74L326.66,88.3L325.66,89.87L324.65,92.79L323.65,113.07L322.64,105.72L321.64,92.9L320.63,99.6L319.63,97.97L318.62,114.76L317.62,96.17L316.61,100.6L315.61,89.81L314.6,93.31L313.6,92.2L312.59,103.98L311.59,90.63L310.58,95.29L309.58,93.25L308.57,88.53L307.57,92.26L306.56,99.37L305.55,98.96L303.54,107.06L302.54,106.31L301.53,96.22L300.53,112.37L299.52,93.66L298.52,102.29L297.51,121.81L296.51,115.75L295.5,98.26L294.5,110.5L293.49,112.31L292.49,132.47L291.48,115.34L290.48,119.01L289.47,104.56L288.47,118.19L287.46,111.09L286.46,138.01L284.45,109.69L283.44,123.03L282.44,128.74L281.43,119.94L280.43,111.26L279.42,122.91L278.42,110.62L277.41,125.25L275.4,106.66L274.4,109.05L273.39,126.29L272.39,121.63L271.38,125.07L270.38,101.53L269.37,123.38L268.37,124.08L267.36,121.05L266.36,131.71L265.35,129.09L264.35,111.49L263.34,111.67L262.34,120.18L261.33,127.29L260.32,124.08L259.32,119.53L258.31,120.18L256.3,132.76L255.3,116.56L254.29,111.61L253.29,123.26L251.28,109.8L250.27,122.91L249.27,109.16L248.26,114.87L246.25,120L245.25,115.57L244.24,120.76L243.24,119.94L242.23,116.91L241.23,120L240.22,129.5L239.22,128.57L238.21,131.89L237.21,126.76L236.2,129.27L235.2,120.93L234.19,124.14L233.19,138.94L232.18,121.87L231.18,126L230.17,121.75L229.17,129.03L227.16,124.14L226.15,105.67L225.15,98.61L224.14,121.87L222.13,108.7L221.13,117.09L220.12,113.77L219.12,117.38L218.11,106.36L217.1,104.03L216.1,121.46L215.09,110.27L214.09,110.74L213.08,125.01L211.07,102.4L210.07,101.99L209.06,108.05L208.06,103.45L207.05,100.48L206.05,120.53L205.04,100.6L204.04,109.86L203.03,94.59L202.03,115.63L201.02,99.43L200.02,118.6L199.01,111.67L198.01,110.27L197,118.31L196,103.86L194.99,112.89L193.99,108.64L192.98,129.79L191.98,118.89L190.97,100.95L189.97,115.75L187.96,112.83L186.95,117.55L185.95,126.18L184.94,148.5L183.94,127.23L182.93,123.26L181.93,122.86L180.92,126.94L179.92,112.89L178.91,124.72L177.91,114.99L176.9,133.99L175.9,111.09L174.89,119.19L173.88,118.54L172.88,115.22L170.87,107.36L169.86,114.64L167.85,125.71L166.85,123.73L164.84,111.78L163.83,120.82L162.83,119.94L161.82,129.38L160.82,128.28L159.81,124.66L158.81,134.92L157.8,129.09L156.8,144.42L155.79,137.6L154.79,135.62L153.78,141.56L151.77,127.05L150.77,130.72L149.76,133.29L148.76,132.94L147.75,130.37L146.75,131.71L145.74,143.02L144.74,140.11L142.73,144.65L141.72,132.41L140.72,133.05L139.71,137.6L138.71,137.25L137.7,133.58L136.7,137.02L135.69,145.88L133.68,140.28L132.68,145.99L131.67,134.1L130.66,143.31L129.66,146.87L128.65,147.22L127.65,142.26L126.64,142.2L125.64,146.98L124.63,141.04L123.63,143.43L122.62,155.67L121.62,155.67L120.61,141.56L119.61,161.67L118.6,159.05L117.6,163.12L116.59,174.26L115.59,181.83L114.58,176.18L110.56,205.67L109.56,185.39L108.55,195.58L107.55,188.07L106.54,185.56L105.54,187.54L104.53,190.86L103.53,186.78L102.52,183L101.52,205.96L99.51,181.89L98.5,187.13L97.5,195.06L96.49,193.66L95.49,188.01L94.48,187.66L92.47,199.08L91.47,195.18L90.46,200.6L89.46,196.92L88.45,197.39L87.45,207.59L85.43,203.33L84.43,208.11L83.42,210.5L82.42,221.4L81.41,207.76L80.41,213.3L79.4,221.75L78.4,216.85L76.39,231.66L75.38,224.72L74.38,229.5L73.37,229.27L72.37,232.94L71.36,230.96L70.36,235.62L69.35,228.39L68.35,234.98L67.34,231.42L66.34,234.74L65.33,232.41L64.33,239.52L63.32,235.79L61.31,232.41L60.31,235.39L59.3,237.13L58.3,237.02L57.29,241.39L56.29,241.45L55.28,241.8L54.28,239.76L53.27,239.87L52.27,236.73L51.26,241.8L50.26,240.63L47.24,243.49L46.24,242.9L45.23,243.49L44.23,243.08L42.21,242.61L41.21,243.31L40.2,244.24L39.2,243.37L37.19,242.26L36.18,243.49L27.14,244.3L26.13,243.72L25.13,244.48L24.12,244.24L20.1,244.42L19.1,244.36L17.09,244.65L16.08,243.95L11.06,244.48L10.05,244.42L6.03,244.24L5.03,244.42L2.01,245.12L1.01,244.24L0,244.88" style="vector-effect: non-scaling-stroke; fill: none; stroke: rgb(0, 0, 0); stroke-opacity: 0; stroke-width: 2px; opacity: 1;"/></g><g class="points"/><g class="text"/></g><g class="trace scatter trace431f8e" style="stroke-miterlimit: 2; opacity: 1;"><g class="fills"><g><path class="js-fill" d="M0,243.95L2.01,243.49L3.02,242.44L4.02,242.55L5.03,241.74L6.03,242.79L7.04,242.67L10.05,242.09L11.06,241.62L12.06,240.92L13.07,241.15L14.07,240.81L15.08,241.97L16.08,241.39L17.09,239.29L19.1,241.62L20.1,242.55L22.11,240.22L23.12,242.2L28.14,242.32L29.15,242.79L30.15,243.02L31.16,241.62L32.16,240.57L33.17,240.92L35.18,236.14L36.18,236.84L39.2,233.93L40.2,234.05L41.21,232.41L42.21,232.76L43.22,233.11L44.23,235.09L46.24,229.27L47.24,228.92L49.25,219.83L50.26,227.52L52.27,218.31L53.27,223.91L54.28,221.46L55.28,213.42L56.29,211.78L57.29,208.52L58.3,208.75L59.3,203.16L60.31,211.09L61.31,212.25L62.32,208.64L63.32,210.85L64.33,201.76L65.33,200.36L66.34,199.31L67.34,205.14L69.35,188.36L70.36,197.57L71.36,194.65L72.37,198.85L73.37,190.34L74.38,190.11L76.39,188.12L77.39,193.25L78.4,187.54L79.4,186.26L81.41,173.91L82.42,174.14L83.42,174.02L84.43,178.1L85.43,182.65L86.44,177.05L87.45,175.54L88.45,172.39L89.46,179.15L90.46,180.2L91.47,172.97L92.47,174.49L93.48,169.01L94.48,172.62L95.49,169.01L96.49,172.86L97.5,177.05L98.5,164.23L99.51,168.66L100.51,165.75L101.52,164.81L102.52,161.32L103.53,170.41L104.53,170.64L105.54,174.26L106.54,174.02L107.55,171.69L108.55,164.23L109.56,172.16L110.56,169.48L111.57,165.63L112.57,172.74L113.58,162.95L114.58,170.53L115.59,167.73L116.59,168.08L117.6,165.16L118.6,168.78L120.61,158.05L121.62,167.38L123.63,164.93L124.63,159.57L125.64,160.27L126.64,154.09L127.65,156.42L128.65,155.61L129.66,159.34L130.66,155.14L131.67,158.99L132.68,158.52L135.69,152.34L136.7,153.63L138.71,161.43L139.71,162.48L140.72,155.72L141.72,159.22L142.73,154.56L143.73,158.17L144.74,157.24L145.74,151.99L146.75,150.95L147.75,160.04L148.76,151.53L149.76,155.49L150.77,147.8L151.77,152.81L152.78,154.33L153.78,152.81L154.79,155.72L155.79,151.64L156.8,155.26L157.8,151.99L160.82,145.82L161.82,146.87L162.83,147.33L163.83,145.23L164.84,144.65L165.84,152.23L166.85,145.93L167.85,150.83L168.86,148.26L169.86,152.58L170.87,143.72L171.87,144.65L172.88,148.38L173.88,144.3L174.89,147.33L175.9,139.41L176.9,140.11L177.91,136.84L178.91,142.55L179.92,140.11L180.92,139.99L181.93,138.36L182.93,139.29L183.94,138.36L184.94,134.74L185.95,136.84L186.95,143.95L187.96,140.34L188.96,139.17L189.97,139.76L190.97,138.82L191.98,142.09L193.99,138.12L194.99,139.52L196,140.11L197,139.52L198.01,141.5L199.01,140.22L200.02,144.53L201.02,133.35L202.03,141.39L203.03,138.36L204.04,136.38L205.04,143.02L206.05,139.52L207.05,143.37L208.06,139.41L209.06,139.87L210.07,134.63L211.07,141.16L212.08,136.14L213.08,137.31L214.09,138.24L215.09,143.84L216.1,140.69L217.1,144.77L218.11,145.12L219.12,140.92L220.12,143.25L221.13,138.82L222.13,137.66L223.14,145.12L224.14,144.77L225.15,138.47L226.15,145L227.16,143.14L229.17,134.86L230.17,139.41L231.18,143.02L232.18,141.5L233.19,135.33L234.19,137.54L235.2,138.24L236.2,136.61L237.21,140.34L238.21,138.71L239.22,137.78L240.22,132.53L241.23,142.55L242.23,131.25L243.24,138.82L244.24,137.43L245.25,134.05L246.25,137.43L247.26,136.14L248.26,136.73L249.27,136.26L250.27,130.2L251.28,139.17L252.28,135.79L253.29,137.66L254.29,131.83L256.3,137.54L257.31,139.17L258.31,138.01L259.32,138.47L261.33,141.74L262.34,133.93L263.34,136.61L264.35,131.13L265.35,134.74L266.36,130.9L268.37,128.45L269.37,131.95L270.38,131.25L271.38,137.08L272.39,126.7L273.39,137.54L274.4,135.79L275.4,126.47L276.41,135.56L277.41,131.48L278.42,126.7L279.42,132.06L280.43,124.84L281.43,129.38L282.44,129.5L283.44,127.98L284.45,133.81L285.45,129.97L286.46,132.88L287.46,129.15L288.47,124.6L289.47,132.06L290.48,130.08L291.48,130.78L292.49,134.51L293.49,129.38L294.5,134.74L295.5,130.78L296.51,128.22L297.51,128.8L298.52,130.43L299.52,129.97L302.54,128.45L303.54,129.15L304.55,130.55L305.55,126.47L307.57,131.83L308.57,127.87L310.58,129.5L311.59,127.17L312.59,130.9L313.6,130.55L314.6,132.53L315.61,129.85L316.61,126.12L317.62,131.48L318.62,135.79L319.63,135.44L322.64,127.4L323.65,132.53L324.65,128.22L325.66,132.76L326.66,128.92L327.67,130.78L329.68,125.65L330.68,127.64L332.69,122.04L333.7,126.7L334.7,126.35L335.71,133.7L338.72,125.42L339.73,125.89L340.73,127.17L341.74,133.23L342.74,134.4L343.75,131.95L345.76,126.7L346.76,125.3L347.77,133.81L348.77,128.33L349.78,134.4L350.79,126.24L351.79,134.16L352.8,134.74L353.8,133.7L354.81,126.82L355.81,131.6L356.82,132.53L358.83,124.95L359.83,129.62L360.84,135.56L361.84,128.68L362.85,133L363.85,131.71L364.86,134.98L365.86,128.8L366.87,128.57L367.87,132.06L368.88,130.43L369.88,133.11L370.89,129.27L371.89,131.25L372.9,129.03L373.9,133.11L374.91,128.8L375.91,127.87L376.92,131.6L377.92,129.62L379.93,133.81L380.94,125.54L382.95,131.02L383.95,128.68L384.96,126.24L385.96,132.41L386.97,130.08L387.97,130.67L388.98,125.77L389.98,129.15L391.99,131.95L393,128.45L393,234.05L391.99,235.79L390.99,236.38L389.98,233.35L387.97,237.43L386.97,236.03L384.96,235.56L383.95,236.26L382.95,236.96L381.94,234.16L380.94,234.05L379.93,235.09L378.93,236.84L377.92,234.05L376.92,237.66L375.91,232.06L373.9,236.26L372.9,233.7L371.89,233.58L370.89,236.96L369.88,232.41L368.88,236.26L367.87,233.23L366.87,234.98L365.86,233.93L364.86,235.79L363.85,234.74L362.85,237.66L361.84,236.49L360.84,236.73L359.83,237.31L358.83,236.73L357.82,238.01L356.82,235.44L354.81,236.96L353.8,238.94L352.8,234.74L351.79,234.05L349.78,238.82L348.77,239.64L347.77,237.54L346.76,237.66L345.76,237.31L344.75,234.86L343.75,233.7L342.74,235.68L341.74,233.35L340.73,234.98L339.73,237.77L338.72,236.73L336.71,237.31L335.71,240.46L334.7,239.41L333.7,236.14L332.69,236.49L331.69,235.44L329.68,239.06L328.67,237.43L327.67,234.86L326.66,237.77L324.65,238.59L323.65,237.66L321.64,236.38L320.63,236.84L319.63,238.12L318.62,237.89L316.61,237.19L315.61,239.64L312.59,237.08L311.59,237.66L310.58,236.61L309.58,238.71L308.57,237.31L307.57,238.24L306.56,237.43L305.55,239.17L303.54,238.59L302.54,239.52L301.53,239.06L300.53,240.69L299.52,236.03L298.52,239.06L297.51,239.29L296.51,238.71L295.5,236.73L294.5,237.19L293.49,235.68L292.49,236.03L291.48,235.33L290.48,236.96L289.47,236.03L288.47,236.49L287.46,238.36L286.46,235.56L285.45,234.28L284.45,235.91L283.44,236.26L282.44,238.59L281.43,235.44L280.43,238.36L279.42,238.59L278.42,236.03L276.41,237.31L275.4,235.21L274.4,237.43L273.39,237.08L272.39,238.59L271.38,236.38L270.38,239.17L269.37,236.96L268.37,237.31L267.36,235.21L266.36,238.59L265.35,238.94L263.34,238.36L262.34,240.69L260.32,238.82L259.32,238.59L258.31,238.12L257.31,238.59L254.29,237.43L253.29,239.41L252.28,240.92L251.28,239.06L249.27,240.22L248.26,238.47L247.26,240.34L246.25,239.29L245.25,240.22L244.24,238.24L243.24,238.36L242.23,239.29L240.22,236.49L239.22,239.29L237.21,237.08L236.2,237.77L235.2,235.68L234.19,236.96L233.19,235.91L232.18,238.24L230.17,236.84L229.17,236.96L228.16,239.17L227.16,237.77L226.15,239.29L225.15,238.36L224.14,239.17L223.14,237.08L221.13,240.34L220.12,238.94L219.12,237.08L218.11,241.04L216.1,239.99L215.09,235.68L213.08,240.34L212.08,240.22L211.07,238.94L210.07,239.64L209.06,241.5L208.06,239.06L207.05,239.41L206.05,242.55L205.04,239.76L204.04,239.87L200.02,241.15L199.01,238.82L197,239.17L196,240.34L194.99,240.69L193.99,242.2L191.98,240.57L190.97,239.29L188.96,242.2L187.96,242.2L186.95,241.27L185.95,241.62L184.94,241.27L183.94,243.02L182.93,242.09L181.93,242.67L180.92,240.69L179.92,242.44L176.9,241.04L175.9,243.37L174.89,241.27L173.88,242.09L171.87,243.14L170.87,241.74L168.86,243.25L167.85,243.14L165.84,243.37L164.84,241.62L161.82,242.79L160.82,242.55L155.79,242.9L154.79,243.37L151.77,242.79L150.77,242.55L148.76,243.49L147.75,242.9L144.74,243.72L143.73,243.02L137.7,243.37L136.7,243.14L119.61,243.37L118.6,242.2L117.6,243.6L116.59,243.14L114.58,243.49L113.58,243.6L110.56,242.9L109.56,243.72L108.55,244.07L107.55,243.49L106.54,242.44L105.54,243.14L104.53,243.6L103.53,243.14L100.51,243.6L99.51,243.6L96.49,243.72L95.49,243.02L94.48,244.07L93.48,243.02L92.47,243.72L91.47,243.25L88.45,243.72L87.45,243.72L85.43,243.25L84.43,244.19L81.41,243.72L80.41,243.72L79.4,243.14L78.4,243.6L74.38,243.84L73.37,243.49L72.37,243.95L71.36,243.14L68.35,244.3L67.34,243.25L65.33,244.3L64.33,243.95L63.32,243.49L62.32,244.19L59.3,243.72L58.3,243.95L42.21,243.72L41.21,244.88L39.2,244.07L38.19,244.3L0,244.65Z" style="fill: rgb(0, 204, 150); fill-opacity: 0.3; stroke-width: 0;"/></g></g><g class="errorbars"/><g class="lines"><path class="js-line" d="M0,243.95L2.01,243.49L3.02,242.44L4.02,242.55L5.03,241.74L6.03,242.79L7.04,242.67L10.05,242.09L11.06,241.62L12.06,240.92L13.07,241.15L14.07,240.81L15.08,241.97L16.08,241.39L17.09,239.29L19.1,241.62L20.1,242.55L22.11,240.22L23.12,242.2L28.14,242.32L29.15,242.79L30.15,243.02L31.16,241.62L32.16,240.57L33.17,240.92L35.18,236.14L36.18,236.84L39.2,233.93L40.2,234.05L41.21,232.41L42.21,232.76L43.22,233.11L44.23,235.09L46.24,229.27L47.24,228.92L49.25,219.83L50.26,227.52L52.27,218.31L53.27,223.91L54.28,221.46L55.28,213.42L56.29,211.78L57.29,208.52L58.3,208.75L59.3,203.16L60.31,211.09L61.31,212.25L62.32,208.64L63.32,210.85L64.33,201.76L65.33,200.36L66.34,199.31L67.34,205.14L69.35,188.36L70.36,197.57L71.36,194.65L72.37,198.85L73.37,190.34L74.38,190.11L76.39,188.12L77.39,193.25L78.4,187.54L79.4,186.26L81.41,173.91L82.42,174.14L83.42,174.02L84.43,178.1L85.43,182.65L86.44,177.05L87.45,175.54L88.45,172.39L89.46,179.15L90.46,180.2L91.47,172.97L92.47,174.49L93.48,169.01L94.48,172.62L95.49,169.01L96.49,172.86L97.5,177.05L98.5,164.23L99.51,168.66L100.51,165.75L101.52,164.81L102.52,161.32L103.53,170.41L104.53,170.64L105.54,174.26L106.54,174.02L107.55,171.69L108.55,164.23L109.56,172.16L110.56,169.48L111.57,165.63L112.57,172.74L113.58,162.95L114.58,170.53L115.59,167.73L116.59,168.08L117.6,165.16L118.6,168.78L120.61,158.05L121.62,167.38L123.63,164.93L124.63,159.57L125.64,160.27L126.64,154.09L127.65,156.42L128.65,155.61L129.66,159.34L130.66,155.14L131.67,158.99L132.68,158.52L135.69,152.34L136.7,153.63L138.71,161.43L139.71,162.48L140.72,155.72L141.72,159.22L142.73,154.56L143.73,158.17L144.74,157.24L145.74,151.99L146.75,150.95L147.75,160.04L148.76,151.53L149.76,155.49L150.77,147.8L151.77,152.81L152.78,154.33L153.78,152.81L154.79,155.72L155.79,151.64L156.8,155.26L157.8,151.99L160.82,145.82L161.82,146.87L162.83,147.33L163.83,145.23L164.84,144.65L165.84,152.23L166.85,145.93L167.85,150.83L168.86,148.26L169.86,152.58L170.87,143.72L171.87,144.65L172.88,148.38L173.88,144.3L174.89,147.33L175.9,139.41L176.9,140.11L177.91,136.84L178.91,142.55L179.92,140.11L180.92,139.99L181.93,138.36L182.93,139.29L183.94,138.36L184.94,134.74L185.95,136.84L186.95,143.95L187.96,140.34L188.96,139.17L189.97,139.76L190.97,138.82L191.98,142.09L193.99,138.12L194.99,139.52L196,140.11L197,139.52L198.01,141.5L199.01,140.22L200.02,144.53L201.02,133.35L202.03,141.39L203.03,138.36L204.04,136.38L205.04,143.02L206.05,139.52L207.05,143.37L208.06,139.41L209.06,139.87L210.07,134.63L211.07,141.16L212.08,136.14L213.08,137.31L214.09,138.24L215.09,143.84L216.1,140.69L217.1,144.77L218.11,145.12L219.12,140.92L220.12,143.25L221.13,138.82L222.13,137.66L223.14,145.12L224.14,144.77L225.15,138.47L226.15,145L227.16,143.14L229.17,134.86L230.17,139.41L231.18,143.02L232.18,141.5L233.19,135.33L234.19,137.54L235.2,138.24L236.2,136.61L237.21,140.34L238.21,138.71L239.22,137.78L240.22,132.53L241.23,142.55L242.23,131.25L243.24,138.82L244.24,137.43L245.25,134.05L246.25,137.43L247.26,136.14L248.26,136.73L249.27,136.26L250.27,130.2L251.28,139.17L252.28,135.79L253.29,137.66L254.29,131.83L256.3,137.54L257.31,139.17L258.31,138.01L259.32,138.47L261.33,141.74L262.34,133.93L263.34,136.61L264.35,131.13L265.35,134.74L266.36,130.9L268.37,128.45L269.37,131.95L270.38,131.25L271.38,137.08L272.39,126.7L273.39,137.54L274.4,135.79L275.4,126.47L276.41,135.56L277.41,131.48L278.42,126.7L279.42,132.06L280.43,124.84L281.43,129.38L282.44,129.5L283.44,127.98L284.45,133.81L285.45,129.97L286.46,132.88L287.46,129.15L288.47,124.6L289.47,132.06L290.48,130.08L291.48,130.78L292.49,134.51L293.49,129.38L294.5,134.74L295.5,130.78L296.51,128.22L297.51,128.8L298.52,130.43L299.52,129.97L302.54,128.45L303.54,129.15L304.55,130.55L305.55,126.47L307.57,131.83L308.57,127.87L310.58,129.5L311.59,127.17L312.59,130.9L313.6,130.55L314.6,132.53L315.61,129.85L316.61,126.12L317.62,131.48L318.62,135.79L319.63,135.44L322.64,127.4L323.65,132.53L324.65,128.22L325.66,132.76L326.66,128.92L327.67,130.78L329.68,125.65L330.68,127.64L332.69,122.04L333.7,126.7L334.7,126.35L335.71,133.7L338.72,125.42L339.73,125.89L340.73,127.17L341.74,133.23L342.74,134.4L343.75,131.95L345.76,126.7L346.76,125.3L347.77,133.81L348.77,128.33L349.78,134.4L350.79,126.24L351.79,134.16L352.8,134.74L353.8,133.7L354.81,126.82L355.81,131.6L356.82,132.53L358.83,124.95L359.83,129.62L360.84,135.56L361.84,128.68L362.85,133L363.85,131.71L364.86,134.98L365.86,128.8L366.87,128.57L367.87,132.06L368.88,130.43L369.88,133.11L370.89,129.27L371.89,131.25L372.9,129.03L373.9,133.11L374.91,128.8L375.91,127.87L376.92,131.6L377.92,129.62L379.93,133.81L380.94,125.54L382.95,131.02L383.95,128.68L384.96,126.24L385.96,132.41L386.97,130.08L387.97,130.67L388.98,125.77L389.98,129.15L391.99,131.95L393,128.45L393,234.05L391.99,235.79L390.99,236.38L389.98,233.35L387.97,237.43L386.97,236.03L384.96,235.56L383.95,236.26L382.95,236.96L381.94,234.16L380.94,234.05L379.93,235.09L378.93,236.84L377.92,234.05L376.92,237.66L375.91,232.06L373.9,236.26L372.9,233.7L371.89,233.58L370.89,236.96L369.88,232.41L368.88,236.26L367.87,233.23L366.87,234.98L365.86,233.93L364.86,235.79L363.85,234.74L362.85,237.66L361.84,236.49L360.84,236.73L359.83,237.31L358.83,236.73L357.82,238.01L356.82,235.44L354.81,236.96L353.8,238.94L352.8,234.74L351.79,234.05L349.78,238.82L348.77,239.64L347.77,237.54L346.76,237.66L345.76,237.31L344.75,234.86L343.75,233.7L342.74,235.68L341.74,233.35L340.73,234.98L339.73,237.77L338.72,236.73L336.71,237.31L335.71,240.46L334.7,239.41L333.7,236.14L332.69,236.49L331.69,235.44L329.68,239.06L328.67,237.43L327.67,234.86L326.66,237.77L324.65,238.59L323.65,237.66L321.64,236.38L320.63,236.84L319.63,238.12L318.62,237.89L316.61,237.19L315.61,239.64L312.59,237.08L311.59,237.66L310.58,236.61L309.58,238.71L308.57,237.31L307.57,238.24L306.56,237.43L305.55,239.17L303.54,238.59L302.54,239.52L301.53,239.06L300.53,240.69L299.52,236.03L298.52,239.06L297.51,239.29L296.51,238.71L295.5,236.73L294.5,237.19L293.49,235.68L292.49,236.03L291.48,235.33L290.48,236.96L289.47,236.03L288.47,236.49L287.46,238.36L286.46,235.56L285.45,234.28L284.45,235.91L283.44,236.26L282.44,238.59L281.43,235.44L280.43,238.36L279.42,238.59L278.42,236.03L276.41,237.31L275.4,235.21L274.4,237.43L273.39,237.08L272.39,238.59L271.38,236.38L270.38,239.17L269.37,236.96L268.37,237.31L267.36,235.21L266.36,238.59L265.35,238.94L263.34,238.36L262.34,240.69L260.32,238.82L259.32,238.59L258.31,238.12L257.31,238.59L254.29,237.43L253.29,239.41L252.28,240.92L251.28,239.06L249.27,240.22L248.26,238.47L247.26,240.34L246.25,239.29L245.25,240.22L244.24,238.24L243.24,238.36L242.23,239.29L240.22,236.49L239.22,239.29L237.21,237.08L236.2,237.77L235.2,235.68L234.19,236.96L233.19,235.91L232.18,238.24L230.17,236.84L229.17,236.96L228.16,239.17L227.16,237.77L226.15,239.29L225.15,238.36L224.14,239.17L223.14,237.08L221.13,240.34L220.12,238.94L219.12,237.08L218.11,241.04L216.1,239.99L215.09,235.68L213.08,240.34L212.08,240.22L211.07,238.94L210.07,239.64L209.06,241.5L208.06,239.06L207.05,239.41L206.05,242.55L205.04,239.76L204.04,239.87L200.02,241.15L199.01,238.82L197,239.17L196,240.34L194.99,240.69L193.99,242.2L191.98,240.57L190.97,239.29L188.96,242.2L187.96,242.2L186.95,241.27L185.95,241.62L184.94,241.27L183.94,243.02L182.93,242.09L181.93,242.67L180.92,240.69L179.92,242.44L176.9,241.04L175.9,243.37L174.89,241.27L173.88,242.09L171.87,243.14L170.87,241.74L168.86,243.25L167.85,243.14L165.84,243.37L164.84,241.62L161.82,242.79L160.82,242.55L155.79,242.9L154.79,243.37L151.77,242.79L150.77,242.55L148.76,243.49L147.75,242.9L144.74,243.72L143.73,243.02L137.7,243.37L136.7,243.14L119.61,243.37L118.6,242.2L117.6,243.6L116.59,243.14L114.58,243.49L113.58,243.6L110.56,242.9L109.56,243.72L108.55,244.07L107.55,243.49L106.54,242.44L105.54,243.14L104.53,243.6L103.53,243.14L100.51,243.6L99.51,243.6L96.49,243.72L95.49,243.02L94.48,244.07L93.48,243.02L92.47,243.72L91.47,243.25L88.45,243.72L87.45,243.72L85.43,243.25L84.43,244.19L81.41,243.72L80.41,243.72L79.4,243.14L78.4,243.6L74.38,243.84L73.37,243.49L72.37,243.95L71.36,243.14L68.35,244.3L67.34,243.25L65.33,244.3L64.33,243.95L63.32,243.49L62.32,244.19L59.3,243.72L58.3,243.95L42.21,243.72L41.21,244.88L39.2,244.07L38.19,244.3L0,244.65" style="vector-effect: non-scaling-stroke; fill: none; stroke: rgb(0, 0, 0); stroke-opacity: 0; stroke-width: 2px; opacity: 1;"/></g><g class="points"/><g class="text"/></g><g class="trace scatter trace4dabd5" style="stroke-miterlimit: 2; opacity: 1;"><g class="fills"><g><path class="js-fill" d="M0,246.05L5.03,246.05L6.03,236.73L7.04,241.39L8.04,241.39L13.07,241.39L14.07,232.06L16.08,232.06L17.09,241.39L18.09,227.4L19.1,227.4L20.1,222.74L21.11,232.06L23.12,213.42L24.12,232.06L25.13,236.73L26.13,194.77L27.14,227.4L28.14,227.4L29.15,222.74L30.15,236.73L32.16,194.77L33.17,232.06L35.18,199.43L36.18,199.43L37.19,204.09L38.19,166.8L39.2,190.11L40.2,176.12L41.21,204.09L42.21,185.44L43.22,176.12L44.23,185.44L46.24,185.44L47.24,176.12L48.25,185.44L49.25,166.8L51.26,166.8L52.27,180.78L53.27,162.13L54.28,166.8L55.28,171.46L56.29,138.82L58.3,176.12L59.3,148.15L60.31,148.15L61.31,152.81L62.32,157.47L63.32,166.8L64.33,143.49L65.33,143.49L66.34,134.16L67.34,134.16L68.35,166.8L69.35,138.82L70.36,143.49L71.36,138.82L72.37,115.51L73.37,138.82L74.38,134.16L75.38,152.81L77.39,138.82L78.4,152.81L79.4,157.47L80.41,138.82L81.41,152.81L82.42,115.51L83.42,120.18L84.43,101.53L86.44,134.16L87.45,120.18L88.45,134.16L89.46,110.85L90.46,129.5L91.47,110.85L92.47,110.85L93.48,101.53L94.48,115.51L95.49,106.19L96.49,124.84L97.5,101.53L98.5,106.19L99.51,115.51L100.51,92.2L101.52,124.84L102.52,106.19L103.53,134.16L104.53,92.2L105.54,96.87L106.54,120.18L107.55,110.85L108.55,106.19L109.56,110.85L110.56,106.19L111.57,110.85L112.57,96.87L113.58,110.85L114.58,87.54L115.59,87.54L116.59,115.51L117.6,101.53L118.6,129.5L119.61,68.89L120.61,96.87L121.62,96.87L122.62,120.18L123.63,92.2L124.63,120.18L125.64,96.87L126.64,87.54L127.65,87.54L128.65,110.85L129.66,101.53L130.66,101.53L131.67,96.87L132.68,106.19L133.68,87.54L135.69,110.85L136.7,87.54L137.7,134.16L138.71,92.2L139.71,87.54L140.72,96.87L142.73,82.88L143.73,96.87L144.74,96.87L145.74,78.22L146.75,96.87L147.75,82.88L148.76,92.2L149.76,82.88L150.77,106.19L151.77,87.54L152.78,82.88L153.78,92.2L154.79,78.22L155.79,92.2L156.8,73.56L157.8,78.22L158.81,78.22L159.81,106.19L161.82,50.25L162.83,101.53L163.83,82.88L164.84,78.22L165.84,73.56L166.85,110.85L167.85,78.22L168.86,87.54L169.86,82.88L170.87,87.54L172.88,64.23L173.88,64.23L174.89,54.91L175.9,73.56L176.9,54.91L177.91,78.22L178.91,73.56L179.92,82.88L180.92,50.25L181.93,54.91L183.94,73.56L184.94,73.56L185.95,92.2L186.95,73.56L187.96,87.54L188.96,82.88L189.97,87.54L190.97,54.91L192.98,78.22L193.99,64.23L194.99,73.56L196,50.25L198.01,78.22L199.01,64.23L200.02,59.57L201.02,45.58L202.03,54.91L203.03,73.56L204.04,59.57L205.04,73.56L206.05,59.57L207.05,87.54L208.06,36.26L209.06,59.57L210.07,64.23L211.07,54.91L212.08,40.92L213.08,68.89L214.09,59.57L215.09,64.23L217.1,54.91L218.11,45.58L219.12,59.57L220.12,36.26L221.13,73.56L222.13,64.23L223.14,22.27L224.14,54.91L225.15,78.22L226.15,40.92L227.16,50.25L228.16,50.25L230.17,68.89L231.18,40.92L232.18,68.89L233.19,64.23L234.19,68.89L235.2,45.58L236.2,59.57L237.21,45.58L238.21,40.92L239.22,50.25L240.22,40.92L241.23,50.25L242.23,68.89L243.24,31.6L245.25,64.23L246.25,68.89L247.26,31.6L248.26,54.91L249.27,54.91L250.27,82.88L251.28,68.89L252.28,36.26L253.29,26.94L254.29,59.57L255.3,59.57L256.3,45.58L257.31,64.23L258.31,40.92L259.32,45.58L260.32,45.58L261.33,31.6L262.34,54.91L263.34,31.6L264.35,64.23L265.35,45.58L266.36,50.25L268.37,36.26L269.37,50.25L270.38,45.58L271.38,64.23L272.39,59.57L273.39,36.26L274.4,54.91L275.4,45.58L276.41,26.94L277.41,64.23L278.42,36.26L279.42,50.25L280.43,54.91L281.43,40.92L284.45,64.23L285.45,54.91L286.46,68.89L287.46,64.23L288.47,50.25L289.47,50.25L290.48,40.92L291.48,50.25L292.49,40.92L293.49,50.25L294.5,50.25L295.5,54.91L296.51,31.6L297.51,59.57L298.52,26.94L299.52,31.6L300.53,40.92L301.53,36.26L303.54,59.57L304.55,36.26L305.55,40.92L306.56,68.89L308.57,54.91L309.58,64.23L310.58,54.91L311.59,59.57L312.59,54.91L313.6,45.58L314.6,26.94L315.61,45.58L316.61,45.58L317.62,54.91L318.62,73.56L319.63,59.57L320.63,45.58L321.64,50.25L322.64,36.26L323.65,40.92L324.65,12.95L325.66,31.6L326.66,45.58L327.67,40.92L329.68,64.23L330.68,54.91L331.69,40.92L332.69,50.25L333.7,36.26L334.7,50.25L335.71,54.91L336.71,31.6L337.72,36.26L338.72,45.58L339.73,54.91L340.73,26.94L341.74,68.89L342.74,31.6L343.75,36.26L344.75,50.25L345.76,31.6L346.76,54.91L347.77,36.26L348.77,45.58L349.78,59.57L350.79,50.25L352.8,36.26L353.8,64.23L354.81,54.91L355.81,59.57L357.82,59.57L358.83,45.58L359.83,50.25L360.84,17.61L361.84,36.26L362.85,36.26L363.85,31.6L364.86,40.92L365.86,26.94L366.87,68.89L367.87,40.92L368.88,54.91L369.88,40.92L370.89,54.91L371.89,22.27L372.9,50.25L373.9,73.56L374.91,45.58L375.91,64.23L376.92,68.89L377.92,36.26L378.93,45.58L379.93,31.6L380.94,45.58L381.94,26.94L382.95,36.26L383.95,64.23L384.96,40.92L386.97,54.91L387.97,40.92L388.98,36.26L389.98,36.26L391.99,59.57L393,45.58L393,115.51L391.99,124.84L390.99,87.54L389.98,96.87L388.98,101.53L387.97,101.53L386.97,110.85L385.96,101.53L384.96,92.2L383.95,115.51L382.95,110.85L381.94,73.56L380.94,110.85L379.93,78.22L378.93,101.53L377.92,101.53L376.92,87.54L375.91,115.51L374.91,92.2L373.9,120.18L372.9,73.56L371.89,87.54L370.89,96.87L369.88,92.2L368.88,115.51L367.87,82.88L366.87,115.51L365.86,96.87L364.86,106.19L363.85,92.2L362.85,92.2L361.84,115.51L360.84,73.56L359.83,82.88L358.83,92.2L357.82,138.82L355.81,101.53L354.81,106.19L353.8,106.19L352.8,96.87L351.79,120.18L350.79,92.2L348.77,134.16L347.77,82.88L346.76,87.54L345.76,110.85L344.75,92.2L343.75,115.51L342.74,110.85L341.74,115.51L340.73,124.84L339.73,96.87L338.72,124.84L337.72,64.23L336.71,106.19L335.71,110.85L334.7,124.84L333.7,68.89L331.69,129.5L330.68,96.87L329.68,138.82L328.67,124.84L326.66,92.2L325.66,120.18L324.65,68.89L323.65,115.51L321.64,96.87L320.63,106.19L318.62,120.18L317.62,101.53L316.61,106.19L315.61,129.5L313.6,92.2L312.59,115.51L311.59,110.85L310.58,87.54L308.57,115.51L307.57,124.84L306.56,124.84L305.55,87.54L304.55,138.82L303.54,110.85L302.54,124.84L301.53,115.51L299.52,106.19L298.52,152.81L297.51,96.87L296.51,106.19L295.5,106.19L294.5,124.84L293.49,152.81L292.49,129.5L291.48,115.51L290.48,115.51L289.47,87.54L288.47,96.87L287.46,110.85L286.46,96.87L284.45,134.16L283.44,120.18L282.44,120.18L281.43,110.85L279.42,143.49L278.42,124.84L277.41,115.51L276.41,120.18L275.4,101.53L274.4,120.18L273.39,82.88L272.39,92.2L271.38,124.84L270.38,92.2L269.37,101.53L268.37,124.84L267.36,110.85L266.36,120.18L264.35,120.18L263.34,110.85L262.34,92.2L261.33,96.87L260.32,92.2L259.32,106.19L258.31,101.53L257.31,120.18L256.3,82.88L255.3,138.82L253.29,115.51L252.28,138.82L251.28,92.2L250.27,110.85L249.27,92.2L248.26,96.87L246.25,110.85L245.25,110.85L244.24,129.5L243.24,106.19L241.23,129.5L240.22,101.53L239.22,106.19L238.21,101.53L237.21,110.85L236.2,87.54L235.2,73.56L234.19,106.19L233.19,92.2L232.18,106.19L231.18,152.81L230.17,138.82L228.16,96.87L227.16,120.18L226.15,115.51L225.15,115.51L224.14,115.51L223.14,106.19L222.13,101.53L221.13,106.19L220.12,134.16L219.12,96.87L217.1,134.16L216.1,120.18L215.09,124.84L214.09,115.51L213.08,129.5L212.08,87.54L210.07,157.47L209.06,101.53L208.06,134.16L207.05,120.18L206.05,120.18L205.04,157.47L204.04,138.82L203.03,138.82L202.03,101.53L201.02,124.84L200.02,129.5L199.01,120.18L197,162.13L196,134.16L194.99,92.2L193.99,115.51L192.98,106.19L191.98,143.49L190.97,129.5L189.97,143.49L188.96,129.5L187.96,134.16L185.95,124.84L184.94,148.15L183.94,129.5L182.93,148.15L181.93,129.5L180.92,134.16L179.92,106.19L178.91,120.18L177.91,138.82L176.9,134.16L175.9,129.5L174.89,129.5L173.88,134.16L172.88,134.16L171.87,138.82L170.87,134.16L169.86,120.18L168.86,152.81L167.85,129.5L166.85,157.47L165.84,134.16L164.84,143.49L163.83,129.5L162.83,152.81L161.82,129.5L160.82,143.49L159.81,162.13L158.81,129.5L157.8,134.16L156.8,162.13L155.79,124.84L154.79,148.15L153.78,134.16L152.78,152.81L151.77,157.47L150.77,143.49L149.76,148.15L148.76,157.47L147.75,129.5L146.75,143.49L144.74,152.81L143.73,166.8L141.72,134.16L140.72,162.13L139.71,134.16L138.71,157.47L137.7,157.47L136.7,138.82L135.69,157.47L134.69,152.81L133.68,152.81L132.68,157.47L131.67,143.49L130.66,152.81L128.65,152.81L127.65,129.5L126.64,157.47L125.64,124.84L124.63,185.44L123.63,166.8L122.62,176.12L121.62,162.13L119.61,143.49L118.6,157.47L117.6,129.5L116.59,180.78L115.59,166.8L114.58,185.44L113.58,176.12L112.57,148.15L111.57,143.49L110.56,162.13L109.56,157.47L108.55,162.13L106.54,162.13L105.54,157.47L104.53,162.13L103.53,176.12L102.52,176.12L101.52,180.78L100.51,166.8L99.51,166.8L98.5,162.13L97.5,176.12L95.49,208.75L94.48,180.78L93.48,162.13L92.47,157.47L91.47,190.11L90.46,148.15L88.45,180.78L87.45,176.12L86.44,171.46L85.43,180.78L84.43,176.12L83.42,185.44L82.42,176.12L81.41,180.78L80.41,199.43L79.4,199.43L77.39,208.75L76.39,180.78L75.38,194.77L74.38,180.78L73.37,199.43L72.37,185.44L71.36,199.43L70.36,194.77L69.35,199.43L68.35,199.43L67.34,185.44L66.34,190.11L65.33,213.42L64.33,204.09L63.32,208.75L62.32,199.43L61.31,213.42L60.31,213.42L59.3,227.4L58.3,227.4L57.29,208.75L56.29,218.08L55.28,208.75L54.28,218.08L53.27,218.08L52.27,232.06L49.25,204.09L48.25,241.39L47.24,236.73L46.24,222.74L45.23,236.73L44.23,227.4L43.22,232.06L42.21,241.39L41.21,246.05L40.2,241.39L39.2,246.05L38.19,246.05L37.19,241.39L36.18,246.05L35.18,246.05L34.17,241.39L33.17,246.05L32.16,246.05L22.11,246.05L21.11,241.39L20.1,246.05L19.1,246.05L0,246.05Z" style="fill: rgb(171, 99, 250); fill-opacity: 0.3; stroke-width: 0;"/></g></g><g class="errorbars"/><g class="lines"><path class="js-line" d="M0,246.05L5.03,246.05L6.03,236.73L7.04,241.39L8.04,241.39L13.07,241.39L14.07,232.06L16.08,232.06L17.09,241.39L18.09,227.4L19.1,227.4L20.1,222.74L21.11,232.06L23.12,213.42L24.12,232.06L25.13,236.73L26.13,194.77L27.14,227.4L28.14,227.4L29.15,222.74L30.15,236.73L32.16,194.77L33.17,232.06L35.18,199.43L36.18,199.43L37.19,204.09L38.19,166.8L39.2,190.11L40.2,176.12L41.21,204.09L42.21,185.44L43.22,176.12L44.23,185.44L46.24,185.44L47.24,176.12L48.25,185.44L49.25,166.8L51.26,166.8L52.27,180.78L53.27,162.13L54.28,166.8L55.28,171.46L56.29,138.82L58.3,176.12L59.3,148.15L60.31,148.15L61.31,152.81L62.32,157.47L63.32,166.8L64.33,143.49L65.33,143.49L66.34,134.16L67.34,134.16L68.35,166.8L69.35,138.82L70.36,143.49L71.36,138.82L72.37,115.51L73.37,138.82L74.38,134.16L75.38,152.81L77.39,138.82L78.4,152.81L79.4,157.47L80.41,138.82L81.41,152.81L82.42,115.51L83.42,120.18L84.43,101.53L86.44,134.16L87.45,120.18L88.45,134.16L89.46,110.85L90.46,129.5L91.47,110.85L92.47,110.85L93.48,101.53L94.48,115.51L95.49,106.19L96.49,124.84L97.5,101.53L98.5,106.19L99.51,115.51L100.51,92.2L101.52,124.84L102.52,106.19L103.53,134.16L104.53,92.2L105.54,96.87L106.54,120.18L107.55,110.85L108.55,106.19L109.56,110.85L110.56,106.19L111.57,110.85L112.57,96.87L113.58,110.85L114.58,87.54L115.59,87.54L116.59,115.51L117.6,101.53L118.6,129.5L119.61,68.89L120.61,96.87L121.62,96.87L122.62,120.18L123.63,92.2L124.63,120.18L125.64,96.87L126.64,87.54L127.65,87.54L128.65,110.85L129.66,101.53L130.66,101.53L131.67,96.87L132.68,106.19L133.68,87.54L135.69,110.85L136.7,87.54L137.7,134.16L138.71,92.2L139.71,87.54L140.72,96.87L142.73,82.88L143.73,96.87L144.74,96.87L145.74,78.22L146.75,96.87L147.75,82.88L148.76,92.2L149.76,82.88L150.77,106.19L151.77,87.54L152.78,82.88L153.78,92.2L154.79,78.22L155.79,92.2L156.8,73.56L157.8,78.22L158.81,78.22L159.81,106.19L161.82,50.25L162.83,101.53L163.83,82.88L164.84,78.22L165.84,73.56L166.85,110.85L167.85,78.22L168.86,87.54L169.86,82.88L170.87,87.54L172.88,64.23L173.88,64.23L174.89,54.91L175.9,73.56L176.9,54.91L177.91,78.22L178.91,73.56L179.92,82.88L180.92,50.25L181.93,54.91L183.94,73.56L184.94,73.56L185.95,92.2L186.95,73.56L187.96,87.54L188.96,82.88L189.97,87.54L190.97,54.91L192.98,78.22L193.99,64.23L194.99,73.56L196,50.25L198.01,78.22L199.01,64.23L200.02,59.57L201.02,45.58L202.03,54.91L203.03,73.56L204.04,59.57L205.04,73.56L206.05,59.57L207.05,87.54L208.06,36.26L209.06,59.57L210.07,64.23L211.07,54.91L212.08,40.92L213.08,68.89L214.09,59.57L215.09,64.23L217.1,54.91L218.11,45.58L219.12,59.57L220.12,36.26L221.13,73.56L222.13,64.23L223.14,22.27L224.14,54.91L225.15,78.22L226.15,40.92L227.16,50.25L228.16,50.25L230.17,68.89L231.18,40.92L232.18,68.89L233.19,64.23L234.19,68.89L235.2,45.58L236.2,59.57L237.21,45.58L238.21,40.92L239.22,50.25L240.22,40.92L241.23,50.25L242.23,68.89L243.24,31.6L245.25,64.23L246.25,68.89L247.26,31.6L248.26,54.91L249.27,54.91L250.27,82.88L251.28,68.89L252.28,36.26L253.29,26.94L254.29,59.57L255.3,59.57L256.3,45.58L257.31,64.23L258.31,40.92L259.32,45.58L260.32,45.58L261.33,31.6L262.34,54.91L263.34,31.6L264.35,64.23L265.35,45.58L266.36,50.25L268.37,36.26L269.37,50.25L270.38,45.58L271.38,64.23L272.39,59.57L273.39,36.26L274.4,54.91L275.4,45.58L276.41,26.94L277.41,64.23L278.42,36.26L279.42,50.25L280.43,54.91L281.43,40.92L284.45,64.23L285.45,54.91L286.46,68.89L287.46,64.23L288.47,50.25L289.47,50.25L290.48,40.92L291.48,50.25L292.49,40.92L293.49,50.25L294.5,50.25L295.5,54.91L296.51,31.6L297.51,59.57L298.52,26.94L299.52,31.6L300.53,40.92L301.53,36.26L303.54,59.57L304.55,36.26L305.55,40.92L306.56,68.89L308.57,54.91L309.58,64.23L310.58,54.91L311.59,59.57L312.59,54.91L313.6,45.58L314.6,26.94L315.61,45.58L316.61,45.58L317.62,54.91L318.62,73.56L319.63,59.57L320.63,45.58L321.64,50.25L322.64,36.26L323.65,40.92L324.65,12.95L325.66,31.6L326.66,45.58L327.67,40.92L329.68,64.23L330.68,54.91L331.69,40.92L332.69,50.25L333.7,36.26L334.7,50.25L335.71,54.91L336.71,31.6L337.72,36.26L338.72,45.58L339.73,54.91L340.73,26.94L341.74,68.89L342.74,31.6L343.75,36.26L344.75,50.25L345.76,31.6L346.76,54.91L347.77,36.26L348.77,45.58L349.78,59.57L350.79,50.25L352.8,36.26L353.8,64.23L354.81,54.91L355.81,59.57L357.82,59.57L358.83,45.58L359.83,50.25L360.84,17.61L361.84,36.26L362.85,36.26L363.85,31.6L364.86,40.92L365.86,26.94L366.87,68.89L367.87,40.92L368.88,54.91L369.88,40.92L370.89,54.91L371.89,22.27L372.9,50.25L373.9,73.56L374.91,45.58L375.91,64.23L376.92,68.89L377.92,36.26L378.93,45.58L379.93,31.6L380.94,45.58L381.94,26.94L382.95,36.26L383.95,64.23L384.96,40.92L386.97,54.91L387.97,40.92L388.98,36.26L389.98,36.26L391.99,59.57L393,45.58L393,115.51L391.99,124.84L390.99,87.54L389.98,96.87L388.98,101.53L387.97,101.53L386.97,110.85L385.96,101.53L384.96,92.2L383.95,115.51L382.95,110.85L381.94,73.56L380.94,110.85L379.93,78.22L378.93,101.53L377.92,101.53L376.92,87.54L375.91,115.51L374.91,92.2L373.9,120.18L372.9,73.56L371.89,87.54L370.89,96.87L369.88,92.2L368.88,115.51L367.87,82.88L366.87,115.51L365.86,96.87L364.86,106.19L363.85,92.2L362.85,92.2L361.84,115.51L360.84,73.56L359.83,82.88L358.83,92.2L357.82,138.82L355.81,101.53L354.81,106.19L353.8,106.19L352.8,96.87L351.79,120.18L350.79,92.2L348.77,134.16L347.77,82.88L346.76,87.54L345.76,110.85L344.75,92.2L343.75,115.51L342.74,110.85L341.74,115.51L340.73,124.84L339.73,96.87L338.72,124.84L337.72,64.23L336.71,106.19L335.71,110.85L334.7,124.84L333.7,68.89L331.69,129.5L330.68,96.87L329.68,138.82L328.67,124.84L326.66,92.2L325.66,120.18L324.65,68.89L323.65,115.51L321.64,96.87L320.63,106.19L318.62,120.18L317.62,101.53L316.61,106.19L315.61,129.5L313.6,92.2L312.59,115.51L311.59,110.85L310.58,87.54L308.57,115.51L307.57,124.84L306.56,124.84L305.55,87.54L304.55,138.82L303.54,110.85L302.54,124.84L301.53,115.51L299.52,106.19L298.52,152.81L297.51,96.87L296.51,106.19L295.5,106.19L294.5,124.84L293.49,152.81L292.49,129.5L291.48,115.51L290.48,115.51L289.47,87.54L288.47,96.87L287.46,110.85L286.46,96.87L284.45,134.16L283.44,120.18L282.44,120.18L281.43,110.85L279.42,143.49L278.42,124.84L277.41,115.51L276.41,120.18L275.4,101.53L274.4,120.18L273.39,82.88L272.39,92.2L271.38,124.84L270.38,92.2L269.37,101.53L268.37,124.84L267.36,110.85L266.36,120.18L264.35,120.18L263.34,110.85L262.34,92.2L261.33,96.87L260.32,92.2L259.32,106.19L258.31,101.53L257.31,120.18L256.3,82.88L255.3,138.82L253.29,115.51L252.28,138.82L251.28,92.2L250.27,110.85L249.27,92.2L248.26,96.87L246.25,110.85L245.25,110.85L244.24,129.5L243.24,106.19L241.23,129.5L240.22,101.53L239.22,106.19L238.21,101.53L237.21,110.85L236.2,87.54L235.2,73.56L234.19,106.19L233.19,92.2L232.18,106.19L231.18,152.81L230.17,138.82L228.16,96.87L227.16,120.18L226.15,115.51L225.15,115.51L224.14,115.51L223.14,106.19L222.13,101.53L221.13,106.19L220.12,134.16L219.12,96.87L217.1,134.16L216.1,120.18L215.09,124.84L214.09,115.51L213.08,129.5L212.08,87.54L210.07,157.47L209.06,101.53L208.06,134.16L207.05,120.18L206.05,120.18L205.04,157.47L204.04,138.82L203.03,138.82L202.03,101.53L201.02,124.84L200.02,129.5L199.01,120.18L197,162.13L196,134.16L194.99,92.2L193.99,115.51L192.98,106.19L191.98,143.49L190.97,129.5L189.97,143.49L188.96,129.5L187.96,134.16L185.95,124.84L184.94,148.15L183.94,129.5L182.93,148.15L181.93,129.5L180.92,134.16L179.92,106.19L178.91,120.18L177.91,138.82L176.9,134.16L175.9,129.5L174.89,129.5L173.88,134.16L172.88,134.16L171.87,138.82L170.87,134.16L169.86,120.18L168.86,152.81L167.85,129.5L166.85,157.47L165.84,134.16L164.84,143.49L163.83,129.5L162.83,152.81L161.82,129.5L160.82,143.49L159.81,162.13L158.81,129.5L157.8,134.16L156.8,162.13L155.79,124.84L154.79,148.15L153.78,134.16L152.78,152.81L151.77,157.47L150.77,143.49L149.76,148.15L148.76,157.47L147.75,129.5L146.75,143.49L144.74,152.81L143.73,166.8L141.72,134.16L140.72,162.13L139.71,134.16L138.71,157.47L137.7,157.47L136.7,138.82L135.69,157.47L134.69,152.81L133.68,152.81L132.68,157.47L131.67,143.49L130.66,152.81L128.65,152.81L127.65,129.5L126.64,157.47L125.64,124.84L124.63,185.44L123.63,166.8L122.62,176.12L121.62,162.13L119.61,143.49L118.6,157.47L117.6,129.5L116.59,180.78L115.59,166.8L114.58,185.44L113.58,176.12L112.57,148.15L111.57,143.49L110.56,162.13L109.56,157.47L108.55,162.13L106.54,162.13L105.54,157.47L104.53,162.13L103.53,176.12L102.52,176.12L101.52,180.78L100.51,166.8L99.51,166.8L98.5,162.13L97.5,176.12L95.49,208.75L94.48,180.78L93.48,162.13L92.47,157.47L91.47,190.11L90.46,148.15L88.45,180.78L87.45,176.12L86.44,171.46L85.43,180.78L84.43,176.12L83.42,185.44L82.42,176.12L81.41,180.78L80.41,199.43L79.4,199.43L77.39,208.75L76.39,180.78L75.38,194.77L74.38,180.78L73.37,199.43L72.37,185.44L71.36,199.43L70.36,194.77L69.35,199.43L68.35,199.43L67.34,185.44L66.34,190.11L65.33,213.42L64.33,204.09L63.32,208.75L62.32,199.43L61.31,213.42L60.31,213.42L59.3,227.4L58.3,227.4L57.29,208.75L56.29,218.08L55.28,208.75L54.28,218.08L53.27,218.08L52.27,232.06L49.25,204.09L48.25,241.39L47.24,236.73L46.24,222.74L45.23,236.73L44.23,227.4L43.22,232.06L42.21,241.39L41.21,246.05L40.2,241.39L39.2,246.05L38.19,246.05L37.19,241.39L36.18,246.05L35.18,246.05L34.17,241.39L33.17,246.05L32.16,246.05L22.11,246.05L21.11,241.39L20.1,246.05L19.1,246.05L0,246.05" style="vector-effect: non-scaling-stroke; fill: none; stroke: rgb(0, 0, 0); stroke-opacity: 0; stroke-width: 2px; opacity: 1;"/></g><g class="points"/><g class="text"/></g><g class="trace scatter trace7d9ea4" style="stroke-miterlimit: 2; opacity: 1;"><g class="fills"/><g class="errorbars"/><g class="lines"><path class="js-line" d="M0,246.05L10.05,246.05L11.06,241.39L12.06,246.05L13.07,246.05L14.07,241.39L15.08,241.39L16.08,246.05L17.09,246.05L19.1,236.73L20.1,236.73L21.11,236.73L22.11,241.39L23.12,241.39L24.12,236.73L25.13,241.39L26.13,236.73L27.14,241.39L28.14,241.39L29.15,236.73L30.15,241.39L32.16,241.39L33.17,236.73L35.18,222.74L36.18,232.06L37.19,218.08L38.19,218.08L39.2,222.74L40.2,218.08L41.21,232.06L42.21,232.06L43.22,204.09L44.23,218.08L45.23,222.74L46.24,204.09L47.24,199.43L48.25,208.75L49.25,190.11L50.26,190.11L52.27,204.09L53.27,199.43L54.28,194.77L55.28,176.12L56.29,194.77L57.29,176.12L58.3,218.08L59.3,194.77L60.31,190.11L61.31,194.77L63.32,176.12L64.33,185.44L65.33,157.47L66.34,166.8L67.34,171.46L68.35,190.11L69.35,152.81L70.36,162.13L72.37,152.81L73.37,162.13L74.38,162.13L75.38,185.44L77.39,162.13L78.4,180.78L79.4,185.44L80.41,162.13L81.41,157.47L82.42,138.82L84.43,129.5L85.43,148.15L86.44,152.81L87.45,138.82L88.45,148.15L89.46,129.5L91.47,166.8L92.47,129.5L93.48,148.15L94.48,124.84L95.49,115.51L96.49,138.82L97.5,143.49L98.5,138.82L100.51,124.84L101.52,148.15L102.52,134.16L103.53,166.8L105.54,106.19L106.54,143.49L107.55,129.5L108.55,148.15L109.56,138.82L110.56,120.18L111.57,124.84L112.57,134.16L115.59,110.85L116.59,152.81L117.6,110.85L118.6,148.15L120.61,110.85L121.62,124.84L122.62,152.81L123.63,143.49L124.63,138.82L125.64,115.51L126.64,120.18L127.65,96.87L128.65,115.51L129.66,110.85L130.66,138.82L131.67,120.18L132.68,124.84L133.68,120.18L134.69,120.18L135.69,129.5L136.7,124.84L137.7,148.15L139.71,115.51L140.72,115.51L141.72,96.87L142.73,129.5L143.73,134.16L144.74,120.18L145.74,106.19L146.75,120.18L147.75,101.53L148.76,124.84L149.76,110.85L150.77,124.84L152.78,134.16L153.78,124.84L155.79,110.85L156.8,148.15L157.8,115.51L158.81,110.85L159.81,129.5L160.82,96.87L161.82,110.85L162.83,110.85L163.83,110.85L164.84,115.51L165.84,115.51L166.85,120.18L167.85,92.2L168.86,110.85L169.86,96.87L170.87,96.87L171.87,110.85L172.88,96.87L173.88,106.19L174.89,78.22L176.9,115.51L177.91,106.19L178.91,101.53L179.92,92.2L180.92,82.88L181.93,82.88L182.93,106.19L183.94,101.53L184.94,124.84L185.95,96.87L186.95,106.19L187.96,96.87L188.96,96.87L189.97,101.53L190.97,87.54L191.98,106.19L193.99,82.88L194.99,82.88L196,92.2L197,110.85L198.01,110.85L199.01,92.2L200.02,87.54L201.02,92.2L202.03,68.89L203.03,82.88L204.04,92.2L205.04,115.51L206.05,92.2L207.05,106.19L208.06,73.56L209.06,82.88L210.07,82.88L211.07,78.22L212.08,64.23L213.08,87.54L214.09,87.54L215.09,82.88L216.1,92.2L217.1,110.85L218.11,87.54L219.12,82.88L220.12,110.85L221.13,92.2L223.14,59.57L224.14,101.53L225.15,78.22L226.15,78.22L227.16,82.88L228.16,68.89L230.17,106.19L231.18,82.88L232.18,87.54L233.19,73.56L234.19,92.2L235.2,59.57L236.2,73.56L237.21,68.89L238.21,50.25L239.22,68.89L240.22,87.54L241.23,87.54L243.24,68.89L244.24,110.85L245.25,78.22L246.25,73.56L247.26,68.89L248.26,87.54L249.27,78.22L250.27,96.87L251.28,73.56L252.28,73.56L253.29,82.88L254.29,82.88L255.3,87.54L256.3,64.23L257.31,82.88L258.31,59.57L259.32,73.56L260.32,73.56L262.34,82.88L263.34,40.92L264.35,101.53L265.35,59.57L266.36,101.53L267.36,54.91L268.37,64.23L269.37,82.88L270.38,82.88L271.38,96.87L273.39,54.91L274.4,87.54L275.4,78.22L276.41,87.54L278.42,54.91L279.42,73.56L280.43,96.87L281.43,78.22L282.44,73.56L283.44,78.22L285.45,92.2L286.46,73.56L287.46,78.22L288.47,73.56L289.47,64.23L290.48,73.56L291.48,68.89L292.49,68.89L294.5,92.2L295.5,96.87L296.51,68.89L297.51,82.88L298.52,87.54L299.52,68.89L300.53,78.22L301.53,68.89L302.54,68.89L303.54,73.56L304.55,68.89L305.55,50.25L306.56,110.85L307.57,64.23L308.57,82.88L309.58,82.88L310.58,78.22L311.59,78.22L312.59,92.2L313.6,73.56L314.6,92.2L315.61,78.22L316.61,59.57L317.62,78.22L319.63,101.53L320.63,78.22L321.64,68.89L322.64,68.89L324.65,59.57L325.66,68.89L326.66,59.57L327.67,64.23L328.67,82.88L329.68,73.56L330.68,78.22L331.69,78.22L333.7,45.58L334.7,82.88L335.71,101.53L336.71,78.22L337.72,54.91L338.72,96.87L340.73,36.26L341.74,96.87L342.74,50.25L343.75,59.57L344.75,68.89L345.76,68.89L346.76,73.56L347.77,59.57L349.78,78.22L350.79,64.23L351.79,92.2L352.8,59.57L354.81,82.88L355.81,73.56L356.82,87.54L357.82,73.56L358.83,68.89L359.83,68.89L360.84,54.91L361.84,73.56L362.85,59.57L363.85,82.88L364.86,78.22L365.86,50.25L366.87,87.54L367.87,64.23L368.88,59.57L369.88,59.57L370.89,73.56L371.89,45.58L372.9,64.23L373.9,96.87L374.91,59.57L375.91,82.88L376.92,82.88L377.92,73.56L378.93,92.2L379.93,50.25L380.94,64.23L381.94,50.25L382.95,54.91L383.95,78.22L384.96,68.89L385.96,87.54L387.97,78.22L388.98,54.91L389.98,64.23L390.99,59.57L393,96.87" style="vector-effect: non-scaling-stroke; fill: none; stroke: rgb(171, 99, 250); stroke-opacity: 1; stroke-width: 2px; opacity: 1;"/></g><g class="points"/><g class="text"/></g><g class="trace scatter traced3bdcc" style="stroke-miterlimit: 2; opacity: 1;"><g class="fills"/><g class="errorbars"/><g class="lines"><path class="js-line" d="M0,244.42L14.07,243.95L15.08,243.6L17.09,244.07L18.09,243.72L22.11,243.95L23.12,243.95L40.2,243.25L41.21,242.79L45.23,243.14L46.24,242.44L48.25,242.2L49.25,242.2L50.26,242.2L51.26,240.92L52.27,239.17L53.27,240.69L56.29,237.31L57.29,233.93L59.3,226.35L60.31,220.64L61.31,221.34L62.32,217.61L63.32,208.29L64.33,215.63L65.33,207.59L66.34,219.24L67.34,204.21L68.35,208.52L69.35,197.68L70.36,200.95L72.37,206.31L73.37,199.66L74.38,199.55L75.38,196.28L78.4,181.6L79.4,186.84L80.41,183.11L81.41,185.09L82.42,180.2L83.42,171.57L84.43,173.79L85.43,165.98L86.44,162.95L87.45,168.43L88.45,165.28L89.46,156.54L90.46,160.74L91.47,153.98L92.47,158.75L93.48,158.17L94.48,155.14L95.49,147.8L96.49,153.74L97.5,149.55L98.5,147.22L99.51,147.68L100.51,157.01L101.52,142.32L102.52,146.75L103.53,144.3L104.53,141.74L105.54,135.44L106.54,136.84L107.55,145.12L108.55,145.7L109.56,141.97L110.56,134.74L111.57,142.9L112.57,139.17L113.58,138.94L114.58,135.79L115.59,144.19L116.59,130.08L117.6,131.95L118.6,123.44L119.61,123.91L120.61,129.38L121.62,128.45L122.62,126.7L123.63,127.4L124.63,128.92L125.64,125.42L126.64,126.59L127.65,124.02L128.65,115.86L129.66,122.16L130.66,118.31L131.67,127.4L132.68,125.3L133.68,133.23L137.7,122.51L138.71,128.68L139.71,133.46L140.72,124.02L141.72,130.67L142.73,122.27L144.74,130.9L145.74,124.49L146.75,131.71L147.75,127.4L148.76,123.91L149.76,115.16L150.77,123.44L151.77,118.43L153.78,122.27L154.79,120.41L155.79,125.42L156.8,122.74L157.8,123.21L158.81,118.78L159.81,117.96L160.82,121.46L161.82,115.98L162.83,116.21L163.83,123.44L164.84,116.45L165.84,120.18L166.85,118.43L167.85,120.64L168.86,118.78L169.86,118.78L170.87,119.59L171.87,118.54L172.88,121.57L173.88,116.33L174.89,117.61L175.9,109.8L176.9,108.05L177.91,114.35L178.91,115.28L179.92,113.07L180.92,115.4L181.93,117.73L182.93,108.29L183.94,112.02L184.94,110.15L185.95,116.8L186.95,115.28L187.96,120.99L188.96,115.05L189.97,112.37L190.97,105.37L192.98,106.66L193.99,113.65L194.99,111.78L196,112.72L197,112.13L198.01,115.86L199.01,116.56L200.02,110.85L202.03,106.07L203.03,109.92L204.04,103.74L205.04,106.77L206.05,106.54L207.05,109.34L208.06,115.05L209.06,112.37L210.07,109.34L211.07,111.09L212.08,108.17L213.08,107.71L215.09,107.82L216.1,102.23L217.1,109.92L218.11,105.72L219.12,110.62L220.12,107.01L221.13,109.8L222.13,102.69L223.14,112.37L224.14,103.74L225.15,106.42L226.15,105.61L227.16,105.02L228.16,102.69L229.17,110.15L230.17,110.85L231.18,114.58L232.18,103.98L233.19,105.02L234.19,107.94L235.2,108.87L236.2,107.24L237.21,101.41L238.21,105.37L239.22,99.43L240.22,100.6L241.23,97.33L242.23,100.83L243.24,97.45L244.24,102.23L247.26,97.1L248.26,98.5L249.27,98.61L250.27,106.19L251.28,95.93L252.28,100.36L253.29,106.77L254.29,96.98L255.3,100.01L256.3,95.7L258.31,94.42L259.32,105.84L260.32,102.46L261.33,103.04L263.34,102.58L264.35,104.21L265.35,104.56L266.36,103.28L268.37,101.88L269.37,106.89L270.38,101.88L271.38,106.31L272.39,94.42L273.39,100.48L274.4,96.98L275.4,97.22L276.41,104.91L277.41,95.47L279.42,101.06L280.43,100.83L281.43,98.96L282.44,99.43L283.44,100.48L284.45,99.66L285.45,101.29L286.46,105.72L287.46,98.5L288.47,99.43L289.47,99.66L290.48,97.91L292.49,103.04L293.49,94.65L294.5,102.11L295.5,101.06L296.51,103.04L297.51,110.97L299.52,93.6L300.53,98.38L301.53,100.71L302.54,94.88L303.54,98.61L304.55,94.42L305.55,101.06L306.56,101.88L307.57,91.74L308.57,104.56L309.58,97.45L310.58,102.34L311.59,95.23L312.59,98.26L313.6,99.08L314.6,93.84L315.61,90.46L316.61,92.2L319.63,96.75L320.63,90.57L321.64,93.95L322.64,93.02L323.65,91.27L324.65,94.42L325.66,89.41L326.66,97.1L328.67,94.07L329.68,93.49L330.68,92.2L331.69,95.35L332.69,89.99L333.7,94.3L334.7,99.78L335.71,91.39L338.72,90.92L339.73,95.47L340.73,96.98L341.74,95.7L342.74,95.23L343.75,91.85L344.75,98.96L345.76,93.14L346.76,97.57L347.77,92.79L349.78,96.28L350.79,90.11L352.8,104.44L353.8,96.28L354.81,95L355.81,95.23L356.82,97.91L357.82,93.14L359.83,92.79L360.84,86.84L361.84,97.1L362.85,97.22L364.86,92.44L365.86,99.43L366.87,94.54L367.87,96.87L368.88,95.12L369.88,103.98L370.89,105.26L371.89,92.67L372.9,100.48L373.9,96.4L374.91,106.07L375.91,101.06L377.92,97.8L378.93,98.96L379.93,98.85L380.94,95.35L381.94,96.05L382.95,101.18L383.95,105.02L384.96,102.58L385.96,105.26L386.97,104.91L388.98,100.48L389.98,100.13L390.99,97.57L391.99,100.83L393,101.41" style="vector-effect: non-scaling-stroke; fill: none; stroke: rgb(99, 110, 250); stroke-opacity: 1; stroke-width: 2px; opacity: 1;"/></g><g class="points"/><g class="text"/></g><g class="trace scatter tracee44db0" style="stroke-miterlimit: 2; opacity: 1;"><g class="fills"/><g class="errorbars"/><g class="lines"><path class="js-line" d="M0,244.53L3.02,243.6L4.02,243.37L5.03,243.72L6.03,243.25L9.05,243.6L10.05,243.49L11.06,242.9L12.06,243.25L13.07,241.85L14.07,242.55L15.08,243.49L16.08,243.02L19.1,243.72L20.1,243.72L22.11,243.49L23.12,242.2L24.12,243.02L25.13,242.55L26.13,239.41L27.14,239.06L28.14,235.09L29.15,240.46L30.15,241.5L31.16,238.94L32.16,240.92L33.17,233.58L34.17,231.95L35.18,239.17L36.18,236.84L37.19,230.67L38.19,230.43L39.2,233.35L41.21,237.31L42.21,232.65L43.22,232.06L44.23,227.29L46.24,222.27L47.24,225.54L48.25,230.67L49.25,214.81L50.26,223.79L51.26,221.57L53.27,222.51L54.28,215.98L55.28,212.25L56.29,214.46L58.3,210.27L59.3,215.4L60.31,216.45L61.31,220.06L64.33,198.61L65.33,201.29L66.34,190.22L67.34,203.63L68.35,190.81L69.35,193.72L70.36,192.9L71.36,193.14L72.37,179.15L73.37,179.03L74.38,181.02L75.38,173.67L76.39,177.64L77.39,158.4L79.4,171.92L80.41,155.61L81.41,158.05L82.42,167.73L83.42,154.21L84.43,152.34L85.43,151.53L86.44,149.08L87.45,139.76L88.45,144.19L89.46,151.99L90.46,148.03L91.47,150.25L92.47,138.12L93.48,140.46L94.48,148.85L96.49,131.13L97.5,138.94L98.5,128.68L99.51,132.06L100.51,129.73L101.52,139.87L103.53,127.98L104.53,133.11L106.54,126.12L107.55,124.84L108.55,120.06L109.56,122.51L110.56,127.05L111.57,120.99L113.58,118.08L114.58,114.12L115.59,115.4L116.59,114.7L117.6,120.29L118.6,114.93L119.61,123.32L120.61,118.89L121.62,114L122.62,116.33L123.63,116.91L124.63,115.98L125.64,122.97L126.64,110.39L127.65,104.09L128.65,108.64L129.66,103.74L130.66,114L131.67,119.13L132.68,107.94L133.68,121.11L134.69,119.83L135.69,110.15L136.7,116.68L137.7,117.38L138.71,108.87L139.71,107.71L140.72,105.14L141.72,111.32L142.73,103.16L143.73,101.41L144.74,109.57L145.74,107.12L146.75,100.13L147.75,99.43L148.76,102.23L149.76,100.71L150.77,97.57L151.77,96.63L152.78,98.73L153.78,90.34L154.79,89.76L155.79,90.69L156.8,96.4L157.8,98.5L158.81,90.34L159.81,99.78L160.82,96.87L161.82,93.14L162.83,94.3L164.84,86.38L165.84,97.22L167.85,83.93L168.86,76.59L170.87,94.42L171.87,90.46L172.88,77.64L173.88,80.55L174.89,93.84L175.9,83.81L176.9,89.17L177.91,76.59L178.91,84.05L179.92,76.82L180.92,73.67L181.93,79.15L182.93,79.15L183.94,74.02L184.94,83.7L185.95,82.41L187.96,78.57L188.96,74.26L189.97,72.74L190.97,75.77L191.98,80.78L192.98,68.78L193.99,79.27L194.99,77.4L196,78.33L197,73.44L198.01,79.5L199.01,73.21L200.02,84.16L201.02,77.64L202.03,73.91L203.03,74.37L204.04,64.7L205.04,67.15L206.05,64.81L207.05,65.51L209.06,77.29L210.07,72.74L212.08,61.43L213.08,65.86L214.09,68.89L215.09,61.9L216.1,64.47L217.1,63.65L218.11,67.5L219.12,67.38L220.12,61.09L221.13,63.65L223.14,63.07L224.14,52.93L225.15,64.7L226.15,61.2L227.16,63.77L228.16,60.39L229.17,56.42L230.17,63.18L231.18,64L232.18,59.45L233.19,64.12L234.19,57.59L235.2,61.32L236.2,58.64L237.21,58.87L238.21,65.16L239.22,66.56L240.22,61.9L241.23,53.98L242.23,56.54L243.24,63.07L244.24,59.45L247.26,53.28L248.26,60.39L249.27,64.23L250.27,57.24L251.28,58.99L252.28,55.14L253.29,59.8L254.29,60.04L255.3,64.23L256.3,58.52L257.31,59.92L258.31,58.64L259.32,64.81L260.32,63.77L261.33,58.64L262.34,70.88L263.34,65.63L264.35,68.43L265.35,63.77L266.36,75.77L267.36,63.07L268.37,60.85L270.38,65.86L271.38,56.31L272.39,69.13L273.39,65.28L274.4,63.88L275.4,60.97L276.41,52.58L277.41,58.99L278.42,73.56L279.42,61.55L280.43,67.61L281.43,67.73L282.44,62.37L283.44,62.6L284.45,68.78L285.45,65.75L286.46,70.64L287.46,66.21L288.47,67.85L289.47,59.57L291.48,58.29L292.49,66.91L293.49,62.48L294.5,62.83L297.51,69.01L298.52,62.95L299.52,67.26L300.53,65.4L301.53,57.24L302.54,66.68L303.54,67.26L304.55,65.51L305.55,64.81L306.56,74.02L307.57,71.34L308.57,58.99L310.58,73.91L311.59,68.19L312.59,69.59L313.6,63.07L314.6,59.22L315.61,63.88L316.61,68.54L317.62,66.33L319.63,75.07L320.63,67.26L321.64,60.97L322.64,70.99L323.65,67.85L324.65,67.96L325.66,72.62L326.66,55.61L327.67,69.94L328.67,73.32L329.68,56.54L330.68,66.33L331.69,76.94L332.69,69.13L333.7,71.34L334.7,65.16L335.71,67.73L336.71,74.84L337.72,71.11L338.72,73.91L340.73,68.43L341.74,65.4L342.74,71.92L343.75,64.58L344.75,66.21L345.76,69.94L346.76,75.07L347.77,74.26L348.77,73.21L349.78,74.72L350.79,72.51L351.79,76.94L352.8,70.64L353.8,79.97L354.81,70.64L355.81,71.11L356.82,75.77L357.82,70.06L359.83,67.96L360.84,71.23L361.84,69.83L362.85,66.1L365.86,69.59L366.87,66.56L367.87,67.85L368.88,75.89L369.88,70.06L370.89,71.46L372.9,64.81L373.9,69.36L374.91,75.19L375.91,71.81L376.92,64L377.92,78.33L379.93,72.39L380.94,69.94L381.94,72.39L382.95,72.27L383.95,77.4L384.96,65.86L385.96,74.84L386.97,65.4L387.97,72.97L388.98,69.13L389.98,72.16L390.99,71.81L393,61.32" style="vector-effect: non-scaling-stroke; fill: none; stroke: rgb(239, 85, 59); stroke-opacity: 1; stroke-width: 2px; opacity: 1;"/></g><g class="points"/><g class="text"/></g><g class="trace scatter traceef5273" style="stroke-miterlimit: 2; opacity: 1;"><g class="fills"/><g class="errorbars"/><g class="lines"><path class="js-line" d="M0,244.19L2.01,243.95L3.02,243.72L35.18,243.72L36.18,243.25L39.2,243.02L40.2,243.25L43.22,243.02L44.23,242.32L45.23,243.02L46.24,242.09L48.25,243.02L49.25,242.79L50.26,242.09L51.26,243.02L52.27,243.02L53.27,242.09L55.28,241.15L56.29,240.92L57.29,241.62L58.3,238.59L59.3,238.59L60.31,241.15L61.31,240.46L62.32,242.09L64.33,239.99L65.33,236.73L66.34,237.43L67.34,235.09L68.35,231.36L69.35,231.36L70.36,232.53L71.36,229.27L72.37,223.67L73.37,224.37L74.38,223.91L75.38,225.54L76.39,221.11L77.39,222.27L78.4,219.24L79.4,220.88L80.41,223.21L81.41,220.18L82.42,220.64L83.42,224.14L84.43,224.6L85.43,229.27L87.45,216.21L88.45,219.94L89.46,220.18L90.46,213.42L91.47,211.09L92.47,206.66L93.48,210.85L94.48,204.09L95.49,209.45L96.49,203.63L97.5,213.65L98.5,204.79L99.51,206.89L100.51,204.79L101.52,204.79L102.52,200.36L103.53,205.49L104.53,204.79L105.54,204.09L106.54,199.43L107.55,198.73L108.55,201.06L109.56,198.96L110.56,210.62L111.57,198.73L112.57,202.93L114.58,194.3L115.59,194.07L116.59,195.7L117.6,187.78L118.6,199.66L119.61,193.84L120.61,200.6L121.62,191.27L122.62,193.37L123.63,184.28L124.63,190.11L125.64,190.11L126.64,188.47L127.65,199.2L129.66,190.57L130.66,199.66L131.67,204.09L132.68,196.17L133.68,187.78L134.69,186.38L135.69,187.54L136.7,184.51L137.7,194.07L138.71,191.04L140.72,191.04L141.72,192.44L142.73,184.98L143.73,193.84L144.74,184.05L145.74,185.44L146.75,184.98L147.75,186.14L148.76,189.87L149.76,180.55L150.77,176.59L151.77,178.45L152.78,176.59L153.78,182.18L154.79,187.08L155.79,188.01L156.8,186.84L157.8,181.02L158.81,182.18L159.81,180.55L160.82,180.08L161.82,185.91L162.83,189.41L163.83,174.02L164.84,173.09L165.84,178.92L166.85,174.95L167.85,178.68L168.86,174.95L169.86,167.26L171.87,170.29L172.88,167.73L173.88,167.96L174.89,165.63L175.9,174.02L176.9,168.66L177.91,172.16L178.91,165.16L179.92,168.19L180.92,157.01L182.93,162.83L183.94,157.01L184.94,163.07L185.95,157.47L186.95,157.71L187.96,155.37L188.96,158.17L189.97,157.24L190.97,157.24L191.98,167.5L192.98,153.28L193.99,155.84L194.99,162.13L196,155.61L198.01,160.97L199.01,157.01L200.02,159.34L201.02,158.64L202.03,155.37L203.03,163.07L204.04,163.07L205.04,170.29L206.05,158.4L207.05,163.53L208.06,153.98L209.06,156.77L210.07,160.27L211.07,155.84L212.08,160.97L213.08,160.27L214.09,152.34L215.09,154.44L216.1,166.1L217.1,168.89L218.11,159.34L219.12,164.7L220.12,162.13L221.13,156.77L222.13,164.7L223.14,159.1L225.15,167.03L226.15,165.86L228.16,156.07L229.17,164L230.17,165.16L231.18,162.6L232.18,165.86L233.19,162.6L235.2,169.59L236.2,169.83L237.21,161.9L238.21,165.16L239.22,160.97L240.22,165.4L241.23,155.84L242.23,160.74L243.24,161.9L244.24,157.71L245.25,156.07L246.25,163.07L247.26,167.5L248.26,165.4L250.27,156.31L251.28,164.47L252.28,157.71L253.29,159.57L254.29,157.47L255.3,161.43L256.3,159.8L257.31,156.31L258.31,153.74L259.32,159.8L260.32,160.97L261.33,157.24L262.34,158.64L263.34,161.67L264.35,161.9L265.35,152.58L266.36,163.77L267.36,160.04L268.37,163.07L269.37,156.77L270.38,154.91L271.38,161.43L272.39,155.84L273.39,159.34L274.4,159.1L275.4,155.37L276.41,146.98L277.41,152.34L278.42,152.11L279.42,145.12L280.43,157.94L281.43,144.42L282.44,152.81L283.44,153.98L284.45,153.28L285.45,148.85L286.46,152.34L287.46,150.01L288.47,151.41L289.47,149.78L290.48,154.44L291.48,147.45L293.49,151.41L294.5,147.91L295.5,161.2L296.51,148.38L298.52,153.51L299.52,150.25L300.53,158.87L301.53,155.37L302.54,155.61L303.54,153.98L304.55,155.37L305.55,152.81L306.56,152.34L307.57,149.31L308.57,151.88L309.58,149.31L310.58,150.25L311.59,154.91L312.59,149.08L313.6,152.58L314.6,153.98L315.61,146.05L316.61,144.19L317.62,152.81L318.62,151.41L319.63,159.57L320.63,154.91L321.64,154.44L322.64,152.81L323.65,153.74L324.65,157.94L325.66,151.64L326.66,153.74L327.67,150.25L329.68,148.15L330.68,152.58L331.69,150.25L332.69,152.81L333.7,145.58L334.7,154.67L335.71,154.44L336.71,149.08L337.72,149.31L338.72,155.37L339.73,154.21L340.73,154.21L341.74,153.04L342.74,150.01L343.75,153.04L344.75,147.91L345.76,155.37L346.76,150.71L349.78,153.74L350.79,159.57L351.79,149.78L352.8,148.38L353.8,153.28L354.81,147.22L355.81,155.61L356.82,157.71L357.82,157.01L358.83,155.37L359.83,146.52L360.84,154.44L361.84,147.22L362.85,153.51L363.85,156.07L364.86,154.21L365.86,154.67L366.87,164.23L368.88,151.18L369.88,151.64L370.89,156.31L371.89,148.38L372.9,158.64L373.9,144.42L375.91,156.07L376.92,155.84L377.92,149.55L378.93,153.51L379.93,152.58L380.94,145.58L381.94,156.31L382.95,148.38L383.95,153.51L384.96,148.61L386.97,151.18L387.97,157.47L388.98,153.04L389.98,157.01L390.99,157.71L391.99,150.48L393,147.91" style="vector-effect: non-scaling-stroke; fill: none; stroke: rgb(0, 204, 150); stroke-opacity: 1; stroke-width: 2px; opacity: 1;"/></g><g class="points"/><g class="text"/></g></g></g><g class="overplot"/><path class="xlines-above crisp" d="M0,0" style="fill: none;"/><path class="ylines-above crisp" d="M0,0" style="fill: none;"/><g class="overlines-above"/><g class="xaxislayer-above"><g class="xtick"><text text-anchor="middle" x="0" y="272" transform="translate(135.54000000000002,0)" style="font-family: 'Latin Modern Roman'; font-size: 12px; fill: rgb(0, 0, 0); fill-opacity: 1; white-space: pre;">10M</text></g><g class="xtick"><text text-anchor="middle" x="0" y="272" transform="translate(234.08,0)" style="font-family: 'Latin Modern Roman'; font-size: 12px; fill: rgb(0, 0, 0); fill-opacity: 1; white-space: pre;">20M</text></g><g class="xtick"><text text-anchor="middle" x="0" y="272" transform="translate(332.62,0)" style="font-family: 'Latin Modern Roman'; font-size: 12px; fill: rgb(0, 0, 0); fill-opacity: 1; white-space: pre;">30M</text></g></g><g class="yaxislayer-above"><g class="ytick"><text text-anchor="end" x="37" y="4.199999999999999" transform="translate(0,246.05)" style="font-family: 'Latin Modern Roman'; font-size: 12px; fill: rgb(0, 0, 0); fill-opacity: 1; white-space: pre;">0</text></g><g class="ytick"><text text-anchor="end" x="37" y="4.199999999999999" transform="translate(0,199.43)" style="font-family: 'Latin Modern Roman'; font-size: 12px; fill: rgb(0, 0, 0); fill-opacity: 1; white-space: pre;">10</text></g><g class="ytick"><text text-anchor="end" x="37" y="4.199999999999999" transform="translate(0,152.81)" style="font-family: 'Latin Modern Roman'; font-size: 12px; fill: rgb(0, 0, 0); fill-opacity: 1; white-space: pre;">20</text></g><g class="ytick"><text text-anchor="end" x="37" y="4.199999999999999" transform="translate(0,106.19)" style="font-family: 'Latin Modern Roman'; font-size: 12px; fill: rgb(0, 0, 0); fill-opacity: 1; white-space: pre;">30</text></g><g class="ytick"><text text-anchor="end" x="37" y="4.199999999999999" transform="translate(0,59.57)" style="font-family: 'Latin Modern Roman'; font-size: 12px; fill: rgb(0, 0, 0); fill-opacity: 1; white-space: pre;">40</text></g><g class="ytick"><text text-anchor="end" x="37" y="4.199999999999999" transform="translate(0,12.95)" style="font-family: 'Latin Modern Roman'; font-size: 12px; fill: rgb(0, 0, 0); fill-opacity: 1; white-space: pre;">50</text></g></g><g class="overaxes-above"/></g></g><g class="polarlayer"/><g class="ternarylayer"/><g class="geolayer"/><g class="funnelarealayer"/><g class="pielayer"/><g class="treemaplayer"/><g class="sunburstlayer"/><g class="glimages"/><defs id="topdefs-58f21a"><g class="clips"/><clipPath id="legend58f21a"><rect width="161" height="86" x="0" y="0"/></clipPath></defs><g class="layer-above"><g class="imagelayer"/><g class="shapelayer"/></g><g class="infolayer"><g class="legend" pointer-events="all" transform="translate(438.86,0)"><rect class="bg" shape-rendering="crispEdges" width="161" height="86" x="0" y="0" style="stroke: rgb(68, 68, 68); stroke-opacity: 1; fill: rgb(255, 255, 255); fill-opacity: 1; stroke-width: 0px;"/><g class="scrollbox" transform="" clip-path="url('#legend58f21a')"><g class="groups"><g class="traces" transform="translate(0,14.5)" style="opacity: 1;"><text class="legendtext" text-anchor="start" x="40" y="4.680000000000001" style="font-family: 'Latin Modern Roman'; font-size: 12px; fill: rgb(0, 0, 0); fill-opacity: 1; white-space: pre;">Max Agg. (n=13)</text><g class="layers" style="opacity: 1;"><g class="legendfill"/><g class="legendlines"><path class="js-line" d="M5,0h30" style="fill: none; stroke: rgb(171, 99, 250); stroke-opacity: 1; stroke-width: 2px;"/></g><g class="legendsymbols"><g class="legendpoints"/></g></g><rect class="legendtoggle" x="0" y="-9.5" width="155.671875" height="19" style="fill: rgb(0, 0, 0); fill-opacity: 0;"/></g><g class="traces" transform="translate(0,33.5)" style="opacity: 1;"><text class="legendtext" text-anchor="start" x="40" y="4.680000000000001" style="font-family: 'Latin Modern Roman'; font-size: 12px; fill: rgb(0, 0, 0); fill-opacity: 1; white-space: pre;">Bayesian agg. (n=40)</text><g class="layers" style="opacity: 1;"><g class="legendfill"/><g class="legendlines"><path class="js-line" d="M5,0h30" style="fill: none; stroke: rgb(99, 110, 250); stroke-opacity: 1; stroke-width: 2px;"/></g><g class="legendsymbols"><g class="legendpoints"/></g></g><rect class="legendtoggle" x="0" y="-9.5" width="155.671875" height="19" style="fill: rgb(0, 0, 0); fill-opacity: 0;"/></g><g class="traces" transform="translate(0,52.5)" style="opacity: 1;"><text class="legendtext" text-anchor="start" x="40" y="4.680000000000001" style="font-family: 'Latin Modern Roman'; font-size: 12px; fill: rgb(0, 0, 0); fill-opacity: 1; white-space: pre;">Mean agg. (n=24)</text><g class="layers" style="opacity: 1;"><g class="legendfill"/><g class="legendlines"><path class="js-line" d="M5,0h30" style="fill: none; stroke: rgb(239, 85, 59); stroke-opacity: 1; stroke-width: 2px;"/></g><g class="legendsymbols"><g class="legendpoints"/></g></g><rect class="legendtoggle" x="0" y="-9.5" width="155.671875" height="19" style="fill: rgb(0, 0, 0); fill-opacity: 0;"/></g><g class="traces" transform="translate(0,71.5)" style="opacity: 1;"><text class="legendtext" text-anchor="start" x="40" y="4.680000000000001" style="font-family: 'Latin Modern Roman'; font-size: 12px; fill: rgb(0, 0, 0); fill-opacity: 1; white-space: pre;">Attentive agg. (n=35)</text><g class="layers" style="opacity: 1;"><g class="legendfill"/><g class="legendlines"><path class="js-line" d="M5,0h30" style="fill: none; stroke: rgb(0, 204, 150); stroke-opacity: 1; stroke-width: 2px;"/></g><g class="legendsymbols"><g class="legendpoints"/></g></g><rect class="legendtoggle" x="0" y="-9.5" width="155.671875" height="19" style="fill: rgb(0, 0, 0); fill-opacity: 0;"/></g></g></g><rect class="scrollbar" rx="20" ry="3" width="0" height="0" x="0" y="0" style="fill: rgb(128, 139, 164); fill-opacity: 1;"/></g><g class="g-gtitle"/><g class="g-xtitle" transform="translate(0,-3.8000000000000114)"><text class="xtitle" x="234.5" y="299.8" text-anchor="middle" style="font-family: 'Latin Modern Roman'; font-size: 14px; fill: rgb(0, 0, 0); opacity: 1; font-weight: normal; white-space: pre;">Agent Steps</text></g><g class="g-ytitle" transform="translate(15.8154296875,0)"><text class="ytitle" transform="rotate(-90,0.18437500000000284,129.5)" x="0.18437500000000284" y="129.5" text-anchor="middle" style="font-family: 'Latin Modern Roman'; font-size: 14px; fill: rgb(0, 0, 0); opacity: 1; font-weight: normal; white-space: pre;">Avg. Reward</text></g></g></svg>