<svg class="main-svg" xmlns="http://www.w3.org/2000/svg" xmlns:xlink="http://www.w3.org/1999/xlink" width="600" height="300" style="" viewBox="0 0 600 300"><rect x="0" y="0" width="600" height="300" style="fill: rgb(255, 255, 255); fill-opacity: 1;"/><defs id="defs-ae691f"><g class="clips"><clipPath id="clipae691fxyplot" class="plotclip"><rect width="349" height="257"/></clipPath><clipPath class="axesclip" id="clipae691fx"><rect x="53" y="0" width="349" height="300"/></clipPath><clipPath class="axesclip" id="clipae691fy"><rect x="0" y="2" width="600" height="257"/></clipPath><clipPath class="axesclip" id="clipae691fxy"><rect x="53" y="2" width="349" height="257"/></clipPath></g><g class="gradients"/></defs><g class="bglayer"><rect class="bg" x="53" y="2" width="349" height="257" style="fill: rgb(229, 236, 246); fill-opacity: 1; stroke-width: 0;"/></g><g class="layer-below"><g class="imagelayer"/><g class="shapelayer"/></g><g class="cartesianlayer"><g class="subplot xy"><g class="layer-subplot"><g class="shapelayer"/><g class="imagelayer"/></g><g class="gridlayer"><g class="x"><path class="xgrid crisp" transform="translate(138.94,0)" d="M0,2v257" style="stroke: rgb(255, 255, 255); stroke-opacity: 1; stroke-width: 1px;"/><path class="xgrid crisp" transform="translate(226.68,0)" d="M0,2v257" style="stroke: rgb(255, 255, 255); stroke-opacity: 1; stroke-width: 1px;"/><path class="xgrid crisp" transform="translate(314.41,0)" d="M0,2v257" style="stroke: rgb(255, 255, 255); stroke-opacity: 1; stroke-width: 1px;"/></g><g class="y"><path class="ygrid crisp" transform="translate(0,241.67)" d="M53,0h349" style="stroke: rgb(255, 255, 255); stroke-opacity: 1; stroke-width: 1px;"/><path class="ygrid crisp" transform="translate(0,195.35)" d="M53,0h349" style="stroke: rgb(255, 255, 255); stroke-opacity: 1; stroke-width: 1px;"/><path class="ygrid crisp" transform="translate(0,149.04)" d="M53,0h349" style="stroke: rgb(255, 255, 255); stroke-opacity: 1; stroke-width: 1px;"/><path class="ygrid crisp" transform="translate(0,102.73)" d="M53,0h349" style="stroke: rgb(255, 255, 255); stroke-opacity: 1; stroke-width: 1px;"/><path class="ygrid crisp" transform="translate(0,56.41)" d="M53,0h349" style="stroke: rgb(255, 255, 255); stroke-opacity: 1; stroke-width: 1px;"/></g></g><g class="zerolinelayer"><path class="yzl zl crisp" transform="translate(0,10.1)" d="M53,0h349" style="stroke: rgb(255, 255, 255); stroke-opacity: 1; stroke-width: 2px;"/></g><path class="xlines-below"/><path class="ylines-below"/><g class="overlines-below"/><g class="xaxislayer-below"/><g class="yaxislayer-below"/><g class="overaxes-below"/><g class="plot" transform="translate(53,2)" clip-path="url('#clipae691fxyplot')"><g class="scatterlayer mlayer"><g class="trace scatter trace2bb9c0" style="stroke-miterlimit: 2; opacity: 1;"><g class="fills"/><g class="errorbars"/><g class="lines"><path class="js-line" d="M0,244.15L3.58,197.33L5.37,184.21L7.16,180.27L8.95,182.96L10.74,173.71L12.53,180.89L14.32,194.35L16.11,166L19.69,152.42L21.48,160.05L25.06,140.07L26.85,133.15L32.22,117.67L34.01,122.32L35.79,111.11L37.58,121.15L39.37,130.3L41.16,113.92L42.95,127.15L44.74,109.44L46.53,120.92L48.32,119.23L50.11,139.18L51.9,118.18L53.69,110.06L55.48,112.41L57.27,106.61L59.06,111.36L60.85,110.79L62.64,108.9L64.43,113.97L66.22,124.13L69.8,104.71L71.59,112.04L75.17,93.84L76.96,94.41L78.75,85.08L80.54,92.34L82.33,107.36L84.12,93.88L85.91,90L87.7,94.48L89.49,88.18L91.28,87.77L93.07,86.88L94.86,78.44L96.65,86.33L98.44,89.14L100.23,78.95L102.02,85.64L103.81,84.5L105.59,81.64L107.38,79.12L109.17,85.33L110.96,60.31L112.75,76.99L114.54,64.83L116.33,79.75L121.7,51.44L123.49,53.04L125.28,46.33L127.07,52.04L128.86,54.16L130.65,53.69L132.44,44.79L134.23,46.41L136.02,33.29L137.81,41.81L139.6,38.23L141.39,22.16L143.18,34.32L144.97,25.96L146.76,25.98L148.55,24.04L150.34,30.77L152.13,20.64L153.92,22.79L155.71,20.68L157.5,17.93L159.29,22.3L161.08,18.57L162.87,18.88L164.66,20.7L166.45,21.02L168.24,18.55L170.03,18.62L171.82,23.92L173.61,17.68L175.39,17.87L177.18,17.08L178.97,16.85L180.76,17.77L182.55,20.71L184.34,20.03L186.13,19.49L187.92,19.93L191.5,18.3L193.29,19.15L195.08,17.22L196.87,19.95L198.66,15.56L200.45,17.18L202.24,15.54L204.03,18.01L205.82,16.28L207.61,17.71L209.4,17.26L211.19,15.12L214.77,19.29L216.56,16.81L220.14,17.15L221.93,15.26L223.72,15.66L225.51,17.04L227.3,18.73L229.09,17.9L230.88,16.39L232.67,16.37L234.46,17.7L236.25,16.3L239.83,15.29L241.62,16.98L245.19,18.24L246.98,15.28L248.77,16.53L250.56,15.75L254.14,16.19L255.93,19.16L257.72,16.14L259.51,15.32L263.09,14.88L264.88,17.37L266.67,14.78L268.46,16.1L272.04,15.63L273.83,14.17L275.62,16.38L277.41,15.67L280.99,16.37L282.78,15.8L286.36,17.39L288.15,14.53L291.73,16.02L293.52,16.12L295.31,15.6L297.1,17.59L298.89,15.78L300.68,15.67L302.47,14.24L304.26,15.81L307.84,15.92L309.63,15.62L313.21,15.5L314.99,15.24L318.57,16.65L320.36,15.63L322.15,16.95L323.94,14.84L325.73,16.2L327.52,15.12L329.31,14.78L331.1,17.2L332.89,14.52L334.68,16.41L336.47,17.31L338.26,15.44L341.84,14.72L343.63,16.8L347.21,15.07L349,15.68" style="vector-effect: non-scaling-stroke; fill: none; stroke: rgb(99, 110, 250); stroke-opacity: 1; stroke-width: 2px; opacity: 1;"/></g><g class="points"/><g class="text"/></g><g class="trace scatter trace347694" style="stroke-miterlimit: 2; opacity: 1;"><g class="fills"/><g class="errorbars"/><g class="lines"><path class="js-line" d="M0,200.16L1.79,206.28L3.58,188.1L5.37,190.7L7.16,170.1L8.95,187.32L10.74,191.2L12.53,180.64L14.32,177.55L16.11,180.93L17.9,161.85L21.48,133.15L23.27,126.16L25.06,116.68L26.85,114.47L30.43,108.27L32.22,112.89L37.58,105.03L39.37,105.03L42.95,100.21L44.74,95.91L46.53,94.2L48.32,98.8L50.11,94.15L51.9,93.36L53.69,99.54L55.48,89.57L57.27,95.81L59.06,91.91L60.85,88.86L62.64,91.96L68.01,85.38L69.8,83.59L71.59,87.36L73.38,84.85L75.17,72.85L76.96,87.75L78.75,80.68L80.54,82.5L82.33,86.05L84.12,79.44L85.91,83.92L87.7,75.12L89.49,67.86L91.28,55.09L93.07,80.01L94.86,73.85L96.65,79.28L98.44,75.92L100.23,59.4L102.02,55.27L103.81,59.62L105.59,40.73L107.38,63.33L109.17,52.92L110.96,70.67L112.75,35.69L118.12,50.33L119.91,34.77L121.7,26.59L123.49,51.27L125.28,43.6L127.07,25.45L128.86,22.25L130.65,23.06L134.23,19.91L136.02,19.96L139.6,23.71L141.39,18.87L143.18,23L144.97,18.68L146.76,19.59L148.55,16.37L150.34,21.7L152.13,22.21L155.71,17.75L157.5,21.87L159.29,23.77L161.08,22L162.87,17.13L164.66,18.93L166.45,15.58L168.24,18.1L171.82,16.97L173.61,16.6L175.39,15.58L177.18,18.69L178.97,15.62L180.76,16.72L182.55,17.74L184.34,15.83L186.13,19.09L187.92,18.31L189.71,16.3L191.5,17.58L193.29,16.22L195.08,16.47L196.87,15.45L198.66,15.93L200.45,16.79L202.24,15.62L204.03,15.7L205.82,14.95L207.61,16.38L209.4,16.43L211.19,17.43L212.98,14.41L214.77,16.63L216.56,16.86L218.35,15.11L220.14,15.07L221.93,16.15L223.72,15.69L229.09,16.87L230.88,19.44L232.67,17.12L234.46,16.9L236.25,17.26L238.04,15.57L239.83,18.59L241.62,17.66L245.19,16.82L246.98,14.47L248.77,16.26L250.56,16.07L252.35,14.86L254.14,15.45L255.93,13.19L257.72,14.78L263.09,13.58L264.88,14.19L268.46,15.01L270.25,14.53L273.83,15.63L275.62,14.49L277.41,15.08L279.2,13.97L280.99,16.94L282.78,14.88L284.57,15.17L286.36,17.03L288.15,14.83L289.94,15.02L291.73,14.51L293.52,15.29L295.31,13.92L297.1,15.49L300.68,13.45L302.47,14.57L304.26,14.2L306.05,18.44L307.84,14.43L309.63,16.86L311.42,14.67L313.21,14.93L314.99,13.75L316.78,13.64L318.57,15.2L320.36,15.28L323.94,13.94L325.73,15.82L327.52,13.7L329.31,17.14L331.1,14.1L332.89,13.21L334.68,15.29L336.47,14.39L340.05,13.77L341.84,14.75L343.63,13.24L345.42,12.89L347.21,15.91L349,14.04" style="vector-effect: non-scaling-stroke; fill: none; stroke: rgb(239, 85, 59); stroke-opacity: 1; stroke-width: 2px; opacity: 1;"/></g><g class="points"/><g class="text"/></g><g class="trace scatter tracefe2597" style="stroke-miterlimit: 2; opacity: 1;"><g class="fills"/><g class="errorbars"/><g class="lines"><path class="js-line" d="M0,231.91L1.79,197.76L3.58,181.46L5.37,176L7.16,182.78L8.95,184.71L10.74,185.25L12.53,196.25L14.32,190.4L16.11,189.73L17.9,187.36L23.27,154.68L25.06,139.36L26.85,126.56L28.64,123.37L30.43,124.34L32.22,129.54L34.01,138.61L35.79,128.57L39.37,124.92L41.16,143.17L44.74,127.16L46.53,133.18L48.32,131.35L50.11,125.96L51.9,115.89L53.69,119.6L55.48,121.83L57.27,118.28L60.85,100.74L62.64,96.07L64.43,99.87L66.22,108.28L68.01,105.6L69.8,99.69L71.59,106.24L73.38,102.8L75.17,88.53L76.96,99.01L80.54,90.08L82.33,93.13L84.12,87.27L85.91,85.93L87.7,87.6L89.49,65.51L91.28,77.37L93.07,67.73L98.44,50.55L100.23,76.92L102.02,54.2L103.81,54.85L105.59,69.43L107.38,49.56L109.17,43.34L110.96,40.1L112.75,47.2L114.54,40.67L116.33,53.58L118.12,35.94L119.91,21.11L121.7,37.04L123.49,50.17L125.28,31.47L127.07,36.29L128.86,38.13L130.65,25.62L132.44,26.78L136.02,28.17L137.81,25.52L139.6,26.68L141.39,24.66L143.18,20.88L144.97,23.67L146.76,24.96L148.55,21.55L150.34,25.03L152.13,22.87L153.92,26.73L155.71,23.61L157.5,21.63L159.29,26.53L161.08,18.96L162.87,21.35L164.66,22.31L166.45,18.66L168.24,20.12L170.03,19.47L171.82,20.21L173.61,19.51L175.39,20.75L177.18,19.58L182.55,18.62L184.34,19.92L186.13,22.37L187.92,19.87L189.71,18.02L191.5,17.92L193.29,19.18L195.08,19.33L196.87,16.29L198.66,22.82L200.45,16.9L202.24,17.95L204.03,18.06L205.82,16.87L209.4,18.01L211.19,19.83L214.77,15.96L216.56,17.08L218.35,17.84L220.14,16.38L223.72,16.15L225.51,15.8L227.3,18.07L229.09,14.64L234.46,16.45L236.25,15.98L238.04,16.43L239.83,15.95L241.62,17.95L243.41,16.28L245.19,16.79L246.98,15.79L248.77,17.2L250.56,16.01L252.35,17.27L254.14,16.79L255.93,16.19L257.72,18.39L259.51,15.49L261.3,17.46L263.09,18.2L264.88,16.76L266.67,14.84L268.46,15.83L270.25,15.28L272.04,16.01L273.83,15.14L275.62,15.78L277.41,16.65L279.2,15.62L284.57,17.3L286.36,14.9L288.15,16.53L289.94,15.24L291.73,14.91L293.52,16.69L295.31,15.76L297.1,15.93L298.89,16.21L300.68,17.33L304.26,14.75L306.05,15.78L307.84,16.86L309.63,14.65L311.42,14.48L313.21,15.58L316.78,15.21L318.57,16.54L322.15,14.11L323.94,15.2L325.73,16.66L327.52,15.2L329.31,15.43L331.1,14.44L332.89,13.95L334.68,16.34L336.47,14.22L338.26,15.86L340.05,15.06L341.84,16.27L343.63,18.1L345.42,14.15L347.21,15.98L349,16.3" style="vector-effect: non-scaling-stroke; fill: none; stroke: rgb(0, 204, 150); stroke-opacity: 1; stroke-width: 2px; opacity: 1;"/></g><g class="points"/><g class="text"/></g><g class="trace scatter trace039179" style="stroke-miterlimit: 2; opacity: 1;"><g class="fills"/><g class="errorbars"/><g class="lines"><path class="js-line" d="M0,243.49L3.58,192.48L5.37,185.9L7.16,201.8L8.95,194.98L10.74,190.09L12.53,195.15L14.32,182.8L16.11,155.03L17.9,159.42L19.69,131.17L21.48,127.43L23.27,120.01L25.06,113.68L26.85,113.52L28.64,110.87L30.43,116.34L32.22,115.3L34.01,126.29L35.79,117.25L37.58,119.18L39.37,122.2L41.16,122.22L42.95,112.31L44.74,106.94L46.53,93.16L48.32,93.83L50.11,96.09L51.9,91.55L53.69,85.56L55.48,92.53L57.27,91.84L59.06,84.5L60.85,84.17L62.64,73.33L64.43,75.46L66.22,50.26L68.01,72.05L69.8,81.5L71.59,74.11L73.38,53.19L75.17,50.03L76.96,42.43L78.75,32.31L80.54,42.61L82.33,39.18L84.12,30.21L85.91,45.96L87.7,34.67L89.49,48.01L91.28,34.75L93.07,22.85L94.86,22.65L98.44,22.97L100.23,21.7L103.81,22.27L105.59,19.2L107.38,22.22L109.17,21.73L110.96,19.83L112.75,23.9L114.54,16.47L116.33,24.06L118.12,18.81L119.91,17.38L121.7,19.92L123.49,18.54L125.28,18.33L127.07,15.85L128.86,17.13L130.65,19.49L132.44,18.04L134.23,15.12L136.02,16.62L137.81,16.82L139.6,15.66L141.39,16.53L144.97,18.63L146.76,14.17L150.34,16.21L152.13,16.84L153.92,15.92L155.71,19.87L157.5,18.27L159.29,18.49L161.08,15.73L162.87,15.3L164.66,16.87L166.45,15.97L168.24,16.84L170.03,15.52L171.82,17.14L173.61,17.08L175.39,19.14L177.18,17.25L180.76,15.24L182.55,19.69L184.34,15.17L186.13,15.32L187.92,15.76L189.71,14.91L191.5,15.47L193.29,16.89L195.08,16.08L196.87,19.51L198.66,13.7L200.45,14.21L202.24,16.65L204.03,16.25L205.82,15.5L207.61,16.56L209.4,14.39L211.19,14.97L212.98,14.44L214.77,15.93L216.56,14.91L218.35,14.84L220.14,17.02L221.93,14.69L223.72,16.59L225.51,16.09L227.3,15.03L229.09,16.98L230.88,16.79L232.67,20.22L234.46,16.1L236.25,14.81L238.04,16.92L239.83,15.2L241.62,17.01L243.41,17.4L245.19,14.5L246.98,16.46L248.77,14.18L250.56,15.76L254.14,14.64L255.93,15.3L259.51,14.61L261.3,16.29L264.88,14.09L266.67,15.71L268.46,15.16L270.25,17.58L272.04,14.56L273.83,14.42L275.62,15.64L277.41,14.6L279.2,14.53L280.99,12.85L282.78,14.39L284.57,14.17L288.15,16.07L289.94,12.85L291.73,16.81L293.52,15.58L295.31,14.77L297.1,15.15L300.68,14.83L302.47,13.78L304.26,16.54L306.05,14.79L307.84,14.25L309.63,15.92L311.42,15.52L313.21,13.71L314.99,17.02L316.78,15.08L318.57,15.45L320.36,14.94L322.15,13.72L323.94,14.12L325.73,15.69L327.52,13.78L329.31,14.36L331.1,15.87L334.68,14.25L336.47,14.55L338.26,13.02L340.05,14.31L341.84,15.27L343.63,14.81L345.42,15.26L347.21,14.59L349,14.97" style="vector-effect: non-scaling-stroke; fill: none; stroke: rgb(171, 99, 250); stroke-opacity: 1; stroke-width: 2px; opacity: 1;"/></g><g class="points"/><g class="text"/></g></g></g><g class="overplot"/><path class="xlines-above crisp" d="M0,0" style="fill: none;"/><path class="ylines-above crisp" d="M0,0" style="fill: none;"/><g class="overlines-above"/><g class="xaxislayer-above"><g class="xtick"><text text-anchor="middle" x="0" y="272" transform="translate(138.94,0)" style="font-family: 'Latin Modern Roman'; font-size: 12px; fill: rgb(0, 0, 0); fill-opacity: 1; white-space: pre;">5M</text></g><g class="xtick"><text text-anchor="middle" x="0" y="272" transform="translate(226.68,0)" style="font-family: 'Latin Modern Roman'; font-size: 12px; fill: rgb(0, 0, 0); fill-opacity: 1; white-space: pre;">10M</text></g><g class="xtick"><text text-anchor="middle" x="0" y="272" transform="translate(314.41,0)" style="font-family: 'Latin Modern Roman'; font-size: 12px; fill: rgb(0, 0, 0); fill-opacity: 1; white-space: pre;">15M</text></g></g><g class="yaxislayer-above"><g class="ytick"><text text-anchor="end" x="52" y="4.199999999999999" transform="translate(0,241.67)" style="font-family: 'Latin Modern Roman'; font-size: 12px; fill: rgb(0, 0, 0); fill-opacity: 1; white-space: pre;">−250</text></g><g class="ytick"><text text-anchor="end" x="52" y="4.199999999999999" transform="translate(0,195.35)" style="font-family: 'Latin Modern Roman'; font-size: 12px; fill: rgb(0, 0, 0); fill-opacity: 1; white-space: pre;">−200</text></g><g class="ytick"><text text-anchor="end" x="52" y="4.199999999999999" transform="translate(0,149.04)" style="font-family: 'Latin Modern Roman'; font-size: 12px; fill: rgb(0, 0, 0); fill-opacity: 1; white-space: pre;">−150</text></g><g class="ytick"><text text-anchor="end" x="52" y="4.199999999999999" transform="translate(0,102.73)" style="font-family: 'Latin Modern Roman'; font-size: 12px; fill: rgb(0, 0, 0); fill-opacity: 1; white-space: pre;">−100</text></g><g class="ytick"><text text-anchor="end" x="52" y="4.199999999999999" transform="translate(0,56.41)" style="font-family: 'Latin Modern Roman'; font-size: 12px; fill: rgb(0, 0, 0); fill-opacity: 1; white-space: pre;">−50</text></g><g class="ytick"><text text-anchor="end" x="52" y="4.199999999999999" transform="translate(0,10.1)" style="font-family: 'Latin Modern Roman'; font-size: 12px; fill: rgb(0, 0, 0); fill-opacity: 1; white-space: pre;">0</text></g></g><g class="overaxes-above"/></g></g><g class="polarlayer"/><g class="ternarylayer"/><g class="geolayer"/><g class="funnelarealayer"/><g class="pielayer"/><g class="treemaplayer"/><g class="sunburstlayer"/><g class="glimages"/><defs id="topdefs-ae691f"><g class="clips"/><clipPath id="legendae691f"><rect width="191" height="86" x="0" y="0"/></clipPath></defs><g class="layer-above"><g class="imagelayer"/><g class="shapelayer"/></g><g class="infolayer"><g class="legend" pointer-events="all" transform="translate(408.98,2)"><rect class="bg" shape-rendering="crispEdges" width="191" height="86" x="0" y="0" style="stroke: rgb(68, 68, 68); stroke-opacity: 1; fill: rgb(255, 255, 255); fill-opacity: 1; stroke-width: 0px;"/><g class="scrollbox" transform="" clip-path="url('#legendae691f')"><g class="groups"><g class="traces" transform="translate(0,14.5)" style="opacity: 1;"><text class="legendtext" text-anchor="start" x="40" y="4.680000000000001" style="font-family: 'Latin Modern Roman'; font-size: 12px; fill: rgb(0, 0, 0); fill-opacity: 1; white-space: pre;">PPO, Bayesian agg. (n=19)</text><g class="layers" style="opacity: 1;"><g class="legendfill"/><g class="legendlines"><path class="js-line" d="M5,0h30" style="fill: none; stroke: rgb(99, 110, 250); stroke-opacity: 1; stroke-width: 2px;"/></g><g class="legendsymbols"><g class="legendpoints"/></g></g><rect class="legendtoggle" x="0" y="-9.5" width="185.921875" height="19" style="fill: rgb(0, 0, 0); fill-opacity: 0;"/></g><g class="traces" transform="translate(0,33.5)" style="opacity: 1;"><text class="legendtext" text-anchor="start" x="40" y="4.680000000000001" style="font-family: 'Latin Modern Roman'; font-size: 12px; fill: rgb(0, 0, 0); fill-opacity: 1; white-space: pre;">PPO, Mean agg. (n=16)</text><g class="layers" style="opacity: 1;"><g class="legendfill"/><g class="legendlines"><path class="js-line" d="M5,0h30" style="fill: none; stroke: rgb(239, 85, 59); stroke-opacity: 1; stroke-width: 2px;"/></g><g class="legendsymbols"><g class="legendpoints"/></g></g><rect class="legendtoggle" x="0" y="-9.5" width="185.921875" height="19" style="fill: rgb(0, 0, 0); fill-opacity: 0;"/></g><g class="traces" transform="translate(0,52.5)" style="opacity: 1;"><text class="legendtext" text-anchor="start" x="40" y="4.680000000000001" style="font-family: 'Latin Modern Roman'; font-size: 12px; fill: rgb(0, 0, 0); fill-opacity: 1; white-space: pre;">TRL, Bayesian agg. (n=20)</text><g class="layers" style="opacity: 1;"><g class="legendfill"/><g class="legendlines"><path class="js-line" d="M5,0h30" style="fill: none; stroke: rgb(0, 204, 150); stroke-opacity: 1; stroke-width: 2px;"/></g><g class="legendsymbols"><g class="legendpoints"/></g></g><rect class="legendtoggle" x="0" y="-9.5" width="185.921875" height="19" style="fill: rgb(0, 0, 0); fill-opacity: 0;"/></g><g class="traces" transform="translate(0,71.5)" style="opacity: 1;"><text class="legendtext" text-anchor="start" x="40" y="4.680000000000001" style="font-family: 'Latin Modern Roman'; font-size: 12px; fill: rgb(0, 0, 0); fill-opacity: 1; white-space: pre;">TRL, Mean agg. (n=16)</text><g class="layers" style="opacity: 1;"><g class="legendfill"/><g class="legendlines"><path class="js-line" d="M5,0h30" style="fill: none; stroke: rgb(171, 99, 250); stroke-opacity: 1; stroke-width: 2px;"/></g><g class="legendsymbols"><g class="legendpoints"/></g></g><rect class="legendtoggle" x="0" y="-9.5" width="185.921875" height="19" style="fill: rgb(0, 0, 0); fill-opacity: 0;"/></g></g></g><rect class="scrollbar" rx="20" ry="3" width="0" height="0" x="0" y="0" style="fill: rgb(128, 139, 164); fill-opacity: 1;"/></g><g class="g-gtitle"/><g class="g-xtitle" transform="translate(0,-3.8000000000000114)"><text class="xtitle" x="227.5" y="299.8" text-anchor="middle" style="font-family: 'Latin Modern Roman'; font-size: 14px; fill: rgb(0, 0, 0); opacity: 1; font-weight: normal; white-space: pre;">Agent Steps</text></g><g class="g-ytitle" transform="translate(16.1435546875,0)"><text class="ytitle" transform="rotate(-90,-0.14374999999999716,130.5)" x="-0.14374999999999716" y="130.5" text-anchor="middle" style="font-family: 'Latin Modern Roman'; font-size: 14px; fill: rgb(0, 0, 0); opacity: 1; font-weight: normal; white-space: pre;">Avg. Reward</text></g></g></svg>