<svg class="main-svg" xmlns="http://www.w3.org/2000/svg" xmlns:xlink="http://www.w3.org/1999/xlink" width="600" height="300" style="" viewBox="0 0 600 300"><rect x="0" y="0" width="600" height="300" style="fill: rgb(255, 255, 255); fill-opacity: 1;"/><defs id="defs-74be44"><g class="clips"><clipPath id="clip74be44xyplot" class="plotclip"><rect width="393" height="259"/></clipPath><clipPath class="axesclip" id="clip74be44x"><rect x="38" y="0" width="393" height="300"/></clipPath><clipPath class="axesclip" id="clip74be44y"><rect x="0" y="0" width="600" height="259"/></clipPath><clipPath class="axesclip" id="clip74be44xy"><rect x="38" y="0" width="393" height="259"/></clipPath></g><g class="gradients"/></defs><g class="bglayer"><rect class="bg" x="38" y="0" width="393" height="259" style="fill: rgb(229, 236, 246); fill-opacity: 1; stroke-width: 0;"/></g><g class="layer-below"><g class="imagelayer"/><g class="shapelayer"/></g><g class="cartesianlayer"><g class="subplot xy"><g class="layer-subplot"><g class="shapelayer"/><g class="imagelayer"/></g><g class="gridlayer"><g class="x"><path class="xgrid crisp" transform="translate(114.43,0)" d="M0,0v259" style="stroke: rgb(255, 255, 255); stroke-opacity: 1; stroke-width: 1px;"/><path class="xgrid crisp" transform="translate(191.64,0)" d="M0,0v259" style="stroke: rgb(255, 255, 255); stroke-opacity: 1; stroke-width: 1px;"/><path class="xgrid crisp" transform="translate(268.85,0)" d="M0,0v259" style="stroke: rgb(255, 255, 255); stroke-opacity: 1; stroke-width: 1px;"/><path class="xgrid crisp" transform="translate(346.07,0)" d="M0,0v259" style="stroke: rgb(255, 255, 255); stroke-opacity: 1; stroke-width: 1px;"/><path class="xgrid crisp" transform="translate(423.28,0)" d="M0,0v259" style="stroke: rgb(255, 255, 255); stroke-opacity: 1; stroke-width: 1px;"/></g><g class="y"><path class="ygrid crisp" transform="translate(0,197.59)" d="M38,0h393" style="stroke: rgb(255, 255, 255); stroke-opacity: 1; stroke-width: 1px;"/><path class="ygrid crisp" transform="translate(0,147.89)" d="M38,0h393" style="stroke: rgb(255, 255, 255); stroke-opacity: 1; stroke-width: 1px;"/><path class="ygrid crisp" transform="translate(0,98.19)" d="M38,0h393" style="stroke: rgb(255, 255, 255); stroke-opacity: 1; stroke-width: 1px;"/><path class="ygrid crisp" transform="translate(0,48.49)" d="M38,0h393" style="stroke: rgb(255, 255, 255); stroke-opacity: 1; stroke-width: 1px;"/></g></g><g class="zerolinelayer"><path class="yzl zl crisp" transform="translate(0,247.29)" d="M38,0h393" style="stroke: rgb(255, 255, 255); stroke-opacity: 1; stroke-width: 2px;"/></g><path class="xlines-below"/><path class="ylines-below"/><g class="overlines-below"/><g class="xaxislayer-below"/><g class="yaxislayer-below"/><g class="overaxes-below"/><g class="plot" transform="translate(38,0)" clip-path="url('#clip74be44xyplot')"><g class="scatterlayer mlayer"><g class="trace scatter trace3a2c1f" style="stroke-miterlimit: 2; opacity: 1;"><g class="fills"/><g class="errorbars"/><g class="lines"><path class="js-line" d="M0,245.55L11.03,245.06L11.81,244.68L13.39,245.18L14.18,244.81L17.33,245.06L18.11,245.06L31.5,244.31L32.29,243.81L35.44,244.19L36.23,243.44L37.8,243.19L38.59,243.19L39.38,243.19L40.17,241.83L40.95,239.96L41.74,241.58L44.1,237.97L44.89,234.37L47.25,220.21L48.04,220.95L48.83,216.97L49.62,207.03L50.4,214.86L51.19,206.29L51.98,218.71L52.77,202.69L53.56,207.28L54.34,195.73L56.71,204.92L57.49,197.84L58.28,197.72L59.07,194.24L61.43,178.58L62.22,184.17L63.01,180.2L63.79,182.31L65.37,167.89L66.16,170.26L67.73,158.7L68.52,164.54L69.31,161.18L70.09,151.87L70.88,156.34L71.67,149.13L72.46,154.23L73.24,153.61L74.03,150.37L74.82,142.55L75.61,148.88L76.39,144.41L77.18,141.93L77.97,142.42L78.76,152.36L79.55,136.71L80.33,141.43L81.12,138.82L81.91,136.09L82.7,129.38L83.48,130.87L84.27,139.69L85.06,140.31L85.85,136.33L86.63,128.63L87.42,137.33L89,133.1L89.78,129.75L90.57,138.69L91.36,123.66L92.15,125.65L92.93,116.58L93.72,117.07L94.51,122.91L96.08,120.06L96.87,120.8L97.66,122.42L98.45,118.69L99.23,119.93L100.02,117.2L100.81,108.5L101.6,115.21L102.38,111.11L103.17,120.8L103.96,118.57L104.75,127.01L107.9,115.58L108.69,122.17L109.47,127.26L110.26,117.2L111.05,124.28L111.84,115.34L113.41,124.53L114.2,117.7L114.99,125.4L115.77,120.8L116.56,117.07L117.35,107.76L118.14,116.58L118.92,111.23L120.5,115.34L121.29,113.35L122.07,118.69L122.86,115.83L123.65,116.33L124.44,111.61L125.22,110.74L126.01,114.47L126.8,108.63L127.59,108.87L128.37,116.58L129.16,109.12L129.95,113.1L130.74,111.23L131.53,113.6L132.31,111.61L133.1,111.61L133.89,112.48L134.68,111.36L135.46,114.59L136.25,109L137.04,110.36L138.61,100.18L139.4,106.89L140.19,107.88L140.98,105.52L142.55,110.49L143.34,100.42L144.13,104.4L144.91,102.41L145.7,109.5L146.49,107.88L147.28,113.97L148.06,107.63L148.85,104.77L149.64,97.32L151.21,98.69L152,106.14L152.79,104.15L153.58,105.15L154.36,104.53L155.15,108.5L155.94,109.25L156.73,103.16L158.3,98.06L159.09,102.16L159.88,95.58L160.67,98.81L161.45,98.56L162.24,101.54L163.03,107.63L163.82,104.77L164.6,101.54L165.39,103.41L166.97,99.8L167.75,100.3L168.54,99.93L169.33,93.96L170.12,102.16L170.9,97.69L171.69,102.91L172.48,99.06L173.27,102.04L174.05,94.46L174.84,104.77L175.63,95.58L176.42,98.44L177.2,97.57L177.99,96.95L178.78,94.46L180.35,103.16L181.14,107.13L181.93,95.83L182.72,96.95L184.29,101.05L185.08,99.31L185.87,93.09L186.66,97.32L187.44,90.98L188.23,92.22L189.02,88.74L189.81,92.47L190.59,88.87L191.38,93.96L193.74,88.5L194.53,89.99L195.32,90.11L196.11,98.19L196.89,87.25L197.68,91.98L198.47,98.81L199.26,88.37L200.04,91.6L200.83,87.01L202.41,85.64L203.19,97.82L203.98,94.21L204.77,94.83L206.34,94.34L207.13,96.08L207.92,96.45L208.71,95.08L210.28,93.59L211.07,98.93L211.86,93.59L212.65,98.31L213.43,85.64L214.22,92.1L215.01,88.37L215.8,88.62L216.58,96.82L217.37,86.76L218.95,92.72L219.73,92.47L220.52,90.48L221.31,90.98L222.1,92.1L222.88,91.23L223.67,92.97L224.46,97.69L225.25,89.99L226.03,90.98L226.82,91.23L227.61,89.37L229.18,94.83L229.97,85.89L230.76,93.84L231.55,92.72L232.33,94.83L233.12,103.28L234.7,84.77L235.48,89.86L236.27,92.35L237.06,86.14L237.85,90.11L238.64,85.64L240.21,93.59L241,82.78L241.79,96.45L242.57,88.87L243.36,94.09L244.15,86.51L245.72,90.61L246.51,85.02L247.3,81.41L248.09,83.28L250.45,88.12L251.24,81.54L252.02,85.14L252.81,84.15L253.6,82.28L254.39,85.64L255.17,80.3L255.96,88.5L257.54,85.27L258.32,84.64L259.11,83.28L259.9,86.63L260.69,80.92L261.47,85.51L262.26,91.35L263.05,82.41L265.41,81.91L266.2,86.76L266.99,88.37L267.78,87.01L268.56,86.51L269.35,82.9L270.14,90.48L270.93,84.27L271.71,88.99L272.5,83.9L274.08,87.63L274.86,81.04L276.44,96.32L277.23,87.63L278.01,86.26L278.8,86.51L279.59,89.37L280.38,84.27L281.95,83.9L282.74,77.56L283.53,88.5L284.31,88.62L285.89,83.53L286.68,90.98L287.46,85.76L288.25,88.25L289.04,86.38L289.83,95.83L290.62,97.19L291.4,83.77L292.19,92.1L292.98,87.75L293.77,98.06L294.55,92.72L296.13,89.24L296.92,90.48L297.7,90.36L298.49,86.63L299.28,87.38L300.07,92.85L300.85,96.95L301.64,94.34L302.43,97.19L303.22,96.82L304.79,92.1L305.58,91.73L306.37,88.99L307.15,92.47L307.94,93.09L308.73,84.15L309.52,94.71L310.3,91.73L311.09,101.05L311.88,99.06L312.67,91.98L313.45,97.07L314.24,94.09L315.03,94.58L315.82,90.11L316.61,95.21L317.39,93.34L318.18,96.2L318.97,96.32L319.76,92.6L320.54,95.21L321.33,92.35L322.91,95.45L323.69,91.48L325.27,99.68L326.06,98.69L327.63,94.09L328.42,91.11L329.99,88.62L330.78,91.11L331.57,92.85L332.36,98.44L334.72,90.11L335.51,98.44L336.29,88.25L337.08,93.59L337.87,90.98L338.66,99.18L339.44,95.83L340.23,98.93L341.02,92.47L341.81,96.82L343.38,88L344.17,90.73L345.75,97.07L346.53,93.84L347.32,101.67L348.11,93.34L349.68,98.69L350.47,96.45L351.26,92.72L352.05,100.05L352.83,91.48L353.62,94.83L354.41,91.48L355.2,95.45L355.98,93.84L356.77,95.33L357.56,91.35L358.35,96.95L359.13,92.85L359.92,100.8L360.71,100.18L361.5,95.58L362.28,95.58L363.07,99.31L363.86,94.34L364.65,101.42L365.43,88L366.22,93.22L368.59,102.41L369.37,90.73L370.16,96.7L370.95,96.57L371.74,98.19L372.52,102.29L373.31,103.66L374.1,99.06L374.89,93.84L375.67,98.93L376.46,96.95L377.25,104.9L378.04,97.94L378.82,100.8L379.61,105.27L380.4,98.56L381.19,97.94L381.97,103.9L382.76,92.97L383.55,104.77L384.34,108.63L385.12,105.02L387.49,97.07L388.27,110.24L389.85,102.54L390.64,105.64L391.42,100.8L392.21,105.64L393,98.19" style="vector-effect: non-scaling-stroke; fill: none; stroke: rgb(99, 110, 250); stroke-opacity: 1; stroke-width: 2px; opacity: 1;"/></g><g class="points"/><g class="text"/></g><g class="trace scatter trace1b8711" style="stroke-miterlimit: 2; opacity: 1;"><g class="fills"><g><path class="js-fill" d="M0,245.24L2.36,244.56L3.15,244.75L7.09,244.19L7.88,243.56L8.66,244.12L9.45,242.51L11.03,240.02L11.81,241.33L13.39,236.3L14.18,237.91L16.54,235.36L17.33,231.57L18.11,234.31L18.9,231.95L19.69,225.24L20.48,235.43L22.05,223.56L22.84,227.78L24.41,221.14L25.2,220.45L26.78,223.37L27.57,227.6L28.35,223.31L29.14,225.05L29.93,223.19L30.72,223.99L31.5,223.56L32.29,216.29L35.44,209.08L36.23,213.56L37.02,195.29L37.8,204.3L39.38,183.12L40.17,190.14L40.95,189.89L41.74,175.97L42.53,175.47L43.32,165.16L44.1,175.85L44.89,174.91L45.68,176.72L46.47,175.04L47.25,163.05L48.04,166.28L48.83,163.42L49.62,150.93L50.4,144.97L51.19,146.9L52.77,157.08L53.56,146.4L54.34,158.58L55.13,144.1L56.71,142.98L57.49,136.33L58.28,139.88L59.07,136.96L59.86,132.36L60.64,133.6L61.43,126.33L62.22,127.26L63.79,125.65L64.58,121.49L66.16,114.59L66.94,112.66L69.31,103.59L70.09,94.65L70.88,104.4L71.67,103.34L72.46,104.28L73.24,99L74.03,99.06L74.82,101.29L75.61,101.05L76.39,105.21L77.18,103.34L77.97,94.65L78.76,101.67L79.55,90.55L80.33,103.78L81.12,97.94L81.91,91.23L82.7,94.65L83.48,95.52L84.27,92.41L85.06,92.78L85.85,86.01L87.42,94.03L88.21,92.85L89.78,96.57L90.57,87.81L92.15,95.77L92.93,95.83L94.51,93.28L95.3,87.56L96.08,94.65L96.87,93.47L97.66,84.33L98.45,92.1L99.23,83.34L100.02,89.86L100.81,84.58L101.6,88.12L102.38,90.67L103.17,87.19L104.75,84.33L105.54,79.55L107.11,89.06L107.9,88.43L108.69,88L109.47,78L110.26,89.93L111.05,84.58L111.84,84.58L112.62,80.67L113.41,79.61L114.2,87.19L114.99,79.12L115.77,79.61L116.56,77.56L117.35,83.96L118.14,80.79L118.92,85.33L120.5,78.43L121.29,83.65L122.86,76.44L123.65,81.48L125.22,76.13L126.01,74.7L126.8,74.83L127.59,81.29L128.37,86.51L129.16,76.57L129.95,66.13L130.74,70.17L132.31,64.58L133.1,65.07L133.89,68.31L134.68,67.44L135.46,68.93L136.25,62.9L137.83,67.44L138.61,71.85L139.4,64.02L140.19,68.93L140.98,70.6L141.76,60.48L142.55,62.09L143.34,60.29L144.91,66.38L145.7,65.88L147.28,62.22L148.06,64.64L148.85,53.39L149.64,67L150.43,57.93L151.21,64.52L152.79,58.8L153.58,65.26L155.15,60.91L155.94,64.76L157.52,57.49L158.3,63.46L159.09,63.4L159.88,65.7L161.45,54.2L162.24,55.57L163.82,48.86L164.6,62.34L165.39,55.63L166.18,57.25L166.97,57.93L167.75,61.41L168.54,53.46L169.33,59.98L170.12,52.28L170.9,58.68L171.69,53.95L172.48,55.26L173.27,59.86L174.05,52.9L176.42,63.58L177.2,51.84L178.78,57.99L179.57,56.63L180.35,63.46L181.14,52.9L181.93,56L182.72,53.83L183.51,56.63L184.29,54.58L185.08,51.78L185.87,63.89L186.66,51.72L187.44,52.65L188.23,46.31L189.02,56.25L190.59,55.32L191.38,52.4L192.17,54.95L192.96,46.68L193.74,49.98L194.53,47.12L196.11,52.4L196.89,49.85L197.68,46.25L198.47,49.23L199.26,53.15L200.04,46.68L201.62,50.72L202.41,53.89L203.19,56.63L203.98,51.41L204.77,54.26L205.56,53.58L207.13,58.92L207.92,55.32L208.71,58.61L209.49,52.28L211.86,59.23L212.65,54.58L213.43,51.97L214.22,58.3L215.8,55.63L216.58,56.94L217.37,53.89L218.16,56.56L218.95,50.6L219.73,58.49L221.31,46.93L222.1,54.7L222.88,56.75L223.67,50.1L224.46,46.75L225.25,47.99L226.03,48.42L226.82,54.08L227.61,47.12L228.4,52.21L229.18,50.85L229.97,47L230.76,52.9L231.55,51.03L232.33,43.7L233.12,46.19L233.91,49.11L234.7,55.07L235.48,52.71L236.27,44.76L237.06,49.36L237.85,49.23L238.64,53.08L239.42,48.92L241,53.27L241.79,43.89L242.57,56.38L243.36,48.24L244.15,57.68L244.94,54.95L247.3,48.86L248.09,54.64L248.87,57.06L249.66,50.29L251.24,47.55L252.02,52.65L252.81,55.44L253.6,55.13L254.39,49.36L255.17,54.45L256.75,42.03L257.54,49.17L258.32,46.81L259.11,40.91L259.9,50.72L260.69,41.53L263.05,55.88L263.84,44.88L264.63,50.91L265.41,49.48L266.99,54.76L267.78,45.32L268.56,50.85L269.35,48.86L270.14,56.69L270.93,49.67L271.71,51.72L272.5,51.22L273.29,53.15L274.08,43.45L275.65,48.86L276.44,49.48L277.23,49.23L278.01,46.44L278.8,51.22L279.59,47.68L280.38,55.94L281.16,47.55L281.95,53.71L282.74,51.22L283.53,48.92L284.31,56L285.1,43.76L285.89,47.8L287.46,42.96L288.25,49.67L289.04,53.33L289.83,52.4L290.62,49.17L291.4,51.16L292.19,47.93L292.98,49.05L293.77,46.62L294.55,53.52L295.34,47.87L296.13,53.52L298.49,47.24L299.28,56.44L300.07,48.18L300.85,51.47L301.64,51.84L302.43,56.25L304,47.24L304.79,54.02L305.58,51.84L306.37,46.56L307.94,53.21L308.73,49.73L309.52,48.3L310.3,53.08L311.09,45.94L311.88,45.63L312.67,45.75L313.45,54.51L315.82,48.42L316.61,51.97L317.39,45.94L318.18,50.47L319.76,44.95L320.54,46.37L321.33,45.5L322.12,42.71L322.91,49.92L323.69,46.06L324.48,43.02L325.27,51.22L326.06,42.83L326.84,51.28L327.63,48.3L328.42,39.17L329.21,50.72L329.99,50.6L330.78,52.34L331.57,46.31L332.36,47.24L333.14,55.88L333.93,42.71L334.72,51.41L336.29,43.14L337.08,47.06L337.87,49.98L338.66,48.74L339.44,47.87L340.23,49.11L341.02,46.56L341.81,48.36L343.38,41.22L344.17,52.65L345.75,43.95L346.53,43.52L348.11,49.17L348.9,52.4L349.68,54.45L350.47,47L351.26,46.19L352.05,49.48L352.83,51.84L353.62,46.13L354.41,41.53L355.2,49.11L356.77,49.05L357.56,50.04L359.13,53.64L359.92,43.64L360.71,49.54L361.5,49.23L362.28,52.28L363.07,47.24L364.65,51.16L365.43,49.79L367.01,51.59L367.8,48.8L369.37,51.66L370.16,45.88L371.74,53.64L372.52,52.09L373.31,50.35L374.1,51.97L374.89,49.98L375.67,53.27L378.04,47.93L378.82,51.72L380.4,42.71L381.19,49.92L381.97,44.26L382.76,47.49L383.55,45.88L384.34,47.49L385.12,45.57L385.91,49.36L386.7,49.67L387.49,48.24L388.27,50.29L389.06,47.49L390.64,53.64L391.42,41.96L392.21,48.42L393,48.3L393,144.97L392.21,146.77L391.42,141.43L390.64,144.66L389.06,143.35L388.27,144.16L387.49,148.88L386.7,145.72L385.91,141.49L385.12,146.34L384.34,140.68L383.55,143.35L381.97,140.87L381.19,138.14L380.4,141.24L379.61,138.57L378.82,136.46L378.04,142.11L377.25,137.2L376.46,143.42L375.67,139.44L374.89,141.93L374.1,143.54L373.31,142.48L371.74,138.63L370.95,138.88L369.37,143.85L368.59,137.95L367.8,141.24L367.01,141.18L366.22,144.66L365.43,141.18L364.65,145.34L363.86,137.51L363.07,137.58L362.28,145.09L361.5,140.31L360.71,143.98L359.92,139.69L359.13,141.49L358.35,142.73L357.56,137.64L356.77,143.79L355.98,140.06L355.2,135.34L354.41,137.58L353.62,134.28L352.83,135.22L352.05,131.99L351.26,141.99L349.68,136.71L348.9,137.2L348.11,131.92L347.32,132.73L345.75,140.19L344.96,133.72L344.17,131.3L343.38,135.46L342.6,134.97L341.81,131.55L341.02,134.47L340.23,133.35L338.66,132.11L337.87,138.32L337.08,134.84L336.29,135.03L333.93,127.95L333.14,130.25L332.36,130.56L331.57,138.01L329.21,129L328.42,137.02L327.63,130.37L326.84,134.84L326.06,133.72L325.27,134.28L323.69,130.37L322.91,131.74L322.12,132.61L321.33,135.77L319.76,130.18L318.97,130.8L318.18,131.86L317.39,126.21L316.61,124.65L315.82,125.09L315.03,132.3L314.24,131.55L313.45,128.51L312.67,128.88L311.09,136.21L310.3,134.53L309.52,134.41L308.73,133.29L307.94,131.55L307.15,127.08L306.37,127.51L305.58,134.16L304,130.8L303.22,133.04L301.64,129.5L300.85,130.37L299.28,136.58L298.49,132.98L297.7,134.35L296.92,133.41L296.13,136.71L295.34,130.8L294.55,132.54L293.77,130.12L292.98,142.36L292.19,132.61L291.4,125.34L290.62,139.25L289.83,130.25L289.04,141.8L287.46,129.31L286.68,133.97L285.89,136.02L285.1,134.47L284.31,134.22L283.53,127.7L282.74,130.8L281.95,129.44L281.16,131.49L280.38,131.3L279.59,132.54L278.8,137.51L278.01,130.8L277.23,132.17L276.44,133.1L275.65,132.42L274.86,135.28L274.08,131.12L273.29,130.93L272.5,129.56L270.93,134.22L270.14,126.95L268.56,136.64L267.78,135.09L266.2,129.81L265.41,137.83L264.63,138.82L263.84,136.52L262.26,140L261.47,139.75L260.69,129.69L259.9,133.17L257.54,144.47L256.75,139.38L255.96,137.33L255.17,142.86L254.39,139.07L253.6,143.35L252.02,136.33L251.24,138.2L250.45,135.46L249.66,140.68L247.3,132.23L246.51,136.77L245.72,139.63L244.94,135.77L244.15,140.62L243.36,137.89L242.57,141.43L241.79,138.51L241,134.97L240.21,139.32L239.42,132.36L238.64,137.7L237.06,134.59L236.27,130.87L235.48,140.37L234.7,126.46L233.91,140.25L233.12,134.35L232.33,141.8L231.55,136.02L230.76,138.88L229.97,146.71L229.18,128.32L228.4,138.63L226.82,130.87L226.03,141.86L225.25,143.29L224.46,135.4L223.67,139.56L222.88,135.34L222.1,133.04L221.31,140.25L220.52,136.33L219.73,141.43L218.95,137.02L218.16,138.51L217.37,143.35L216.58,134.53L215.8,133.04L215.01,139.69L214.22,138.57L213.43,139.81L211.07,134.16L210.28,136.02L209.49,142.61L208.71,132.79L207.92,139.19L207.13,133.29L206.34,136.89L205.56,133.23L203.19,144.47L202.41,136.89L201.62,133.6L200.83,136.33L200.04,142.8L199.26,135.46L198.47,149.69L197.68,141.24L196.89,141.3L196.11,138.38L195.32,145.96L194.53,137.51L191.38,149.63L190.59,137.76L189.81,147.33L189.02,137.58L188.23,136.21L187.44,140.81L186.66,151.12L185.87,144.6L185.08,148.14L184.29,143.73L183.51,135.9L182.72,143.48L181.93,148.08L181.14,146.77L180.35,142.3L179.57,148.7L178.78,150L177.99,144.78L177.2,138.94L176.42,149.88L174.84,146.96L174.05,147.45L173.27,133.54L172.48,145.4L170.9,143.35L170.12,146.71L168.54,153.54L167.75,151.37L166.97,144.66L166.18,145.78L165.39,146.46L164.6,140.25L163.82,140.43L163.03,142.36L162.24,148.57L161.45,143.54L160.67,140.56L159.88,144.22L159.09,148.2L158.3,147.39L157.52,149.38L156.73,148.45L155.94,148.45L155.15,149.32L154.36,142.98L153.58,147.02L152.79,143.42L152,143.79L151.21,154.04L150.43,151.8L149.64,156.15L148.85,153.85L148.06,155.66L147.28,155.34L146.49,153.36L145.7,154.72L144.91,157.77L144.13,156.77L143.34,161.37L142.55,160.94L141.76,162.43L140.98,169.2L140.19,161.31L139.4,163.05L138.61,168.08L137.83,161.56L135.46,174.42L134.68,168.02L133.89,166.22L133.1,169.32L132.31,163.42L131.53,167.89L130.74,168.89L129.95,175.16L129.16,171.06L128.37,173.73L126.8,168.45L126.01,170.01L125.22,180.07L124.44,177.21L123.65,175.1L122.86,176.78L121.29,179.88L120.5,175.66L119.71,185.35L118.92,177.96L117.35,187.84L116.56,184.67L115.77,190.14L114.99,180.26L114.2,181.13L113.41,193.99L112.62,193.12L111.84,200.26L110.26,193.12L109.47,194.24L108.69,196.97L107.9,193.99L107.11,204.55L106.32,204.55L105.54,191.44L104.75,202.87L103.96,199.08L103.17,207.03L102.38,204.3L101.6,196.78L100.81,205.36L100.02,202.81L99.23,209.02L98.45,208.28L96.08,217.6L95.3,211.01L94.51,211.82L93.72,219.89L92.93,216.73L92.15,221.82L90.57,216.85L89.78,225.92L89,221.39L88.21,229.46L86.63,232.57L85.85,235.67L85.06,233.56L84.27,237.41L82.7,235.61L81.91,233.25L80.33,236.86L79.55,238.97L78.76,241.08L77.97,238.47L77.18,241.08L76.39,240.4L75.61,239.4L74.82,233.38L74.03,238.41L73.24,238.41L70.88,242.07L70.09,240.77L69.31,241.02L68.52,242.7L67.73,239.15L66.94,242.32L66.16,241.08L65.37,241.64L64.58,240.89L63.79,243.38L63.01,244.19L62.22,243.19L60.64,243.01L59.86,240.64L59.07,241.45L58.28,240.64L57.49,243.25L56.71,242.38L55.92,242.14L55.13,243.81L54.34,242.45L53.56,243.69L51.98,243.94L51.19,244.37L48.83,244.37L48.04,244.87L45.68,244.31L44.89,244.87L44.1,244.31L43.32,244.68L41.74,245.12L40.95,244.43L38.59,245.06L37.8,245.06L34.65,245.37L33.87,245.12L29.93,245.55L29.14,245.3L25.99,245.55L25.2,245.55L22.84,245.55L22.05,245.55L19.69,245.55L18.9,245.8L15.75,245.55L14.96,245.62L8.66,245.55L7.88,245.8L5.51,245.37L4.73,245.8L1.58,245.55L0.79,245.8L0,245.8Z" style="fill: rgb(99, 110, 250); fill-opacity: 0.3; stroke-width: 0;"/></g></g><g class="errorbars"/><g class="lines"><path class="js-line" d="M0,245.24L2.36,244.56L3.15,244.75L7.09,244.19L7.88,243.56L8.66,244.12L9.45,242.51L11.03,240.02L11.81,241.33L13.39,236.3L14.18,237.91L16.54,235.36L17.33,231.57L18.11,234.31L18.9,231.95L19.69,225.24L20.48,235.43L22.05,223.56L22.84,227.78L24.41,221.14L25.2,220.45L26.78,223.37L27.57,227.6L28.35,223.31L29.14,225.05L29.93,223.19L30.72,223.99L31.5,223.56L32.29,216.29L35.44,209.08L36.23,213.56L37.02,195.29L37.8,204.3L39.38,183.12L40.17,190.14L40.95,189.89L41.74,175.97L42.53,175.47L43.32,165.16L44.1,175.85L44.89,174.91L45.68,176.72L46.47,175.04L47.25,163.05L48.04,166.28L48.83,163.42L49.62,150.93L50.4,144.97L51.19,146.9L52.77,157.08L53.56,146.4L54.34,158.58L55.13,144.1L56.71,142.98L57.49,136.33L58.28,139.88L59.07,136.96L59.86,132.36L60.64,133.6L61.43,126.33L62.22,127.26L63.79,125.65L64.58,121.49L66.16,114.59L66.94,112.66L69.31,103.59L70.09,94.65L70.88,104.4L71.67,103.34L72.46,104.28L73.24,99L74.03,99.06L74.82,101.29L75.61,101.05L76.39,105.21L77.18,103.34L77.97,94.65L78.76,101.67L79.55,90.55L80.33,103.78L81.12,97.94L81.91,91.23L82.7,94.65L83.48,95.52L84.27,92.41L85.06,92.78L85.85,86.01L87.42,94.03L88.21,92.85L89.78,96.57L90.57,87.81L92.15,95.77L92.93,95.83L94.51,93.28L95.3,87.56L96.08,94.65L96.87,93.47L97.66,84.33L98.45,92.1L99.23,83.34L100.02,89.86L100.81,84.58L101.6,88.12L102.38,90.67L103.17,87.19L104.75,84.33L105.54,79.55L107.11,89.06L107.9,88.43L108.69,88L109.47,78L110.26,89.93L111.05,84.58L111.84,84.58L112.62,80.67L113.41,79.61L114.2,87.19L114.99,79.12L115.77,79.61L116.56,77.56L117.35,83.96L118.14,80.79L118.92,85.33L120.5,78.43L121.29,83.65L122.86,76.44L123.65,81.48L125.22,76.13L126.01,74.7L126.8,74.83L127.59,81.29L128.37,86.51L129.16,76.57L129.95,66.13L130.74,70.17L132.31,64.58L133.1,65.07L133.89,68.31L134.68,67.44L135.46,68.93L136.25,62.9L137.83,67.44L138.61,71.85L139.4,64.02L140.19,68.93L140.98,70.6L141.76,60.48L142.55,62.09L143.34,60.29L144.91,66.38L145.7,65.88L147.28,62.22L148.06,64.64L148.85,53.39L149.64,67L150.43,57.93L151.21,64.52L152.79,58.8L153.58,65.26L155.15,60.91L155.94,64.76L157.52,57.49L158.3,63.46L159.09,63.4L159.88,65.7L161.45,54.2L162.24,55.57L163.82,48.86L164.6,62.34L165.39,55.63L166.18,57.25L166.97,57.93L167.75,61.41L168.54,53.46L169.33,59.98L170.12,52.28L170.9,58.68L171.69,53.95L172.48,55.26L173.27,59.86L174.05,52.9L176.42,63.58L177.2,51.84L178.78,57.99L179.57,56.63L180.35,63.46L181.14,52.9L181.93,56L182.72,53.83L183.51,56.63L184.29,54.58L185.08,51.78L185.87,63.89L186.66,51.72L187.44,52.65L188.23,46.31L189.02,56.25L190.59,55.32L191.38,52.4L192.17,54.95L192.96,46.68L193.74,49.98L194.53,47.12L196.11,52.4L196.89,49.85L197.68,46.25L198.47,49.23L199.26,53.15L200.04,46.68L201.62,50.72L202.41,53.89L203.19,56.63L203.98,51.41L204.77,54.26L205.56,53.58L207.13,58.92L207.92,55.32L208.71,58.61L209.49,52.28L211.86,59.23L212.65,54.58L213.43,51.97L214.22,58.3L215.8,55.63L216.58,56.94L217.37,53.89L218.16,56.56L218.95,50.6L219.73,58.49L221.31,46.93L222.1,54.7L222.88,56.75L223.67,50.1L224.46,46.75L225.25,47.99L226.03,48.42L226.82,54.08L227.61,47.12L228.4,52.21L229.18,50.85L229.97,47L230.76,52.9L231.55,51.03L232.33,43.7L233.12,46.19L233.91,49.11L234.7,55.07L235.48,52.71L236.27,44.76L237.06,49.36L237.85,49.23L238.64,53.08L239.42,48.92L241,53.27L241.79,43.89L242.57,56.38L243.36,48.24L244.15,57.68L244.94,54.95L247.3,48.86L248.09,54.64L248.87,57.06L249.66,50.29L251.24,47.55L252.02,52.65L252.81,55.44L253.6,55.13L254.39,49.36L255.17,54.45L256.75,42.03L257.54,49.17L258.32,46.81L259.11,40.91L259.9,50.72L260.69,41.53L263.05,55.88L263.84,44.88L264.63,50.91L265.41,49.48L266.99,54.76L267.78,45.32L268.56,50.85L269.35,48.86L270.14,56.69L270.93,49.67L271.71,51.72L272.5,51.22L273.29,53.15L274.08,43.45L275.65,48.86L276.44,49.48L277.23,49.23L278.01,46.44L278.8,51.22L279.59,47.68L280.38,55.94L281.16,47.55L281.95,53.71L282.74,51.22L283.53,48.92L284.31,56L285.1,43.76L285.89,47.8L287.46,42.96L288.25,49.67L289.04,53.33L289.83,52.4L290.62,49.17L291.4,51.16L292.19,47.93L292.98,49.05L293.77,46.62L294.55,53.52L295.34,47.87L296.13,53.52L298.49,47.24L299.28,56.44L300.07,48.18L300.85,51.47L301.64,51.84L302.43,56.25L304,47.24L304.79,54.02L305.58,51.84L306.37,46.56L307.94,53.21L308.73,49.73L309.52,48.3L310.3,53.08L311.09,45.94L311.88,45.63L312.67,45.75L313.45,54.51L315.82,48.42L316.61,51.97L317.39,45.94L318.18,50.47L319.76,44.95L320.54,46.37L321.33,45.5L322.12,42.71L322.91,49.92L323.69,46.06L324.48,43.02L325.27,51.22L326.06,42.83L326.84,51.28L327.63,48.3L328.42,39.17L329.21,50.72L329.99,50.6L330.78,52.34L331.57,46.31L332.36,47.24L333.14,55.88L333.93,42.71L334.72,51.41L336.29,43.14L337.08,47.06L337.87,49.98L338.66,48.74L339.44,47.87L340.23,49.11L341.02,46.56L341.81,48.36L343.38,41.22L344.17,52.65L345.75,43.95L346.53,43.52L348.11,49.17L348.9,52.4L349.68,54.45L350.47,47L351.26,46.19L352.05,49.48L352.83,51.84L353.62,46.13L354.41,41.53L355.2,49.11L356.77,49.05L357.56,50.04L359.13,53.64L359.92,43.64L360.71,49.54L361.5,49.23L362.28,52.28L363.07,47.24L364.65,51.16L365.43,49.79L367.01,51.59L367.8,48.8L369.37,51.66L370.16,45.88L371.74,53.64L372.52,52.09L373.31,50.35L374.1,51.97L374.89,49.98L375.67,53.27L378.04,47.93L378.82,51.72L380.4,42.71L381.19,49.92L381.97,44.26L382.76,47.49L383.55,45.88L384.34,47.49L385.12,45.57L385.91,49.36L386.7,49.67L387.49,48.24L388.27,50.29L389.06,47.49L390.64,53.64L391.42,41.96L392.21,48.42L393,48.3L393,144.97L392.21,146.77L391.42,141.43L390.64,144.66L389.06,143.35L388.27,144.16L387.49,148.88L386.7,145.72L385.91,141.49L385.12,146.34L384.34,140.68L383.55,143.35L381.97,140.87L381.19,138.14L380.4,141.24L379.61,138.57L378.82,136.46L378.04,142.11L377.25,137.2L376.46,143.42L375.67,139.44L374.89,141.93L374.1,143.54L373.31,142.48L371.74,138.63L370.95,138.88L369.37,143.85L368.59,137.95L367.8,141.24L367.01,141.18L366.22,144.66L365.43,141.18L364.65,145.34L363.86,137.51L363.07,137.58L362.28,145.09L361.5,140.31L360.71,143.98L359.92,139.69L359.13,141.49L358.35,142.73L357.56,137.64L356.77,143.79L355.98,140.06L355.2,135.34L354.41,137.58L353.62,134.28L352.83,135.22L352.05,131.99L351.26,141.99L349.68,136.71L348.9,137.2L348.11,131.92L347.32,132.73L345.75,140.19L344.96,133.72L344.17,131.3L343.38,135.46L342.6,134.97L341.81,131.55L341.02,134.47L340.23,133.35L338.66,132.11L337.87,138.32L337.08,134.84L336.29,135.03L333.93,127.95L333.14,130.25L332.36,130.56L331.57,138.01L329.21,129L328.42,137.02L327.63,130.37L326.84,134.84L326.06,133.72L325.27,134.28L323.69,130.37L322.91,131.74L322.12,132.61L321.33,135.77L319.76,130.18L318.97,130.8L318.18,131.86L317.39,126.21L316.61,124.65L315.82,125.09L315.03,132.3L314.24,131.55L313.45,128.51L312.67,128.88L311.09,136.21L310.3,134.53L309.52,134.41L308.73,133.29L307.94,131.55L307.15,127.08L306.37,127.51L305.58,134.16L304,130.8L303.22,133.04L301.64,129.5L300.85,130.37L299.28,136.58L298.49,132.98L297.7,134.35L296.92,133.41L296.13,136.71L295.34,130.8L294.55,132.54L293.77,130.12L292.98,142.36L292.19,132.61L291.4,125.34L290.62,139.25L289.83,130.25L289.04,141.8L287.46,129.31L286.68,133.97L285.89,136.02L285.1,134.47L284.31,134.22L283.53,127.7L282.74,130.8L281.95,129.44L281.16,131.49L280.38,131.3L279.59,132.54L278.8,137.51L278.01,130.8L277.23,132.17L276.44,133.1L275.65,132.42L274.86,135.28L274.08,131.12L273.29,130.93L272.5,129.56L270.93,134.22L270.14,126.95L268.56,136.64L267.78,135.09L266.2,129.81L265.41,137.83L264.63,138.82L263.84,136.52L262.26,140L261.47,139.75L260.69,129.69L259.9,133.17L257.54,144.47L256.75,139.38L255.96,137.33L255.17,142.86L254.39,139.07L253.6,143.35L252.02,136.33L251.24,138.2L250.45,135.46L249.66,140.68L247.3,132.23L246.51,136.77L245.72,139.63L244.94,135.77L244.15,140.62L243.36,137.89L242.57,141.43L241.79,138.51L241,134.97L240.21,139.32L239.42,132.36L238.64,137.7L237.06,134.59L236.27,130.87L235.48,140.37L234.7,126.46L233.91,140.25L233.12,134.35L232.33,141.8L231.55,136.02L230.76,138.88L229.97,146.71L229.18,128.32L228.4,138.63L226.82,130.87L226.03,141.86L225.25,143.29L224.46,135.4L223.67,139.56L222.88,135.34L222.1,133.04L221.31,140.25L220.52,136.33L219.73,141.43L218.95,137.02L218.16,138.51L217.37,143.35L216.58,134.53L215.8,133.04L215.01,139.69L214.22,138.57L213.43,139.81L211.07,134.16L210.28,136.02L209.49,142.61L208.71,132.79L207.92,139.19L207.13,133.29L206.34,136.89L205.56,133.23L203.19,144.47L202.41,136.89L201.62,133.6L200.83,136.33L200.04,142.8L199.26,135.46L198.47,149.69L197.68,141.24L196.89,141.3L196.11,138.38L195.32,145.96L194.53,137.51L191.38,149.63L190.59,137.76L189.81,147.33L189.02,137.58L188.23,136.21L187.44,140.81L186.66,151.12L185.87,144.6L185.08,148.14L184.29,143.73L183.51,135.9L182.72,143.48L181.93,148.08L181.14,146.77L180.35,142.3L179.57,148.7L178.78,150L177.99,144.78L177.2,138.94L176.42,149.88L174.84,146.96L174.05,147.45L173.27,133.54L172.48,145.4L170.9,143.35L170.12,146.71L168.54,153.54L167.75,151.37L166.97,144.66L166.18,145.78L165.39,146.46L164.6,140.25L163.82,140.43L163.03,142.36L162.24,148.57L161.45,143.54L160.67,140.56L159.88,144.22L159.09,148.2L158.3,147.39L157.52,149.38L156.73,148.45L155.94,148.45L155.15,149.32L154.36,142.98L153.58,147.02L152.79,143.42L152,143.79L151.21,154.04L150.43,151.8L149.64,156.15L148.85,153.85L148.06,155.66L147.28,155.34L146.49,153.36L145.7,154.72L144.91,157.77L144.13,156.77L143.34,161.37L142.55,160.94L141.76,162.43L140.98,169.2L140.19,161.31L139.4,163.05L138.61,168.08L137.83,161.56L135.46,174.42L134.68,168.02L133.89,166.22L133.1,169.32L132.31,163.42L131.53,167.89L130.74,168.89L129.95,175.16L129.16,171.06L128.37,173.73L126.8,168.45L126.01,170.01L125.22,180.07L124.44,177.21L123.65,175.1L122.86,176.78L121.29,179.88L120.5,175.66L119.71,185.35L118.92,177.96L117.35,187.84L116.56,184.67L115.77,190.14L114.99,180.26L114.2,181.13L113.41,193.99L112.62,193.12L111.84,200.26L110.26,193.12L109.47,194.24L108.69,196.97L107.9,193.99L107.11,204.55L106.32,204.55L105.54,191.44L104.75,202.87L103.96,199.08L103.17,207.03L102.38,204.3L101.6,196.78L100.81,205.36L100.02,202.81L99.23,209.02L98.45,208.28L96.08,217.6L95.3,211.01L94.51,211.82L93.72,219.89L92.93,216.73L92.15,221.82L90.57,216.85L89.78,225.92L89,221.39L88.21,229.46L86.63,232.57L85.85,235.67L85.06,233.56L84.27,237.41L82.7,235.61L81.91,233.25L80.33,236.86L79.55,238.97L78.76,241.08L77.97,238.47L77.18,241.08L76.39,240.4L75.61,239.4L74.82,233.38L74.03,238.41L73.24,238.41L70.88,242.07L70.09,240.77L69.31,241.02L68.52,242.7L67.73,239.15L66.94,242.32L66.16,241.08L65.37,241.64L64.58,240.89L63.79,243.38L63.01,244.19L62.22,243.19L60.64,243.01L59.86,240.64L59.07,241.45L58.28,240.64L57.49,243.25L56.71,242.38L55.92,242.14L55.13,243.81L54.34,242.45L53.56,243.69L51.98,243.94L51.19,244.37L48.83,244.37L48.04,244.87L45.68,244.31L44.89,244.87L44.1,244.31L43.32,244.68L41.74,245.12L40.95,244.43L38.59,245.06L37.8,245.06L34.65,245.37L33.87,245.12L29.93,245.55L29.14,245.3L25.99,245.55L25.2,245.55L22.84,245.55L22.05,245.55L19.69,245.55L18.9,245.8L15.75,245.55L14.96,245.62L8.66,245.55L7.88,245.8L5.51,245.37L4.73,245.8L1.58,245.55L0.79,245.8L0,245.8" style="vector-effect: non-scaling-stroke; fill: none; stroke: rgb(0, 0, 0); stroke-opacity: 0; stroke-width: 2px; opacity: 1;"/></g><g class="points"/><g class="text"/></g><g class="trace scatter traced5d701" style="stroke-miterlimit: 2; opacity: 1;"><g class="fills"/><g class="errorbars"/><g class="lines"><path class="js-line" d="M0,245.8L2.36,244.56L3.15,244.56L3.94,245.06L4.73,244.31L6.3,244.81L7.09,244.81L11.03,244.06L11.81,244.81L13.39,244.81L14.18,245.06L18.9,244.06L19.69,242.82L20.48,240.83L21.26,243.56L22.05,237.85L22.84,240.09L23.63,242.57L24.41,242.07L25.2,241.33L25.99,236.36L26.78,232.13L27.57,238.59L28.35,237.6L29.14,234.37L29.93,231.14L30.72,237.85L31.5,233.87L32.29,239.59L34.65,227.16L35.44,222.44L36.23,224.93L37.02,224.18L37.8,229.4L38.59,217.22L39.38,218.71L40.17,224.68L40.95,220.95L41.74,221.45L43.32,215.24L44.1,214.49L44.89,211.01L45.68,215.73L46.47,223.44L47.25,215.73L48.04,218.47L48.83,216.23L50.4,205.79L51.19,207.53L51.98,197.84L52.77,201.57L55.13,183.67L55.92,183.18L57.49,177.96L58.28,173.24L59.07,173.24L59.86,178.46L61.43,151.87L62.22,155.34L63.01,152.36L63.79,154.1L64.58,153.36L65.37,160.31L66.16,151.37L66.94,156.59L67.73,152.61L68.52,141.18L70.88,156.59L71.67,156.59L72.46,138.2L73.24,140.93L74.03,150.13L74.82,141.43L75.61,125.03L76.39,132.23L77.18,133.23L77.97,132.73L79.55,128.51L80.33,133.23L81.12,119.81L81.91,133.48L83.48,120.06L84.27,123.04L85.06,118.57L85.85,119.56L86.63,120.55L87.42,117.82L88.21,116.08L89,112.35L90.57,108.13L91.36,109.62L92.15,113.35L92.93,108.63L93.72,119.06L94.51,112.35L95.3,107.63L96.08,109.12L98.45,115.83L99.23,106.14L100.02,99.18L100.81,104.4L101.6,96.45L102.38,110.36L103.17,112.6L103.96,102.41L104.75,114.59L105.54,113.1L106.32,104.4L107.11,111.11L107.9,110.12L108.69,102.41L109.47,95.95L110.26,97.94L111.05,107.88L111.84,98.19L112.62,99.68L113.41,97.19L114.2,90.73L114.99,95.21L115.77,95.21L116.56,99.68L117.35,88L118.14,96.2L118.92,90.98L119.71,92.72L121.29,83.53L122.07,88.5L122.86,87.25L123.65,78.56L126.8,90.24L127.59,82.28L128.37,76.57L129.16,80.79L129.95,85.02L130.74,81.29L131.53,80.54L132.31,64.89L133.89,85.02L134.68,81.04L135.46,67.12L136.25,70.85L137.04,85.02L137.83,73.83L138.61,77.06L139.4,67.87L140.19,66.38L140.98,62.65L142.55,63.89L143.34,68.86L144.13,64.14L144.91,73.34L145.7,72.59L146.49,69.36L148.06,63.15L148.85,64.89L149.64,67.12L150.43,71.85L151.21,64.64L152,70.6L152.79,64.89L153.58,72.84L154.36,63.15L155.15,65.14L155.94,62.65L156.73,71.1L158.3,64.14L159.09,65.88L159.88,60.41L160.67,70.85L162.24,56.19L163.03,65.88L163.82,66.38L164.6,65.39L166.18,52.46L166.97,61.91L167.75,53.46L168.54,57.43L169.33,62.15L170.12,52.21L170.9,57.68L171.69,57.18L173.27,49.73L174.05,53.95L174.84,51.97L175.63,45.01L176.42,59.42L177.2,53.46L177.99,56.19L178.78,42.77L179.57,46L180.35,54.95L181.14,56.94L181.93,50.23L182.72,47.49L183.51,48.24L184.29,53.71L185.08,49.73L185.87,50.47L186.66,54.7L187.44,55.44L188.23,53.71L189.02,43.02L189.81,46.25L190.59,52.21L191.38,44.51L192.96,46.5L193.74,43.27L195.32,55.44L196.11,47.49L196.89,47.24L197.68,43.76L198.47,49.73L199.26,39.54L200.04,56.44L200.83,46.25L203.19,53.71L203.98,60.66L204.77,47.74L205.56,62.65L207.13,55.94L207.92,56.44L208.71,57.93L209.49,54.95L210.28,51.47L211.07,55.44L211.86,57.18L212.65,45.5L213.43,60.91L214.22,58.92L215.8,53.71L216.58,53.21L217.37,50.23L218.16,58.68L218.95,52.21L219.73,57.43L221.31,52.21L222.1,53.21L222.88,60.91L223.67,56.94L224.46,60.66L225.25,57.18L227.61,49.73L228.4,49.98L229.18,61.91L229.97,51.72L230.76,52.71L231.55,55.69L232.33,55.69L233.12,59.17L234.7,54.7L235.48,56.94L236.27,51.22L237.06,57.43L238.64,56.69L239.42,53.95L240.21,63.65L241,62.4L241.79,47.24L242.57,59.42L244.15,62.15L244.94,63.4L245.72,53.95L246.51,53.95L247.3,54.7L248.09,60.17L248.87,57.18L249.66,62.9L250.45,66.63L251.24,59.92L252.02,58.68L252.81,63.4L253.6,57.93L254.39,58.18L255.17,64.89L255.96,57.68L256.75,59.42L257.54,65.88L258.32,56.44L259.11,56.94L259.9,66.13L260.69,60.41L261.47,66.13L262.26,56.19L263.05,58.43L263.84,66.38L264.63,61.91L265.41,66.13L266.2,59.42L266.99,62.4L267.78,60.66L268.56,62.9L269.35,67.37L270.14,58.68L270.93,61.66L271.71,68.37L273.29,62.65L274.08,69.86L274.86,62.9L275.65,68.12L276.44,61.41L277.23,74.58L278.01,63.65L278.8,63.15L279.59,61.41L280.38,63.4L281.95,57.18L282.74,61.16L283.53,60.17L284.31,62.4L285.89,57.93L286.68,67.12L288.25,61.16L289.04,68.37L289.83,64.64L290.62,65.63L291.4,60.17L292.19,61.66L292.98,63.89L293.77,63.65L294.55,66.38L295.34,53.95L296.13,73.34L296.92,67.12L297.7,66.63L298.49,59.92L299.28,64.39L300.07,62.65L300.85,69.11L301.64,63.65L302.43,67.62L303.22,64.14L304,62.9L304.79,63.65L306.37,67.87L307.15,59.67L307.94,51.22L308.73,66.38L309.52,55.44L310.3,63.4L311.09,62.15L311.88,75.57L312.67,57.68L313.45,61.41L314.24,61.41L315.03,60.17L315.82,66.63L316.61,64.39L317.39,68.62L318.18,67.37L318.97,59.17L319.76,63.15L320.54,65.39L321.33,57.18L322.12,67.62L322.91,64.39L323.69,59.92L324.48,63.65L326.06,61.66L326.84,60.17L327.63,62.15L328.42,60.41L329.99,65.88L330.78,54.45L332.36,64.64L333.14,67.62L333.93,62.65L334.72,64.64L335.51,68.62L336.29,63.4L337.08,60.91L337.87,71.85L338.66,56.44L339.44,57.93L340.23,63.89L341.02,61.41L341.81,64.89L342.6,64.89L344.17,60.91L344.96,70.11L345.75,67.12L346.53,60.66L348.11,65.63L348.9,59.17L349.68,72.84L350.47,65.14L351.26,65.88L352.05,57.43L353.62,64.64L354.41,59.67L355.2,66.63L355.98,58.92L356.77,61.66L357.56,57.18L359.13,59.92L359.92,60.91L360.71,58.43L361.5,51.97L363.07,61.16L363.86,62.4L364.65,64.39L365.43,58.92L367.01,62.4L367.8,58.68L368.59,59.92L369.37,57.18L370.16,63.4L370.95,62.15L373.31,51.97L374.1,58.18L374.89,62.15L375.67,60.66L376.46,54.2L377.25,60.91L378.04,59.42L378.82,63.65L379.61,55.2L380.4,59.17L381.97,63.4L382.76,61.66L385.12,55.94L385.91,62.65L386.7,63.15L387.49,61.41L388.27,64.39L389.06,60.66L389.85,63.15L390.64,57.18L391.42,67.12L392.21,59.42L393,57.93" style="vector-effect: non-scaling-stroke; fill: none; stroke: rgb(239, 85, 59); stroke-opacity: 1; stroke-width: 2px; opacity: 1;"/></g><g class="points"/><g class="text"/></g><g class="trace scatter tracedaba82" style="stroke-miterlimit: 2; opacity: 1;"><g class="fills"><g><path class="js-fill" d="M0,245.3L2.36,242.57L3.15,241.58L4.73,241.33L5.51,240.33L6.3,238.84L7.09,234.37L7.88,238.35L8.66,235.61L9.45,232.63L10.24,234.37L11.03,238.1L11.81,231.89L14.18,242.82L14.96,243.32L17.33,227.16L18.11,229.15L18.9,221.94L19.69,223.19L20.48,217.47L21.26,221.2L22.84,212.25L23.63,209.27L24.41,214.99L25.2,209.52L26.78,218.71L27.57,216.23L28.35,218.22L29.14,207.03L29.93,194.36L30.72,201.32L31.5,190.38L32.29,197.34L33.87,185.41L34.65,189.39L35.44,193.61L36.23,186.16L37.02,182.93L37.8,171.25L38.59,165.78L39.38,175.72L40.17,159.82L40.95,180.69L41.74,165.29L42.53,173.24L43.32,169.26L44.1,171.99L44.89,166.28L45.68,171.25L47.25,157.58L48.04,154.85L48.83,161.06L49.62,141.43L50.4,151.12L51.19,142.42L51.98,149.38L52.77,149.38L55.13,132.48L55.92,138.45L59.07,110.86L59.86,113.6L60.64,115.58L61.43,100.18L62.22,95.7L63.01,103.9L63.79,94.21L64.58,103.16L65.37,102.16L66.16,96.45L66.94,96.95L67.73,100.18L68.52,88.74L69.31,91.98L70.09,95.7L70.88,87.01L71.67,91.48L72.46,83.03L74.82,68.37L75.61,81.04L77.97,64.14L78.76,71.6L79.55,83.03L80.33,79.05L81.91,74.58L82.7,66.38L84.27,69.11L85.06,64.14L85.85,61.66L86.63,66.38L87.42,73.83L88.21,72.84L89.78,61.91L90.57,69.36L91.36,59.92L92.15,71.1L92.93,51.97L93.72,52.71L94.51,55.94L95.3,54.2L96.08,57.43L96.87,54.95L97.66,56.94L98.45,47.74L100.02,59.92L100.81,50.72L101.6,54.2L102.38,46.75L104.75,57.68L105.54,51.72L106.32,54.2L107.11,62.4L108.69,42.03L109.47,51.97L110.26,51.47L111.05,48.98L111.84,46L112.62,61.16L113.41,51.72L114.2,54.7L114.99,46L115.77,47L116.56,47.99L117.35,45.01L118.14,44.26L118.92,37.3L119.71,49.98L120.5,49.48L122.07,53.95L122.86,50.23L123.65,48.74L124.44,49.98L126.01,41.03L126.8,48.24L128.37,39.79L129.16,43.52L129.95,52.21L130.74,46.75L131.53,42.52L132.31,46L133.89,41.03L134.68,40.53L135.46,40.53L136.25,38.3L137.04,38.79L137.83,37.55L138.61,39.54L139.4,34.57L140.19,32.83L140.98,36.31L141.76,38.79L142.55,36.31L143.34,38.79L144.13,33.33L144.91,31.34L145.7,25.38L146.49,34.82L147.28,29.6L148.06,33.08L148.85,31.09L149.64,25.38L150.43,28.85L151.21,33.33L152,21.9L152.79,26.62L153.58,22.89L154.36,28.11L155.15,22.14L155.94,21.4L156.73,26.87L158.3,34.57L159.09,26.62L159.88,25.38L160.67,27.86L162.24,30.1L163.03,23.39L164.6,33.08L165.39,30.1L166.18,30.1L166.97,32.09L167.75,31.34L168.54,26.62L169.33,29.35L170.12,27.36L170.9,21.9L171.69,25.38L172.48,26.87L173.27,35.32L174.05,28.11L174.84,33.08L176.42,23.64L177.2,27.11L178.78,36.06L179.57,34.57L181.14,22.64L181.93,31.84L183.51,19.66L184.29,22.89L185.08,29.85L185.87,24.13L186.66,24.38L187.44,22.14L188.23,30.35L189.02,23.39L189.81,26.62L190.59,24.88L191.38,32.09L192.17,26.87L192.96,20.65L193.74,24.13L195.32,22.14L196.11,26.12L196.89,27.61L197.68,21.65L198.47,25.13L199.26,21.9L200.04,28.61L200.83,22.89L201.62,32.58L202.41,25.13L203.19,26.12L203.98,24.88L204.77,31.59L205.56,24.88L207.13,29.35L207.92,26.87L208.71,31.34L209.49,19.91L211.07,29.35L211.86,28.36L212.65,33.33L213.43,24.63L214.22,23.39L215.01,33.08L216.58,28.61L217.37,27.11L218.95,28.61L219.73,39.54L221.31,29.1L222.1,31.34L222.88,25.13L223.67,34.07L224.46,37.55L225.25,23.64L226.03,35.56L226.82,31.84L227.61,23.14L228.4,30.1L229.18,35.32L229.97,34.82L230.76,29.6L231.55,32.09L232.33,25.62L233.12,26.62L233.91,30.1L234.7,24.63L235.48,31.09L236.27,28.36L237.06,28.85L237.85,22.39L240.21,25.62L241,22.89L242.57,22.64L243.36,35.32L244.15,38.55L244.94,32.58L246.51,18.67L247.3,39.29L248.09,27.11L248.87,26.87L250.45,22.14L251.24,21.9L252.02,34.32L252.81,26.37L254.39,25.87L255.17,27.86L255.96,27.86L256.75,34.57L257.54,16.93L258.32,37.3L259.11,25.87L259.9,27.61L260.69,35.81L261.47,33.58L262.26,22.64L263.05,29.85L264.63,35.81L265.41,28.11L266.2,24.13L266.99,27.61L267.78,26.37L268.56,33.82L270.14,26.37L270.93,29.35L271.71,28.61L272.5,33.08L274.08,32.33L274.86,30.59L275.65,31.84L276.44,23.64L277.23,36.56L278.01,23.14L278.8,28.61L279.59,27.61L280.38,35.07L281.16,28.36L282.74,37.55L283.53,31.09L285.89,26.12L286.68,23.14L287.46,29.1L288.25,22.14L289.04,32.09L289.83,29.6L290.62,29.35L291.4,32.83L292.19,31.34L292.98,31.84L293.77,26.62L294.55,26.62L295.34,18.17L296.13,21.9L296.92,24.63L297.7,23.88L298.49,24.13L299.28,28.61L300.07,25.13L300.85,31.09L302.43,19.66L303.22,25.87L304,31.59L304.79,23.14L305.58,24.38L306.37,30.1L307.15,29.6L307.94,21.4L308.73,31.34L309.52,30.35L310.3,32.33L311.09,31.09L311.88,20.65L312.67,25.87L313.45,20.16L314.24,24.88L315.03,21.15L315.82,23.64L317.39,30.1L318.18,21.15L318.97,25.38L319.76,24.88L320.54,28.36L321.33,20.16L322.12,24.88L322.91,20.65L323.69,20.41L324.48,30.84L325.27,22.14L326.06,31.09L327.63,24.88L328.42,24.88L329.21,23.88L329.99,32.83L330.78,26.37L331.57,31.09L333.14,24.88L333.93,23.39L335.51,31.34L336.29,29.1L337.08,25.62L337.87,16.93L339.44,33.58L340.23,19.66L341.02,33.08L341.81,28.85L342.6,28.11L343.38,25.13L344.17,38.3L344.96,21.65L345.75,32.09L346.53,18.91L348.11,35.81L348.9,26.37L349.68,20.16L350.47,25.62L351.26,12.95L352.05,29.6L352.83,35.07L353.62,16.43L354.41,26.62L355.2,16.93L355.98,24.13L356.77,18.42L357.56,28.61L358.35,23.88L359.13,20.41L359.92,32.58L360.71,28.61L361.5,33.82L362.28,28.36L363.07,28.36L363.86,32.09L364.65,29.1L366.22,26.12L367.01,31.34L367.8,31.34L368.59,22.64L369.37,22.64L370.16,30.84L371.74,26.62L372.52,14.69L374.1,26.12L374.89,18.67L375.67,22.14L376.46,33.82L377.25,31.09L378.04,32.09L380.4,20.9L381.19,27.36L381.97,27.11L382.76,29.1L383.55,25.13L384.34,32.09L385.12,36.31L385.91,31.09L386.7,16.68L387.49,23.64L388.27,24.63L389.06,20.65L389.85,31.84L390.64,23.39L391.42,22.89L392.21,40.78L393,32.58L393,109.37L391.42,113.35L390.64,119.56L389.85,108.87L389.06,112.1L388.27,119.31L387.49,115.34L386.7,113.35L385.91,118.57L385.12,108.38L384.34,108.87L383.55,106.89L382.76,115.58L381.97,115.83L381.19,114.84L380.4,113.1L379.61,113.84L378.82,117.07L378.04,114.09L376.46,108.87L375.67,109.87L374.89,107.88L374.1,116.08L373.31,113.1L372.52,100.92L371.74,120.31L370.95,106.14L370.16,98.69L369.37,114.34L368.59,104.4L367.8,104.9L367.01,96.95L366.22,108.63L365.43,98.69L364.65,101.67L363.86,94.21L363.07,107.38L362.28,93.22L361.5,95.45L359.92,97.69L359.13,95.95L358.35,105.15L357.56,95.21L356.77,111.11L355.98,101.67L355.2,94.46L354.41,107.88L353.62,99.93L352.83,108.38L352.05,106.39L351.26,98.44L350.47,107.38L349.68,99.68L347.32,113.84L346.53,104.65L345.75,105.39L344.96,117.82L344.17,103.16L343.38,118.07L342.6,117.07L341.81,110.36L341.02,112.6L340.23,100.67L339.44,93.71L338.66,100.42L337.87,109.62L337.08,104.4L336.29,118.81L335.51,103.9L334.72,100.18L333.93,100.18L332.36,110.86L331.57,97.44L330.78,100.67L329.99,100.18L329.21,103.9L328.42,93.96L327.63,108.13L326.84,98.19L326.06,105.15L325.27,104.9L324.48,105.89L323.69,92.72L322.91,92.97L322.12,105.64L321.33,107.63L320.54,116.33L319.76,120.55L318.97,105.64L318.18,101.42L317.39,91.23L316.61,111.86L315.82,98.69L315.03,115.58L314.24,105.39L313.45,111.11L312.67,87.5L311.88,111.61L311.09,102.91L310.3,105.39L309.52,91.73L308.73,117.82L307.94,112.1L307.15,107.63L306.37,93.22L305.58,98.93L304.79,97.69L304,96.2L303.22,86.26L302.43,94.96L301.64,91.98L300.85,92.22L300.07,98.69L299.28,89.49L298.49,93.96L297.7,81.04L296.92,86.01L296.13,94.71L295.34,90.48L294.55,100.92L293.77,92.47L292.98,88.74L292.19,79.55L290.62,101.67L289.83,84.02L289.04,107.38L288.25,91.98L287.46,81.54L286.68,81.79L285.89,88.25L285.1,78.8L284.31,96.7L283.53,83.28L282.74,75.57L281.95,90.24L281.16,95.45L280.38,90.48L279.59,97.19L278.8,83.53L278.01,85.27L277.23,79.8L275.65,87.75L274.86,88.5L274.08,93.96L273.29,116.58L272.5,122.04L271.71,98.19L270.93,95.45L270.14,103.41L268.56,80.79L267.78,83.28L266.99,88L266.2,104.4L265.41,76.32L264.63,90.48L263.84,77.06L263.05,79.8L262.26,101.92L261.47,86.01L260.69,89.74L259.9,78.56L259.11,94.96L258.32,80.79L257.54,74.58L256.75,83.53L255.96,83.03L255.17,88.25L253.6,98.44L252.81,94.21L252.02,89.99L251.24,79.05L250.45,81.54L249.66,103.41L248.87,82.28L248.09,119.06L247.3,96.2L246.51,108.13L244.94,86.51L244.15,82.53L243.36,81.04L242.57,87.75L241,80.05L240.21,88.5L239.42,97.19L238.64,93.22L237.85,101.92L237.06,89.49L235.48,103.66L234.7,82.04L233.91,90.98L233.12,112.85L231.55,100.18L230.76,123.29L229.97,109.37L229.18,125.77L228.4,125.28L227.61,118.57L226.82,109.12L226.03,134.47L225.25,138.45L224.46,130.25L223.67,129.5L222.88,113.1L222.1,125.28L221.31,121.3L220.52,127.01L219.73,122.79L218.16,114.84L217.37,119.81L216.58,113.6L215.8,115.83L215.01,111.11L214.22,117.82L213.43,111.86L212.65,119.06L211.86,119.31L211.07,114.34L210.28,115.34L209.49,121.3L208.71,124.53L207.92,120.8L207.13,129L206.34,123.04L204.77,115.83L203.98,129.75L202.41,108.13L201.62,119.06L200.04,124.53L199.26,128.01L197.68,111.61L196.89,110.61L196.11,115.34L195.32,102.66L194.53,114.34L193.74,110.86L192.96,113.84L192.17,108.38L190.59,122.54L189.81,117.82L188.23,123.04L187.44,121.05L185.08,130.99L184.29,131.24L183.51,124.78L182.72,132.98L181.93,115.09L181.14,131.99L180.35,116.08L179.57,131.49L177.99,121.8L177.2,100.42L176.42,114.34L175.63,113.84L174.84,95.21L174.05,120.8L172.48,100.42L171.69,109.87L170.9,99.68L170.12,100.92L169.33,111.36L168.54,97.94L167.75,98.93L166.97,118.81L164.6,87.25L163.82,92.97L163.03,90.98L162.24,103.66L161.45,111.36L160.67,105.64L159.88,97.69L159.09,104.65L158.3,106.64L157.52,94.71L156.73,104.4L155.94,98.19L155.15,95.7L154.36,105.15L153.58,108.38L152.79,104.4L152,108.63L151.21,119.56L149.64,90.73L148.85,105.15L148.06,105.15L147.28,102.66L146.49,99.68L145.7,111.61L144.91,112.6L144.13,114.84L143.34,115.83L142.55,113.6L141.76,116.08L140.98,97.69L140.19,103.16L139.4,99.68L138.61,108.38L137.83,100.18L136.25,107.13L135.46,98.69L134.68,102.91L133.89,96.2L131.53,115.09L130.74,109.12L129.16,100.42L128.37,105.39L127.59,110.12L126.8,120.8L126.01,121.05L125.22,112.1L124.44,128.51L123.65,120.8L122.86,137.7L122.07,129.75L121.29,126.77L120.5,141.68L118.92,123.78L118.14,124.03L117.35,127.01L116.56,126.27L114.99,122.04L114.2,126.27L112.62,137.45L111.84,134.97L110.26,125.03L109.47,127.76L108.69,126.52L107.9,126.77L107.11,127.01L106.32,134.97L105.54,130.99L104.75,131.74L103.96,138.69L103.17,127.76L101.6,139.69L100.81,139.94L99.23,129.75L98.45,135.71L96.87,130.25L96.08,146.9L95.3,145.65L94.51,130.99L93.72,155.59L92.93,153.85L91.36,165.04L90.57,178.21L89.78,171L89,176.22L87.42,192.87L86.63,204.05L85.85,177.21L85.06,190.63L83.48,176.47L82.7,177.21L81.91,187.15L81.12,183.92L80.33,176.72L79.55,188.4L78.76,193.86L77.97,173.49L75.61,189.39L74.82,176.72L73.24,183.92L72.46,195.35L71.67,187.9L70.88,197.59L69.31,191.13L68.52,204.8L67.73,197.84L66.94,200.57L65.37,208.53L64.58,220.7L63.79,204.3L63.01,210.26L62.22,221.2L61.43,213.99L59.86,231.39L59.07,221.45L58.28,226.67L57.49,226.42L56.71,230.15L55.92,228.9L55.13,233.87L54.34,223.19L53.56,234.87L52.77,228.41L51.98,232.88L51.19,228.65L50.4,239.59L49.62,235.61L48.83,232.38L48.04,232.38L46.47,237.35L45.68,236.11L44.1,242.57L43.32,242.32L42.53,239.59L41.74,239.84L40.95,236.61L40.17,244.06L39.38,240.83L38.59,244.31L37.8,242.82L37.02,244.56L36.23,243.81L35.44,244.56L33.08,243.81L32.29,244.31L31.5,245.06L30.72,244.31L29.14,243.81L28.35,245.3L27.57,244.56L26.78,245.06L22.05,245.06L21.26,245.8L20.48,244.81L19.69,245.3L0.79,245.3L0,246.05Z" style="fill: rgb(239, 85, 59); fill-opacity: 0.3; stroke-width: 0;"/></g></g><g class="errorbars"/><g class="lines"><path class="js-line" d="M0,245.3L2.36,242.57L3.15,241.58L4.73,241.33L5.51,240.33L6.3,238.84L7.09,234.37L7.88,238.35L8.66,235.61L9.45,232.63L10.24,234.37L11.03,238.1L11.81,231.89L14.18,242.82L14.96,243.32L17.33,227.16L18.11,229.15L18.9,221.94L19.69,223.19L20.48,217.47L21.26,221.2L22.84,212.25L23.63,209.27L24.41,214.99L25.2,209.52L26.78,218.71L27.57,216.23L28.35,218.22L29.14,207.03L29.93,194.36L30.72,201.32L31.5,190.38L32.29,197.34L33.87,185.41L34.65,189.39L35.44,193.61L36.23,186.16L37.02,182.93L37.8,171.25L38.59,165.78L39.38,175.72L40.17,159.82L40.95,180.69L41.74,165.29L42.53,173.24L43.32,169.26L44.1,171.99L44.89,166.28L45.68,171.25L47.25,157.58L48.04,154.85L48.83,161.06L49.62,141.43L50.4,151.12L51.19,142.42L51.98,149.38L52.77,149.38L55.13,132.48L55.92,138.45L59.07,110.86L59.86,113.6L60.64,115.58L61.43,100.18L62.22,95.7L63.01,103.9L63.79,94.21L64.58,103.16L65.37,102.16L66.16,96.45L66.94,96.95L67.73,100.18L68.52,88.74L69.31,91.98L70.09,95.7L70.88,87.01L71.67,91.48L72.46,83.03L74.82,68.37L75.61,81.04L77.97,64.14L78.76,71.6L79.55,83.03L80.33,79.05L81.91,74.58L82.7,66.38L84.27,69.11L85.06,64.14L85.85,61.66L86.63,66.38L87.42,73.83L88.21,72.84L89.78,61.91L90.57,69.36L91.36,59.92L92.15,71.1L92.93,51.97L93.72,52.71L94.51,55.94L95.3,54.2L96.08,57.43L96.87,54.95L97.66,56.94L98.45,47.74L100.02,59.92L100.81,50.72L101.6,54.2L102.38,46.75L104.75,57.68L105.54,51.72L106.32,54.2L107.11,62.4L108.69,42.03L109.47,51.97L110.26,51.47L111.05,48.98L111.84,46L112.62,61.16L113.41,51.72L114.2,54.7L114.99,46L115.77,47L116.56,47.99L117.35,45.01L118.14,44.26L118.92,37.3L119.71,49.98L120.5,49.48L122.07,53.95L122.86,50.23L123.65,48.74L124.44,49.98L126.01,41.03L126.8,48.24L128.37,39.79L129.16,43.52L129.95,52.21L130.74,46.75L131.53,42.52L132.31,46L133.89,41.03L134.68,40.53L135.46,40.53L136.25,38.3L137.04,38.79L137.83,37.55L138.61,39.54L139.4,34.57L140.19,32.83L140.98,36.31L141.76,38.79L142.55,36.31L143.34,38.79L144.13,33.33L144.91,31.34L145.7,25.38L146.49,34.82L147.28,29.6L148.06,33.08L148.85,31.09L149.64,25.38L150.43,28.85L151.21,33.33L152,21.9L152.79,26.62L153.58,22.89L154.36,28.11L155.15,22.14L155.94,21.4L156.73,26.87L158.3,34.57L159.09,26.62L159.88,25.38L160.67,27.86L162.24,30.1L163.03,23.39L164.6,33.08L165.39,30.1L166.18,30.1L166.97,32.09L167.75,31.34L168.54,26.62L169.33,29.35L170.12,27.36L170.9,21.9L171.69,25.38L172.48,26.87L173.27,35.32L174.05,28.11L174.84,33.08L176.42,23.64L177.2,27.11L178.78,36.06L179.57,34.57L181.14,22.64L181.93,31.84L183.51,19.66L184.29,22.89L185.08,29.85L185.87,24.13L186.66,24.38L187.44,22.14L188.23,30.35L189.02,23.39L189.81,26.62L190.59,24.88L191.38,32.09L192.17,26.87L192.96,20.65L193.74,24.13L195.32,22.14L196.11,26.12L196.89,27.61L197.68,21.65L198.47,25.13L199.26,21.9L200.04,28.61L200.83,22.89L201.62,32.58L202.41,25.13L203.19,26.12L203.98,24.88L204.77,31.59L205.56,24.88L207.13,29.35L207.92,26.87L208.71,31.34L209.49,19.91L211.07,29.35L211.86,28.36L212.65,33.33L213.43,24.63L214.22,23.39L215.01,33.08L216.58,28.61L217.37,27.11L218.95,28.61L219.73,39.54L221.31,29.1L222.1,31.34L222.88,25.13L223.67,34.07L224.46,37.55L225.25,23.64L226.03,35.56L226.82,31.84L227.61,23.14L228.4,30.1L229.18,35.32L229.97,34.82L230.76,29.6L231.55,32.09L232.33,25.62L233.12,26.62L233.91,30.1L234.7,24.63L235.48,31.09L236.27,28.36L237.06,28.85L237.85,22.39L240.21,25.62L241,22.89L242.57,22.64L243.36,35.32L244.15,38.55L244.94,32.58L246.51,18.67L247.3,39.29L248.09,27.11L248.87,26.87L250.45,22.14L251.24,21.9L252.02,34.32L252.81,26.37L254.39,25.87L255.17,27.86L255.96,27.86L256.75,34.57L257.54,16.93L258.32,37.3L259.11,25.87L259.9,27.61L260.69,35.81L261.47,33.58L262.26,22.64L263.05,29.85L264.63,35.81L265.41,28.11L266.2,24.13L266.99,27.61L267.78,26.37L268.56,33.82L270.14,26.37L270.93,29.35L271.71,28.61L272.5,33.08L274.08,32.33L274.86,30.59L275.65,31.84L276.44,23.64L277.23,36.56L278.01,23.14L278.8,28.61L279.59,27.61L280.38,35.07L281.16,28.36L282.74,37.55L283.53,31.09L285.89,26.12L286.68,23.14L287.46,29.1L288.25,22.14L289.04,32.09L289.83,29.6L290.62,29.35L291.4,32.83L292.19,31.34L292.98,31.84L293.77,26.62L294.55,26.62L295.34,18.17L296.13,21.9L296.92,24.63L297.7,23.88L298.49,24.13L299.28,28.61L300.07,25.13L300.85,31.09L302.43,19.66L303.22,25.87L304,31.59L304.79,23.14L305.58,24.38L306.37,30.1L307.15,29.6L307.94,21.4L308.73,31.34L309.52,30.35L310.3,32.33L311.09,31.09L311.88,20.65L312.67,25.87L313.45,20.16L314.24,24.88L315.03,21.15L315.82,23.64L317.39,30.1L318.18,21.15L318.97,25.38L319.76,24.88L320.54,28.36L321.33,20.16L322.12,24.88L322.91,20.65L323.69,20.41L324.48,30.84L325.27,22.14L326.06,31.09L327.63,24.88L328.42,24.88L329.21,23.88L329.99,32.83L330.78,26.37L331.57,31.09L333.14,24.88L333.93,23.39L335.51,31.34L336.29,29.1L337.08,25.62L337.87,16.93L339.44,33.58L340.23,19.66L341.02,33.08L341.81,28.85L342.6,28.11L343.38,25.13L344.17,38.3L344.96,21.65L345.75,32.09L346.53,18.91L348.11,35.81L348.9,26.37L349.68,20.16L350.47,25.62L351.26,12.95L352.05,29.6L352.83,35.07L353.62,16.43L354.41,26.62L355.2,16.93L355.98,24.13L356.77,18.42L357.56,28.61L358.35,23.88L359.13,20.41L359.92,32.58L360.71,28.61L361.5,33.82L362.28,28.36L363.07,28.36L363.86,32.09L364.65,29.1L366.22,26.12L367.01,31.34L367.8,31.34L368.59,22.64L369.37,22.64L370.16,30.84L371.74,26.62L372.52,14.69L374.1,26.12L374.89,18.67L375.67,22.14L376.46,33.82L377.25,31.09L378.04,32.09L380.4,20.9L381.19,27.36L381.97,27.11L382.76,29.1L383.55,25.13L384.34,32.09L385.12,36.31L385.91,31.09L386.7,16.68L387.49,23.64L388.27,24.63L389.06,20.65L389.85,31.84L390.64,23.39L391.42,22.89L392.21,40.78L393,32.58L393,109.37L391.42,113.35L390.64,119.56L389.85,108.87L389.06,112.1L388.27,119.31L387.49,115.34L386.7,113.35L385.91,118.57L385.12,108.38L384.34,108.87L383.55,106.89L382.76,115.58L381.97,115.83L381.19,114.84L380.4,113.1L379.61,113.84L378.82,117.07L378.04,114.09L376.46,108.87L375.67,109.87L374.89,107.88L374.1,116.08L373.31,113.1L372.52,100.92L371.74,120.31L370.95,106.14L370.16,98.69L369.37,114.34L368.59,104.4L367.8,104.9L367.01,96.95L366.22,108.63L365.43,98.69L364.65,101.67L363.86,94.21L363.07,107.38L362.28,93.22L361.5,95.45L359.92,97.69L359.13,95.95L358.35,105.15L357.56,95.21L356.77,111.11L355.98,101.67L355.2,94.46L354.41,107.88L353.62,99.93L352.83,108.38L352.05,106.39L351.26,98.44L350.47,107.38L349.68,99.68L347.32,113.84L346.53,104.65L345.75,105.39L344.96,117.82L344.17,103.16L343.38,118.07L342.6,117.07L341.81,110.36L341.02,112.6L340.23,100.67L339.44,93.71L338.66,100.42L337.87,109.62L337.08,104.4L336.29,118.81L335.51,103.9L334.72,100.18L333.93,100.18L332.36,110.86L331.57,97.44L330.78,100.67L329.99,100.18L329.21,103.9L328.42,93.96L327.63,108.13L326.84,98.19L326.06,105.15L325.27,104.9L324.48,105.89L323.69,92.72L322.91,92.97L322.12,105.64L321.33,107.63L320.54,116.33L319.76,120.55L318.97,105.64L318.18,101.42L317.39,91.23L316.61,111.86L315.82,98.69L315.03,115.58L314.24,105.39L313.45,111.11L312.67,87.5L311.88,111.61L311.09,102.91L310.3,105.39L309.52,91.73L308.73,117.82L307.94,112.1L307.15,107.63L306.37,93.22L305.58,98.93L304.79,97.69L304,96.2L303.22,86.26L302.43,94.96L301.64,91.98L300.85,92.22L300.07,98.69L299.28,89.49L298.49,93.96L297.7,81.04L296.92,86.01L296.13,94.71L295.34,90.48L294.55,100.92L293.77,92.47L292.98,88.74L292.19,79.55L290.62,101.67L289.83,84.02L289.04,107.38L288.25,91.98L287.46,81.54L286.68,81.79L285.89,88.25L285.1,78.8L284.31,96.7L283.53,83.28L282.74,75.57L281.95,90.24L281.16,95.45L280.38,90.48L279.59,97.19L278.8,83.53L278.01,85.27L277.23,79.8L275.65,87.75L274.86,88.5L274.08,93.96L273.29,116.58L272.5,122.04L271.71,98.19L270.93,95.45L270.14,103.41L268.56,80.79L267.78,83.28L266.99,88L266.2,104.4L265.41,76.32L264.63,90.48L263.84,77.06L263.05,79.8L262.26,101.92L261.47,86.01L260.69,89.74L259.9,78.56L259.11,94.96L258.32,80.79L257.54,74.58L256.75,83.53L255.96,83.03L255.17,88.25L253.6,98.44L252.81,94.21L252.02,89.99L251.24,79.05L250.45,81.54L249.66,103.41L248.87,82.28L248.09,119.06L247.3,96.2L246.51,108.13L244.94,86.51L244.15,82.53L243.36,81.04L242.57,87.75L241,80.05L240.21,88.5L239.42,97.19L238.64,93.22L237.85,101.92L237.06,89.49L235.48,103.66L234.7,82.04L233.91,90.98L233.12,112.85L231.55,100.18L230.76,123.29L229.97,109.37L229.18,125.77L228.4,125.28L227.61,118.57L226.82,109.12L226.03,134.47L225.25,138.45L224.46,130.25L223.67,129.5L222.88,113.1L222.1,125.28L221.31,121.3L220.52,127.01L219.73,122.79L218.16,114.84L217.37,119.81L216.58,113.6L215.8,115.83L215.01,111.11L214.22,117.82L213.43,111.86L212.65,119.06L211.86,119.31L211.07,114.34L210.28,115.34L209.49,121.3L208.71,124.53L207.92,120.8L207.13,129L206.34,123.04L204.77,115.83L203.98,129.75L202.41,108.13L201.62,119.06L200.04,124.53L199.26,128.01L197.68,111.61L196.89,110.61L196.11,115.34L195.32,102.66L194.53,114.34L193.74,110.86L192.96,113.84L192.17,108.38L190.59,122.54L189.81,117.82L188.23,123.04L187.44,121.05L185.08,130.99L184.29,131.24L183.51,124.78L182.72,132.98L181.93,115.09L181.14,131.99L180.35,116.08L179.57,131.49L177.99,121.8L177.2,100.42L176.42,114.34L175.63,113.84L174.84,95.21L174.05,120.8L172.48,100.42L171.69,109.87L170.9,99.68L170.12,100.92L169.33,111.36L168.54,97.94L167.75,98.93L166.97,118.81L164.6,87.25L163.82,92.97L163.03,90.98L162.24,103.66L161.45,111.36L160.67,105.64L159.88,97.69L159.09,104.65L158.3,106.64L157.52,94.71L156.73,104.4L155.94,98.19L155.15,95.7L154.36,105.15L153.58,108.38L152.79,104.4L152,108.63L151.21,119.56L149.64,90.73L148.85,105.15L148.06,105.15L147.28,102.66L146.49,99.68L145.7,111.61L144.91,112.6L144.13,114.84L143.34,115.83L142.55,113.6L141.76,116.08L140.98,97.69L140.19,103.16L139.4,99.68L138.61,108.38L137.83,100.18L136.25,107.13L135.46,98.69L134.68,102.91L133.89,96.2L131.53,115.09L130.74,109.12L129.16,100.42L128.37,105.39L127.59,110.12L126.8,120.8L126.01,121.05L125.22,112.1L124.44,128.51L123.65,120.8L122.86,137.7L122.07,129.75L121.29,126.77L120.5,141.68L118.92,123.78L118.14,124.03L117.35,127.01L116.56,126.27L114.99,122.04L114.2,126.27L112.62,137.45L111.84,134.97L110.26,125.03L109.47,127.76L108.69,126.52L107.9,126.77L107.11,127.01L106.32,134.97L105.54,130.99L104.75,131.74L103.96,138.69L103.17,127.76L101.6,139.69L100.81,139.94L99.23,129.75L98.45,135.71L96.87,130.25L96.08,146.9L95.3,145.65L94.51,130.99L93.72,155.59L92.93,153.85L91.36,165.04L90.57,178.21L89.78,171L89,176.22L87.42,192.87L86.63,204.05L85.85,177.21L85.06,190.63L83.48,176.47L82.7,177.21L81.91,187.15L81.12,183.92L80.33,176.72L79.55,188.4L78.76,193.86L77.97,173.49L75.61,189.39L74.82,176.72L73.24,183.92L72.46,195.35L71.67,187.9L70.88,197.59L69.31,191.13L68.52,204.8L67.73,197.84L66.94,200.57L65.37,208.53L64.58,220.7L63.79,204.3L63.01,210.26L62.22,221.2L61.43,213.99L59.86,231.39L59.07,221.45L58.28,226.67L57.49,226.42L56.71,230.15L55.92,228.9L55.13,233.87L54.34,223.19L53.56,234.87L52.77,228.41L51.98,232.88L51.19,228.65L50.4,239.59L49.62,235.61L48.83,232.38L48.04,232.38L46.47,237.35L45.68,236.11L44.1,242.57L43.32,242.32L42.53,239.59L41.74,239.84L40.95,236.61L40.17,244.06L39.38,240.83L38.59,244.31L37.8,242.82L37.02,244.56L36.23,243.81L35.44,244.56L33.08,243.81L32.29,244.31L31.5,245.06L30.72,244.31L29.14,243.81L28.35,245.3L27.57,244.56L26.78,245.06L22.05,245.06L21.26,245.8L20.48,244.81L19.69,245.3L0.79,245.3L0,246.05" style="vector-effect: non-scaling-stroke; fill: none; stroke: rgb(0, 0, 0); stroke-opacity: 0; stroke-width: 2px; opacity: 1;"/></g><g class="points"/><g class="text"/></g><g class="trace scatter trace25c7c5" style="stroke-miterlimit: 2; opacity: 1;"><g class="fills"/><g class="errorbars"/><g class="lines"><path class="js-line" d="M0,245.3L1.58,245.06L2.36,244.81L27.57,244.81L28.35,244.31L30.72,244.06L31.5,244.31L33.87,244.06L34.65,243.32L35.44,244.06L36.23,243.07L37.8,244.06L38.59,243.81L39.38,243.07L40.17,244.06L40.95,244.06L41.74,243.07L43.32,242.07L44.1,241.83L44.89,242.57L45.68,239.34L46.47,239.34L47.25,242.07L48.04,241.33L48.83,243.07L50.4,240.83L51.19,237.35L51.98,238.1L52.77,235.61L53.56,231.64L54.34,231.64L55.13,232.88L55.92,229.4L56.71,223.44L57.49,224.18L58.28,223.68L59.07,225.42L59.86,220.7L60.64,221.94L61.43,218.71L62.22,220.45L63.01,222.94L63.79,219.71L64.58,220.21L65.37,223.93L66.16,224.43L66.94,229.4L68.52,215.48L69.31,219.46L70.09,219.71L70.88,212.5L72.46,205.29L73.24,209.77L74.03,202.56L74.82,208.28L75.61,202.06L76.39,212.75L77.18,203.31L77.97,205.54L79.55,203.31L80.33,198.59L81.12,204.05L81.91,203.31L82.7,202.56L83.48,197.59L84.27,196.85L85.06,199.33L85.85,197.09L86.63,209.52L87.42,196.85L88.21,201.32L89.78,192.12L90.57,191.88L91.36,193.61L92.15,185.17L92.93,197.84L93.72,191.63L94.51,198.83L95.3,188.89L96.08,191.13L96.87,181.44L97.66,187.65L98.45,187.65L99.23,185.91L100.02,197.34L101.6,188.15L102.38,197.84L103.17,202.56L103.96,194.11L105.54,183.67L106.32,184.92L107.11,181.69L107.9,191.88L108.69,188.64L109.47,188.64L110.26,188.64L111.05,190.14L111.84,182.18L112.62,191.63L113.41,181.19L114.2,182.68L114.99,182.18L115.77,183.43L116.56,187.4L117.35,177.46L118.14,173.24L118.92,175.23L119.71,173.24L120.5,179.2L122.07,185.41L122.86,184.17L123.65,177.96L124.44,179.2L126.01,176.96L126.8,183.18L127.59,186.91L128.37,170.5L129.16,169.51L129.95,175.72L130.74,171.5L131.53,175.47L132.31,171.5L133.1,163.3L134.68,166.53L135.46,163.79L136.25,164.04L137.04,161.56L137.83,170.5L138.61,164.79L139.4,168.52L140.19,161.06L140.98,164.29L141.76,152.36L143.34,158.58L144.13,152.36L144.91,158.82L145.7,152.86L146.49,153.11L147.28,150.62L148.06,153.61L148.85,152.61L149.64,152.61L150.43,163.55L151.21,148.39L152,151.12L152.79,157.83L153.58,150.87L155.15,156.59L155.94,152.36L156.73,154.85L157.52,154.1L158.3,150.62L159.09,158.82L159.88,158.82L160.67,166.53L161.45,153.85L162.24,159.32L163.03,149.13L163.82,152.11L164.6,155.84L165.39,151.12L166.18,156.59L166.97,155.84L167.75,147.39L168.54,149.63L170.12,165.04L170.9,154.85L171.69,160.56L172.48,157.83L173.27,152.11L174.05,160.56L174.84,154.6L175.63,158.08L176.42,163.05L177.2,161.81L178.78,151.37L179.57,159.82L180.35,161.06L181.14,158.33L181.93,161.81L182.72,158.33L185.08,166.03L185.87,157.58L186.66,161.06L187.44,156.59L188.23,161.31L189.02,151.12L190.59,157.58L191.38,153.11L192.17,151.37L192.96,158.82L193.74,163.55L194.53,161.31L196.11,151.62L196.89,160.31L197.68,153.11L198.47,155.1L199.26,152.86L200.04,157.08L200.83,155.34L201.62,151.62L202.41,148.88L203.19,155.34L203.98,156.59L204.77,152.61L205.56,154.1L206.34,157.33L207.13,157.58L207.92,147.64L208.71,159.57L209.49,155.59L210.28,158.82L211.07,152.11L211.86,150.13L212.65,157.08L213.43,151.12L214.22,154.85L215.01,154.6L215.8,150.62L216.58,141.68L217.37,147.39L218.16,147.14L218.95,139.69L219.73,153.36L220.52,138.94L222.1,149.13L222.88,148.39L223.67,143.66L224.46,147.39L225.25,144.91L226.03,146.4L226.82,144.66L227.61,149.63L228.4,142.17L229.18,145.16L229.97,146.4L230.76,142.67L231.55,156.84L232.33,143.17L233.91,148.64L234.7,145.16L235.48,154.35L236.27,150.62L237.06,150.87L237.85,149.13L238.64,150.62L239.42,147.89L240.21,147.39L241,144.16L241.79,146.9L242.57,144.16L243.36,145.16L244.15,150.13L244.94,143.91L245.72,147.64L246.51,149.13L247.3,140.68L248.09,138.69L248.87,147.89L249.66,146.4L250.45,155.1L252.02,149.63L252.81,147.89L253.6,148.88L254.39,153.36L255.17,146.65L255.96,148.88L257.54,143.66L258.32,142.92L259.11,147.64L259.9,145.16L260.69,147.89L261.47,140.19L262.26,149.88L263.05,149.63L263.84,143.91L264.63,144.16L265.41,150.62L266.2,149.38L266.99,149.38L267.78,148.14L268.56,144.91L269.35,148.14L270.14,142.67L270.93,150.62L271.71,145.65L272.5,146.65L274.08,148.88L274.86,155.1L276.44,143.17L277.23,148.39L278.01,141.93L278.8,150.87L279.59,153.11L280.38,152.36L281.16,150.62L281.95,141.18L282.74,149.63L283.53,141.93L285.1,151.37L285.89,149.38L286.68,149.88L287.46,160.07L289.04,146.15L289.83,146.65L290.62,151.62L291.4,143.17L292.19,154.1L292.98,138.94L294.55,151.37L295.34,151.12L296.13,144.41L296.92,148.64L297.7,147.64L298.49,140.19L299.28,151.62L300.07,143.17L300.85,148.64L301.64,143.42L303.22,146.15L304,152.86L304.79,148.14L305.58,152.36L306.37,153.11L307.15,145.4L307.94,142.67L308.73,157.08L309.52,148.88L310.3,151.62L311.88,146.4L312.67,156.09L313.45,151.62L314.24,138.45L315.82,147.14L316.61,147.39L317.39,148.64L318.18,145.65L318.97,154.35L319.76,146.15L320.54,153.36L321.33,153.11L322.12,148.39L322.91,151.37L323.69,151.87L324.48,150.37L325.27,150.87L326.06,158.33L326.84,150.37L327.63,153.11L328.42,151.62L329.21,148.39L329.99,148.88L330.78,150.62L331.57,151.12L332.36,147.89L333.93,156.09L334.72,155.59L336.29,156.09L337.08,152.36L337.87,154.85L338.66,150.13L340.23,151.37L341.02,155.59L341.81,143.91L342.6,149.38L344.17,155.84L344.96,151.62L345.75,141.43L346.53,149.63L347.32,151.12L348.11,154.6L348.9,152.86L349.68,158.82L350.47,151.62L351.26,157.33L352.05,154.1L352.83,147.14L353.62,152.61L354.41,147.64L355.2,151.37L355.98,151.12L356.77,154.1L357.56,152.86L358.35,151.87L359.13,155.34L359.92,149.38L360.71,151.12L362.28,156.09L363.07,155.34L363.86,151.37L364.65,154.85L365.43,159.07L366.22,151.62L368.59,155.1L369.37,149.13L370.16,152.86L370.95,152.86L372.52,150.62L373.31,154.1L374.1,151.87L374.89,152.11L375.67,161.56L376.46,144.91L377.25,153.61L378.04,153.61L378.82,151.12L379.61,159.57L381.19,155.59L381.97,155.1L382.76,157.83L383.55,154.1L384.34,148.14L385.12,153.85L385.91,151.62L386.7,152.61L387.49,158.33L388.27,156.84L389.06,150.13L389.85,150.13L390.64,147.89L391.42,152.36L392.21,151.87L393,155.1" style="vector-effect: non-scaling-stroke; fill: none; stroke: rgb(0, 204, 150); stroke-opacity: 1; stroke-width: 2px; opacity: 1;"/></g><g class="points"/><g class="text"/></g><g class="trace scatter trace854694" style="stroke-miterlimit: 2; opacity: 1;"><g class="fills"><g><path class="js-fill" d="M0,245.06L1.58,244.56L2.36,243.44L3.15,243.56L3.94,242.7L5.51,243.69L6.3,243.69L8.66,242.57L9.45,241.83L11.03,241.7L11.81,242.94L12.6,242.32L13.39,240.09L14.96,242.57L15.75,243.56L17.33,241.08L18.11,243.19L22.05,243.32L22.84,243.81L23.63,244.06L24.41,242.57L25.2,241.45L25.99,241.83L27.57,236.73L28.35,237.48L30.72,234.37L31.5,234.49L32.29,232.75L33.08,233.13L33.87,233.5L34.65,235.61L37.02,229.03L37.8,221.7L38.59,219.34L39.38,227.54L40.95,217.72L41.74,223.68L42.53,221.08L43.32,212.5L44.89,207.28L45.68,207.53L46.47,201.57L47.25,210.02L48.04,211.26L48.83,207.41L49.62,209.77L50.4,200.08L51.98,197.47L52.77,203.68L54.34,185.79L55.13,195.6L55.92,192.5L56.71,196.97L57.49,187.9L58.28,187.65L59.86,185.54L60.64,191.01L63.79,170.38L64.58,170.63L65.37,170.5L66.16,174.85L66.94,179.7L67.73,173.73L68.52,172.12L69.31,168.76L70.88,177.09L71.67,169.39L72.46,171L73.24,165.16L74.03,169.01L74.82,165.16L76.39,173.73L77.18,160.07L77.97,164.79L78.76,161.68L79.55,160.69L80.33,156.96L81.12,166.65L81.91,166.9L82.7,170.75L83.48,170.5L84.27,168.02L85.06,160.07L85.85,168.52L86.63,165.66L87.42,161.56L88.21,169.14L89,158.7L89.78,166.78L90.57,163.79L91.36,164.17L92.15,161.06L92.93,164.91L94.51,153.48L95.3,163.42L96.87,160.81L97.66,155.1L98.45,155.84L99.23,149.26L100.02,151.74L100.81,150.87L101.6,154.85L102.38,150.37L103.17,154.48L103.96,153.98L106.32,147.39L107.11,148.76L108.69,157.08L109.47,158.2L110.26,151L111.05,154.72L111.84,149.75L112.62,153.61L113.41,152.61L114.2,147.02L114.99,145.9L115.77,155.59L116.56,146.52L117.35,150.75L118.14,142.55L118.92,147.89L119.71,149.5L120.5,147.89L121.29,151L122.07,146.65L122.86,150.5L123.65,147.02L126.01,140.43L126.8,141.55L127.59,142.05L128.37,139.81L129.16,139.19L129.95,147.27L130.74,140.56L131.53,145.78L132.31,143.04L133.1,147.64L133.89,138.2L134.68,139.19L135.46,143.17L136.25,138.82L137.04,142.05L137.83,133.6L138.61,134.35L139.4,130.87L140.19,136.96L140.98,134.35L141.76,134.22L142.55,132.48L143.34,133.48L144.13,132.48L144.91,128.63L145.7,130.87L146.49,138.45L147.28,134.59L148.06,133.35L148.85,133.97L149.64,132.98L150.43,136.46L152,132.23L152.79,133.72L153.58,134.35L154.36,133.72L155.15,135.84L155.94,134.47L156.73,139.07L157.52,127.14L158.3,135.71L159.09,132.48L159.88,130.37L160.67,137.45L161.45,133.72L162.24,137.83L163.03,133.6L163.82,134.1L164.6,128.51L165.39,135.46L166.18,130.12L166.97,131.36L167.75,132.36L168.54,138.32L169.33,134.97L170.12,139.32L170.9,139.69L171.69,135.22L172.48,137.7L173.27,132.98L174.05,131.74L174.84,139.69L175.63,139.32L176.42,132.61L177.2,139.56L177.99,137.58L179.57,128.75L180.35,133.6L181.14,137.45L181.93,135.84L182.72,129.25L183.51,131.61L184.29,132.36L185.08,130.62L185.87,134.59L186.66,132.85L187.44,131.86L188.23,126.27L189.02,136.96L189.81,124.9L190.59,132.98L191.38,131.49L192.17,127.88L192.96,131.49L193.74,130.12L194.53,130.74L195.32,130.25L196.11,123.78L196.89,133.35L197.68,129.75L198.47,131.74L199.26,125.52L200.83,131.61L201.62,133.35L202.41,132.11L203.19,132.61L204.77,136.09L205.56,127.76L206.34,130.62L207.13,124.78L207.92,128.63L208.71,124.53L210.28,121.92L211.07,125.65L211.86,124.9L212.65,131.12L213.43,120.06L214.22,131.61L215.01,129.75L215.8,119.81L216.58,129.5L217.37,125.15L218.16,120.06L218.95,125.77L219.73,118.07L220.52,122.91L221.31,123.04L222.1,121.42L222.88,127.64L223.67,123.54L224.46,126.64L225.25,122.67L226.03,117.82L226.82,125.77L227.61,123.66L228.4,124.41L229.18,128.38L229.97,122.91L230.76,128.63L231.55,124.41L232.33,121.67L233.12,122.29L233.91,124.03L234.7,123.54L237.06,121.92L237.85,122.67L238.64,124.16L239.42,119.81L241,125.52L241.79,121.3L243.36,123.04L244.15,120.55L244.94,124.53L245.72,124.16L246.51,126.27L247.3,123.41L248.09,119.44L248.87,125.15L249.66,129.75L250.45,129.38L252.81,120.8L253.6,126.27L254.39,121.67L255.17,126.52L255.96,122.42L256.75,124.41L258.32,118.94L259.11,121.05L260.69,115.09L261.47,120.06L262.26,119.68L263.05,127.51L265.41,118.69L266.2,119.19L266.99,120.55L267.78,127.01L268.56,128.26L269.35,125.65L270.93,120.06L271.71,118.57L272.5,127.64L273.29,121.8L274.08,128.26L274.86,119.56L276.44,128.63L277.23,127.51L278.01,120.18L278.8,125.28L279.59,126.27L280.38,121.67L281.16,118.19L281.95,123.16L282.74,129.5L283.53,122.17L284.31,126.77L285.1,125.4L285.89,128.88L286.68,122.29L287.46,122.04L288.25,125.77L289.04,124.03L289.83,126.89L290.62,122.79L291.4,124.9L292.19,122.54L292.98,126.89L294.55,121.3L295.34,125.28L296.13,123.16L296.92,125.9L297.7,127.64L298.49,118.81L300.07,124.65L300.85,122.17L301.64,119.56L302.43,126.15L303.22,123.66L304,124.28L304.79,119.06L305.58,122.67L307.15,125.65L307.94,121.92L308.73,119.31L309.52,124.41L311.09,123.29L311.88,124.28L313.45,120.06L314.24,121.67L315.03,126.77L315.82,118.44L317.39,124.03L318.18,119.19L318.97,123.66L319.76,121.67L320.54,118.44L321.33,121.05L322.12,122.67L322.91,119.81L323.69,119.93L324.48,123.16L326.84,115.83L327.63,121.8L328.42,119.93L329.21,120.18L329.99,122.42L330.78,127.76L331.57,128.13L332.36,127.14L333.93,120.55L334.72,123.78L335.51,120.93L336.29,123.54L337.08,126.77L337.87,123.91L338.66,126.15L339.44,121.05L340.23,122.04L341.02,127.14L341.81,123.29L342.6,125.65L344.17,122.54L344.96,124.78L345.75,121.92L346.53,122.42L348.11,127.14L348.9,122.42L349.68,124.03L350.47,122.42L352.83,125.4L353.62,131.86L354.41,126.27L355.2,126.64L355.98,125.65L356.77,130.37L357.56,125.15L358.35,125.77L359.13,133.35L359.92,127.39L360.71,130L361.5,126.02L362.28,126.15L363.07,130L363.86,131.74L364.65,131.24L366.22,130.49L367.01,125.52L367.8,124.41L368.59,127.88L370.16,131.74L370.95,125.03L371.74,130.62L372.52,129.5L374.1,128.01L374.89,131.86L376.46,127.01L377.25,131.99L378.04,130.87L378.82,132.36L379.61,124.65L380.4,131.36L381.19,132.48L381.97,129.87L383.55,126.64L384.34,125.9L385.12,128.75L385.91,126.77L386.7,127.64L387.49,124.03L388.27,124.53L389.06,128.01L390.64,126.52L391.42,126.15L392.21,125.52L393,132.11L393,232.13L392.21,232.13L391.42,234.62L390.64,233L389.85,229.65L389.06,236.36L388.27,232.38L387.49,234.62L386.7,235.86L385.91,229.28L385.12,237.23L384.34,230.02L383.55,236.61L382.76,232.88L381.97,232.01L381.19,234.99L379.61,232.13L378.82,236.86L376.46,229.15L375.67,235.36L374.89,234.37L374.1,232.13L373.31,231.02L372.52,235.61L371.74,234.74L370.95,230.02L370.16,229.28L369.37,234.12L367.8,234.74L367.01,231.76L366.22,238.22L365.43,236.61L363.86,232.26L363.07,234.25L362.28,234L361.5,236.86L360.71,233.38L359.92,235.36L359.13,234.99L358.35,235.99L356.77,233.38L355.98,235.99L355.2,234.62L354.41,234.99L353.62,235.74L352.83,233.87L352.05,232.88L351.26,234.74L349.68,235.36L348.9,234.62L348.11,230.39L347.32,234.99L346.53,231.89L345.75,233.75L344.96,234.87L344.17,233.62L343.38,235.36L342.6,233.5L341.02,237.73L340.23,234.99L338.66,238.1L337.87,236.48L337.08,236.36L336.29,234.87L335.51,238.22L334.72,234.49L333.93,235.61L333.14,235.36L331.57,237.97L330.78,233.87L329.99,236.86L329.21,236.11L325.27,234.12L324.48,238.1L322.12,232.13L321.33,236.11L320.54,235.24L319.76,237.73L318.97,233.38L318.18,234.87L317.39,234.99L316.61,236.36L315.82,234.62L315.03,235.24L314.24,237.1L313.45,236.11L312.67,236.48L311.88,235.49L310.3,234L309.52,232.88L308.73,236.86L307.94,234.49L306.37,236.98L305.58,233.75L304,238.1L303.22,236.61L301.64,236.11L300.85,236.86L300.07,237.6L299.28,234.62L298.49,234.49L297.7,235.61L296.92,237.48L296.13,234.49L295.34,238.35L294.55,232.38L292.98,236.86L292.19,234.12L291.4,234L290.62,237.6L289.83,232.75L289.04,236.86L288.25,233.62L287.46,235.49L286.68,234.37L285.89,236.36L285.1,235.24L284.31,238.35L283.53,237.1L282.74,237.35L281.95,237.97L281.16,237.35L280.38,238.72L279.59,235.99L278.01,237.6L277.23,239.71L275.65,234.49L274.86,237.48L273.29,240.46L272.5,238.22L270.93,237.97L270.14,235.36L269.35,234.12L268.56,236.23L267.78,233.75L266.99,235.49L266.2,238.47L265.41,237.35L263.84,237.97L263.05,241.33L262.26,240.21L261.47,236.73L260.69,237.1L259.9,235.99L258.32,239.84L257.54,238.1L256.75,235.36L255.96,238.47L254.39,239.34L253.6,238.35L252.02,236.98L251.24,237.48L250.45,238.84L249.66,238.59L248.09,237.85L247.3,240.46L244.94,237.72L244.15,238.35L243.36,237.23L242.57,239.46L241.79,237.97L241,238.97L240.21,238.1L239.42,239.96L237.85,239.34L237.06,240.33L236.27,239.84L235.48,241.58L234.7,236.61L233.91,239.84L233.12,240.09L232.33,239.46L231.55,237.35L230.76,237.85L229.97,236.23L229.18,236.61L228.4,235.86L227.61,237.6L226.82,236.61L226.03,237.1L225.25,239.09L224.46,236.11L223.67,234.74L222.88,236.48L222.1,236.86L221.31,239.34L220.52,235.99L219.73,239.09L218.95,239.34L218.16,236.61L216.58,237.97L215.8,235.74L215.01,238.1L214.22,237.73L213.43,239.34L212.65,236.98L211.86,239.96L211.07,237.6L210.28,237.97L209.49,235.74L207.92,239.71L207.13,238.97L206.34,239.09L205.56,241.58L203.98,239.59L203.19,239.34L202.41,238.84L201.62,239.34L199.26,238.1L198.47,240.21L197.68,241.83L196.89,239.84L195.32,241.08L194.53,239.22L193.74,241.2L192.96,240.09L192.17,241.08L191.38,238.97L190.59,239.09L189.81,240.09L188.23,237.1L187.44,240.09L185.87,237.73L185.08,238.47L184.29,236.23L183.51,237.6L182.72,236.48L181.93,238.97L180.35,237.48L179.57,237.6L178.78,239.96L177.99,238.47L177.2,240.09L176.42,239.09L175.63,239.96L174.84,237.73L173.27,241.2L172.48,239.71L171.69,237.73L170.9,241.95L169.33,240.83L168.54,236.23L166.97,241.2L166.18,241.08L165.39,239.71L164.6,240.46L163.82,242.45L163.03,239.84L162.24,240.21L161.45,243.56L160.67,240.58L159.88,240.71L156.73,242.07L155.94,239.59L154.36,239.96L153.58,241.2L152.79,241.58L152,243.19L150.43,241.45L149.64,240.09L148.06,243.19L147.28,243.19L146.49,242.2L145.7,242.57L144.91,242.2L144.13,244.06L143.34,243.07L142.55,243.69L141.76,241.58L140.98,243.44L138.61,241.95L137.83,244.43L137.04,242.2L136.25,243.07L134.68,244.19L133.89,242.7L132.31,244.31L131.53,244.19L129.95,244.43L129.16,242.57L126.8,243.81L126.01,243.56L122.07,243.94L121.29,244.43L118.92,243.81L118.14,243.56L116.56,244.56L115.77,243.94L113.41,244.81L112.62,244.06L107.9,244.43L107.11,244.19L93.72,244.43L92.93,243.19L92.15,244.68L91.36,244.19L89.78,244.56L89,244.68L86.63,243.94L85.85,244.81L85.06,245.18L84.27,244.56L83.48,243.44L82.7,244.19L81.91,244.68L81.12,244.19L78.76,244.68L77.97,244.68L75.61,244.81L74.82,244.06L74.03,245.18L73.24,244.06L72.46,244.81L71.67,244.31L69.31,244.81L68.52,244.81L66.94,244.31L66.16,245.3L63.79,244.81L63.01,244.81L62.22,244.19L61.43,244.68L58.28,244.93L57.49,244.56L56.71,245.06L55.92,244.19L53.56,245.43L52.77,244.31L51.19,245.43L50.4,245.06L49.62,244.56L48.83,245.3L46.47,244.81L45.68,245.06L33.08,244.81L32.29,246.05L30.72,245.18L29.93,245.43L0,245.8Z" style="fill: rgb(0, 204, 150); fill-opacity: 0.3; stroke-width: 0;"/></g></g><g class="errorbars"/><g class="lines"><path class="js-line" d="M0,245.06L1.58,244.56L2.36,243.44L3.15,243.56L3.94,242.7L5.51,243.69L6.3,243.69L8.66,242.57L9.45,241.83L11.03,241.7L11.81,242.94L12.6,242.32L13.39,240.09L14.96,242.57L15.75,243.56L17.33,241.08L18.11,243.19L22.05,243.32L22.84,243.81L23.63,244.06L24.41,242.57L25.2,241.45L25.99,241.83L27.57,236.73L28.35,237.48L30.72,234.37L31.5,234.49L32.29,232.75L33.08,233.13L33.87,233.5L34.65,235.61L37.02,229.03L37.8,221.7L38.59,219.34L39.38,227.54L40.95,217.72L41.74,223.68L42.53,221.08L43.32,212.5L44.89,207.28L45.68,207.53L46.47,201.57L47.25,210.02L48.04,211.26L48.83,207.41L49.62,209.77L50.4,200.08L51.98,197.47L52.77,203.68L54.34,185.79L55.13,195.6L55.92,192.5L56.71,196.97L57.49,187.9L58.28,187.65L59.86,185.54L60.64,191.01L63.79,170.38L64.58,170.63L65.37,170.5L66.16,174.85L66.94,179.7L67.73,173.73L68.52,172.12L69.31,168.76L70.88,177.09L71.67,169.39L72.46,171L73.24,165.16L74.03,169.01L74.82,165.16L76.39,173.73L77.18,160.07L77.97,164.79L78.76,161.68L79.55,160.69L80.33,156.96L81.12,166.65L81.91,166.9L82.7,170.75L83.48,170.5L84.27,168.02L85.06,160.07L85.85,168.52L86.63,165.66L87.42,161.56L88.21,169.14L89,158.7L89.78,166.78L90.57,163.79L91.36,164.17L92.15,161.06L92.93,164.91L94.51,153.48L95.3,163.42L96.87,160.81L97.66,155.1L98.45,155.84L99.23,149.26L100.02,151.74L100.81,150.87L101.6,154.85L102.38,150.37L103.17,154.48L103.96,153.98L106.32,147.39L107.11,148.76L108.69,157.08L109.47,158.2L110.26,151L111.05,154.72L111.84,149.75L112.62,153.61L113.41,152.61L114.2,147.02L114.99,145.9L115.77,155.59L116.56,146.52L117.35,150.75L118.14,142.55L118.92,147.89L119.71,149.5L120.5,147.89L121.29,151L122.07,146.65L122.86,150.5L123.65,147.02L126.01,140.43L126.8,141.55L127.59,142.05L128.37,139.81L129.16,139.19L129.95,147.27L130.74,140.56L131.53,145.78L132.31,143.04L133.1,147.64L133.89,138.2L134.68,139.19L135.46,143.17L136.25,138.82L137.04,142.05L137.83,133.6L138.61,134.35L139.4,130.87L140.19,136.96L140.98,134.35L141.76,134.22L142.55,132.48L143.34,133.48L144.13,132.48L144.91,128.63L145.7,130.87L146.49,138.45L147.28,134.59L148.06,133.35L148.85,133.97L149.64,132.98L150.43,136.46L152,132.23L152.79,133.72L153.58,134.35L154.36,133.72L155.15,135.84L155.94,134.47L156.73,139.07L157.52,127.14L158.3,135.71L159.09,132.48L159.88,130.37L160.67,137.45L161.45,133.72L162.24,137.83L163.03,133.6L163.82,134.1L164.6,128.51L165.39,135.46L166.18,130.12L166.97,131.36L167.75,132.36L168.54,138.32L169.33,134.97L170.12,139.32L170.9,139.69L171.69,135.22L172.48,137.7L173.27,132.98L174.05,131.74L174.84,139.69L175.63,139.32L176.42,132.61L177.2,139.56L177.99,137.58L179.57,128.75L180.35,133.6L181.14,137.45L181.93,135.84L182.72,129.25L183.51,131.61L184.29,132.36L185.08,130.62L185.87,134.59L186.66,132.85L187.44,131.86L188.23,126.27L189.02,136.96L189.81,124.9L190.59,132.98L191.38,131.49L192.17,127.88L192.96,131.49L193.74,130.12L194.53,130.74L195.32,130.25L196.11,123.78L196.89,133.35L197.68,129.75L198.47,131.74L199.26,125.52L200.83,131.61L201.62,133.35L202.41,132.11L203.19,132.61L204.77,136.09L205.56,127.76L206.34,130.62L207.13,124.78L207.92,128.63L208.71,124.53L210.28,121.92L211.07,125.65L211.86,124.9L212.65,131.12L213.43,120.06L214.22,131.61L215.01,129.75L215.8,119.81L216.58,129.5L217.37,125.15L218.16,120.06L218.95,125.77L219.73,118.07L220.52,122.91L221.31,123.04L222.1,121.42L222.88,127.64L223.67,123.54L224.46,126.64L225.25,122.67L226.03,117.82L226.82,125.77L227.61,123.66L228.4,124.41L229.18,128.38L229.97,122.91L230.76,128.63L231.55,124.41L232.33,121.67L233.12,122.29L233.91,124.03L234.7,123.54L237.06,121.92L237.85,122.67L238.64,124.16L239.42,119.81L241,125.52L241.79,121.3L243.36,123.04L244.15,120.55L244.94,124.53L245.72,124.16L246.51,126.27L247.3,123.41L248.09,119.44L248.87,125.15L249.66,129.75L250.45,129.38L252.81,120.8L253.6,126.27L254.39,121.67L255.17,126.52L255.96,122.42L256.75,124.41L258.32,118.94L259.11,121.05L260.69,115.09L261.47,120.06L262.26,119.68L263.05,127.51L265.41,118.69L266.2,119.19L266.99,120.55L267.78,127.01L268.56,128.26L269.35,125.65L270.93,120.06L271.71,118.57L272.5,127.64L273.29,121.8L274.08,128.26L274.86,119.56L276.44,128.63L277.23,127.51L278.01,120.18L278.8,125.28L279.59,126.27L280.38,121.67L281.16,118.19L281.95,123.16L282.74,129.5L283.53,122.17L284.31,126.77L285.1,125.4L285.89,128.88L286.68,122.29L287.46,122.04L288.25,125.77L289.04,124.03L289.83,126.89L290.62,122.79L291.4,124.9L292.19,122.54L292.98,126.89L294.55,121.3L295.34,125.28L296.13,123.16L296.92,125.9L297.7,127.64L298.49,118.81L300.07,124.65L300.85,122.17L301.64,119.56L302.43,126.15L303.22,123.66L304,124.28L304.79,119.06L305.58,122.67L307.15,125.65L307.94,121.92L308.73,119.31L309.52,124.41L311.09,123.29L311.88,124.28L313.45,120.06L314.24,121.67L315.03,126.77L315.82,118.44L317.39,124.03L318.18,119.19L318.97,123.66L319.76,121.67L320.54,118.44L321.33,121.05L322.12,122.67L322.91,119.81L323.69,119.93L324.48,123.16L326.84,115.83L327.63,121.8L328.42,119.93L329.21,120.18L329.99,122.42L330.78,127.76L331.57,128.13L332.36,127.14L333.93,120.55L334.72,123.78L335.51,120.93L336.29,123.54L337.08,126.77L337.87,123.91L338.66,126.15L339.44,121.05L340.23,122.04L341.02,127.14L341.81,123.29L342.6,125.65L344.17,122.54L344.96,124.78L345.75,121.92L346.53,122.42L348.11,127.14L348.9,122.42L349.68,124.03L350.47,122.42L352.83,125.4L353.62,131.86L354.41,126.27L355.2,126.64L355.98,125.65L356.77,130.37L357.56,125.15L358.35,125.77L359.13,133.35L359.92,127.39L360.71,130L361.5,126.02L362.28,126.15L363.07,130L363.86,131.74L364.65,131.24L366.22,130.49L367.01,125.52L367.8,124.41L368.59,127.88L370.16,131.74L370.95,125.03L371.74,130.62L372.52,129.5L374.1,128.01L374.89,131.86L376.46,127.01L377.25,131.99L378.04,130.87L378.82,132.36L379.61,124.65L380.4,131.36L381.19,132.48L381.97,129.87L383.55,126.64L384.34,125.9L385.12,128.75L385.91,126.77L386.7,127.64L387.49,124.03L388.27,124.53L389.06,128.01L390.64,126.52L391.42,126.15L392.21,125.52L393,132.11L393,232.13L392.21,232.13L391.42,234.62L390.64,233L389.85,229.65L389.06,236.36L388.27,232.38L387.49,234.62L386.7,235.86L385.91,229.28L385.12,237.23L384.34,230.02L383.55,236.61L382.76,232.88L381.97,232.01L381.19,234.99L379.61,232.13L378.82,236.86L376.46,229.15L375.67,235.36L374.89,234.37L374.1,232.13L373.31,231.02L372.52,235.61L371.74,234.74L370.95,230.02L370.16,229.28L369.37,234.12L367.8,234.74L367.01,231.76L366.22,238.22L365.43,236.61L363.86,232.26L363.07,234.25L362.28,234L361.5,236.86L360.71,233.38L359.92,235.36L359.13,234.99L358.35,235.99L356.77,233.38L355.98,235.99L355.2,234.62L354.41,234.99L353.62,235.74L352.83,233.87L352.05,232.88L351.26,234.74L349.68,235.36L348.9,234.62L348.11,230.39L347.32,234.99L346.53,231.89L345.75,233.75L344.96,234.87L344.17,233.62L343.38,235.36L342.6,233.5L341.02,237.73L340.23,234.99L338.66,238.1L337.87,236.48L337.08,236.36L336.29,234.87L335.51,238.22L334.72,234.49L333.93,235.61L333.14,235.36L331.57,237.97L330.78,233.87L329.99,236.86L329.21,236.11L325.27,234.12L324.48,238.1L322.12,232.13L321.33,236.11L320.54,235.24L319.76,237.73L318.97,233.38L318.18,234.87L317.39,234.99L316.61,236.36L315.82,234.62L315.03,235.24L314.24,237.1L313.45,236.11L312.67,236.48L311.88,235.49L310.3,234L309.52,232.88L308.73,236.86L307.94,234.49L306.37,236.98L305.58,233.75L304,238.1L303.22,236.61L301.64,236.11L300.85,236.86L300.07,237.6L299.28,234.62L298.49,234.49L297.7,235.61L296.92,237.48L296.13,234.49L295.34,238.35L294.55,232.38L292.98,236.86L292.19,234.12L291.4,234L290.62,237.6L289.83,232.75L289.04,236.86L288.25,233.62L287.46,235.49L286.68,234.37L285.89,236.36L285.1,235.24L284.31,238.35L283.53,237.1L282.74,237.35L281.95,237.97L281.16,237.35L280.38,238.72L279.59,235.99L278.01,237.6L277.23,239.71L275.65,234.49L274.86,237.48L273.29,240.46L272.5,238.22L270.93,237.97L270.14,235.36L269.35,234.12L268.56,236.23L267.78,233.75L266.99,235.49L266.2,238.47L265.41,237.35L263.84,237.97L263.05,241.33L262.26,240.21L261.47,236.73L260.69,237.1L259.9,235.99L258.32,239.84L257.54,238.1L256.75,235.36L255.96,238.47L254.39,239.34L253.6,238.35L252.02,236.98L251.24,237.48L250.45,238.84L249.66,238.59L248.09,237.85L247.3,240.46L244.94,237.72L244.15,238.35L243.36,237.23L242.57,239.46L241.79,237.97L241,238.97L240.21,238.1L239.42,239.96L237.85,239.34L237.06,240.33L236.27,239.84L235.48,241.58L234.7,236.61L233.91,239.84L233.12,240.09L232.33,239.46L231.55,237.35L230.76,237.85L229.97,236.23L229.18,236.61L228.4,235.86L227.61,237.6L226.82,236.61L226.03,237.1L225.25,239.09L224.46,236.11L223.67,234.74L222.88,236.48L222.1,236.86L221.31,239.34L220.52,235.99L219.73,239.09L218.95,239.34L218.16,236.61L216.58,237.97L215.8,235.74L215.01,238.1L214.22,237.73L213.43,239.34L212.65,236.98L211.86,239.96L211.07,237.6L210.28,237.97L209.49,235.74L207.92,239.71L207.13,238.97L206.34,239.09L205.56,241.58L203.98,239.59L203.19,239.34L202.41,238.84L201.62,239.34L199.26,238.1L198.47,240.21L197.68,241.83L196.89,239.84L195.32,241.08L194.53,239.22L193.74,241.2L192.96,240.09L192.17,241.08L191.38,238.97L190.59,239.09L189.81,240.09L188.23,237.1L187.44,240.09L185.87,237.73L185.08,238.47L184.29,236.23L183.51,237.6L182.72,236.48L181.93,238.97L180.35,237.48L179.57,237.6L178.78,239.96L177.99,238.47L177.2,240.09L176.42,239.09L175.63,239.96L174.84,237.73L173.27,241.2L172.48,239.71L171.69,237.73L170.9,241.95L169.33,240.83L168.54,236.23L166.97,241.2L166.18,241.08L165.39,239.71L164.6,240.46L163.82,242.45L163.03,239.84L162.24,240.21L161.45,243.56L160.67,240.58L159.88,240.71L156.73,242.07L155.94,239.59L154.36,239.96L153.58,241.2L152.79,241.58L152,243.19L150.43,241.45L149.64,240.09L148.06,243.19L147.28,243.19L146.49,242.2L145.7,242.57L144.91,242.2L144.13,244.06L143.34,243.07L142.55,243.69L141.76,241.58L140.98,243.44L138.61,241.95L137.83,244.43L137.04,242.2L136.25,243.07L134.68,244.19L133.89,242.7L132.31,244.31L131.53,244.19L129.95,244.43L129.16,242.57L126.8,243.81L126.01,243.56L122.07,243.94L121.29,244.43L118.92,243.81L118.14,243.56L116.56,244.56L115.77,243.94L113.41,244.81L112.62,244.06L107.9,244.43L107.11,244.19L93.72,244.43L92.93,243.19L92.15,244.68L91.36,244.19L89.78,244.56L89,244.68L86.63,243.94L85.85,244.81L85.06,245.18L84.27,244.56L83.48,243.44L82.7,244.19L81.91,244.68L81.12,244.19L78.76,244.68L77.97,244.68L75.61,244.81L74.82,244.06L74.03,245.18L73.24,244.06L72.46,244.81L71.67,244.31L69.31,244.81L68.52,244.81L66.94,244.31L66.16,245.3L63.79,244.81L63.01,244.81L62.22,244.19L61.43,244.68L58.28,244.93L57.49,244.56L56.71,245.06L55.92,244.19L53.56,245.43L52.77,244.31L51.19,245.43L50.4,245.06L49.62,244.56L48.83,245.3L46.47,244.81L45.68,245.06L33.08,244.81L32.29,246.05L30.72,245.18L29.93,245.43L0,245.8" style="vector-effect: non-scaling-stroke; fill: none; stroke: rgb(0, 0, 0); stroke-opacity: 0; stroke-width: 2px; opacity: 1;"/></g><g class="points"/><g class="text"/></g></g></g><g class="overplot"/><path class="xlines-above crisp" d="M0,0" style="fill: none;"/><path class="ylines-above crisp" d="M0,0" style="fill: none;"/><g class="overlines-above"/><g class="xaxislayer-above"><g class="xtick"><text text-anchor="middle" x="0" y="272" transform="translate(114.43,0)" style="font-family: 'Latin Modern Roman'; font-size: 12px; fill: rgb(0, 0, 0); fill-opacity: 1; white-space: pre;">10M</text></g><g class="xtick"><text text-anchor="middle" x="0" y="272" transform="translate(191.64,0)" style="font-family: 'Latin Modern Roman'; font-size: 12px; fill: rgb(0, 0, 0); fill-opacity: 1; white-space: pre;">20M</text></g><g class="xtick"><text text-anchor="middle" x="0" y="272" transform="translate(268.85,0)" style="font-family: 'Latin Modern Roman'; font-size: 12px; fill: rgb(0, 0, 0); fill-opacity: 1; white-space: pre;">30M</text></g><g class="xtick"><text text-anchor="middle" x="0" y="272" transform="translate(346.07,0)" style="font-family: 'Latin Modern Roman'; font-size: 12px; fill: rgb(0, 0, 0); fill-opacity: 1; white-space: pre;">40M</text></g><g class="xtick"><text text-anchor="middle" x="0" y="272" transform="translate(423.28,0)" style="font-family: 'Latin Modern Roman'; font-size: 12px; fill: rgb(0, 0, 0); fill-opacity: 1; white-space: pre;">50M</text></g></g><g class="yaxislayer-above"><g class="ytick"><text text-anchor="end" x="37" y="4.199999999999999" transform="translate(0,247.29)" style="font-family: 'Latin Modern Roman'; font-size: 12px; fill: rgb(0, 0, 0); fill-opacity: 1; white-space: pre;">0</text></g><g class="ytick"><text text-anchor="end" x="37" y="4.199999999999999" transform="translate(0,197.59)" style="font-family: 'Latin Modern Roman'; font-size: 12px; fill: rgb(0, 0, 0); fill-opacity: 1; white-space: pre;">10</text></g><g class="ytick"><text text-anchor="end" x="37" y="4.199999999999999" transform="translate(0,147.89)" style="font-family: 'Latin Modern Roman'; font-size: 12px; fill: rgb(0, 0, 0); fill-opacity: 1; white-space: pre;">20</text></g><g class="ytick"><text text-anchor="end" x="37" y="4.199999999999999" transform="translate(0,98.19)" style="font-family: 'Latin Modern Roman'; font-size: 12px; fill: rgb(0, 0, 0); fill-opacity: 1; white-space: pre;">30</text></g><g class="ytick"><text text-anchor="end" x="37" y="4.199999999999999" transform="translate(0,48.49)" style="font-family: 'Latin Modern Roman'; font-size: 12px; fill: rgb(0, 0, 0); fill-opacity: 1; white-space: pre;">40</text></g></g><g class="overaxes-above"/></g></g><g class="polarlayer"/><g class="ternarylayer"/><g class="geolayer"/><g class="funnelarealayer"/><g class="pielayer"/><g class="treemaplayer"/><g class="sunburstlayer"/><g class="glimages"/><defs id="topdefs-74be44"><g class="clips"/><clipPath id="legend74be44"><rect width="161" height="67" x="0" y="0"/></clipPath></defs><g class="layer-above"><g class="imagelayer"/><g class="shapelayer"/></g><g class="infolayer"><g class="legend" pointer-events="all" transform="translate(438.86,0)"><rect class="bg" shape-rendering="crispEdges" style="stroke: rgb(68, 68, 68); stroke-opacity: 1; fill: rgb(255, 255, 255); fill-opacity: 1; stroke-width: 0px;" width="161" height="67" x="0" y="0"/><g class="scrollbox" transform="" clip-path="url('#legend74be44')"><g class="groups"><g class="traces" transform="translate(0,14.5)" style="opacity: 1;"><text class="legendtext" text-anchor="start" x="40" y="4.680000000000001" style="font-family: 'Latin Modern Roman'; font-size: 12px; fill: rgb(0, 0, 0); fill-opacity: 1; white-space: pre;">Bayesian agg. (n=40)</text><g class="layers" style="opacity: 1;"><g class="legendfill"/><g class="legendlines"><path class="js-line" d="M5,0h30" style="fill: none; stroke: rgb(99, 110, 250); stroke-opacity: 1; stroke-width: 2px;"/></g><g class="legendsymbols"><g class="legendpoints"/></g></g><rect class="legendtoggle" x="0" y="-9.5" width="155.671875" height="19" style="fill: rgb(0, 0, 0); fill-opacity: 0;"/></g><g class="traces" transform="translate(0,33.5)" style="opacity: 1;"><text class="legendtext" text-anchor="start" x="40" y="4.680000000000001" style="font-family: 'Latin Modern Roman'; font-size: 12px; fill: rgb(0, 0, 0); fill-opacity: 1; white-space: pre;">Mean agg. (n=21)</text><g class="layers" style="opacity: 1;"><g class="legendfill"/><g class="legendlines"><path class="js-line" d="M5,0h30" style="fill: none; stroke: rgb(239, 85, 59); stroke-opacity: 1; stroke-width: 2px;"/></g><g class="legendsymbols"><g class="legendpoints"/></g></g><rect class="legendtoggle" x="0" y="-9.5" width="155.671875" height="19" style="fill: rgb(0, 0, 0); fill-opacity: 0;"/></g><g class="traces" transform="translate(0,52.5)" style="opacity: 1;"><text class="legendtext" text-anchor="start" x="40" y="4.680000000000001" style="font-family: 'Latin Modern Roman'; font-size: 12px; fill: rgb(0, 0, 0); fill-opacity: 1; white-space: pre;">Attentive agg. (n=35)</text><g class="layers" style="opacity: 1;"><g class="legendfill"/><g class="legendlines"><path class="js-line" d="M5,0h30" style="fill: none; stroke: rgb(0, 204, 150); stroke-opacity: 1; stroke-width: 2px;"/></g><g class="legendsymbols"><g class="legendpoints"/></g></g><rect class="legendtoggle" x="0" y="-9.5" width="155.671875" height="19" style="fill: rgb(0, 0, 0); fill-opacity: 0;"/></g></g></g><rect class="scrollbar" rx="20" ry="3" width="0" height="0" style="fill: rgb(128, 139, 164); fill-opacity: 1;" x="0" y="0"/></g><g class="g-gtitle"/><g class="g-xtitle" transform="translate(0,-3.8000000000000114)"><text class="xtitle" x="234.5" y="299.8" text-anchor="middle" style="font-family: 'Latin Modern Roman'; font-size: 14px; fill: rgb(0, 0, 0); opacity: 1; font-weight: normal; white-space: pre;">Agent Steps</text></g><g class="g-ytitle" transform="translate(15.8154296875,0)"><text class="ytitle" transform="rotate(-90,0.18437500000000284,129.5)" x="0.18437500000000284" y="129.5" text-anchor="middle" style="font-family: 'Latin Modern Roman'; font-size: 14px; fill: rgb(0, 0, 0); opacity: 1; font-weight: normal; white-space: pre;">Avg. Reward</text></g></g></svg>