<svg class="main-svg" xmlns="http://www.w3.org/2000/svg" xmlns:xlink="http://www.w3.org/1999/xlink" width="600" height="300" style="" viewBox="0 0 600 300"><rect x="0" y="0" width="600" height="300" style="fill: rgb(255, 255, 255); fill-opacity: 1;"/><defs id="defs-56633c"><g class="clips"><clipPath id="clip56633cxyplot" class="plotclip"><rect width="315" height="259"/></clipPath><clipPath class="axesclip" id="clip56633cx"><rect x="50" y="0" width="315" height="300"/></clipPath><clipPath class="axesclip" id="clip56633cy"><rect x="0" y="0" width="600" height="259"/></clipPath><clipPath class="axesclip" id="clip56633cxy"><rect x="50" y="0" width="315" height="259"/></clipPath></g><g class="gradients"/></defs><g class="bglayer"><rect class="bg" x="50" y="0" width="315" height="259" style="fill: rgb(229, 236, 246); fill-opacity: 1; stroke-width: 0;"/></g><g class="layer-below"><g class="imagelayer"/><g class="shapelayer"/></g><g class="cartesianlayer"><g class="subplot xy"><g class="layer-subplot"><g class="shapelayer"/><g class="imagelayer"/></g><g class="gridlayer"><g class="x"><path class="xgrid crisp" transform="translate(172.07999999999998,0)" d="M0,0v259" style="stroke: rgb(255, 255, 255); stroke-opacity: 1; stroke-width: 1px;"/><path class="xgrid crisp" transform="translate(295.75,0)" d="M0,0v259" style="stroke: rgb(255, 255, 255); stroke-opacity: 1; stroke-width: 1px;"/></g><g class="y"><path class="ygrid crisp" transform="translate(0,232.46)" d="M50,0h315" style="stroke: rgb(255, 255, 255); stroke-opacity: 1; stroke-width: 1px;"/><path class="ygrid crisp" transform="translate(0,147.07)" d="M50,0h315" style="stroke: rgb(255, 255, 255); stroke-opacity: 1; stroke-width: 1px;"/><path class="ygrid crisp" transform="translate(0,104.38)" d="M50,0h315" style="stroke: rgb(255, 255, 255); stroke-opacity: 1; stroke-width: 1px;"/><path class="ygrid crisp" transform="translate(0,61.69)" d="M50,0h315" style="stroke: rgb(255, 255, 255); stroke-opacity: 1; stroke-width: 1px;"/><path class="ygrid crisp" transform="translate(0,19)" d="M50,0h315" style="stroke: rgb(255, 255, 255); stroke-opacity: 1; stroke-width: 1px;"/></g></g><g class="zerolinelayer"><path class="yzl zl crisp" transform="translate(0,189.77)" d="M50,0h315" style="stroke: rgb(255, 255, 255); stroke-opacity: 1; stroke-width: 2px;"/></g><path class="xlines-below"/><path class="ylines-below"/><g class="overlines-below"/><g class="xaxislayer-below"/><g class="yaxislayer-below"/><g class="overaxes-below"/><g class="plot" transform="translate(50,0)" clip-path="url('#clip56633cxyplot')"><g class="scatterlayer mlayer"><g class="trace scatter trace023898" style="stroke-miterlimit: 2; opacity: 1;"><g class="fills"/><g class="errorbars"/><g class="lines"><path class="js-line" d="M0,196.41L1.58,209.01L3.17,192.42L4.75,193.71L6.33,206.15L7.91,203.56L9.5,204.84L11.08,196.37L12.66,210.37L15.83,208.01L17.41,211.81L18.99,217.72L20.58,201.82L22.16,214.82L23.74,208.56L25.33,211.14L26.91,203.94L30.08,218.21L31.66,217.44L33.24,194.57L34.82,207.07L36.41,214.62L37.99,196.44L39.57,193.75L41.16,201.25L42.74,182.24L44.32,202.26L45.9,186.69L47.49,183.8L49.07,182.26L50.65,172.72L52.24,167.51L53.82,178L55.4,172.47L56.98,151.99L60.15,177.84L61.73,155.47L63.32,147.85L64.9,144.32L66.48,142.91L68.07,133.17L69.65,134.04L71.23,138.58L72.81,137.69L74.4,129.7L75.98,133.06L77.56,145.27L80.73,117.37L82.31,130.04L83.89,113.62L85.48,128.09L87.06,99.1L88.64,98.52L90.23,115.15L91.81,99.37L93.39,79.61L94.97,89.02L96.56,105.86L98.14,81.31L99.72,100.26L101.31,84.11L102.89,91.24L104.47,56L106.06,80.2L107.64,90.99L109.22,82.31L110.8,94.22L112.39,101.47L113.97,81.62L115.55,94.65L117.14,86.64L118.72,75.84L120.3,93.13L121.88,101.41L123.47,75.38L125.05,78.98L126.63,69.14L128.22,81.11L129.8,112.97L131.38,78.19L132.96,90.8L134.55,66.5L136.13,69.71L137.71,109.88L139.3,81.35L140.88,73.43L142.46,87.65L144.05,79.22L145.63,60.6L147.21,87.87L148.79,102.11L150.38,93.66L151.96,80.51L153.54,96.81L155.13,82.5L156.71,70.36L158.29,76.52L159.87,75.09L161.46,63.18L163.04,102.29L164.62,78.68L167.79,53.31L169.37,103.9L170.95,54.99L172.54,106.41L174.12,88.58L175.7,99.08L178.87,52.42L180.45,77.64L182.04,63.79L183.62,80.98L185.2,72.51L186.78,91.06L189.95,57.34L191.53,91.38L193.12,90.27L194.7,100.16L196.28,58.17L197.86,58.7L201.03,80.56L202.61,72.13L204.2,59.01L205.78,70.1L208.94,77.67L210.53,61.32L212.11,49.36L213.69,77.95L216.86,51.75L218.44,77L221.61,71.96L223.19,98.73L224.77,81.43L226.36,93.57L227.94,70.05L229.52,79.39L231.11,89.23L232.69,68.34L234.27,70.98L235.85,67.9L237.44,72.59L239.02,67.37L240.6,83.1L242.19,87.78L243.77,69L245.35,63.45L246.93,75.8L248.52,67.65L250.1,65.21L251.68,57.35L253.27,42.08L254.85,88.97L256.43,93.56L258.02,63.38L259.6,42.44L261.18,39.26L264.35,95.74L265.93,63.05L267.51,86.26L269.1,81.61L270.68,77.39L272.26,56.21L273.84,75.07L275.43,67.73L278.59,76.39L280.18,60.33L281.76,55.18L283.34,75.71L284.92,67.31L286.51,49.45L288.09,85.53L289.67,50.65L291.26,72.29L292.84,68.24L294.42,81.93L296.01,88.53L297.59,70.6L299.17,80.65L300.75,82.73L302.34,73.75L303.92,66.82L305.5,110.17L307.09,57.85L308.67,59.28L310.25,96.95L311.83,78.35L313.42,73.1L315,79.81" style="vector-effect: non-scaling-stroke; fill: none; stroke: rgb(99, 110, 250); stroke-opacity: 1; stroke-width: 2px; opacity: 1;"/></g><g class="points"/><g class="text"/></g><g class="trace scatter tracee98b4d" style="stroke-miterlimit: 2; opacity: 1;"><g class="fills"><g><path class="js-fill" d="M0,193.26L1.58,195.06L3.17,188.89L4.75,191.53L6.33,202.7L9.5,195.47L11.08,192.8L12.66,199.13L14.25,201.66L15.83,197.61L17.41,206.53L18.99,196.26L20.58,167.07L22.16,201.36L23.74,203.83L25.33,189.33L26.91,183.63L28.49,201.25L30.08,204.49L31.66,201.53L33.24,184.81L34.82,187.44L36.41,204.14L39.57,169.84L41.16,187.27L42.74,178.42L44.32,182.82L45.9,170.85L47.49,165.33L49.07,173.49L50.65,156.51L52.24,136.93L53.82,149.33L55.4,151.89L56.98,133.98L58.57,144.22L60.15,164.53L61.73,138.06L63.32,129.02L64.9,131.28L66.48,130.84L68.07,113.62L69.65,128.14L71.23,110.06L72.81,124.51L74.4,116.84L75.98,113.16L77.56,123.67L79.15,110.39L80.73,99.12L82.31,127.79L83.89,80.28L85.48,102.86L87.06,61.36L88.64,62.45L90.23,104.78L91.81,90.06L93.39,53.7L94.97,73.35L96.56,89.31L98.14,66.14L99.72,91.6L101.31,62.91L102.89,65.67L104.47,46.12L106.06,70.6L107.64,74.04L109.22,67.05L110.8,82.05L112.39,91.23L113.97,79.2L115.55,56.75L117.14,71.62L118.72,68.45L120.3,71.4L121.88,94.23L123.47,58.76L125.05,74.96L126.63,54.65L128.22,63.69L129.8,94.04L131.38,63.06L132.96,80.58L134.55,61.28L136.13,68.52L137.71,95.61L139.3,73.47L140.88,52.33L142.46,86.21L144.05,60.09L145.63,56.82L147.21,74.95L148.79,82L150.38,51.96L151.96,70.63L153.54,84.67L155.13,61.04L156.71,58.22L158.29,68.75L159.87,64.98L161.46,48.78L163.04,73.01L164.62,61.78L166.21,63.36L167.79,32.11L169.37,80.12L170.95,34.71L172.54,85.33L174.12,70.13L175.7,82.56L177.29,70.37L178.87,47.8L180.45,56.95L182.04,50.17L183.62,57.86L185.2,67.31L186.78,40.23L188.37,64.12L189.95,36.65L191.53,68.07L193.12,68.02L194.7,77.87L196.28,52.42L197.86,52.11L199.45,60.43L201.03,53.14L202.61,62.29L204.2,44.78L205.78,41.53L207.36,70.06L208.94,51.36L210.53,38.53L212.11,45.14L213.69,52.69L215.28,52.67L216.86,40.29L218.44,61.05L220.03,62.29L221.61,54.04L223.19,83.55L224.77,55.76L226.36,54.91L227.94,57.79L229.52,57.59L231.11,65.51L232.69,52.44L234.27,56.16L235.85,54.15L237.44,55.57L239.02,48.86L240.6,67.6L242.19,80.31L243.77,57.76L245.35,47.97L246.93,65.21L248.52,63.17L250.1,47.31L251.68,47.89L253.27,22L256.43,82.66L258.02,46.37L261.18,12.95L262.76,58.02L264.35,86.82L265.93,45.35L267.51,65.16L269.1,65.4L270.68,59.82L272.26,51L273.84,50.89L275.43,47.85L277.01,61.47L278.59,55.51L280.18,44.06L281.76,40.64L283.34,57.71L284.92,52.66L286.51,42.25L288.09,66.71L289.67,32.12L291.26,56.41L292.84,54.17L294.42,60.93L296.01,74.01L297.59,39.59L299.17,55.71L300.75,79.83L303.92,49.88L305.5,31.94L308.67,48.22L310.25,66.99L311.83,52.93L313.42,56.74L315,67L315,92.85L313.42,82.81L311.83,95.93L310.25,104.35L308.67,104.99L307.09,68.59L305.5,118.43L303.92,76.98L302.34,80.48L299.17,103.94L297.59,78.54L296.01,107.79L294.42,116.32L292.84,73.91L291.26,110.64L289.67,90L288.09,99.02L286.51,65.24L284.92,90.95L283.34,98.82L281.76,83.5L280.18,66.07L278.59,88.59L277.01,98L275.43,80.17L273.84,94.29L272.26,82.87L270.68,96.09L269.1,99.37L267.51,95.81L265.93,78.44L264.35,107.85L262.76,78.73L261.18,77.54L259.6,54.67L258.02,94.5L256.43,102.54L254.85,107.29L253.27,72.6L251.68,88.33L250.1,83.26L248.52,92.87L246.93,82.05L245.35,110.88L243.77,85.85L240.6,107.89L239.02,77.24L237.44,92.79L235.85,84.91L234.27,86.72L232.69,72.27L231.11,111.04L229.52,99.76L227.94,82.72L226.36,104.7L224.77,97.47L223.19,113.06L221.61,132.92L220.03,91.55L218.44,94.85L216.86,68.29L215.28,89.52L213.69,97.05L212.11,72.58L210.53,73.75L208.94,125.15L207.36,80.84L205.78,82.49L204.2,96.37L202.61,96.49L201.03,122.07L199.45,82.01L197.86,73.01L196.28,68.65L194.7,106.28L193.12,120.45L191.53,106.66L189.95,80.8L188.37,86.69L186.78,97.94L185.2,90.67L183.62,91.9L182.04,81.49L180.45,81.76L178.87,67.18L177.29,98.24L175.7,109.02L174.12,101.1L172.54,115.35L170.95,96.46L169.37,110.1L167.79,81.17L166.21,86.86L163.04,117.46L161.46,94.6L159.87,101.71L158.29,86.89L155.13,101.48L153.54,116.22L151.96,86.63L150.38,102.43L148.79,113.2L147.21,92.98L145.63,70.5L144.05,102.99L142.46,90.48L140.88,84.69L139.3,83.78L137.71,130.57L136.13,85.21L134.55,101.12L132.96,108.28L131.38,101.92L129.8,150.55L128.22,97.09L126.63,74.05L125.05,105.42L123.47,94.93L121.88,105.06L120.3,102.31L118.72,103.07L117.14,103.51L115.55,107.99L113.97,99.4L112.39,114.01L110.8,112.99L109.22,94.19L107.64,94.15L106.06,87.1L104.47,99.86L102.89,120.68L101.31,103.87L99.72,112.07L98.14,100.98L96.56,126.78L93.39,108.48L91.81,135.34L90.23,132.42L88.64,133.82L87.06,105.69L85.48,135.19L83.89,139.2L82.31,155.61L80.73,132.2L79.15,147.34L77.56,153.45L75.98,156.21L74.4,161.67L72.81,159.21L71.23,151.18L69.65,173.97L68.07,156.51L66.48,152.85L64.9,193.92L63.32,153.72L61.73,157.01L60.15,183.64L56.98,175.31L55.4,198.59L53.82,190.5L52.24,205.18L50.65,183.8L49.07,202.82L47.49,189.68L45.9,197.44L44.32,211.06L42.74,204.73L39.57,219.76L37.99,204.22L36.41,225.31L34.82,214.88L33.24,205.15L31.66,246.05L30.08,245.72L28.49,229.68L26.91,234.96L25.33,224.86L23.74,221.03L22.16,241.97L20.58,224.66L18.99,223.56L17.41,219.89L15.83,220.05L14.25,216.47L12.66,221.82L11.08,207.43L9.5,213.88L7.91,208.7L6.33,207.6L4.75,198.8L3.17,195.15L1.58,212.79L0,199.71Z" style="fill: rgb(99, 110, 250); fill-opacity: 0.3; stroke-width: 0;"/></g></g><g class="errorbars"/><g class="lines"><path class="js-line" d="M0,193.26L1.58,195.06L3.17,188.89L4.75,191.53L6.33,202.7L9.5,195.47L11.08,192.8L12.66,199.13L14.25,201.66L15.83,197.61L17.41,206.53L18.99,196.26L20.58,167.07L22.16,201.36L23.74,203.83L25.33,189.33L26.91,183.63L28.49,201.25L30.08,204.49L31.66,201.53L33.24,184.81L34.82,187.44L36.41,204.14L39.57,169.84L41.16,187.27L42.74,178.42L44.32,182.82L45.9,170.85L47.49,165.33L49.07,173.49L50.65,156.51L52.24,136.93L53.82,149.33L55.4,151.89L56.98,133.98L58.57,144.22L60.15,164.53L61.73,138.06L63.32,129.02L64.9,131.28L66.48,130.84L68.07,113.62L69.65,128.14L71.23,110.06L72.81,124.51L74.4,116.84L75.98,113.16L77.56,123.67L79.15,110.39L80.73,99.12L82.31,127.79L83.89,80.28L85.48,102.86L87.06,61.36L88.64,62.45L90.23,104.78L91.81,90.06L93.39,53.7L94.97,73.35L96.56,89.31L98.14,66.14L99.72,91.6L101.31,62.91L102.89,65.67L104.47,46.12L106.06,70.6L107.64,74.04L109.22,67.05L110.8,82.05L112.39,91.23L113.97,79.2L115.55,56.75L117.14,71.62L118.72,68.45L120.3,71.4L121.88,94.23L123.47,58.76L125.05,74.96L126.63,54.65L128.22,63.69L129.8,94.04L131.38,63.06L132.96,80.58L134.55,61.28L136.13,68.52L137.71,95.61L139.3,73.47L140.88,52.33L142.46,86.21L144.05,60.09L145.63,56.82L147.21,74.95L148.79,82L150.38,51.96L151.96,70.63L153.54,84.67L155.13,61.04L156.71,58.22L158.29,68.75L159.87,64.98L161.46,48.78L163.04,73.01L164.62,61.78L166.21,63.36L167.79,32.11L169.37,80.12L170.95,34.71L172.54,85.33L174.12,70.13L175.7,82.56L177.29,70.37L178.87,47.8L180.45,56.95L182.04,50.17L183.62,57.86L185.2,67.31L186.78,40.23L188.37,64.12L189.95,36.65L191.53,68.07L193.12,68.02L194.7,77.87L196.28,52.42L197.86,52.11L199.45,60.43L201.03,53.14L202.61,62.29L204.2,44.78L205.78,41.53L207.36,70.06L208.94,51.36L210.53,38.53L212.11,45.14L213.69,52.69L215.28,52.67L216.86,40.29L218.44,61.05L220.03,62.29L221.61,54.04L223.19,83.55L224.77,55.76L226.36,54.91L227.94,57.79L229.52,57.59L231.11,65.51L232.69,52.44L234.27,56.16L235.85,54.15L237.44,55.57L239.02,48.86L240.6,67.6L242.19,80.31L243.77,57.76L245.35,47.97L246.93,65.21L248.52,63.17L250.1,47.31L251.68,47.89L253.27,22L256.43,82.66L258.02,46.37L261.18,12.95L262.76,58.02L264.35,86.82L265.93,45.35L267.51,65.16L269.1,65.4L270.68,59.82L272.26,51L273.84,50.89L275.43,47.85L277.01,61.47L278.59,55.51L280.18,44.06L281.76,40.64L283.34,57.71L284.92,52.66L286.51,42.25L288.09,66.71L289.67,32.12L291.26,56.41L292.84,54.17L294.42,60.93L296.01,74.01L297.59,39.59L299.17,55.71L300.75,79.83L303.92,49.88L305.5,31.94L308.67,48.22L310.25,66.99L311.83,52.93L313.42,56.74L315,67L315,92.85L313.42,82.81L311.83,95.93L310.25,104.35L308.67,104.99L307.09,68.59L305.5,118.43L303.92,76.98L302.34,80.48L299.17,103.94L297.59,78.54L296.01,107.79L294.42,116.32L292.84,73.91L291.26,110.64L289.67,90L288.09,99.02L286.51,65.24L284.92,90.95L283.34,98.82L281.76,83.5L280.18,66.07L278.59,88.59L277.01,98L275.43,80.17L273.84,94.29L272.26,82.87L270.68,96.09L269.1,99.37L267.51,95.81L265.93,78.44L264.35,107.85L262.76,78.73L261.18,77.54L259.6,54.67L258.02,94.5L256.43,102.54L254.85,107.29L253.27,72.6L251.68,88.33L250.1,83.26L248.52,92.87L246.93,82.05L245.35,110.88L243.77,85.85L240.6,107.89L239.02,77.24L237.44,92.79L235.85,84.91L234.27,86.72L232.69,72.27L231.11,111.04L229.52,99.76L227.94,82.72L226.36,104.7L224.77,97.47L223.19,113.06L221.61,132.92L220.03,91.55L218.44,94.85L216.86,68.29L215.28,89.52L213.69,97.05L212.11,72.58L210.53,73.75L208.94,125.15L207.36,80.84L205.78,82.49L204.2,96.37L202.61,96.49L201.03,122.07L199.45,82.01L197.86,73.01L196.28,68.65L194.7,106.28L193.12,120.45L191.53,106.66L189.95,80.8L188.37,86.69L186.78,97.94L185.2,90.67L183.62,91.9L182.04,81.49L180.45,81.76L178.87,67.18L177.29,98.24L175.7,109.02L174.12,101.1L172.54,115.35L170.95,96.46L169.37,110.1L167.79,81.17L166.21,86.86L163.04,117.46L161.46,94.6L159.87,101.71L158.29,86.89L155.13,101.48L153.54,116.22L151.96,86.63L150.38,102.43L148.79,113.2L147.21,92.98L145.63,70.5L144.05,102.99L142.46,90.48L140.88,84.69L139.3,83.78L137.71,130.57L136.13,85.21L134.55,101.12L132.96,108.28L131.38,101.92L129.8,150.55L128.22,97.09L126.63,74.05L125.05,105.42L123.47,94.93L121.88,105.06L120.3,102.31L118.72,103.07L117.14,103.51L115.55,107.99L113.97,99.4L112.39,114.01L110.8,112.99L109.22,94.19L107.64,94.15L106.06,87.1L104.47,99.86L102.89,120.68L101.31,103.87L99.72,112.07L98.14,100.98L96.56,126.78L93.39,108.48L91.81,135.34L90.23,132.42L88.64,133.82L87.06,105.69L85.48,135.19L83.89,139.2L82.31,155.61L80.73,132.2L79.15,147.34L77.56,153.45L75.98,156.21L74.4,161.67L72.81,159.21L71.23,151.18L69.65,173.97L68.07,156.51L66.48,152.85L64.9,193.92L63.32,153.72L61.73,157.01L60.15,183.64L56.98,175.31L55.4,198.59L53.82,190.5L52.24,205.18L50.65,183.8L49.07,202.82L47.49,189.68L45.9,197.44L44.32,211.06L42.74,204.73L39.57,219.76L37.99,204.22L36.41,225.31L34.82,214.88L33.24,205.15L31.66,246.05L30.08,245.72L28.49,229.68L26.91,234.96L25.33,224.86L23.74,221.03L22.16,241.97L20.58,224.66L18.99,223.56L17.41,219.89L15.83,220.05L14.25,216.47L12.66,221.82L11.08,207.43L9.5,213.88L7.91,208.7L6.33,207.6L4.75,198.8L3.17,195.15L1.58,212.79L0,199.71" style="vector-effect: non-scaling-stroke; fill: none; stroke: rgb(0, 0, 0); stroke-opacity: 0; stroke-width: 2px; opacity: 1;"/></g><g class="points"/><g class="text"/></g><g class="trace scatter tracea4068a" style="stroke-miterlimit: 2; opacity: 1;"><g class="fills"/><g class="errorbars"/><g class="lines"><path class="js-line" d="M0,201.22L3.17,199.43L4.75,200.25L6.33,200.11L7.91,203.1L11.08,199.88L12.66,202.08L15.83,199.19L17.41,200.63L18.99,198.6L20.58,199.69L22.16,200.12L23.74,197.39L25.33,193.78L26.91,193.16L28.49,193.06L30.08,190.51L33.24,187.71L34.82,187.77L36.41,186.39L37.99,181.6L39.57,180.61L41.16,181.5L45.9,163.6L47.49,165.99L52.24,151.91L53.82,144.49L55.4,147.97L56.98,135.62L58.57,120.54L60.15,126.28L61.73,117.56L63.32,123.51L64.9,107.84L66.48,107L68.07,110.46L69.65,101.02L71.23,98.73L72.81,93.78L74.4,91.65L75.98,93.23L79.15,84.76L80.73,87.49L83.89,82.46L85.48,81.35L87.06,86.63L88.64,84.09L90.23,85.46L91.81,82.09L93.39,88.06L94.97,81.85L96.56,79.31L98.14,85.21L99.72,81.58L101.31,80.58L102.89,80.43L104.47,76.2L106.06,77.73L107.64,80.31L109.22,78.1L110.8,82.18L112.39,82.58L113.97,79.24L118.72,82.99L120.3,74.58L121.88,76.21L123.47,79.01L125.05,78.78L126.63,79.87L128.22,80.91L129.8,78.95L131.38,82.29L132.96,80.45L134.55,78.63L136.13,80.16L139.3,75.36L140.88,78.06L142.46,76.81L144.05,81.3L145.63,79.73L147.21,76.47L148.79,81.4L150.38,77.89L151.96,79.68L153.54,78.83L155.13,79.06L156.71,74.7L158.29,78.57L159.87,77.65L161.46,73.5L163.04,78.81L164.62,77.6L166.21,78.91L167.79,75.38L169.37,75.35L170.95,79.93L172.54,74.7L174.12,76.7L175.7,74.23L177.29,76.06L178.87,79.56L180.45,74.72L182.04,75.32L183.62,75.74L185.2,72.4L186.78,72.4L188.37,73.55L189.95,73.17L191.53,75.24L194.7,74.11L196.28,73.43L199.45,72.81L201.03,74.52L202.61,72.93L204.2,73.31L205.78,71.73L207.36,73.92L208.94,72.41L210.53,75.41L212.11,72.79L213.69,73.76L216.86,72.32L218.44,78.37L220.03,72.43L221.61,74.69L223.19,71.17L224.77,75.5L227.94,74.43L229.52,74.59L231.11,75.06L232.69,71.87L234.27,73.38L235.85,69.9L240.6,72.52L242.19,74.42L243.77,74.32L245.35,71.59L246.93,70.68L248.52,74.22L250.1,76.78L251.68,72.11L253.27,73.32L254.85,71.12L256.43,74.1L258.02,71.28L259.6,70.16L261.18,70.97L262.76,70.93L264.35,69.29L267.51,74.97L269.1,71.15L272.26,76.02L273.84,70.82L275.43,73.89L277.01,68.06L278.59,70.62L280.18,70.37L281.76,70.66L283.34,67.92L284.92,70.79L286.51,68.57L289.67,72.43L291.26,72.34L292.84,72.42L294.42,68.12L296.01,73.68L297.59,70.96L299.17,69.63L300.75,69.73L302.34,72.14L303.92,63.88L305.5,69.92L307.09,72.96L308.67,71.76L310.25,66.59L311.83,72.07L313.42,70.04L315,69.19" style="vector-effect: non-scaling-stroke; fill: none; stroke: rgb(239, 85, 59); stroke-opacity: 1; stroke-width: 2px; opacity: 1;"/></g><g class="points"/><g class="text"/></g><g class="trace scatter tracef634ef" style="stroke-miterlimit: 2; opacity: 1;"><g class="fills"><g><path class="js-fill" d="M0,197.42L1.58,197.85L3.17,197.47L4.75,197.99L6.33,197.28L7.91,198.02L9.5,195.64L12.66,198.42L14.25,197.16L15.83,194.31L17.41,195.76L18.99,192.88L20.58,193.34L22.16,192.08L23.74,192.82L26.91,188.52L28.49,189.95L30.08,188.38L31.66,181.78L33.24,182.45L34.82,179.68L36.41,177.61L37.99,171.29L41.16,160.27L42.74,163.27L44.32,155.58L45.9,153.01L47.49,149.15L49.07,137.61L50.65,140L52.24,123.61L53.82,120.23L55.4,121.19L56.98,116.47L58.57,108.56L60.15,104.49L61.73,106.97L63.32,91.45L64.9,95.29L66.48,92L68.07,91.58L71.23,78.64L72.81,81.83L74.4,79.06L75.98,81.7L77.56,78.24L79.15,79.68L80.73,74.84L82.31,74.48L88.64,72.82L90.23,74.11L93.39,75.58L94.97,73.56L96.56,68.81L98.14,76.31L99.72,71.55L101.31,71.64L102.89,73.08L104.47,68.91L106.06,72.17L107.64,72.05L109.22,73.88L110.8,73.52L112.39,73.95L113.97,71.55L117.14,74.25L118.72,71.45L120.3,67.98L121.88,72.44L123.47,70.55L125.05,70.75L126.63,72.72L128.22,69.19L131.38,71.58L132.96,70.52L134.55,66.77L136.13,74.03L137.71,72.47L139.3,65.27L140.88,66.29L142.46,68.32L144.05,75.04L145.63,68.97L147.21,67.62L148.79,73.8L150.38,66.22L151.96,72.87L153.54,73.38L155.13,68.63L156.71,67.33L158.29,69.95L161.46,67.97L163.04,69.78L164.62,70.42L166.21,70.07L167.79,68.41L169.37,70.83L170.95,73.91L172.54,68.28L174.12,64.21L175.7,70.96L180.45,66.75L182.04,71.36L185.2,66.45L186.78,66.21L189.95,65.88L191.53,69.08L193.12,68.11L194.7,68.1L196.28,64.45L197.86,65.46L199.45,63.91L201.03,68.35L202.61,64.91L204.2,65.88L205.78,66.19L207.36,68.36L208.94,65.07L210.53,70.1L212.11,66.45L213.69,68.27L215.28,62.87L216.86,65.53L218.44,70.25L220.03,64.01L221.61,68.32L223.19,64.62L224.77,63.7L226.36,69.56L227.94,63.8L229.52,68.36L231.11,63.24L232.69,64.78L234.27,64.09L235.85,61.79L237.44,65.14L239.02,63.51L242.19,64.06L243.77,68.55L246.93,60L248.52,63.63L250.1,65.8L251.68,65.48L253.27,68.43L254.85,65.4L256.43,67.88L258.02,63.57L259.6,65.1L261.18,61.78L262.76,63.51L264.35,64.12L267.51,65.89L269.1,64.72L270.68,64.66L272.26,67.53L273.84,65.65L275.43,68.65L277.01,61.96L278.59,64.98L281.76,59.39L283.34,62.18L284.92,64.12L286.51,57.58L288.09,64.39L289.67,63.35L291.26,61.18L292.84,61.8L294.42,60.2L296.01,65.65L297.59,67.07L299.17,63.61L300.75,62.11L302.34,65.53L303.92,60.47L305.5,59.92L307.09,65.44L308.67,66.48L310.25,62.8L311.83,64.46L313.42,63.52L315,60.77L315,75.52L313.42,81.35L311.83,81.27L310.25,75.84L308.67,81.75L307.09,80.35L305.5,79.21L303.92,76.07L302.34,81.74L300.75,81.3L299.17,78.2L297.59,79.33L296.01,81.46L294.42,81.32L292.84,81.23L291.26,80.28L289.67,86.08L288.09,80.84L286.51,84.2L284.92,77.2L283.34,82.38L281.76,83.03L280.18,76.42L278.59,78.95L277.01,81.86L275.43,81.14L273.84,79.77L272.26,83.93L270.68,80.62L269.1,84.39L267.51,80.32L265.93,80.98L264.35,80.26L262.76,83.23L261.18,76.98L259.6,79.01L258.02,79.8L256.43,84.11L254.85,84.6L253.27,83.57L251.68,83.8L250.1,84.93L248.52,86.08L246.93,80.06L245.35,80.08L243.77,81.95L242.19,82.9L240.6,79.69L239.02,78.89L237.44,82.5L235.85,80.83L234.27,86.49L232.69,82.6L231.11,88.24L229.52,87.29L227.94,87.92L226.36,82.02L224.77,84.79L223.19,82.72L221.61,86.88L220.03,77.72L218.44,87.4L216.86,80.4L215.28,88.44L212.11,78.86L210.53,84.52L208.94,90.56L207.36,85.14L205.78,86.15L204.2,85.65L202.61,86.21L201.03,84.17L199.45,84.48L197.86,91.63L196.28,83.72L194.7,86.72L193.12,88.1L191.53,82.19L189.95,85.17L188.37,89.82L186.78,84.97L185.2,85.15L183.62,88.22L182.04,86.28L180.45,88.57L178.87,87.5L177.29,89.88L175.7,83.07L174.12,89.9L172.54,84.61L170.95,86.3L169.37,85.83L167.79,89.35L166.21,88.06L164.62,85.9L163.04,92.46L159.87,86.48L158.29,86.54L156.71,95.31L155.13,92.57L153.54,86.27L151.96,84.01L148.79,94.65L147.21,86.08L145.63,86.85L144.05,93.06L142.46,91.79L140.88,95.23L139.3,89.4L137.71,87.8L136.13,91.94L134.55,92.87L132.96,94.4L131.38,92.75L129.8,90.68L128.22,98.54L126.63,93.57L125.05,93.34L123.47,90.8L121.88,96.89L120.3,91.37L118.72,101.68L117.14,89.68L115.55,91.98L113.97,91.31L112.39,94.42L110.8,101.43L109.22,97.42L107.64,97.69L106.06,86.55L104.47,92.66L102.89,87.31L101.31,95.06L99.72,98.24L98.14,98.01L96.56,93.54L94.97,93.41L93.39,96.55L91.81,97.21L90.23,106.8L87.06,93.46L85.48,97.52L83.89,110.76L82.31,96.37L80.73,103.74L79.15,114.99L75.98,118.52L74.4,122.08L72.81,121.19L71.23,132.82L69.65,141.38L68.07,138.34L66.48,140.07L64.9,143.71L63.32,155.89L61.73,155.96L60.15,157.78L58.57,160.9L55.4,168.41L53.82,166.87L52.24,176.47L50.65,174.63L49.07,182.23L47.49,179.61L45.9,182.07L44.32,181.7L41.16,188.14L39.57,189.24L37.99,189.81L36.41,191.32L34.82,191.05L33.24,192.01L30.08,194.74L28.49,200.71L26.91,199.69L25.33,200.24L23.74,206.33L22.16,205.03L20.58,206.96L18.99,206.72L17.41,207.47L15.83,205.84L14.25,206.89L12.66,207.02L11.08,204.03L9.5,209.16L7.91,207.73L6.33,204.56L4.75,204.46L3.17,202.84L0,203.48Z" style="fill: rgb(239, 85, 59); fill-opacity: 0.3; stroke-width: 0;"/></g></g><g class="errorbars"/><g class="lines"><path class="js-line" d="M0,197.42L1.58,197.85L3.17,197.47L4.75,197.99L6.33,197.28L7.91,198.02L9.5,195.64L12.66,198.42L14.25,197.16L15.83,194.31L17.41,195.76L18.99,192.88L20.58,193.34L22.16,192.08L23.74,192.82L26.91,188.52L28.49,189.95L30.08,188.38L31.66,181.78L33.24,182.45L34.82,179.68L36.41,177.61L37.99,171.29L41.16,160.27L42.74,163.27L44.32,155.58L45.9,153.01L47.49,149.15L49.07,137.61L50.65,140L52.24,123.61L53.82,120.23L55.4,121.19L56.98,116.47L58.57,108.56L60.15,104.49L61.73,106.97L63.32,91.45L64.9,95.29L66.48,92L68.07,91.58L71.23,78.64L72.81,81.83L74.4,79.06L75.98,81.7L77.56,78.24L79.15,79.68L80.73,74.84L82.31,74.48L88.64,72.82L90.23,74.11L93.39,75.58L94.97,73.56L96.56,68.81L98.14,76.31L99.72,71.55L101.31,71.64L102.89,73.08L104.47,68.91L106.06,72.17L107.64,72.05L109.22,73.88L110.8,73.52L112.39,73.95L113.97,71.55L117.14,74.25L118.72,71.45L120.3,67.98L121.88,72.44L123.47,70.55L125.05,70.75L126.63,72.72L128.22,69.19L131.38,71.58L132.96,70.52L134.55,66.77L136.13,74.03L137.71,72.47L139.3,65.27L140.88,66.29L142.46,68.32L144.05,75.04L145.63,68.97L147.21,67.62L148.79,73.8L150.38,66.22L151.96,72.87L153.54,73.38L155.13,68.63L156.71,67.33L158.29,69.95L161.46,67.97L163.04,69.78L164.62,70.42L166.21,70.07L167.79,68.41L169.37,70.83L170.95,73.91L172.54,68.28L174.12,64.21L175.7,70.96L180.45,66.75L182.04,71.36L185.2,66.45L186.78,66.21L189.95,65.88L191.53,69.08L193.12,68.11L194.7,68.1L196.28,64.45L197.86,65.46L199.45,63.91L201.03,68.35L202.61,64.91L204.2,65.88L205.78,66.19L207.36,68.36L208.94,65.07L210.53,70.1L212.11,66.45L213.69,68.27L215.28,62.87L216.86,65.53L218.44,70.25L220.03,64.01L221.61,68.32L223.19,64.62L224.77,63.7L226.36,69.56L227.94,63.8L229.52,68.36L231.11,63.24L232.69,64.78L234.27,64.09L235.85,61.79L237.44,65.14L239.02,63.51L242.19,64.06L243.77,68.55L246.93,60L248.52,63.63L250.1,65.8L251.68,65.48L253.27,68.43L254.85,65.4L256.43,67.88L258.02,63.57L259.6,65.1L261.18,61.78L262.76,63.51L264.35,64.12L267.51,65.89L269.1,64.72L270.68,64.66L272.26,67.53L273.84,65.65L275.43,68.65L277.01,61.96L278.59,64.98L281.76,59.39L283.34,62.18L284.92,64.12L286.51,57.58L288.09,64.39L289.67,63.35L291.26,61.18L292.84,61.8L294.42,60.2L296.01,65.65L297.59,67.07L299.17,63.61L300.75,62.11L302.34,65.53L303.92,60.47L305.5,59.92L307.09,65.44L308.67,66.48L310.25,62.8L311.83,64.46L313.42,63.52L315,60.77L315,75.52L313.42,81.35L311.83,81.27L310.25,75.84L308.67,81.75L307.09,80.35L305.5,79.21L303.92,76.07L302.34,81.74L300.75,81.3L299.17,78.2L297.59,79.33L296.01,81.46L294.42,81.32L292.84,81.23L291.26,80.28L289.67,86.08L288.09,80.84L286.51,84.2L284.92,77.2L283.34,82.38L281.76,83.03L280.18,76.42L278.59,78.95L277.01,81.86L275.43,81.14L273.84,79.77L272.26,83.93L270.68,80.62L269.1,84.39L267.51,80.32L265.93,80.98L264.35,80.26L262.76,83.23L261.18,76.98L259.6,79.01L258.02,79.8L256.43,84.11L254.85,84.6L253.27,83.57L251.68,83.8L250.1,84.93L248.52,86.08L246.93,80.06L245.35,80.08L243.77,81.95L242.19,82.9L240.6,79.69L239.02,78.89L237.44,82.5L235.85,80.83L234.27,86.49L232.69,82.6L231.11,88.24L229.52,87.29L227.94,87.92L226.36,82.02L224.77,84.79L223.19,82.72L221.61,86.88L220.03,77.72L218.44,87.4L216.86,80.4L215.28,88.44L212.11,78.86L210.53,84.52L208.94,90.56L207.36,85.14L205.78,86.15L204.2,85.65L202.61,86.21L201.03,84.17L199.45,84.48L197.86,91.63L196.28,83.72L194.7,86.72L193.12,88.1L191.53,82.19L189.95,85.17L188.37,89.82L186.78,84.97L185.2,85.15L183.62,88.22L182.04,86.28L180.45,88.57L178.87,87.5L177.29,89.88L175.7,83.07L174.12,89.9L172.54,84.61L170.95,86.3L169.37,85.83L167.79,89.35L166.21,88.06L164.62,85.9L163.04,92.46L159.87,86.48L158.29,86.54L156.71,95.31L155.13,92.57L153.54,86.27L151.96,84.01L148.79,94.65L147.21,86.08L145.63,86.85L144.05,93.06L142.46,91.79L140.88,95.23L139.3,89.4L137.71,87.8L136.13,91.94L134.55,92.87L132.96,94.4L131.38,92.75L129.8,90.68L128.22,98.54L126.63,93.57L125.05,93.34L123.47,90.8L121.88,96.89L120.3,91.37L118.72,101.68L117.14,89.68L115.55,91.98L113.97,91.31L112.39,94.42L110.8,101.43L109.22,97.42L107.64,97.69L106.06,86.55L104.47,92.66L102.89,87.31L101.31,95.06L99.72,98.24L98.14,98.01L96.56,93.54L94.97,93.41L93.39,96.55L91.81,97.21L90.23,106.8L87.06,93.46L85.48,97.52L83.89,110.76L82.31,96.37L80.73,103.74L79.15,114.99L75.98,118.52L74.4,122.08L72.81,121.19L71.23,132.82L69.65,141.38L68.07,138.34L66.48,140.07L64.9,143.71L63.32,155.89L61.73,155.96L60.15,157.78L58.57,160.9L55.4,168.41L53.82,166.87L52.24,176.47L50.65,174.63L49.07,182.23L47.49,179.61L45.9,182.07L44.32,181.7L41.16,188.14L39.57,189.24L37.99,189.81L36.41,191.32L34.82,191.05L33.24,192.01L30.08,194.74L28.49,200.71L26.91,199.69L25.33,200.24L23.74,206.33L22.16,205.03L20.58,206.96L18.99,206.72L17.41,207.47L15.83,205.84L14.25,206.89L12.66,207.02L11.08,204.03L9.5,209.16L7.91,207.73L6.33,204.56L4.75,204.46L3.17,202.84L0,203.48" style="vector-effect: non-scaling-stroke; fill: none; stroke: rgb(0, 0, 0); stroke-opacity: 0; stroke-width: 2px; opacity: 1;"/></g><g class="points"/><g class="text"/></g></g></g><g class="overplot"/><path class="xlines-above crisp" d="M0,0" style="fill: none;"/><path class="ylines-above crisp" d="M0,0" style="fill: none;"/><g class="overlines-above"/><g class="xaxislayer-above"><g class="xtick"><text text-anchor="middle" x="0" y="272" transform="translate(172.07999999999998,0)" style="font-family: 'Latin Modern Roman'; font-size: 12px; fill: rgb(0, 0, 0); fill-opacity: 1; white-space: pre;">20M</text></g><g class="xtick"><text text-anchor="middle" x="0" y="272" transform="translate(295.75,0)" style="font-family: 'Latin Modern Roman'; font-size: 12px; fill: rgb(0, 0, 0); fill-opacity: 1; white-space: pre;">40M</text></g></g><g class="yaxislayer-above"><g class="ytick"><text text-anchor="end" x="49" y="4.199999999999999" transform="translate(0,232.46)" style="font-family: 'Latin Modern Roman'; font-size: 12px; fill: rgb(0, 0, 0); fill-opacity: 1; white-space: pre;">−0.5</text></g><g class="ytick"><text text-anchor="end" x="49" y="4.199999999999999" transform="translate(0,189.77)" style="font-family: 'Latin Modern Roman'; font-size: 12px; fill: rgb(0, 0, 0); fill-opacity: 1; white-space: pre;">0</text></g><g class="ytick"><text text-anchor="end" x="49" y="4.199999999999999" transform="translate(0,147.07)" style="font-family: 'Latin Modern Roman'; font-size: 12px; fill: rgb(0, 0, 0); fill-opacity: 1; white-space: pre;">0.5</text></g><g class="ytick"><text text-anchor="end" x="49" y="4.199999999999999" transform="translate(0,104.38)" style="font-family: 'Latin Modern Roman'; font-size: 12px; fill: rgb(0, 0, 0); fill-opacity: 1; white-space: pre;">1</text></g><g class="ytick"><text text-anchor="end" x="49" y="4.199999999999999" transform="translate(0,61.69)" style="font-family: 'Latin Modern Roman'; font-size: 12px; fill: rgb(0, 0, 0); fill-opacity: 1; white-space: pre;">1.5</text></g><g class="ytick"><text text-anchor="end" x="49" y="4.199999999999999" transform="translate(0,19)" style="font-family: 'Latin Modern Roman'; font-size: 12px; fill: rgb(0, 0, 0); fill-opacity: 1; white-space: pre;">2</text></g></g><g class="overaxes-above"/></g></g><g class="polarlayer"/><g class="ternarylayer"/><g class="geolayer"/><g class="funnelarealayer"/><g class="pielayer"/><g class="treemaplayer"/><g class="sunburstlayer"/><g class="glimages"/><defs id="topdefs-56633c"><g class="clips"/><clipPath id="legend56633c"><rect width="229" height="48" x="0" y="0"/></clipPath></defs><g class="layer-above"><g class="imagelayer"/><g class="shapelayer"/></g><g class="infolayer"><g class="legend" pointer-events="all" transform="translate(371,0)"><rect class="bg" shape-rendering="crispEdges" style="stroke: rgb(68, 68, 68); stroke-opacity: 1; fill: rgb(255, 255, 255); fill-opacity: 1; stroke-width: 0px;" width="229" height="48" x="0" y="0"/><g class="scrollbox" transform="" clip-path="url('#legend56633c')"><g class="groups"><g class="traces" transform="translate(0,14.5)" style="opacity: 1;"><text class="legendtext" text-anchor="start" x="40" y="4.680000000000001" style="font-family: 'Latin Modern Roman'; font-size: 12px; fill: rgb(0, 0, 0); fill-opacity: 1; white-space: pre;">Bayesian agg. (single space) (n=8)</text><g class="layers" style="opacity: 1;"><g class="legendfill"/><g class="legendlines"><path class="js-line" d="M5,0h30" style="fill: none; stroke: rgb(99, 110, 250); stroke-opacity: 1; stroke-width: 2px;"/></g><g class="legendsymbols"><g class="legendpoints"/></g></g><rect class="legendtoggle" x="0" y="-9.5" width="223.078125" height="19" style="fill: rgb(0, 0, 0); fill-opacity: 0;"/></g><g class="traces" transform="translate(0,33.5)" style="opacity: 1;"><text class="legendtext" text-anchor="start" x="40" y="4.680000000000001" style="font-family: 'Latin Modern Roman'; font-size: 12px; fill: rgb(0, 0, 0); fill-opacity: 1; white-space: pre;">Bayesian agg. (sep. spaces) (n=32)</text><g class="layers" style="opacity: 1;"><g class="legendfill"/><g class="legendlines"><path class="js-line" d="M5,0h30" style="fill: none; stroke: rgb(239, 85, 59); stroke-opacity: 1; stroke-width: 2px;"/></g><g class="legendsymbols"><g class="legendpoints"/></g></g><rect class="legendtoggle" x="0" y="-9.5" width="223.078125" height="19" style="fill: rgb(0, 0, 0); fill-opacity: 0;"/></g></g></g><rect class="scrollbar" rx="20" ry="3" width="0" height="0" style="fill: rgb(128, 139, 164); fill-opacity: 1;" x="0" y="0"/></g><g class="g-gtitle"/><g class="g-xtitle" transform="translate(0,-3.8000000000000114)"><text class="xtitle" x="207.5" y="299.8" text-anchor="middle" style="font-family: 'Latin Modern Roman'; font-size: 14px; fill: rgb(0, 0, 0); opacity: 1; font-weight: normal; white-space: pre;">Agent Steps</text></g><g class="g-ytitle" transform="translate(16.4873046875,0)"><text class="ytitle" transform="rotate(-90,-0.48749999999999716,129.5)" x="-0.48749999999999716" y="129.5" text-anchor="middle" style="font-family: 'Latin Modern Roman'; font-size: 14px; fill: rgb(0, 0, 0); opacity: 1; font-weight: normal; white-space: pre;">Avg. Reward</text></g></g></svg>