<svg class="main-svg" xmlns="http://www.w3.org/2000/svg" xmlns:xlink="http://www.w3.org/1999/xlink" width="600" height="300" style="" viewBox="0 0 600 300"><rect x="0" y="0" width="600" height="300" style="fill: rgb(255, 255, 255); fill-opacity: 1;"/><defs id="defs-694e5a"><g class="clips"><clipPath id="clip694e5axyplot" class="plotclip"><rect width="326" height="259"/></clipPath><clipPath class="axesclip" id="clip694e5ax"><rect x="38" y="0" width="326" height="300"/></clipPath><clipPath class="axesclip" id="clip694e5ay"><rect x="0" y="0" width="600" height="259"/></clipPath><clipPath class="axesclip" id="clip694e5axy"><rect x="38" y="0" width="326" height="259"/></clipPath></g><g class="gradients"/></defs><g class="bglayer"><rect class="bg" x="38" y="0" width="326" height="259" style="fill: rgb(229, 236, 246); fill-opacity: 1; stroke-width: 0;"/></g><g class="layer-below"><g class="imagelayer"/><g class="shapelayer"/></g><g class="cartesianlayer"><g class="subplot xy"><g class="layer-subplot"><g class="shapelayer"/><g class="imagelayer"/></g><g class="gridlayer"><g class="x"><path class="xgrid crisp" transform="translate(165.45,0)" d="M0,0v259" style="stroke: rgb(255, 255, 255); stroke-opacity: 1; stroke-width: 1px;"/><path class="xgrid crisp" transform="translate(293.55,0)" d="M0,0v259" style="stroke: rgb(255, 255, 255); stroke-opacity: 1; stroke-width: 1px;"/></g><g class="y"><path class="ygrid crisp" transform="translate(0,190.38)" d="M38,0h326" style="stroke: rgb(255, 255, 255); stroke-opacity: 1; stroke-width: 1px;"/><path class="ygrid crisp" transform="translate(0,134.72)" d="M38,0h326" style="stroke: rgb(255, 255, 255); stroke-opacity: 1; stroke-width: 1px;"/><path class="ygrid crisp" transform="translate(0,79.05)" d="M38,0h326" style="stroke: rgb(255, 255, 255); stroke-opacity: 1; stroke-width: 1px;"/><path class="ygrid crisp" transform="translate(0,23.39)" d="M38,0h326" style="stroke: rgb(255, 255, 255); stroke-opacity: 1; stroke-width: 1px;"/></g></g><g class="zerolinelayer"><path class="yzl zl crisp" transform="translate(0,246.05)" d="M38,0h326" style="stroke: rgb(255, 255, 255); stroke-opacity: 1; stroke-width: 2px;"/></g><path class="xlines-below"/><path class="ylines-below"/><g class="overlines-below"/><g class="xaxislayer-below"/><g class="yaxislayer-below"/><g class="overaxes-below"/><g class="plot" transform="translate(38,0)" clip-path="url('#clip694e5axyplot')"><g class="scatterlayer mlayer"><g class="trace scatter trace738f3d" style="stroke-miterlimit: 2; opacity: 1;"><g class="fills"/><g class="errorbars"/><g class="lines"><path class="js-line" d="M0,240.48L0.65,246.05L1.31,243.27L1.96,243.27L2.61,246.05L3.92,243.27L4.57,246.05L5.23,246.05L5.88,237.7L7.19,246.05L7.84,243.27L8.49,240.48L9.15,243.27L10.45,246.05L11.11,240.48L11.76,237.7L12.41,240.48L13.07,246.05L13.72,243.27L14.37,240.48L15.03,246.05L15.68,234.92L16.33,237.7L16.99,237.7L17.64,240.48L18.29,240.48L18.95,243.27L19.6,243.27L20.25,246.05L21.56,240.48L22.21,243.27L22.87,243.27L23.52,237.7L24.17,246.05L24.83,207.08L26.79,246.05L27.44,237.7L28.09,234.92L28.75,246.05L29.4,237.7L30.05,246.05L30.71,226.57L31.36,234.92L32.01,221L32.67,234.92L33.32,243.27L33.97,207.08L34.63,215.43L35.28,240.48L35.93,246.05L36.59,226.57L37.24,229.35L37.89,243.27L38.55,246.05L39.2,240.48L39.85,221L40.51,243.27L41.16,246.05L41.81,243.27L43.12,237.7L43.77,234.92L44.42,237.7L45.08,232.13L45.73,229.35L46.38,237.7L47.69,223.78L48.34,237.7L49,246.05L49.65,229.35L50.3,237.7L50.96,221L52.26,234.92L52.92,237.7L53.57,218.22L54.22,232.13L56.18,243.27L56.84,232.13L57.49,229.35L58.14,237.7L59.45,221L60.1,229.35L60.76,232.13L61.41,193.17L62.06,246.05L62.72,232.13L63.37,226.57L64.02,234.92L64.68,218.22L65.33,234.92L65.98,226.57L66.64,229.35L67.29,232.13L67.94,246.05L68.6,226.57L69.25,232.13L69.9,240.48L70.56,232.13L71.86,246.05L72.52,240.48L73.17,240.48L73.82,243.27L74.48,226.57L75.13,229.35L75.78,223.78L76.44,229.35L77.09,243.27L77.74,237.7L78.4,234.92L79.05,223.78L79.7,223.78L80.36,221L81.01,209.87L81.66,215.43L82.97,237.7L83.62,198.73L84.28,240.48L84.93,215.43L85.58,223.78L86.24,209.87L87.54,201.52L88.2,162.55L89.5,215.43L90.16,209.87L91.46,179.25L92.12,190.38L93.42,198.73L94.08,162.55L94.73,215.43L95.38,187.6L96.04,204.3L96.69,173.68L97.34,182.03L98,201.52L98.65,190.38L99.3,193.17L99.96,165.33L100.61,193.17L101.26,176.47L101.92,193.17L103.22,201.52L103.88,201.52L104.53,143.07L105.18,151.42L105.84,223.78L106.49,173.68L107.14,176.47L107.8,170.9L108.45,176.47L109.1,173.68L110.41,207.08L111.06,182.03L111.72,193.17L112.37,187.6L113.68,170.9L114.33,179.25L114.98,170.9L115.64,190.38L116.29,162.55L116.94,207.08L117.6,151.42L118.25,173.68L118.9,168.12L119.56,193.17L120.21,165.33L120.86,179.25L122.17,204.3L122.82,190.38L123.47,187.6L124.13,131.94L124.78,176.47L125.43,156.98L126.74,195.95L127.39,173.68L128.05,187.6L128.7,179.25L129.35,170.9L130.01,123.59L130.66,170.9L131.31,159.77L131.97,145.85L132.62,182.03L133.93,159.77L134.58,195.95L135.89,120.8L136.54,170.9L137.19,106.89L137.85,134.72L139.15,193.17L139.81,168.12L140.46,187.6L141.11,176.47L141.77,176.47L142.42,131.94L143.07,137.5L143.73,151.42L144.38,179.25L145.03,148.64L145.69,159.77L146.34,187.6L146.99,129.15L147.65,170.9L148.3,173.68L148.95,137.5L149.61,137.5L150.26,101.32L150.91,184.82L151.57,143.07L152.22,151.42L152.87,143.07L153.53,151.42L154.18,140.29L154.83,151.42L155.49,134.72L156.14,123.59L156.79,81.84L157.45,154.2L158.1,123.59L158.75,118.02L159.41,182.03L161.37,104.1L162.02,148.64L162.67,126.37L163.33,170.9L163.98,131.94L164.63,154.2L165.29,95.75L165.94,145.85L166.59,145.85L167.25,140.29L167.9,165.33L168.55,129.15L169.21,156.98L169.86,126.37L170.51,156.98L171.17,151.42L172.47,118.02L173.13,168.12L173.78,118.02L174.43,154.2L175.09,98.54L175.74,134.72L176.39,159.77L177.05,134.72L177.7,129.15L178.35,145.85L179.66,193.17L180.31,145.85L180.97,143.07L181.62,162.55L182.27,156.98L182.93,81.84L183.58,165.33L184.23,106.89L184.89,148.64L185.54,145.85L186.19,140.29L186.85,184.82L187.5,165.33L188.15,115.24L188.81,143.07L189.46,115.24L190.11,176.47L190.77,151.42L191.42,162.55L192.07,168.12L192.73,98.54L194.03,170.9L194.69,143.07L195.99,95.75L196.65,173.68L197.95,140.29L198.61,92.97L199.26,165.33L199.91,145.85L200.57,165.33L201.22,137.5L201.87,151.42L202.53,140.29L203.18,151.42L203.83,115.24L205.14,109.67L205.79,123.59L207.1,156.98L207.75,140.29" style="vector-effect: non-scaling-stroke; fill: none; stroke: rgb(99, 110, 250); stroke-opacity: 1; stroke-width: 2px; opacity: 1;"/></g><g class="points"/><g class="text"/></g><g class="trace scatter trace2d666c" style="stroke-miterlimit: 2; opacity: 1;"><g class="fills"><g><path class="js-fill" d="M0,240.48L0.65,246.05L1.31,241.88L1.96,241.88L2.61,246.05L3.92,241.88L4.57,246.05L5.23,246.05L5.88,236.31L7.19,246.05L7.84,241.88L8.49,240.48L9.15,241.88L10.45,246.05L11.11,237.7L11.76,236.31L12.41,240.48L13.07,246.05L13.72,241.88L14.37,237.7L15.03,246.05L15.68,229.35L16.33,233.53L17.64,237.7L18.29,237.7L20.25,246.05L20.91,241.88L21.56,237.7L22.21,241.88L22.87,241.88L23.52,233.53L24.17,246.05L24.83,193.17L26.79,246.05L27.44,233.53L28.09,229.35L28.75,246.05L29.4,233.53L30.05,246.05L30.71,219.61L31.36,232.13L32.01,219.61L32.67,229.35L33.32,241.88L33.97,193.17L34.63,202.91L35.28,240.48L35.93,246.05L36.59,219.61L37.24,221L37.89,241.88L38.55,246.05L39.2,240.48L39.85,216.83L40.51,241.88L41.16,246.05L41.81,241.88L43.12,233.53L43.77,232.13L44.42,233.53L45.08,230.74L45.73,221L46.38,233.53L47.04,227.96L47.69,212.65L49,246.05L49.65,221L50.3,236.31L50.96,208.48L52.26,234.92L52.92,236.31L53.57,215.43L54.22,230.74L56.18,241.88L56.84,230.74L57.49,221L58.14,236.31L59.45,219.61L60.1,229.35L60.76,230.74L61.41,172.29L62.06,246.05L62.72,227.96L63.37,219.61L64.02,232.13L64.68,204.3L65.33,229.35L65.98,219.61L66.64,223.78L67.29,225.18L67.94,246.05L68.6,216.83L69.25,227.96L69.9,237.7L70.56,225.18L71.86,246.05L72.52,237.7L73.17,237.7L73.82,241.88L75.13,221L75.78,212.65L76.44,221L77.09,241.88L78.4,229.35L79.05,212.65L79.7,221L80.36,214.04L81.01,191.78L81.66,205.69L82.97,236.31L83.62,183.43L84.28,240.48L84.93,211.26L85.58,221L86.24,205.69L86.89,195.95L87.54,198.73L88.2,134.72L88.85,190.38L89.5,214.04L90.16,197.34L91.46,162.55L92.12,184.82L92.77,187.6L93.42,194.56L94.08,159.77L94.73,202.91L95.38,177.86L96.04,197.34L97.34,169.51L98,190.38L98.65,182.03L99.3,191.78L99.96,163.94L100.61,166.73L101.26,161.16L101.92,191.78L102.57,177.86L103.22,190.38L103.88,187.6L104.53,122.19L105.18,148.64L105.84,215.43L106.49,165.33L107.14,166.73L107.8,158.38L108.45,175.08L109.1,168.12L110.41,193.17L111.06,163.94L111.72,183.43L112.37,175.08L113.02,175.08L113.68,163.94L114.33,170.9L114.98,155.59L115.64,190.38L116.29,162.55L116.94,198.73L117.6,145.85L118.25,173.68L118.9,168.12L119.56,175.08L120.21,163.94L120.86,170.9L121.52,186.21L122.17,202.91L122.82,190.38L123.47,175.08L124.13,111.06L124.78,152.81L125.43,143.07L126.74,193.17L127.39,159.77L128.05,180.64L128.7,159.77L129.35,155.59L130.01,118.02L130.66,169.51L131.31,155.59L131.97,131.94L132.62,177.86L133.93,152.81L134.58,179.25L135.23,97.14L135.89,105.49L136.54,163.94L137.19,92.97L137.85,126.37L139.15,175.08L139.81,165.33L140.46,180.64L141.11,175.08L141.77,161.16L142.42,130.54L143.07,116.63L143.73,148.64L144.38,176.47L145.03,144.46L145.69,150.03L146.34,169.51L146.99,126.37L147.65,163.94L148.3,173.68L148.95,130.54L149.61,127.76L150.26,76.27L150.91,182.03L151.57,122.19L152.22,134.72L152.87,130.54L153.53,145.85L154.18,131.94L154.83,126.37L155.49,129.15L156.14,123.59L156.79,72.09L157.45,147.24L158.1,106.89L158.75,112.45L159.41,175.08L161.37,97.14L162.02,133.33L162.67,116.63L163.33,169.51L163.98,130.54L164.63,144.46L165.29,84.62L165.94,137.5L166.59,140.29L167.25,120.8L167.9,161.16L168.55,126.37L169.21,151.42L169.86,119.41L171.17,151.42L171.82,127.76L172.47,115.24L173.13,156.98L173.78,115.24L174.43,152.81L175.09,94.36L175.74,126.37L176.39,158.38L177.05,126.37L177.7,123.59L178.35,131.94L179.66,188.99L180.31,137.5L180.97,113.84L181.62,134.72L182.27,140.29L182.93,74.88L183.58,163.94L184.23,95.75L184.89,141.68L185.54,131.94L186.19,126.37L186.85,170.9L187.5,158.38L188.15,105.49L188.81,141.68L189.46,99.93L190.11,163.94L190.77,140.29L192.07,156.98L192.73,80.44L194.03,147.24L194.69,122.19L195.99,84.62L196.65,168.12L197.95,137.5L198.61,88.79L199.26,158.38L199.91,143.07L200.57,144.46L201.22,136.11L201.87,145.85L202.53,134.72L203.18,148.64L203.83,111.06L204.48,94.36L205.14,102.71L206.44,140.29L207.1,131.94L207.75,131.94L207.75,148.64L207.1,182.03L206.44,151.42L205.14,116.63L204.48,124.98L203.83,119.41L203.18,154.2L202.53,145.85L201.87,156.98L201.22,138.89L200.57,186.21L199.91,148.64L199.26,172.29L198.61,97.14L197.95,143.07L196.65,179.25L195.99,106.89L195.34,122.19L194.69,163.94L194.03,194.56L193.38,162.55L192.73,116.63L192.07,179.25L190.77,162.55L190.11,188.99L189.46,130.54L188.81,144.46L188.15,124.98L187.5,172.29L186.85,198.73L186.19,154.2L185.54,159.77L184.89,155.59L184.23,118.02L183.58,166.73L182.93,88.79L182.27,173.68L181.62,190.38L180.97,172.29L180.31,154.2L179.66,197.34L179.01,207.08L178.35,159.77L177.7,134.72L177.05,143.07L176.39,161.16L175.74,143.07L175.09,102.71L174.43,155.59L173.78,120.8L173.13,179.25L172.47,120.8L171.82,147.24L171.17,151.42L170.51,173.68L169.86,133.33L169.21,162.55L168.55,131.94L167.9,169.51L166.59,151.42L165.94,154.2L165.29,106.89L164.63,163.94L163.98,133.33L163.33,172.29L162.67,136.11L162.02,163.94L161.37,111.06L160.71,147.24L159.41,188.99L158.75,123.59L157.45,161.16L156.79,91.58L154.83,176.47L154.18,148.64L153.53,156.98L152.87,155.59L152.22,168.12L151.57,163.94L150.91,187.6L150.26,126.37L148.3,173.68L147.65,177.86L146.99,131.94L146.34,205.69L145.03,152.81L144.38,182.03L143.73,154.2L143.07,158.38L142.42,133.33L141.77,191.78L141.11,177.86L140.46,194.56L139.81,170.9L139.15,211.26L137.19,120.8L136.54,177.86L135.89,136.11L135.23,166.73L134.58,212.65L133.93,166.73L132.62,186.21L131.97,159.77L130.66,172.29L130.01,129.15L128.7,198.73L128.05,194.56L127.39,187.6L126.74,198.73L126.09,191.78L125.43,170.9L124.78,200.13L124.13,152.81L123.47,200.13L122.82,190.38L121.52,222.39L120.86,187.6L120.21,166.73L119.56,211.26L118.9,168.12L118.25,173.68L117.6,156.98L116.94,215.43L116.29,162.55L115.64,190.38L114.98,186.21L114.33,187.6L113.68,177.86L111.72,202.91L111.06,200.13L110.41,221L109.76,190.38L108.45,177.86L107.8,183.43L107.14,186.21L106.49,182.03L105.84,232.13L105.18,154.2L104.53,163.94L103.88,215.43L103.22,212.65L102.57,219.61L101.26,191.78L100.61,219.61L99.96,166.73L99.3,194.56L98.65,198.73L98,212.65L96.69,173.68L96.04,211.26L95.38,197.34L94.73,227.96L94.08,165.33L93.42,202.91L92.77,204.3L92.12,195.95L91.46,195.95L90.81,187.6L90.16,222.39L89.5,216.83L88.85,223.78L88.2,190.38L86.89,218.22L86.24,214.04L85.58,226.57L84.93,219.61L84.28,240.48L83.62,214.04L82.32,240.48L81.66,225.18L80.36,227.96L79.7,226.57L78.4,240.48L77.74,239.09L77.09,244.66L76.44,237.7L75.78,234.92L75.13,237.7L74.48,230.74L73.82,244.66L72.52,243.27L71.86,246.05L71.21,244.66L70.56,239.09L69.9,243.27L69.25,236.31L68.6,236.31L67.94,246.05L66.64,234.92L65.98,233.53L65.33,240.48L64.68,232.13L64.02,237.7L63.37,233.53L62.72,236.31L62.06,246.05L61.41,214.04L60.76,233.53L59.45,222.39L58.8,234.92L58.14,239.09L57.49,237.7L56.84,233.53L56.18,244.66L55.53,239.09L54.88,241.88L53.57,221L52.92,239.09L52.26,234.92L51.61,239.09L50.96,233.53L50.3,239.09L49.65,237.7L49,246.05L47.69,234.92L47.04,236.31L46.38,241.88L45.73,237.7L45.08,233.53L44.42,241.88L43.77,237.7L43.12,241.88L42.46,239.09L41.81,244.66L41.16,246.05L40.51,244.66L39.85,225.18L39.2,240.48L38.55,246.05L37.89,244.66L36.59,233.53L35.93,246.05L35.28,240.48L34.63,227.96L33.97,221L33.32,244.66L32.67,240.48L32.01,222.39L31.36,237.7L30.71,233.53L30.05,246.05L29.4,241.88L28.75,246.05L28.09,240.48L27.44,241.88L26.79,246.05L26.13,246.05L25.48,236.31L24.83,221L24.17,246.05L23.52,241.88L22.87,244.66L22.21,244.66L21.56,243.27L20.25,246.05L19.6,244.66L18.95,244.66L18.29,243.27L17.64,243.27L16.99,239.09L16.33,241.88L15.68,240.48L15.03,246.05L14.37,243.27L13.07,246.05L12.41,240.48L11.76,239.09L11.11,243.27L9.8,246.05L9.15,244.66L8.49,240.48L7.84,244.66L7.19,246.05L6.53,244.66L5.88,239.09L5.23,246.05L4.57,246.05L3.92,244.66L3.27,244.66L2.61,246.05L1.31,244.66L0.65,246.05L0,240.48Z" style="fill: rgb(99, 110, 250); fill-opacity: 0.3; stroke-width: 0;"/></g></g><g class="errorbars"/><g class="lines"><path class="js-line" d="M0,240.48L0.65,246.05L1.31,241.88L1.96,241.88L2.61,246.05L3.92,241.88L4.57,246.05L5.23,246.05L5.88,236.31L7.19,246.05L7.84,241.88L8.49,240.48L9.15,241.88L10.45,246.05L11.11,237.7L11.76,236.31L12.41,240.48L13.07,246.05L13.72,241.88L14.37,237.7L15.03,246.05L15.68,229.35L16.33,233.53L17.64,237.7L18.29,237.7L20.25,246.05L20.91,241.88L21.56,237.7L22.21,241.88L22.87,241.88L23.52,233.53L24.17,246.05L24.83,193.17L26.79,246.05L27.44,233.53L28.09,229.35L28.75,246.05L29.4,233.53L30.05,246.05L30.71,219.61L31.36,232.13L32.01,219.61L32.67,229.35L33.32,241.88L33.97,193.17L34.63,202.91L35.28,240.48L35.93,246.05L36.59,219.61L37.24,221L37.89,241.88L38.55,246.05L39.2,240.48L39.85,216.83L40.51,241.88L41.16,246.05L41.81,241.88L43.12,233.53L43.77,232.13L44.42,233.53L45.08,230.74L45.73,221L46.38,233.53L47.04,227.96L47.69,212.65L49,246.05L49.65,221L50.3,236.31L50.96,208.48L52.26,234.92L52.92,236.31L53.57,215.43L54.22,230.74L56.18,241.88L56.84,230.74L57.49,221L58.14,236.31L59.45,219.61L60.1,229.35L60.76,230.74L61.41,172.29L62.06,246.05L62.72,227.96L63.37,219.61L64.02,232.13L64.68,204.3L65.33,229.35L65.98,219.61L66.64,223.78L67.29,225.18L67.94,246.05L68.6,216.83L69.25,227.96L69.9,237.7L70.56,225.18L71.86,246.05L72.52,237.7L73.17,237.7L73.82,241.88L75.13,221L75.78,212.65L76.44,221L77.09,241.88L78.4,229.35L79.05,212.65L79.7,221L80.36,214.04L81.01,191.78L81.66,205.69L82.97,236.31L83.62,183.43L84.28,240.48L84.93,211.26L85.58,221L86.24,205.69L86.89,195.95L87.54,198.73L88.2,134.72L88.85,190.38L89.5,214.04L90.16,197.34L91.46,162.55L92.12,184.82L92.77,187.6L93.42,194.56L94.08,159.77L94.73,202.91L95.38,177.86L96.04,197.34L97.34,169.51L98,190.38L98.65,182.03L99.3,191.78L99.96,163.94L100.61,166.73L101.26,161.16L101.92,191.78L102.57,177.86L103.22,190.38L103.88,187.6L104.53,122.19L105.18,148.64L105.84,215.43L106.49,165.33L107.14,166.73L107.8,158.38L108.45,175.08L109.1,168.12L110.41,193.17L111.06,163.94L111.72,183.43L112.37,175.08L113.02,175.08L113.68,163.94L114.33,170.9L114.98,155.59L115.64,190.38L116.29,162.55L116.94,198.73L117.6,145.85L118.25,173.68L118.9,168.12L119.56,175.08L120.21,163.94L120.86,170.9L121.52,186.21L122.17,202.91L122.82,190.38L123.47,175.08L124.13,111.06L124.78,152.81L125.43,143.07L126.74,193.17L127.39,159.77L128.05,180.64L128.7,159.77L129.35,155.59L130.01,118.02L130.66,169.51L131.31,155.59L131.97,131.94L132.62,177.86L133.93,152.81L134.58,179.25L135.23,97.14L135.89,105.49L136.54,163.94L137.19,92.97L137.85,126.37L139.15,175.08L139.81,165.33L140.46,180.64L141.11,175.08L141.77,161.16L142.42,130.54L143.07,116.63L143.73,148.64L144.38,176.47L145.03,144.46L145.69,150.03L146.34,169.51L146.99,126.37L147.65,163.94L148.3,173.68L148.95,130.54L149.61,127.76L150.26,76.27L150.91,182.03L151.57,122.19L152.22,134.72L152.87,130.54L153.53,145.85L154.18,131.94L154.83,126.37L155.49,129.15L156.14,123.59L156.79,72.09L157.45,147.24L158.1,106.89L158.75,112.45L159.41,175.08L161.37,97.14L162.02,133.33L162.67,116.63L163.33,169.51L163.98,130.54L164.63,144.46L165.29,84.62L165.94,137.5L166.59,140.29L167.25,120.8L167.9,161.16L168.55,126.37L169.21,151.42L169.86,119.41L171.17,151.42L171.82,127.76L172.47,115.24L173.13,156.98L173.78,115.24L174.43,152.81L175.09,94.36L175.74,126.37L176.39,158.38L177.05,126.37L177.7,123.59L178.35,131.94L179.66,188.99L180.31,137.5L180.97,113.84L181.62,134.72L182.27,140.29L182.93,74.88L183.58,163.94L184.23,95.75L184.89,141.68L185.54,131.94L186.19,126.37L186.85,170.9L187.5,158.38L188.15,105.49L188.81,141.68L189.46,99.93L190.11,163.94L190.77,140.29L192.07,156.98L192.73,80.44L194.03,147.24L194.69,122.19L195.99,84.62L196.65,168.12L197.95,137.5L198.61,88.79L199.26,158.38L199.91,143.07L200.57,144.46L201.22,136.11L201.87,145.85L202.53,134.72L203.18,148.64L203.83,111.06L204.48,94.36L205.14,102.71L206.44,140.29L207.1,131.94L207.75,131.94L207.75,148.64L207.1,182.03L206.44,151.42L205.14,116.63L204.48,124.98L203.83,119.41L203.18,154.2L202.53,145.85L201.87,156.98L201.22,138.89L200.57,186.21L199.91,148.64L199.26,172.29L198.61,97.14L197.95,143.07L196.65,179.25L195.99,106.89L195.34,122.19L194.69,163.94L194.03,194.56L193.38,162.55L192.73,116.63L192.07,179.25L190.77,162.55L190.11,188.99L189.46,130.54L188.81,144.46L188.15,124.98L187.5,172.29L186.85,198.73L186.19,154.2L185.54,159.77L184.89,155.59L184.23,118.02L183.58,166.73L182.93,88.79L182.27,173.68L181.62,190.38L180.97,172.29L180.31,154.2L179.66,197.34L179.01,207.08L178.35,159.77L177.7,134.72L177.05,143.07L176.39,161.16L175.74,143.07L175.09,102.71L174.43,155.59L173.78,120.8L173.13,179.25L172.47,120.8L171.82,147.24L171.17,151.42L170.51,173.68L169.86,133.33L169.21,162.55L168.55,131.94L167.9,169.51L166.59,151.42L165.94,154.2L165.29,106.89L164.63,163.94L163.98,133.33L163.33,172.29L162.67,136.11L162.02,163.94L161.37,111.06L160.71,147.24L159.41,188.99L158.75,123.59L157.45,161.16L156.79,91.58L154.83,176.47L154.18,148.64L153.53,156.98L152.87,155.59L152.22,168.12L151.57,163.94L150.91,187.6L150.26,126.37L148.3,173.68L147.65,177.86L146.99,131.94L146.34,205.69L145.03,152.81L144.38,182.03L143.73,154.2L143.07,158.38L142.42,133.33L141.77,191.78L141.11,177.86L140.46,194.56L139.81,170.9L139.15,211.26L137.19,120.8L136.54,177.86L135.89,136.11L135.23,166.73L134.58,212.65L133.93,166.73L132.62,186.21L131.97,159.77L130.66,172.29L130.01,129.15L128.7,198.73L128.05,194.56L127.39,187.6L126.74,198.73L126.09,191.78L125.43,170.9L124.78,200.13L124.13,152.81L123.47,200.13L122.82,190.38L121.52,222.39L120.86,187.6L120.21,166.73L119.56,211.26L118.9,168.12L118.25,173.68L117.6,156.98L116.94,215.43L116.29,162.55L115.64,190.38L114.98,186.21L114.33,187.6L113.68,177.86L111.72,202.91L111.06,200.13L110.41,221L109.76,190.38L108.45,177.86L107.8,183.43L107.14,186.21L106.49,182.03L105.84,232.13L105.18,154.2L104.53,163.94L103.88,215.43L103.22,212.65L102.57,219.61L101.26,191.78L100.61,219.61L99.96,166.73L99.3,194.56L98.65,198.73L98,212.65L96.69,173.68L96.04,211.26L95.38,197.34L94.73,227.96L94.08,165.33L93.42,202.91L92.77,204.3L92.12,195.95L91.46,195.95L90.81,187.6L90.16,222.39L89.5,216.83L88.85,223.78L88.2,190.38L86.89,218.22L86.24,214.04L85.58,226.57L84.93,219.61L84.28,240.48L83.62,214.04L82.32,240.48L81.66,225.18L80.36,227.96L79.7,226.57L78.4,240.48L77.74,239.09L77.09,244.66L76.44,237.7L75.78,234.92L75.13,237.7L74.48,230.74L73.82,244.66L72.52,243.27L71.86,246.05L71.21,244.66L70.56,239.09L69.9,243.27L69.25,236.31L68.6,236.31L67.94,246.05L66.64,234.92L65.98,233.53L65.33,240.48L64.68,232.13L64.02,237.7L63.37,233.53L62.72,236.31L62.06,246.05L61.41,214.04L60.76,233.53L59.45,222.39L58.8,234.92L58.14,239.09L57.49,237.7L56.84,233.53L56.18,244.66L55.53,239.09L54.88,241.88L53.57,221L52.92,239.09L52.26,234.92L51.61,239.09L50.96,233.53L50.3,239.09L49.65,237.7L49,246.05L47.69,234.92L47.04,236.31L46.38,241.88L45.73,237.7L45.08,233.53L44.42,241.88L43.77,237.7L43.12,241.88L42.46,239.09L41.81,244.66L41.16,246.05L40.51,244.66L39.85,225.18L39.2,240.48L38.55,246.05L37.89,244.66L36.59,233.53L35.93,246.05L35.28,240.48L34.63,227.96L33.97,221L33.32,244.66L32.67,240.48L32.01,222.39L31.36,237.7L30.71,233.53L30.05,246.05L29.4,241.88L28.75,246.05L28.09,240.48L27.44,241.88L26.79,246.05L26.13,246.05L25.48,236.31L24.83,221L24.17,246.05L23.52,241.88L22.87,244.66L22.21,244.66L21.56,243.27L20.25,246.05L19.6,244.66L18.95,244.66L18.29,243.27L17.64,243.27L16.99,239.09L16.33,241.88L15.68,240.48L15.03,246.05L14.37,243.27L13.07,246.05L12.41,240.48L11.76,239.09L11.11,243.27L9.8,246.05L9.15,244.66L8.49,240.48L7.84,244.66L7.19,246.05L6.53,244.66L5.88,239.09L5.23,246.05L4.57,246.05L3.92,244.66L3.27,244.66L2.61,246.05L1.31,244.66L0.65,246.05L0,240.48" style="vector-effect: non-scaling-stroke; fill: none; stroke: rgb(0, 0, 0); stroke-opacity: 0; stroke-width: 2px; opacity: 1;"/></g><g class="points"/><g class="text"/></g><g class="trace scatter tracea77dc5" style="stroke-miterlimit: 2; opacity: 1;"><g class="fills"/><g class="errorbars"/><g class="lines"><path class="js-line" d="M0,244.1L9.15,243.55L9.8,243.13L11.11,243.68L11.76,243.27L13.72,243.41L14.37,243.55L25.48,242.85L26.13,242.71L27.44,242.15L28.09,242.15L29.4,242.57L30.05,241.74L30.71,242.01L31.36,241.46L32.67,241.46L33.32,239.93L33.97,237.84L34.63,239.65L36.59,235.61L37.24,231.58L39.2,215.71L39.85,216.55L40.51,212.09L41.16,200.96L41.81,209.73L42.46,200.13L43.12,214.04L43.77,196.09L44.42,201.24L45.08,188.3L47.04,198.6L47.69,190.66L48.34,190.52L49,186.63L50.96,169.09L51.61,175.35L52.26,170.9L52.92,173.27L54.22,157.12L54.88,159.77L56.18,146.83L56.84,153.37L57.49,149.61L58.14,139.17L58.8,144.18L59.45,136.11L60.1,141.82L60.76,141.12L61.41,137.5L62.06,128.73L62.72,135.83L64.02,128.04L64.68,128.6L65.33,139.73L65.98,122.19L66.64,127.48L67.29,124.56L67.94,121.5L68.6,113.98L69.25,115.65L69.9,125.53L70.56,126.23L71.21,121.78L71.86,113.15L72.52,122.89L74.48,114.4L75.13,124.42L75.78,107.58L76.44,109.81L77.09,99.65L77.74,100.21L78.4,106.75L79.7,103.55L80.36,104.38L81.01,106.19L81.66,102.02L82.32,103.41L82.97,100.35L83.62,90.6L84.28,98.12L84.93,93.53L85.58,104.38L86.24,101.88L86.89,111.34L89.5,98.54L90.16,105.91L90.81,111.62L91.46,100.35L92.12,108.28L92.77,98.26L94.08,108.56L94.73,100.9L95.38,109.53L96.04,104.38L96.69,100.21L97.34,89.77L98,99.65L98.65,93.67L99.96,98.26L100.61,96.03L101.26,102.02L101.92,98.81L102.57,99.37L103.22,94.08L103.88,93.11L104.53,97.28L105.18,90.74L105.84,91.02L106.49,99.65L107.14,91.3L107.8,95.75L108.45,93.67L109.1,96.31L110.41,94.08L111.06,95.06L111.72,93.8L112.37,97.42L113.02,91.16L113.68,92.69L114.98,81.28L115.64,88.79L116.29,89.91L116.94,87.26L118.25,92.83L118.9,81.56L119.56,86.01L120.21,83.78L120.86,91.72L121.52,89.91L122.17,96.73L122.82,89.63L123.47,86.43L124.13,78.08L125.43,79.61L126.09,87.96L126.74,85.73L127.39,86.85L128.05,86.15L128.7,90.6L129.35,91.44L130.01,84.62L131.31,78.91L131.97,83.51L132.62,76.13L133.27,79.75L133.93,79.47L134.58,82.81L135.23,89.63L135.89,86.43L136.54,82.81L137.19,84.9L138.5,80.86L139.15,81.42L139.81,81L140.46,74.32L141.11,83.51L141.77,78.5L142.42,84.34L143.07,80.03L143.73,83.37L144.38,74.88L145.03,86.43L145.69,76.13L146.34,79.33L146.99,78.36L147.65,77.66L148.3,74.88L149.61,84.62L150.26,89.07L150.91,76.41L151.57,77.66L152.22,81.14L152.87,82.25L153.53,80.31L154.18,73.35L154.83,78.08L155.49,70.98L156.14,72.37L156.79,68.48L157.45,72.65L158.1,68.62L158.75,74.32L160.71,68.2L161.37,69.87L162.02,70.01L162.67,79.05L163.33,66.81L163.98,72.09L164.63,79.75L165.29,68.06L165.94,71.68L166.59,66.53L167.9,65L168.55,78.64L169.21,74.6L169.86,75.3L171.17,74.74L171.82,76.69L172.47,77.1L173.13,75.57L174.43,73.9L175.09,79.89L175.74,73.9L176.39,79.19L177.05,65L177.7,72.23L178.35,68.06L179.01,68.34L179.66,77.52L180.31,66.25L180.97,71.68L182.27,72.65L182.93,70.42L184.23,72.23L184.89,71.26L185.54,73.21L186.19,78.5L186.85,69.87L187.5,70.98L188.15,71.26L188.81,69.17L189.46,72.37L190.11,75.3L190.77,65.28L191.42,74.18L192.07,72.93L192.73,75.3L193.38,84.76L194.03,71.54L194.69,64.02L195.34,69.73L195.99,72.51L196.65,65.55L197.3,70.01L197.95,65L199.26,73.9L199.91,61.8L200.57,77.1L201.22,68.62L201.87,74.46L202.53,65.97L203.83,70.56L204.48,64.3L205.14,60.27L205.79,62.35L207.75,67.78L208.4,60.4L209.06,64.44L209.71,63.33L210.36,61.24L211.02,65L211.67,59.01L212.32,68.2L213.63,64.58L214.28,63.88L214.94,62.35L215.59,66.11L216.24,59.71L216.9,64.86L217.55,71.4L218.2,61.38L220.16,60.82L220.82,66.25L221.47,68.06L222.12,66.53L222.78,65.97L223.43,61.94L224.08,70.42L224.74,63.47L225.39,68.75L226.04,63.05L227.35,67.22L228,59.85L229.31,76.97L229.96,67.22L231.27,65.97L231.92,69.17L233.23,63.47L233.88,63.05L234.54,55.95L235.19,68.2L235.84,68.34L236.5,65.14L237.15,62.63L237.8,70.98L238.46,65.14L239.11,67.92L239.76,65.83L240.42,76.41L241.07,77.94L241.72,62.91L242.38,72.23L243.03,67.36L243.68,78.91L244.34,72.93L245.64,69.03L246.3,70.42L246.95,70.29L247.6,66.11L248.26,66.95L248.91,73.07L249.56,77.66L250.22,74.74L250.87,77.94L251.52,77.52L252.18,73.63L254.14,68.75L254.79,72.65L255.44,73.35L256.1,63.33L256.75,75.16L257.4,71.82L258.06,82.25L258.71,80.03L259.36,72.09L260.02,77.8L261.98,70.01L262.63,75.71L263.28,73.63L263.94,76.83L264.59,76.97L265.24,72.79L265.9,75.71L266.55,72.51L267.86,75.99L268.51,71.54L269.82,80.72L270.47,79.61L271.78,74.46L272.43,71.12L273.74,68.34L274.39,71.12L275.04,73.07L275.7,79.33L277.66,70.01L278.31,79.33L278.96,67.92L279.62,73.9L280.27,70.98L280.92,80.17L281.58,76.41L282.23,79.89L282.88,72.65L283.54,77.52L284.84,67.64L285.49,70.7L286.8,77.8L287.45,74.18L288.11,82.95L288.76,73.63L290.07,79.61L290.72,77.1L291.37,72.93L292.03,81.14L292.68,71.54L293.33,75.3L293.99,71.54L294.64,75.99L295.29,74.18L295.95,75.85L296.6,71.4L297.25,77.66L297.91,73.07L298.56,81.98L299.21,81.28L299.87,76.13L300.52,76.13L301.17,80.31L301.83,74.74L302.48,82.67L303.13,67.64L303.79,73.49L305.75,83.78L306.4,70.7L307.05,77.38L307.71,77.24L308.36,79.05L309.67,85.18L310.32,80.03L310.97,74.18L311.63,79.89L312.28,77.66L312.93,86.57L313.59,78.77L314.24,81.98L314.89,86.99L315.55,79.47L316.2,78.77L316.85,85.45L317.51,73.21L318.16,86.43L318.81,90.74L319.47,86.71L321.43,77.8L322.08,92.55L323.39,83.92L324.04,87.4L324.69,81.98L325.35,87.4L326,79.05" style="vector-effect: non-scaling-stroke; fill: none; stroke: rgb(239, 85, 59); stroke-opacity: 1; stroke-width: 2px; opacity: 1;"/></g><g class="points"/><g class="text"/></g><g class="trace scatter trace6b3ba1" style="stroke-miterlimit: 2; opacity: 1;"><g class="fills"><g><path class="js-fill" d="M0,243.75L1.96,242.99L2.61,243.2L3.27,243.2L3.92,242.43L7.19,242.5L7.84,240.69L9.15,237.91L9.8,239.37L11.11,233.73L11.76,235.54L13.72,232.69L14.37,228.45L15.03,231.51L15.68,228.86L16.33,221.35L16.99,232.76L18.29,219.47L18.95,224.2L20.25,216.76L20.91,215.99L22.21,219.26L22.87,223.99L23.52,219.19L24.17,221.14L24.83,219.05L25.48,219.96L26.13,219.47L26.79,211.33L29.4,203.26L30.05,208.27L30.71,187.81L31.36,197.9L32.67,174.17L33.32,182.03L33.97,181.76L34.63,166.17L35.28,165.61L35.93,154.06L36.59,166.03L37.24,164.99L37.89,167L38.55,165.13L39.2,151.7L39.85,155.31L40.51,152.11L41.81,131.45L42.46,133.61L43.77,145.02L44.42,133.05L45.08,146.69L45.73,130.47L47.04,129.22L47.69,121.78L48.34,125.74L49,122.47L49.65,117.32L50.3,118.71L50.96,110.57L51.61,111.62L52.26,110.43L52.92,109.81L53.57,105.15L55.53,95.27L56.18,91.65L58.14,75.09L58.8,86.01L59.45,84.83L60.1,85.87L61.41,80.03L62.06,82.53L62.72,82.25L63.37,86.92L64.02,84.83L64.68,75.09L65.33,82.95L65.98,70.49L66.64,85.32L67.29,78.77L67.94,71.26L68.6,75.09L69.25,76.06L69.9,72.58L70.56,73L71.21,65.41L72.52,74.39L73.17,73.07L74.48,77.24L75.13,67.43L77.09,76.41L77.74,74.74L78.4,73.56L79.05,67.15L79.7,75.09L80.36,73.76L81.01,63.54L81.66,72.23L82.32,62.42L82.97,69.73L83.62,63.81L84.28,67.78L84.93,70.63L85.58,66.74L87.54,58.18L88.2,63.4L88.85,68.82L89.5,68.13L90.16,67.64L90.81,56.44L91.46,69.8L92.77,63.81L93.42,59.43L94.08,58.25L94.73,66.74L95.38,57.69L96.04,58.25L96.69,55.95L97.34,63.12L98,59.57L98.65,64.65L99.3,59.36L99.96,56.93L100.61,62.77L101.92,54.7L102.57,60.34L103.88,54.35L104.53,52.75L105.18,52.89L105.84,60.13L106.49,65.97L107.14,54.84L107.8,43.15L108.45,47.67L109.76,41.41L110.41,41.97L111.06,45.58L111.72,44.61L112.37,46.28L113.02,39.53L114.33,44.61L114.98,49.55L115.64,40.78L116.29,46.28L116.94,48.16L117.6,36.82L118.25,38.63L118.9,36.61L120.21,43.43L120.86,42.87L122.17,38.76L122.82,41.48L123.47,28.88L124.13,44.12L124.78,33.96L125.43,41.34L126.74,34.94L127.39,42.17L128.7,37.3L129.35,41.62L130.66,33.48L131.31,40.16L131.97,40.09L132.62,42.66L133.93,29.79L134.58,31.32L135.89,23.8L136.54,38.9L137.19,31.39L137.85,33.2L138.5,33.96L139.15,37.86L139.81,28.95L140.46,36.26L141.11,27.63L141.77,34.8L142.42,29.51L143.07,30.97L143.73,36.12L144.38,28.33L146.34,40.3L146.99,27.14L148.3,34.03L148.95,32.5L149.61,40.16L150.26,28.33L150.91,31.81L151.57,29.37L152.22,32.5L152.87,30.21L153.53,27.08L154.18,40.64L154.83,27.01L155.49,28.05L156.14,20.95L156.79,32.09L157.45,31.95L158.1,31.04L158.75,27.77L159.41,30.62L160.06,21.37L160.71,25.06L161.37,21.86L162.02,25.13L162.67,27.77L163.33,24.92L163.98,20.88L164.63,24.22L165.29,28.61L165.94,21.37L167.9,29.44L168.55,32.5L169.21,26.66L169.86,29.86L170.51,29.09L171.17,34.45L171.82,35.08L172.47,31.04L173.13,34.73L173.78,27.63L175.74,35.43L176.39,30.21L177.05,27.28L177.7,34.38L179.01,31.39L179.66,32.85L180.31,29.44L180.97,32.43L181.62,25.75L182.27,34.59L183.58,21.65L184.23,30.35L184.89,32.64L185.54,25.2L186.19,21.44L186.85,22.83L187.5,23.32L188.15,29.65L188.81,21.86L189.46,27.56L190.11,26.03L190.77,21.72L191.42,28.33L192.07,26.24L192.73,18.03L193.38,20.81L194.69,30.76L195.34,28.12L195.99,19.21L196.65,24.36L197.3,24.22L197.95,28.54L198.61,23.87L199.26,27.7L199.91,28.75L200.57,18.24L201.22,32.22L201.87,23.11L202.53,33.69L203.18,30.62L205.14,23.8L205.79,30.28L206.44,32.99L207.1,25.41L208.4,22.34L209.06,28.05L209.71,31.18L210.36,30.83L211.02,24.36L211.67,30.07L212.32,23.32L212.98,16.15L213.63,24.15L214.28,21.51L214.94,14.9L215.59,25.89L216.24,15.59L218.2,31.67L218.86,19.35L219.51,26.1L220.16,24.5L221.47,30.42L222.12,19.84L222.78,26.03L223.43,23.8L224.08,32.57L224.74,24.71L225.39,27.01L226.04,26.45L226.7,28.61L227.35,17.75L228.66,23.8L229.31,24.5L229.96,24.22L230.62,21.09L231.27,26.45L231.92,22.48L232.58,31.74L233.23,22.34L233.88,29.23L234.54,26.45L235.19,23.87L235.84,31.81L236.5,18.1L237.15,22.62L238.46,17.19L239.11,24.71L239.76,28.81L240.42,27.77L241.07,24.15L241.72,26.38L242.38,22.76L243.03,24.01L243.68,21.3L244.34,29.02L244.99,22.69L245.64,29.02L247.6,22L248.26,32.29L248.91,23.04L249.56,26.73L250.22,27.14L250.87,32.09L252.18,22L252.83,29.58L253.48,27.14L254.14,21.23L255.44,28.68L256.1,24.78L256.75,23.18L257.4,28.54L258.71,20.19L259.36,20.33L260.02,30.14L260.67,27.42L261.98,23.32L262.63,27.28L263.28,20.53L263.94,25.61L265.24,19.42L265.9,21.02L266.55,20.05L267.2,16.92L267.86,24.99L268.51,20.67L269.16,17.26L269.82,26.45L270.47,17.06L271.12,26.52L271.78,23.18L272.43,12.95L273.08,25.89L273.74,25.75L274.39,27.7L275.04,20.95L275.7,22L276.35,31.67L277,16.92L277.66,26.66L278.31,17.96L278.96,17.4L279.62,21.79L280.27,25.06L280.92,23.67L281.58,22.69L282.23,24.08L282.88,21.23L283.54,23.25L284.84,15.25L285.49,28.05L286.8,18.31L287.45,17.82L289.41,27.77L290.07,30.07L291.37,20.81L292.03,24.5L292.68,27.14L293.33,20.74L293.99,15.59L294.64,24.08L295.95,24.01L296.6,25.13L297.91,29.16L298.56,17.96L299.21,24.57L299.87,24.22L300.52,27.63L301.17,22L301.83,24.5L302.48,26.38L303.13,24.85L304.44,26.87L305.09,23.74L306.4,26.94L307.05,20.46L308.36,29.16L309.01,27.42L309.67,25.47L310.32,27.28L310.97,25.06L311.63,28.75L313.59,22.76L314.24,27.01L315.55,16.92L316.2,24.99L316.85,18.66L317.51,22.27L318.16,20.46L318.81,22.27L319.47,20.12L320.12,24.36L320.77,24.71L321.43,23.11L322.08,25.41L322.73,22.27L324.04,29.16L324.69,16.08L325.35,23.32L326,23.18L326,131.45L325.35,133.47L324.69,127.48L324.04,131.1L323.39,129.57L322.73,129.64L322.08,130.54L321.43,135.83L320.77,132.28L320.12,127.55L319.47,132.98L318.81,126.65L318.16,129.64L316.85,126.86L316.2,123.79L315.55,127.27L314.89,124.28L314.24,121.92L313.59,128.25L312.93,122.75L312.28,129.71L311.63,125.26L310.97,128.04L310.32,129.85L309.67,128.67L308.36,124.35L307.71,124.63L307.05,127.27L306.4,130.2L305.75,123.59L303.79,131.1L303.13,127.2L302.48,131.87L301.83,123.1L301.17,123.17L300.52,131.59L299.87,126.23L299.21,130.33L298.56,125.53L297.91,127.55L297.25,128.94L296.6,123.24L295.95,130.13L295.29,125.95L294.64,120.66L293.99,123.17L293.33,119.48L292.68,120.52L292.03,116.91L291.37,128.11L290.07,122.19L289.41,122.75L288.76,116.84L288.11,117.74L287.45,123.1L286.8,126.09L286.15,118.85L285.49,116.14L284.84,120.8L284.19,120.25L283.54,116.42L282.88,119.69L282.23,118.44L280.92,117.04L280.27,124L279.62,120.11L278.96,120.32L278.31,117.95L277.66,116.98L277,112.38L275.7,115.31L275.04,123.66L273.08,113.57L272.43,122.54L271.78,115.1L271.12,120.11L270.47,118.85L269.82,119.48L268.51,115.1L267.86,116.63L267.2,117.6L266.55,121.15L265.24,114.89L264.59,115.58L263.94,116.77L263.28,110.43L262.63,108.69L261.98,109.18L261.32,117.25L260.67,116.42L260.02,113.01L259.36,113.43L258.71,119.34L258.06,121.64L257.4,119.76L256.75,119.62L256.1,118.37L255.44,116.42L254.79,111.41L254.14,111.9L253.48,119.34L252.18,115.58L251.52,118.09L250.22,114.12L249.56,115.1L248.26,122.05L247.6,118.02L246.95,119.55L246.3,118.51L245.64,122.19L244.99,115.58L244.34,117.53L243.68,114.82L243.03,128.53L242.38,117.6L241.72,109.46L241.07,125.05L240.42,114.96L239.76,127.9L238.46,113.91L237.8,119.13L237.15,121.43L236.5,119.69L235.84,119.41L235.19,112.1L234.54,115.58L233.88,114.05L233.23,116.35L232.58,116.14L231.92,117.53L231.27,123.1L230.62,115.58L229.31,118.16L228.66,117.39L228,120.59L227.35,115.93L226.7,115.72L226.04,114.19L224.74,119.41L224.08,111.27L222.78,122.12L222.12,120.38L220.82,114.47L220.16,123.45L219.51,124.56L218.86,121.99L216.9,125.6L216.24,114.33L213.63,130.89L212.98,125.19L212.32,122.89L211.67,129.08L211.02,124.84L210.36,129.64L209.06,121.78L208.4,123.86L207.75,120.8L207.1,126.65L205.14,117.18L204.48,122.26L203.83,125.46L203.18,121.15L202.53,126.58L201.87,123.52L201.22,127.48L200.57,124.21L199.91,120.25L199.26,125.12L198.61,117.32L197.95,123.31L196.65,119.83L195.99,115.65L195.34,126.3L194.69,110.71L194.03,126.16L193.38,119.55L192.73,127.9L192.07,121.43L191.42,124.63L190.77,133.4L190.11,112.8L189.46,124.35L188.15,115.65L187.5,127.97L186.85,129.57L186.19,120.73L185.54,125.39L184.89,120.66L184.23,118.09L183.58,126.16L182.93,121.78L182.27,127.48L181.62,122.54L180.97,124.21L180.31,129.64L179.66,119.76L179.01,118.09L178.35,125.53L177.7,124.28L177.05,125.67L175.09,119.34L174.43,121.43L173.78,128.8L173.13,117.81L172.47,124.98L171.82,118.37L171.17,122.4L170.51,118.3L168.55,130.89L167.9,122.4L167.25,118.71L166.59,121.78L165.94,129.01L165.29,120.8L164.63,136.74L163.98,127.27L163.33,127.34L162.67,124.07L162.02,132.56L161.37,123.1L158.75,136.67L158.1,123.38L157.45,134.09L156.79,123.17L156.14,121.64L155.49,126.79L154.83,138.34L154.18,131.03L153.53,135L152.87,130.06L152.22,121.29L151.57,129.78L150.91,134.93L150.26,133.47L149.61,128.46L148.95,135.62L148.3,137.08L147.65,131.24L146.99,124.7L146.34,136.95L145.03,133.67L144.38,134.23L143.73,118.65L143.07,131.94L141.77,129.64L141.11,133.4L139.81,141.05L139.15,138.62L138.5,131.1L137.85,132.35L137.19,133.12L136.54,126.16L135.89,126.37L135.23,128.53L134.58,135.48L133.93,129.85L133.27,126.51L132.62,130.61L131.97,135.07L131.31,134.16L130.66,136.39L130.01,135.34L129.35,135.34L128.7,136.32L128.05,129.22L127.39,133.74L126.74,129.71L126.09,130.13L125.43,141.61L124.78,139.1L124.13,143.97L123.47,141.4L122.82,143.42L122.17,143.07L121.52,140.84L120.86,142.37L120.21,145.78L119.56,144.67L118.9,149.82L118.25,149.33L117.6,151L116.94,158.59L116.29,149.75L115.64,151.7L114.98,157.33L114.33,150.03L113.68,154.55L113.02,156.78L112.37,164.43L111.06,155.25L110.41,158.72L109.76,152.11L109.1,157.12L108.45,158.24L107.8,165.27L107.14,160.67L106.49,163.66L105.18,157.75L104.53,159.49L103.88,170.76L103.22,167.56L102.57,165.2L101.92,167.07L100.61,170.55L99.96,165.82L99.3,176.68L98.65,168.4L97.34,179.46L96.69,175.91L96.04,182.03L95.38,170.97L94.73,171.95L94.08,186.35L93.42,185.37L92.77,193.38L91.46,185.37L90.81,186.63L90.16,189.69L89.5,186.35L88.2,198.18L87.54,183.5L86.89,196.3L86.24,192.05L85.58,200.96L84.93,197.9L84.28,189.48L83.62,199.08L82.97,196.23L82.32,203.19L81.66,202.35L81.01,206.46L79.7,212.79L79.05,205.41L78.4,206.32L77.74,215.36L77.09,211.82L76.44,217.52L75.13,211.95L74.48,222.11L73.82,217.03L73.17,226.08L71.86,229.56L71.21,233.04L70.56,230.67L69.9,234.99L68.6,232.97L67.94,230.32L65.98,236.73L65.33,239.09L64.68,236.17L64.02,239.09L62.72,237.21L62.06,230.46L60.76,236.1L60.1,237.07L58.8,240.21L58.14,238.74L57.49,239.02L56.84,240.9L56.18,236.93L55.53,240.48L54.88,239.09L54.22,239.72L53.57,238.88L52.92,241.67L52.26,242.57L51.61,241.46L50.3,241.25L49.65,238.6L49,239.51L48.34,238.6L47.69,241.53L47.04,240.55L46.38,240.27L45.73,242.15L45.08,240.62L44.42,242.01L43.12,242.29L42.46,242.78L40.51,242.78L39.85,243.34L37.89,242.71L37.24,243.34L36.59,242.71L35.93,243.13L34.63,243.61L33.97,242.85L32.01,243.55L31.36,243.55L28.75,243.89L28.09,243.61L24.83,244.1L24.17,243.82L22.21,243.89L21.56,244.1L0,244.38Z" style="fill: rgb(239, 85, 59); fill-opacity: 0.3; stroke-width: 0;"/></g></g><g class="errorbars"/><g class="lines"><path class="js-line" d="M0,243.75L1.96,242.99L2.61,243.2L3.27,243.2L3.92,242.43L7.19,242.5L7.84,240.69L9.15,237.91L9.8,239.37L11.11,233.73L11.76,235.54L13.72,232.69L14.37,228.45L15.03,231.51L15.68,228.86L16.33,221.35L16.99,232.76L18.29,219.47L18.95,224.2L20.25,216.76L20.91,215.99L22.21,219.26L22.87,223.99L23.52,219.19L24.17,221.14L24.83,219.05L25.48,219.96L26.13,219.47L26.79,211.33L29.4,203.26L30.05,208.27L30.71,187.81L31.36,197.9L32.67,174.17L33.32,182.03L33.97,181.76L34.63,166.17L35.28,165.61L35.93,154.06L36.59,166.03L37.24,164.99L37.89,167L38.55,165.13L39.2,151.7L39.85,155.31L40.51,152.11L41.81,131.45L42.46,133.61L43.77,145.02L44.42,133.05L45.08,146.69L45.73,130.47L47.04,129.22L47.69,121.78L48.34,125.74L49,122.47L49.65,117.32L50.3,118.71L50.96,110.57L51.61,111.62L52.26,110.43L52.92,109.81L53.57,105.15L55.53,95.27L56.18,91.65L58.14,75.09L58.8,86.01L59.45,84.83L60.1,85.87L61.41,80.03L62.06,82.53L62.72,82.25L63.37,86.92L64.02,84.83L64.68,75.09L65.33,82.95L65.98,70.49L66.64,85.32L67.29,78.77L67.94,71.26L68.6,75.09L69.25,76.06L69.9,72.58L70.56,73L71.21,65.41L72.52,74.39L73.17,73.07L74.48,77.24L75.13,67.43L77.09,76.41L77.74,74.74L78.4,73.56L79.05,67.15L79.7,75.09L80.36,73.76L81.01,63.54L81.66,72.23L82.32,62.42L82.97,69.73L83.62,63.81L84.28,67.78L84.93,70.63L85.58,66.74L87.54,58.18L88.2,63.4L88.85,68.82L89.5,68.13L90.16,67.64L90.81,56.44L91.46,69.8L92.77,63.81L93.42,59.43L94.08,58.25L94.73,66.74L95.38,57.69L96.04,58.25L96.69,55.95L97.34,63.12L98,59.57L98.65,64.65L99.3,59.36L99.96,56.93L100.61,62.77L101.92,54.7L102.57,60.34L103.88,54.35L104.53,52.75L105.18,52.89L105.84,60.13L106.49,65.97L107.14,54.84L107.8,43.15L108.45,47.67L109.76,41.41L110.41,41.97L111.06,45.58L111.72,44.61L112.37,46.28L113.02,39.53L114.33,44.61L114.98,49.55L115.64,40.78L116.29,46.28L116.94,48.16L117.6,36.82L118.25,38.63L118.9,36.61L120.21,43.43L120.86,42.87L122.17,38.76L122.82,41.48L123.47,28.88L124.13,44.12L124.78,33.96L125.43,41.34L126.74,34.94L127.39,42.17L128.7,37.3L129.35,41.62L130.66,33.48L131.31,40.16L131.97,40.09L132.62,42.66L133.93,29.79L134.58,31.32L135.89,23.8L136.54,38.9L137.19,31.39L137.85,33.2L138.5,33.96L139.15,37.86L139.81,28.95L140.46,36.26L141.11,27.63L141.77,34.8L142.42,29.51L143.07,30.97L143.73,36.12L144.38,28.33L146.34,40.3L146.99,27.14L148.3,34.03L148.95,32.5L149.61,40.16L150.26,28.33L150.91,31.81L151.57,29.37L152.22,32.5L152.87,30.21L153.53,27.08L154.18,40.64L154.83,27.01L155.49,28.05L156.14,20.95L156.79,32.09L157.45,31.95L158.1,31.04L158.75,27.77L159.41,30.62L160.06,21.37L160.71,25.06L161.37,21.86L162.02,25.13L162.67,27.77L163.33,24.92L163.98,20.88L164.63,24.22L165.29,28.61L165.94,21.37L167.9,29.44L168.55,32.5L169.21,26.66L169.86,29.86L170.51,29.09L171.17,34.45L171.82,35.08L172.47,31.04L173.13,34.73L173.78,27.63L175.74,35.43L176.39,30.21L177.05,27.28L177.7,34.38L179.01,31.39L179.66,32.85L180.31,29.44L180.97,32.43L181.62,25.75L182.27,34.59L183.58,21.65L184.23,30.35L184.89,32.64L185.54,25.2L186.19,21.44L186.85,22.83L187.5,23.32L188.15,29.65L188.81,21.86L189.46,27.56L190.11,26.03L190.77,21.72L191.42,28.33L192.07,26.24L192.73,18.03L193.38,20.81L194.69,30.76L195.34,28.12L195.99,19.21L196.65,24.36L197.3,24.22L197.95,28.54L198.61,23.87L199.26,27.7L199.91,28.75L200.57,18.24L201.22,32.22L201.87,23.11L202.53,33.69L203.18,30.62L205.14,23.8L205.79,30.28L206.44,32.99L207.1,25.41L208.4,22.34L209.06,28.05L209.71,31.18L210.36,30.83L211.02,24.36L211.67,30.07L212.32,23.32L212.98,16.15L213.63,24.15L214.28,21.51L214.94,14.9L215.59,25.89L216.24,15.59L218.2,31.67L218.86,19.35L219.51,26.1L220.16,24.5L221.47,30.42L222.12,19.84L222.78,26.03L223.43,23.8L224.08,32.57L224.74,24.71L225.39,27.01L226.04,26.45L226.7,28.61L227.35,17.75L228.66,23.8L229.31,24.5L229.96,24.22L230.62,21.09L231.27,26.45L231.92,22.48L232.58,31.74L233.23,22.34L233.88,29.23L234.54,26.45L235.19,23.87L235.84,31.81L236.5,18.1L237.15,22.62L238.46,17.19L239.11,24.71L239.76,28.81L240.42,27.77L241.07,24.15L241.72,26.38L242.38,22.76L243.03,24.01L243.68,21.3L244.34,29.02L244.99,22.69L245.64,29.02L247.6,22L248.26,32.29L248.91,23.04L249.56,26.73L250.22,27.14L250.87,32.09L252.18,22L252.83,29.58L253.48,27.14L254.14,21.23L255.44,28.68L256.1,24.78L256.75,23.18L257.4,28.54L258.71,20.19L259.36,20.33L260.02,30.14L260.67,27.42L261.98,23.32L262.63,27.28L263.28,20.53L263.94,25.61L265.24,19.42L265.9,21.02L266.55,20.05L267.2,16.92L267.86,24.99L268.51,20.67L269.16,17.26L269.82,26.45L270.47,17.06L271.12,26.52L271.78,23.18L272.43,12.95L273.08,25.89L273.74,25.75L274.39,27.7L275.04,20.95L275.7,22L276.35,31.67L277,16.92L277.66,26.66L278.31,17.96L278.96,17.4L279.62,21.79L280.27,25.06L280.92,23.67L281.58,22.69L282.23,24.08L282.88,21.23L283.54,23.25L284.84,15.25L285.49,28.05L286.8,18.31L287.45,17.82L289.41,27.77L290.07,30.07L291.37,20.81L292.03,24.5L292.68,27.14L293.33,20.74L293.99,15.59L294.64,24.08L295.95,24.01L296.6,25.13L297.91,29.16L298.56,17.96L299.21,24.57L299.87,24.22L300.52,27.63L301.17,22L301.83,24.5L302.48,26.38L303.13,24.85L304.44,26.87L305.09,23.74L306.4,26.94L307.05,20.46L308.36,29.16L309.01,27.42L309.67,25.47L310.32,27.28L310.97,25.06L311.63,28.75L313.59,22.76L314.24,27.01L315.55,16.92L316.2,24.99L316.85,18.66L317.51,22.27L318.16,20.46L318.81,22.27L319.47,20.12L320.12,24.36L320.77,24.71L321.43,23.11L322.08,25.41L322.73,22.27L324.04,29.16L324.69,16.08L325.35,23.32L326,23.18L326,131.45L325.35,133.47L324.69,127.48L324.04,131.1L323.39,129.57L322.73,129.64L322.08,130.54L321.43,135.83L320.77,132.28L320.12,127.55L319.47,132.98L318.81,126.65L318.16,129.64L316.85,126.86L316.2,123.79L315.55,127.27L314.89,124.28L314.24,121.92L313.59,128.25L312.93,122.75L312.28,129.71L311.63,125.26L310.97,128.04L310.32,129.85L309.67,128.67L308.36,124.35L307.71,124.63L307.05,127.27L306.4,130.2L305.75,123.59L303.79,131.1L303.13,127.2L302.48,131.87L301.83,123.1L301.17,123.17L300.52,131.59L299.87,126.23L299.21,130.33L298.56,125.53L297.91,127.55L297.25,128.94L296.6,123.24L295.95,130.13L295.29,125.95L294.64,120.66L293.99,123.17L293.33,119.48L292.68,120.52L292.03,116.91L291.37,128.11L290.07,122.19L289.41,122.75L288.76,116.84L288.11,117.74L287.45,123.1L286.8,126.09L286.15,118.85L285.49,116.14L284.84,120.8L284.19,120.25L283.54,116.42L282.88,119.69L282.23,118.44L280.92,117.04L280.27,124L279.62,120.11L278.96,120.32L278.31,117.95L277.66,116.98L277,112.38L275.7,115.31L275.04,123.66L273.08,113.57L272.43,122.54L271.78,115.1L271.12,120.11L270.47,118.85L269.82,119.48L268.51,115.1L267.86,116.63L267.2,117.6L266.55,121.15L265.24,114.89L264.59,115.58L263.94,116.77L263.28,110.43L262.63,108.69L261.98,109.18L261.32,117.25L260.67,116.42L260.02,113.01L259.36,113.43L258.71,119.34L258.06,121.64L257.4,119.76L256.75,119.62L256.1,118.37L255.44,116.42L254.79,111.41L254.14,111.9L253.48,119.34L252.18,115.58L251.52,118.09L250.22,114.12L249.56,115.1L248.26,122.05L247.6,118.02L246.95,119.55L246.3,118.51L245.64,122.19L244.99,115.58L244.34,117.53L243.68,114.82L243.03,128.53L242.38,117.6L241.72,109.46L241.07,125.05L240.42,114.96L239.76,127.9L238.46,113.91L237.8,119.13L237.15,121.43L236.5,119.69L235.84,119.41L235.19,112.1L234.54,115.58L233.88,114.05L233.23,116.35L232.58,116.14L231.92,117.53L231.27,123.1L230.62,115.58L229.31,118.16L228.66,117.39L228,120.59L227.35,115.93L226.7,115.72L226.04,114.19L224.74,119.41L224.08,111.27L222.78,122.12L222.12,120.38L220.82,114.47L220.16,123.45L219.51,124.56L218.86,121.99L216.9,125.6L216.24,114.33L213.63,130.89L212.98,125.19L212.32,122.89L211.67,129.08L211.02,124.84L210.36,129.64L209.06,121.78L208.4,123.86L207.75,120.8L207.1,126.65L205.14,117.18L204.48,122.26L203.83,125.46L203.18,121.15L202.53,126.58L201.87,123.52L201.22,127.48L200.57,124.21L199.91,120.25L199.26,125.12L198.61,117.32L197.95,123.31L196.65,119.83L195.99,115.65L195.34,126.3L194.69,110.71L194.03,126.16L193.38,119.55L192.73,127.9L192.07,121.43L191.42,124.63L190.77,133.4L190.11,112.8L189.46,124.35L188.15,115.65L187.5,127.97L186.85,129.57L186.19,120.73L185.54,125.39L184.89,120.66L184.23,118.09L183.58,126.16L182.93,121.78L182.27,127.48L181.62,122.54L180.97,124.21L180.31,129.64L179.66,119.76L179.01,118.09L178.35,125.53L177.7,124.28L177.05,125.67L175.09,119.34L174.43,121.43L173.78,128.8L173.13,117.81L172.47,124.98L171.82,118.37L171.17,122.4L170.51,118.3L168.55,130.89L167.9,122.4L167.25,118.71L166.59,121.78L165.94,129.01L165.29,120.8L164.63,136.74L163.98,127.27L163.33,127.34L162.67,124.07L162.02,132.56L161.37,123.1L158.75,136.67L158.1,123.38L157.45,134.09L156.79,123.17L156.14,121.64L155.49,126.79L154.83,138.34L154.18,131.03L153.53,135L152.87,130.06L152.22,121.29L151.57,129.78L150.91,134.93L150.26,133.47L149.61,128.46L148.95,135.62L148.3,137.08L147.65,131.24L146.99,124.7L146.34,136.95L145.03,133.67L144.38,134.23L143.73,118.65L143.07,131.94L141.77,129.64L141.11,133.4L139.81,141.05L139.15,138.62L138.5,131.1L137.85,132.35L137.19,133.12L136.54,126.16L135.89,126.37L135.23,128.53L134.58,135.48L133.93,129.85L133.27,126.51L132.62,130.61L131.97,135.07L131.31,134.16L130.66,136.39L130.01,135.34L129.35,135.34L128.7,136.32L128.05,129.22L127.39,133.74L126.74,129.71L126.09,130.13L125.43,141.61L124.78,139.1L124.13,143.97L123.47,141.4L122.82,143.42L122.17,143.07L121.52,140.84L120.86,142.37L120.21,145.78L119.56,144.67L118.9,149.82L118.25,149.33L117.6,151L116.94,158.59L116.29,149.75L115.64,151.7L114.98,157.33L114.33,150.03L113.68,154.55L113.02,156.78L112.37,164.43L111.06,155.25L110.41,158.72L109.76,152.11L109.1,157.12L108.45,158.24L107.8,165.27L107.14,160.67L106.49,163.66L105.18,157.75L104.53,159.49L103.88,170.76L103.22,167.56L102.57,165.2L101.92,167.07L100.61,170.55L99.96,165.82L99.3,176.68L98.65,168.4L97.34,179.46L96.69,175.91L96.04,182.03L95.38,170.97L94.73,171.95L94.08,186.35L93.42,185.37L92.77,193.38L91.46,185.37L90.81,186.63L90.16,189.69L89.5,186.35L88.2,198.18L87.54,183.5L86.89,196.3L86.24,192.05L85.58,200.96L84.93,197.9L84.28,189.48L83.62,199.08L82.97,196.23L82.32,203.19L81.66,202.35L81.01,206.46L79.7,212.79L79.05,205.41L78.4,206.32L77.74,215.36L77.09,211.82L76.44,217.52L75.13,211.95L74.48,222.11L73.82,217.03L73.17,226.08L71.86,229.56L71.21,233.04L70.56,230.67L69.9,234.99L68.6,232.97L67.94,230.32L65.98,236.73L65.33,239.09L64.68,236.17L64.02,239.09L62.72,237.21L62.06,230.46L60.76,236.1L60.1,237.07L58.8,240.21L58.14,238.74L57.49,239.02L56.84,240.9L56.18,236.93L55.53,240.48L54.88,239.09L54.22,239.72L53.57,238.88L52.92,241.67L52.26,242.57L51.61,241.46L50.3,241.25L49.65,238.6L49,239.51L48.34,238.6L47.69,241.53L47.04,240.55L46.38,240.27L45.73,242.15L45.08,240.62L44.42,242.01L43.12,242.29L42.46,242.78L40.51,242.78L39.85,243.34L37.89,242.71L37.24,243.34L36.59,242.71L35.93,243.13L34.63,243.61L33.97,242.85L32.01,243.55L31.36,243.55L28.75,243.89L28.09,243.61L24.83,244.1L24.17,243.82L22.21,243.89L21.56,244.1L0,244.38" style="vector-effect: non-scaling-stroke; fill: none; stroke: rgb(0, 0, 0); stroke-opacity: 0; stroke-width: 2px; opacity: 1;"/></g><g class="points"/><g class="text"/></g></g></g><g class="overplot"/><path class="xlines-above crisp" d="M0,0" style="fill: none;"/><path class="ylines-above crisp" d="M0,0" style="fill: none;"/><g class="overlines-above"/><g class="xaxislayer-above"><g class="xtick"><text text-anchor="middle" x="0" y="272" transform="translate(165.45,0)" style="font-family: 'Latin Modern Roman'; font-size: 12px; fill: rgb(0, 0, 0); fill-opacity: 1; white-space: pre;">20M</text></g><g class="xtick"><text text-anchor="middle" x="0" y="272" transform="translate(293.55,0)" style="font-family: 'Latin Modern Roman'; font-size: 12px; fill: rgb(0, 0, 0); fill-opacity: 1; white-space: pre;">40M</text></g></g><g class="yaxislayer-above"><g class="ytick"><text text-anchor="end" x="37" y="4.199999999999999" transform="translate(0,246.05)" style="font-family: 'Latin Modern Roman'; font-size: 12px; fill: rgb(0, 0, 0); fill-opacity: 1; white-space: pre;">0</text></g><g class="ytick"><text text-anchor="end" x="37" y="4.199999999999999" transform="translate(0,190.38)" style="font-family: 'Latin Modern Roman'; font-size: 12px; fill: rgb(0, 0, 0); fill-opacity: 1; white-space: pre;">10</text></g><g class="ytick"><text text-anchor="end" x="37" y="4.199999999999999" transform="translate(0,134.72)" style="font-family: 'Latin Modern Roman'; font-size: 12px; fill: rgb(0, 0, 0); fill-opacity: 1; white-space: pre;">20</text></g><g class="ytick"><text text-anchor="end" x="37" y="4.199999999999999" transform="translate(0,79.05)" style="font-family: 'Latin Modern Roman'; font-size: 12px; fill: rgb(0, 0, 0); fill-opacity: 1; white-space: pre;">30</text></g><g class="ytick"><text text-anchor="end" x="37" y="4.199999999999999" transform="translate(0,23.39)" style="font-family: 'Latin Modern Roman'; font-size: 12px; fill: rgb(0, 0, 0); fill-opacity: 1; white-space: pre;">40</text></g></g><g class="overaxes-above"/></g></g><g class="polarlayer"/><g class="ternarylayer"/><g class="geolayer"/><g class="funnelarealayer"/><g class="pielayer"/><g class="treemaplayer"/><g class="sunburstlayer"/><g class="glimages"/><defs id="topdefs-694e5a"><g class="clips"/><clipPath id="legend694e5a"><rect width="229" height="48" x="0" y="0"/></clipPath></defs><g class="layer-above"><g class="imagelayer"/><g class="shapelayer"/></g><g class="infolayer"><g class="legend" pointer-events="all" transform="translate(370.52,0)"><rect class="bg" shape-rendering="crispEdges" style="stroke: rgb(68, 68, 68); stroke-opacity: 1; fill: rgb(255, 255, 255); fill-opacity: 1; stroke-width: 0px;" width="229" height="48" x="0" y="0"/><g class="scrollbox" transform="" clip-path="url('#legend694e5a')"><g class="groups"><g class="traces" transform="translate(0,14.5)" style="opacity: 1;"><text class="legendtext" text-anchor="start" x="40" y="4.680000000000001" style="font-family: 'Latin Modern Roman'; font-size: 12px; fill: rgb(0, 0, 0); fill-opacity: 1; white-space: pre;">Bayesian agg. (single space) (n=2)</text><g class="layers" style="opacity: 1;"><g class="legendfill"/><g class="legendlines"><path class="js-line" d="M5,0h30" style="fill: none; stroke: rgb(99, 110, 250); stroke-opacity: 1; stroke-width: 2px;"/></g><g class="legendsymbols"><g class="legendpoints"/></g></g><rect class="legendtoggle" x="0" y="-9.5" width="223.078125" height="19" style="fill: rgb(0, 0, 0); fill-opacity: 0;"/></g><g class="traces" transform="translate(0,33.5)" style="opacity: 1;"><text class="legendtext" text-anchor="start" x="40" y="4.680000000000001" style="font-family: 'Latin Modern Roman'; font-size: 12px; fill: rgb(0, 0, 0); fill-opacity: 1; white-space: pre;">Bayesian agg. (sep. spaces) (n=40)</text><g class="layers" style="opacity: 1;"><g class="legendfill"/><g class="legendlines"><path class="js-line" d="M5,0h30" style="fill: none; stroke: rgb(239, 85, 59); stroke-opacity: 1; stroke-width: 2px;"/></g><g class="legendsymbols"><g class="legendpoints"/></g></g><rect class="legendtoggle" x="0" y="-9.5" width="223.078125" height="19" style="fill: rgb(0, 0, 0); fill-opacity: 0;"/></g></g></g><rect class="scrollbar" rx="20" ry="3" width="0" height="0" style="fill: rgb(128, 139, 164); fill-opacity: 1;" x="0" y="0"/></g><g class="g-gtitle"/><g class="g-xtitle" transform="translate(0,-3.8000000000000114)"><text class="xtitle" x="201" y="299.8" text-anchor="middle" style="font-family: 'Latin Modern Roman'; font-size: 14px; fill: rgb(0, 0, 0); opacity: 1; font-weight: normal; white-space: pre;">Agent Steps</text></g><g class="g-ytitle" transform="translate(15.8154296875,0)"><text class="ytitle" transform="rotate(-90,0.18437500000000284,129.5)" x="0.18437500000000284" y="129.5" text-anchor="middle" style="font-family: 'Latin Modern Roman'; font-size: 14px; fill: rgb(0, 0, 0); opacity: 1; font-weight: normal; white-space: pre;">Avg. Reward</text></g></g></svg>