<svg class="main-svg" xmlns="http://www.w3.org/2000/svg" xmlns:xlink="http://www.w3.org/1999/xlink" width="700" height="500" style="" viewBox="0 0 700 500"><rect x="0" y="0" width="700" height="500" style="fill: rgb(255, 255, 255); fill-opacity: 1;"/><defs id="defs-91920d"><g class="clips"><clipPath id="clip91920dxyplot" class="plotclip"><rect width="435" height="320"/></clipPath><clipPath class="axesclip" id="clip91920dx"><rect x="80" y="0" width="435" height="500"/></clipPath><clipPath class="axesclip" id="clip91920dy"><rect x="0" y="100" width="700" height="320"/></clipPath><clipPath class="axesclip" id="clip91920dxy"><rect x="80" y="100" width="435" height="320"/></clipPath></g><g class="gradients"/></defs><g class="bglayer"><rect class="bg" x="80" y="100" width="435" height="320" style="fill: rgb(229, 236, 246); fill-opacity: 1; stroke-width: 0;"/></g><g class="layer-below"><g class="imagelayer"/><g class="shapelayer"/></g><g class="cartesianlayer"><g class="subplot xy"><g class="layer-subplot"><g class="shapelayer"/><g class="imagelayer"/></g><g class="gridlayer"><g class="x"><path class="xgrid crisp" transform="translate(164.59,0)" d="M0,100v320" style="stroke: rgb(255, 255, 255); stroke-opacity: 1; stroke-width: 1px;"/><path class="xgrid crisp" transform="translate(250.06,0)" d="M0,100v320" style="stroke: rgb(255, 255, 255); stroke-opacity: 1; stroke-width: 1px;"/><path class="xgrid crisp" transform="translate(335.52,0)" d="M0,100v320" style="stroke: rgb(255, 255, 255); stroke-opacity: 1; stroke-width: 1px;"/><path class="xgrid crisp" transform="translate(420.99,0)" d="M0,100v320" style="stroke: rgb(255, 255, 255); stroke-opacity: 1; stroke-width: 1px;"/><path class="xgrid crisp" transform="translate(506.45,0)" d="M0,100v320" style="stroke: rgb(255, 255, 255); stroke-opacity: 1; stroke-width: 1px;"/></g><g class="y"><path class="ygrid crisp" transform="translate(0,399.24)" d="M80,0h435" style="stroke: rgb(255, 255, 255); stroke-opacity: 1; stroke-width: 1px;"/><path class="ygrid crisp" transform="translate(0,341.53999999999996)" d="M80,0h435" style="stroke: rgb(255, 255, 255); stroke-opacity: 1; stroke-width: 1px;"/><path class="ygrid crisp" transform="translate(0,283.85)" d="M80,0h435" style="stroke: rgb(255, 255, 255); stroke-opacity: 1; stroke-width: 1px;"/><path class="ygrid crisp" transform="translate(0,226.16)" d="M80,0h435" style="stroke: rgb(255, 255, 255); stroke-opacity: 1; stroke-width: 1px;"/><path class="ygrid crisp" transform="translate(0,168.47)" d="M80,0h435" style="stroke: rgb(255, 255, 255); stroke-opacity: 1; stroke-width: 1px;"/></g></g><g class="zerolinelayer"><path class="yzl zl crisp" transform="translate(0,110.78)" d="M80,0h435" style="stroke: rgb(255, 255, 255); stroke-opacity: 1; stroke-width: 2px;"/></g><path class="xlines-below"/><path class="ylines-below"/><g class="overlines-below"/><g class="xaxislayer-below"/><g class="yaxislayer-below"/><g class="overaxes-below"/><g class="plot" transform="translate(80,100)" clip-path="url('#clip91920dxyplot')"><g class="scatterlayer mlayer"><g class="trace scatter trace909931" style="stroke-miterlimit: 2; opacity: 1;"><g class="fills"/><g class="errorbars"/><g class="lines"><path class="js-line" d="M0,250.02L0.87,257.65L1.74,235L2.62,238.24L3.49,212.58L5.23,238.86L6.1,225.71L6.97,221.85L7.85,226.07L10.46,166.55L11.33,157.84L13.08,143.28L13.95,138.89L14.82,135.56L15.69,141.31L18.31,131.52L19.18,131.52L20.92,125.52L21.79,120.16L22.67,118.03L23.54,123.76L25.28,116.98L26.15,124.69L27.02,112.26L27.9,120.04L29.64,111.38L30.51,115.24L34,104.82L34.87,109.52L35.74,106.38L36.61,91.44L37.48,109.99L38.36,101.19L39.23,103.46L40.1,107.88L40.97,99.64L41.84,105.23L44.46,69.31L45.33,100.35L46.2,92.68L47.07,99.45L47.95,95.27L48.82,74.68L49.69,69.54L50.56,74.95L51.43,51.43L52.3,79.57L53.18,66.61L54.05,88.72L54.92,45.14L55.79,51.74L57.54,63.38L58.41,44L59.28,33.81L60.15,64.55L61.02,54.99L61.89,32.39L62.77,28.4L63.64,29.42L65.38,25.5L66.25,25.56L68,30.22L68.87,24.19L69.74,29.33L70.61,23.96L71.48,25.1L72.35,21.08L73.23,27.72L74.1,28.35L75.84,22.8L76.71,27.94L77.59,30.3L78.46,28.09L79.33,22.03L80.2,24.27L81.07,20.09L81.94,23.24L82.82,22.99L83.69,21.83L85.43,20.09L86.3,23.97L87.17,20.14L88.05,21.52L88.92,22.79L89.79,20.4L90.66,24.47L91.53,23.5L92.4,20.99L93.28,22.58L94.15,20.9L95.02,21.21L95.89,19.94L96.76,20.54L97.64,21.61L98.51,20.14L99.38,20.25L100.25,19.31L101.12,21.09L101.99,21.16L102.87,22.41L103.74,18.64L105.48,21.69L106.35,19.51L107.22,19.47L108.1,20.81L109.84,20.47L110.71,21.12L111.58,21.7L112.45,24.91L113.33,22.01L114.2,21.75L115.07,22.19L115.94,20.08L116.81,23.85L117.69,22.69L119.43,21.64L120.3,18.72L121.17,20.95L122.04,20.71L122.92,19.2L123.79,19.94L124.66,17.12L125.53,19.1L128.15,17.6L129.02,18.37L130.76,19.38L131.63,18.79L133.38,20.16L134.25,18.74L135.12,19.47L135.99,18.09L136.86,21.79L137.74,19.23L138.61,19.58L139.48,21.9L140.35,19.16L141.22,19.4L142.09,18.76L142.97,19.73L143.84,18.03L144.71,19.98L146.45,17.45L147.32,18.84L148.2,18.38L149.07,23.66L149.94,18.66L150.81,21.69L151.68,18.96L152.56,19.29L154.3,17.68L155.17,19.62L156.04,19.72L156.91,18.98L157.79,18.05L158.66,20.4L159.53,17.76L160.4,22.04L162.14,17.14L163.02,19.73L164.76,18.39L165.63,17.84L166.5,19.06L167.37,17.18L168.25,16.74L169.12,20.51L169.99,18.18L170.86,18.96L171.73,17.57L172.61,17.92L173.48,17.12L174.35,21.29L175.22,24.15L176.09,17.83L176.96,18.19L177.84,20.37L179.58,18.19L180.45,18.04L181.32,20.68L182.19,18.1L183.07,21.34L183.94,19.99L184.81,18.52L185.68,19.54L187.42,17.69L188.3,17.27L189.17,19.8L190.04,19.93L191.78,21.31L192.66,19.25L193.53,19.19L194.4,20.5L195.27,17.6L196.14,21.48L197.01,18.17L197.89,19.25L198.76,17.64L199.63,19.87L202.24,18.47L203.12,18.34L203.99,22.16L204.86,16.72L205.73,20.91L206.6,17.54L208.35,19.66L209.22,17.15L210.09,17.43L210.96,21.27L211.83,17.47L212.71,18.31L213.58,18.49L214.45,19.44L215.32,17.99L216.19,19.53L217.94,18.64L218.81,19.1L219.68,18.73L220.55,21.39L221.42,19.07L222.29,21.16L223.17,17.89L224.04,18.03L224.91,18.52L225.78,17.66L226.65,20.78L227.53,18.2L229.27,19.58L230.14,17.24L231.01,22.77L231.88,20.46L233.63,17.71L234.5,18.47L235.37,17.96L236.24,18.74L237.11,16.68L237.99,19.05L238.86,20.06L239.73,18.04L240.6,24.94L241.47,16.9L242.34,20.07L243.22,17.57L244.09,18.88L244.96,17.58L245.83,17.52L246.7,19.07L247.58,18.08L248.45,20.61L249.32,18.41L250.19,18.42L251.93,17.58L252.81,18.33L253.68,18.7L254.55,17.96L255.42,18.6L256.29,17.92L257.16,17.11L258.04,18.6L258.91,20.37L259.78,17.7L261.52,18.8L262.39,21.68L263.27,17.95L264.14,20.27L265.01,19.07L265.88,19.75L266.75,17.94L267.63,19.2L268.5,19.62L269.37,17.31L270.24,18.7L271.11,17.9L271.98,16.85L272.86,17.36L273.73,20.79L274.6,18.93L276.34,18.66L277.21,17.36L278.09,18.07L278.96,20.67L279.83,19.04L280.7,19.59L281.57,18.66L282.44,20.04L284.19,17.82L285.06,19.69L285.93,19.51L286.8,16.98L287.68,18.62L288.55,16.1L289.42,19.2L290.29,18.86L291.16,17.62L292.03,17.73L292.91,18.65L293.78,17.62L294.65,20.82L295.52,18.85L296.39,19.87L297.26,18.61L298.14,17.58L299.01,18.35L299.88,22.18L300.75,19.77L302.49,16.48L303.37,19.3L305.11,18.56L305.98,17.89L308.6,19.59L309.47,17.05L310.34,19.02L311.21,17.83L312.08,22.25L312.96,17.54L313.83,18.25L314.7,20.4L315.57,17.9L316.44,17.73L317.31,18.17L318.19,23.16L319.93,17.12L320.8,18.2L321.67,17.18L322.55,17.82L324.29,19.33L325.16,16.33L327.78,18.03L328.65,17.49L329.52,17.66L330.39,16.64L332.13,20.01L333.01,19.77L333.88,18.41L334.75,19.48L335.62,17.11L336.49,18.09L337.36,17.63L338.24,18.57L339.11,19.15L339.98,17.55L340.85,18.54L341.72,17.87L342.6,17.81L343.47,18.7L344.34,17.17L345.21,19.69L346.08,20.69L346.95,17.92L347.83,17.77L348.7,19.86L350.44,18.76L351.31,18.44L353.06,18.76L353.93,17.59L354.8,19.73L355.67,19.56L357.41,19.16L358.29,17.54L360.9,18.5L361.77,17.68L363.52,16.82L364.39,17.77L365.26,19.41L366.13,18.79L367,18.13L367.88,18.99L370.49,17.15L371.36,17.16L372.23,17.52L373.11,19.04L373.98,17.62L374.85,18.12L376.59,18.73L377.46,17.52L379.21,19.28L380.08,18.83L381.82,19.24L382.7,16.24L383.57,19.69L384.44,18.33L385.31,19.51L386.18,17.49L387.05,17.95L387.93,20.83L388.8,18.09L389.67,18.5L390.54,19.32L391.41,17.94L392.28,20.54L393.16,19.38L394.9,18.09L395.77,20.04L396.64,23.27L397.52,16.75L398.39,19.47L399.26,18.39L401,19.61L401.87,17.38L402.75,17.77L403.62,19.02L405.36,18.04L406.23,18.71L407.98,16.06L408.85,16.98L409.72,17.39L410.59,21.32L411.46,16.71L412.33,18.07L413.21,16.38L414.08,17.36L414.95,17.14L415.82,18.1L417.57,16.52L418.44,20.46L419.31,18.2L420.18,18.77L421.05,17.4L421.92,17.92L422.8,18.4L423.67,17.21L424.54,19L425.41,17.7L426.28,18.8L427.15,17.44L428.03,17.82L428.9,19.69L430.64,18.24L431.51,19.06L432.38,18.78L433.26,17.28L434.13,18.8L435,18.4" style="vector-effect: non-scaling-stroke; fill: none; stroke: rgb(99, 110, 250); stroke-opacity: 1; stroke-width: 2px; opacity: 1;"/></g><g class="points"/><g class="text"/></g><g class="trace scatter trace0a918b" style="stroke-miterlimit: 2; opacity: 1;"><g class="fills"/><g class="errorbars"/><g class="lines"><path class="js-line" d="M0,304L2.62,232.26L3.49,252.06L5.23,237.47L6.1,243.78L6.97,228.4L7.85,193.8L8.72,199.27L9.59,164.08L10.46,159.43L11.33,150.18L12.2,142.3L13.08,142.1L13.95,138.79L14.82,145.61L15.69,144.32L16.56,158L17.43,146.74L18.31,149.14L19.18,152.91L20.05,152.93L22.67,116.74L23.54,117.57L24.41,120.38L25.28,114.73L26.15,107.27L27.02,115.96L27.9,115.09L28.77,105.94L29.64,105.53L30.51,92.03L31.38,94.69L32.25,63.29L34,102.21L34.87,93.01L36.61,63.01L37.48,53.54L38.36,40.93L39.23,53.76L40.1,49.49L40.97,38.32L41.84,57.94L42.72,43.88L43.59,60.49L44.46,43.97L45.33,29.15L46.2,28.91L47.95,29.3L48.82,27.72L50.56,28.42L51.43,24.61L52.3,28.37L53.18,27.75L54.05,25.39L54.92,30.46L55.79,21.2L56.66,30.66L58.41,22.34L59.28,25.51L61.89,20.43L62.77,22.03L63.64,24.97L64.51,23.16L65.38,19.52L66.25,21.39L67.12,21.64L68,20.19L70.61,23.9L71.48,18.34L73.23,20.88L74.1,21.67L74.97,20.52L75.84,25.44L76.71,23.44L77.59,23.72L79.33,19.75L80.2,21.71L81.07,20.58L81.94,21.67L82.82,20.03L83.69,22.05L84.56,21.96L85.43,24.53L87.17,21.27L88.05,19.67L88.92,25.22L89.79,19.59L91.53,20.32L92.4,19.26L93.28,19.96L94.15,21.73L95.02,20.73L95.89,24.99L96.76,17.76L97.64,18.39L98.51,21.43L99.38,20.93L100.25,20L101.12,21.32L101.99,18.62L102.87,19.34L103.74,18.68L104.61,20.53L106.35,19.18L107.22,21.9L108.1,18.98L108.97,21.35L110.71,19.41L111.58,21.84L112.45,21.6L113.33,25.87L115.07,19.13L115.94,21.76L116.81,19.62L117.69,21.88L118.56,22.36L119.43,18.75L120.3,21.19L121.17,18.35L122.04,20.32L122.92,19.74L123.79,18.93L124.66,19.75L126.4,18.89L127.27,20.98L129.02,18.24L129.89,20.26L130.76,19.58L131.63,22.59L132.51,18.82L133.38,18.65L134.25,20.17L135.12,18.87L135.99,18.79L136.86,16.7L137.74,18.61L138.61,18.34L140.35,20.71L141.22,16.7L142.09,21.63L142.97,20.09L143.84,19.09L144.71,19.56L146.45,19.16L147.32,17.85L148.2,21.3L149.07,19.11L149.94,18.43L150.81,20.52L151.68,20.02L152.56,17.77L153.43,21.89L154.3,19.48L155.17,19.94L156.04,19.3L156.91,17.78L157.79,18.28L158.66,20.23L159.53,17.86L160.4,18.58L161.27,20.46L163.02,18.43L163.89,18.81L164.76,16.91L165.63,18.51L166.5,19.7L167.37,19.13L168.25,19.69L169.12,18.87L170.86,19.77L171.73,17.83L172.61,20.3L173.48,18.09L174.35,19.44L175.22,19.02L176.09,19.11L176.96,17.83L177.84,18.31L178.71,21.82L180.45,17.14L181.32,18.18L182.19,19.96L183.07,19.78L183.94,20.89L184.81,19.28L185.68,21.07L186.55,18.98L187.42,21.12L188.3,19.06L190.04,17.6L190.91,18.23L191.78,20.49L192.66,17.11L193.53,17.78L194.4,20.36L196.14,18.09L197.01,19.81L197.89,20.14L198.76,21.33L200.5,18.23L201.37,19.52L202.24,18.03L203.12,19.05L203.99,18.01L204.86,19.71L206.6,17.65L207.47,17.82L210.09,19.22L210.96,19.19L211.83,18.37L212.71,19.37L213.58,17.97L214.45,19.7L215.32,17.1L216.19,19.57L217.06,21.38L217.94,16.33L218.81,20.87L219.68,18.86L220.55,19.06L221.42,17.95L222.29,19.48L223.17,18.14L224.91,19.57L225.78,18.89L226.65,16.07L227.53,20.61L228.4,16.88L229.27,18.23L230.14,19.12L231.01,18.49L232.76,20.78L233.63,20.09L234.5,18.73L235.37,19.75L236.24,18.62L237.11,19.56L242.34,17.13L243.22,18.77L244.09,18.76L244.96,17.79L246.7,19.43L247.58,20.96L249.32,16.75L250.19,17.63L251.93,20.14L252.81,20.02L253.68,17.55L254.55,17.91L255.42,19.35L256.29,18.75L257.16,19.96L258.04,19L260.65,20.69L261.52,20.58L264.14,16.45L265.01,18.59L266.75,18.12L267.63,19.12L269.37,18.86L270.24,19.33L271.98,19.71L272.86,17.77L276.34,18.03L277.21,17.21L278.09,17.13L278.96,18.53L279.83,18.35L280.7,19.89L281.57,17.73L282.44,18.94L283.32,17.31L284.19,17.95L285.06,19.49L285.93,19.22L286.8,19.29L287.68,20.91L289.42,19.29L290.29,18.49L291.16,17.87L292.03,18.57L292.91,17.48L293.78,19.32L294.65,20.75L295.52,19.12L296.39,17.2L297.26,18.46L299.01,17.58L299.88,18.15L300.75,19.65L301.62,18L302.49,19.05L303.37,18.07L304.24,17.32L305.11,18.4L305.98,16.78L306.85,18.48L307.73,18.43L308.6,19.87L309.47,17.98L310.34,18.32L312.96,19.53L313.83,17.44L314.7,19.66L315.57,17.43L317.31,19.92L318.19,18.26L319.93,18.59L320.8,18.25L321.67,17.87L322.55,19.76L323.42,16.61L324.29,17.49L325.16,18.37L326.03,18.06L326.9,18.53L327.78,17.86L329.52,18.44L330.39,19.08L332.13,18.3L333.01,19.03L334.75,16.8L335.62,17.99L336.49,17.8L337.36,16.24L338.24,18.95L339.11,17.65L340.85,18.57L341.72,17.64L342.6,17.47L343.47,18.57L345.21,17.59L346.08,17.99L346.95,16.73L347.83,17.25L348.7,16.92L349.57,18.76L350.44,17L351.31,17.09L353.06,19.14L353.93,17.73L354.8,18.28L355.67,16.77L356.54,17.85L357.41,17.72L360.03,19.64L360.9,17.61L363.52,16.85L364.39,18.39L365.26,16.62L366.13,18.51L367,21.12L367.88,17.8L368.75,19.24L369.62,18.51L370.49,17.06L371.36,19.64L372.23,16.6L373.11,18.04L375.72,18.13L376.59,17.45L377.46,18.25L378.34,17.54L380.95,17.61L381.82,17.41L383.57,18.1L384.44,17.41L385.31,18.19L386.18,20.86L388.8,16.59L389.67,17.16L390.54,19.97L391.41,17.94L392.28,17.8L393.16,19.81L394.03,19.13L394.9,17L397.52,19.02L398.39,17.23L399.26,17.92L400.13,17.46L401.87,17.73L402.75,16.82L403.62,16.77L404.49,18.24L405.36,16.26L406.23,18.06L407.98,17.91L408.85,17.02L410.59,18.65L411.46,17.34L413.21,17.17L414.08,19.25L414.95,16.92L415.82,17.72L418.44,18.89L419.31,18.23L420.18,19.09L421.05,17.05L421.92,19.21L422.8,18.69L423.67,17.73L424.54,18.14L425.41,17.71L426.28,18.88L427.15,17.32L428.03,18.43L429.77,16.85L430.64,16L431.51,18.65L432.38,18.07L433.26,17.91L434.13,18.81L435,17.97" style="vector-effect: non-scaling-stroke; fill: none; stroke: rgb(239, 85, 59); stroke-opacity: 1; stroke-width: 2px; opacity: 1;"/></g><g class="points"/><g class="text"/></g><g class="trace scatter trace76fbb6" style="stroke-miterlimit: 2; opacity: 1;"><g class="fills"/><g class="errorbars"/><g class="lines"><path class="js-line" d="M0,301.36L1.74,240.51L2.62,234.33L3.49,235.78L4.36,229.54L5.23,242.66L6.1,228.96L6.97,252.86L7.85,211.1L8.72,171.22L9.59,198.68L10.46,201.27L11.33,188.72L14.82,144.31L15.69,135.28L16.56,132.92L17.43,133.59L19.18,145.03L20.05,134.43L20.92,139.55L21.79,132.08L22.67,135.23L23.54,132.45L24.41,130.71L25.28,131.52L26.15,127.64L27.02,131.74L27.9,126.12L28.77,131.84L29.64,132.27L30.51,106.4L31.38,100.9L32.25,112.24L33.13,113.43L34,108.38L34.87,119.48L35.74,115.52L37.48,98.93L38.36,72.27L39.23,104.96L40.1,106.38L40.97,89.57L41.84,108.09L42.72,103.75L43.59,103.64L44.46,91.47L45.33,100.06L46.2,87.67L47.07,101.09L48.82,78.05L49.69,71.87L50.56,98.31L51.43,54.03L52.3,57.9L53.18,110.22L54.92,57.76L55.79,66.49L56.66,109.71L57.54,94.26L58.41,67.37L59.28,80.39L60.15,81.94L61.02,25.63L62.77,90.11L63.64,102L64.51,65.12L65.38,103.57L66.25,66.28L67.12,75.48L68,96.95L68.87,19.59L69.74,101.7L70.61,66.86L71.48,88.44L72.35,50.63L74.1,98.13L74.97,100.42L76.71,52.43L77.59,77.01L78.46,35.12L79.33,61.54L80.2,108.52L81.07,27.83L81.94,40.31L82.82,83.82L83.69,90.65L84.56,28.63L85.43,52.39L86.3,34.89L87.17,30L88.05,35.18L89.79,67.45L90.66,63.73L91.53,36.72L92.4,45.27L93.28,34.16L94.15,54.36L95.02,28.63L95.89,33.76L96.76,54.21L97.64,25.61L98.51,21.27L99.38,25.06L100.25,29.13L101.12,38.19L101.99,44.47L102.87,22.97L103.74,56.64L104.61,33.43L105.48,31.18L106.35,24.05L107.22,26.13L108.1,23.4L108.97,39.01L109.84,24.59L111.58,32.42L112.45,23.45L113.33,23.77L114.2,36.99L115.94,23.81L116.81,39.92L119.43,25.35L120.3,23.82L121.17,23.97L122.04,20.12L122.92,37.37L123.79,22.98L124.66,23.28L125.53,22.04L126.4,16.44L127.27,22.53L128.15,22.29L129.02,25.76L129.89,21.76L130.76,23.27L131.63,31.61L132.51,21.22L133.38,21.24L134.25,46.45L135.12,19.31L135.99,37.76L137.74,23.66L138.61,37.38L139.48,23.13L140.35,31.49L141.22,25.71L142.09,39.49L142.97,43.78L143.84,22.62L145.58,39.2L146.45,23.05L147.32,29.23L148.2,23.19L149.07,23.73L149.94,21.25L150.81,23.5L151.68,34.9L152.56,21.69L153.43,31L155.17,20.48L156.04,31.68L157.79,21.9L158.66,33.83L159.53,23.48L160.4,26.19L162.14,17.46L163.02,27.68L163.89,23.55L164.76,29.15L165.63,22.39L166.5,28.61L167.37,23.62L168.25,28.9L169.12,20.61L169.99,21.44L171.73,26.34L172.61,19.48L173.48,26.32L174.35,23.2L176.09,20.72L176.96,25.33L178.71,21.49L179.58,23.52L180.45,23.66L181.32,22.31L182.19,24.03L183.07,19.3L183.94,18.12L184.81,20.04L186.55,22.76L187.42,21.42L188.3,20.13L189.17,20.72L190.04,24.19L190.91,19.79L191.78,25.71L192.66,23.44L193.53,22.12L194.4,17.75L195.27,18.82L196.14,22.59L197.01,19.32L197.89,20.78L199.63,19.19L200.5,21.99L201.37,29.02L202.24,23.3L203.12,22.39L203.99,19.58L204.86,21.17L205.73,20.26L206.6,19.14L207.47,21.51L208.35,22.36L209.22,19.01L210.09,23.81L210.96,23.2L211.83,20.59L212.71,21.1L213.58,29.56L214.45,19.2L215.32,20.33L216.19,23.64L217.06,18.41L217.94,19.83L220.55,23.1L221.42,19.78L222.29,18.45L223.17,19.61L224.91,22.99L225.78,19.92L226.65,20.58L227.53,22.22L228.4,18.53L229.27,20.54L230.14,17.16L231.01,21.19L232.76,23.16L233.63,20.8L234.5,19.65L235.37,16.69L237.11,22.7L237.99,19.42L238.86,19.54L239.73,26.07L241.47,18.15L242.34,21.85L243.22,23.46L244.09,19.14L244.96,19.87L245.83,22.13L246.7,20.46L247.58,23.18L248.45,17.89L249.32,22.4L251.06,17.27L251.93,18.37L252.81,26.82L253.68,16.54L255.42,24.24L256.29,18.44L257.16,21.61L258.04,17.78L258.91,16.95L259.78,20.67L260.65,17.84L261.52,20.33L262.39,23.51L263.27,17.94L264.14,21.48L265.01,16.74L265.88,22.02L266.75,16.8L267.63,18.96L268.5,18.18L269.37,19.97L270.24,18.12L271.98,20.12L272.86,18.17L273.73,19.59L274.6,17.38L275.47,19.17L276.34,19.01L278.09,22.15L278.96,20.86L279.83,21.5L280.7,18.13L281.57,19.96L282.44,28.22L283.32,20.95L284.19,21.47L285.93,20.63L286.8,19L287.68,20.69L288.55,19.83L289.42,18.15L290.29,20.48L291.16,22.02L292.03,21.16L292.91,23.17L293.78,17.75L294.65,18.8L295.52,22.51L296.39,22.2L297.26,20.16L298.14,22.04L299.01,17.35L299.88,22.7L300.75,17.67L301.62,19.09L302.49,18.54L303.37,19.91L304.24,18.1L305.11,19.14L305.98,21.51L307.73,17.47L308.6,18.02L309.47,17.61L310.34,21.04L312.08,17.37L312.96,20.86L313.83,23.27L314.7,19.02L316.44,21.3L317.31,20.66L318.19,18.14L319.06,18.8L319.93,21.17L320.8,19.85L321.67,17.36L322.55,20.22L323.42,19.11L324.29,19.64L325.16,27.57L326.03,20.15L326.9,19.99L327.78,26.37L328.65,20.36L329.52,22.75L331.26,17.82L332.13,19.26L333.01,19.41L333.88,18.01L334.75,23.89L335.62,18.9L336.49,21.68L337.36,21.91L339.11,20.79L339.98,19.46L340.85,18.03L341.72,18.34L342.6,18.35L343.47,21.76L344.34,17.99L345.21,20.67L346.95,22.06L347.83,18.86L349.57,20.63L350.44,22.72L353.06,17.37L353.93,21.07L355.67,16.62L356.54,20.29L357.41,19.33L358.29,23.28L359.16,20.48L360.03,20.24L360.9,18.68L361.77,22.8L362.65,18.98L363.52,22.4L364.39,18.51L365.26,18.28L367,22.35L367.88,18.15L368.75,17.86L369.62,24.39L371.36,18.27L372.23,18.88L373.11,18.02L373.98,19.53L374.85,18.51L375.72,19.09L377.46,21.49L378.34,20.28L379.21,18.8L380.08,21.09L380.95,20.97L381.82,18.34L382.7,22.24L383.57,19.02L384.44,20.41L385.31,18.45L386.18,21.24L387.05,18.9L387.93,18.21L388.8,22.08L389.67,18.04L390.54,19.02L391.41,23.62L392.28,18.78L393.16,20.02L394.03,19.71L394.9,21.28L395.77,17.75L396.64,20.33L397.52,17.71L398.39,22.62L399.26,18.73L400.13,18.08L401,19.58L401.87,19.1L402.75,19.88L404.49,18.6L405.36,19.16L406.23,18.47L407.1,20.17L407.98,20.16L408.85,16.9L409.72,18.3L410.59,22.03L411.46,21.5L412.33,17.77L413.21,18.95L414.08,17.31L414.95,24.11L415.82,18.64L417.57,18.33L418.44,18.45L419.31,22.88L420.18,18.52L421.92,17.44L422.8,18.8L423.67,19.19L424.54,18.41L425.41,19.29L426.28,18.17L428.03,20.13L428.9,19.48L429.77,19.29L430.64,20.64L431.51,25.32L432.38,17.61L433.26,17.28L434.13,18.09L435,21.46" style="vector-effect: non-scaling-stroke; fill: none; stroke: rgb(0, 204, 150); stroke-opacity: 1; stroke-width: 2px; opacity: 1;"/></g><g class="points"/><g class="text"/></g><g class="trace scatter trace929031" style="stroke-miterlimit: 2; opacity: 1;"><g class="fills"/><g class="errorbars"/><g class="lines"><path class="js-line" d="M0,278.14L0.87,242.36L1.74,257.93L3.49,211.05L4.36,224.01L5.23,230.03L6.1,251.97L6.97,226.23L7.85,242.99L8.72,239.11L9.59,200.46L10.46,207.52L11.33,193.36L13.08,153.61L13.95,132.45L15.69,139.21L16.56,171.41L17.43,144.22L18.31,145L20.05,160.65L20.92,166.82L21.79,163.9L22.67,148.11L23.54,148.45L24.41,136.71L25.28,133.76L26.15,122.37L27.02,119.98L27.9,137.85L28.77,123.28L29.64,124.39L30.51,114.91L31.38,120.1L32.25,124.65L33.13,123.38L35.74,128.75L36.61,116.1L37.48,118.5L38.36,109.52L39.23,106.69L40.1,116.1L40.97,92.93L41.84,107.74L42.72,105.23L43.59,70.1L44.46,105.48L45.33,100.79L47.07,35.5L47.95,36.81L48.82,36.08L49.69,38.07L51.43,25.53L52.3,25.99L53.18,34.3L54.05,29.86L54.92,21.94L55.79,30.3L56.66,29.06L57.54,24.63L58.41,23.53L59.28,26.16L60.15,29.37L61.02,28.15L61.89,37.4L62.77,26.7L64.51,21.97L65.38,26.72L66.25,35.4L67.12,23.61L68,26.2L68.87,22.7L69.74,24.1L70.61,21.04L71.48,31.94L72.35,26.11L73.23,23.28L74.1,23.85L74.97,25.87L75.84,19.45L76.71,27.68L77.59,24.2L78.46,22.06L79.33,26.71L80.2,26.65L81.07,23.33L81.94,20.15L82.82,25.75L84.56,20.91L85.43,23.84L87.17,23.71L88.05,19.26L88.92,19.58L89.79,24.56L90.66,30.16L91.53,26.28L93.28,20.01L94.15,22.33L95.02,22.21L95.89,21.18L96.76,26.23L97.64,20.61L98.51,22.57L99.38,21.76L100.25,21.96L101.12,19.54L101.99,20.33L102.87,26.58L104.61,19.83L105.48,21.96L106.35,23.26L107.22,22.7L108.1,20.19L108.97,21.03L110.71,19.49L111.58,20.45L112.45,18.91L113.33,20.35L114.2,22.06L115.07,20.6L115.94,19.62L116.81,19.81L117.69,24.47L118.56,22.9L119.43,22.16L120.3,19.98L121.17,20.36L122.04,18.33L122.92,23.14L123.79,20.49L124.66,17.68L125.53,20.99L126.4,19.49L127.27,22.12L128.15,23.35L129.02,16.58L130.76,20.41L131.63,17.83L132.51,20.64L133.38,18.66L135.12,20.34L135.99,19.94L136.86,21.83L137.74,21.9L138.61,21.76L139.48,18.22L140.35,19.21L141.22,18.86L142.09,18.34L142.97,20.72L143.84,19.64L144.71,20.54L145.58,20.83L146.45,22.51L147.32,18.22L148.2,19.06L149.07,21.49L149.94,26.45L150.81,18.29L151.68,17.69L152.56,19.47L153.43,18.23L155.17,19.14L156.04,21.81L156.91,19.01L157.79,20.5L160.4,19.48L161.27,18.26L162.14,17.58L163.02,18.39L164.76,19.09L165.63,20.25L166.5,18.13L167.37,23.24L168.25,18.31L169.12,22.71L170.86,17.28L171.73,19.41L172.61,20.89L173.48,18.53L174.35,21.79L175.22,17.36L176.09,20.02L176.96,17.29L177.84,17.23L178.71,22.01L180.45,22.28L181.32,22.62L183.07,18.76L183.94,18.26L184.81,24.09L185.68,19.06L186.55,17.08L187.42,20.3L188.3,19.64L189.17,17.99L191.78,19.58L192.66,17.56L193.53,17.65L194.4,20.52L195.27,18.54L196.14,23.41L197.01,18.76L197.89,20.13L198.76,18.45L199.63,18.6L200.5,19.61L201.37,16.99L203.12,21.03L203.99,16.2L205.73,20.54L206.6,17.75L207.47,19.99L208.35,18.86L209.22,16.83L210.09,20.07L212.71,18.15L213.58,19.97L215.32,18.64L216.19,18.78L217.06,17.35L217.94,19.16L218.81,17.96L219.68,19.66L220.55,17.78L221.42,17.82L222.29,22.96L223.17,21.21L224.04,18.05L224.91,18.54L226.65,16.88L227.53,18.16L229.27,16.6L230.14,20.91L231.01,17.53L231.88,17.66L232.76,17.18L233.63,18.81L234.5,20.28L235.37,17.48L236.24,20.17L237.11,18.95L237.99,16.96L238.86,18.87L240.6,22.3L241.47,18.83L243.22,17.31L244.09,19.48L244.96,19.96L245.83,16.16L246.7,20.18L247.58,19.41L249.32,17.11L250.19,17.89L251.06,17.29L251.93,20.12L252.81,16.57L253.68,16.29L255.42,19.64L256.29,19.76L257.16,17.62L258.04,23.21L259.78,16.07L260.65,17.22L261.52,19.44L262.39,18.46L263.27,21.56L264.14,20.38L265.01,18.74L265.88,19.71L266.75,17.43L267.63,18.21L268.5,20.69L269.37,18.12L271.11,19.43L271.98,18.61L272.86,18.12L273.73,20.41L274.6,18.96L275.47,20.19L276.34,16.92L277.21,18.62L278.96,19.03L279.83,18.04L280.7,18.77L281.57,16.49L283.32,18.73L284.19,18.74L285.06,19.91L285.93,16.13L286.8,21.28L287.68,19.56L288.55,17.62L289.42,19.55L290.29,19.94L291.16,23L292.03,24.33L292.91,19.62L293.78,17.96L294.65,17.94L295.52,16.11L296.39,16.83L297.26,18.33L298.14,18.09L299.01,17.17L299.88,22.54L301.62,17.33L302.49,18.87L304.24,20.33L305.11,18.43L305.98,18.83L306.85,17.91L307.73,18.49L308.6,17.7L309.47,26.82L310.34,17.41L311.21,20.09L312.08,19.05L312.96,20.17L313.83,17.81L314.7,18.15L315.57,17.57L317.31,18.02L318.19,18.14L319.06,17.6L319.93,18.96L320.8,21.62L321.67,18.51L322.55,19.98L323.42,18.53L325.16,18.34L326.03,16.23L326.9,19.85L327.78,18.89L328.65,18.81L329.52,17.59L330.39,17.43L331.26,18.56L332.13,20.7L333.01,18.23L333.88,18.61L334.75,16.69L335.62,18.53L336.49,18.38L337.36,18.21L338.24,19.33L339.11,17.37L339.98,20.13L343.47,18.14L344.34,19L346.08,17.48L346.95,21.2L347.83,17.53L348.7,18.36L349.57,17.15L350.44,18.85L351.31,18.51L352.18,22.82L353.06,16.49L353.93,21.12L354.8,17.16L355.67,18L356.54,16.54L357.41,19.79L359.16,17.22L360.03,18.41L360.9,20.84L361.77,19.02L362.65,17.55L363.52,18.78L364.39,17.19L365.26,18.5L366.13,17.97L367,16.45L367.88,19.03L368.75,17.48L369.62,18.54L370.49,18L371.36,17.32L372.23,19.14L373.11,19.12L373.98,25.54L374.85,16.65L375.72,17.55L376.59,18.44L377.46,17L378.34,20.42L379.21,17.94L380.08,20.97L380.95,16.73L381.82,20.62L382.7,19.22L383.57,19.43L384.44,18.14L386.18,19.96L387.05,18.48L388.8,18.52L389.67,20.29L390.54,16.14L391.41,17.6L392.28,17.4L393.16,18.45L394.03,19.56L394.9,18.48L396.64,17.32L397.52,19.02L398.39,16.01L399.26,20.08L400.13,18.38L401,19L402.75,17.65L403.62,18.91L404.49,16.23L405.36,19.44L406.23,16.22L407.1,17.52L407.98,16.4L408.85,17.58L409.72,16.74L410.59,17.8L412.33,17.4L413.21,17.86L416.69,18.92L417.57,18.14L418.44,17.18L419.31,18.01L420.18,16.36L421.05,21.36L421.92,16.86L422.8,17.63L423.67,17.17L424.54,18.07L425.41,17.87L426.28,18.69L428.03,16.16L428.9,18.47L429.77,16.81L430.64,17.86L431.51,19.66L432.38,16.64L434.13,18.83L435,16.8" style="vector-effect: non-scaling-stroke; fill: none; stroke: rgb(171, 99, 250); stroke-opacity: 1; stroke-width: 2px; opacity: 1;"/></g><g class="points"/><g class="text"/></g></g></g><g class="overplot"/><path class="xlines-above crisp" d="M0,0" style="fill: none;"/><path class="ylines-above crisp" d="M0,0" style="fill: none;"/><g class="overlines-above"/><g class="xaxislayer-above"><g class="xtick"><text text-anchor="middle" x="0" y="433" transform="translate(164.59,0)" style="font-family: 'Latin Modern Roman'; font-size: 12px; fill: rgb(0, 0, 0); fill-opacity: 1; white-space: pre;">10M</text></g><g class="xtick"><text text-anchor="middle" x="0" y="433" transform="translate(250.06,0)" style="font-family: 'Latin Modern Roman'; font-size: 12px; fill: rgb(0, 0, 0); fill-opacity: 1; white-space: pre;">20M</text></g><g class="xtick"><text text-anchor="middle" x="0" y="433" transform="translate(335.52,0)" style="font-family: 'Latin Modern Roman'; font-size: 12px; fill: rgb(0, 0, 0); fill-opacity: 1; white-space: pre;">30M</text></g><g class="xtick"><text text-anchor="middle" x="0" y="433" transform="translate(420.99,0)" style="font-family: 'Latin Modern Roman'; font-size: 12px; fill: rgb(0, 0, 0); fill-opacity: 1; white-space: pre;">40M</text></g><g class="xtick"><text text-anchor="middle" x="0" y="433" transform="translate(506.45,0)" style="font-family: 'Latin Modern Roman'; font-size: 12px; fill: rgb(0, 0, 0); fill-opacity: 1; white-space: pre;">50M</text></g></g><g class="yaxislayer-above"><g class="ytick"><text text-anchor="end" x="79" y="4.199999999999999" transform="translate(0,399.24)" style="font-family: 'Latin Modern Roman'; font-size: 12px; fill: rgb(0, 0, 0); fill-opacity: 1; white-space: pre;">−250</text></g><g class="ytick"><text text-anchor="end" x="79" y="4.199999999999999" transform="translate(0,341.53999999999996)" style="font-family: 'Latin Modern Roman'; font-size: 12px; fill: rgb(0, 0, 0); fill-opacity: 1; white-space: pre;">−200</text></g><g class="ytick"><text text-anchor="end" x="79" y="4.199999999999999" transform="translate(0,283.85)" style="font-family: 'Latin Modern Roman'; font-size: 12px; fill: rgb(0, 0, 0); fill-opacity: 1; white-space: pre;">−150</text></g><g class="ytick"><text text-anchor="end" x="79" y="4.199999999999999" transform="translate(0,226.16)" style="font-family: 'Latin Modern Roman'; font-size: 12px; fill: rgb(0, 0, 0); fill-opacity: 1; white-space: pre;">−100</text></g><g class="ytick"><text text-anchor="end" x="79" y="4.199999999999999" transform="translate(0,168.47)" style="font-family: 'Latin Modern Roman'; font-size: 12px; fill: rgb(0, 0, 0); fill-opacity: 1; white-space: pre;">−50</text></g><g class="ytick"><text text-anchor="end" x="79" y="4.199999999999999" transform="translate(0,110.78)" style="font-family: 'Latin Modern Roman'; font-size: 12px; fill: rgb(0, 0, 0); fill-opacity: 1; white-space: pre;">0</text></g></g><g class="overaxes-above"/></g></g><g class="polarlayer"/><g class="ternarylayer"/><g class="geolayer"/><g class="funnelarealayer"/><g class="pielayer"/><g class="treemaplayer"/><g class="sunburstlayer"/><g class="glimages"/><defs id="topdefs-91920d"><g class="clips"/><clipPath id="legend91920d"><rect width="164" height="86" x="0" y="0"/></clipPath></defs><g class="layer-above"><g class="imagelayer"/><g class="shapelayer"/></g><g class="infolayer"><g class="legend" pointer-events="all" transform="translate(523.7,100)"><rect class="bg" shape-rendering="crispEdges" width="164" height="86" x="0" y="0" style="stroke: rgb(68, 68, 68); stroke-opacity: 1; fill: rgb(255, 255, 255); fill-opacity: 1; stroke-width: 0px;"/><g class="scrollbox" transform="" clip-path="url('#legend91920d')"><g class="groups"><g class="traces" transform="translate(0,14.5)" style="opacity: 1;"><text class="legendtext" text-anchor="start" x="40" y="4.680000000000001" style="font-family: 'Latin Modern Roman'; font-size: 12px; fill: rgb(0, 0, 0); fill-opacity: 1; white-space: pre;">ppo, mean agg (n=16)</text><g class="layers" style="opacity: 1;"><g class="legendfill"/><g class="legendlines"><path class="js-line" d="M5,0h30" style="fill: none; stroke: rgb(99, 110, 250); stroke-opacity: 1; stroke-width: 2px;"/></g><g class="legendsymbols"><g class="legendpoints"/></g></g><rect class="legendtoggle" x="0" y="-9.5" width="158.359375" height="19" style="fill: rgb(0, 0, 0); fill-opacity: 0;"/></g><g class="traces" transform="translate(0,33.5)" style="opacity: 1;"><text class="legendtext" text-anchor="start" x="40" y="4.680000000000001" style="font-family: 'Latin Modern Roman'; font-size: 12px; fill: rgb(0, 0, 0); fill-opacity: 1; white-space: pre;">trl, mean agg (n=16)</text><g class="layers" style="opacity: 1;"><g class="legendfill"/><g class="legendlines"><path class="js-line" d="M5,0h30" style="fill: none; stroke: rgb(239, 85, 59); stroke-opacity: 1; stroke-width: 2px;"/></g><g class="legendsymbols"><g class="legendpoints"/></g></g><rect class="legendtoggle" x="0" y="-9.5" width="158.359375" height="19" style="fill: rgb(0, 0, 0); fill-opacity: 0;"/></g><g class="traces" transform="translate(0,52.5)" style="opacity: 1;"><text class="legendtext" text-anchor="start" x="40" y="4.680000000000001" style="font-family: 'Latin Modern Roman'; font-size: 12px; fill: rgb(0, 0, 0); fill-opacity: 1; white-space: pre;">ppo, bayes agg (n=8)</text><g class="layers" style="opacity: 1;"><g class="legendfill"/><g class="legendlines"><path class="js-line" d="M5,0h30" style="fill: none; stroke: rgb(0, 204, 150); stroke-opacity: 1; stroke-width: 2px;"/></g><g class="legendsymbols"><g class="legendpoints"/></g></g><rect class="legendtoggle" x="0" y="-9.5" width="158.359375" height="19" style="fill: rgb(0, 0, 0); fill-opacity: 0;"/></g><g class="traces" transform="translate(0,71.5)" style="opacity: 1;"><text class="legendtext" text-anchor="start" x="40" y="4.680000000000001" style="font-family: 'Latin Modern Roman'; font-size: 12px; fill: rgb(0, 0, 0); fill-opacity: 1; white-space: pre;">trl, bayes agg (n=8)</text><g class="layers" style="opacity: 1;"><g class="legendfill"/><g class="legendlines"><path class="js-line" d="M5,0h30" style="fill: none; stroke: rgb(171, 99, 250); stroke-opacity: 1; stroke-width: 2px;"/></g><g class="legendsymbols"><g class="legendpoints"/></g></g><rect class="legendtoggle" x="0" y="-9.5" width="158.359375" height="19" style="fill: rgb(0, 0, 0); fill-opacity: 0;"/></g></g></g><rect class="scrollbar" rx="20" ry="3" width="0" height="0" x="0" y="0" style="fill: rgb(128, 139, 164); fill-opacity: 1;"/></g><g class="g-gtitle"><text class="gtitle" x="35" y="50" text-anchor="start" dy="0em" style="font-family: 'Latin Modern Roman'; font-size: 17px; fill: rgb(0, 0, 0); opacity: 1; font-weight: normal; white-space: pre;">singlepursuit (by train algo and agg method)</text></g><g class="g-xtitle"><text class="xtitle" x="297.5" y="460.8" text-anchor="middle" style="font-family: 'Latin Modern Roman'; font-size: 14px; fill: rgb(0, 0, 0); opacity: 1; font-weight: normal; white-space: pre;">Agent Steps</text></g><g class="g-ytitle"><text class="ytitle" transform="rotate(-90,26.856250000000003,260)" x="26.856250000000003" y="260" text-anchor="middle" style="font-family: 'Latin Modern Roman'; font-size: 14px; fill: rgb(0, 0, 0); opacity: 1; font-weight: normal; white-space: pre;">Avg. Reward</text></g></g></svg>