<svg class="main-svg" xmlns="http://www.w3.org/2000/svg" xmlns:xlink="http://www.w3.org/1999/xlink" width="600" height="300" style="" viewBox="0 0 600 300"><rect x="0" y="0" width="600" height="300" style="fill: rgb(255, 255, 255); fill-opacity: 1;"/><defs id="defs-1321e4"><g class="clips"><clipPath id="clip1321e4xyplot" class="plotclip"><rect width="373" height="259"/></clipPath><clipPath class="axesclip" id="clip1321e4x"><rect x="47" y="0" width="373" height="300"/></clipPath><clipPath class="axesclip" id="clip1321e4y"><rect x="0" y="0" width="600" height="259"/></clipPath><clipPath class="axesclip" id="clip1321e4xy"><rect x="47" y="0" width="373" height="259"/></clipPath></g><g class="gradients"/></defs><g class="bglayer"><rect class="bg" x="47" y="0" width="373" height="259" style="fill: rgb(229, 236, 246); fill-opacity: 1; stroke-width: 0;"/></g><g class="layer-below"><g class="imagelayer"/><g class="shapelayer"/></g><g class="cartesianlayer"><g class="subplot xy"><g class="layer-subplot"><g class="shapelayer"/><g class="imagelayer"/></g><g class="gridlayer"><g class="x"><path class="xgrid crisp" transform="translate(169.20999999999998,0)" d="M0,0v259" style="stroke: rgb(255, 255, 255); stroke-opacity: 1; stroke-width: 1px;"/><path class="xgrid crisp" transform="translate(295.57,0)" d="M0,0v259" style="stroke: rgb(255, 255, 255); stroke-opacity: 1; stroke-width: 1px;"/></g><g class="y"><path class="ygrid crisp" transform="translate(0,254.69)" d="M47,0h373" style="stroke: rgb(255, 255, 255); stroke-opacity: 1; stroke-width: 1px;"/><path class="ygrid crisp" transform="translate(0,234.28)" d="M47,0h373" style="stroke: rgb(255, 255, 255); stroke-opacity: 1; stroke-width: 1px;"/><path class="ygrid crisp" transform="translate(0,205.5)" d="M47,0h373" style="stroke: rgb(255, 255, 255); stroke-opacity: 1; stroke-width: 1px;"/><path class="ygrid crisp" transform="translate(0,156.31)" d="M47,0h373" style="stroke: rgb(255, 255, 255); stroke-opacity: 1; stroke-width: 1px;"/><path class="ygrid crisp" transform="translate(0,148.83)" d="M47,0h373" style="stroke: rgb(255, 255, 255); stroke-opacity: 1; stroke-width: 1px;"/><path class="ygrid crisp" transform="translate(0,140.48)" d="M47,0h373" style="stroke: rgb(255, 255, 255); stroke-opacity: 1; stroke-width: 1px;"/><path class="ygrid crisp" transform="translate(0,131)" d="M47,0h373" style="stroke: rgb(255, 255, 255); stroke-opacity: 1; stroke-width: 1px;"/><path class="ygrid crisp" transform="translate(0,120.06)" d="M47,0h373" style="stroke: rgb(255, 255, 255); stroke-opacity: 1; stroke-width: 1px;"/><path class="ygrid crisp" transform="translate(0,107.12)" d="M47,0h373" style="stroke: rgb(255, 255, 255); stroke-opacity: 1; stroke-width: 1px;"/><path class="ygrid crisp" transform="translate(0,91.29)" d="M47,0h373" style="stroke: rgb(255, 255, 255); stroke-opacity: 1; stroke-width: 1px;"/><path class="ygrid crisp" transform="translate(0,70.87)" d="M47,0h373" style="stroke: rgb(255, 255, 255); stroke-opacity: 1; stroke-width: 1px;"/><path class="ygrid crisp" transform="translate(0,42.1)" d="M47,0h373" style="stroke: rgb(255, 255, 255); stroke-opacity: 1; stroke-width: 1px;"/></g></g><g class="zerolinelayer"/><path class="xlines-below"/><path class="ylines-below"/><g class="overlines-below"/><g class="xaxislayer-below"/><g class="yaxislayer-below"/><g class="overaxes-below"/><g class="plot" transform="translate(47,0)" clip-path="url('#clip1321e4xyplot')"><g class="scatterlayer mlayer"><g class="trace scatter trace24505d" style="stroke-miterlimit: 2; opacity: 1;"><g class="fills"/><g class="errorbars"/><g class="lines"><path class="js-line" d="M0,244.05L4.14,230.61L8.29,227.83L16.58,211.69L20.72,191.79L24.87,151.47L29.01,127.51L37.3,99.45L41.44,93.62L45.59,90.43L49.73,90.69L58.02,73.49L62.17,77.94L66.31,74.13L70.46,68.92L78.74,70.07L82.89,63.72L87.03,61.74L91.18,58.61L95.32,59.57L99.47,58.51L103.61,55.94L107.76,49.26L111.9,52.92L116.04,51.7L120.19,53.25L124.33,46.51L128.48,43.54L132.62,43.52L136.77,41.02L140.91,40.09L145.06,41.87L149.2,39.26L153.34,37.39L157.49,41.44L161.63,37.07L165.78,36.99L169.92,38.21L174.07,35.56L178.21,35.87L182.36,31.59L186.5,35.79L190.64,32.42L194.79,33.75L198.93,29.72L203.08,27.14L207.22,31.4L215.51,28.53L219.66,29.47L223.8,25.87L227.94,29.51L232.09,29.95L236.23,31.32L240.38,33.02L244.52,29.31L248.67,26.33L252.81,31.23L256.96,22.28L261.1,27.71L265.24,30.01L269.39,27.33L273.53,19.69L277.68,22.07L281.82,22.11L285.97,25.69L294.26,22.08L298.4,21.92L302.54,29.56L306.69,23.78L310.83,23.84L314.98,19.19L319.12,27L323.27,28.37L327.41,25.08L331.56,22.82L335.7,28.27L339.84,25.89L348.13,23.92L352.28,24.81L364.71,26.26L368.86,24.96L373,19.71" style="vector-effect: non-scaling-stroke; fill: none; stroke: rgb(99, 110, 250); stroke-opacity: 1; stroke-width: 2px; opacity: 1;"/></g><g class="points"/><g class="text"/></g><g class="trace scatter trace2c578d" style="stroke-miterlimit: 2; opacity: 1;"><g class="fills"><g><path class="js-fill" d="M0,246.05L4.14,241.86L8.29,234.16L12.43,231.68L16.58,218.84L20.72,210.17L24.87,179.78L29.01,149.94L33.16,130.38L41.44,110.55L45.59,105.23L49.73,100.12L53.88,100.1L58.02,81.94L62.17,88.41L66.31,83.82L70.46,80.44L74.6,81.02L78.74,72.74L82.89,74.38L87.03,71.22L91.18,64.11L95.32,66.79L99.47,60.87L103.61,67.6L107.76,56.37L111.9,59.39L116.04,56.14L120.19,60.76L124.33,57.92L128.48,49.01L132.62,46.5L136.77,50.59L140.91,47.21L145.06,47.04L149.2,43.14L153.34,44.9L161.63,41.18L165.78,43.55L174.07,41.53L178.21,41.26L182.36,37.65L186.5,41.6L190.64,36.76L194.79,36.83L203.08,36.51L207.22,33.57L215.51,36.49L219.66,35.9L223.8,36.21L227.94,34.1L236.23,37.97L240.38,35.89L244.52,36.48L248.67,31.95L252.81,34.59L256.96,33.42L261.1,31.63L265.24,32.9L269.39,32.91L273.53,26L277.68,28.24L281.82,37L285.97,30.39L290.11,28.85L294.26,31.08L298.4,30.75L302.54,32.03L306.69,28.32L310.83,30.99L314.98,29.31L319.12,28.38L323.27,31.12L331.56,29.37L335.7,35.13L339.84,29.65L343.99,29.59L348.13,27.87L352.28,27.46L356.42,31.22L360.57,33.04L364.71,31.42L368.86,28.79L373,23.94L373,16.54L364.71,20.86L360.57,19.59L356.42,21.09L352.28,17.45L348.13,17.41L343.99,19.53L339.84,17.84L335.7,21.51L331.56,15.94L327.41,18.19L323.27,23.41L319.12,12.95L306.69,20.69L302.54,21.48L298.4,14.43L294.26,18.8L290.11,18.99L285.97,20.72L281.82,17.91L277.68,18.84L273.53,14.38L269.39,22.46L265.24,19.65L261.1,24.71L256.96,18.59L252.81,25.3L248.67,21.22L244.52,23.9L240.38,26.46L236.23,20.84L232.09,20.54L227.94,26.23L223.8,22.28L219.66,22.93L215.51,24.74L211.37,23.88L207.22,26.19L203.08,19.39L194.79,29.83L190.64,22.85L186.5,28.23L182.36,25.96L178.21,33.06L174.07,32.83L169.92,28.67L165.78,30.59L161.63,32.59L157.49,31.37L149.2,32.93L145.06,35.8L140.91,35.33L136.77,33.07L132.62,37.12L128.48,37.78L124.33,43.74L120.19,42.95L116.04,46.11L111.9,46.62L107.76,41.87L103.61,51.17L99.47,52.56L95.32,57.38L91.18,56.08L87.03,53.83L82.89,57.68L78.74,58.72L74.6,62.19L70.46,63.5L62.17,64.75L58.02,66.2L53.88,68.41L49.73,82.66L45.59,76.69L41.44,86.77L37.3,89.09L33.16,106.28L29.01,108.4L24.87,131.95L20.72,159.31L16.58,192.84L12.43,195.56L8.29,216.23L4.14,223.02L0,238.5Z" style="fill: rgb(99, 110, 250); fill-opacity: 0.3; stroke-width: 0;"/></g></g><g class="errorbars"/><g class="lines"><path class="js-line" d="M0,246.05L4.14,241.86L8.29,234.16L12.43,231.68L16.58,218.84L20.72,210.17L24.87,179.78L29.01,149.94L33.16,130.38L41.44,110.55L45.59,105.23L49.73,100.12L53.88,100.1L58.02,81.94L62.17,88.41L66.31,83.82L70.46,80.44L74.6,81.02L78.74,72.74L82.89,74.38L87.03,71.22L91.18,64.11L95.32,66.79L99.47,60.87L103.61,67.6L107.76,56.37L111.9,59.39L116.04,56.14L120.19,60.76L124.33,57.92L128.48,49.01L132.62,46.5L136.77,50.59L140.91,47.21L145.06,47.04L149.2,43.14L153.34,44.9L161.63,41.18L165.78,43.55L174.07,41.53L178.21,41.26L182.36,37.65L186.5,41.6L190.64,36.76L194.79,36.83L203.08,36.51L207.22,33.57L215.51,36.49L219.66,35.9L223.8,36.21L227.94,34.1L236.23,37.97L240.38,35.89L244.52,36.48L248.67,31.95L252.81,34.59L256.96,33.42L261.1,31.63L265.24,32.9L269.39,32.91L273.53,26L277.68,28.24L281.82,37L285.97,30.39L290.11,28.85L294.26,31.08L298.4,30.75L302.54,32.03L306.69,28.32L310.83,30.99L314.98,29.31L319.12,28.38L323.27,31.12L331.56,29.37L335.7,35.13L339.84,29.65L343.99,29.59L348.13,27.87L352.28,27.46L356.42,31.22L360.57,33.04L364.71,31.42L368.86,28.79L373,23.94L373,16.54L364.71,20.86L360.57,19.59L356.42,21.09L352.28,17.45L348.13,17.41L343.99,19.53L339.84,17.84L335.7,21.51L331.56,15.94L327.41,18.19L323.27,23.41L319.12,12.95L306.69,20.69L302.54,21.48L298.4,14.43L294.26,18.8L290.11,18.99L285.97,20.72L281.82,17.91L277.68,18.84L273.53,14.38L269.39,22.46L265.24,19.65L261.1,24.71L256.96,18.59L252.81,25.3L248.67,21.22L244.52,23.9L240.38,26.46L236.23,20.84L232.09,20.54L227.94,26.23L223.8,22.28L219.66,22.93L215.51,24.74L211.37,23.88L207.22,26.19L203.08,19.39L194.79,29.83L190.64,22.85L186.5,28.23L182.36,25.96L178.21,33.06L174.07,32.83L169.92,28.67L165.78,30.59L161.63,32.59L157.49,31.37L149.2,32.93L145.06,35.8L140.91,35.33L136.77,33.07L132.62,37.12L128.48,37.78L124.33,43.74L120.19,42.95L116.04,46.11L111.9,46.62L107.76,41.87L103.61,51.17L99.47,52.56L95.32,57.38L91.18,56.08L87.03,53.83L82.89,57.68L78.74,58.72L74.6,62.19L70.46,63.5L62.17,64.75L58.02,66.2L53.88,68.41L49.73,82.66L45.59,76.69L41.44,86.77L37.3,89.09L33.16,106.28L29.01,108.4L24.87,131.95L20.72,159.31L16.58,192.84L12.43,195.56L8.29,216.23L4.14,223.02L0,238.5" style="vector-effect: non-scaling-stroke; fill: none; stroke: rgb(0, 0, 0); stroke-opacity: 0; stroke-width: 2px; opacity: 1;"/></g><g class="points"/><g class="text"/></g><g class="trace scatter tracefd8a8a" style="stroke-miterlimit: 2; opacity: 1;"><g class="fills"/><g class="errorbars"/><g class="lines"><path class="js-line" d="M0,238.75L8.29,223.12L12.43,201.13L16.58,209.35L20.72,165.74L24.87,152.32L29.01,122.08L33.16,95.3L37.3,93.31L41.44,84.9L45.59,84.46L49.73,74.52L53.88,70.13L62.17,66.33L66.31,62.79L70.46,68.13L74.6,69.07L78.74,63.53L82.89,63.33L87.03,67.7L91.18,60.36L95.32,62.68L99.47,58.07L103.61,60.11L107.76,60.68L111.9,57.56L116.04,56.45L120.19,50.81L124.33,50.03L128.48,54.28L132.62,46.47L136.77,50.44L140.91,42.42L145.06,47.3L149.2,47L153.34,46.59L157.49,43.98L161.63,40.99L165.78,43.36L169.92,42.65L174.07,38.32L178.21,33.25L182.36,40.52L186.5,37.13L190.64,38.9L194.79,34L198.93,35.45L203.08,32.26L207.22,33.22L211.37,33.55L215.51,30.38L219.66,34.95L223.8,33.59L227.94,30.24L232.09,31.7L236.23,33.87L240.38,36.98L244.52,35.21L248.67,28.13L252.81,31.76L256.96,30.76L261.1,28.48L265.24,30.16L269.39,27.76L273.53,29.9L277.68,28.51L281.82,29.42L285.97,30.19L290.11,27.3L294.26,25.58L298.4,29.18L302.54,30.49L306.69,27.04L314.98,29.94L319.12,29.46L323.27,27.9L327.41,30.13L331.56,22.73L335.7,26.37L339.84,30.29L343.99,24.99L348.13,28.03L352.28,26.26L356.42,25.16L360.57,30.17L364.71,26.86L368.86,24.85L373,22.09" style="vector-effect: non-scaling-stroke; fill: none; stroke: rgb(239, 85, 59); stroke-opacity: 1; stroke-width: 2px; opacity: 1;"/></g><g class="points"/><g class="text"/></g><g class="trace scatter trace170058" style="stroke-miterlimit: 2; opacity: 1;"><g class="fills"><g><path class="js-fill" d="M0,244.26L8.29,232.98L12.43,230.89L16.58,215.36L20.72,195.94L24.87,169.49L29.01,133.46L37.3,99.38L41.44,90.13L45.59,90.56L49.73,79.65L58.02,80.04L62.17,79.02L66.31,73.83L70.46,75.87L74.6,75.97L78.74,73.6L82.89,72.92L87.03,76.18L91.18,69.31L95.32,68.52L99.47,70.81L103.61,67.9L107.76,72.18L111.9,62.56L116.04,61.27L120.19,59.12L124.33,58.2L128.48,61.82L132.62,53.84L136.77,53.82L140.91,59.24L145.06,55.08L149.2,57.86L153.34,54.07L165.78,47.67L169.92,48.94L174.07,46.28L178.21,50.73L182.36,49.34L186.5,41.93L190.64,45.9L194.79,41.17L198.93,39.37L203.08,38.73L207.22,36.26L211.37,39.94L215.51,39.8L219.66,41.14L223.8,39.42L227.94,34.99L236.23,43.41L240.38,40.14L244.52,39.44L248.67,36.26L252.81,36.57L256.96,38.93L261.1,39.25L265.24,34.25L277.68,33.51L281.82,35.32L285.97,33.94L290.11,34.2L298.4,31.87L302.54,35.96L310.83,33.73L314.98,36.13L319.12,38.75L323.27,32.63L327.41,34.36L331.56,30.66L335.7,29.15L339.84,34.76L343.99,30.65L348.13,32.12L352.28,36.18L356.42,30.34L360.57,33.44L364.71,32.54L368.86,25.88L373,25.75L373,18.33L368.86,17.95L364.71,18.43L360.57,21.23L356.42,21.29L352.28,20.41L348.13,22.26L343.99,17.14L339.84,27.66L335.7,20.13L331.56,17L327.41,24.1L323.27,23.69L319.12,24.79L314.98,20.86L310.83,24.66L306.69,21.56L302.54,22.34L298.4,24.66L294.26,20.93L285.97,24.27L281.82,23.72L277.68,21.78L273.53,26.83L269.39,23.89L265.24,26.04L261.1,18.86L256.96,25.62L252.81,26.48L248.67,23.19L244.52,29.12L240.38,31.11L236.23,27.8L232.09,30.08L227.94,25.86L223.8,30.52L219.66,27.57L215.51,26.5L211.37,22.81L207.22,28.71L203.08,27.86L198.93,30.53L190.64,30.84L186.5,29.77L182.36,38.13L178.21,30.8L174.07,30.28L169.92,35.84L165.78,33.66L161.63,37.49L157.49,39.74L153.34,36.64L149.2,38.19L145.06,38.23L140.91,37.29L136.77,38.67L132.62,41.27L128.48,46.83L124.33,41.58L120.19,40.42L116.04,43.58L111.9,52.91L103.61,52.02L99.47,51.42L95.32,43.18L91.18,48.27L87.03,58.42L82.89,55.89L78.74,53.98L74.6,57.08L70.46,64.82L66.31,55.82L58.02,65.68L53.88,67.49L49.73,64.43L45.59,74.17L41.44,74.59L37.3,81.18L33.16,88.92L29.01,103.52L24.87,123.16L20.72,154.39L16.58,177.23L12.43,188.67L8.29,212.68L4.14,219.79L0,237.67Z" style="fill: rgb(239, 85, 59); fill-opacity: 0.3; stroke-width: 0;"/></g></g><g class="errorbars"/><g class="lines"><path class="js-line" d="M0,244.26L8.29,232.98L12.43,230.89L16.58,215.36L20.72,195.94L24.87,169.49L29.01,133.46L37.3,99.38L41.44,90.13L45.59,90.56L49.73,79.65L58.02,80.04L62.17,79.02L66.31,73.83L70.46,75.87L74.6,75.97L78.74,73.6L82.89,72.92L87.03,76.18L91.18,69.31L95.32,68.52L99.47,70.81L103.61,67.9L107.76,72.18L111.9,62.56L116.04,61.27L120.19,59.12L124.33,58.2L128.48,61.82L132.62,53.84L136.77,53.82L140.91,59.24L145.06,55.08L149.2,57.86L153.34,54.07L165.78,47.67L169.92,48.94L174.07,46.28L178.21,50.73L182.36,49.34L186.5,41.93L190.64,45.9L194.79,41.17L198.93,39.37L203.08,38.73L207.22,36.26L211.37,39.94L215.51,39.8L219.66,41.14L223.8,39.42L227.94,34.99L236.23,43.41L240.38,40.14L244.52,39.44L248.67,36.26L252.81,36.57L256.96,38.93L261.1,39.25L265.24,34.25L277.68,33.51L281.82,35.32L285.97,33.94L290.11,34.2L298.4,31.87L302.54,35.96L310.83,33.73L314.98,36.13L319.12,38.75L323.27,32.63L327.41,34.36L331.56,30.66L335.7,29.15L339.84,34.76L343.99,30.65L348.13,32.12L352.28,36.18L356.42,30.34L360.57,33.44L364.71,32.54L368.86,25.88L373,25.75L373,18.33L368.86,17.95L364.71,18.43L360.57,21.23L356.42,21.29L352.28,20.41L348.13,22.26L343.99,17.14L339.84,27.66L335.7,20.13L331.56,17L327.41,24.1L323.27,23.69L319.12,24.79L314.98,20.86L310.83,24.66L306.69,21.56L302.54,22.34L298.4,24.66L294.26,20.93L285.97,24.27L281.82,23.72L277.68,21.78L273.53,26.83L269.39,23.89L265.24,26.04L261.1,18.86L256.96,25.62L252.81,26.48L248.67,23.19L244.52,29.12L240.38,31.11L236.23,27.8L232.09,30.08L227.94,25.86L223.8,30.52L219.66,27.57L215.51,26.5L211.37,22.81L207.22,28.71L203.08,27.86L198.93,30.53L190.64,30.84L186.5,29.77L182.36,38.13L178.21,30.8L174.07,30.28L169.92,35.84L165.78,33.66L161.63,37.49L157.49,39.74L153.34,36.64L149.2,38.19L145.06,38.23L140.91,37.29L136.77,38.67L132.62,41.27L128.48,46.83L124.33,41.58L120.19,40.42L116.04,43.58L111.9,52.91L103.61,52.02L99.47,51.42L95.32,43.18L91.18,48.27L87.03,58.42L82.89,55.89L78.74,53.98L74.6,57.08L70.46,64.82L66.31,55.82L58.02,65.68L53.88,67.49L49.73,64.43L45.59,74.17L41.44,74.59L37.3,81.18L33.16,88.92L29.01,103.52L24.87,123.16L20.72,154.39L16.58,177.23L12.43,188.67L8.29,212.68L4.14,219.79L0,237.67" style="vector-effect: non-scaling-stroke; fill: none; stroke: rgb(0, 0, 0); stroke-opacity: 0; stroke-width: 2px; opacity: 1;"/></g><g class="points"/><g class="text"/></g></g></g><g class="overplot"/><path class="xlines-above crisp" d="M0,0" style="fill: none;"/><path class="ylines-above crisp" d="M0,0" style="fill: none;"/><g class="overlines-above"/><g class="xaxislayer-above"><g class="xtick"><text text-anchor="middle" x="0" y="272" transform="translate(169.20999999999998,0)" style="font-family: 'Latin Modern Roman'; font-size: 12px; fill: rgb(0, 0, 0); fill-opacity: 1; white-space: pre;">5M</text></g><g class="xtick"><text text-anchor="middle" x="0" y="272" transform="translate(295.57,0)" style="font-family: 'Latin Modern Roman'; font-size: 12px; fill: rgb(0, 0, 0); fill-opacity: 1; white-space: pre;">10M</text></g></g><g class="yaxislayer-above"><g class="ytick"><text text-anchor="end" x="46" y="4.199999999999999" transform="translate(0,254.69)" style="font-family: 'Latin Modern Roman'; font-size: 12px; fill: rgb(0, 0, 0); fill-opacity: 1; white-space: pre;">400</text></g><g class="ytick"><text text-anchor="end" x="46" y="4.199999999999999" transform="translate(0,234.28)" style="font-family: 'Latin Modern Roman'; font-size: 12px; fill: rgb(0, 0, 0); fill-opacity: 1; white-space: pre;">300</text></g><g class="ytick"><text text-anchor="end" x="46" y="4.199999999999999" transform="translate(0,205.5)" style="font-family: 'Latin Modern Roman'; font-size: 12px; fill: rgb(0, 0, 0); fill-opacity: 1; white-space: pre;">200</text></g><g class="ytick"><text text-anchor="end" x="43" y="4.199999999999999" transform="translate(0,156.31)" style="font-family: 'Latin Modern Roman'; font-size: 12px; fill: rgb(0, 0, 0); fill-opacity: 1; white-space: pre;">100</text></g><g class="ytick"><text text-anchor="end" x="46" y="4.199999999999999" transform="translate(0,148.83)" style="font-family: 'Latin Modern Roman'; font-size: 12px; fill: rgb(0, 0, 0); fill-opacity: 1; white-space: pre;">90</text></g><g class="ytick"><text text-anchor="end" x="46" y="4.199999999999999" transform="translate(0,140.48)" style="font-family: 'Latin Modern Roman'; font-size: 12px; fill: rgb(0, 0, 0); fill-opacity: 1; white-space: pre;">80</text></g><g class="ytick"><text text-anchor="end" x="46" y="4.199999999999999" transform="translate(0,131)" style="font-family: 'Latin Modern Roman'; font-size: 12px; fill: rgb(0, 0, 0); fill-opacity: 1; white-space: pre;">70</text></g><g class="ytick"><text text-anchor="end" x="46" y="4.199999999999999" transform="translate(0,120.06)" style="font-family: 'Latin Modern Roman'; font-size: 12px; fill: rgb(0, 0, 0); fill-opacity: 1; white-space: pre;">60</text></g><g class="ytick"><text text-anchor="end" x="46" y="4.199999999999999" transform="translate(0,107.12)" style="font-family: 'Latin Modern Roman'; font-size: 12px; fill: rgb(0, 0, 0); fill-opacity: 1; white-space: pre;">50</text></g><g class="ytick"><text text-anchor="end" x="46" y="4.199999999999999" transform="translate(0,91.29)" style="font-family: 'Latin Modern Roman'; font-size: 12px; fill: rgb(0, 0, 0); fill-opacity: 1; white-space: pre;">40</text></g><g class="ytick"><text text-anchor="end" x="46" y="4.199999999999999" transform="translate(0,70.87)" style="font-family: 'Latin Modern Roman'; font-size: 12px; fill: rgb(0, 0, 0); fill-opacity: 1; white-space: pre;">30</text></g><g class="ytick"><text text-anchor="end" x="46" y="4.199999999999999" transform="translate(0,42.1)" style="font-family: 'Latin Modern Roman'; font-size: 12px; fill: rgb(0, 0, 0); fill-opacity: 1; white-space: pre;">20</text></g></g><g class="overaxes-above"/></g></g><g class="polarlayer"/><g class="ternarylayer"/><g class="geolayer"/><g class="funnelarealayer"/><g class="pielayer"/><g class="treemaplayer"/><g class="sunburstlayer"/><g class="glimages"/><defs id="topdefs-1321e4"><g class="clips"/><clipPath id="legend1321e4"><rect width="173" height="48" x="0" y="0"/></clipPath></defs><g class="layer-above"><g class="imagelayer"/><g class="shapelayer"/></g><g class="infolayer"><g class="legend" pointer-events="all" transform="translate(427,0)"><rect class="bg" shape-rendering="crispEdges" style="stroke: rgb(68, 68, 68); stroke-opacity: 1; fill: rgb(255, 255, 255); fill-opacity: 1; stroke-width: 0px;" width="173" height="48" x="0" y="0"/><g class="scrollbox" transform="" clip-path="url('#legend1321e4')"><g class="groups"><g class="traces" transform="translate(0,14.5)" style="opacity: 1;"><text class="legendtext" text-anchor="start" x="40" y="4.680000000000001" style="font-family: 'Latin Modern Roman'; font-size: 12px; fill: rgb(0, 0, 0); fill-opacity: 1; white-space: pre;">Bayes agg. (opt) (n=16)</text><g class="layers" style="opacity: 1;"><g class="legendfill"/><g class="legendlines"><path class="js-line" d="M5,0h30" style="fill: none; stroke: rgb(99, 110, 250); stroke-opacity: 1; stroke-width: 2px;"/></g><g class="legendsymbols"><g class="legendpoints"/></g></g><rect class="legendtoggle" x="0" y="-9.5" width="167.5625" height="19" style="fill: rgb(0, 0, 0); fill-opacity: 0;"/></g><g class="traces" transform="translate(0,33.5)" style="opacity: 1;"><text class="legendtext" text-anchor="start" x="40" y="4.680000000000001" style="font-family: 'Latin Modern Roman'; font-size: 12px; fill: rgb(0, 0, 0); fill-opacity: 1; white-space: pre;">Mean agg. (opt) (n=18)</text><g class="layers" style="opacity: 1;"><g class="legendfill"/><g class="legendlines"><path class="js-line" d="M5,0h30" style="fill: none; stroke: rgb(239, 85, 59); stroke-opacity: 1; stroke-width: 2px;"/></g><g class="legendsymbols"><g class="legendpoints"/></g></g><rect class="legendtoggle" x="0" y="-9.5" width="167.5625" height="19" style="fill: rgb(0, 0, 0); fill-opacity: 0;"/></g></g></g><rect class="scrollbar" rx="20" ry="3" width="0" height="0" style="fill: rgb(128, 139, 164); fill-opacity: 1;" x="0" y="0"/></g><g class="g-gtitle"/><g class="g-xtitle" transform="translate(0,-3.8000000000000114)"><text class="xtitle" x="233.5" y="299.8" text-anchor="middle" style="font-family: 'Latin Modern Roman'; font-size: 14px; fill: rgb(0, 0, 0); opacity: 1; font-weight: normal; white-space: pre;">Agent Steps</text></g><g class="g-ytitle" transform="translate(15.8154296875,0)"><text class="ytitle" transform="rotate(-90,0.18437500000000284,129.5)" x="0.18437500000000284" y="129.5" text-anchor="middle" style="font-family: 'Latin Modern Roman'; font-size: 14px; fill: rgb(0, 0, 0); opacity: 1; font-weight: normal; white-space: pre;">Avg. Reward</text></g></g></svg>