<svg class="main-svg" xmlns="http://www.w3.org/2000/svg" xmlns:xlink="http://www.w3.org/1999/xlink" width="700" height="500" style="" viewBox="0 0 700 500"><rect x="0" y="0" width="700" height="500" style="fill: rgb(255, 255, 255); fill-opacity: 1;"/><defs id="defs-30579c"><g class="clips"><clipPath id="clip30579cxyplot" class="plotclip"><rect width="409" height="320"/></clipPath><clipPath class="axesclip" id="clip30579cx"><rect x="80" y="0" width="409" height="500"/></clipPath><clipPath class="axesclip" id="clip30579cy"><rect x="0" y="100" width="700" height="320"/></clipPath><clipPath class="axesclip" id="clip30579cxy"><rect x="80" y="100" width="409" height="320"/></clipPath></g><g class="gradients"/></defs><g class="bglayer"><rect class="bg" x="80" y="100" width="409" height="320" style="fill: rgb(229, 236, 246); fill-opacity: 1; stroke-width: 0;"/></g><g class="layer-below"><g class="imagelayer"/><g class="shapelayer"/></g><g class="cartesianlayer"><g class="subplot xy"><g class="layer-subplot"><g class="shapelayer"/><g class="imagelayer"/></g><g class="gridlayer"><g class="x"><path class="xgrid crisp" transform="translate(180.72,0)" d="M0,100v320" style="stroke: rgb(255, 255, 255); stroke-opacity: 1; stroke-width: 1px;"/><path class="xgrid crisp" transform="translate(283.53,0)" d="M0,100v320" style="stroke: rgb(255, 255, 255); stroke-opacity: 1; stroke-width: 1px;"/><path class="xgrid crisp" transform="translate(386.35,0)" d="M0,100v320" style="stroke: rgb(255, 255, 255); stroke-opacity: 1; stroke-width: 1px;"/></g><g class="y"><path class="ygrid crisp" transform="translate(0,398.42)" d="M80,0h409" style="stroke: rgb(255, 255, 255); stroke-opacity: 1; stroke-width: 1px;"/><path class="ygrid crisp" transform="translate(0,340.75)" d="M80,0h409" style="stroke: rgb(255, 255, 255); stroke-opacity: 1; stroke-width: 1px;"/><path class="ygrid crisp" transform="translate(0,283.09000000000003)" d="M80,0h409" style="stroke: rgb(255, 255, 255); stroke-opacity: 1; stroke-width: 1px;"/><path class="ygrid crisp" transform="translate(0,225.42000000000002)" d="M80,0h409" style="stroke: rgb(255, 255, 255); stroke-opacity: 1; stroke-width: 1px;"/><path class="ygrid crisp" transform="translate(0,167.75)" d="M80,0h409" style="stroke: rgb(255, 255, 255); stroke-opacity: 1; stroke-width: 1px;"/></g></g><g class="zerolinelayer"><path class="yzl zl crisp" transform="translate(0,110.08)" d="M80,0h409" style="stroke: rgb(255, 255, 255); stroke-opacity: 1; stroke-width: 2px;"/></g><path class="xlines-below"/><path class="ylines-below"/><g class="overlines-below"/><g class="xaxislayer-below"/><g class="yaxislayer-below"/><g class="overaxes-below"/><g class="plot" transform="translate(80,100)" clip-path="url('#clip30579cxyplot')"><g class="scatterlayer mlayer"><g class="trace scatter trace478150" style="stroke-miterlimit: 2; opacity: 1;"><g class="fills"/><g class="errorbars"/><g class="lines"><path class="js-line" d="M0,304L4.19,245.71L6.29,229.37L8.39,224.46L10.49,227.81L12.58,216.29L14.68,225.24L16.78,241.99L18.88,206.69L23.07,189.79L25.17,199.29L29.36,174.4L31.46,165.79L33.56,159.84L35.66,151.34L37.75,146.52L39.85,152.3L41.95,138.34L44.05,150.85L46.14,162.24L48.24,141.85L50.34,158.31L52.44,136.27L54.53,150.57L56.63,148.46L58.73,173.3L60.83,147.15L62.92,137.04L65.02,139.97L67.12,132.75L69.22,138.65L71.31,137.95L73.41,135.6L75.51,141.9L77.61,154.56L81.8,130.38L83.9,139.5L88.09,116.84L90.19,117.55L92.29,105.94L94.38,114.97L96.48,133.67L98.58,116.89L100.68,112.06L102.77,117.64L104.87,109.79L106.97,109.28L109.07,108.18L111.16,97.66L113.26,107.49L115.36,110.99L117.46,98.31L119.55,106.64L121.65,105.21L123.75,101.65L125.85,98.52L127.94,106.24L130.04,75.1L132.14,95.87L134.24,80.73L136.33,99.3L142.63,64.05L144.72,66.05L146.82,57.69L148.92,64.8L151.02,67.44L153.11,66.86L155.21,55.77L157.31,57.79L159.41,41.44L161.5,52.06L163.6,47.6L165.7,27.59L167.79,42.74L169.89,32.33L171.99,32.35L174.09,29.94L176.18,38.32L178.28,25.7L180.38,28.38L182.48,25.75L184.57,22.33L186.67,27.77L188.77,23.12L190.87,23.51L192.96,25.77L195.06,26.17L197.16,23.1L199.26,23.19L201.35,29.78L203.45,22.01L205.55,22.25L207.65,21.27L209.74,20.98L211.84,22.12L213.94,25.79L216.04,24.94L218.13,24.26L220.23,24.82L224.43,22.79L226.52,23.84L228.62,21.44L230.72,24.85L232.82,19.37L234.91,21.39L237.01,19.35L239.11,22.43L241.21,20.27L243.3,22.05L245.4,21.49L247.5,18.83L249.59,22.15L251.69,24.02L253.79,20.93L255.89,21.54L257.98,21.36L260.08,19L262.18,19.5L264.28,21.21L266.37,23.32L268.47,22.29L270.57,20.41L272.67,20.38L274.76,22.03L276.86,20.29L281.06,19.04L283.15,21.14L287.35,22.71L289.45,19.03L291.54,20.59L293.64,19.6L297.84,20.16L299.93,23.85L302.03,20.1L304.13,19.08L308.32,18.52L310.42,21.63L312.52,18.4L314.62,20.05L318.81,19.46L320.91,17.64L323.01,20.4L325.1,19.51L329.3,20.38L331.39,19.67L335.59,21.66L337.69,18.1L341.88,19.95L343.98,20.07L346.08,19.42L348.17,21.9L350.27,19.65L352.37,19.52L354.47,17.74L356.56,19.68L360.76,19.82L362.86,19.45L364.95,19.84L367.05,19.3L369.15,18.98L371.25,19.56L373.34,20.73L375.44,19.46L377.54,21.11L379.64,18.48L381.73,20.17L383.83,18.83L385.93,18.4L388.03,21.41L390.12,18.08L392.22,20.44L394.32,21.55L396.42,19.23L400.61,18.33L402.71,20.91L406.9,18.76L409,19.52" style="vector-effect: non-scaling-stroke; fill: none; stroke: rgb(99, 110, 250); stroke-opacity: 1; stroke-width: 2px; opacity: 1;"/></g><g class="points"/><g class="text"/></g><g class="trace scatter trace6ef9f1" style="stroke-miterlimit: 2; opacity: 1;"><g class="fills"/><g class="errorbars"/><g class="lines"><path class="js-line" d="M0,249.22L2.1,256.85L4.19,234.21L6.29,237.45L8.39,211.8L10.49,233.23L12.58,238.07L14.68,224.92L16.78,221.07L18.88,225.29L20.97,201.52L25.17,165.79L27.27,157.08L29.36,145.28L31.46,142.53L35.66,134.81L37.75,140.56L44.05,130.77L46.14,130.78L50.34,124.78L52.44,119.42L54.53,117.29L56.63,123.01L58.73,117.24L60.83,116.24L62.92,123.95L65.02,111.52L67.12,119.3L69.22,114.44L71.31,110.64L73.41,114.5L77.61,107.71L79.7,106.3L81.8,104.09L83.9,108.78L85.99,105.65L88.09,90.71L90.19,109.26L92.29,100.46L94.38,102.73L96.48,107.15L98.58,98.91L100.68,104.49L104.87,84.49L106.97,68.59L109.07,99.62L111.16,91.96L113.26,98.72L115.36,94.54L117.46,73.96L119.55,68.82L121.65,74.23L123.75,50.71L125.85,78.85L127.94,65.89L130.04,87.99L132.14,44.44L138.43,62.67L140.53,43.3L142.63,33.11L144.72,63.83L146.82,54.28L148.92,31.68L151.02,27.7L153.11,28.72L157.31,24.8L159.41,24.86L163.6,29.52L165.7,23.49L167.79,28.63L169.89,23.26L171.99,24.4L174.09,20.39L176.18,27.02L178.28,27.65L182.48,22.1L184.57,27.24L186.67,29.6L188.77,27.39L190.87,21.33L192.96,23.57L195.06,19.4L197.16,22.54L199.26,22.29L201.35,21.13L203.45,20.67L205.55,19.39L207.65,23.27L209.74,19.44L213.94,22.09L216.04,19.71L218.13,23.77L220.23,22.8L222.33,20.29L224.43,21.89L226.52,20.2L228.62,20.51L230.72,19.24L232.82,19.84L234.91,20.91L237.01,19.45L239.11,19.55L241.21,18.61L243.3,20.39L245.4,20.46L247.5,21.71L249.59,17.94L251.69,20.7L253.79,20.99L255.89,18.81L257.98,18.77L260.08,20.11L262.18,19.54L266.37,20.42L268.47,21L270.57,24.21L272.67,21.32L276.86,21.49L278.96,19.39L281.06,23.15L283.15,21.99L287.35,20.94L289.45,18.02L291.54,20.25L293.64,20.01L295.74,18.5L297.84,19.24L299.93,16.42L302.03,18.41L308.32,16.9L310.42,17.67L314.62,18.69L316.71,18.1L320.91,19.46L323.01,18.05L325.1,18.77L327.2,17.4L329.3,21.09L331.39,18.53L333.49,18.88L335.59,21.2L337.69,18.46L339.78,18.7L341.88,18.06L343.98,19.04L346.08,17.33L348.17,19.28L352.37,16.75L354.47,18.14L356.56,17.69L358.66,22.97L360.76,17.97L362.86,20.99L364.95,18.26L367.05,18.59L369.15,17.12L371.25,16.98L373.34,18.92L375.44,19.02L379.64,17.35L381.73,19.7L383.83,17.06L385.93,21.35L388.03,17.56L390.12,16.45L392.22,19.04L394.32,17.92L398.51,17.14L400.61,18.36L402.71,16.48L404.81,16.04L406.9,19.82L409,17.49" style="vector-effect: non-scaling-stroke; fill: none; stroke: rgb(239, 85, 59); stroke-opacity: 1; stroke-width: 2px; opacity: 1;"/></g><g class="points"/><g class="text"/></g><g class="trace scatter tracec18bf2" style="stroke-miterlimit: 2; opacity: 1;"><g class="fills"/><g class="errorbars"/><g class="lines"><path class="js-line" d="M0,288.76L2.1,246.23L4.19,225.94L6.29,219.14L8.39,227.59L10.49,229.99L12.58,230.66L14.68,244.36L16.78,237.07L18.88,236.24L20.97,233.29L27.27,192.59L29.36,173.53L31.46,157.59L33.56,153.61L35.66,154.83L37.75,161.3L39.85,172.58L41.95,160.09L46.14,155.54L48.24,178.26L52.44,158.33L54.53,165.83L56.63,163.55L58.73,156.84L60.83,144.3L62.92,148.92L65.02,151.69L67.12,147.27L71.31,125.44L73.41,119.62L75.51,124.35L77.61,134.83L79.7,131.49L81.8,124.13L83.9,132.29L85.99,128L88.09,110.24L90.19,123.29L94.38,112.16L96.48,115.95L98.58,108.67L100.68,107L102.77,109.07L104.87,81.57L106.97,96.34L109.07,84.33L115.36,62.95L117.46,95.78L119.55,67.49L121.65,68.3L123.75,86.45L125.85,61.71L127.94,53.96L130.04,49.93L132.14,58.77L134.24,50.64L136.33,66.71L138.43,44.75L140.53,26.28L142.63,46.12L144.72,62.47L146.82,39.18L148.92,45.19L151.02,47.47L153.11,31.9L155.21,33.35L159.41,35.08L161.5,31.78L163.6,33.23L165.7,30.71L167.79,26L169.89,29.47L171.99,31.08L174.09,26.83L176.18,31.17L178.28,28.48L180.38,33.28L182.48,29.4L184.57,26.94L186.67,33.03L188.77,23.61L190.87,26.58L192.96,27.78L195.06,23.23L197.16,25.05L199.26,24.24L201.35,25.16L203.45,24.29L205.55,25.83L207.65,24.38L209.74,23.82L211.84,24.18L213.94,23.18L216.04,24.8L218.13,27.85L220.23,24.74L222.33,22.44L224.43,22.31L226.52,23.88L228.62,24.07L230.72,20.28L232.82,28.42L234.91,21.04L237.01,22.36L239.11,22.49L241.21,21.01L243.3,22.17L245.4,22.43L247.5,24.69L249.59,22.53L251.69,19.88L253.79,21.27L255.89,22.21L257.98,20.39L262.18,20.11L264.28,19.68L266.37,22.5L268.47,18.23L274.76,20.48L276.86,19.9L278.96,20.46L281.06,19.86L283.15,22.35L285.25,20.27L287.35,20.9L289.45,19.66L291.54,21.42L293.64,19.94L295.74,21.51L297.84,20.91L299.93,20.16L302.03,22.9L304.13,19.28L306.23,21.74L308.32,22.66L310.42,20.87L312.52,18.48L314.62,19.71L316.71,19.02L318.81,19.94L320.91,18.85L323.01,19.65L325.1,20.73L327.2,19.45L333.49,21.54L335.59,18.56L337.69,20.58L339.78,18.97L341.88,18.56L343.98,20.78L346.08,19.62L348.17,19.83L350.27,20.19L352.37,21.57L356.56,18.36L358.66,19.65L360.76,20.99L362.86,18.25L364.95,18.03L367.05,19.4L371.25,18.94L373.34,20.59L377.54,17.57L379.64,18.93L381.73,20.74L383.83,18.93L385.93,19.21L388.03,17.98L390.12,17.37L392.22,20.35L394.32,17.7L396.42,19.75L398.51,18.75L400.61,20.26L402.71,22.54L404.81,17.62L406.9,19.89L409,20.29" style="vector-effect: non-scaling-stroke; fill: none; stroke: rgb(0, 204, 150); stroke-opacity: 1; stroke-width: 2px; opacity: 1;"/></g><g class="points"/><g class="text"/></g><g class="trace scatter tracebff4bf" style="stroke-miterlimit: 2; opacity: 1;"><g class="fills"/><g class="errorbars"/><g class="lines"><path class="js-line" d="M0,303.18L4.19,239.66L6.29,231.48L8.39,251.27L10.49,242.78L12.58,236.68L14.68,242.99L16.78,227.62L18.88,193.03L20.97,198.5L23.07,163.33L25.17,158.67L27.27,149.43L29.36,141.55L31.46,141.35L33.56,138.04L35.66,144.86L37.75,143.56L39.85,157.24L41.95,145.99L44.05,148.39L46.14,152.16L48.24,152.18L50.34,139.84L52.44,133.16L54.53,116L56.63,116.83L58.73,119.64L60.83,113.99L62.92,106.54L65.02,115.22L67.12,114.35L69.22,105.21L71.31,104.8L73.41,91.3L75.51,93.96L77.61,62.58L79.7,89.72L81.8,101.47L83.9,92.28L85.99,66.23L88.09,62.3L90.19,52.83L92.29,40.23L94.38,53.05L96.48,48.78L98.58,37.61L100.68,57.23L102.77,43.17L104.87,59.78L106.97,43.26L109.07,28.45L111.16,28.21L115.36,28.6L117.46,27.02L121.65,27.72L123.75,23.91L125.85,27.67L127.94,27.05L130.04,24.69L132.14,29.76L134.24,20.5L136.33,29.96L138.43,23.43L140.53,21.64L142.63,24.81L144.72,23.08L146.82,22.82L148.92,19.73L151.02,21.33L153.11,24.27L155.21,22.46L157.31,18.82L159.41,20.69L161.5,20.94L163.6,19.5L165.7,20.58L169.89,23.2L171.99,17.64L174.09,19.42L176.18,20.18L178.28,20.97L180.38,19.82L182.48,24.74L184.57,22.74L186.67,23.02L188.77,19.59L190.87,19.05L192.96,21.01L195.06,19.88L197.16,20.97L199.26,19.33L201.35,21.35L203.45,21.27L205.55,23.83L207.65,21.48L209.74,20.57L211.84,18.97L213.94,24.52L216.04,18.89L218.13,19.08L220.23,19.63L222.33,18.57L224.43,19.26L226.52,21.03L228.62,20.03L230.72,24.29L232.82,17.06L234.91,17.69L237.01,20.73L239.11,20.23L241.21,19.3L243.3,20.62L245.4,17.92L247.5,18.64L249.59,17.98L251.69,19.83L253.79,18.57L255.89,18.48L257.98,21.2L260.08,18.29L262.18,20.65L264.28,20.03L266.37,18.71L268.47,21.14L270.57,20.9L272.67,25.17L274.76,20.05L276.86,18.44L278.96,21.06L281.06,18.92L283.15,21.18L285.25,21.66L287.35,18.05L289.45,20.49L291.54,17.65L293.64,19.62L297.84,18.23L299.93,19.05L304.13,18.2L306.23,20.29L310.42,17.54L312.52,19.56L314.62,18.88L316.71,21.89L318.81,18.12L320.91,17.95L323.01,19.47L325.1,18.18L327.2,18.09L329.3,16L331.39,17.92L333.49,17.64L337.69,20.01L339.78,16.01L341.88,20.93L343.98,19.39L346.08,18.39L348.17,18.86L352.37,18.46L354.47,17.15L356.56,20.6L358.66,18.42L360.76,17.74L362.86,19.82L364.95,19.32L367.05,17.08L369.15,21.19L371.25,18.78L373.34,19.24L375.44,18.6L377.54,17.09L379.64,17.58L381.73,19.54L383.83,17.16L385.93,17.88L388.03,19.76L390.12,18.22L392.22,17.74L394.32,18.12L396.42,16.21L400.61,19.01L402.71,18.43L404.81,19L406.9,18.17L409,18.64" style="vector-effect: non-scaling-stroke; fill: none; stroke: rgb(171, 99, 250); stroke-opacity: 1; stroke-width: 2px; opacity: 1;"/></g><g class="points"/><g class="text"/></g></g></g><g class="overplot"/><path class="xlines-above crisp" d="M0,0" style="fill: none;"/><path class="ylines-above crisp" d="M0,0" style="fill: none;"/><g class="overlines-above"/><g class="xaxislayer-above"><g class="xtick"><text text-anchor="middle" x="0" y="433" transform="translate(180.72,0)" style="font-family: 'Latin Modern Roman'; font-size: 12px; fill: rgb(0, 0, 0); fill-opacity: 1; white-space: pre;">5M</text></g><g class="xtick"><text text-anchor="middle" x="0" y="433" transform="translate(283.53,0)" style="font-family: 'Latin Modern Roman'; font-size: 12px; fill: rgb(0, 0, 0); fill-opacity: 1; white-space: pre;">10M</text></g><g class="xtick"><text text-anchor="middle" x="0" y="433" transform="translate(386.35,0)" style="font-family: 'Latin Modern Roman'; font-size: 12px; fill: rgb(0, 0, 0); fill-opacity: 1; white-space: pre;">15M</text></g></g><g class="yaxislayer-above"><g class="ytick"><text text-anchor="end" x="79" y="4.199999999999999" transform="translate(0,398.42)" style="font-family: 'Latin Modern Roman'; font-size: 12px; fill: rgb(0, 0, 0); fill-opacity: 1; white-space: pre;">−250</text></g><g class="ytick"><text text-anchor="end" x="79" y="4.199999999999999" transform="translate(0,340.75)" style="font-family: 'Latin Modern Roman'; font-size: 12px; fill: rgb(0, 0, 0); fill-opacity: 1; white-space: pre;">−200</text></g><g class="ytick"><text text-anchor="end" x="79" y="4.199999999999999" transform="translate(0,283.09000000000003)" style="font-family: 'Latin Modern Roman'; font-size: 12px; fill: rgb(0, 0, 0); fill-opacity: 1; white-space: pre;">−150</text></g><g class="ytick"><text text-anchor="end" x="79" y="4.199999999999999" transform="translate(0,225.42000000000002)" style="font-family: 'Latin Modern Roman'; font-size: 12px; fill: rgb(0, 0, 0); fill-opacity: 1; white-space: pre;">−100</text></g><g class="ytick"><text text-anchor="end" x="79" y="4.199999999999999" transform="translate(0,167.75)" style="font-family: 'Latin Modern Roman'; font-size: 12px; fill: rgb(0, 0, 0); fill-opacity: 1; white-space: pre;">−50</text></g><g class="ytick"><text text-anchor="end" x="79" y="4.199999999999999" transform="translate(0,110.08)" style="font-family: 'Latin Modern Roman'; font-size: 12px; fill: rgb(0, 0, 0); fill-opacity: 1; white-space: pre;">0</text></g></g><g class="overaxes-above"/></g></g><g class="polarlayer"/><g class="ternarylayer"/><g class="geolayer"/><g class="funnelarealayer"/><g class="pielayer"/><g class="treemaplayer"/><g class="sunburstlayer"/><g class="glimages"/><defs id="topdefs-30579c"><g class="clips"/><clipPath id="legend30579c"><rect width="191" height="86" x="0" y="0"/></clipPath></defs><g class="layer-above"><g class="imagelayer"/><g class="shapelayer"/></g><g class="infolayer"><g class="legend" pointer-events="all" transform="translate(497.18,100)"><rect class="bg" shape-rendering="crispEdges" style="stroke: rgb(68, 68, 68); stroke-opacity: 1; fill: rgb(255, 255, 255); fill-opacity: 1; stroke-width: 0px;" width="191" height="86" x="0" y="0"/><g class="scrollbox" transform="" clip-path="url('#legend30579c')"><g class="groups"><g class="traces" transform="translate(0,14.5)" style="opacity: 1;"><text class="legendtext" text-anchor="start" x="40" y="4.680000000000001" style="font-family: 'Latin Modern Roman'; font-size: 12px; fill: rgb(0, 0, 0); fill-opacity: 1; white-space: pre;">PPO, Bayesian agg. (n=19)</text><g class="layers" style="opacity: 1;"><g class="legendfill"/><g class="legendlines"><path class="js-line" d="M5,0h30" style="fill: none; stroke: rgb(99, 110, 250); stroke-opacity: 1; stroke-width: 2px;"/></g><g class="legendsymbols"><g class="legendpoints"/></g></g><rect class="legendtoggle" x="0" y="-9.5" width="185.921875" height="19" style="fill: rgb(0, 0, 0); fill-opacity: 0;"/></g><g class="traces" transform="translate(0,33.5)" style="opacity: 1;"><text class="legendtext" text-anchor="start" x="40" y="4.680000000000001" style="font-family: 'Latin Modern Roman'; font-size: 12px; fill: rgb(0, 0, 0); fill-opacity: 1; white-space: pre;">PPO, Mean agg. (n=16)</text><g class="layers" style="opacity: 1;"><g class="legendfill"/><g class="legendlines"><path class="js-line" d="M5,0h30" style="fill: none; stroke: rgb(239, 85, 59); stroke-opacity: 1; stroke-width: 2px;"/></g><g class="legendsymbols"><g class="legendpoints"/></g></g><rect class="legendtoggle" x="0" y="-9.5" width="185.921875" height="19" style="fill: rgb(0, 0, 0); fill-opacity: 0;"/></g><g class="traces" transform="translate(0,52.5)" style="opacity: 1;"><text class="legendtext" text-anchor="start" x="40" y="4.680000000000001" style="font-family: 'Latin Modern Roman'; font-size: 12px; fill: rgb(0, 0, 0); fill-opacity: 1; white-space: pre;">TRL, Bayesian agg. (n=20)</text><g class="layers" style="opacity: 1;"><g class="legendfill"/><g class="legendlines"><path class="js-line" d="M5,0h30" style="fill: none; stroke: rgb(0, 204, 150); stroke-opacity: 1; stroke-width: 2px;"/></g><g class="legendsymbols"><g class="legendpoints"/></g></g><rect class="legendtoggle" x="0" y="-9.5" width="185.921875" height="19" style="fill: rgb(0, 0, 0); fill-opacity: 0;"/></g><g class="traces" transform="translate(0,71.5)" style="opacity: 1;"><text class="legendtext" text-anchor="start" x="40" y="4.680000000000001" style="font-family: 'Latin Modern Roman'; font-size: 12px; fill: rgb(0, 0, 0); fill-opacity: 1; white-space: pre;">TRL, Mean agg. (n=16)</text><g class="layers" style="opacity: 1;"><g class="legendfill"/><g class="legendlines"><path class="js-line" d="M5,0h30" style="fill: none; stroke: rgb(171, 99, 250); stroke-opacity: 1; stroke-width: 2px;"/></g><g class="legendsymbols"><g class="legendpoints"/></g></g><rect class="legendtoggle" x="0" y="-9.5" width="185.921875" height="19" style="fill: rgb(0, 0, 0); fill-opacity: 0;"/></g></g></g><rect class="scrollbar" rx="20" ry="3" width="0" height="0" style="fill: rgb(128, 139, 164); fill-opacity: 1;" x="0" y="0"/></g><g class="g-gtitle"><text class="gtitle" x="35" y="50" text-anchor="start" dy="0em" style="font-family: 'Latin Modern Roman'; font-size: 17px; fill: rgb(0, 0, 0); opacity: 1; font-weight: normal; white-space: pre;">Single-evader Pursuit TRL vs PPO</text></g><g class="g-xtitle"><text class="xtitle" x="284.5" y="460.8" text-anchor="middle" style="font-family: 'Latin Modern Roman'; font-size: 14px; fill: rgb(0, 0, 0); opacity: 1; font-weight: normal; white-space: pre;">Agent Steps</text></g><g class="g-ytitle"><text class="ytitle" transform="rotate(-90,26.856250000000003,260)" x="26.856250000000003" y="260" text-anchor="middle" style="font-family: 'Latin Modern Roman'; font-size: 14px; fill: rgb(0, 0, 0); opacity: 1; font-weight: normal; white-space: pre;">Avg. Reward</text></g></g></svg>