<svg class="main-svg" xmlns="http://www.w3.org/2000/svg" xmlns:xlink="http://www.w3.org/1999/xlink" width="600" height="300" style="" viewBox="0 0 600 300"><rect x="0" y="0" width="600" height="300" style="fill: rgb(255, 255, 255); fill-opacity: 1;"/><defs id="defs-a96a6e"><g class="clips"><clipPath id="clipa96a6exyplot" class="plotclip"><rect width="348" height="259"/></clipPath><clipPath class="axesclip" id="clipa96a6ex"><rect x="47" y="0" width="348" height="300"/></clipPath><clipPath class="axesclip" id="clipa96a6ey"><rect x="0" y="0" width="600" height="259"/></clipPath><clipPath class="axesclip" id="clipa96a6exy"><rect x="47" y="0" width="348" height="259"/></clipPath></g><g class="gradients"/></defs><g class="bglayer"><rect class="bg" x="47" y="0" width="348" height="259" style="fill: rgb(229, 236, 246); fill-opacity: 1; stroke-width: 0;"/></g><g class="layer-below"><g class="imagelayer"/><g class="shapelayer"/></g><g class="cartesianlayer"><g class="subplot xy"><g class="layer-subplot"><g class="shapelayer"/><g class="imagelayer"/></g><g class="gridlayer"><g class="x"><path class="xgrid crisp" transform="translate(111.54,0)" d="M0,0v259" style="stroke: rgb(255, 255, 255); stroke-opacity: 1; stroke-width: 1px;"/><path class="xgrid crisp" transform="translate(178.27,0)" d="M0,0v259" style="stroke: rgb(255, 255, 255); stroke-opacity: 1; stroke-width: 1px;"/><path class="xgrid crisp" transform="translate(245,0)" d="M0,0v259" style="stroke: rgb(255, 255, 255); stroke-opacity: 1; stroke-width: 1px;"/><path class="xgrid crisp" transform="translate(311.72,0)" d="M0,0v259" style="stroke: rgb(255, 255, 255); stroke-opacity: 1; stroke-width: 1px;"/><path class="xgrid crisp" transform="translate(378.45,0)" d="M0,0v259" style="stroke: rgb(255, 255, 255); stroke-opacity: 1; stroke-width: 1px;"/></g><g class="y"><path class="ygrid crisp" transform="translate(0,257.05)" d="M47,0h348" style="stroke: rgb(255, 255, 255); stroke-opacity: 1; stroke-width: 1px;"/><path class="ygrid crisp" transform="translate(0,235.94)" d="M47,0h348" style="stroke: rgb(255, 255, 255); stroke-opacity: 1; stroke-width: 1px;"/><path class="ygrid crisp" transform="translate(0,206.19)" d="M47,0h348" style="stroke: rgb(255, 255, 255); stroke-opacity: 1; stroke-width: 1px;"/><path class="ygrid crisp" transform="translate(0,155.34)" d="M47,0h348" style="stroke: rgb(255, 255, 255); stroke-opacity: 1; stroke-width: 1px;"/><path class="ygrid crisp" transform="translate(0,147.61)" d="M47,0h348" style="stroke: rgb(255, 255, 255); stroke-opacity: 1; stroke-width: 1px;"/><path class="ygrid crisp" transform="translate(0,138.97)" d="M47,0h348" style="stroke: rgb(255, 255, 255); stroke-opacity: 1; stroke-width: 1px;"/><path class="ygrid crisp" transform="translate(0,129.17)" d="M47,0h348" style="stroke: rgb(255, 255, 255); stroke-opacity: 1; stroke-width: 1px;"/><path class="ygrid crisp" transform="translate(0,117.86)" d="M47,0h348" style="stroke: rgb(255, 255, 255); stroke-opacity: 1; stroke-width: 1px;"/><path class="ygrid crisp" transform="translate(0,104.49)" d="M47,0h348" style="stroke: rgb(255, 255, 255); stroke-opacity: 1; stroke-width: 1px;"/><path class="ygrid crisp" transform="translate(0,88.11)" d="M47,0h348" style="stroke: rgb(255, 255, 255); stroke-opacity: 1; stroke-width: 1px;"/><path class="ygrid crisp" transform="translate(0,67.01)" d="M47,0h348" style="stroke: rgb(255, 255, 255); stroke-opacity: 1; stroke-width: 1px;"/><path class="ygrid crisp" transform="translate(0,37.26)" d="M47,0h348" style="stroke: rgb(255, 255, 255); stroke-opacity: 1; stroke-width: 1px;"/></g></g><g class="zerolinelayer"/><path class="xlines-below"/><path class="ylines-below"/><g class="overlines-below"/><g class="xaxislayer-below"/><g class="yaxislayer-below"/><g class="overaxes-below"/><g class="plot" transform="translate(47,0)" clip-path="url('#clipa96a6exyplot')"><g class="scatterlayer mlayer"><g class="trace scatter tracea98d40" style="stroke-miterlimit: 2; opacity: 1;"><g class="fills"/><g class="errorbars"/><g class="lines"><path class="js-line" d="M0,245.87L4.38,243.95L6.57,238.56L8.75,234.3L10.94,221.64L13.13,199.68L15.32,195.95L17.51,205.36L19.7,187.39L21.89,182.14L24.08,191.04L28.45,162.11L30.64,180.58L32.83,178.62L35.02,169.61L37.21,169.18L39.4,147.62L41.58,145.03L43.77,137.99L45.96,135.39L48.15,119.78L50.34,140.95L52.53,123.02L59.09,86.82L61.28,91.67L63.47,85.14L65.66,88.97L67.85,79.83L70.04,82.37L72.23,72.48L74.42,79.48L78.79,67.76L80.98,66.7L83.17,66.49L85.36,63.18L87.55,63.6L89.74,62.85L91.92,62.53L94.11,61.29L96.3,66.36L98.49,66.57L102.87,52.35L105.06,58.84L107.25,64.04L109.43,54.5L113.81,50.8L116,54.54L118.19,53.25L120.38,47.22L122.57,46.06L124.75,48.49L126.94,49.05L129.13,44.66L131.32,47.23L133.51,48.64L135.7,47.11L137.89,47.84L140.08,45.19L142.26,49.17L144.45,47.02L146.64,47.74L148.83,46.43L151.02,48.67L153.21,41.79L155.4,44.35L157.58,45.58L159.77,41.72L161.96,40.69L164.15,40.99L166.34,43.58L168.53,37.82L170.72,40.54L172.91,39.89L175.09,39.99L177.28,38.14L179.47,39.41L181.66,36.75L183.85,40.04L186.04,41.21L188.23,39.02L190.42,38.65L192.6,40.87L194.79,37.48L196.98,41.71L199.17,42.18L201.36,38.13L203.55,47.75L205.74,40.23L207.92,44.54L214.49,34.38L216.68,31.67L218.87,41.71L221.06,35.2L223.25,40.29L225.43,41.37L227.62,42.3L229.81,34.1L236.38,40.83L238.57,29.24L240.75,38.45L242.94,39.82L245.13,38.12L247.32,33.65L249.51,33.1L251.7,33.4L253.89,36.63L256.08,42.13L258.26,38.44L260.45,40.84L262.64,36.96L264.83,39.55L267.02,36.08L269.21,37.85L271.4,40.74L273.58,36.34L275.77,37.75L277.96,34.33L280.15,36.08L282.34,32.12L284.53,38.43L286.72,37.39L288.91,39.96L291.09,34.29L293.28,36.34L295.47,43.68L297.66,39.84" style="vector-effect: non-scaling-stroke; fill: none; stroke: rgb(99, 110, 250); stroke-opacity: 1; stroke-width: 2px; opacity: 1;"/></g><g class="points"/><g class="text"/></g><g class="trace scatter trace32890a" style="stroke-miterlimit: 2; opacity: 1;"><g class="fills"/><g class="errorbars"/><g class="lines"><path class="js-line" d="M0,244.71L2.19,243.48L4.38,239.64L10.94,216.75L13.13,201.15L15.32,181.26L17.51,194.25L19.7,199.83L21.89,187.94L24.08,160.92L26.26,169.75L28.45,172.82L30.64,178.96L32.83,180.12L35.02,167.23L37.21,178.33L39.4,168.18L41.58,166.51L43.77,147.76L48.15,114.07L50.34,103.2L52.53,90.53L54.72,97.26L56.91,84.24L59.09,92.13L61.28,84.29L63.47,72.17L65.66,80.45L67.85,84.92L70.04,80.33L72.23,82.45L74.42,80.61L76.6,71.25L78.79,66.1L80.98,77.53L83.17,60.72L85.36,62.86L89.74,56.59L91.92,65.62L94.11,61.22L96.3,61.79L100.68,58L102.87,53.59L107.25,53.96L109.43,49.55L111.62,60.52L113.81,52.36L116,49.27L118.19,48.31L120.38,54.05L122.57,49.57L124.75,51.02L126.94,47.67L131.32,52.36L133.51,45.05L135.7,51.77L137.89,49.41L140.08,45.87L142.26,52.3L144.45,43.82L146.64,54.84L148.83,41.88L151.02,47.38L153.21,47.14L155.4,49.49L157.58,48.47L159.77,41.92L161.96,43.96L164.15,43.19L166.34,40.68L168.53,46.17L170.72,46.24L172.91,40.42L175.09,41.97L177.28,36.64L181.66,48.15L183.85,41.84L186.04,36.75L188.23,36.36L190.42,47.43L192.6,38L194.79,34.51L196.98,40.44L201.36,38.08L203.55,44.32L205.74,36.54L207.92,35.86L210.11,45.67L212.3,39.33L214.49,33.25L216.68,36.2L218.87,41.96L221.06,39.33L223.25,37.54L225.43,44.42L229.81,39.72L232,34.21L234.19,43.41L236.38,44.74L240.75,41.99L242.94,44.95L245.13,42.72L247.32,44.55L249.51,33.2L251.7,42.96L253.89,36.53L256.08,38.58L258.26,39L260.45,40.38L262.64,45.5L264.83,47.15L267.02,32.87L269.21,37.53L271.4,40.12L273.58,35.93L275.77,38.92L277.96,39.5L282.34,34.64L284.53,45.36L286.72,38.86L288.91,37.76L291.09,45.98L293.28,41.38L295.47,37.99L297.66,40.61L299.85,41.09L302.04,37.8L306.42,43.76L308.6,38.56L310.79,38.65L312.98,36.83L315.17,35.61L317.36,40.84L319.55,36L321.74,39.9L323.92,30.6L326.11,35.81L328.3,45.53L330.49,37.34L332.68,36.82L334.87,41.66L341.43,39.01L343.62,37.72L345.81,33.82L348,39.73" style="vector-effect: non-scaling-stroke; fill: none; stroke: rgb(239, 85, 59); stroke-opacity: 1; stroke-width: 2px; opacity: 1;"/></g><g class="points"/><g class="text"/></g><g class="trace scatter trace977303" style="stroke-miterlimit: 2; opacity: 1;"><g class="fills"/><g class="errorbars"/><g class="lines"><path class="js-line" d="M0,244.69L4.38,233.36L6.57,225.1L8.75,223.95L10.94,223.66L13.13,188.09L15.32,182.19L17.51,170.63L19.7,194.66L24.08,179.45L26.26,157.28L28.45,166.49L30.64,189.1L35.02,142.45L37.21,140.33L41.58,127.94L43.77,126.42L45.96,115.6L48.15,110.57L50.34,106.71L52.53,105.01L54.72,100.82L56.91,101.47L59.09,90.44L61.28,90.98L63.47,86.13L65.66,75.12L67.85,81.5L70.04,72.53L72.23,72.19L74.42,70.08L76.6,65.2L78.79,65.57L80.98,52.62L83.17,55.31L85.36,57.12L87.55,54.34L89.74,53.35L91.92,56.35L94.11,58.44L96.3,49.81L98.49,47.72L100.68,52.54L102.87,46.68L105.06,46.28L107.25,45.92L109.43,40.84L111.62,42.71L113.81,48.93L120.38,39.44L122.57,40.6L124.75,41.39L126.94,37.84L129.13,45.72L131.32,41.07L135.7,36.49L137.89,39.65L140.08,31.99L142.26,32.45L144.45,31.45L146.64,32.43L148.83,33.86L151.02,33.26L153.21,29.19L155.4,32.95L157.58,32.29L159.77,35.28L161.96,30.06L164.15,27.79L166.34,27.46L168.53,31.84L170.72,26.36L172.91,30.62L175.09,33.23L177.28,32.78L179.47,31.77L181.66,24.39L183.85,31.53L186.04,30.25L188.23,29.41L190.42,26.52L192.6,28.98L194.79,24.3L196.98,29.75L199.17,26.12L201.36,27.8L203.55,30.82L205.74,33.77L207.92,31.21L210.11,26.67L212.3,28.87L214.49,29.13L216.68,25.95L218.87,26.06L221.06,29.32L223.25,28.28L225.43,28.68L227.62,23.23L229.81,27.8L234.19,28.25L236.38,29.68L240.75,23.9L242.94,28.3L245.13,30.14L247.32,26.86L249.51,26.33L251.7,24.78L253.89,26.49L256.08,21.21L258.26,24.11L260.45,24.8L264.83,24.71L267.02,27.41L269.21,25.35L271.4,19.05L273.58,25.24L275.77,25.84L277.96,24.3L280.15,24.75L282.34,27.42L284.53,22.37L288.91,26.42L291.09,25.44L293.28,22.06L295.47,27.56L297.66,24.16L299.85,27.21L302.04,26.92" style="vector-effect: non-scaling-stroke; fill: none; stroke: rgb(0, 204, 150); stroke-opacity: 1; stroke-width: 2px; opacity: 1;"/></g><g class="points"/><g class="text"/></g><g class="trace scatter tracec08210" style="stroke-miterlimit: 2; opacity: 1;"><g class="fills"/><g class="errorbars"/><g class="lines"><path class="js-line" d="M0,245.91L2.19,240.32L4.38,232.64L6.57,227.33L8.75,214.15L10.94,207.94L13.13,179.51L15.32,153.03L17.51,154.25L19.7,169.01L21.89,168.45L24.08,150.47L26.26,152.4L28.45,150.13L30.64,144.62L35.02,124.54L37.21,119.06L41.58,112.51L43.77,101.2L45.96,101.56L48.15,92.58L52.53,85.5L54.72,89.43L59.09,83.27L61.28,73.2L63.47,70.86L65.66,72.35L67.85,68.12L70.04,61.04L72.23,67.97L74.42,61.92L76.6,54.62L78.79,58.3L80.98,56.51L83.17,56.28L85.36,50.09L87.55,51.85L89.74,54.4L91.92,50.54L94.11,47.79L96.3,49.55L98.49,46.64L100.68,48.56L102.87,42.82L105.06,49.14L107.25,41.37L109.43,43.13L111.62,41.67L113.81,38.99L116,44.57L118.19,40.52L120.38,39.4L122.57,41.19L124.75,36.37L126.94,38.35L129.13,37.43L131.32,40.58L133.51,38.49L135.7,34.99L137.89,35.83L140.08,39.76L142.26,33.31L144.45,31.59L146.64,35.83L148.83,33.91L151.02,34.78L153.21,33.84L155.4,30.98L157.58,35.26L159.77,29.9L161.96,31.86L164.15,28.25L166.34,30.14L168.53,29.13L170.72,25.9L172.91,25.63L175.09,27.2L179.47,25.3L181.66,25.44L183.85,25.63L186.04,27.01L188.23,27.59L190.42,23.91L192.6,27.66L194.79,21.07L196.98,22.64L199.17,28.39L201.36,22.13L203.55,26.41L205.74,22.92L207.92,24.92L210.11,21.49L212.3,21.93L214.49,20.78L216.68,28.29L218.87,26.06L221.06,21.87L223.25,18.4L225.43,23.7L227.62,25.65L229.81,21.92L236.38,23.75L238.57,19.46L240.75,21.51L242.94,19.99L245.13,24.75L247.32,16.35L249.51,20.35L251.7,20.48L253.89,25.28L256.08,20.48L260.45,27.3L262.64,23.55L267.02,23.77L269.21,24.73L271.4,20.36L273.58,24.99L275.77,26.2L277.96,25.52L280.15,18.69L282.34,20.07L284.53,23.53L286.72,20.22L288.91,24.36L291.09,19.81L293.28,19.59L295.47,21.23L297.66,22.35L299.85,26.14L302.04,22.98L304.23,22.03L306.42,20.59L308.6,26.66L310.79,18.23L312.98,22.32L315.17,21.14L317.36,15.92L319.55,23.44L321.74,23.54L323.92,20.77L326.11,15.69L330.49,26.56L332.68,26.73L334.87,18.46L337.06,17.24L339.25,22.06L341.43,18.41L343.62,20.83L345.81,21.92L348,18.65" style="vector-effect: non-scaling-stroke; fill: none; stroke: rgb(171, 99, 250); stroke-opacity: 1; stroke-width: 2px; opacity: 1;"/></g><g class="points"/><g class="text"/></g><g class="trace scatter trace624b21" style="stroke-miterlimit: 2; opacity: 1;"><g class="fills"/><g class="errorbars"/><g class="lines"><path class="js-line" d="M0,246.05L2.19,232.15L4.38,229.28L8.75,212.59L10.94,192.02L13.13,150.34L15.32,125.57L19.7,96.56L21.89,90.53L24.08,87.23L26.26,87.5L30.64,69.72L32.83,74.32L37.21,64.99L39.4,65.44L41.58,66.18L43.77,59.61L45.96,57.57L48.15,54.33L50.34,55.32L52.53,54.23L54.72,51.57L56.91,44.67L59.09,48.45L61.28,47.19L63.47,48.79L65.66,41.82L67.85,38.76L70.04,38.74L72.23,36.14L74.42,35.18L76.6,37.03L78.79,34.33L80.98,32.4L83.17,36.58L85.36,32.06L87.55,31.98L89.74,33.24L91.92,30.5L94.11,30.83L96.3,26.39L98.49,30.74L100.68,27.26L102.87,28.64L105.06,24.46L107.25,21.8L109.43,26.21L113.81,23.23L116,24.21L118.19,20.48L120.38,24.25L122.57,24.7L124.75,26.12L126.94,27.87L129.13,24.05L131.32,20.96L133.51,26.03L135.7,16.77L137.89,22.39L140.08,24.77L142.26,22L144.45,14.1L146.64,16.55L148.83,16.6L151.02,20.3L155.4,16.57L157.58,16.41L159.77,24.3L161.96,18.32L164.15,18.38L166.34,13.58L168.53,21.66L170.72,23.07L175.09,17.33L177.28,22.97L179.47,20.51L181.66,19.58L183.85,18.47L186.04,19.39L192.6,20.89L194.79,19.55L196.98,14.11L199.17,15.32L201.36,20.55L203.55,21.72L210.11,14.82L212.3,15.78L214.49,13.43L216.68,18.36L218.87,16.08L221.06,18.59L223.25,17.28L225.43,18.13L227.62,14.44L229.81,16.21L234.19,17.45L236.38,18.55L238.57,15.22L240.75,16.58L242.94,17.43L245.13,14.52L249.51,20.54L251.7,19.23L256.08,13.6L258.26,19.11L260.45,16.91L262.64,19.28L264.83,18.02L267.02,15.66L269.21,19.66L271.4,13.04L273.58,16L275.77,14.94L282.34,20.91L284.53,17.29L286.72,18.98L288.91,22.59L291.09,14.78L293.28,21.53L295.47,18.41L297.66,19.52L299.85,17.66L302.04,21.09L306.42,19.23L308.6,16.95L312.98,18.06L315.17,17.89L317.36,16.33L319.55,22.1L321.74,22.6L323.92,15L326.11,16.59L328.3,21.46L330.49,15.71L332.68,22.65L334.87,19.27L337.06,24.63" style="vector-effect: non-scaling-stroke; fill: none; stroke: rgb(255, 161, 90); stroke-opacity: 1; stroke-width: 2px; opacity: 1;"/></g><g class="points"/><g class="text"/></g><g class="trace scatter traceb8ceb3" style="stroke-miterlimit: 2; opacity: 1;"><g class="fills"/><g class="errorbars"/><g class="lines"><path class="js-line" d="M0,240.56L4.38,224.4L6.57,201.68L8.75,210.17L10.94,165.09L13.13,151.21L15.32,119.95L17.51,92.26L19.7,90.21L21.89,81.51L24.08,81.06L26.26,70.78L28.45,66.24L32.83,62.32L35.02,58.66L37.21,64.18L39.4,65.14L41.58,59.42L43.77,59.21L45.96,63.73L48.15,56.14L50.34,58.54L52.53,53.77L54.72,55.88L56.91,56.47L59.09,53.25L61.28,52.1L63.47,46.27L65.66,45.46L67.85,49.85L70.04,41.78L72.23,45.88L74.42,37.6L76.6,42.64L78.79,42.33L80.98,41.91L83.17,39.21L85.36,36.11L87.55,38.57L89.74,37.84L91.92,33.36L94.11,28.12L96.3,35.63L98.49,32.13L100.68,33.95L102.87,28.9L105.06,30.39L107.25,27.09L109.43,28.08L111.62,28.43L113.81,25.15L116,29.87L118.19,28.47L120.38,25.01L122.57,26.51L126.94,31.97L129.13,30.14L131.32,22.82L133.51,26.57L135.7,25.54L137.89,23.18L140.08,24.92L142.26,22.44L144.45,24.65L146.64,23.21L151.02,24.96L153.21,21.96L155.4,20.19L157.58,23.91L159.77,25.26L161.96,21.7L166.34,24.69L168.53,24.2L170.72,22.58L172.91,24.89L175.09,17.23L177.28,21L179.47,25.06L181.66,19.57L183.85,22.72L186.04,20.89L188.23,19.75L190.42,24.93L194.79,19.43L196.98,16.58L199.17,21.34L201.36,18.97L203.55,14.69L205.74,21.78L207.92,22.44L210.11,21.98L212.3,21.85L214.49,20.52L216.68,21.05L218.87,18.88L223.25,15.18L225.43,17.34L227.62,12.95L229.81,17.95L232,21.36L234.19,17.41L236.38,21.95L238.57,17.97L240.75,22.19L242.94,17.21L245.13,19.04L247.32,14.1L251.7,17.1L253.89,25.19L256.08,18.5L258.26,15.48L260.45,19.82L262.64,21.02L267.02,15.49L269.21,18.68L275.77,22.35L277.96,19.79L280.15,15.42L282.34,19.88L284.53,19.44L286.72,15.62L288.91,21.49L291.09,20.44L293.28,16.24L295.47,17.09L297.66,17.41L299.85,18.81L302.04,15.64L304.23,20.09L306.42,16.38L308.6,18.74L310.79,21.69L312.98,16.18L315.17,19.7L317.36,15.3L319.55,18.48L321.74,16.96L330.49,21.25L332.68,17.49L337.06,19.45L339.25,22.78L343.62,20.52L345.81,18.61L348,17.67" style="vector-effect: non-scaling-stroke; fill: none; stroke: rgb(25, 211, 243); stroke-opacity: 1; stroke-width: 2px; opacity: 1;"/></g><g class="points"/><g class="text"/></g></g></g><g class="overplot"/><path class="xlines-above crisp" d="M0,0" style="fill: none;"/><path class="ylines-above crisp" d="M0,0" style="fill: none;"/><g class="overlines-above"/><g class="xaxislayer-above"><g class="xtick"><text text-anchor="middle" x="0" y="272" transform="translate(111.54,0)" style="font-family: 'Latin Modern Roman'; font-size: 12px; fill: rgb(0, 0, 0); fill-opacity: 1; white-space: pre;">5M</text></g><g class="xtick"><text text-anchor="middle" x="0" y="272" transform="translate(178.27,0)" style="font-family: 'Latin Modern Roman'; font-size: 12px; fill: rgb(0, 0, 0); fill-opacity: 1; white-space: pre;">10M</text></g><g class="xtick"><text text-anchor="middle" x="0" y="272" transform="translate(245,0)" style="font-family: 'Latin Modern Roman'; font-size: 12px; fill: rgb(0, 0, 0); fill-opacity: 1; white-space: pre;">15M</text></g><g class="xtick"><text text-anchor="middle" x="0" y="272" transform="translate(311.72,0)" style="font-family: 'Latin Modern Roman'; font-size: 12px; fill: rgb(0, 0, 0); fill-opacity: 1; white-space: pre;">20M</text></g><g class="xtick"><text text-anchor="middle" x="0" y="272" transform="translate(378.45,0)" style="font-family: 'Latin Modern Roman'; font-size: 12px; fill: rgb(0, 0, 0); fill-opacity: 1; white-space: pre;">25M</text></g></g><g class="yaxislayer-above"><g class="ytick"><text text-anchor="end" x="46" y="4.199999999999999" transform="translate(0,257.05)" style="font-family: 'Latin Modern Roman'; font-size: 12px; fill: rgb(0, 0, 0); fill-opacity: 1; white-space: pre;">400</text></g><g class="ytick"><text text-anchor="end" x="46" y="4.199999999999999" transform="translate(0,235.94)" style="font-family: 'Latin Modern Roman'; font-size: 12px; fill: rgb(0, 0, 0); fill-opacity: 1; white-space: pre;">300</text></g><g class="ytick"><text text-anchor="end" x="46" y="4.199999999999999" transform="translate(0,206.19)" style="font-family: 'Latin Modern Roman'; font-size: 12px; fill: rgb(0, 0, 0); fill-opacity: 1; white-space: pre;">200</text></g><g class="ytick"><text text-anchor="end" x="43" y="4.199999999999999" transform="translate(0,155.34)" style="font-family: 'Latin Modern Roman'; font-size: 12px; fill: rgb(0, 0, 0); fill-opacity: 1; white-space: pre;">100</text></g><g class="ytick"><text text-anchor="end" x="46" y="4.199999999999999" transform="translate(0,147.61)" style="font-family: 'Latin Modern Roman'; font-size: 12px; fill: rgb(0, 0, 0); fill-opacity: 1; white-space: pre;">90</text></g><g class="ytick"><text text-anchor="end" x="46" y="4.199999999999999" transform="translate(0,138.97)" style="font-family: 'Latin Modern Roman'; font-size: 12px; fill: rgb(0, 0, 0); fill-opacity: 1; white-space: pre;">80</text></g><g class="ytick"><text text-anchor="end" x="46" y="4.199999999999999" transform="translate(0,129.17)" style="font-family: 'Latin Modern Roman'; font-size: 12px; fill: rgb(0, 0, 0); fill-opacity: 1; white-space: pre;">70</text></g><g class="ytick"><text text-anchor="end" x="46" y="4.199999999999999" transform="translate(0,117.86)" style="font-family: 'Latin Modern Roman'; font-size: 12px; fill: rgb(0, 0, 0); fill-opacity: 1; white-space: pre;">60</text></g><g class="ytick"><text text-anchor="end" x="46" y="4.199999999999999" transform="translate(0,104.49)" style="font-family: 'Latin Modern Roman'; font-size: 12px; fill: rgb(0, 0, 0); fill-opacity: 1; white-space: pre;">50</text></g><g class="ytick"><text text-anchor="end" x="46" y="4.199999999999999" transform="translate(0,88.11)" style="font-family: 'Latin Modern Roman'; font-size: 12px; fill: rgb(0, 0, 0); fill-opacity: 1; white-space: pre;">40</text></g><g class="ytick"><text text-anchor="end" x="46" y="4.199999999999999" transform="translate(0,67.01)" style="font-family: 'Latin Modern Roman'; font-size: 12px; fill: rgb(0, 0, 0); fill-opacity: 1; white-space: pre;">30</text></g><g class="ytick"><text text-anchor="end" x="46" y="4.199999999999999" transform="translate(0,37.26)" style="font-family: 'Latin Modern Roman'; font-size: 12px; fill: rgb(0, 0, 0); fill-opacity: 1; white-space: pre;">20</text></g></g><g class="overaxes-above"/></g></g><g class="polarlayer"/><g class="ternarylayer"/><g class="geolayer"/><g class="funnelarealayer"/><g class="pielayer"/><g class="treemaplayer"/><g class="sunburstlayer"/><g class="glimages"/><defs id="topdefs-a96a6e"><g class="clips"/><clipPath id="legenda96a6e"><rect width="198" height="124" x="0" y="0"/></clipPath></defs><g class="layer-above"><g class="imagelayer"/><g class="shapelayer"/></g><g class="infolayer"><g class="legend" pointer-events="all" transform="translate(401.96,0)"><rect class="bg" shape-rendering="crispEdges" width="198" height="124" x="0" y="0" style="stroke: rgb(68, 68, 68); stroke-opacity: 1; fill: rgb(255, 255, 255); fill-opacity: 1; stroke-width: 0px;"/><g class="scrollbox" transform="" clip-path="url('#legenda96a6e')"><g class="groups"><g class="traces" transform="translate(0,14.5)" style="opacity: 1;"><text class="legendtext" text-anchor="start" x="40" y="4.680000000000001" style="font-family: 'Latin Modern Roman'; font-size: 12px; fill: rgb(0, 0, 0); fill-opacity: 1; white-space: pre;">Bayes agg. (medium) (n=16)</text><g class="layers" style="opacity: 1;"><g class="legendfill"/><g class="legendlines"><path class="js-line" d="M5,0h30" style="fill: none; stroke: rgb(99, 110, 250); stroke-opacity: 1; stroke-width: 2px;"/></g><g class="legendsymbols"><g class="legendpoints"/></g></g><rect class="legendtoggle" x="0" y="-9.5" width="192.234375" height="19" style="fill: rgb(0, 0, 0); fill-opacity: 0;"/></g><g class="traces" transform="translate(0,33.5)" style="opacity: 1;"><text class="legendtext" text-anchor="start" x="40" y="4.680000000000001" style="font-family: 'Latin Modern Roman'; font-size: 12px; fill: rgb(0, 0, 0); fill-opacity: 1; white-space: pre;">Mean agg. (medium) (n=14)</text><g class="layers" style="opacity: 1;"><g class="legendfill"/><g class="legendlines"><path class="js-line" d="M5,0h30" style="fill: none; stroke: rgb(239, 85, 59); stroke-opacity: 1; stroke-width: 2px;"/></g><g class="legendsymbols"><g class="legendpoints"/></g></g><rect class="legendtoggle" x="0" y="-9.5" width="192.234375" height="19" style="fill: rgb(0, 0, 0); fill-opacity: 0;"/></g><g class="traces" transform="translate(0,52.5)" style="opacity: 1;"><text class="legendtext" text-anchor="start" x="40" y="4.680000000000001" style="font-family: 'Latin Modern Roman'; font-size: 12px; fill: rgb(0, 0, 0); fill-opacity: 1; white-space: pre;">Bayes agg. (simple) (n=16)</text><g class="layers" style="opacity: 1;"><g class="legendfill"/><g class="legendlines"><path class="js-line" d="M5,0h30" style="fill: none; stroke: rgb(0, 204, 150); stroke-opacity: 1; stroke-width: 2px;"/></g><g class="legendsymbols"><g class="legendpoints"/></g></g><rect class="legendtoggle" x="0" y="-9.5" width="192.234375" height="19" style="fill: rgb(0, 0, 0); fill-opacity: 0;"/></g><g class="traces" transform="translate(0,71.5)" style="opacity: 1;"><text class="legendtext" text-anchor="start" x="40" y="4.680000000000001" style="font-family: 'Latin Modern Roman'; font-size: 12px; fill: rgb(0, 0, 0); fill-opacity: 1; white-space: pre;">Mean agg. (simple) (n=18)</text><g class="layers" style="opacity: 1;"><g class="legendfill"/><g class="legendlines"><path class="js-line" d="M5,0h30" style="fill: none; stroke: rgb(171, 99, 250); stroke-opacity: 1; stroke-width: 2px;"/></g><g class="legendsymbols"><g class="legendpoints"/></g></g><rect class="legendtoggle" x="0" y="-9.5" width="192.234375" height="19" style="fill: rgb(0, 0, 0); fill-opacity: 0;"/></g><g class="traces" transform="translate(0,90.5)" style="opacity: 1;"><text class="legendtext" text-anchor="start" x="40" y="4.680000000000001" style="font-family: 'Latin Modern Roman'; font-size: 12px; fill: rgb(0, 0, 0); fill-opacity: 1; white-space: pre;">Bayes agg. (opt) (n=16)</text><g class="layers" style="opacity: 1;"><g class="legendfill"/><g class="legendlines"><path class="js-line" d="M5,0h30" style="fill: none; stroke: rgb(255, 161, 90); stroke-opacity: 1; stroke-width: 2px;"/></g><g class="legendsymbols"><g class="legendpoints"/></g></g><rect class="legendtoggle" x="0" y="-9.5" width="192.234375" height="19" style="fill: rgb(0, 0, 0); fill-opacity: 0;"/></g><g class="traces" transform="translate(0,109.5)" style="opacity: 1;"><text class="legendtext" text-anchor="start" x="40" y="4.680000000000001" style="font-family: 'Latin Modern Roman'; font-size: 12px; fill: rgb(0, 0, 0); fill-opacity: 1; white-space: pre;">Mean agg. (opt) (n=18)</text><g class="layers" style="opacity: 1;"><g class="legendfill"/><g class="legendlines"><path class="js-line" d="M5,0h30" style="fill: none; stroke: rgb(25, 211, 243); stroke-opacity: 1; stroke-width: 2px;"/></g><g class="legendsymbols"><g class="legendpoints"/></g></g><rect class="legendtoggle" x="0" y="-9.5" width="192.234375" height="19" style="fill: rgb(0, 0, 0); fill-opacity: 0;"/></g></g></g><rect class="scrollbar" rx="20" ry="3" width="0" height="0" x="0" y="0" style="fill: rgb(128, 139, 164); fill-opacity: 1;"/></g><g class="g-gtitle"/><g class="g-xtitle" transform="translate(0,-3.8000000000000114)"><text class="xtitle" x="221" y="299.8" text-anchor="middle" style="font-family: 'Latin Modern Roman'; font-size: 14px; fill: rgb(0, 0, 0); opacity: 1; font-weight: normal; white-space: pre;">Agent Steps</text></g><g class="g-ytitle" transform="translate(15.8154296875,0)"><text class="ytitle" transform="rotate(-90,0.18437500000000284,129.5)" x="0.18437500000000284" y="129.5" text-anchor="middle" style="font-family: 'Latin Modern Roman'; font-size: 14px; fill: rgb(0, 0, 0); opacity: 1; font-weight: normal; white-space: pre;">Avg. Reward</text></g></g></svg>