<svg class="main-svg" xmlns="http://www.w3.org/2000/svg" xmlns:xlink="http://www.w3.org/1999/xlink" width="600" height="300" style="" viewBox="0 0 600 300"><rect x="0" y="0" width="600" height="300" style="fill: rgb(255, 255, 255); fill-opacity: 1;"/><defs id="defs-d6b81b"><g class="clips"><clipPath id="clipd6b81bxyplot" class="plotclip"><rect width="396" height="256"/></clipPath><clipPath class="axesclip" id="clipd6b81bx"><rect x="38" y="0" width="396" height="300"/></clipPath><clipPath class="axesclip" id="clipd6b81by"><rect x="0" y="3" width="600" height="256"/></clipPath><clipPath class="axesclip" id="clipd6b81bxy"><rect x="38" y="3" width="396" height="256"/></clipPath></g><g class="gradients"/></defs><g class="bglayer"><rect class="bg" x="38" y="3" width="396" height="256" style="fill: rgb(229, 236, 246); fill-opacity: 1; stroke-width: 0;"/></g><g class="layer-below"><g class="imagelayer"/><g class="shapelayer"/></g><g class="cartesianlayer"><g class="subplot xy"><g class="layer-subplot"><g class="shapelayer"/><g class="imagelayer"/></g><g class="gridlayer"><g class="x"><path class="xgrid crisp" transform="translate(115.01,0)" d="M0,3v256" style="stroke: rgb(255, 255, 255); stroke-opacity: 1; stroke-width: 1px;"/><path class="xgrid crisp" transform="translate(192.81,0)" d="M0,3v256" style="stroke: rgb(255, 255, 255); stroke-opacity: 1; stroke-width: 1px;"/><path class="xgrid crisp" transform="translate(270.61,0)" d="M0,3v256" style="stroke: rgb(255, 255, 255); stroke-opacity: 1; stroke-width: 1px;"/><path class="xgrid crisp" transform="translate(348.42,0)" d="M0,3v256" style="stroke: rgb(255, 255, 255); stroke-opacity: 1; stroke-width: 1px;"/><path class="xgrid crisp" transform="translate(426.22,0)" d="M0,3v256" style="stroke: rgb(255, 255, 255); stroke-opacity: 1; stroke-width: 1px;"/></g><g class="y"><path class="ygrid crisp" transform="translate(0,198.69)" d="M38,0h396" style="stroke: rgb(255, 255, 255); stroke-opacity: 1; stroke-width: 1px;"/><path class="ygrid crisp" transform="translate(0,151.19)" d="M38,0h396" style="stroke: rgb(255, 255, 255); stroke-opacity: 1; stroke-width: 1px;"/><path class="ygrid crisp" transform="translate(0,103.68)" d="M38,0h396" style="stroke: rgb(255, 255, 255); stroke-opacity: 1; stroke-width: 1px;"/><path class="ygrid crisp" transform="translate(0,56.18)" d="M38,0h396" style="stroke: rgb(255, 255, 255); stroke-opacity: 1; stroke-width: 1px;"/><path class="ygrid crisp" transform="translate(0,8.67)" d="M38,0h396" style="stroke: rgb(255, 255, 255); stroke-opacity: 1; stroke-width: 1px;"/></g></g><g class="zerolinelayer"><path class="yzl zl crisp" transform="translate(0,246.2)" d="M38,0h396" style="stroke: rgb(255, 255, 255); stroke-opacity: 1; stroke-width: 2px;"/></g><path class="xlines-below"/><path class="ylines-below"/><g class="overlines-below"/><g class="xaxislayer-below"/><g class="yaxislayer-below"/><g class="overaxes-below"/><g class="plot" transform="translate(38,3)" clip-path="url('#clipd6b81bxyplot')"><g class="scatterlayer mlayer"><g class="trace scatter trace6b4dc5" style="stroke-miterlimit: 2; opacity: 1;"><g class="fills"/><g class="errorbars"/><g class="lines"><path class="js-line" d="M0,241.54L11.11,241.06L11.9,240.71L13.49,241.18L14.28,240.82L17.46,241.06L18.25,241.06L31.74,240.35L32.54,239.87L35.71,240.23L36.51,239.52L38.09,239.28L38.89,239.28L39.68,239.28L40.47,237.97L41.27,236.19L42.06,237.74L44.44,234.29L45.23,230.85L47.62,217.31L48.41,218.02L49.2,214.22L50,204.72L50.79,212.2L51.58,204.01L52.38,215.88L53.17,200.56L53.96,204.96L54.76,193.91L57.14,202.7L57.93,195.93L58.73,195.81L59.52,192.49L61.9,177.52L62.69,182.87L63.49,179.07L64.28,181.09L65.87,167.31L66.66,169.57L68.25,158.52L69.04,164.1L69.84,160.9L70.63,151.99L71.42,156.27L72.22,149.38L73.01,154.25L73.8,153.65L74.6,150.56L75.39,143.08L76.18,149.14L76.98,144.86L77.77,142.49L78.57,142.96L79.36,152.47L80.15,137.5L80.95,142.01L81.74,139.52L82.53,136.91L83.33,130.49L84.12,131.92L84.91,140.35L85.71,140.95L86.5,137.14L87.29,129.78L88.09,138.09L89.68,134.06L90.47,130.85L91.26,139.4L92.06,125.03L92.85,126.93L93.64,118.26L94.44,118.74L95.23,124.32L96.82,121.59L97.61,122.3L98.4,123.84L99.2,120.28L99.99,121.47L100.79,118.86L101.58,110.54L102.37,116.96L103.17,113.04L103.96,122.3L104.75,120.16L105.55,128.24L108.72,117.31L109.52,123.61L110.31,128.48L111.1,118.86L111.9,125.62L112.69,117.07L114.28,125.86L115.07,119.33L115.86,126.69L116.66,122.3L117.45,118.74L118.24,109.83L119.04,118.26L119.83,113.15L121.42,117.07L122.21,115.17L123.01,120.28L123.8,117.55L124.59,118.02L125.39,113.51L126.18,112.68L126.97,116.24L127.77,110.66L128.56,110.9L129.35,118.26L130.15,111.14L130.94,114.94L131.74,113.15L132.53,115.41L133.32,113.51L134.12,113.51L134.91,114.34L135.7,113.27L136.5,116.36L137.29,111.02L138.08,112.32L139.67,102.58L140.46,109L141.26,109.95L142.05,107.69L143.64,112.44L144.43,102.82L145.23,106.62L146.02,104.72L146.81,111.49L147.61,109.95L148.4,115.77L149.19,109.71L149.99,106.98L150.78,99.85L152.37,101.16L153.16,108.29L153.96,106.39L154.75,107.34L155.54,106.74L156.34,110.54L157.13,111.25L157.92,105.44L159.51,100.57L160.3,104.48L161.1,98.19L161.89,101.28L162.69,101.04L163.48,103.89L164.27,109.71L165.07,106.98L165.86,103.89L166.65,105.67L168.24,102.23L169.03,102.7L169.83,102.35L170.62,96.65L171.41,104.48L172.21,100.21L173,105.2L173.8,101.52L174.59,104.37L175.38,97.12L176.18,106.98L176.97,98.19L177.76,100.92L178.56,100.09L179.35,99.5L180.14,97.12L181.73,105.44L182.53,109.24L183.32,98.43L184.11,99.5L185.7,103.42L186.49,101.75L187.29,95.82L188.08,99.85L188.87,93.8L189.67,94.98L190.46,91.66L191.25,95.22L192.05,91.78L192.84,96.65L195.22,91.42L196.02,92.85L196.81,92.96L197.6,100.68L198.4,90.23L199.19,94.75L199.98,101.28L200.78,91.3L201.57,94.39L202.36,90L203.95,88.69L204.75,100.33L205.54,96.88L206.33,97.48L207.92,97L208.71,98.67L209.51,99.02L210.3,97.72L211.89,96.29L212.68,101.4L213.47,96.29L214.27,100.8L215.06,88.69L215.86,94.87L216.65,91.3L217.44,91.54L218.24,99.38L219.03,89.76L220.62,95.46L221.41,95.22L222.2,93.32L223,93.8L223.79,94.87L224.59,94.03L225.38,95.7L226.17,100.21L226.97,92.85L227.76,93.8L228.55,94.03L229.35,92.25L230.93,97.48L231.73,88.93L232.52,96.53L233.31,95.46L234.11,97.48L234.9,105.55L236.49,87.86L237.28,92.73L238.08,95.1L238.87,89.16L239.66,92.96L240.46,88.69L242.04,96.29L242.84,85.96L243.63,99.02L244.42,91.78L245.22,96.77L246.01,89.52L247.6,93.44L248.39,88.1L249.19,84.65L249.98,86.43L252.36,91.06L253.15,84.77L253.95,88.21L254.74,87.26L255.54,85.48L256.33,88.69L257.12,83.58L257.92,91.42L259.5,88.33L260.3,87.74L261.09,86.43L261.88,89.64L262.68,84.18L263.47,88.57L264.26,94.15L265.06,85.6L267.44,85.13L268.23,89.76L269.03,91.3L269.82,90L270.61,89.52L271.41,86.08L272.2,93.32L272.99,87.38L273.79,91.9L274.58,87.03L276.17,90.59L276.96,84.3L278.55,98.9L279.34,90.59L280.14,89.28L280.93,89.52L281.72,92.25L282.52,87.38L284.1,87.03L284.9,80.97L285.69,91.42L286.48,91.54L288.07,86.67L288.87,93.8L289.66,88.81L290.45,91.18L291.25,89.4L292.04,98.43L292.83,99.73L293.63,86.91L294.42,94.87L295.21,90.71L296.01,100.57L296.8,95.46L298.39,92.13L299.18,93.32L299.98,93.2L300.77,89.64L301.56,90.35L302.36,95.58L303.15,99.5L303.94,97L304.74,99.73L305.53,99.38L307.12,94.87L307.91,94.51L308.71,91.9L309.5,95.22L310.29,95.82L311.09,87.26L311.88,97.36L312.67,94.51L313.47,103.42L314.26,101.52L315.05,94.75L315.85,99.62L316.64,96.77L317.43,97.24L318.23,92.96L319.02,97.83L319.82,96.05L320.61,98.78L321.4,98.9L322.2,95.34L322.99,97.83L323.78,95.1L325.37,98.07L326.16,94.27L327.75,102.11L328.55,101.16L330.13,96.77L330.93,93.92L332.51,91.54L333.31,93.92L334.1,95.58L334.89,100.92L337.27,92.96L338.07,100.92L338.86,91.18L339.66,96.29L340.45,93.8L341.24,101.63L342.04,98.43L342.83,101.4L343.62,95.22L344.42,99.38L346,90.95L346.8,93.56L348.38,99.62L349.18,96.53L349.97,104.01L350.77,96.05L352.35,101.16L353.15,99.02L353.94,95.46L354.73,102.47L355.53,94.27L356.32,97.48L357.11,94.27L357.91,98.07L358.7,96.53L359.49,97.95L360.29,94.15L361.08,99.5L361.88,95.58L362.67,103.18L363.46,102.58L364.26,98.19L365.05,98.19L365.84,101.75L366.64,97L367.43,103.77L368.22,90.95L369.02,95.93L371.4,104.72L372.19,93.56L372.99,99.26L373.78,99.14L374.57,100.68L375.37,104.6L376.16,105.91L376.95,101.52L377.75,96.53L378.54,101.4L379.33,99.5L380.13,107.1L380.92,100.45L381.72,103.18L382.51,107.45L383.3,101.04L384.1,100.45L384.89,106.15L385.68,95.7L386.48,106.98L387.27,110.66L388.06,107.22L390.44,99.62L391.24,112.2L392.83,104.84L393.62,107.81L394.41,103.18L395.21,107.81L396,100.68" style="vector-effect: non-scaling-stroke; fill: none; stroke: rgb(99, 110, 250); stroke-opacity: 1; stroke-width: 2px; opacity: 1;"/></g><g class="points"/><g class="text"/></g><g class="trace scatter tracee36db0" style="stroke-miterlimit: 2; opacity: 1;"><g class="fills"><g><path class="js-fill" d="M0,241.24L2.38,240.59L3.17,240.77L7.14,240.23L7.94,239.64L8.73,240.17L9.52,238.63L11.11,236.25L11.9,237.5L13.49,232.69L14.28,234.23L16.67,231.8L17.46,228.18L18.25,230.79L19.05,228.53L19.84,222.12L20.63,231.86L22.22,220.52L23.01,224.55L24.6,218.2L25.39,217.55L26.98,220.34L27.78,224.38L28.57,220.28L29.36,221.94L30.16,220.16L30.95,220.93L31.74,220.52L32.54,213.57L35.71,206.68L36.51,210.96L37.3,193.5L38.09,202.11L39.68,181.86L40.47,188.57L41.27,188.33L42.06,175.03L42.85,174.56L43.65,164.7L44.44,174.91L45.23,174.02L46.03,175.74L46.82,174.14L47.62,162.68L48.41,165.77L49.2,163.04L50,151.1L50.79,145.4L51.58,147.24L53.17,156.98L53.96,146.76L54.76,158.4L55.55,144.57L57.14,143.5L57.93,137.14L58.73,140.53L59.52,137.74L60.31,133.34L61.11,134.53L61.9,127.58L62.69,128.48L64.28,126.93L65.07,122.95L66.66,116.36L67.45,114.52L69.84,105.85L70.63,97.3L71.42,106.62L72.22,105.61L73.01,106.5L73.8,101.46L74.6,101.52L75.39,103.65L76.18,103.42L76.98,107.39L77.77,105.61L78.57,97.3L79.36,104.01L80.15,93.38L80.95,106.03L81.74,100.45L82.53,94.03L83.33,97.3L84.12,98.13L84.91,95.16L85.71,95.52L86.5,89.05L88.09,96.71L88.88,95.58L90.47,99.14L91.26,90.77L92.85,98.37L93.64,98.43L95.23,95.99L96.02,90.53L96.82,97.3L97.61,96.17L98.4,87.44L99.2,94.87L99.99,86.49L100.79,92.73L101.58,87.68L102.37,91.06L103.17,93.5L103.96,90.17L105.55,87.44L106.34,82.87L107.93,91.96L108.72,91.36L109.52,90.95L110.31,81.39L111.1,92.79L111.9,87.68L112.69,87.68L113.48,83.94L114.28,82.93L115.07,90.17L115.86,82.45L116.66,82.93L117.45,80.97L118.24,87.09L119.04,84.06L119.83,88.39L121.42,81.8L122.21,86.79L123.8,79.9L124.59,84.71L126.18,79.6L126.97,78.24L127.77,78.36L128.56,84.53L129.35,89.52L130.15,80.02L130.94,70.04L131.74,73.9L133.32,68.56L134.12,69.03L134.91,72.12L135.7,71.29L136.5,72.72L137.29,66.96L138.88,71.29L139.67,75.51L140.46,68.02L141.26,72.72L142.05,74.32L142.85,64.64L143.64,66.18L144.43,64.46L146.02,70.28L146.81,69.81L148.4,66.3L149.19,68.62L149.99,57.87L150.78,70.88L151.58,62.21L152.37,68.5L153.96,63.04L154.75,69.21L156.34,65.06L157.13,68.74L158.72,61.79L159.51,67.49L160.3,67.43L161.1,69.63L162.69,58.64L163.48,59.95L165.07,53.54L165.86,66.42L166.65,60.01L167.45,61.55L168.24,62.21L169.03,65.53L169.83,57.93L170.62,64.16L171.41,56.8L172.21,62.92L173,58.4L173.8,59.65L174.59,64.05L175.38,57.4L177.76,67.61L178.56,56.39L180.14,62.26L180.94,60.96L181.73,67.49L182.53,57.4L183.32,60.36L184.11,58.29L184.91,60.96L185.7,59L186.49,56.33L187.29,67.91L188.08,56.27L188.87,57.16L189.67,51.1L190.46,60.6L192.05,59.71L192.84,56.92L193.64,59.36L194.43,51.46L195.22,54.6L196.02,51.87L197.6,56.92L198.4,54.49L199.19,51.04L199.98,53.89L200.78,57.63L201.57,51.46L203.16,55.32L203.95,58.35L204.75,60.96L205.54,55.97L206.33,58.7L207.13,58.05L208.71,63.16L209.51,59.71L210.3,62.86L211.09,56.8L213.47,63.45L214.27,59L215.06,56.5L215.86,62.56L217.44,60.01L218.24,61.26L219.03,58.35L219.82,60.9L220.62,55.2L221.41,62.74L223,51.69L223.79,59.12L224.59,61.08L225.38,54.72L226.17,51.52L226.97,52.7L227.76,53.12L228.55,58.52L229.35,51.87L230.14,56.74L230.93,55.44L231.73,51.75L232.52,57.4L233.31,55.61L234.11,48.61L234.9,50.98L235.7,53.77L236.49,59.47L237.28,57.22L238.08,49.62L238.87,54.01L239.66,53.89L240.46,57.57L241.25,53.6L242.84,57.75L243.63,48.79L244.42,60.72L245.22,52.94L246.01,61.97L246.81,59.36L249.19,53.54L249.98,59.06L250.77,61.37L251.57,54.9L253.15,52.29L253.95,57.16L254.74,59.83L255.54,59.53L256.33,54.01L257.12,58.88L258.71,47L259.5,53.83L260.3,51.58L261.09,45.93L261.88,55.32L262.68,46.53L265.06,60.25L265.85,49.74L266.65,55.5L267.44,54.13L269.03,59.18L269.82,50.15L270.61,55.44L271.41,53.54L272.2,61.02L272.99,54.31L273.79,56.27L274.58,55.79L275.37,57.63L276.17,48.37L277.76,53.54L278.55,54.13L279.34,53.89L280.14,51.22L280.93,55.79L281.72,52.41L282.52,60.31L283.31,52.29L284.1,58.17L284.9,55.79L285.69,53.6L286.48,60.36L287.28,48.67L288.07,52.53L289.66,47.89L290.45,54.31L291.25,57.81L292.04,56.92L292.83,53.83L293.63,55.73L294.42,52.64L295.21,53.71L296.01,51.4L296.8,57.99L297.6,52.59L298.39,57.99L300.77,51.99L301.56,60.78L302.36,52.88L303.15,56.03L303.94,56.39L304.74,60.6L306.32,51.99L307.12,58.46L307.91,56.39L308.71,51.34L310.29,57.69L311.09,54.37L311.88,53L312.67,57.57L313.47,50.74L314.26,50.45L315.05,50.57L315.85,58.94L318.23,53.12L319.02,56.5L319.82,50.74L320.61,55.08L322.2,49.79L322.99,51.16L323.78,50.33L324.58,47.66L325.37,54.55L326.16,50.86L326.96,47.95L327.75,55.79L328.55,47.78L329.34,55.85L330.13,53L330.93,44.27L331.72,55.32L332.51,55.2L333.31,56.86L334.1,51.1L334.89,51.99L335.69,60.25L336.48,47.66L337.27,55.97L338.86,48.07L339.66,51.81L340.45,54.6L341.24,53.42L342.04,52.59L342.83,53.77L343.62,51.34L344.42,53.06L346,46.23L346.8,57.16L348.38,48.84L349.18,48.43L350.77,53.83L351.56,56.92L352.35,58.88L353.15,51.75L353.94,50.98L354.73,54.13L355.53,56.39L356.32,50.92L357.11,46.53L357.91,53.77L359.49,53.71L360.29,54.66L361.88,58.11L362.67,48.55L363.46,54.19L364.26,53.89L365.05,56.8L365.84,51.99L367.43,55.73L368.22,54.43L369.81,56.15L370.61,53.48L372.19,56.21L372.99,50.69L374.57,58.11L375.37,56.62L376.16,54.96L376.95,56.5L377.75,54.6L378.54,57.75L380.92,52.64L381.72,56.27L383.3,47.66L384.1,54.55L384.89,49.14L385.68,52.23L386.48,50.69L387.27,52.23L388.06,50.39L388.86,54.01L389.65,54.31L390.44,52.94L391.24,54.9L392.03,52.23L393.62,58.11L394.41,46.94L395.21,53.12L396,53L396,145.4L395.21,147.12L394.41,142.01L393.62,145.1L392.03,143.85L391.24,144.63L390.44,149.14L389.65,146.11L388.86,142.07L388.06,146.71L387.27,141.3L386.48,143.85L384.89,141.48L384.1,138.87L383.3,141.84L382.51,139.28L381.72,137.26L380.92,142.67L380.13,137.98L379.33,143.91L378.54,140.11L377.75,142.49L376.95,144.03L376.16,143.02L374.57,139.34L373.78,139.58L372.19,144.33L371.4,138.69L370.61,141.84L369.81,141.78L369.02,145.1L368.22,141.78L367.43,145.76L366.64,138.27L365.84,138.33L365.05,145.52L364.26,140.95L363.46,144.45L362.67,140.35L361.88,142.07L361.08,143.26L360.29,138.39L359.49,144.27L358.7,140.71L357.91,136.19L357.11,138.33L356.32,135.19L355.53,136.08L354.73,132.99L353.94,142.55L352.35,137.5L351.56,137.98L350.77,132.93L349.97,133.7L348.38,140.83L347.59,134.65L346.8,132.33L346,136.31L345.21,135.84L344.42,132.57L343.62,135.36L342.83,134.29L341.24,133.11L340.45,139.04L339.66,135.72L338.86,135.9L336.48,129.13L335.69,131.33L334.89,131.62L334.1,138.75L331.72,130.14L330.93,137.8L330.13,131.44L329.34,135.72L328.55,134.65L327.75,135.19L326.16,131.44L325.37,132.75L324.58,133.58L323.78,136.61L322.2,131.27L321.4,131.86L320.61,132.87L319.82,127.47L319.02,125.98L318.23,126.4L317.43,133.28L316.64,132.57L315.85,129.66L315.05,130.02L313.47,137.03L312.67,135.42L311.88,135.3L311.09,134.24L310.29,132.57L309.5,128.3L308.71,128.71L307.91,135.07L306.32,131.86L305.53,134L303.94,130.61L303.15,131.44L301.56,137.38L300.77,133.94L299.98,135.24L299.18,134.35L298.39,137.5L297.6,131.86L296.8,133.52L296.01,131.21L295.21,142.9L294.42,133.58L293.63,126.63L292.83,139.94L292.04,131.33L291.25,142.37L289.66,130.43L288.87,134.89L288.07,136.85L287.28,135.36L286.48,135.13L285.69,128.89L284.9,131.86L284.1,130.55L283.31,132.51L282.52,132.33L281.72,133.52L280.93,138.27L280.14,131.86L279.34,133.17L278.55,134.06L277.76,133.4L276.96,136.14L276.17,132.16L275.37,131.98L274.58,130.67L272.99,135.13L272.2,128.18L270.61,137.44L269.82,135.96L268.23,130.91L267.44,138.57L266.65,139.52L265.85,137.32L264.26,140.65L263.47,140.41L262.68,130.79L261.88,134.12L259.5,144.92L258.71,140.05L257.92,138.09L257.12,143.38L256.33,139.76L255.54,143.85L253.95,137.14L253.15,138.93L252.36,136.31L251.57,141.3L249.19,133.23L248.39,137.56L247.6,140.29L246.81,136.61L246.01,141.24L245.22,138.63L244.42,142.01L243.63,139.22L242.84,135.84L242.04,140L241.25,133.34L240.46,138.45L238.87,135.48L238.08,131.92L237.28,141L236.49,127.7L235.7,140.89L234.9,135.24L234.11,142.37L233.31,136.85L232.52,139.58L231.73,147.06L230.93,129.48L230.14,139.34L228.55,131.92L227.76,142.43L226.97,143.8L226.17,136.25L225.38,140.23L224.59,136.19L223.79,134L223,140.89L222.2,137.14L221.41,142.01L220.62,137.8L219.82,139.22L219.03,143.85L218.24,135.42L217.44,134L216.65,140.35L215.86,139.28L215.06,140.47L212.68,135.07L211.89,136.85L211.09,143.14L210.3,133.76L209.51,139.88L208.71,134.24L207.92,137.68L207.13,134.18L204.75,144.92L203.95,137.68L203.16,134.53L202.36,137.14L201.57,143.32L200.78,136.31L199.98,149.91L199.19,141.84L198.4,141.9L197.6,139.1L196.81,146.35L196.02,138.27L192.84,149.85L192.05,138.51L191.25,147.66L190.46,138.33L189.67,137.03L188.87,141.42L188.08,151.28L187.29,145.04L186.49,148.43L185.7,144.21L184.91,136.73L184.11,143.97L183.32,148.37L182.53,147.12L181.73,142.85L180.94,148.96L180.14,150.21L179.35,145.22L178.56,139.64L177.76,150.09L176.18,147.3L175.38,147.77L174.59,134.47L173.8,145.81L172.21,143.85L171.41,147.06L169.83,153.59L169.03,151.52L168.24,145.1L167.45,146.17L166.65,146.82L165.86,140.89L165.07,141.06L164.27,142.9L163.48,148.84L162.69,144.03L161.89,141.18L161.1,144.69L160.3,148.49L159.51,147.71L158.72,149.61L157.92,148.72L157.13,148.72L156.34,149.56L155.54,143.5L154.75,147.36L153.96,143.91L153.16,144.27L152.37,154.07L151.58,151.93L150.78,156.09L149.99,153.89L149.19,155.61L148.4,155.32L147.61,153.42L146.81,154.72L146.02,157.63L145.23,156.68L144.43,161.08L143.64,160.66L142.85,162.08L142.05,168.56L141.26,161.02L140.46,162.68L139.67,167.49L138.88,161.25L136.5,173.55L135.7,167.43L134.91,165.71L134.12,168.68L133.32,163.04L132.53,167.31L131.74,168.26L130.94,174.26L130.15,170.34L129.35,172.89L127.77,167.84L126.97,169.33L126.18,178.95L125.39,176.22L124.59,174.2L123.8,175.8L122.21,178.77L121.42,174.73L120.63,184L119.83,176.93L118.24,186.37L117.45,183.34L116.66,188.57L115.86,179.13L115.07,179.96L114.28,192.25L113.48,191.42L112.69,198.25L111.1,191.42L110.31,192.49L109.52,195.1L108.72,192.25L107.93,202.35L107.13,202.35L106.34,189.82L105.55,200.74L104.75,197.12L103.96,204.72L103.17,202.11L102.37,194.92L101.58,203.12L100.79,200.68L99.99,206.62L99.2,205.91L96.82,214.82L96.02,208.52L95.23,209.29L94.44,217.01L93.64,213.98L92.85,218.85L91.26,214.1L90.47,222.77L89.68,218.44L88.88,226.16L87.29,229.13L86.5,232.1L85.71,230.08L84.91,233.76L83.33,232.04L82.53,229.78L80.95,233.22L80.15,235.24L79.36,237.26L78.57,234.77L77.77,237.26L76.98,236.61L76.18,235.66L75.39,229.9L74.6,234.71L73.8,234.71L71.42,238.21L70.63,236.96L69.84,237.2L69.04,238.81L68.25,235.42L67.45,238.45L66.66,237.26L65.87,237.8L65.07,237.08L64.28,239.46L63.49,240.23L62.69,239.28L61.11,239.1L60.31,236.85L59.52,237.62L58.73,236.85L57.93,239.34L57.14,238.51L56.34,238.27L55.55,239.87L54.76,238.57L53.96,239.76L52.38,239.99L51.58,240.41L49.2,240.41L48.41,240.88L46.03,240.35L45.23,240.88L43.65,240.71L42.85,240.82L42.06,241.12L41.27,240.47L38.89,241.06L38.09,241.06L34.92,241.36L34.12,241.12L30.16,241.54L29.36,241.3L26.19,241.54L25.39,241.54L23.01,241.54L22.22,241.54L19.84,241.54L19.05,241.77L15.87,241.54L15.08,241.6L5.56,241.36L4.76,241.77L1.59,241.54L0.79,241.77L0,241.77Z" style="fill: rgb(99, 110, 250); fill-opacity: 0.3; stroke-width: 0;"/></g></g><g class="errorbars"/><g class="lines"><path class="js-line" d="M0,241.24L2.38,240.59L3.17,240.77L7.14,240.23L7.94,239.64L8.73,240.17L9.52,238.63L11.11,236.25L11.9,237.5L13.49,232.69L14.28,234.23L16.67,231.8L17.46,228.18L18.25,230.79L19.05,228.53L19.84,222.12L20.63,231.86L22.22,220.52L23.01,224.55L24.6,218.2L25.39,217.55L26.98,220.34L27.78,224.38L28.57,220.28L29.36,221.94L30.16,220.16L30.95,220.93L31.74,220.52L32.54,213.57L35.71,206.68L36.51,210.96L37.3,193.5L38.09,202.11L39.68,181.86L40.47,188.57L41.27,188.33L42.06,175.03L42.85,174.56L43.65,164.7L44.44,174.91L45.23,174.02L46.03,175.74L46.82,174.14L47.62,162.68L48.41,165.77L49.2,163.04L50,151.1L50.79,145.4L51.58,147.24L53.17,156.98L53.96,146.76L54.76,158.4L55.55,144.57L57.14,143.5L57.93,137.14L58.73,140.53L59.52,137.74L60.31,133.34L61.11,134.53L61.9,127.58L62.69,128.48L64.28,126.93L65.07,122.95L66.66,116.36L67.45,114.52L69.84,105.85L70.63,97.3L71.42,106.62L72.22,105.61L73.01,106.5L73.8,101.46L74.6,101.52L75.39,103.65L76.18,103.42L76.98,107.39L77.77,105.61L78.57,97.3L79.36,104.01L80.15,93.38L80.95,106.03L81.74,100.45L82.53,94.03L83.33,97.3L84.12,98.13L84.91,95.16L85.71,95.52L86.5,89.05L88.09,96.71L88.88,95.58L90.47,99.14L91.26,90.77L92.85,98.37L93.64,98.43L95.23,95.99L96.02,90.53L96.82,97.3L97.61,96.17L98.4,87.44L99.2,94.87L99.99,86.49L100.79,92.73L101.58,87.68L102.37,91.06L103.17,93.5L103.96,90.17L105.55,87.44L106.34,82.87L107.93,91.96L108.72,91.36L109.52,90.95L110.31,81.39L111.1,92.79L111.9,87.68L112.69,87.68L113.48,83.94L114.28,82.93L115.07,90.17L115.86,82.45L116.66,82.93L117.45,80.97L118.24,87.09L119.04,84.06L119.83,88.39L121.42,81.8L122.21,86.79L123.8,79.9L124.59,84.71L126.18,79.6L126.97,78.24L127.77,78.36L128.56,84.53L129.35,89.52L130.15,80.02L130.94,70.04L131.74,73.9L133.32,68.56L134.12,69.03L134.91,72.12L135.7,71.29L136.5,72.72L137.29,66.96L138.88,71.29L139.67,75.51L140.46,68.02L141.26,72.72L142.05,74.32L142.85,64.64L143.64,66.18L144.43,64.46L146.02,70.28L146.81,69.81L148.4,66.3L149.19,68.62L149.99,57.87L150.78,70.88L151.58,62.21L152.37,68.5L153.96,63.04L154.75,69.21L156.34,65.06L157.13,68.74L158.72,61.79L159.51,67.49L160.3,67.43L161.1,69.63L162.69,58.64L163.48,59.95L165.07,53.54L165.86,66.42L166.65,60.01L167.45,61.55L168.24,62.21L169.03,65.53L169.83,57.93L170.62,64.16L171.41,56.8L172.21,62.92L173,58.4L173.8,59.65L174.59,64.05L175.38,57.4L177.76,67.61L178.56,56.39L180.14,62.26L180.94,60.96L181.73,67.49L182.53,57.4L183.32,60.36L184.11,58.29L184.91,60.96L185.7,59L186.49,56.33L187.29,67.91L188.08,56.27L188.87,57.16L189.67,51.1L190.46,60.6L192.05,59.71L192.84,56.92L193.64,59.36L194.43,51.46L195.22,54.6L196.02,51.87L197.6,56.92L198.4,54.49L199.19,51.04L199.98,53.89L200.78,57.63L201.57,51.46L203.16,55.32L203.95,58.35L204.75,60.96L205.54,55.97L206.33,58.7L207.13,58.05L208.71,63.16L209.51,59.71L210.3,62.86L211.09,56.8L213.47,63.45L214.27,59L215.06,56.5L215.86,62.56L217.44,60.01L218.24,61.26L219.03,58.35L219.82,60.9L220.62,55.2L221.41,62.74L223,51.69L223.79,59.12L224.59,61.08L225.38,54.72L226.17,51.52L226.97,52.7L227.76,53.12L228.55,58.52L229.35,51.87L230.14,56.74L230.93,55.44L231.73,51.75L232.52,57.4L233.31,55.61L234.11,48.61L234.9,50.98L235.7,53.77L236.49,59.47L237.28,57.22L238.08,49.62L238.87,54.01L239.66,53.89L240.46,57.57L241.25,53.6L242.84,57.75L243.63,48.79L244.42,60.72L245.22,52.94L246.01,61.97L246.81,59.36L249.19,53.54L249.98,59.06L250.77,61.37L251.57,54.9L253.15,52.29L253.95,57.16L254.74,59.83L255.54,59.53L256.33,54.01L257.12,58.88L258.71,47L259.5,53.83L260.3,51.58L261.09,45.93L261.88,55.32L262.68,46.53L265.06,60.25L265.85,49.74L266.65,55.5L267.44,54.13L269.03,59.18L269.82,50.15L270.61,55.44L271.41,53.54L272.2,61.02L272.99,54.31L273.79,56.27L274.58,55.79L275.37,57.63L276.17,48.37L277.76,53.54L278.55,54.13L279.34,53.89L280.14,51.22L280.93,55.79L281.72,52.41L282.52,60.31L283.31,52.29L284.1,58.17L284.9,55.79L285.69,53.6L286.48,60.36L287.28,48.67L288.07,52.53L289.66,47.89L290.45,54.31L291.25,57.81L292.04,56.92L292.83,53.83L293.63,55.73L294.42,52.64L295.21,53.71L296.01,51.4L296.8,57.99L297.6,52.59L298.39,57.99L300.77,51.99L301.56,60.78L302.36,52.88L303.15,56.03L303.94,56.39L304.74,60.6L306.32,51.99L307.12,58.46L307.91,56.39L308.71,51.34L310.29,57.69L311.09,54.37L311.88,53L312.67,57.57L313.47,50.74L314.26,50.45L315.05,50.57L315.85,58.94L318.23,53.12L319.02,56.5L319.82,50.74L320.61,55.08L322.2,49.79L322.99,51.16L323.78,50.33L324.58,47.66L325.37,54.55L326.16,50.86L326.96,47.95L327.75,55.79L328.55,47.78L329.34,55.85L330.13,53L330.93,44.27L331.72,55.32L332.51,55.2L333.31,56.86L334.1,51.1L334.89,51.99L335.69,60.25L336.48,47.66L337.27,55.97L338.86,48.07L339.66,51.81L340.45,54.6L341.24,53.42L342.04,52.59L342.83,53.77L343.62,51.34L344.42,53.06L346,46.23L346.8,57.16L348.38,48.84L349.18,48.43L350.77,53.83L351.56,56.92L352.35,58.88L353.15,51.75L353.94,50.98L354.73,54.13L355.53,56.39L356.32,50.92L357.11,46.53L357.91,53.77L359.49,53.71L360.29,54.66L361.88,58.11L362.67,48.55L363.46,54.19L364.26,53.89L365.05,56.8L365.84,51.99L367.43,55.73L368.22,54.43L369.81,56.15L370.61,53.48L372.19,56.21L372.99,50.69L374.57,58.11L375.37,56.62L376.16,54.96L376.95,56.5L377.75,54.6L378.54,57.75L380.92,52.64L381.72,56.27L383.3,47.66L384.1,54.55L384.89,49.14L385.68,52.23L386.48,50.69L387.27,52.23L388.06,50.39L388.86,54.01L389.65,54.31L390.44,52.94L391.24,54.9L392.03,52.23L393.62,58.11L394.41,46.94L395.21,53.12L396,53L396,145.4L395.21,147.12L394.41,142.01L393.62,145.1L392.03,143.85L391.24,144.63L390.44,149.14L389.65,146.11L388.86,142.07L388.06,146.71L387.27,141.3L386.48,143.85L384.89,141.48L384.1,138.87L383.3,141.84L382.51,139.28L381.72,137.26L380.92,142.67L380.13,137.98L379.33,143.91L378.54,140.11L377.75,142.49L376.95,144.03L376.16,143.02L374.57,139.34L373.78,139.58L372.19,144.33L371.4,138.69L370.61,141.84L369.81,141.78L369.02,145.1L368.22,141.78L367.43,145.76L366.64,138.27L365.84,138.33L365.05,145.52L364.26,140.95L363.46,144.45L362.67,140.35L361.88,142.07L361.08,143.26L360.29,138.39L359.49,144.27L358.7,140.71L357.91,136.19L357.11,138.33L356.32,135.19L355.53,136.08L354.73,132.99L353.94,142.55L352.35,137.5L351.56,137.98L350.77,132.93L349.97,133.7L348.38,140.83L347.59,134.65L346.8,132.33L346,136.31L345.21,135.84L344.42,132.57L343.62,135.36L342.83,134.29L341.24,133.11L340.45,139.04L339.66,135.72L338.86,135.9L336.48,129.13L335.69,131.33L334.89,131.62L334.1,138.75L331.72,130.14L330.93,137.8L330.13,131.44L329.34,135.72L328.55,134.65L327.75,135.19L326.16,131.44L325.37,132.75L324.58,133.58L323.78,136.61L322.2,131.27L321.4,131.86L320.61,132.87L319.82,127.47L319.02,125.98L318.23,126.4L317.43,133.28L316.64,132.57L315.85,129.66L315.05,130.02L313.47,137.03L312.67,135.42L311.88,135.3L311.09,134.24L310.29,132.57L309.5,128.3L308.71,128.71L307.91,135.07L306.32,131.86L305.53,134L303.94,130.61L303.15,131.44L301.56,137.38L300.77,133.94L299.98,135.24L299.18,134.35L298.39,137.5L297.6,131.86L296.8,133.52L296.01,131.21L295.21,142.9L294.42,133.58L293.63,126.63L292.83,139.94L292.04,131.33L291.25,142.37L289.66,130.43L288.87,134.89L288.07,136.85L287.28,135.36L286.48,135.13L285.69,128.89L284.9,131.86L284.1,130.55L283.31,132.51L282.52,132.33L281.72,133.52L280.93,138.27L280.14,131.86L279.34,133.17L278.55,134.06L277.76,133.4L276.96,136.14L276.17,132.16L275.37,131.98L274.58,130.67L272.99,135.13L272.2,128.18L270.61,137.44L269.82,135.96L268.23,130.91L267.44,138.57L266.65,139.52L265.85,137.32L264.26,140.65L263.47,140.41L262.68,130.79L261.88,134.12L259.5,144.92L258.71,140.05L257.92,138.09L257.12,143.38L256.33,139.76L255.54,143.85L253.95,137.14L253.15,138.93L252.36,136.31L251.57,141.3L249.19,133.23L248.39,137.56L247.6,140.29L246.81,136.61L246.01,141.24L245.22,138.63L244.42,142.01L243.63,139.22L242.84,135.84L242.04,140L241.25,133.34L240.46,138.45L238.87,135.48L238.08,131.92L237.28,141L236.49,127.7L235.7,140.89L234.9,135.24L234.11,142.37L233.31,136.85L232.52,139.58L231.73,147.06L230.93,129.48L230.14,139.34L228.55,131.92L227.76,142.43L226.97,143.8L226.17,136.25L225.38,140.23L224.59,136.19L223.79,134L223,140.89L222.2,137.14L221.41,142.01L220.62,137.8L219.82,139.22L219.03,143.85L218.24,135.42L217.44,134L216.65,140.35L215.86,139.28L215.06,140.47L212.68,135.07L211.89,136.85L211.09,143.14L210.3,133.76L209.51,139.88L208.71,134.24L207.92,137.68L207.13,134.18L204.75,144.92L203.95,137.68L203.16,134.53L202.36,137.14L201.57,143.32L200.78,136.31L199.98,149.91L199.19,141.84L198.4,141.9L197.6,139.1L196.81,146.35L196.02,138.27L192.84,149.85L192.05,138.51L191.25,147.66L190.46,138.33L189.67,137.03L188.87,141.42L188.08,151.28L187.29,145.04L186.49,148.43L185.7,144.21L184.91,136.73L184.11,143.97L183.32,148.37L182.53,147.12L181.73,142.85L180.94,148.96L180.14,150.21L179.35,145.22L178.56,139.64L177.76,150.09L176.18,147.3L175.38,147.77L174.59,134.47L173.8,145.81L172.21,143.85L171.41,147.06L169.83,153.59L169.03,151.52L168.24,145.1L167.45,146.17L166.65,146.82L165.86,140.89L165.07,141.06L164.27,142.9L163.48,148.84L162.69,144.03L161.89,141.18L161.1,144.69L160.3,148.49L159.51,147.71L158.72,149.61L157.92,148.72L157.13,148.72L156.34,149.56L155.54,143.5L154.75,147.36L153.96,143.91L153.16,144.27L152.37,154.07L151.58,151.93L150.78,156.09L149.99,153.89L149.19,155.61L148.4,155.32L147.61,153.42L146.81,154.72L146.02,157.63L145.23,156.68L144.43,161.08L143.64,160.66L142.85,162.08L142.05,168.56L141.26,161.02L140.46,162.68L139.67,167.49L138.88,161.25L136.5,173.55L135.7,167.43L134.91,165.71L134.12,168.68L133.32,163.04L132.53,167.31L131.74,168.26L130.94,174.26L130.15,170.34L129.35,172.89L127.77,167.84L126.97,169.33L126.18,178.95L125.39,176.22L124.59,174.2L123.8,175.8L122.21,178.77L121.42,174.73L120.63,184L119.83,176.93L118.24,186.37L117.45,183.34L116.66,188.57L115.86,179.13L115.07,179.96L114.28,192.25L113.48,191.42L112.69,198.25L111.1,191.42L110.31,192.49L109.52,195.1L108.72,192.25L107.93,202.35L107.13,202.35L106.34,189.82L105.55,200.74L104.75,197.12L103.96,204.72L103.17,202.11L102.37,194.92L101.58,203.12L100.79,200.68L99.99,206.62L99.2,205.91L96.82,214.82L96.02,208.52L95.23,209.29L94.44,217.01L93.64,213.98L92.85,218.85L91.26,214.1L90.47,222.77L89.68,218.44L88.88,226.16L87.29,229.13L86.5,232.1L85.71,230.08L84.91,233.76L83.33,232.04L82.53,229.78L80.95,233.22L80.15,235.24L79.36,237.26L78.57,234.77L77.77,237.26L76.98,236.61L76.18,235.66L75.39,229.9L74.6,234.71L73.8,234.71L71.42,238.21L70.63,236.96L69.84,237.2L69.04,238.81L68.25,235.42L67.45,238.45L66.66,237.26L65.87,237.8L65.07,237.08L64.28,239.46L63.49,240.23L62.69,239.28L61.11,239.1L60.31,236.85L59.52,237.62L58.73,236.85L57.93,239.34L57.14,238.51L56.34,238.27L55.55,239.87L54.76,238.57L53.96,239.76L52.38,239.99L51.58,240.41L49.2,240.41L48.41,240.88L46.03,240.35L45.23,240.88L43.65,240.71L42.85,240.82L42.06,241.12L41.27,240.47L38.89,241.06L38.09,241.06L34.92,241.36L34.12,241.12L30.16,241.54L29.36,241.3L26.19,241.54L25.39,241.54L23.01,241.54L22.22,241.54L19.84,241.54L19.05,241.77L15.87,241.54L15.08,241.6L5.56,241.36L4.76,241.77L1.59,241.54L0.79,241.77L0,241.77" style="vector-effect: non-scaling-stroke; fill: none; stroke: rgb(0, 0, 0); stroke-opacity: 0; stroke-width: 2px; opacity: 1;"/></g><g class="points"/><g class="text"/></g><g class="trace scatter traceba8200" style="stroke-miterlimit: 2; opacity: 1;"><g class="fills"/><g class="errorbars"/><g class="lines"><path class="js-line" d="M0,241.77L1.59,241.3L2.38,240.82L3.17,240.35L3.97,241.06L5.56,240.59L6.35,240.82L8.73,239.87L9.52,240.59L10.32,238.21L11.11,239.4L11.9,240.35L12.7,240.11L15.08,240.82L15.87,240.59L17.46,240.59L18.25,238.45L19.05,240.11L19.84,238.92L22.22,229.9L23.01,236.31L23.81,238.45L24.6,233.7L25.39,237.5L26.19,228.24L26.98,228.71L27.78,234.89L28.57,233.7L29.36,224.2L30.16,226.81L30.95,226.34L32.54,232.75L33.33,228.95L34.12,228.71L34.92,223.96L36.51,216.12L37.3,221.11L38.09,226.1L38.89,208.28L39.68,215.88L40.47,214.93L42.06,218.5L42.85,209.95L45.23,209.95L46.03,200.45L46.82,203.53L47.62,213.03L48.41,215.65L49.2,202.35L50,200.45L50.79,186.19L53.17,200.45L53.96,192.37L54.76,190.94L55.55,182.39L56.34,181.92L57.14,170.28L57.93,172.89L58.73,172.42L59.52,166.48L60.31,169.57L61.9,151.99L62.69,155.32L63.49,149.61L64.28,152.94L65.07,153.42L65.87,139.16L66.66,143.91L67.45,137.26L68.25,136.08L69.04,128L69.84,130.14L70.63,138.69L71.42,130.14L72.22,134.65L73.01,127.52L73.8,129.66L74.6,137.98L75.39,127.05L76.18,125.86L76.98,133.23L77.77,113.04L78.57,133.7L79.36,118.5L80.15,129.66L81.74,121.35L82.53,121.82L83.33,119.92L84.12,120.4L85.71,109.47L86.5,113.51L87.29,121.82L88.09,112.09L89.68,111.37L90.47,106.39L92.85,114.94L93.64,108.52L94.44,115.65L95.23,113.04L96.02,107.57L96.82,111.14L97.61,109.95L98.4,106.86L99.2,117.55L99.99,101.63L101.58,99.73L102.37,97.36L103.96,113.27L104.75,100.21L105.55,115.41L106.34,114.22L107.13,106.62L107.93,109.71L108.72,112.09L109.52,102.11L110.31,98.55L111.1,98.78L111.9,101.87L112.69,94.51L113.48,89.52L114.28,99.73L115.86,91.18L116.66,89.76L117.45,91.18L118.24,90.95L119.04,85.01L119.83,88.1L120.63,90.71L121.42,78.36L122.21,86.43L123.01,78.36L124.59,91.18L125.39,84.06L126.97,91.18L127.77,81.68L128.56,85.48L129.35,80.02L130.15,76.93L130.94,94.98L132.53,72.18L133.32,68.86L134.91,88.1L135.7,84.3L136.5,70.99L137.29,74.56L138.08,88.1L138.88,77.41L139.67,80.49L140.46,71.71L141.26,72.18L142.05,66.72L143.64,67.91L144.43,73.61L145.23,67.67L146.02,76.93L146.81,76.22L147.61,73.13L149.19,67.19L149.99,64.34L151.58,75.51L152.37,56.5L153.96,73.84L154.75,68.14L155.54,67.19L156.34,77.88L157.13,66.72L157.92,74.79L159.51,67.43L160.3,67.43L161.1,52.23L161.89,59.12L162.69,65.06L163.48,57.93L164.27,61.97L165.07,70.28L167.45,53.18L168.24,66.01L169.03,67.43L169.83,49.38L170.62,57.93L171.41,56.74L172.21,61.97L173,61.49L173.8,53.65L174.59,60.31L175.38,56.03L176.18,56.98L176.97,49.85L177.76,63.63L178.56,51.75L179.35,54.37L180.14,60.31L180.94,50.8L181.73,54.37L182.53,54.13L183.32,51.28L184.11,63.39L184.91,49.38L185.7,51.75L186.49,54.37L187.29,49.85L188.87,59.83L189.67,58.17L190.46,47.95L191.25,49.14L192.05,56.74L192.84,49.38L194.43,51.28L195.22,45.34L196.02,57.69L196.81,56.03L197.6,49.38L198.4,53.18L199.19,48.67L199.98,52.47L200.78,44.63L201.57,60.78L202.36,51.04L203.16,53.18L204.75,58.17L205.54,50.09L206.33,52.47L207.13,62.68L208.71,61.73L209.51,54.13L210.3,72.18L211.09,58.4L211.89,52.94L212.68,55.55L213.47,57.69L214.27,50.33L215.06,60.78L215.86,54.84L217.44,58.17L218.24,45.1L219.03,50.33L219.82,62.92L220.62,56.74L221.41,61.02L223.79,54.84L224.59,60.07L225.38,57.93L226.17,64.82L226.97,58.4L227.76,59.12L229.35,50.8L230.14,54.6L232.52,57.22L233.31,60.07L234.11,59.59L234.9,63.39L235.7,59.36L236.49,62.92L237.28,61.26L238.08,51.04L239.66,60.54L240.46,57.45L241.25,58.4L242.04,67.67L242.84,63.87L243.63,53.18L245.22,69.81L246.01,59.83L246.81,67.43L247.6,58.4L248.39,51.28L249.19,56.98L252.36,70.52L253.15,57.93L253.95,49.85L254.74,62.21L256.33,61.02L257.12,68.86L257.92,48.9L258.71,63.63L259.5,64.58L260.3,47.72L261.88,70.04L262.68,64.58L265.06,60.31L265.85,67.19L266.65,63.87L267.44,70.04L268.23,63.63L269.03,66.48L269.82,53.42L270.61,64.58L272.2,56.98L272.99,61.73L274.58,68.62L275.37,66.72L276.17,63.63L276.96,65.77L277.76,69.81L278.55,65.53L279.34,70.99L280.14,62.68L280.93,63.16L281.72,67.43L282.52,60.31L283.31,60.78L284.1,61.49L284.9,65.29L285.69,62.92L286.48,65.29L288.07,61.97L288.87,55.79L289.66,62.68L290.45,57.93L291.25,67.43L292.04,59.12L293.63,61.26L294.42,57.93L295.21,58.4L296.01,67.67L297.6,56.98L298.39,67.67L299.18,67.19L299.98,61.97L302.36,65.53L303.15,69.81" style="vector-effect: non-scaling-stroke; fill: none; stroke: rgb(239, 85, 59); stroke-opacity: 1; stroke-width: 2px; opacity: 1;"/></g><g class="points"/><g class="text"/></g><g class="trace scatter traceec4a23" style="stroke-miterlimit: 2; opacity: 1;"><g class="fills"><g><path class="js-fill" d="M0,241.3L1.59,240.59L2.38,238.69L4.76,237.5L5.56,235.36L6.35,235.12L7.14,228.95L7.94,227.05L8.73,228.47L9.52,229.19L10.32,225.62L11.11,234.41L11.9,226.34L12.7,226.34L13.49,232.27L14.28,229.9L15.08,233.22L15.87,235.12L16.67,217.55L17.46,233.7L18.25,225.86L19.05,218.97L19.84,220.16L20.63,214.7L21.43,218.26L23.01,209.71L23.81,206.86L24.6,212.32L25.39,207.1L26.98,214.7L27.78,198.07L28.57,214.7L29.36,204.72L30.16,176.46L30.95,190.71L31.74,172.89L32.54,195.46L34.92,176.69L35.71,186.19L36.51,177.17L37.3,181.68L38.89,165.29L39.68,174.79L40.47,159.59L41.27,179.54L42.06,164.82L42.85,172.42L43.65,168.62L44.44,171.23L45.23,168.85L46.03,170.52L47.62,152.94L48.41,154.84L49.2,160.78L50,142.01L50.79,151.28L51.58,133.94L53.17,149.61L53.96,144.39L54.76,141.3L55.55,128L56.34,133.94L57.14,129.19L57.93,111.85L58.73,118.74L59.52,112.8L60.31,115.41L61.9,92.61L62.69,100.68L63.49,101.4L64.28,96.88L65.07,95.93L65.87,92.85L67.45,99.5L68.25,88.57L69.04,86.67L69.84,81.68L70.63,98.31L71.42,81.68L72.22,86.43L73.01,86.2L73.8,66.72L74.6,76.93L75.39,72.18L76.18,78.12L76.98,87.38L77.77,74.32L78.57,66.01L79.36,71.23L80.95,82.4L81.74,79.78L82.53,78.12L83.33,67.43L84.91,71.23L85.71,62.68L86.5,55.79L87.29,64.34L88.09,76.93L88.88,63.87L90.47,61.02L91.26,72.89L92.06,64.11L92.85,67.91L94.44,55.32L95.23,49.62L96.82,62.68L97.61,52.7L98.4,59.36L99.2,52.47L99.99,63.16L100.79,59.59L101.58,48.9L102.37,57.93L103.17,50.09L103.96,53.18L105.55,61.97L106.34,56.27L107.13,57.93L107.93,44.39L108.72,51.75L109.52,47L110.31,56.5L111.1,56.03L111.9,52.7L112.69,58.17L113.48,62.44L114.28,56.27L115.07,59.12L115.86,42.73L117.45,52.7L118.24,49.85L119.83,41.3L120.63,53.65L121.42,54.13L122.21,57.93L123.01,58.4L123.8,54.6L124.59,53.42L125.39,55.55L126.97,46.05L127.77,52.94L129.35,43.68L130.15,48.43L130.94,61.97L131.74,51.52L132.53,44.87L133.32,49.14L134.91,45.1L135.7,45.58L136.5,42.02L137.29,43.44L138.08,43.92L138.88,42.73L139.67,44.63L140.46,39.88L141.26,38.22L142.05,41.54L142.85,43.92L143.64,41.54L144.43,43.92L145.23,38.69L146.02,43.2L146.81,31.09L147.61,37.74L148.4,29.43L149.19,38.45L149.99,36.55L150.78,31.09L151.58,34.41L152.37,38.45L153.16,24.68L154.75,35.13L155.54,31.33L156.34,31.09L157.13,27.29L157.92,28.24L158.72,39.4L159.51,37.03L160.3,32.28L161.1,30.85L161.89,33.46L163.48,35.6L164.27,29.19L165.07,33.7L165.86,31.33L166.65,35.6L167.45,35.6L168.24,37.5L169.03,36.79L169.83,28.71L170.62,34.18L171.41,32.99L172.21,27.76L173,26.58L173.8,32.51L174.59,40.59L175.38,31.09L176.18,39.4L176.97,29.66L177.76,29.43L178.56,31.8L180.14,41.3L180.94,35.84L181.73,26.58L182.53,29.43L183.32,37.27L184.11,29.19L185.7,24.2L186.49,35.36L187.29,29.9L188.08,30.14L188.87,25.63L189.67,34.18L191.25,28.48L192.05,30.38L192.84,22.78L193.64,29.43L194.43,26.58L195.22,28.71L196.02,28.95L196.81,18.26L198.4,37.74L199.19,26.81L199.98,25.63L200.78,27.53L201.57,29.43L202.36,28.71L203.16,37.98L203.95,29.43L204.75,31.09L205.54,26.58L206.33,37.03L207.13,26.1L208.71,41.54L209.51,32.51L210.3,36.79L211.09,25.86L211.89,24.68L212.68,34.89L213.47,33.94L214.27,34.18L215.86,28.48L216.65,29.43L217.44,34.41L218.24,25.86L219.03,24.68L219.82,30.14L220.62,34.18L221.41,25.39L223,34.65L223.79,36.79L225.38,24.44L226.17,42.73L226.97,29.43L227.76,38.93L228.55,26.1L229.35,34.41L230.14,24.68L230.93,37.74L231.73,40.12L232.52,31.56L233.31,31.09L234.11,20.88L235.7,35.6L236.49,30.38L237.28,36.55L238.08,33.94L238.87,34.41L239.66,28L240.46,25.86L241.25,31.09L242.04,29.43L242.84,21.59L245.22,40.59L246.01,38.93L246.81,28.71L247.6,31.56L248.39,24.68L249.19,31.09L249.98,24.68L250.77,32.51L251.57,26.81L252.36,28L253.15,23.96L253.95,25.86L254.74,32.04L255.54,23.73L257.12,34.18L257.92,33.46L258.71,39.88L259.5,22.78L261.09,25.63L261.88,24.91L262.68,41.07L263.47,38.93L264.26,27.53L265.06,29.43L265.85,34.89L266.65,34.18L267.44,33.7L268.23,41.54L269.82,28.95L270.61,39.17L271.41,23.73L272.2,32.04L272.99,34.89L273.79,34.18L274.58,38.45L275.37,33.23L276.17,24.68L276.96,36.08L277.76,29.43L278.55,29.43L279.34,36.32L280.14,28.95L280.93,30.61L281.72,37.74L282.52,28.24L283.31,33.94L284.1,32.99L284.9,37.5L285.69,24.68L286.48,35.36L287.28,42.73L288.07,29.43L288.87,27.29L289.66,42.25L290.45,22.06L291.25,34.18L292.83,28.95L293.63,33.23L294.42,29.66L295.21,15.18L296.01,30.38L296.8,27.05L297.6,22.3L298.39,23.96L299.18,30.38L299.98,29.43L300.77,29.43L301.56,18.5L303.15,36.55L303.15,92.85L302.36,101.16L301.56,92.37L299.98,84.06L299.18,85.96L298.39,97.36L297.6,91.18L296.8,95.93L296.01,95.22L295.21,91.66L294.42,81.92L292.83,97.36L292.04,87.15L291.25,81.68L290.45,89.05L289.66,84.77L288.87,85.01L288.07,81.68L287.28,81.68L286.48,94.03L285.69,86.43L284.9,86.43L284.1,84.77L283.31,98.07L282.52,85.96L281.72,95.93L280.93,81.44L280.14,75.98L279.34,82.16L278.55,100.68L277.76,90.71L276.96,91.42L276.17,80.02L275.37,118.26L274.58,100.68L273.79,100.68L272.99,98.07L272.2,105.67L271.41,89.52L270.61,84.06L269.82,86.43L268.23,91.18L267.44,79.54L266.65,81.68L265.85,80.49L265.06,83.11L264.26,110.19L263.47,89.05L262.68,92.61L261.88,81.92L261.09,88.57L260.3,76.69L259.5,76.69L258.71,85.72L257.92,81.21L257.12,86.43L256.33,83.35L255.54,100.92L254.74,96.88L253.15,82.4L252.36,84.77L251.57,105.67L250.77,85.48L249.98,86.43L249.19,79.07L248.39,80.02L247.6,84.06L246.81,119.69L246.01,84.53L245.22,84.3L244.42,86.43L243.63,81.44L242.84,83.35L242.04,91.42L241.25,91.18L239.66,100.68L238.87,92.37L237.28,105.91L236.49,95.93L235.7,93.8L234.9,114.7L234.11,107.34L233.31,91.18L231.73,105.44L230.93,127.05L230.14,104.48L229.35,111.61L228.55,94.98L227.76,105.44L226.97,94.51L226.17,131.33L224.59,100.68L223.79,114.94L223,122.77L222.2,110.19L221.41,99.73L220.62,117.07L219.82,101.4L219.03,119.69L217.44,95.7L216.65,100.45L215.86,119.45L215.06,113.75L214.27,119.69L213.47,87.62L212.68,116.12L211.89,117.07L211.09,113.51L210.3,125.86L209.51,122.3L208.71,98.07L207.92,100.21L207.13,113.75L206.33,117.55L205.54,114.94L204.75,114.22L203.95,110.19L202.36,125.15L201.57,106.39L200.78,98.55L199.98,117.55L198.4,101.63L197.6,117.07L196.81,103.3L196.02,107.34L194.43,114.46L193.64,110.19L192.84,114.94L192.05,111.61L191.25,109L190.46,111.61L189.67,124.44L188.87,122.54L188.08,126.81L187.29,119.45L186.49,121.59L185.7,110.19L184.91,116.6L184.11,133.94L183.32,116.6L182.53,116.84L181.73,116.12L180.94,121.11L179.35,117.55L178.56,99.26L177.76,85.25L176.97,115.65L176.18,110.19L175.38,96.88L174.59,111.37L173.8,102.82L173,111.85L172.21,100.45L171.41,96.88L170.62,113.27L169.83,100.45L169.03,117.07L168.24,119.69L167.45,102.82L165.86,90.23L165.07,95.7L163.48,91.18L162.69,113.27L161.89,90.71L161.1,100.21L160.3,82.87L159.51,108.76L158.72,92.61L157.92,106.62L157.13,100.68L156.34,100.68L155.54,107.34L154.75,94.27L153.96,106.62L153.16,100.68L152.37,121.11L151.58,111.61L150.78,93.56L149.99,107.34L149.19,107.34L148.4,104.96L147.61,102.11L146.81,113.51L146.02,143.68L145.23,116.6L144.43,117.55L143.64,115.41L142.85,117.79L142.05,100.21L141.26,114.94L140.46,110.19L139.67,124.44L138.88,102.58L137.29,109.24L136.5,101.16L135.7,105.2L134.91,100.68L134.12,103.53L133.32,111.85L132.53,116.84L131.74,111.14L130.94,114.94L130.15,102.82L128.56,112.09L127.77,122.3L126.97,122.54L126.18,113.99L125.39,129.66L124.59,122.3L123.8,138.45L123.01,130.85L122.21,128L121.42,134.89L119.83,120.87L119.04,125.39L118.24,128.24L117.45,127.52L115.86,123.49L115.07,133.94L114.28,132.75L113.48,138.21L112.69,135.84L111.9,126.81L111.1,126.34L110.31,128.95L109.52,127.76L108.72,128L107.93,128.24L107.13,135.84L106.34,132.04L105.55,132.75L104.75,139.4L103.96,128.95L102.37,140.35L101.58,140.59L99.99,130.85L99.2,136.55L97.61,131.33L96.82,147.24L96.02,146.05L95.23,132.04L94.44,155.55L93.64,153.89L92.06,164.58L91.26,177.17L90.47,170.28L89.68,175.27L88.09,191.18L87.29,201.87L86.5,176.22L85.71,189.04L84.12,175.51L83.33,176.22L82.53,185.72L81.74,182.63L80.95,175.74L80.15,200.68L79.36,192.13L78.57,172.65L76.18,187.86L75.39,175.74L73.8,182.63L73.01,193.56L72.22,186.43L71.42,195.69L69.84,189.52L69.04,202.58L68.25,195.93L67.45,198.55L65.87,206.15L65.07,217.78L64.28,202.11L63.49,207.81L62.69,218.26L61.9,211.37L60.31,228L59.52,218.5L58.73,223.49L57.93,223.25L57.14,226.81L56.34,225.62L54.76,238.45L53.96,233.7L53.17,225.15L52.38,229.42L51.58,225.39L50.79,235.84L49.2,228.95L48.41,228.95L46.82,233.7L46.03,232.51L44.44,238.45L43.65,238.45L42.85,235.84L42.06,236.07L41.27,233.7L40.47,238.45L39.68,237.02L38.89,238.45L38.09,238.92L37.3,240.59L36.51,239.87L35.71,240.59L33.33,239.64L32.54,240.35L31.74,241.3L30.95,240.35L29.36,239.16L28.57,240.35L25.39,241.3L24.6,240.82L17.46,241.3L16.67,241.77L14.28,241.77L13.49,241.77L11.9,241.3L11.11,241.3L10.32,241.06L9.52,241.77L6.35,241.54L5.56,241.54L3.17,241.54L2.38,241.77L1.59,242.25L0.79,241.54L0,242.01Z" style="fill: rgb(239, 85, 59); fill-opacity: 0.3; stroke-width: 0;"/></g></g><g class="errorbars"/><g class="lines"><path class="js-line" d="M0,241.3L1.59,240.59L2.38,238.69L4.76,237.5L5.56,235.36L6.35,235.12L7.14,228.95L7.94,227.05L8.73,228.47L9.52,229.19L10.32,225.62L11.11,234.41L11.9,226.34L12.7,226.34L13.49,232.27L14.28,229.9L15.08,233.22L15.87,235.12L16.67,217.55L17.46,233.7L18.25,225.86L19.05,218.97L19.84,220.16L20.63,214.7L21.43,218.26L23.01,209.71L23.81,206.86L24.6,212.32L25.39,207.1L26.98,214.7L27.78,198.07L28.57,214.7L29.36,204.72L30.16,176.46L30.95,190.71L31.74,172.89L32.54,195.46L34.92,176.69L35.71,186.19L36.51,177.17L37.3,181.68L38.89,165.29L39.68,174.79L40.47,159.59L41.27,179.54L42.06,164.82L42.85,172.42L43.65,168.62L44.44,171.23L45.23,168.85L46.03,170.52L47.62,152.94L48.41,154.84L49.2,160.78L50,142.01L50.79,151.28L51.58,133.94L53.17,149.61L53.96,144.39L54.76,141.3L55.55,128L56.34,133.94L57.14,129.19L57.93,111.85L58.73,118.74L59.52,112.8L60.31,115.41L61.9,92.61L62.69,100.68L63.49,101.4L64.28,96.88L65.07,95.93L65.87,92.85L67.45,99.5L68.25,88.57L69.04,86.67L69.84,81.68L70.63,98.31L71.42,81.68L72.22,86.43L73.01,86.2L73.8,66.72L74.6,76.93L75.39,72.18L76.18,78.12L76.98,87.38L77.77,74.32L78.57,66.01L79.36,71.23L80.95,82.4L81.74,79.78L82.53,78.12L83.33,67.43L84.91,71.23L85.71,62.68L86.5,55.79L87.29,64.34L88.09,76.93L88.88,63.87L90.47,61.02L91.26,72.89L92.06,64.11L92.85,67.91L94.44,55.32L95.23,49.62L96.82,62.68L97.61,52.7L98.4,59.36L99.2,52.47L99.99,63.16L100.79,59.59L101.58,48.9L102.37,57.93L103.17,50.09L103.96,53.18L105.55,61.97L106.34,56.27L107.13,57.93L107.93,44.39L108.72,51.75L109.52,47L110.31,56.5L111.1,56.03L111.9,52.7L112.69,58.17L113.48,62.44L114.28,56.27L115.07,59.12L115.86,42.73L117.45,52.7L118.24,49.85L119.83,41.3L120.63,53.65L121.42,54.13L122.21,57.93L123.01,58.4L123.8,54.6L124.59,53.42L125.39,55.55L126.97,46.05L127.77,52.94L129.35,43.68L130.15,48.43L130.94,61.97L131.74,51.52L132.53,44.87L133.32,49.14L134.91,45.1L135.7,45.58L136.5,42.02L137.29,43.44L138.08,43.92L138.88,42.73L139.67,44.63L140.46,39.88L141.26,38.22L142.05,41.54L142.85,43.92L143.64,41.54L144.43,43.92L145.23,38.69L146.02,43.2L146.81,31.09L147.61,37.74L148.4,29.43L149.19,38.45L149.99,36.55L150.78,31.09L151.58,34.41L152.37,38.45L153.16,24.68L154.75,35.13L155.54,31.33L156.34,31.09L157.13,27.29L157.92,28.24L158.72,39.4L159.51,37.03L160.3,32.28L161.1,30.85L161.89,33.46L163.48,35.6L164.27,29.19L165.07,33.7L165.86,31.33L166.65,35.6L167.45,35.6L168.24,37.5L169.03,36.79L169.83,28.71L170.62,34.18L171.41,32.99L172.21,27.76L173,26.58L173.8,32.51L174.59,40.59L175.38,31.09L176.18,39.4L176.97,29.66L177.76,29.43L178.56,31.8L180.14,41.3L180.94,35.84L181.73,26.58L182.53,29.43L183.32,37.27L184.11,29.19L185.7,24.2L186.49,35.36L187.29,29.9L188.08,30.14L188.87,25.63L189.67,34.18L191.25,28.48L192.05,30.38L192.84,22.78L193.64,29.43L194.43,26.58L195.22,28.71L196.02,28.95L196.81,18.26L198.4,37.74L199.19,26.81L199.98,25.63L200.78,27.53L201.57,29.43L202.36,28.71L203.16,37.98L203.95,29.43L204.75,31.09L205.54,26.58L206.33,37.03L207.13,26.1L208.71,41.54L209.51,32.51L210.3,36.79L211.09,25.86L211.89,24.68L212.68,34.89L213.47,33.94L214.27,34.18L215.86,28.48L216.65,29.43L217.44,34.41L218.24,25.86L219.03,24.68L219.82,30.14L220.62,34.18L221.41,25.39L223,34.65L223.79,36.79L225.38,24.44L226.17,42.73L226.97,29.43L227.76,38.93L228.55,26.1L229.35,34.41L230.14,24.68L230.93,37.74L231.73,40.12L232.52,31.56L233.31,31.09L234.11,20.88L235.7,35.6L236.49,30.38L237.28,36.55L238.08,33.94L238.87,34.41L239.66,28L240.46,25.86L241.25,31.09L242.04,29.43L242.84,21.59L245.22,40.59L246.01,38.93L246.81,28.71L247.6,31.56L248.39,24.68L249.19,31.09L249.98,24.68L250.77,32.51L251.57,26.81L252.36,28L253.15,23.96L253.95,25.86L254.74,32.04L255.54,23.73L257.12,34.18L257.92,33.46L258.71,39.88L259.5,22.78L261.09,25.63L261.88,24.91L262.68,41.07L263.47,38.93L264.26,27.53L265.06,29.43L265.85,34.89L266.65,34.18L267.44,33.7L268.23,41.54L269.82,28.95L270.61,39.17L271.41,23.73L272.2,32.04L272.99,34.89L273.79,34.18L274.58,38.45L275.37,33.23L276.17,24.68L276.96,36.08L277.76,29.43L278.55,29.43L279.34,36.32L280.14,28.95L280.93,30.61L281.72,37.74L282.52,28.24L283.31,33.94L284.1,32.99L284.9,37.5L285.69,24.68L286.48,35.36L287.28,42.73L288.07,29.43L288.87,27.29L289.66,42.25L290.45,22.06L291.25,34.18L292.83,28.95L293.63,33.23L294.42,29.66L295.21,15.18L296.01,30.38L296.8,27.05L297.6,22.3L298.39,23.96L299.18,30.38L299.98,29.43L300.77,29.43L301.56,18.5L303.15,36.55L303.15,92.85L302.36,101.16L301.56,92.37L299.98,84.06L299.18,85.96L298.39,97.36L297.6,91.18L296.8,95.93L296.01,95.22L295.21,91.66L294.42,81.92L292.83,97.36L292.04,87.15L291.25,81.68L290.45,89.05L289.66,84.77L288.87,85.01L288.07,81.68L287.28,81.68L286.48,94.03L285.69,86.43L284.9,86.43L284.1,84.77L283.31,98.07L282.52,85.96L281.72,95.93L280.93,81.44L280.14,75.98L279.34,82.16L278.55,100.68L277.76,90.71L276.96,91.42L276.17,80.02L275.37,118.26L274.58,100.68L273.79,100.68L272.99,98.07L272.2,105.67L271.41,89.52L270.61,84.06L269.82,86.43L268.23,91.18L267.44,79.54L266.65,81.68L265.85,80.49L265.06,83.11L264.26,110.19L263.47,89.05L262.68,92.61L261.88,81.92L261.09,88.57L260.3,76.69L259.5,76.69L258.71,85.72L257.92,81.21L257.12,86.43L256.33,83.35L255.54,100.92L254.74,96.88L253.15,82.4L252.36,84.77L251.57,105.67L250.77,85.48L249.98,86.43L249.19,79.07L248.39,80.02L247.6,84.06L246.81,119.69L246.01,84.53L245.22,84.3L244.42,86.43L243.63,81.44L242.84,83.35L242.04,91.42L241.25,91.18L239.66,100.68L238.87,92.37L237.28,105.91L236.49,95.93L235.7,93.8L234.9,114.7L234.11,107.34L233.31,91.18L231.73,105.44L230.93,127.05L230.14,104.48L229.35,111.61L228.55,94.98L227.76,105.44L226.97,94.51L226.17,131.33L224.59,100.68L223.79,114.94L223,122.77L222.2,110.19L221.41,99.73L220.62,117.07L219.82,101.4L219.03,119.69L217.44,95.7L216.65,100.45L215.86,119.45L215.06,113.75L214.27,119.69L213.47,87.62L212.68,116.12L211.89,117.07L211.09,113.51L210.3,125.86L209.51,122.3L208.71,98.07L207.92,100.21L207.13,113.75L206.33,117.55L205.54,114.94L204.75,114.22L203.95,110.19L202.36,125.15L201.57,106.39L200.78,98.55L199.98,117.55L198.4,101.63L197.6,117.07L196.81,103.3L196.02,107.34L194.43,114.46L193.64,110.19L192.84,114.94L192.05,111.61L191.25,109L190.46,111.61L189.67,124.44L188.87,122.54L188.08,126.81L187.29,119.45L186.49,121.59L185.7,110.19L184.91,116.6L184.11,133.94L183.32,116.6L182.53,116.84L181.73,116.12L180.94,121.11L179.35,117.55L178.56,99.26L177.76,85.25L176.97,115.65L176.18,110.19L175.38,96.88L174.59,111.37L173.8,102.82L173,111.85L172.21,100.45L171.41,96.88L170.62,113.27L169.83,100.45L169.03,117.07L168.24,119.69L167.45,102.82L165.86,90.23L165.07,95.7L163.48,91.18L162.69,113.27L161.89,90.71L161.1,100.21L160.3,82.87L159.51,108.76L158.72,92.61L157.92,106.62L157.13,100.68L156.34,100.68L155.54,107.34L154.75,94.27L153.96,106.62L153.16,100.68L152.37,121.11L151.58,111.61L150.78,93.56L149.99,107.34L149.19,107.34L148.4,104.96L147.61,102.11L146.81,113.51L146.02,143.68L145.23,116.6L144.43,117.55L143.64,115.41L142.85,117.79L142.05,100.21L141.26,114.94L140.46,110.19L139.67,124.44L138.88,102.58L137.29,109.24L136.5,101.16L135.7,105.2L134.91,100.68L134.12,103.53L133.32,111.85L132.53,116.84L131.74,111.14L130.94,114.94L130.15,102.82L128.56,112.09L127.77,122.3L126.97,122.54L126.18,113.99L125.39,129.66L124.59,122.3L123.8,138.45L123.01,130.85L122.21,128L121.42,134.89L119.83,120.87L119.04,125.39L118.24,128.24L117.45,127.52L115.86,123.49L115.07,133.94L114.28,132.75L113.48,138.21L112.69,135.84L111.9,126.81L111.1,126.34L110.31,128.95L109.52,127.76L108.72,128L107.93,128.24L107.13,135.84L106.34,132.04L105.55,132.75L104.75,139.4L103.96,128.95L102.37,140.35L101.58,140.59L99.99,130.85L99.2,136.55L97.61,131.33L96.82,147.24L96.02,146.05L95.23,132.04L94.44,155.55L93.64,153.89L92.06,164.58L91.26,177.17L90.47,170.28L89.68,175.27L88.09,191.18L87.29,201.87L86.5,176.22L85.71,189.04L84.12,175.51L83.33,176.22L82.53,185.72L81.74,182.63L80.95,175.74L80.15,200.68L79.36,192.13L78.57,172.65L76.18,187.86L75.39,175.74L73.8,182.63L73.01,193.56L72.22,186.43L71.42,195.69L69.84,189.52L69.04,202.58L68.25,195.93L67.45,198.55L65.87,206.15L65.07,217.78L64.28,202.11L63.49,207.81L62.69,218.26L61.9,211.37L60.31,228L59.52,218.5L58.73,223.49L57.93,223.25L57.14,226.81L56.34,225.62L54.76,238.45L53.96,233.7L53.17,225.15L52.38,229.42L51.58,225.39L50.79,235.84L49.2,228.95L48.41,228.95L46.82,233.7L46.03,232.51L44.44,238.45L43.65,238.45L42.85,235.84L42.06,236.07L41.27,233.7L40.47,238.45L39.68,237.02L38.89,238.45L38.09,238.92L37.3,240.59L36.51,239.87L35.71,240.59L33.33,239.64L32.54,240.35L31.74,241.3L30.95,240.35L29.36,239.16L28.57,240.35L25.39,241.3L24.6,240.82L17.46,241.3L16.67,241.77L14.28,241.77L13.49,241.77L11.9,241.3L11.11,241.3L10.32,241.06L9.52,241.77L6.35,241.54L5.56,241.54L3.17,241.54L2.38,241.77L1.59,242.25L0.79,241.54L0,242.01" style="vector-effect: non-scaling-stroke; fill: none; stroke: rgb(0, 0, 0); stroke-opacity: 0; stroke-width: 2px; opacity: 1;"/></g><g class="points"/><g class="text"/></g><g class="trace scatter tracebeb833" style="stroke-miterlimit: 2; opacity: 1;"><g class="fills"/><g class="errorbars"/><g class="lines"><path class="js-line" d="M0,243.2L7.14,243.2L7.94,240.82L8.73,238.45L9.52,243.2L10.32,243.2L11.11,240.82L12.7,240.82L13.49,243.2L15.08,233.7L15.87,233.7L18.25,238.45L19.05,236.07L19.84,238.45L20.63,233.7L21.43,238.45L22.22,236.07L23.01,233.7L23.81,238.45L25.39,233.7L26.19,236.07L27.78,217.07L28.57,228.95L30.16,205.2L30.95,219.45L31.74,221.82L32.54,219.45L33.33,228.95L34.12,200.45L34.92,214.7L35.71,214.7L37.3,198.07L38.09,202.82L38.89,181.44L39.68,181.44L40.47,198.07L41.27,195.69L42.06,188.57L42.85,190.94L43.65,171.94L44.44,181.44L45.23,171.94L46.03,207.57L46.82,198.07L47.62,176.69L48.41,190.94L49.2,174.32L50,169.57L50.79,176.69L51.58,152.94L52.38,167.19L53.17,169.57L53.96,179.07L54.76,150.56L55.55,155.32L56.34,157.69L57.14,145.81L57.93,160.07L58.73,160.07L59.52,171.94L60.31,162.44L61.11,152.94L61.9,164.82L62.69,179.07L63.49,152.94L64.28,152.94L65.07,141.06L66.66,122.06L67.45,145.81L68.25,152.94L69.04,141.06L69.84,148.19L70.63,126.81L72.22,152.94L73.01,131.56L73.8,148.19L74.6,133.94L75.39,136.31L76.18,141.06L77.77,138.69L78.57,131.56L79.36,126.81L80.15,143.44L80.95,126.81L81.74,162.44L83.33,105.44L84.12,138.69L84.91,122.06L85.71,143.44L87.29,114.94L88.09,114.94L88.88,126.81L89.68,119.69L90.47,107.81L91.26,107.81L92.06,131.56L92.85,107.81L93.64,136.31L94.44,124.44L95.23,103.06L96.02,114.94L96.82,141.06L97.61,141.06L98.4,141.06L99.2,112.56L99.99,117.31L100.79,91.18L101.58,110.19L102.37,107.81L103.17,131.56L103.96,117.31L104.75,119.69L105.55,114.94L106.34,114.94L107.13,126.81L107.93,112.56L108.72,141.06L109.52,133.94L110.31,117.31L111.1,119.69L111.9,91.18L112.69,129.19L113.48,126.81L115.07,93.56L115.86,114.94L116.66,103.06L117.45,119.69L118.24,117.31L119.04,117.31L119.83,117.31L120.63,126.81L122.21,112.56L123.01,103.06L123.8,129.19L124.59,107.81L125.39,107.81L126.18,119.69L126.97,91.18L127.77,107.81L129.35,110.19L130.15,105.44L131.74,117.31L132.53,95.93L133.32,110.19L134.12,93.56L134.91,98.31L135.7,98.31L136.5,98.31L137.29,100.68L138.08,65.06L138.88,88.81L139.67,112.56L140.46,95.93L142.05,91.18L142.85,79.31L144.43,105.44L145.23,95.93L146.02,117.31L146.81,91.18L147.61,98.31L148.4,95.93L149.19,93.56L149.99,93.56L150.78,84.06L151.58,100.68L153.16,84.06L153.96,81.68L154.75,84.06L155.54,107.81L156.34,100.68L157.13,81.68L157.92,74.56L158.72,79.31L159.51,65.06L160.3,86.43L161.89,103.06L162.69,74.56L163.48,93.56L164.27,79.31L165.86,79.31L166.65,76.93L167.45,62.68L168.24,81.68L169.03,81.68L169.83,86.43L170.62,86.43L171.41,88.81L173,79.31L173.8,110.19L176.18,55.55L176.97,91.18L177.76,72.18L178.56,76.93L179.35,88.81L180.14,65.06L180.94,74.56L181.73,98.31L182.53,79.31L183.32,88.81L184.11,72.18L184.91,86.43L185.7,53.18L186.49,67.43L188.08,43.68L188.87,62.68L189.67,79.31L190.46,76.93L191.25,72.18L192.05,62.68L192.84,93.56L193.64,72.18L195.22,65.06L196.02,84.06L196.81,69.81L197.6,91.18L198.4,67.43L199.19,69.81L200.78,76.93L201.57,81.68L202.36,62.68L203.16,74.56L203.95,50.8L204.75,84.06L205.54,67.43L206.33,74.56L207.13,74.56L207.92,36.55L208.71,91.18L209.51,69.81L210.3,91.18L211.09,48.43L212.68,76.93L213.47,69.81L214.27,79.31L215.06,74.56L215.86,46.05L216.65,81.68L217.44,57.93L218.24,76.93L219.82,46.05L220.62,67.43L221.41,81.68L222.2,74.56L223,67.43L223.79,69.81L225.38,88.81L226.17,65.06L226.97,79.31L227.76,62.68L228.55,60.31L229.35,62.68L230.14,60.31L230.93,69.81L231.73,72.18L232.52,86.43L233.31,93.56L234.11,60.31L234.9,72.18L235.7,60.31L236.49,55.55L237.28,76.93L238.08,60.31L238.87,69.81L240.46,60.31L241.25,46.05L242.04,88.81L242.84,55.55L243.63,81.68L244.42,72.18L245.22,67.43L246.01,69.81L246.81,81.68L247.6,69.81L248.39,79.31L249.19,69.81L249.98,55.55L250.77,62.68L251.57,93.56L252.36,81.68L253.95,62.68L254.74,65.06L255.54,67.43L256.33,55.55L257.12,65.06L257.92,53.18L258.71,55.55L259.5,67.43L260.3,69.81L261.09,67.43L261.88,72.18L262.68,57.93L263.47,43.68L264.26,81.68L265.06,98.31L265.85,69.81L266.65,48.43L267.44,91.18L269.03,31.8L269.82,81.68L270.61,50.8L271.41,57.93L272.2,60.31L272.99,53.18L273.79,67.43L274.58,48.43L276.17,72.18L276.96,57.93L277.76,84.06L278.55,50.8L280.14,81.68L280.93,69.81L281.72,79.31L282.52,69.81L283.31,62.68L284.1,62.68L284.9,50.8L285.69,65.06L286.48,53.18L287.28,74.56L288.07,67.43L288.87,48.43L289.66,88.81L290.45,57.93L291.25,67.43L292.04,48.43L292.83,67.43L293.63,38.93L295.21,91.18L296.01,55.55L296.8,76.93L297.6,74.56L298.39,67.43L299.18,79.31L299.98,43.68L300.77,67.43" style="vector-effect: non-scaling-stroke; fill: none; stroke: rgb(0, 204, 150); stroke-opacity: 1; stroke-width: 2px; opacity: 1;"/></g><g class="points"/><g class="text"/></g><g class="trace scatter tracef08fb2" style="stroke-miterlimit: 2; opacity: 1;"><g class="fills"><g><path class="js-fill" d="M0,243.2L3.97,243.2L4.76,234.89L5.56,238.45L6.35,238.45L10.32,238.45L11.11,231.32L12.7,228.95L13.49,234.89L15.08,225.39L15.87,220.64L16.67,228.95L17.46,217.07L18.25,212.32L19.05,230.14L19.84,234.89L20.63,198.07L21.43,225.39L22.22,220.64L23.01,220.64L23.81,223.01L25.39,193.32L26.19,228.95L27.78,195.69L28.57,199.26L29.36,202.82L30.16,163.63L30.95,187.38L31.74,175.51L32.54,200.45L33.33,185.01L34.12,175.51L34.92,181.44L35.71,183.82L36.51,174.32L37.3,171.94L38.09,185.01L38.89,164.82L39.68,164.82L40.47,163.63L41.27,177.88L42.06,157.69L42.85,163.63L44.44,135.13L45.23,149.38L46.03,164.82L46.82,150.56L47.62,144.63L48.41,149.38L50,155.32L50.79,131.56L51.58,135.13L52.38,130.38L53.17,132.75L53.96,144.63L54.76,133.94L55.55,139.88L56.34,138.69L57.14,114.94L57.93,133.94L58.73,130.38L60.31,142.25L61.11,135.13L62.69,152.94L63.49,136.31L64.28,148.19L65.07,116.12L65.87,117.31L66.66,98.31L68.25,130.38L69.04,118.5L69.84,130.38L70.63,107.81L71.42,125.62L72.22,105.44L73.01,107.81L73.8,98.31L74.6,110.19L75.39,100.68L76.18,120.87L76.98,98.31L78.57,111.37L79.36,90L80.15,120.87L80.95,103.06L81.74,136.31L82.53,91.18L83.33,92.37L84.12,114.94L84.91,101.87L85.71,104.25L86.5,94.75L87.29,97.12L88.09,101.87L88.88,95.93L89.68,107.81L90.47,85.25L91.26,84.06L92.06,110.19L92.85,97.12L93.64,120.87L94.44,72.18L95.23,87.62L96.02,94.75L96.82,118.5L97.61,88.81L98.4,116.12L99.99,84.06L100.79,81.68L101.58,101.87L102.37,97.12L103.17,97.12L103.96,92.37L104.75,101.87L105.55,81.68L107.13,107.81L107.93,81.68L108.72,122.06L109.52,87.62L110.31,82.87L111.1,91.18L112.69,78.12L113.48,92.37L114.28,92.37L115.07,75.74L115.86,84.06L116.66,78.12L117.45,90L118.24,80.49L119.04,103.06L119.83,82.87L120.63,82.87L121.42,86.43L122.21,74.56L123.01,87.62L124.59,61.49L125.39,76.93L126.18,100.68L126.97,69.81L127.77,49.62L128.56,97.12L130.15,74.56L130.94,63.87L131.74,106.62L132.53,73.37L133.32,85.25L134.12,79.31L134.91,81.68L135.7,68.62L137.29,61.49L138.08,49.62L138.88,67.43L139.67,50.8L141.26,68.62L142.05,78.12L142.85,47.24L143.64,49.62L144.43,70.99L145.23,69.81L146.02,69.81L146.81,79.31L147.61,63.87L148.4,84.06L149.19,78.12L149.99,82.87L150.78,53.18L151.58,68.62L152.37,47.24L153.16,61.49L153.96,67.43L154.75,46.05L156.34,74.56L157.13,59.12L157.92,53.18L158.72,41.3L159.51,48.43L160.3,68.62L161.1,54.37L161.89,69.81L162.69,53.18L163.48,78.12L164.27,30.61L165.07,54.37L165.86,60.31L166.65,50.8L167.45,34.18L168.24,63.87L169.03,55.55L169.83,59.12L170.62,55.55L171.41,44.87L172.21,42.49L173,55.55L173.8,37.74L174.59,67.43L175.38,57.93L176.18,23.49L177.76,72.18L178.56,34.18L179.35,48.43L180.14,44.87L180.94,59.12L181.73,55.55L182.53,38.93L183.32,62.68L184.11,57.93L184.91,63.87L185.7,38.93L186.49,46.05L187.29,35.36L188.08,35.36L188.87,46.05L189.67,37.74L191.25,62.68L192.05,24.68L193.64,57.93L194.43,62.68L195.22,28.24L196.02,50.8L196.81,49.62L197.6,59.12L198.4,59.12L199.19,36.55L199.98,27.05L200.78,54.37L201.57,35.36L202.36,38.93L203.16,60.31L203.95,37.74L204.75,38.93L205.54,31.8L206.33,24.68L207.13,48.43L207.92,25.86L208.71,60.31L209.51,41.3L210.3,46.05L211.89,30.61L212.68,43.68L213.47,38.93L214.27,43.68L215.06,56.74L215.86,30.61L216.65,48.43L217.44,38.93L218.24,24.68L219.03,54.37L219.82,31.8L220.62,46.05L221.41,34.18L222.2,35.36L223.79,44.87L224.59,61.49L225.38,51.99L226.17,59.12L226.97,60.31L227.76,36.55L228.55,44.87L229.35,38.93L230.14,43.68L230.93,35.36L232.52,46.05L233.31,50.8L234.11,25.86L234.9,53.18L235.7,21.11L236.49,27.05L237.28,35.36L238.08,29.43L239.66,53.18L240.46,30.61L241.25,35.36L242.04,63.87L242.84,49.62L243.63,49.62L244.42,50.8L245.22,44.87L246.01,38.93L246.81,44.87L247.6,40.12L248.39,24.68L249.98,41.3L250.77,44.87L251.57,68.62L252.36,53.18L253.15,41.3L253.95,44.87L254.74,30.61L255.54,38.93L256.33,12.8L257.12,24.68L257.92,40.12L258.71,23.49L260.3,59.12L261.09,41.3L261.88,41.3L262.68,44.87L263.47,30.61L264.26,44.87L265.06,49.62L265.85,24.68L268.23,48.43L269.03,21.11L269.82,62.68L270.61,25.86L272.2,44.87L272.99,24.68L273.79,51.99L274.58,30.61L276.17,54.37L276.96,40.12L277.76,30.61L278.55,30.61L279.34,57.93L280.14,48.43L280.93,55.55L281.72,53.18L282.52,55.55L283.31,42.49L284.1,44.87L284.9,12.8L286.48,32.99L287.28,27.05L288.07,38.93L288.87,22.3L289.66,66.24L290.45,34.18L291.25,48.43L292.04,35.36L292.83,48.43L293.63,17.55L295.21,69.81L296.01,40.12L297.6,63.87L298.39,29.43L299.98,27.05L300.77,38.93L300.77,105.44L299.98,69.81L299.18,94.75L298.39,93.56L297.6,81.68L296.8,110.19L296.01,84.06L295.21,109L294.42,78.12L293.63,99.5L292.04,86.43L291.25,105.44L290.45,75.74L289.66,109L288.87,86.43L288.07,100.68L286.48,85.25L285.69,103.06L284.9,66.24L284.1,74.56L283.31,82.87L282.52,124.44L280.93,110.19L280.14,100.68L279.34,99.5L278.55,87.62L277.76,114.94L276.96,85.25L275.37,123.25L274.58,74.56L273.79,80.49L272.99,98.31L272.2,85.25L271.41,110.19L270.61,104.25L269.82,110.19L269.03,118.5L268.23,88.81L267.44,114.94L266.65,72.18L265.06,112.56L264.26,116.12L263.47,61.49L262.68,90L261.88,120.87L261.09,88.81L260.3,128L259.5,112.56L257.92,82.87L257.12,112.56L256.33,91.18L255.54,105.44L254.74,91.18L253.95,109L253.15,95.93L252.36,109L251.57,118.5L250.77,92.37L249.98,97.12L249.19,119.69L248.39,107.81L247.6,84.06L246.81,105.44L246.01,100.68L245.22,81.68L244.42,99.5L242.84,118.5L242.04,117.31L241.25,76.93L240.46,130.38L239.66,101.87L238.87,112.56L236.49,95.93L235.7,139.88L234.9,91.18L234.11,93.56L231.73,133.94L230.93,116.12L230.14,105.44L229.35,106.62L228.55,80.49L227.76,87.62L226.97,112.56L226.17,87.62L224.59,124.44L223.79,109L223,113.75L222.2,104.25L220.62,133.94L219.82,118.5L219.03,107.81L218.24,111.37L217.44,93.56L216.65,109L215.86,75.74L215.06,90L214.27,114.94L213.47,86.43L211.89,113.75L211.09,101.87L210.3,112.56L209.51,110.19L208.71,114.94L207.92,97.12L207.13,85.25L206.33,90L205.54,84.06L204.75,100.68L203.95,93.56L203.16,110.19L202.36,80.49L201.57,126.81L200.78,119.69L199.98,103.06L199.19,131.56L198.4,86.43L197.6,104.25L196.81,85.25L196.02,112.56L195.22,100.68L194.43,98.31L193.64,105.44L192.84,122.06L192.05,97.12L190.46,122.06L189.67,94.75L188.87,97.12L188.08,86.43L187.29,103.06L186.49,79.31L185.7,85.25L184.91,100.68L184.11,97.12L183.32,111.37L182.53,151.75L181.73,132.75L180.14,101.87L179.35,113.75L178.56,103.06L177.76,106.62L176.97,110.19L176.18,95.93L175.38,92.37L174.59,114.94L173.8,128L173,90L171.41,125.62L170.62,111.37L169.83,116.12L169.03,110.19L168.24,122.06L167.45,88.81L165.86,139.88L165.07,99.5L164.27,126.81L163.48,113.75L162.69,113.75L161.89,144.63L160.3,126.81L159.51,94.75L157.92,123.25L157.13,112.56L155.54,154.13L154.75,120.87L153.96,129.19L153.16,117.31L152.37,100.68L151.58,136.31L150.78,120.87L149.99,136.31L149.19,122.06L148.4,122.06L146.81,119.69L146.02,141.06L145.23,122.06L144.43,150.56L143.64,124.44L142.85,126.81L142.05,104.25L141.26,112.56L140.46,132.75L139.67,126.81L138.08,122.06L137.29,129.19L136.5,126.81L135.7,131.56L134.91,129.19L134.12,114.94L133.32,148.19L132.53,123.25L131.74,151.75L130.94,129.19L130.15,137.5L129.35,124.44L128.56,142.25L127.77,124.44L126.18,155.32L125.39,124.44L124.59,129.19L123.8,157.69L123.01,118.5L122.21,142.25L121.42,129.19L120.63,147L119.83,150.56L119.04,137.5L118.24,141.06L117.45,149.38L116.66,131.56L115.86,137.5L115.07,138.69L114.28,148.19L113.48,156.5L112.69,138.69L111.9,122.06L111.1,155.32L110.31,136.31L109.52,151.75L108.72,152.94L107.93,132.75L107.13,152.94L106.34,145.81L105.55,143.44L104.75,148.19L103.96,135.13L103.17,147L101.58,144.63L100.79,124.44L99.99,148.19L99.2,133.94L98.4,180.26L97.61,158.88L96.82,170.75L96.02,151.75L95.23,141.06L94.44,142.25L93.64,151.75L92.85,123.25L92.06,174.32L91.26,169.57L90.47,173.13L89.68,164.82L88.09,136.31L87.29,151.75L86.5,148.19L85.71,161.25L84.91,156.5L84.12,157.69L83.33,150.56L82.53,152.94L81.74,170.75L80.95,167.19L80.15,169.57L79.36,166L78.57,162.44L77.77,164.82L76.98,171.94L76.18,198.07L75.39,202.82L74.6,173.13L73.8,175.51L73.01,150.56L72.22,181.44L71.42,175.51L70.63,180.26L69.84,174.32L69.04,169.57L68.25,202.82L66.66,170.75L65.87,179.07L65.07,171.94L64.28,183.82L61.9,199.26L61.11,196.88L60.31,176.69L59.52,188.57L58.73,175.51L57.93,195.69L57.14,181.44L56.34,195.69L55.55,189.76L54.76,192.13L53.96,195.69L53.17,180.26L51.58,206.38L50.79,199.26L50,201.63L49.2,192.13L46.82,223.01L46.03,223.01L45.23,204.01L44.44,213.51L43.65,202.82L42.85,214.7L42.06,213.51L41.27,226.57L40.47,223.01L39.68,207.57L38.89,200.45L38.09,232.51L37.3,231.32L36.51,218.26L35.71,233.7L34.92,223.01L34.12,223.01L33.33,238.45L32.54,239.64L31.74,237.26L30.16,242.01L29.36,238.45L28.57,242.01L27.78,242.01L26.98,238.45L26.19,243.2L23.81,243.2L23.01,242.01L22.22,243.2L21.43,242.01L20.63,242.01L19.84,243.2L19.05,243.2L18.25,242.01L17.46,243.2L16.67,238.45L15.87,242.01L15.08,242.01L13.49,243.2L12.7,243.2L0,243.2Z" style="fill: rgb(0, 204, 150); fill-opacity: 0.3; stroke-width: 0;"/></g></g><g class="errorbars"/><g class="lines"><path class="js-line" d="M0,243.2L3.97,243.2L4.76,234.89L5.56,238.45L6.35,238.45L10.32,238.45L11.11,231.32L12.7,228.95L13.49,234.89L15.08,225.39L15.87,220.64L16.67,228.95L17.46,217.07L18.25,212.32L19.05,230.14L19.84,234.89L20.63,198.07L21.43,225.39L22.22,220.64L23.01,220.64L23.81,223.01L25.39,193.32L26.19,228.95L27.78,195.69L28.57,199.26L29.36,202.82L30.16,163.63L30.95,187.38L31.74,175.51L32.54,200.45L33.33,185.01L34.12,175.51L34.92,181.44L35.71,183.82L36.51,174.32L37.3,171.94L38.09,185.01L38.89,164.82L39.68,164.82L40.47,163.63L41.27,177.88L42.06,157.69L42.85,163.63L44.44,135.13L45.23,149.38L46.03,164.82L46.82,150.56L47.62,144.63L48.41,149.38L50,155.32L50.79,131.56L51.58,135.13L52.38,130.38L53.17,132.75L53.96,144.63L54.76,133.94L55.55,139.88L56.34,138.69L57.14,114.94L57.93,133.94L58.73,130.38L60.31,142.25L61.11,135.13L62.69,152.94L63.49,136.31L64.28,148.19L65.07,116.12L65.87,117.31L66.66,98.31L68.25,130.38L69.04,118.5L69.84,130.38L70.63,107.81L71.42,125.62L72.22,105.44L73.01,107.81L73.8,98.31L74.6,110.19L75.39,100.68L76.18,120.87L76.98,98.31L78.57,111.37L79.36,90L80.15,120.87L80.95,103.06L81.74,136.31L82.53,91.18L83.33,92.37L84.12,114.94L84.91,101.87L85.71,104.25L86.5,94.75L87.29,97.12L88.09,101.87L88.88,95.93L89.68,107.81L90.47,85.25L91.26,84.06L92.06,110.19L92.85,97.12L93.64,120.87L94.44,72.18L95.23,87.62L96.02,94.75L96.82,118.5L97.61,88.81L98.4,116.12L99.99,84.06L100.79,81.68L101.58,101.87L102.37,97.12L103.17,97.12L103.96,92.37L104.75,101.87L105.55,81.68L107.13,107.81L107.93,81.68L108.72,122.06L109.52,87.62L110.31,82.87L111.1,91.18L112.69,78.12L113.48,92.37L114.28,92.37L115.07,75.74L115.86,84.06L116.66,78.12L117.45,90L118.24,80.49L119.04,103.06L119.83,82.87L120.63,82.87L121.42,86.43L122.21,74.56L123.01,87.62L124.59,61.49L125.39,76.93L126.18,100.68L126.97,69.81L127.77,49.62L128.56,97.12L130.15,74.56L130.94,63.87L131.74,106.62L132.53,73.37L133.32,85.25L134.12,79.31L134.91,81.68L135.7,68.62L137.29,61.49L138.08,49.62L138.88,67.43L139.67,50.8L141.26,68.62L142.05,78.12L142.85,47.24L143.64,49.62L144.43,70.99L145.23,69.81L146.02,69.81L146.81,79.31L147.61,63.87L148.4,84.06L149.19,78.12L149.99,82.87L150.78,53.18L151.58,68.62L152.37,47.24L153.16,61.49L153.96,67.43L154.75,46.05L156.34,74.56L157.13,59.12L157.92,53.18L158.72,41.3L159.51,48.43L160.3,68.62L161.1,54.37L161.89,69.81L162.69,53.18L163.48,78.12L164.27,30.61L165.07,54.37L165.86,60.31L166.65,50.8L167.45,34.18L168.24,63.87L169.03,55.55L169.83,59.12L170.62,55.55L171.41,44.87L172.21,42.49L173,55.55L173.8,37.74L174.59,67.43L175.38,57.93L176.18,23.49L177.76,72.18L178.56,34.18L179.35,48.43L180.14,44.87L180.94,59.12L181.73,55.55L182.53,38.93L183.32,62.68L184.11,57.93L184.91,63.87L185.7,38.93L186.49,46.05L187.29,35.36L188.08,35.36L188.87,46.05L189.67,37.74L191.25,62.68L192.05,24.68L193.64,57.93L194.43,62.68L195.22,28.24L196.02,50.8L196.81,49.62L197.6,59.12L198.4,59.12L199.19,36.55L199.98,27.05L200.78,54.37L201.57,35.36L202.36,38.93L203.16,60.31L203.95,37.74L204.75,38.93L205.54,31.8L206.33,24.68L207.13,48.43L207.92,25.86L208.71,60.31L209.51,41.3L210.3,46.05L211.89,30.61L212.68,43.68L213.47,38.93L214.27,43.68L215.06,56.74L215.86,30.61L216.65,48.43L217.44,38.93L218.24,24.68L219.03,54.37L219.82,31.8L220.62,46.05L221.41,34.18L222.2,35.36L223.79,44.87L224.59,61.49L225.38,51.99L226.17,59.12L226.97,60.31L227.76,36.55L228.55,44.87L229.35,38.93L230.14,43.68L230.93,35.36L232.52,46.05L233.31,50.8L234.11,25.86L234.9,53.18L235.7,21.11L236.49,27.05L237.28,35.36L238.08,29.43L239.66,53.18L240.46,30.61L241.25,35.36L242.04,63.87L242.84,49.62L243.63,49.62L244.42,50.8L245.22,44.87L246.01,38.93L246.81,44.87L247.6,40.12L248.39,24.68L249.98,41.3L250.77,44.87L251.57,68.62L252.36,53.18L253.15,41.3L253.95,44.87L254.74,30.61L255.54,38.93L256.33,12.8L257.12,24.68L257.92,40.12L258.71,23.49L260.3,59.12L261.09,41.3L261.88,41.3L262.68,44.87L263.47,30.61L264.26,44.87L265.06,49.62L265.85,24.68L268.23,48.43L269.03,21.11L269.82,62.68L270.61,25.86L272.2,44.87L272.99,24.68L273.79,51.99L274.58,30.61L276.17,54.37L276.96,40.12L277.76,30.61L278.55,30.61L279.34,57.93L280.14,48.43L280.93,55.55L281.72,53.18L282.52,55.55L283.31,42.49L284.1,44.87L284.9,12.8L286.48,32.99L287.28,27.05L288.07,38.93L288.87,22.3L289.66,66.24L290.45,34.18L291.25,48.43L292.04,35.36L292.83,48.43L293.63,17.55L295.21,69.81L296.01,40.12L297.6,63.87L298.39,29.43L299.98,27.05L300.77,38.93L300.77,105.44L299.98,69.81L299.18,94.75L298.39,93.56L297.6,81.68L296.8,110.19L296.01,84.06L295.21,109L294.42,78.12L293.63,99.5L292.04,86.43L291.25,105.44L290.45,75.74L289.66,109L288.87,86.43L288.07,100.68L286.48,85.25L285.69,103.06L284.9,66.24L284.1,74.56L283.31,82.87L282.52,124.44L280.93,110.19L280.14,100.68L279.34,99.5L278.55,87.62L277.76,114.94L276.96,85.25L275.37,123.25L274.58,74.56L273.79,80.49L272.99,98.31L272.2,85.25L271.41,110.19L270.61,104.25L269.82,110.19L269.03,118.5L268.23,88.81L267.44,114.94L266.65,72.18L265.06,112.56L264.26,116.12L263.47,61.49L262.68,90L261.88,120.87L261.09,88.81L260.3,128L259.5,112.56L257.92,82.87L257.12,112.56L256.33,91.18L255.54,105.44L254.74,91.18L253.95,109L253.15,95.93L252.36,109L251.57,118.5L250.77,92.37L249.98,97.12L249.19,119.69L248.39,107.81L247.6,84.06L246.81,105.44L246.01,100.68L245.22,81.68L244.42,99.5L242.84,118.5L242.04,117.31L241.25,76.93L240.46,130.38L239.66,101.87L238.87,112.56L236.49,95.93L235.7,139.88L234.9,91.18L234.11,93.56L231.73,133.94L230.93,116.12L230.14,105.44L229.35,106.62L228.55,80.49L227.76,87.62L226.97,112.56L226.17,87.62L224.59,124.44L223.79,109L223,113.75L222.2,104.25L220.62,133.94L219.82,118.5L219.03,107.81L218.24,111.37L217.44,93.56L216.65,109L215.86,75.74L215.06,90L214.27,114.94L213.47,86.43L211.89,113.75L211.09,101.87L210.3,112.56L209.51,110.19L208.71,114.94L207.92,97.12L207.13,85.25L206.33,90L205.54,84.06L204.75,100.68L203.95,93.56L203.16,110.19L202.36,80.49L201.57,126.81L200.78,119.69L199.98,103.06L199.19,131.56L198.4,86.43L197.6,104.25L196.81,85.25L196.02,112.56L195.22,100.68L194.43,98.31L193.64,105.44L192.84,122.06L192.05,97.12L190.46,122.06L189.67,94.75L188.87,97.12L188.08,86.43L187.29,103.06L186.49,79.31L185.7,85.25L184.91,100.68L184.11,97.12L183.32,111.37L182.53,151.75L181.73,132.75L180.14,101.87L179.35,113.75L178.56,103.06L177.76,106.62L176.97,110.19L176.18,95.93L175.38,92.37L174.59,114.94L173.8,128L173,90L171.41,125.62L170.62,111.37L169.83,116.12L169.03,110.19L168.24,122.06L167.45,88.81L165.86,139.88L165.07,99.5L164.27,126.81L163.48,113.75L162.69,113.75L161.89,144.63L160.3,126.81L159.51,94.75L157.92,123.25L157.13,112.56L155.54,154.13L154.75,120.87L153.96,129.19L153.16,117.31L152.37,100.68L151.58,136.31L150.78,120.87L149.99,136.31L149.19,122.06L148.4,122.06L146.81,119.69L146.02,141.06L145.23,122.06L144.43,150.56L143.64,124.44L142.85,126.81L142.05,104.25L141.26,112.56L140.46,132.75L139.67,126.81L138.08,122.06L137.29,129.19L136.5,126.81L135.7,131.56L134.91,129.19L134.12,114.94L133.32,148.19L132.53,123.25L131.74,151.75L130.94,129.19L130.15,137.5L129.35,124.44L128.56,142.25L127.77,124.44L126.18,155.32L125.39,124.44L124.59,129.19L123.8,157.69L123.01,118.5L122.21,142.25L121.42,129.19L120.63,147L119.83,150.56L119.04,137.5L118.24,141.06L117.45,149.38L116.66,131.56L115.86,137.5L115.07,138.69L114.28,148.19L113.48,156.5L112.69,138.69L111.9,122.06L111.1,155.32L110.31,136.31L109.52,151.75L108.72,152.94L107.93,132.75L107.13,152.94L106.34,145.81L105.55,143.44L104.75,148.19L103.96,135.13L103.17,147L101.58,144.63L100.79,124.44L99.99,148.19L99.2,133.94L98.4,180.26L97.61,158.88L96.82,170.75L96.02,151.75L95.23,141.06L94.44,142.25L93.64,151.75L92.85,123.25L92.06,174.32L91.26,169.57L90.47,173.13L89.68,164.82L88.09,136.31L87.29,151.75L86.5,148.19L85.71,161.25L84.91,156.5L84.12,157.69L83.33,150.56L82.53,152.94L81.74,170.75L80.95,167.19L80.15,169.57L79.36,166L78.57,162.44L77.77,164.82L76.98,171.94L76.18,198.07L75.39,202.82L74.6,173.13L73.8,175.51L73.01,150.56L72.22,181.44L71.42,175.51L70.63,180.26L69.84,174.32L69.04,169.57L68.25,202.82L66.66,170.75L65.87,179.07L65.07,171.94L64.28,183.82L61.9,199.26L61.11,196.88L60.31,176.69L59.52,188.57L58.73,175.51L57.93,195.69L57.14,181.44L56.34,195.69L55.55,189.76L54.76,192.13L53.96,195.69L53.17,180.26L51.58,206.38L50.79,199.26L50,201.63L49.2,192.13L46.82,223.01L46.03,223.01L45.23,204.01L44.44,213.51L43.65,202.82L42.85,214.7L42.06,213.51L41.27,226.57L40.47,223.01L39.68,207.57L38.89,200.45L38.09,232.51L37.3,231.32L36.51,218.26L35.71,233.7L34.92,223.01L34.12,223.01L33.33,238.45L32.54,239.64L31.74,237.26L30.16,242.01L29.36,238.45L28.57,242.01L27.78,242.01L26.98,238.45L26.19,243.2L23.81,243.2L23.01,242.01L22.22,243.2L21.43,242.01L20.63,242.01L19.84,243.2L19.05,243.2L18.25,242.01L17.46,243.2L16.67,238.45L15.87,242.01L15.08,242.01L13.49,243.2L12.7,243.2L0,243.2" style="vector-effect: non-scaling-stroke; fill: none; stroke: rgb(0, 0, 0); stroke-opacity: 0; stroke-width: 2px; opacity: 1;"/></g><g class="points"/><g class="text"/></g></g></g><g class="overplot"/><path class="xlines-above crisp" d="M0,0" style="fill: none;"/><path class="ylines-above crisp" d="M0,0" style="fill: none;"/><g class="overlines-above"/><g class="xaxislayer-above"><g class="xtick"><text text-anchor="middle" x="0" y="272" transform="translate(115.01,0)" style="font-family: 'Latin Modern Roman'; font-size: 12px; fill: rgb(0, 0, 0); fill-opacity: 1; white-space: pre;">10M</text></g><g class="xtick"><text text-anchor="middle" x="0" y="272" transform="translate(192.81,0)" style="font-family: 'Latin Modern Roman'; font-size: 12px; fill: rgb(0, 0, 0); fill-opacity: 1; white-space: pre;">20M</text></g><g class="xtick"><text text-anchor="middle" x="0" y="272" transform="translate(270.61,0)" style="font-family: 'Latin Modern Roman'; font-size: 12px; fill: rgb(0, 0, 0); fill-opacity: 1; white-space: pre;">30M</text></g><g class="xtick"><text text-anchor="middle" x="0" y="272" transform="translate(348.42,0)" style="font-family: 'Latin Modern Roman'; font-size: 12px; fill: rgb(0, 0, 0); fill-opacity: 1; white-space: pre;">40M</text></g><g class="xtick"><text text-anchor="middle" x="0" y="272" transform="translate(426.22,0)" style="font-family: 'Latin Modern Roman'; font-size: 12px; fill: rgb(0, 0, 0); fill-opacity: 1; white-space: pre;">50M</text></g></g><g class="yaxislayer-above"><g class="ytick"><text text-anchor="end" x="37" y="4.199999999999999" transform="translate(0,246.2)" style="font-family: 'Latin Modern Roman'; font-size: 12px; fill: rgb(0, 0, 0); fill-opacity: 1; white-space: pre;">0</text></g><g class="ytick"><text text-anchor="end" x="37" y="4.199999999999999" transform="translate(0,198.69)" style="font-family: 'Latin Modern Roman'; font-size: 12px; fill: rgb(0, 0, 0); fill-opacity: 1; white-space: pre;">10</text></g><g class="ytick"><text text-anchor="end" x="37" y="4.199999999999999" transform="translate(0,151.19)" style="font-family: 'Latin Modern Roman'; font-size: 12px; fill: rgb(0, 0, 0); fill-opacity: 1; white-space: pre;">20</text></g><g class="ytick"><text text-anchor="end" x="37" y="4.199999999999999" transform="translate(0,103.68)" style="font-family: 'Latin Modern Roman'; font-size: 12px; fill: rgb(0, 0, 0); fill-opacity: 1; white-space: pre;">30</text></g><g class="ytick"><text text-anchor="end" x="37" y="4.199999999999999" transform="translate(0,56.18)" style="font-family: 'Latin Modern Roman'; font-size: 12px; fill: rgb(0, 0, 0); fill-opacity: 1; white-space: pre;">40</text></g><g class="ytick"><text text-anchor="end" x="37" y="4.199999999999999" transform="translate(0,8.67)" style="font-family: 'Latin Modern Roman'; font-size: 12px; fill: rgb(0, 0, 0); fill-opacity: 1; white-space: pre;">50</text></g></g><g class="overaxes-above"/></g></g><g class="polarlayer"/><g class="ternarylayer"/><g class="geolayer"/><g class="funnelarealayer"/><g class="pielayer"/><g class="treemaplayer"/><g class="sunburstlayer"/><g class="glimages"/><defs id="topdefs-d6b81b"><g class="clips"/><clipPath id="legendd6b81b"><rect width="158" height="67" x="0" y="0"/></clipPath></defs><g class="layer-above"><g class="imagelayer"/><g class="shapelayer"/></g><g class="infolayer"><g class="legend" pointer-events="all" transform="translate(441.92,3)"><rect class="bg" shape-rendering="crispEdges" style="stroke: rgb(68, 68, 68); stroke-opacity: 1; fill: rgb(255, 255, 255); fill-opacity: 1; stroke-width: 0px;" width="158" height="67" x="0" y="0"/><g class="scrollbox" transform="" clip-path="url('#legendd6b81b')"><g class="groups"><g class="traces" transform="translate(0,14.5)" style="opacity: 1;"><text class="legendtext" text-anchor="start" x="40" y="4.680000000000001" style="font-family: 'Latin Modern Roman'; font-size: 12px; fill: rgb(0, 0, 0); fill-opacity: 1; white-space: pre;">Bayesian agg. (n=40)</text><g class="layers" style="opacity: 1;"><g class="legendfill"/><g class="legendlines"><path class="js-line" d="M5,0h30" style="fill: none; stroke: rgb(99, 110, 250); stroke-opacity: 1; stroke-width: 2px;"/></g><g class="legendsymbols"><g class="legendpoints"/></g></g><rect class="legendtoggle" x="0" y="-9.5" width="152.90625" height="19" style="fill: rgb(0, 0, 0); fill-opacity: 0;"/></g><g class="traces" transform="translate(0,33.5)" style="opacity: 1;"><text class="legendtext" text-anchor="start" x="40" y="4.680000000000001" style="font-family: 'Latin Modern Roman'; font-size: 12px; fill: rgb(0, 0, 0); fill-opacity: 1; white-space: pre;">Mean agg. (n=25)</text><g class="layers" style="opacity: 1;"><g class="legendfill"/><g class="legendlines"><path class="js-line" d="M5,0h30" style="fill: none; stroke: rgb(239, 85, 59); stroke-opacity: 1; stroke-width: 2px;"/></g><g class="legendsymbols"><g class="legendpoints"/></g></g><rect class="legendtoggle" x="0" y="-9.5" width="152.90625" height="19" style="fill: rgb(0, 0, 0); fill-opacity: 0;"/></g><g class="traces" transform="translate(0,52.5)" style="opacity: 1;"><text class="legendtext" text-anchor="start" x="40" y="4.680000000000001" style="font-family: 'Latin Modern Roman'; font-size: 12px; fill: rgb(0, 0, 0); fill-opacity: 1; white-space: pre;">Max Agg. (n=14)</text><g class="layers" style="opacity: 1;"><g class="legendfill"/><g class="legendlines"><path class="js-line" d="M5,0h30" style="fill: none; stroke: rgb(0, 204, 150); stroke-opacity: 1; stroke-width: 2px;"/></g><g class="legendsymbols"><g class="legendpoints"/></g></g><rect class="legendtoggle" x="0" y="-9.5" width="152.90625" height="19" style="fill: rgb(0, 0, 0); fill-opacity: 0;"/></g></g></g><rect class="scrollbar" rx="20" ry="3" width="0" height="0" style="fill: rgb(128, 139, 164); fill-opacity: 1;" x="0" y="0"/></g><g class="g-gtitle"/><g class="g-xtitle" transform="translate(0,-3.8000000000000114)"><text class="xtitle" x="236" y="299.8" text-anchor="middle" style="font-family: 'Latin Modern Roman'; font-size: 14px; fill: rgb(0, 0, 0); opacity: 1; font-weight: normal; white-space: pre;">Agent Steps</text></g><g class="g-ytitle" transform="translate(15.8154296875,0)"><text class="ytitle" transform="rotate(-90,0.18437500000000284,131)" x="0.18437500000000284" y="131" text-anchor="middle" style="font-family: 'Latin Modern Roman'; font-size: 14px; fill: rgb(0, 0, 0); opacity: 1; font-weight: normal; white-space: pre;">Avg. Reward</text></g></g></svg>