<svg class="main-svg" xmlns="http://www.w3.org/2000/svg" xmlns:xlink="http://www.w3.org/1999/xlink" width="600" height="300" style="" viewBox="0 0 600 300"><rect x="0" y="0" width="600" height="300" style="fill: rgb(255, 255, 255); fill-opacity: 1;"/><defs id="defs-c2badb"><g class="clips"><clipPath id="clipc2badbxyplot" class="plotclip"><rect width="433" height="259"/></clipPath><clipPath class="axesclip" id="clipc2badbx"><rect x="38" y="0" width="433" height="300"/></clipPath><clipPath class="axesclip" id="clipc2badby"><rect x="0" y="0" width="600" height="259"/></clipPath><clipPath class="axesclip" id="clipc2badbxy"><rect x="38" y="0" width="433" height="259"/></clipPath></g><g class="gradients"/></defs><g class="bglayer"><rect class="bg" x="38" y="0" width="433" height="259" style="fill: rgb(229, 236, 246); fill-opacity: 1; stroke-width: 0;"/></g><g class="layer-below"><g class="imagelayer"/><g class="shapelayer"/></g><g class="cartesianlayer"><g class="subplot xy"><g class="layer-subplot"><g class="shapelayer"/><g class="imagelayer"/></g><g class="gridlayer"><g class="x"><path class="xgrid crisp" transform="translate(160.86,0)" d="M0,0v259" style="stroke: rgb(255, 255, 255); stroke-opacity: 1; stroke-width: 1px;"/><path class="xgrid crisp" transform="translate(284.99,0)" d="M0,0v259" style="stroke: rgb(255, 255, 255); stroke-opacity: 1; stroke-width: 1px;"/><path class="xgrid crisp" transform="translate(409.11,0)" d="M0,0v259" style="stroke: rgb(255, 255, 255); stroke-opacity: 1; stroke-width: 1px;"/></g><g class="y"><path class="ygrid crisp" transform="translate(0,193.67)" d="M38,0h433" style="stroke: rgb(255, 255, 255); stroke-opacity: 1; stroke-width: 1px;"/><path class="ygrid crisp" transform="translate(0,141.29)" d="M38,0h433" style="stroke: rgb(255, 255, 255); stroke-opacity: 1; stroke-width: 1px;"/><path class="ygrid crisp" transform="translate(0,88.9)" d="M38,0h433" style="stroke: rgb(255, 255, 255); stroke-opacity: 1; stroke-width: 1px;"/><path class="ygrid crisp" transform="translate(0,36.52)" d="M38,0h433" style="stroke: rgb(255, 255, 255); stroke-opacity: 1; stroke-width: 1px;"/></g></g><g class="zerolinelayer"><path class="yzl zl crisp" transform="translate(0,246.05)" d="M38,0h433" style="stroke: rgb(255, 255, 255); stroke-opacity: 1; stroke-width: 2px;"/></g><path class="xlines-below"/><path class="ylines-below"/><g class="overlines-below"/><g class="xaxislayer-below"/><g class="yaxislayer-below"/><g class="overaxes-below"/><g class="plot" transform="translate(38,0)" clip-path="url('#clipc2badbxyplot')"><g class="scatterlayer mlayer"><g class="trace scatter trace2d7940" style="stroke-miterlimit: 2; opacity: 1;"><g class="fills"><g><path class="js-fill" d="M0,243.89L3.8,243.17L5.06,243.37L7.6,242.65L8.86,242.58L11.39,242.78L12.66,242.12L13.93,242.71L15.19,241.01L17.73,238.39L18.99,239.76L21.52,234.46L22.79,236.16L25.32,233.48L26.59,233.48L27.85,229.48L29.12,232.37L30.39,229.88L31.65,222.81L32.92,233.54L34.18,224.51L35.45,221.04L36.72,225.49L37.98,219.14L39.25,218.48L40.51,217.76L41.78,218.94L43.05,220.84L44.31,225.29L45.58,220.78L46.85,222.61L48.11,220.64L49.38,221.5L50.64,221.04L51.91,213.38L54.44,209.84L55.71,206.44L56.97,205.78L58.24,210.5L59.51,191.25L60.77,200.74L62.04,183.45L63.3,178.41L64.57,185.81L65.84,185.55L67.1,170.88L68.37,170.36L69.63,159.49L70.9,170.75L72.17,169.77L73.43,171.67L74.7,169.9L75.96,157.26L77.23,160.67L78.5,157.66L81.03,138.21L82.3,140.24L83.56,147.9L84.83,150.98L86.09,139.71L87.36,152.55L88.63,137.29L89.89,136.51L91.16,136.11L92.42,129.11L93.69,132.84L94.96,129.76L96.22,124.92L97.49,126.23L98.75,118.57L100.02,119.55L102.55,117.84L103.82,113.46L106.35,106.19L107.62,104.16L108.88,100.76L110.15,95.06L111.42,94.6L112.68,85.17L113.95,95.45L115.21,94.34L116.48,95.32L117.75,89.76L119.01,89.82L120.28,92.18L121.54,91.92L122.81,96.3L124.08,94.34L125.34,85.17L126.61,92.57L127.87,80.85L129.14,94.8L130.41,88.64L131.67,81.57L132.94,85.17L134.2,86.09L135.47,82.81L136.74,83.21L138,76.07L140.54,84.52L141.8,83.27L144.33,87.2L145.6,77.97L148.13,86.35L149.4,86.42L151.93,83.73L153.2,77.71L154.46,85.17L155.73,83.93L156.99,74.3L158.26,82.49L159.53,73.25L160.79,80.13L162.06,74.56L163.32,78.3L164.59,80.98L165.86,77.31L167.12,74.83L168.39,74.3L169.65,69.26L170.92,74.17L172.19,79.28L173.45,78.62L174.72,78.17L175.99,67.62L177.25,80.2L178.52,74.56L179.78,74.56L181.05,70.44L182.32,69.33L183.58,77.31L184.85,68.8L186.11,69.33L187.38,67.17L188.65,73.91L189.91,70.57L191.18,75.35L193.71,68.08L194.98,73.58L196.24,67.56L197.51,65.99L198.77,71.29L200.04,66.31L201.31,65.66L202.57,64.15L203.84,64.28L205.11,71.09L206.37,76.59L207.64,66.12L208.9,55.12L210.17,59.37L211.44,54.86L212.7,53.48L213.97,54L215.23,57.41L216.5,56.49L217.77,58.06L219.03,51.71L220.3,53.61L222.83,61.14L224.1,52.89L225.36,58.06L226.63,59.83L227.89,49.16L229.16,50.86L230.43,48.96L231.69,53.48L232.96,55.38L234.23,54.86L236.76,50.99L238.02,53.55L239.29,41.69L240.56,56.03L241.82,46.47L243.09,53.42L244.35,48.18L245.62,47.39L246.89,54.2L248.15,52.04L249.42,49.62L250.68,53.68L251.95,47.98L253.22,46.02L254.48,52.3L255.75,52.24L257.01,54.66L258.28,46.02L259.55,42.55L260.81,43.99L263.35,36.91L264.61,51.12L265.88,44.05L267.14,45.75L268.41,46.47L269.68,50.14L270.94,41.76L272.21,48.64L273.47,40.52L274.74,47.26L276.01,42.28L277.27,43.66L278.54,48.5L279.8,41.17L283.6,52.43L284.87,40.06L287.4,46.54L288.67,45.1L289.93,52.3L291.2,41.17L292.46,44.44L293.73,42.15L295,45.1L296.26,42.94L297.53,39.99L298.8,52.76L300.06,39.93L301.33,40.91L302.59,34.23L303.86,44.71L306.39,43.72L307.66,40.65L308.92,43.33L310.19,34.62L311.46,38.09L312.72,35.08L315.25,40.65L316.52,37.96L317.79,34.16L319.05,37.31L320.32,41.43L321.58,34.62L322.85,38.68L324.12,38.88L326.65,45.1L327.92,39.6L329.18,42.61L330.45,41.89L331.71,46.93L332.98,47.52L334.25,43.72L335.51,47.19L336.78,40.52L338.04,42.94L339.31,46.87L340.58,47.85L343.11,40.19L344.37,46.87L346.91,44.05L348.17,45.43L349.44,42.22L350.7,45.03L351.97,38.75L353.24,47.06L354.5,36.59L355.77,34.88L357.04,43.07L358.3,45.23L360.83,34.69L362.1,36L363.37,36.46L364.63,42.41L365.9,35.08L367.16,40.45L368.43,39.01L369.7,34.95L370.96,41.17L372.23,39.21L373.49,31.48L374.76,34.1L376.03,37.18L377.29,43.46L378.56,40.97L379.82,32.59L381.09,37.44L382.36,37.31L383.62,41.37L384.89,36.98L386.15,40.58L387.42,41.56L388.69,31.68L389.95,44.84L391.22,36.26L392.49,46.21L396.28,37.83L397.55,36.91L400.08,45.56L401.35,38.42L403.88,35.54L405.15,40.91L406.41,43.86L407.68,43.53L408.94,37.44L410.21,42.81L412.74,29.71L414.01,37.24L415.27,34.75L416.54,28.53L417.81,38.88L419.07,29.19L420.34,34.49L421.61,35.8L422.87,44.31L424.14,32.72L425.4,39.08L426.67,37.57L427.94,39.47L429.2,43.14L430.47,33.18L431.73,39.01L433,36.91L433,127.14L431.73,129.43L430.47,127.8L429.2,123.54L427.94,122.23L426.67,130.68L425.4,131.73L424.14,129.3L422.87,130.68L421.61,132.97L420.34,132.71L419.07,122.1L417.81,125.77L414.01,137.68L412.74,132.32L411.48,130.15L410.21,135.98L408.94,131.99L407.68,136.51L406.41,131.07L405.15,129.11L403.88,131.07L402.61,128.19L401.35,133.69L400.08,129.3L398.82,129.11L397.55,124.79L395.02,132.58L393.75,128.52L392.49,133.63L391.22,130.74L389.95,134.48L388.69,131.4L387.42,127.67L386.15,132.25L384.89,124.92L383.62,130.55L381.09,127.27L379.82,123.35L378.56,133.36L377.29,118.7L376.03,133.23L374.76,127.01L373.49,134.87L372.23,128.78L370.96,131.79L369.7,140.04L368.43,120.66L367.16,131.53L364.63,123.35L363.37,134.93L362.1,136.44L360.83,128.12L359.57,132.51L358.3,128.06L357.04,125.64L355.77,133.23L354.5,129.11L353.24,134.48L351.97,129.83L350.7,131.4L349.44,136.51L348.17,127.21L346.91,125.64L345.64,132.64L344.37,131.46L343.11,132.77L340.58,127.4L339.31,126.82L338.04,128.78L336.78,135.72L335.51,125.37L334.25,132.12L332.98,125.9L331.71,129.7L330.45,125.83L329.18,129.3L327.92,131.33L326.65,137.68L324.12,126.23L322.85,129.11L321.58,135.92L320.32,128.19L319.05,143.18L317.79,134.28L316.52,134.35L315.25,131.27L313.99,139.26L312.72,130.35L310.19,135.79L308.92,142.01L307.66,143.12L306.39,130.61L305.13,140.7L303.86,130.42L302.59,128.98L301.33,133.82L300.06,144.69L298.8,137.82L297.53,141.55L296.26,136.9L295,128.65L293.73,136.64L292.46,141.48L291.2,140.11L289.93,135.39L288.67,142.14L287.4,143.51L286.13,138.01L284.87,131.86L283.6,143.38L281.07,140.3L279.8,140.83L278.54,126.16L277.27,138.67L274.74,136.51L273.47,140.04L270.94,147.24L269.68,144.95L268.41,137.88L267.14,139.06L265.88,139.78L264.61,133.23L263.35,133.43L262.08,135.46L260.81,142.01L259.55,136.7L258.28,133.56L257.01,137.42L255.75,141.61L254.48,140.76L253.22,142.86L251.95,141.88L250.68,141.88L249.42,142.79L248.15,136.11L246.89,140.37L245.62,136.57L244.35,136.96L243.09,147.77L241.82,145.41L240.56,149.99L239.29,147.57L238.02,149.47L236.76,149.14L235.49,147.05L234.23,148.49L232.96,151.7L231.69,150.65L230.43,155.49L229.16,155.04L227.89,156.61L226.63,163.74L225.36,155.43L224.1,157.26L222.83,162.57L221.56,155.69L219.03,162.04L217.77,169.24L216.5,162.5L215.23,160.6L213.97,163.88L212.7,157.66L211.44,162.37L210.17,163.42L208.9,170.03L207.64,165.71L206.37,168.52L205.11,163.35L203.84,162.96L202.57,164.6L201.31,175.2L200.04,172.19L198.77,169.97L197.51,171.73L196.24,174.74L194.98,175.01L193.71,170.55L192.44,180.77L191.18,172.98L189.91,181.23L188.65,183.39L187.38,180.05L186.11,185.81L184.85,175.4L183.58,176.32L182.32,189.87L181.05,188.95L179.78,196.48L177.25,188.95L175.99,190.13L174.72,193.01L173.45,189.87L172.19,201L170.92,201L169.65,187.19L168.39,199.23L167.12,195.24L165.86,203.62L164.59,200.74L163.32,192.82L162.06,201.85L160.79,199.17L159.53,205.72L158.26,204.93L154.46,214.75L153.2,207.81L151.93,208.66L150.66,217.17L149.4,213.84L148.13,219.2L146.87,214.69L145.6,213.97L144.33,223.53L143.07,218.75L141.8,227.26L140.54,228.63L139.27,230.53L138,233.81L136.74,231.58L135.47,235.64L132.94,233.74L131.67,231.25L130.41,234.39L129.14,235.05L126.61,239.5L125.34,236.75L124.08,239.5L122.81,238.78L121.54,237.73L120.28,231.38L119.01,236.69L117.75,236.69L116.48,237.6L115.21,239.5L113.95,240.55L112.68,239.17L111.42,239.44L110.15,241.2L108.88,237.47L107.62,240.81L106.35,239.5L105.08,240.09L103.82,239.31L102.55,241.92L101.29,242.78L100.02,241.73L97.49,241.53L96.22,239.04L94.96,239.9L93.69,239.04L92.42,241.79L91.16,240.88L89.89,240.62L88.63,242.38L87.36,240.94L86.09,242.25L83.56,242.51L82.3,242.97L78.5,242.97L77.23,243.5L73.43,242.91L72.17,243.5L70.9,242.91L69.63,243.3L67.1,243.76L65.84,243.04L62.04,243.69L60.77,243.69L55.71,244.02L54.44,243.76L48.11,244.22L46.85,243.95L43.05,244.02L41.78,244.22L0,244.48Z" style="fill: rgb(99, 110, 250); fill-opacity: 0.3; stroke-width: 0;"/></g></g><g class="errorbars"/><g class="lines"><path class="js-line" d="M0,243.89L3.8,243.17L5.06,243.37L7.6,242.65L8.86,242.58L11.39,242.78L12.66,242.12L13.93,242.71L15.19,241.01L17.73,238.39L18.99,239.76L21.52,234.46L22.79,236.16L25.32,233.48L26.59,233.48L27.85,229.48L29.12,232.37L30.39,229.88L31.65,222.81L32.92,233.54L34.18,224.51L35.45,221.04L36.72,225.49L37.98,219.14L39.25,218.48L40.51,217.76L41.78,218.94L43.05,220.84L44.31,225.29L45.58,220.78L46.85,222.61L48.11,220.64L49.38,221.5L50.64,221.04L51.91,213.38L54.44,209.84L55.71,206.44L56.97,205.78L58.24,210.5L59.51,191.25L60.77,200.74L62.04,183.45L63.3,178.41L64.57,185.81L65.84,185.55L67.1,170.88L68.37,170.36L69.63,159.49L70.9,170.75L72.17,169.77L73.43,171.67L74.7,169.9L75.96,157.26L77.23,160.67L78.5,157.66L81.03,138.21L82.3,140.24L83.56,147.9L84.83,150.98L86.09,139.71L87.36,152.55L88.63,137.29L89.89,136.51L91.16,136.11L92.42,129.11L93.69,132.84L94.96,129.76L96.22,124.92L97.49,126.23L98.75,118.57L100.02,119.55L102.55,117.84L103.82,113.46L106.35,106.19L107.62,104.16L108.88,100.76L110.15,95.06L111.42,94.6L112.68,85.17L113.95,95.45L115.21,94.34L116.48,95.32L117.75,89.76L119.01,89.82L120.28,92.18L121.54,91.92L122.81,96.3L124.08,94.34L125.34,85.17L126.61,92.57L127.87,80.85L129.14,94.8L130.41,88.64L131.67,81.57L132.94,85.17L134.2,86.09L135.47,82.81L136.74,83.21L138,76.07L140.54,84.52L141.8,83.27L144.33,87.2L145.6,77.97L148.13,86.35L149.4,86.42L151.93,83.73L153.2,77.71L154.46,85.17L155.73,83.93L156.99,74.3L158.26,82.49L159.53,73.25L160.79,80.13L162.06,74.56L163.32,78.3L164.59,80.98L165.86,77.31L167.12,74.83L168.39,74.3L169.65,69.26L170.92,74.17L172.19,79.28L173.45,78.62L174.72,78.17L175.99,67.62L177.25,80.2L178.52,74.56L179.78,74.56L181.05,70.44L182.32,69.33L183.58,77.31L184.85,68.8L186.11,69.33L187.38,67.17L188.65,73.91L189.91,70.57L191.18,75.35L193.71,68.08L194.98,73.58L196.24,67.56L197.51,65.99L198.77,71.29L200.04,66.31L201.31,65.66L202.57,64.15L203.84,64.28L205.11,71.09L206.37,76.59L207.64,66.12L208.9,55.12L210.17,59.37L211.44,54.86L212.7,53.48L213.97,54L215.23,57.41L216.5,56.49L217.77,58.06L219.03,51.71L220.3,53.61L222.83,61.14L224.1,52.89L225.36,58.06L226.63,59.83L227.89,49.16L229.16,50.86L230.43,48.96L231.69,53.48L232.96,55.38L234.23,54.86L236.76,50.99L238.02,53.55L239.29,41.69L240.56,56.03L241.82,46.47L243.09,53.42L244.35,48.18L245.62,47.39L246.89,54.2L248.15,52.04L249.42,49.62L250.68,53.68L251.95,47.98L253.22,46.02L254.48,52.3L255.75,52.24L257.01,54.66L258.28,46.02L259.55,42.55L260.81,43.99L263.35,36.91L264.61,51.12L265.88,44.05L267.14,45.75L268.41,46.47L269.68,50.14L270.94,41.76L272.21,48.64L273.47,40.52L274.74,47.26L276.01,42.28L277.27,43.66L278.54,48.5L279.8,41.17L283.6,52.43L284.87,40.06L287.4,46.54L288.67,45.1L289.93,52.3L291.2,41.17L292.46,44.44L293.73,42.15L295,45.1L296.26,42.94L297.53,39.99L298.8,52.76L300.06,39.93L301.33,40.91L302.59,34.23L303.86,44.71L306.39,43.72L307.66,40.65L308.92,43.33L310.19,34.62L311.46,38.09L312.72,35.08L315.25,40.65L316.52,37.96L317.79,34.16L319.05,37.31L320.32,41.43L321.58,34.62L322.85,38.68L324.12,38.88L326.65,45.1L327.92,39.6L329.18,42.61L330.45,41.89L331.71,46.93L332.98,47.52L334.25,43.72L335.51,47.19L336.78,40.52L338.04,42.94L339.31,46.87L340.58,47.85L343.11,40.19L344.37,46.87L346.91,44.05L348.17,45.43L349.44,42.22L350.7,45.03L351.97,38.75L353.24,47.06L354.5,36.59L355.77,34.88L357.04,43.07L358.3,45.23L360.83,34.69L362.1,36L363.37,36.46L364.63,42.41L365.9,35.08L367.16,40.45L368.43,39.01L369.7,34.95L370.96,41.17L372.23,39.21L373.49,31.48L374.76,34.1L376.03,37.18L377.29,43.46L378.56,40.97L379.82,32.59L381.09,37.44L382.36,37.31L383.62,41.37L384.89,36.98L386.15,40.58L387.42,41.56L388.69,31.68L389.95,44.84L391.22,36.26L392.49,46.21L396.28,37.83L397.55,36.91L400.08,45.56L401.35,38.42L403.88,35.54L405.15,40.91L406.41,43.86L407.68,43.53L408.94,37.44L410.21,42.81L412.74,29.71L414.01,37.24L415.27,34.75L416.54,28.53L417.81,38.88L419.07,29.19L420.34,34.49L421.61,35.8L422.87,44.31L424.14,32.72L425.4,39.08L426.67,37.57L427.94,39.47L429.2,43.14L430.47,33.18L431.73,39.01L433,36.91L433,127.14L431.73,129.43L430.47,127.8L429.2,123.54L427.94,122.23L426.67,130.68L425.4,131.73L424.14,129.3L422.87,130.68L421.61,132.97L420.34,132.71L419.07,122.1L417.81,125.77L414.01,137.68L412.74,132.32L411.48,130.15L410.21,135.98L408.94,131.99L407.68,136.51L406.41,131.07L405.15,129.11L403.88,131.07L402.61,128.19L401.35,133.69L400.08,129.3L398.82,129.11L397.55,124.79L395.02,132.58L393.75,128.52L392.49,133.63L391.22,130.74L389.95,134.48L388.69,131.4L387.42,127.67L386.15,132.25L384.89,124.92L383.62,130.55L381.09,127.27L379.82,123.35L378.56,133.36L377.29,118.7L376.03,133.23L374.76,127.01L373.49,134.87L372.23,128.78L370.96,131.79L369.7,140.04L368.43,120.66L367.16,131.53L364.63,123.35L363.37,134.93L362.1,136.44L360.83,128.12L359.57,132.51L358.3,128.06L357.04,125.64L355.77,133.23L354.5,129.11L353.24,134.48L351.97,129.83L350.7,131.4L349.44,136.51L348.17,127.21L346.91,125.64L345.64,132.64L344.37,131.46L343.11,132.77L340.58,127.4L339.31,126.82L338.04,128.78L336.78,135.72L335.51,125.37L334.25,132.12L332.98,125.9L331.71,129.7L330.45,125.83L329.18,129.3L327.92,131.33L326.65,137.68L324.12,126.23L322.85,129.11L321.58,135.92L320.32,128.19L319.05,143.18L317.79,134.28L316.52,134.35L315.25,131.27L313.99,139.26L312.72,130.35L310.19,135.79L308.92,142.01L307.66,143.12L306.39,130.61L305.13,140.7L303.86,130.42L302.59,128.98L301.33,133.82L300.06,144.69L298.8,137.82L297.53,141.55L296.26,136.9L295,128.65L293.73,136.64L292.46,141.48L291.2,140.11L289.93,135.39L288.67,142.14L287.4,143.51L286.13,138.01L284.87,131.86L283.6,143.38L281.07,140.3L279.8,140.83L278.54,126.16L277.27,138.67L274.74,136.51L273.47,140.04L270.94,147.24L269.68,144.95L268.41,137.88L267.14,139.06L265.88,139.78L264.61,133.23L263.35,133.43L262.08,135.46L260.81,142.01L259.55,136.7L258.28,133.56L257.01,137.42L255.75,141.61L254.48,140.76L253.22,142.86L251.95,141.88L250.68,141.88L249.42,142.79L248.15,136.11L246.89,140.37L245.62,136.57L244.35,136.96L243.09,147.77L241.82,145.41L240.56,149.99L239.29,147.57L238.02,149.47L236.76,149.14L235.49,147.05L234.23,148.49L232.96,151.7L231.69,150.65L230.43,155.49L229.16,155.04L227.89,156.61L226.63,163.74L225.36,155.43L224.1,157.26L222.83,162.57L221.56,155.69L219.03,162.04L217.77,169.24L216.5,162.5L215.23,160.6L213.97,163.88L212.7,157.66L211.44,162.37L210.17,163.42L208.9,170.03L207.64,165.71L206.37,168.52L205.11,163.35L203.84,162.96L202.57,164.6L201.31,175.2L200.04,172.19L198.77,169.97L197.51,171.73L196.24,174.74L194.98,175.01L193.71,170.55L192.44,180.77L191.18,172.98L189.91,181.23L188.65,183.39L187.38,180.05L186.11,185.81L184.85,175.4L183.58,176.32L182.32,189.87L181.05,188.95L179.78,196.48L177.25,188.95L175.99,190.13L174.72,193.01L173.45,189.87L172.19,201L170.92,201L169.65,187.19L168.39,199.23L167.12,195.24L165.86,203.62L164.59,200.74L163.32,192.82L162.06,201.85L160.79,199.17L159.53,205.72L158.26,204.93L154.46,214.75L153.2,207.81L151.93,208.66L150.66,217.17L149.4,213.84L148.13,219.2L146.87,214.69L145.6,213.97L144.33,223.53L143.07,218.75L141.8,227.26L140.54,228.63L139.27,230.53L138,233.81L136.74,231.58L135.47,235.64L132.94,233.74L131.67,231.25L130.41,234.39L129.14,235.05L126.61,239.5L125.34,236.75L124.08,239.5L122.81,238.78L121.54,237.73L120.28,231.38L119.01,236.69L117.75,236.69L116.48,237.6L115.21,239.5L113.95,240.55L112.68,239.17L111.42,239.44L110.15,241.2L108.88,237.47L107.62,240.81L106.35,239.5L105.08,240.09L103.82,239.31L102.55,241.92L101.29,242.78L100.02,241.73L97.49,241.53L96.22,239.04L94.96,239.9L93.69,239.04L92.42,241.79L91.16,240.88L89.89,240.62L88.63,242.38L87.36,240.94L86.09,242.25L83.56,242.51L82.3,242.97L78.5,242.97L77.23,243.5L73.43,242.91L72.17,243.5L70.9,242.91L69.63,243.3L67.1,243.76L65.84,243.04L62.04,243.69L60.77,243.69L55.71,244.02L54.44,243.76L48.11,244.22L46.85,243.95L43.05,244.02L41.78,244.22L0,244.48" style="vector-effect: non-scaling-stroke; fill: none; stroke: rgb(0, 0, 0); stroke-opacity: 0; stroke-width: 2px; opacity: 1;"/></g><g class="points"/><g class="text"/></g><g class="trace scatter tracec5b1f3" style="stroke-miterlimit: 2; opacity: 1;"><g class="fills"><g><path class="js-fill" d="M0,246.05L1.27,246.05L2.53,240.81L10.13,240.81L11.39,229.03L12.66,240.81L13.93,235.57L15.19,240.81L16.46,240.81L17.73,240.81L18.99,236.88L20.26,219.86L21.52,230.34L22.79,235.57L24.06,217.24L25.32,210.69L26.59,246.05L27.85,226.41L29.12,236.88L30.39,225.1L31.65,235.57L32.92,240.81L34.18,226.41L35.45,209.38L36.72,240.81L39.25,217.24L40.51,221.17L41.78,222.48L43.05,194.98L44.31,202.83L45.58,192.36L46.85,218.55L48.11,198.91L50.64,236.88L51.91,219.86L53.18,198.91L54.44,197.6L55.71,187.12L56.97,194.98L58.24,194.98L59.51,185.81L60.77,176.64L62.04,198.91L63.3,201.53L64.57,159.62L67.1,198.91L68.37,158.31L70.9,181.88L72.17,175.33L73.43,174.02L74.7,160.93L75.96,162.24L77.23,149.14L78.5,168.79L79.76,141.29L81.03,162.24L82.3,164.86L83.56,149.14L84.83,149.14L86.09,157L87.36,177.95L89.89,132.12L91.16,155.69L92.42,158.31L93.69,108.55L94.96,121.64L96.22,151.76L97.49,170.1L98.75,163.55L100.02,126.88L101.29,167.48L102.55,116.4L103.82,128.19L105.08,154.38L106.35,163.55L107.62,120.33L108.88,116.4L110.15,149.14L111.42,137.36L112.68,134.74L113.95,124.26L115.21,103.31L116.48,137.36L117.75,129.5L119.01,134.74L120.28,98.07L121.54,112.48L122.81,154.38L124.08,108.55L125.34,126.88L126.61,104.62L127.87,102L129.14,95.45L130.41,146.52L131.67,142.6L132.94,143.91L134.2,146.52L135.47,121.64L136.74,157L138,121.64L139.27,108.55L140.54,138.67L141.8,143.91L143.07,126.88L144.33,143.91L145.6,113.79L146.87,104.62L148.13,87.59L149.4,126.88L150.66,105.93L151.93,139.98L154.46,108.55L155.73,120.33L156.99,126.88L158.26,139.98L159.53,112.48L160.79,120.33L162.06,122.95L163.32,102L164.59,75.81L165.86,102L167.12,122.95L168.39,105.93L169.65,141.29L170.92,103.31L172.19,113.79L173.45,116.4L174.72,87.59L175.99,105.93L177.25,116.4L178.52,71.88L179.78,87.59L181.05,84.98L182.32,111.17L183.58,50.93L186.11,102L187.38,95.45L188.65,91.52L189.91,91.52L191.18,83.67L192.44,90.21L193.71,82.36L194.98,64.02L196.24,82.36L197.51,58.78L198.77,87.59L200.04,91.52L201.31,100.69L202.57,92.83L203.84,87.59L205.11,92.83L206.37,78.43L207.64,96.76L208.9,111.17L210.17,96.76L212.7,73.19L213.97,88.9L215.23,84.98L216.5,60.09L217.77,96.76L219.03,83.67L220.3,78.43L221.56,103.31L222.83,92.83L224.1,91.52L225.36,67.95L226.63,100.69L227.89,79.74L229.16,84.98L230.43,53.55L231.69,94.14L232.96,74.5L234.23,82.36L235.49,73.19L236.76,84.98L238.02,88.9L239.29,105.93L240.56,88.9L241.82,84.98L243.09,90.21L244.35,120.33L245.62,54.86L246.89,77.12L248.15,58.78L249.42,79.74L250.68,83.67L251.95,54.86L253.22,104.62L254.48,43.07L255.75,75.81L257.01,64.02L258.28,78.43L259.55,74.5L262.08,92.83L263.35,73.19L264.61,112.48L265.88,65.33L267.14,81.05L268.41,79.74L269.68,69.26L270.94,74.5L272.21,58.78L273.47,105.93L277.27,48.31L278.54,71.88L279.8,91.52L281.07,78.43L282.34,88.9L283.6,53.55L284.87,64.02L286.13,48.31L287.4,78.43L288.67,67.95L289.93,27.36L291.2,48.31L292.46,79.74L293.73,57.47L295,33.9L296.26,56.17L297.53,48.31L298.8,60.09L300.06,50.93L301.33,49.62L303.86,91.52L305.13,62.71L306.39,78.43L307.66,56.17L308.92,52.24L310.19,75.81L311.46,48.31L312.72,61.4L313.99,48.31L315.25,69.26L316.52,52.24L317.79,58.78L319.05,60.09L320.32,60.09L321.58,45.69L322.85,73.19L324.12,65.33L325.38,62.71L326.65,74.5L327.92,78.43L329.18,58.78L330.45,69.26L331.71,67.95L332.98,88.9L334.25,84.98L335.51,58.78L336.78,84.98L338.04,62.71L339.31,33.9L340.58,69.26L341.84,58.78L343.11,23.43L344.37,65.33L345.64,61.4L346.91,99.38L348.17,66.64L349.44,78.43L350.7,36.52L351.97,52.24L353.24,84.98L354.5,62.71L355.77,91.52L358.3,40.45L359.57,33.9L360.83,75.81L362.1,81.05L363.37,81.05L364.63,71.88L365.9,88.9L367.16,60.09L368.43,48.31L369.7,71.88L370.96,28.66L372.23,54.86L373.49,53.55L374.76,77.12L376.03,84.98L377.29,60.09L378.56,67.95L379.82,44.38L381.09,77.12L382.36,65.33L383.62,79.74L384.89,66.64L386.15,60.09L387.42,47L388.69,73.19L389.95,78.43L391.22,62.71L392.49,67.95L393.75,86.28L395.02,64.02L396.28,58.78L397.55,36.52L398.82,75.81L400.08,66.64L401.35,41.76L402.61,84.98L406.41,57.47L407.68,83.67L408.94,62.71L410.21,91.52L411.48,18.19L412.74,73.19L414.01,78.43L415.27,12.95L416.54,49.62L417.81,57.47L419.07,62.71L420.34,49.62L421.61,87.59L422.87,52.24L422.87,185.81L421.61,200.22L420.34,206.76L419.07,177.95L417.81,184.5L416.54,158.31L415.27,188.43L414.01,175.33L412.74,155.69L411.48,171.41L410.21,181.88L408.94,136.05L407.68,183.19L406.41,183.19L405.15,185.81L403.88,177.95L402.61,209.38L401.35,171.41L400.08,191.05L398.82,170.1L397.55,191.05L396.28,177.95L395.02,168.79L393.75,187.12L392.49,134.74L391.22,175.33L388.69,162.24L387.42,151.76L386.15,159.62L384.89,160.93L383.62,183.19L382.36,179.26L381.09,181.88L379.82,154.38L378.56,194.98L377.29,197.6L376.03,191.05L374.76,192.36L372.23,167.48L370.96,181.88L368.43,204.14L367.16,171.41L365.9,154.38L364.63,180.57L363.37,162.24L362.1,157L360.83,167.48L359.57,200.22L358.3,174.02L357.04,210.69L355.77,219.86L354.5,176.64L353.24,162.24L351.97,210.69L350.7,196.29L349.44,167.48L346.91,154.38L345.64,157L344.37,193.67L343.11,181.88L341.84,177.95L340.58,187.12L338.04,183.19L336.78,166.17L335.51,159.62L334.25,191.05L332.98,179.26L331.71,184.5L330.45,174.02L329.18,174.02L327.92,163.55L326.65,188.43L325.38,151.76L324.12,162.24L322.85,184.5L321.58,145.21L320.32,176.64L319.05,183.19L317.79,172.72L316.52,181.88L315.25,164.86L313.99,166.17L311.46,177.95L310.19,198.91L308.92,184.5L307.66,179.26L305.13,221.17L303.86,206.76L302.59,205.45L301.33,197.6L298.8,170.1L297.53,184.5L296.26,187.12L295,183.19L293.73,172.72L292.46,145.21L291.2,180.57L289.93,187.12L287.4,206.76L286.13,176.64L284.87,154.38L283.6,189.74L282.34,164.86L281.07,196.29L279.8,212L278.54,170.1L277.27,187.12L276.01,177.95L274.74,200.22L273.47,177.95L272.21,168.79L270.94,193.67L269.68,200.22L268.41,193.67L267.14,164.86L265.88,196.29L264.61,191.05L263.35,175.33L262.08,185.81L260.81,188.43L259.55,183.19L258.28,181.88L257.01,168.79L255.75,212L254.48,146.52L253.22,197.6L251.95,201.53L250.68,181.88L249.42,174.02L248.15,180.57L246.89,159.62L245.62,171.41L244.35,160.93L243.09,189.74L240.56,180.57L239.29,215.93L236.76,172.72L235.49,181.88L234.23,170.1L232.96,198.91L231.69,201.53L230.43,189.74L229.16,183.19L227.89,192.36L226.63,183.19L225.36,218.55L224.1,217.24L222.83,175.33L221.56,200.22L220.3,170.1L219.03,210.69L217.77,197.6L216.5,201.53L215.23,223.79L213.97,197.6L212.7,198.91L211.44,172.72L210.17,204.14L208.9,189.74L207.64,206.76L206.37,180.57L205.11,200.22L202.57,213.31L201.31,197.6L200.04,204.14L198.77,183.19L197.51,215.93L196.24,205.45L194.98,201.53L193.71,204.14L191.18,213.31L189.91,210.69L188.65,232.95L187.38,214.62L186.11,226.41L184.85,218.55L183.58,214.62L182.32,214.62L181.05,229.03L179.78,223.79L178.52,227.72L177.25,217.24L175.99,231.64L174.72,231.64L173.45,221.17L172.19,229.03L170.92,235.57L169.65,229.03L167.12,219.86L165.86,239.5L164.59,234.26L163.32,236.88L162.06,240.81L160.79,214.62L159.53,236.88L158.26,239.5L156.99,219.86L155.73,229.03L154.46,240.81L153.2,238.19L151.93,240.81L150.66,238.19L149.4,239.5L148.13,239.5L146.87,244.74L145.6,239.5L144.33,246.05L143.07,240.81L141.8,236.88L140.54,240.81L139.27,240.81L138,239.5L136.74,240.81L135.47,239.5L134.2,236.88L132.94,244.74L131.67,240.81L130.41,244.74L129.14,240.81L127.87,244.74L126.61,246.05L125.34,240.81L124.08,239.5L122.81,244.74L121.54,240.81L120.28,240.81L119.01,240.81L117.75,239.5L116.48,239.5L115.21,244.74L113.95,246.05L112.68,246.05L111.42,239.5L110.15,246.05L108.88,244.74L107.62,240.81L106.35,240.81L105.08,239.5L103.82,244.74L102.55,246.05L101.29,244.74L100.02,239.5L98.75,240.81L97.49,246.05L96.22,239.5L94.96,240.81L92.42,240.81L91.16,244.74L89.89,240.81L88.63,244.74L87.36,244.74L86.09,246.05L84.83,244.74L83.56,244.74L82.3,246.05L81.03,244.74L79.76,246.05L78.5,244.74L77.23,240.81L75.96,240.81L74.7,244.74L73.43,244.74L72.17,246.05L70.9,244.74L69.63,246.05L68.37,246.05L67.1,240.81L65.84,244.74L64.57,246.05L63.3,244.74L62.04,240.81L60.77,246.05L59.51,246.05L58.24,240.81L56.97,246.05L55.71,246.05L53.18,246.05L51.91,240.81L50.64,246.05L49.38,246.05L43.05,246.05L41.78,244.74L40.51,246.05L39.25,246.05L35.45,246.05L34.18,244.74L32.92,246.05L31.65,240.81L30.39,246.05L29.12,246.05L15.19,246.05L13.93,244.74L12.66,246.05L11.39,246.05L0,246.05Z" style="fill: rgb(239, 85, 59); fill-opacity: 0.3; stroke-width: 0;"/></g></g><g class="errorbars"/><g class="lines"><path class="js-line" d="M0,246.05L1.27,246.05L2.53,240.81L10.13,240.81L11.39,229.03L12.66,240.81L13.93,235.57L15.19,240.81L16.46,240.81L17.73,240.81L18.99,236.88L20.26,219.86L21.52,230.34L22.79,235.57L24.06,217.24L25.32,210.69L26.59,246.05L27.85,226.41L29.12,236.88L30.39,225.1L31.65,235.57L32.92,240.81L34.18,226.41L35.45,209.38L36.72,240.81L39.25,217.24L40.51,221.17L41.78,222.48L43.05,194.98L44.31,202.83L45.58,192.36L46.85,218.55L48.11,198.91L50.64,236.88L51.91,219.86L53.18,198.91L54.44,197.6L55.71,187.12L56.97,194.98L58.24,194.98L59.51,185.81L60.77,176.64L62.04,198.91L63.3,201.53L64.57,159.62L67.1,198.91L68.37,158.31L70.9,181.88L72.17,175.33L73.43,174.02L74.7,160.93L75.96,162.24L77.23,149.14L78.5,168.79L79.76,141.29L81.03,162.24L82.3,164.86L83.56,149.14L84.83,149.14L86.09,157L87.36,177.95L89.89,132.12L91.16,155.69L92.42,158.31L93.69,108.55L94.96,121.64L96.22,151.76L97.49,170.1L98.75,163.55L100.02,126.88L101.29,167.48L102.55,116.4L103.82,128.19L105.08,154.38L106.35,163.55L107.62,120.33L108.88,116.4L110.15,149.14L111.42,137.36L112.68,134.74L113.95,124.26L115.21,103.31L116.48,137.36L117.75,129.5L119.01,134.74L120.28,98.07L121.54,112.48L122.81,154.38L124.08,108.55L125.34,126.88L126.61,104.62L127.87,102L129.14,95.45L130.41,146.52L131.67,142.6L132.94,143.91L134.2,146.52L135.47,121.64L136.74,157L138,121.64L139.27,108.55L140.54,138.67L141.8,143.91L143.07,126.88L144.33,143.91L145.6,113.79L146.87,104.62L148.13,87.59L149.4,126.88L150.66,105.93L151.93,139.98L154.46,108.55L155.73,120.33L156.99,126.88L158.26,139.98L159.53,112.48L160.79,120.33L162.06,122.95L163.32,102L164.59,75.81L165.86,102L167.12,122.95L168.39,105.93L169.65,141.29L170.92,103.31L172.19,113.79L173.45,116.4L174.72,87.59L175.99,105.93L177.25,116.4L178.52,71.88L179.78,87.59L181.05,84.98L182.32,111.17L183.58,50.93L186.11,102L187.38,95.45L188.65,91.52L189.91,91.52L191.18,83.67L192.44,90.21L193.71,82.36L194.98,64.02L196.24,82.36L197.51,58.78L198.77,87.59L200.04,91.52L201.31,100.69L202.57,92.83L203.84,87.59L205.11,92.83L206.37,78.43L207.64,96.76L208.9,111.17L210.17,96.76L212.7,73.19L213.97,88.9L215.23,84.98L216.5,60.09L217.77,96.76L219.03,83.67L220.3,78.43L221.56,103.31L222.83,92.83L224.1,91.52L225.36,67.95L226.63,100.69L227.89,79.74L229.16,84.98L230.43,53.55L231.69,94.14L232.96,74.5L234.23,82.36L235.49,73.19L236.76,84.98L238.02,88.9L239.29,105.93L240.56,88.9L241.82,84.98L243.09,90.21L244.35,120.33L245.62,54.86L246.89,77.12L248.15,58.78L249.42,79.74L250.68,83.67L251.95,54.86L253.22,104.62L254.48,43.07L255.75,75.81L257.01,64.02L258.28,78.43L259.55,74.5L262.08,92.83L263.35,73.19L264.61,112.48L265.88,65.33L267.14,81.05L268.41,79.74L269.68,69.26L270.94,74.5L272.21,58.78L273.47,105.93L277.27,48.31L278.54,71.88L279.8,91.52L281.07,78.43L282.34,88.9L283.6,53.55L284.87,64.02L286.13,48.31L287.4,78.43L288.67,67.95L289.93,27.36L291.2,48.31L292.46,79.74L293.73,57.47L295,33.9L296.26,56.17L297.53,48.31L298.8,60.09L300.06,50.93L301.33,49.62L303.86,91.52L305.13,62.71L306.39,78.43L307.66,56.17L308.92,52.24L310.19,75.81L311.46,48.31L312.72,61.4L313.99,48.31L315.25,69.26L316.52,52.24L317.79,58.78L319.05,60.09L320.32,60.09L321.58,45.69L322.85,73.19L324.12,65.33L325.38,62.71L326.65,74.5L327.92,78.43L329.18,58.78L330.45,69.26L331.71,67.95L332.98,88.9L334.25,84.98L335.51,58.78L336.78,84.98L338.04,62.71L339.31,33.9L340.58,69.26L341.84,58.78L343.11,23.43L344.37,65.33L345.64,61.4L346.91,99.38L348.17,66.64L349.44,78.43L350.7,36.52L351.97,52.24L353.24,84.98L354.5,62.71L355.77,91.52L358.3,40.45L359.57,33.9L360.83,75.81L362.1,81.05L363.37,81.05L364.63,71.88L365.9,88.9L367.16,60.09L368.43,48.31L369.7,71.88L370.96,28.66L372.23,54.86L373.49,53.55L374.76,77.12L376.03,84.98L377.29,60.09L378.56,67.95L379.82,44.38L381.09,77.12L382.36,65.33L383.62,79.74L384.89,66.64L386.15,60.09L387.42,47L388.69,73.19L389.95,78.43L391.22,62.71L392.49,67.95L393.75,86.28L395.02,64.02L396.28,58.78L397.55,36.52L398.82,75.81L400.08,66.64L401.35,41.76L402.61,84.98L406.41,57.47L407.68,83.67L408.94,62.71L410.21,91.52L411.48,18.19L412.74,73.19L414.01,78.43L415.27,12.95L416.54,49.62L417.81,57.47L419.07,62.71L420.34,49.62L421.61,87.59L422.87,52.24L422.87,185.81L421.61,200.22L420.34,206.76L419.07,177.95L417.81,184.5L416.54,158.31L415.27,188.43L414.01,175.33L412.74,155.69L411.48,171.41L410.21,181.88L408.94,136.05L407.68,183.19L406.41,183.19L405.15,185.81L403.88,177.95L402.61,209.38L401.35,171.41L400.08,191.05L398.82,170.1L397.55,191.05L396.28,177.95L395.02,168.79L393.75,187.12L392.49,134.74L391.22,175.33L388.69,162.24L387.42,151.76L386.15,159.62L384.89,160.93L383.62,183.19L382.36,179.26L381.09,181.88L379.82,154.38L378.56,194.98L377.29,197.6L376.03,191.05L374.76,192.36L372.23,167.48L370.96,181.88L368.43,204.14L367.16,171.41L365.9,154.38L364.63,180.57L363.37,162.24L362.1,157L360.83,167.48L359.57,200.22L358.3,174.02L357.04,210.69L355.77,219.86L354.5,176.64L353.24,162.24L351.97,210.69L350.7,196.29L349.44,167.48L346.91,154.38L345.64,157L344.37,193.67L343.11,181.88L341.84,177.95L340.58,187.12L338.04,183.19L336.78,166.17L335.51,159.62L334.25,191.05L332.98,179.26L331.71,184.5L330.45,174.02L329.18,174.02L327.92,163.55L326.65,188.43L325.38,151.76L324.12,162.24L322.85,184.5L321.58,145.21L320.32,176.64L319.05,183.19L317.79,172.72L316.52,181.88L315.25,164.86L313.99,166.17L311.46,177.95L310.19,198.91L308.92,184.5L307.66,179.26L305.13,221.17L303.86,206.76L302.59,205.45L301.33,197.6L298.8,170.1L297.53,184.5L296.26,187.12L295,183.19L293.73,172.72L292.46,145.21L291.2,180.57L289.93,187.12L287.4,206.76L286.13,176.64L284.87,154.38L283.6,189.74L282.34,164.86L281.07,196.29L279.8,212L278.54,170.1L277.27,187.12L276.01,177.95L274.74,200.22L273.47,177.95L272.21,168.79L270.94,193.67L269.68,200.22L268.41,193.67L267.14,164.86L265.88,196.29L264.61,191.05L263.35,175.33L262.08,185.81L260.81,188.43L259.55,183.19L258.28,181.88L257.01,168.79L255.75,212L254.48,146.52L253.22,197.6L251.95,201.53L250.68,181.88L249.42,174.02L248.15,180.57L246.89,159.62L245.62,171.41L244.35,160.93L243.09,189.74L240.56,180.57L239.29,215.93L236.76,172.72L235.49,181.88L234.23,170.1L232.96,198.91L231.69,201.53L230.43,189.74L229.16,183.19L227.89,192.36L226.63,183.19L225.36,218.55L224.1,217.24L222.83,175.33L221.56,200.22L220.3,170.1L219.03,210.69L217.77,197.6L216.5,201.53L215.23,223.79L213.97,197.6L212.7,198.91L211.44,172.72L210.17,204.14L208.9,189.74L207.64,206.76L206.37,180.57L205.11,200.22L202.57,213.31L201.31,197.6L200.04,204.14L198.77,183.19L197.51,215.93L196.24,205.45L194.98,201.53L193.71,204.14L191.18,213.31L189.91,210.69L188.65,232.95L187.38,214.62L186.11,226.41L184.85,218.55L183.58,214.62L182.32,214.62L181.05,229.03L179.78,223.79L178.52,227.72L177.25,217.24L175.99,231.64L174.72,231.64L173.45,221.17L172.19,229.03L170.92,235.57L169.65,229.03L167.12,219.86L165.86,239.5L164.59,234.26L163.32,236.88L162.06,240.81L160.79,214.62L159.53,236.88L158.26,239.5L156.99,219.86L155.73,229.03L154.46,240.81L153.2,238.19L151.93,240.81L150.66,238.19L149.4,239.5L148.13,239.5L146.87,244.74L145.6,239.5L144.33,246.05L143.07,240.81L141.8,236.88L140.54,240.81L139.27,240.81L138,239.5L136.74,240.81L135.47,239.5L134.2,236.88L132.94,244.74L131.67,240.81L130.41,244.74L129.14,240.81L127.87,244.74L126.61,246.05L125.34,240.81L124.08,239.5L122.81,244.74L121.54,240.81L120.28,240.81L119.01,240.81L117.75,239.5L116.48,239.5L115.21,244.74L113.95,246.05L112.68,246.05L111.42,239.5L110.15,246.05L108.88,244.74L107.62,240.81L106.35,240.81L105.08,239.5L103.82,244.74L102.55,246.05L101.29,244.74L100.02,239.5L98.75,240.81L97.49,246.05L96.22,239.5L94.96,240.81L92.42,240.81L91.16,244.74L89.89,240.81L88.63,244.74L87.36,244.74L86.09,246.05L84.83,244.74L83.56,244.74L82.3,246.05L81.03,244.74L79.76,246.05L78.5,244.74L77.23,240.81L75.96,240.81L74.7,244.74L73.43,244.74L72.17,246.05L70.9,244.74L69.63,246.05L68.37,246.05L67.1,240.81L65.84,244.74L64.57,246.05L63.3,244.74L62.04,240.81L60.77,246.05L59.51,246.05L58.24,240.81L56.97,246.05L55.71,246.05L53.18,246.05L51.91,240.81L50.64,246.05L49.38,246.05L43.05,246.05L41.78,244.74L40.51,246.05L39.25,246.05L35.45,246.05L34.18,244.74L32.92,246.05L31.65,240.81L30.39,246.05L29.12,246.05L15.19,246.05L13.93,244.74L12.66,246.05L11.39,246.05L0,246.05" style="vector-effect: non-scaling-stroke; fill: none; stroke: rgb(0, 0, 0); stroke-opacity: 0; stroke-width: 2px; opacity: 1;"/></g><g class="points"/><g class="text"/></g><g class="trace scatter trace07fcef" style="stroke-miterlimit: 2; opacity: 1;"><g class="fills"/><g class="errorbars"/><g class="lines"><path class="js-line" d="M0,244.22L17.73,243.69L18.99,243.3L21.52,243.82L22.79,243.43L26.59,243.56L27.85,243.69L49.38,243.04L50.64,242.91L53.18,242.38L54.44,242.38L55.71,243.04L56.97,242.78L58.24,241.99L59.51,242.25L62.04,241.73L63.3,241.73L65.84,238.32L67.1,240.03L69.63,236.49L70.9,236.23L74.7,223.92L75.96,217.5L77.23,218.29L78.5,214.1L79.76,203.62L81.03,211.87L82.3,202.83L83.56,215.93L84.83,199.04L86.09,203.88L87.36,191.7L88.63,195.37L91.16,201.39L92.42,193.93L93.69,193.8L94.96,190.13L98.75,173.63L100.02,179.52L101.29,175.33L102.55,177.56L103.82,172.06L105.08,162.37L106.35,164.86L107.62,156.08L108.88,152.68L110.15,158.83L111.42,155.3L112.68,145.48L113.95,150.19L115.21,142.6L116.48,147.96L117.75,147.31L119.01,143.91L120.28,135.65L121.54,142.33L122.81,137.62L124.08,135L125.34,135.52L126.61,146L127.87,129.5L129.14,134.48L130.41,131.73L131.67,128.85L132.94,121.77L134.2,123.35L135.47,132.64L136.74,133.3L138,129.11L139.27,120.99L140.54,130.15L141.8,125.96L143.07,125.7L144.33,122.17L145.6,131.6L146.87,115.75L148.13,117.84L149.4,108.29L150.66,108.81L151.93,114.96L153.2,113.92L154.46,111.95L155.73,112.74L156.99,114.44L158.26,110.51L159.53,111.82L160.79,108.94L162.06,99.77L163.32,106.84L164.59,102.52L165.86,112.74L167.12,110.38L168.39,119.29L173.45,107.24L174.72,114.18L175.99,119.55L177.25,108.94L178.52,116.4L179.78,106.98L181.05,114.7L182.32,116.67L183.58,109.46L184.85,117.58L187.38,108.81L188.65,98.99L189.91,108.29L191.18,102.65L193.71,106.98L194.98,104.88L196.24,110.51L197.51,107.5L198.77,108.02L200.04,103.05L201.31,102.13L202.57,106.06L203.84,99.9L205.11,100.17L206.37,108.29L207.64,100.43L208.9,104.62L210.17,102.65L211.44,105.14L212.7,103.05L213.97,103.05L215.23,103.96L216.5,102.79L217.77,106.19L219.03,100.3L220.3,101.74L221.56,92.96L222.83,91L224.1,98.07L225.36,99.12L226.63,96.63L227.89,99.25L229.16,101.87L230.43,91.26L231.69,95.45L232.96,93.36L234.23,100.82L235.49,99.12L236.76,105.54L238.02,98.86L239.29,95.84L240.56,87.99L243.09,89.43L244.35,97.29L245.62,95.19L246.89,96.24L248.15,95.58L249.42,99.77L250.68,100.56L251.95,94.14L253.22,89.95L254.48,88.77L255.75,93.09L257.01,86.15L258.28,89.56L259.55,89.3L260.81,92.44L262.08,98.86L264.61,92.44L265.88,94.4L267.14,91.13L268.41,90.61L269.68,91.13L270.94,90.74L272.21,84.45L273.47,93.09L274.74,88.38L276.01,93.88L277.27,89.82L278.54,92.96L279.8,84.98L281.07,95.84L282.34,86.15L283.6,89.17L286.13,87.59L287.4,84.98L288.67,93.36L289.93,94.14L291.2,98.33L292.46,86.42L293.73,87.59L295,90.87L296.26,91.92L297.53,90.08L298.8,83.53L300.06,87.99L301.33,81.31L302.59,82.62L303.86,78.95L305.13,82.88L306.39,79.08L307.66,84.45L311.46,78.69L312.72,80.26L313.99,80.39L315.25,88.9L316.52,77.38L317.79,82.36L319.05,89.56L320.32,78.56L321.58,81.96L322.85,77.12L325.38,75.68L326.65,88.51L327.92,84.71L329.18,85.37L331.71,84.84L332.98,86.68L334.25,87.07L335.51,85.63L338.04,84.06L339.31,89.69L340.58,84.06L341.84,89.03L343.11,75.68L344.37,82.49L345.64,78.56L346.91,78.82L348.17,87.46L349.44,76.86L350.7,81.96L351.97,83.14L353.24,82.88L354.5,80.78L357.04,82.49L358.3,81.57L359.57,83.4L360.83,88.38L362.1,80.26L363.37,81.31L364.63,81.57L365.9,79.61L368.43,85.37L369.7,75.94L370.96,84.32L372.23,83.14L373.49,85.37L374.76,94.27L377.29,74.76L378.56,80.13L379.82,82.75L381.09,76.2L382.36,80.39L383.62,75.68L384.89,83.14L386.15,84.06L387.42,72.67L388.69,87.07L389.95,79.08L391.22,84.58L392.49,76.59L393.75,80L395.02,80.92L396.28,75.02L397.55,71.22L398.82,73.19L401.35,75.42L402.61,78.3L403.88,71.36L405.15,75.15L407.68,72.14L408.94,75.68L410.21,70.05L411.48,78.69L414.01,75.28L415.27,74.63L416.54,73.19L417.81,76.73L419.07,70.7L420.34,75.55L421.61,81.7L422.87,72.27L426.67,71.75L427.94,76.86L429.2,78.56L430.47,77.12L431.73,76.59L433,72.8" style="vector-effect: non-scaling-stroke; fill: none; stroke: rgb(99, 110, 250); stroke-opacity: 1; stroke-width: 2px; opacity: 1;"/></g><g class="points"/><g class="text"/></g><g class="trace scatter trace935102" style="stroke-miterlimit: 2; opacity: 1;"><g class="fills"/><g class="errorbars"/><g class="lines"><path class="js-line" d="M0,246.05L3.8,246.05L5.06,243.43L6.33,246.05L7.6,240.81L10.13,240.81L11.39,246.05L12.66,246.05L13.93,240.81L15.19,243.43L16.46,243.43L17.73,246.05L18.99,243.43L20.26,240.81L21.52,240.81L22.79,246.05L24.06,240.81L25.32,240.81L26.59,246.05L27.85,243.43L29.12,243.43L30.39,246.05L31.65,240.81L32.92,246.05L34.18,240.81L36.72,246.05L37.98,243.43L39.25,243.43L40.51,238.19L43.05,238.19L44.31,240.81L48.11,240.81L49.38,243.43L50.64,246.05L51.91,240.81L53.18,243.43L54.44,238.19L55.71,235.57L56.97,238.19L58.24,235.57L59.51,238.19L60.77,240.81L62.04,235.57L63.3,240.81L64.57,235.57L65.84,238.19L67.1,238.19L68.37,230.34L69.63,240.81L70.9,230.34L72.17,235.57L74.7,240.81L75.96,240.81L77.23,230.34L78.5,230.34L79.76,238.19L81.03,232.95L82.3,240.81L83.56,230.34L84.83,217.24L86.09,225.1L87.36,222.48L88.63,240.81L89.89,222.48L91.16,225.1L92.42,238.19L93.69,201.53L94.96,222.48L96.22,217.24L97.49,230.34L98.75,212L101.29,219.86L102.55,219.86L103.82,217.24L105.08,198.91L106.35,217.24L107.62,188.43L108.88,196.29L110.15,217.24L111.42,191.05L112.68,219.86L113.95,193.67L115.21,212L116.48,183.19L117.75,206.76L119.01,198.91L120.28,227.72L121.54,225.1L122.81,235.57L124.08,193.67L125.34,191.05L126.61,180.57L127.87,201.53L129.14,188.43L130.41,185.81L132.94,204.14L134.2,191.05L135.47,183.19L136.74,209.38L138,217.24L139.27,214.62L140.54,191.05L141.8,196.29L143.07,219.86L144.33,204.14L145.6,180.57L146.87,198.91L148.13,175.33L149.4,204.14L150.66,188.43L151.93,201.53L154.46,191.05L155.73,172.72L156.99,172.72L158.26,183.19L159.53,164.86L160.79,162.24L162.06,177.95L163.32,151.76L164.59,159.62L165.86,141.29L167.12,175.33L168.39,162.24L170.92,180.57L172.19,136.05L173.45,146.52L174.72,167.48L175.99,154.38L177.25,196.29L178.52,133.43L179.78,149.14L181.05,141.29L182.32,167.48L184.85,130.81L186.11,136.05L187.38,128.19L188.65,159.62L191.18,141.29L192.44,157L194.98,133.43L196.24,128.19L197.51,133.43L198.77,154.38L200.04,159.62L201.31,128.19L202.57,112.48L203.84,151.76L205.11,146.52L206.37,133.43L207.64,130.81L208.9,141.29L210.17,159.62L211.44,133.43L212.7,107.24L213.97,138.67L215.23,151.76L216.5,154.38L217.77,154.38L219.03,146.52L220.3,120.33L221.56,159.62L222.83,141.29L224.1,136.05L225.36,130.81L226.63,146.52L227.89,104.62L229.16,146.52L230.43,115.09L231.69,115.09L232.96,136.05L234.23,112.48L235.49,102L236.76,146.52L238.02,122.95L239.29,141.29L240.56,120.33L241.82,136.05L243.09,120.33L244.35,136.05L245.62,120.33L246.89,117.71L248.15,130.81L249.42,136.05L251.95,157L253.22,146.52L254.48,122.95L255.75,125.57L257.01,128.19L258.28,117.71L259.55,128.19L260.81,128.19L262.08,133.43L263.35,117.71L264.61,146.52L265.88,143.91L267.14,133.43L268.41,96.76L269.68,143.91L270.94,141.29L272.21,107.24L273.47,117.71L276.01,141.29L277.27,120.33L278.54,102L279.8,149.14L281.07,125.57L282.34,122.95L283.6,120.33L284.87,109.86L286.13,149.14L287.4,117.71L288.67,115.09L289.93,104.62L291.2,104.62L292.46,115.09L293.73,120.33L295,99.38L296.26,128.19L297.53,109.86L301.33,151.76L302.59,117.71L303.86,104.62L305.13,125.57L306.39,128.19L307.66,104.62L308.92,125.57L310.19,112.48L311.46,104.62L312.72,143.91L315.25,104.62L316.52,112.48L319.05,136.05L320.32,107.24L322.85,151.76L324.12,130.81L326.65,104.62L327.92,115.09L329.18,120.33L330.45,149.14L331.71,149.14L332.98,117.71L335.51,122.95L336.78,154.38L338.04,141.29L339.31,115.09L340.58,117.71L341.84,99.38L343.11,96.76L344.37,115.09L345.64,130.81L346.91,120.33L348.17,120.33L349.44,107.24L350.7,104.62L351.97,136.05L353.24,128.19L354.5,133.43L355.77,128.19L357.04,133.43L359.57,94.14L360.83,149.14L362.1,115.09L363.37,122.95L364.63,117.71L365.9,122.95L367.16,141.29L368.43,128.19L369.7,96.76L370.96,99.38L374.76,159.62L376.03,115.09L377.29,130.81L378.56,109.86L379.82,94.14L381.09,157L382.36,125.57L383.62,133.43L384.89,136.05L386.15,122.95L387.42,122.95L388.69,125.57L389.95,130.81L391.22,117.71L393.75,128.19L395.02,112.48L396.28,143.91L397.55,151.76L398.82,115.09L400.08,130.81L401.35,130.81L402.61,141.29L405.15,115.09L406.41,125.57L407.68,109.86L408.94,122.95L410.21,154.38L411.48,122.95L412.74,125.57L414.01,104.62L415.27,91.52L416.54,120.33L417.81,120.33L419.07,99.38L420.34,143.91L421.61,146.52L422.87,120.33" style="vector-effect: non-scaling-stroke; fill: none; stroke: rgb(239, 85, 59); stroke-opacity: 1; stroke-width: 2px; opacity: 1;"/></g><g class="points"/><g class="text"/></g></g></g><g class="overplot"/><path class="xlines-above crisp" d="M0,0" style="fill: none;"/><path class="ylines-above crisp" d="M0,0" style="fill: none;"/><g class="overlines-above"/><g class="xaxislayer-above"><g class="xtick"><text text-anchor="middle" x="0" y="272" transform="translate(160.86,0)" style="font-family: 'Latin Modern Roman'; font-size: 12px; fill: rgb(0, 0, 0); fill-opacity: 1; white-space: pre;">10M</text></g><g class="xtick"><text text-anchor="middle" x="0" y="272" transform="translate(284.99,0)" style="font-family: 'Latin Modern Roman'; font-size: 12px; fill: rgb(0, 0, 0); fill-opacity: 1; white-space: pre;">20M</text></g><g class="xtick"><text text-anchor="middle" x="0" y="272" transform="translate(409.11,0)" style="font-family: 'Latin Modern Roman'; font-size: 12px; fill: rgb(0, 0, 0); fill-opacity: 1; white-space: pre;">30M</text></g></g><g class="yaxislayer-above"><g class="ytick"><text text-anchor="end" x="37" y="4.199999999999999" transform="translate(0,246.05)" style="font-family: 'Latin Modern Roman'; font-size: 12px; fill: rgb(0, 0, 0); fill-opacity: 1; white-space: pre;">0</text></g><g class="ytick"><text text-anchor="end" x="37" y="4.199999999999999" transform="translate(0,193.67)" style="font-family: 'Latin Modern Roman'; font-size: 12px; fill: rgb(0, 0, 0); fill-opacity: 1; white-space: pre;">10</text></g><g class="ytick"><text text-anchor="end" x="37" y="4.199999999999999" transform="translate(0,141.29)" style="font-family: 'Latin Modern Roman'; font-size: 12px; fill: rgb(0, 0, 0); fill-opacity: 1; white-space: pre;">20</text></g><g class="ytick"><text text-anchor="end" x="37" y="4.199999999999999" transform="translate(0,88.9)" style="font-family: 'Latin Modern Roman'; font-size: 12px; fill: rgb(0, 0, 0); fill-opacity: 1; white-space: pre;">30</text></g><g class="ytick"><text text-anchor="end" x="37" y="4.199999999999999" transform="translate(0,36.52)" style="font-family: 'Latin Modern Roman'; font-size: 12px; fill: rgb(0, 0, 0); fill-opacity: 1; white-space: pre;">40</text></g></g><g class="overaxes-above"/></g></g><g class="polarlayer"/><g class="ternarylayer"/><g class="geolayer"/><g class="funnelarealayer"/><g class="pielayer"/><g class="treemaplayer"/><g class="sunburstlayer"/><g class="glimages"/><defs id="topdefs-c2badb"><g class="clips"/><clipPath id="legendc2badb"><rect width="120" height="48" x="0" y="0"/></clipPath></defs><g class="layer-above"><g class="imagelayer"/><g class="shapelayer"/></g><g class="infolayer"><g class="legend" pointer-events="all" transform="translate(479.66,0)"><rect class="bg" shape-rendering="crispEdges" width="120" height="48" x="0" y="0" style="stroke: rgb(68, 68, 68); stroke-opacity: 1; fill: rgb(255, 255, 255); fill-opacity: 1; stroke-width: 0px;"/><g class="scrollbox" transform="" clip-path="url('#legendc2badb')"><g class="groups"><g class="traces" transform="translate(0,14.5)" style="opacity: 1;"><text class="legendtext" text-anchor="start" x="40" y="4.680000000000001" style="font-family: 'Latin Modern Roman'; font-size: 12px; fill: rgb(0, 0, 0); fill-opacity: 1; white-space: pre;">μ only (n=40)</text><g class="layers" style="opacity: 1;"><g class="legendfill"/><g class="legendlines"><path class="js-line" d="M5,0h30" style="fill: none; stroke: rgb(99, 110, 250); stroke-opacity: 1; stroke-width: 2px;"/></g><g class="legendsymbols"><g class="legendpoints"/></g></g><rect class="legendtoggle" x="0" y="-9.5" width="114.125" height="19" style="fill: rgb(0, 0, 0); fill-opacity: 0;"/></g><g class="traces" transform="translate(0,33.5)" style="opacity: 1;"><text class="legendtext" text-anchor="start" x="40" y="4.680000000000001" style="font-family: 'Latin Modern Roman'; font-size: 12px; fill: rgb(0, 0, 0); fill-opacity: 1; white-space: pre;">μ+σ² (n=14)</text><g class="layers" style="opacity: 1;"><g class="legendfill"/><g class="legendlines"><path class="js-line" d="M5,0h30" style="fill: none; stroke: rgb(239, 85, 59); stroke-opacity: 1; stroke-width: 2px;"/></g><g class="legendsymbols"><g class="legendpoints"/></g></g><rect class="legendtoggle" x="0" y="-9.5" width="114.125" height="19" style="fill: rgb(0, 0, 0); fill-opacity: 0;"/></g></g></g><rect class="scrollbar" rx="20" ry="3" width="0" height="0" x="0" y="0" style="fill: rgb(128, 139, 164); fill-opacity: 1;"/></g><g class="g-gtitle"/><g class="g-xtitle" transform="translate(0,-3.8000000000000114)"><text class="xtitle" x="254.5" y="299.8" text-anchor="middle" style="font-family: 'Latin Modern Roman'; font-size: 14px; fill: rgb(0, 0, 0); opacity: 1; font-weight: normal; white-space: pre;">Agent Steps</text></g><g class="g-ytitle" transform="translate(15.8154296875,0)"><text class="ytitle" transform="rotate(-90,0.18437500000000284,129.5)" x="0.18437500000000284" y="129.5" text-anchor="middle" style="font-family: 'Latin Modern Roman'; font-size: 14px; fill: rgb(0, 0, 0); opacity: 1; font-weight: normal; white-space: pre;">Avg. Reward</text></g></g></svg>