<svg class="main-svg" xmlns="http://www.w3.org/2000/svg" xmlns:xlink="http://www.w3.org/1999/xlink" width="600" height="300" style="" viewBox="0 0 600 300"><rect x="0" y="0" width="600" height="300" style="fill: rgb(255, 255, 255); fill-opacity: 1;"/><defs id="defs-0ffba7"><g class="clips"><clipPath id="clip0ffba7xyplot" class="plotclip"><rect width="390" height="259"/></clipPath><clipPath class="axesclip" id="clip0ffba7x"><rect x="41" y="0" width="390" height="300"/></clipPath><clipPath class="axesclip" id="clip0ffba7y"><rect x="0" y="0" width="600" height="259"/></clipPath><clipPath class="axesclip" id="clip0ffba7xy"><rect x="41" y="0" width="390" height="259"/></clipPath></g><g class="gradients"/></defs><g class="bglayer"><rect class="bg" x="41" y="0" width="390" height="259" style="fill: rgb(229, 236, 246); fill-opacity: 1; stroke-width: 0;"/></g><g class="layer-below"><g class="imagelayer"/><g class="shapelayer"/></g><g class="cartesianlayer"><g class="subplot xy"><g class="layer-subplot"><g class="shapelayer"/><g class="imagelayer"/></g><g class="gridlayer"><g class="x"><path class="xgrid crisp" transform="translate(168.97,0)" d="M0,0v259" style="stroke: rgb(255, 255, 255); stroke-opacity: 1; stroke-width: 1px;"/><path class="xgrid crisp" transform="translate(300.3,0)" d="M0,0v259" style="stroke: rgb(255, 255, 255); stroke-opacity: 1; stroke-width: 1px;"/></g><g class="y"><path class="ygrid crisp" transform="translate(0,149.15)" d="M41,0h390" style="stroke: rgb(255, 255, 255); stroke-opacity: 1; stroke-width: 1px;"/><path class="ygrid crisp" transform="translate(0,83.14)" d="M41,0h390" style="stroke: rgb(255, 255, 255); stroke-opacity: 1; stroke-width: 1px;"/><path class="ygrid crisp" transform="translate(0,17.13)" d="M41,0h390" style="stroke: rgb(255, 255, 255); stroke-opacity: 1; stroke-width: 1px;"/></g></g><g class="zerolinelayer"><path class="yzl zl crisp" transform="translate(0,215.16)" d="M41,0h390" style="stroke: rgb(255, 255, 255); stroke-opacity: 1; stroke-width: 2px;"/></g><path class="xlines-below"/><path class="ylines-below"/><g class="overlines-below"/><g class="xaxislayer-below"/><g class="yaxislayer-below"/><g class="overaxes-below"/><g class="plot" transform="translate(41,0)" clip-path="url('#clip0ffba7xyplot')"><g class="scatterlayer mlayer"><g class="trace scatter tracef98520" style="stroke-miterlimit: 2; opacity: 1;"><g class="fills"><g><path class="js-fill" d="M0,228.8L3.36,226.78L6.72,228.24L10.09,227.34L13.45,224L16.81,227.9L20.17,226.29L23.53,226.01L26.9,228.32L30.26,226.46L33.62,221.87L36.98,224.16L40.34,219.96L43.71,217.94L47.07,218.28L50.43,219.87L53.79,213.45L57.16,210.98L60.52,216.21L63.88,215.33L67.24,207.97L70.6,208.92L73.97,203.31L80.69,195.73L84.05,193.72L87.41,190.27L90.78,179.87L94.14,175.4L97.5,168.74L100.86,162.4L104.22,158.42L107.59,138.21L110.95,135.06L114.31,138.16L117.67,119.42L121.03,121.96L124.4,90.61L127.76,91.16L131.12,98.5L134.48,88.28L137.84,73.32L141.21,67.96L144.57,85.36L147.93,40.93L151.29,50.86L154.66,56.42L158.02,37.45L161.38,50.77L164.74,49.92L171.47,42.8L174.83,39.56L178.19,36.46L181.55,37.07L184.91,38.53L188.28,34.35L191.64,35.42L195,43.2L198.36,32.79L201.72,35.5L205.09,28.07L208.45,37.05L211.81,35.67L215.17,32.52L218.53,37.47L221.9,32.66L225.26,37.55L228.62,29.94L231.98,35.93L235.34,35.42L238.71,28.45L242.07,38.77L245.43,37.7L248.79,34.63L252.16,33.36L255.52,27.84L258.88,31.57L262.24,28.1L265.6,32.41L268.97,32.72L272.33,27.06L275.69,30.01L282.41,30.79L285.78,25.38L289.14,34.76L292.5,32.37L299.22,36.52L302.59,26.34L305.95,37.77L309.31,29.15L312.67,27.5L316.03,37.79L319.4,24.4L322.76,34.34L326.12,33.81L329.48,20.69L332.84,19.75L336.21,28.89L342.93,26.86L346.29,29.64L349.66,26.71L353.02,29.43L356.38,23.27L359.74,26.39L363.1,36.63L366.47,30.29L369.83,31.37L373.19,31.58L376.55,29.25L379.91,22.26L383.28,21.98L386.64,26.05L390,25.77L390,60.84L386.64,44.44L383.28,53.94L379.91,61.39L376.55,51.3L373.19,47.23L369.83,55.87L366.47,66.83L363.1,55.19L359.74,48.56L356.38,57.67L353.02,59.84L349.66,58.37L346.29,74.19L342.93,60.65L339.57,53.67L336.21,57.15L332.84,65.28L329.48,60.31L326.12,57.29L322.76,48.6L316.03,76.01L312.67,64.93L309.31,56.9L305.95,74.84L302.59,62.05L299.22,67.93L295.86,61.05L292.5,66.1L289.14,63.9L285.78,56.53L282.41,69.35L279.05,73.25L275.69,53.63L272.33,65.14L268.97,58.32L265.6,70.59L262.24,69.49L258.88,78.1L255.52,83.78L252.16,78.96L248.79,71.17L245.43,77.49L242.07,80.73L238.71,74.96L231.98,91.56L228.62,82.61L225.26,69.66L221.9,82.8L218.53,81.18L215.17,91.68L211.81,88.29L208.45,86.42L205.09,85.89L201.72,83L198.36,97.56L195,90.36L191.64,112.54L188.28,113.88L184.91,93.16L181.55,94.4L178.19,112.97L174.83,101.28L171.47,99.92L168.1,139.58L164.74,124.04L161.38,127.3L158.02,137.28L154.66,124.5L151.29,154.8L147.93,133.59L144.57,160.65L141.21,150.26L137.84,158.53L134.48,172.86L131.12,166.74L127.76,171.08L124.4,180.46L121.03,181.4L117.67,192.24L114.31,182.63L110.95,198.01L107.59,193.59L104.22,199.96L100.86,199.83L97.5,207.23L94.14,212.77L90.78,207.37L87.41,215.6L84.05,215.13L80.69,215.95L77.33,217.74L73.97,217.13L70.6,220.98L67.24,221.86L63.88,227.26L60.52,234.57L57.16,230.5L53.79,224.25L50.43,233.87L47.07,238.76L43.71,240.66L40.34,233.99L36.98,239.48L33.62,234.88L30.26,239.09L26.9,241.59L23.53,239.81L20.17,245.37L16.81,243.48L13.45,232.05L10.09,234.11L6.72,240.93L3.36,236.79L0,236.37Z" style="fill: rgb(99, 110, 250); fill-opacity: 0.3; stroke-width: 0;"/></g></g><g class="errorbars"/><g class="lines"><path class="js-line" d="M0,228.8L3.36,226.78L6.72,228.24L10.09,227.34L13.45,224L16.81,227.9L20.17,226.29L23.53,226.01L26.9,228.32L30.26,226.46L33.62,221.87L36.98,224.16L40.34,219.96L43.71,217.94L47.07,218.28L50.43,219.87L53.79,213.45L57.16,210.98L60.52,216.21L63.88,215.33L67.24,207.97L70.6,208.92L73.97,203.31L80.69,195.73L84.05,193.72L87.41,190.27L90.78,179.87L94.14,175.4L97.5,168.74L100.86,162.4L104.22,158.42L107.59,138.21L110.95,135.06L114.31,138.16L117.67,119.42L121.03,121.96L124.4,90.61L127.76,91.16L131.12,98.5L134.48,88.28L137.84,73.32L141.21,67.96L144.57,85.36L147.93,40.93L151.29,50.86L154.66,56.42L158.02,37.45L161.38,50.77L164.74,49.92L171.47,42.8L174.83,39.56L178.19,36.46L181.55,37.07L184.91,38.53L188.28,34.35L191.64,35.42L195,43.2L198.36,32.79L201.72,35.5L205.09,28.07L208.45,37.05L211.81,35.67L215.17,32.52L218.53,37.47L221.9,32.66L225.26,37.55L228.62,29.94L231.98,35.93L235.34,35.42L238.71,28.45L242.07,38.77L245.43,37.7L248.79,34.63L252.16,33.36L255.52,27.84L258.88,31.57L262.24,28.1L265.6,32.41L268.97,32.72L272.33,27.06L275.69,30.01L282.41,30.79L285.78,25.38L289.14,34.76L292.5,32.37L299.22,36.52L302.59,26.34L305.95,37.77L309.31,29.15L312.67,27.5L316.03,37.79L319.4,24.4L322.76,34.34L326.12,33.81L329.48,20.69L332.84,19.75L336.21,28.89L342.93,26.86L346.29,29.64L349.66,26.71L353.02,29.43L356.38,23.27L359.74,26.39L363.1,36.63L366.47,30.29L369.83,31.37L373.19,31.58L376.55,29.25L379.91,22.26L383.28,21.98L386.64,26.05L390,25.77L390,60.84L386.64,44.44L383.28,53.94L379.91,61.39L376.55,51.3L373.19,47.23L369.83,55.87L366.47,66.83L363.1,55.19L359.74,48.56L356.38,57.67L353.02,59.84L349.66,58.37L346.29,74.19L342.93,60.65L339.57,53.67L336.21,57.15L332.84,65.28L329.48,60.31L326.12,57.29L322.76,48.6L316.03,76.01L312.67,64.93L309.31,56.9L305.95,74.84L302.59,62.05L299.22,67.93L295.86,61.05L292.5,66.1L289.14,63.9L285.78,56.53L282.41,69.35L279.05,73.25L275.69,53.63L272.33,65.14L268.97,58.32L265.6,70.59L262.24,69.49L258.88,78.1L255.52,83.78L252.16,78.96L248.79,71.17L245.43,77.49L242.07,80.73L238.71,74.96L231.98,91.56L228.62,82.61L225.26,69.66L221.9,82.8L218.53,81.18L215.17,91.68L211.81,88.29L208.45,86.42L205.09,85.89L201.72,83L198.36,97.56L195,90.36L191.64,112.54L188.28,113.88L184.91,93.16L181.55,94.4L178.19,112.97L174.83,101.28L171.47,99.92L168.1,139.58L164.74,124.04L161.38,127.3L158.02,137.28L154.66,124.5L151.29,154.8L147.93,133.59L144.57,160.65L141.21,150.26L137.84,158.53L134.48,172.86L131.12,166.74L127.76,171.08L124.4,180.46L121.03,181.4L117.67,192.24L114.31,182.63L110.95,198.01L107.59,193.59L104.22,199.96L100.86,199.83L97.5,207.23L94.14,212.77L90.78,207.37L87.41,215.6L84.05,215.13L80.69,215.95L77.33,217.74L73.97,217.13L70.6,220.98L67.24,221.86L63.88,227.26L60.52,234.57L57.16,230.5L53.79,224.25L50.43,233.87L47.07,238.76L43.71,240.66L40.34,233.99L36.98,239.48L33.62,234.88L30.26,239.09L26.9,241.59L23.53,239.81L20.17,245.37L16.81,243.48L13.45,232.05L10.09,234.11L6.72,240.93L3.36,236.79L0,236.37" style="vector-effect: non-scaling-stroke; fill: none; stroke: rgb(0, 0, 0); stroke-opacity: 0; stroke-width: 2px; opacity: 1;"/></g><g class="points"/><g class="text"/></g><g class="trace scatter trace361b2a" style="stroke-miterlimit: 2; opacity: 1;"><g class="fills"><g><path class="js-fill" d="M0,229.65L3.36,227.4L6.72,226.64L10.09,224.26L13.45,228.78L16.81,224.4L20.17,226.18L26.9,224.6L30.26,219.41L33.62,220.89L36.98,219.51L40.34,217.1L43.71,217.82L47.07,212.25L50.43,215.48L53.79,212.85L57.16,203.29L60.52,205.43L63.88,203.23L67.24,195.16L70.6,183.35L73.97,183.93L77.33,165.82L80.69,161.74L84.05,159.75L87.41,151.84L90.78,140.77L94.14,139.69L97.5,121.74L100.86,113.79L104.22,122.89L107.59,105.84L110.95,93.62L114.31,78.24L117.67,83.05L121.03,87.76L124.4,60.03L127.76,47.54L131.12,56.78L134.48,63.02L137.84,35.73L141.21,56.72L144.57,48.12L147.93,34.09L151.29,45.24L154.66,31.02L158.02,33.43L161.38,52.09L164.74,42.63L168.1,32.2L171.47,40.8L174.83,50.43L178.19,36.82L181.55,34.06L184.91,44.14L188.28,36.01L191.64,38.5L195,28.51L198.36,40.18L201.72,37.79L205.09,43.77L208.45,40.17L211.81,31.89L215.17,47.87L218.53,36.78L221.9,29.4L225.26,40.12L228.62,34.23L231.98,40.04L235.34,29.66L238.71,32.7L242.07,37.22L245.43,35.28L248.79,32.83L252.16,29.39L255.52,36.78L258.88,33.79L262.24,36.47L265.6,37.4L268.97,41.94L272.33,21.18L275.69,27.27L279.05,22.54L282.41,31.46L285.78,20.88L289.14,27.21L292.5,19.58L295.86,37.02L299.22,41.94L302.59,28.18L305.95,40.93L309.31,31.77L312.67,26.69L316.03,23.95L319.4,34.87L322.76,24.09L326.12,29.98L329.48,31.59L332.84,29.65L336.21,17.57L339.57,38.58L342.93,25.58L346.29,38.74L349.66,21.02L353.02,19.45L356.38,25.8L359.74,21.26L363.1,30.88L366.47,28.43L369.83,27.18L373.19,23.75L379.91,21.6L383.28,18.88L386.64,27.09L390,29.92L390,59.51L386.64,59.4L383.28,55.95L379.91,54.05L376.55,56.77L373.19,49.88L369.83,63.24L366.47,49.25L363.1,62.63L359.74,41.42L356.38,66.05L353.02,63.41L349.66,43.1L346.29,72.4L342.93,49.86L339.57,57.07L336.21,63.47L332.84,53.1L329.48,57.54L326.12,55.46L322.76,54.33L319.4,66.07L316.03,65.26L312.67,49.71L305.95,66.78L302.59,58.18L299.22,64.32L295.86,63.48L292.5,62.95L289.14,65.16L285.78,61.28L282.41,66.5L279.05,53.1L275.69,63.35L268.97,66.42L265.6,77.9L262.24,50.98L258.88,65.27L255.52,71.06L252.16,65.24L248.79,67.96L245.43,55.04L242.07,60.76L238.71,54.39L235.34,61.45L231.98,79.23L228.62,62.66L225.26,59.66L221.9,70.17L218.53,76.28L211.81,90.31L208.45,97.84L205.09,67.91L201.72,71.09L198.36,71.96L195,99.19L188.28,97.84L184.91,94.65L181.55,90.22L178.19,113.75L174.83,87.37L171.47,125.96L168.1,127.97L164.74,152.16L161.38,150.92L158.02,150.75L154.66,151.34L151.29,169.69L147.93,150.35L144.57,177.72L141.21,161.84L137.84,162.23L134.48,172.92L131.12,186.78L127.76,190.44L124.4,178.03L121.03,196.71L117.67,189.37L114.31,205.11L110.95,190.34L107.59,196.17L104.22,203.57L100.86,208.83L97.5,209.3L94.14,200.82L90.78,213.8L87.41,211.95L84.05,213.73L77.33,212.86L73.97,215.62L70.6,209.94L67.24,216.17L63.88,213.55L60.52,216.61L57.16,217.39L53.79,224.82L50.43,222.5L47.07,226.22L43.71,227.46L40.34,238.44L36.98,233.85L33.62,230.78L30.26,241.9L26.9,237.23L23.53,246.05L20.17,241.59L13.45,242.23L10.09,238.49L3.36,236.35L0,238.73Z" style="fill: rgb(239, 85, 59); fill-opacity: 0.3; stroke-width: 0;"/></g></g><g class="errorbars"/><g class="lines"><path class="js-line" d="M0,229.65L3.36,227.4L6.72,226.64L10.09,224.26L13.45,228.78L16.81,224.4L20.17,226.18L26.9,224.6L30.26,219.41L33.62,220.89L36.98,219.51L40.34,217.1L43.71,217.82L47.07,212.25L50.43,215.48L53.79,212.85L57.16,203.29L60.52,205.43L63.88,203.23L67.24,195.16L70.6,183.35L73.97,183.93L77.33,165.82L80.69,161.74L84.05,159.75L87.41,151.84L90.78,140.77L94.14,139.69L97.5,121.74L100.86,113.79L104.22,122.89L107.59,105.84L110.95,93.62L114.31,78.24L117.67,83.05L121.03,87.76L124.4,60.03L127.76,47.54L131.12,56.78L134.48,63.02L137.84,35.73L141.21,56.72L144.57,48.12L147.93,34.09L151.29,45.24L154.66,31.02L158.02,33.43L161.38,52.09L164.74,42.63L168.1,32.2L171.47,40.8L174.83,50.43L178.19,36.82L181.55,34.06L184.91,44.14L188.28,36.01L191.64,38.5L195,28.51L198.36,40.18L201.72,37.79L205.09,43.77L208.45,40.17L211.81,31.89L215.17,47.87L218.53,36.78L221.9,29.4L225.26,40.12L228.62,34.23L231.98,40.04L235.34,29.66L238.71,32.7L242.07,37.22L245.43,35.28L248.79,32.83L252.16,29.39L255.52,36.78L258.88,33.79L262.24,36.47L265.6,37.4L268.97,41.94L272.33,21.18L275.69,27.27L279.05,22.54L282.41,31.46L285.78,20.88L289.14,27.21L292.5,19.58L295.86,37.02L299.22,41.94L302.59,28.18L305.95,40.93L309.31,31.77L312.67,26.69L316.03,23.95L319.4,34.87L322.76,24.09L326.12,29.98L329.48,31.59L332.84,29.65L336.21,17.57L339.57,38.58L342.93,25.58L346.29,38.74L349.66,21.02L353.02,19.45L356.38,25.8L359.74,21.26L363.1,30.88L366.47,28.43L369.83,27.18L373.19,23.75L379.91,21.6L383.28,18.88L386.64,27.09L390,29.92L390,59.51L386.64,59.4L383.28,55.95L379.91,54.05L376.55,56.77L373.19,49.88L369.83,63.24L366.47,49.25L363.1,62.63L359.74,41.42L356.38,66.05L353.02,63.41L349.66,43.1L346.29,72.4L342.93,49.86L339.57,57.07L336.21,63.47L332.84,53.1L329.48,57.54L326.12,55.46L322.76,54.33L319.4,66.07L316.03,65.26L312.67,49.71L305.95,66.78L302.59,58.18L299.22,64.32L295.86,63.48L292.5,62.95L289.14,65.16L285.78,61.28L282.41,66.5L279.05,53.1L275.69,63.35L268.97,66.42L265.6,77.9L262.24,50.98L258.88,65.27L255.52,71.06L252.16,65.24L248.79,67.96L245.43,55.04L242.07,60.76L238.71,54.39L235.34,61.45L231.98,79.23L228.62,62.66L225.26,59.66L221.9,70.17L218.53,76.28L211.81,90.31L208.45,97.84L205.09,67.91L201.72,71.09L198.36,71.96L195,99.19L188.28,97.84L184.91,94.65L181.55,90.22L178.19,113.75L174.83,87.37L171.47,125.96L168.1,127.97L164.74,152.16L161.38,150.92L158.02,150.75L154.66,151.34L151.29,169.69L147.93,150.35L144.57,177.72L141.21,161.84L137.84,162.23L134.48,172.92L131.12,186.78L127.76,190.44L124.4,178.03L121.03,196.71L117.67,189.37L114.31,205.11L110.95,190.34L107.59,196.17L104.22,203.57L100.86,208.83L97.5,209.3L94.14,200.82L90.78,213.8L87.41,211.95L84.05,213.73L77.33,212.86L73.97,215.62L70.6,209.94L67.24,216.17L63.88,213.55L60.52,216.61L57.16,217.39L53.79,224.82L50.43,222.5L47.07,226.22L43.71,227.46L40.34,238.44L36.98,233.85L33.62,230.78L30.26,241.9L26.9,237.23L23.53,246.05L20.17,241.59L13.45,242.23L10.09,238.49L3.36,236.35L0,238.73" style="vector-effect: non-scaling-stroke; fill: none; stroke: rgb(0, 0, 0); stroke-opacity: 0; stroke-width: 2px; opacity: 1;"/></g><g class="points"/><g class="text"/></g><g class="trace scatter trace41e923" style="stroke-miterlimit: 2; opacity: 1;"><g class="fills"><g><path class="js-fill" d="M0,225.47L6.72,225.52L10.09,223.2L13.45,223.83L16.81,222.12L20.17,224.8L23.53,220.55L26.9,219.47L30.26,216.3L36.98,221.59L40.34,217.34L43.71,208.5L47.07,213.17L50.43,204.15L53.79,197.56L57.16,190.34L60.52,191.12L63.88,188.35L67.24,181.72L70.6,185.13L73.97,169.45L77.33,158.94L80.69,170.31L84.05,161.82L87.41,135.26L90.78,140.54L94.14,115.16L97.5,126.48L100.86,103.8L104.22,97.19L107.59,95L110.95,75.49L114.31,77.02L117.67,77.59L121.03,61.35L124.4,67.24L127.76,52.95L131.12,63.9L134.48,64.34L137.84,46.71L141.21,45.94L144.57,45.42L147.93,47.01L151.29,58.83L154.66,42.89L158.02,38.59L161.38,36.12L164.74,36.49L168.1,40.22L171.47,42.1L174.83,39.56L178.19,32.94L181.55,43.78L184.91,39.72L188.28,40.85L191.64,45.97L195,37.71L198.36,34.59L201.72,35.84L205.09,37.98L208.45,41.28L211.81,41.38L215.17,37.82L218.53,31.59L221.9,43.44L225.26,29.16L228.62,33.52L231.98,32.84L235.34,33.59L238.71,31.44L242.07,38.6L245.43,32.16L248.79,36L252.16,35.48L255.52,38.49L258.88,29.37L262.24,33.05L265.6,29.57L268.97,36.72L275.69,25.82L279.05,36.91L282.41,35.63L285.78,31.41L289.14,27.39L292.5,37.57L295.86,35.54L299.22,31.51L302.59,38.53L305.95,30.95L309.31,36.11L312.67,23.21L316.03,24.92L319.4,32.64L322.76,28.21L326.12,31.6L329.48,39.72L332.84,25.12L336.21,28.75L339.57,20.84L342.93,32.05L346.29,25.59L349.66,29.18L353.02,25L356.38,27.66L359.74,12.95L363.1,30.5L366.47,31.05L369.83,16.13L373.19,29.73L376.55,28.94L379.91,32.09L383.28,32.76L386.64,30.12L390,31.35L390,52.34L386.64,42.65L383.28,48.19L379.91,40.74L376.55,51.39L373.19,45.06L369.83,44.21L366.47,53.02L363.1,47.31L359.74,36.01L356.38,50.44L353.02,55.79L349.66,54.34L346.29,50.48L342.93,52.55L339.57,42.58L336.21,51.83L332.84,52.85L329.48,51.02L326.12,49.89L322.76,57.23L319.4,48.19L316.03,42.88L312.67,44.3L309.31,47.97L305.95,53.89L302.59,55.03L299.22,56.71L295.86,50.33L292.5,56.05L289.14,43.69L285.78,52.17L282.41,53.37L279.05,53.27L275.69,60.43L272.33,50.33L268.97,53.07L265.6,54.93L262.24,52.79L258.88,50.19L255.52,50.3L252.16,46.78L248.79,55.3L245.43,51.11L242.07,51.7L238.71,56.76L235.34,66.21L231.98,47.22L228.62,63.66L225.26,53.71L221.9,61.26L218.53,57.14L215.17,59.47L208.45,60.94L205.09,51.82L201.72,60.71L198.36,58.31L195,52.16L191.64,60.22L188.28,59.75L184.91,58.12L181.55,59.1L178.19,55.78L174.83,66.31L171.47,61.08L168.1,55.27L164.74,67.66L161.38,60.62L158.02,76.54L154.66,75.87L151.29,68.23L144.57,99.11L141.21,91.62L137.84,82.5L134.48,108.52L131.12,89.78L127.76,102.63L121.03,123.57L117.67,144.06L114.31,133.97L110.95,162.93L107.59,157.57L104.22,156.5L100.86,174.68L97.5,176.19L94.14,178.05L90.78,195.86L87.41,192.61L84.05,207.18L80.69,204.49L77.33,207.96L73.97,211.91L70.6,211.33L67.24,214.41L63.88,218.84L60.52,214.16L57.16,216.57L53.79,222.56L50.43,219.33L43.71,223.33L40.34,227.12L33.62,225.62L30.26,225.76L26.9,226.34L23.53,228.9L20.17,229.54L16.81,229.15L13.45,235.33L10.09,233.78L6.72,233.44L3.36,243.33L0,237.34Z" style="fill: rgb(0, 204, 150); fill-opacity: 0.3; stroke-width: 0;"/></g></g><g class="errorbars"/><g class="lines"><path class="js-line" d="M0,225.47L6.72,225.52L10.09,223.2L13.45,223.83L16.81,222.12L20.17,224.8L23.53,220.55L26.9,219.47L30.26,216.3L36.98,221.59L40.34,217.34L43.71,208.5L47.07,213.17L50.43,204.15L53.79,197.56L57.16,190.34L60.52,191.12L63.88,188.35L67.24,181.72L70.6,185.13L73.97,169.45L77.33,158.94L80.69,170.31L84.05,161.82L87.41,135.26L90.78,140.54L94.14,115.16L97.5,126.48L100.86,103.8L104.22,97.19L107.59,95L110.95,75.49L114.31,77.02L117.67,77.59L121.03,61.35L124.4,67.24L127.76,52.95L131.12,63.9L134.48,64.34L137.84,46.71L141.21,45.94L144.57,45.42L147.93,47.01L151.29,58.83L154.66,42.89L158.02,38.59L161.38,36.12L164.74,36.49L168.1,40.22L171.47,42.1L174.83,39.56L178.19,32.94L181.55,43.78L184.91,39.72L188.28,40.85L191.64,45.97L195,37.71L198.36,34.59L201.72,35.84L205.09,37.98L208.45,41.28L211.81,41.38L215.17,37.82L218.53,31.59L221.9,43.44L225.26,29.16L228.62,33.52L231.98,32.84L235.34,33.59L238.71,31.44L242.07,38.6L245.43,32.16L248.79,36L252.16,35.48L255.52,38.49L258.88,29.37L262.24,33.05L265.6,29.57L268.97,36.72L275.69,25.82L279.05,36.91L282.41,35.63L285.78,31.41L289.14,27.39L292.5,37.57L295.86,35.54L299.22,31.51L302.59,38.53L305.95,30.95L309.31,36.11L312.67,23.21L316.03,24.92L319.4,32.64L322.76,28.21L326.12,31.6L329.48,39.72L332.84,25.12L336.21,28.75L339.57,20.84L342.93,32.05L346.29,25.59L349.66,29.18L353.02,25L356.38,27.66L359.74,12.95L363.1,30.5L366.47,31.05L369.83,16.13L373.19,29.73L376.55,28.94L379.91,32.09L383.28,32.76L386.64,30.12L390,31.35L390,52.34L386.64,42.65L383.28,48.19L379.91,40.74L376.55,51.39L373.19,45.06L369.83,44.21L366.47,53.02L363.1,47.31L359.74,36.01L356.38,50.44L353.02,55.79L349.66,54.34L346.29,50.48L342.93,52.55L339.57,42.58L336.21,51.83L332.84,52.85L329.48,51.02L326.12,49.89L322.76,57.23L319.4,48.19L316.03,42.88L312.67,44.3L309.31,47.97L305.95,53.89L302.59,55.03L299.22,56.71L295.86,50.33L292.5,56.05L289.14,43.69L285.78,52.17L282.41,53.37L279.05,53.27L275.69,60.43L272.33,50.33L268.97,53.07L265.6,54.93L262.24,52.79L258.88,50.19L255.52,50.3L252.16,46.78L248.79,55.3L245.43,51.11L242.07,51.7L238.71,56.76L235.34,66.21L231.98,47.22L228.62,63.66L225.26,53.71L221.9,61.26L218.53,57.14L215.17,59.47L208.45,60.94L205.09,51.82L201.72,60.71L198.36,58.31L195,52.16L191.64,60.22L188.28,59.75L184.91,58.12L181.55,59.1L178.19,55.78L174.83,66.31L171.47,61.08L168.1,55.27L164.74,67.66L161.38,60.62L158.02,76.54L154.66,75.87L151.29,68.23L144.57,99.11L141.21,91.62L137.84,82.5L134.48,108.52L131.12,89.78L127.76,102.63L121.03,123.57L117.67,144.06L114.31,133.97L110.95,162.93L107.59,157.57L104.22,156.5L100.86,174.68L97.5,176.19L94.14,178.05L90.78,195.86L87.41,192.61L84.05,207.18L80.69,204.49L77.33,207.96L73.97,211.91L70.6,211.33L67.24,214.41L63.88,218.84L60.52,214.16L57.16,216.57L53.79,222.56L50.43,219.33L43.71,223.33L40.34,227.12L33.62,225.62L30.26,225.76L26.9,226.34L23.53,228.9L20.17,229.54L16.81,229.15L13.45,235.33L10.09,233.78L6.72,233.44L3.36,243.33L0,237.34" style="vector-effect: non-scaling-stroke; fill: none; stroke: rgb(0, 0, 0); stroke-opacity: 0; stroke-width: 2px; opacity: 1;"/></g><g class="points"/><g class="text"/></g><g class="trace scatter trace40c6a9" style="stroke-miterlimit: 2; opacity: 1;"><g class="fills"/><g class="errorbars"/><g class="lines"><path class="js-line" d="M0,233.82L6.72,229.6L10.09,228.7L13.45,230.07L16.81,236.53L20.17,234.1L23.53,232.88L26.9,233.99L30.26,229.66L33.62,225.83L36.98,231.86L40.34,224.35L43.71,223.4L47.07,227.65L50.43,225.63L53.79,219.84L57.16,218.34L60.52,220.93L63.88,221.68L67.24,217.09L70.6,214.51L73.97,212.06L77.33,212.66L80.69,210.97L84.05,207.5L87.41,210.8L90.78,193.51L94.14,195.75L97.5,190.9L100.86,180.18L104.22,182.36L107.59,165.37L110.95,173.34L114.31,150.26L117.67,154.96L121.03,140.67L124.4,142.16L127.76,132.12L131.12,134.45L134.48,115L137.84,111.08L141.21,96.69L144.57,106.99L147.93,83.79L151.29,77.27L154.66,68.18L158.02,68.58L164.74,66.11L168.1,54.97L171.47,55.67L174.83,57.64L178.19,46.51L181.55,47.81L188.28,65.63L191.64,53.88L198.36,56.81L201.72,47.37L205.09,48.92L208.45,52.93L211.81,47.89L215.17,53.9L218.53,46.24L221.9,47.42L225.26,41.94L228.62,40.33L231.98,45.13L235.34,56.95L238.71,48.19L242.07,49.48L245.43,46.05L248.79,45.41L252.16,50.07L255.52,39.58L258.88,35.78L262.24,43.36L268.97,39.37L272.33,42.43L275.69,42.02L279.05,49.38L282.41,35.75L285.78,43.42L289.14,44.86L292.5,40.31L295.86,46.51L299.22,41.58L302.59,38.48L305.95,48.29L309.31,42.36L312.67,38L316.03,51.67L319.4,38.09L322.76,41.46L326.12,41.81L329.48,43.56L332.84,37.25L336.21,44.87L339.57,48.35L342.93,35.03L346.29,45.15L349.66,41.43L353.02,32.96L356.38,29.69L359.74,37.36L363.1,46.95L366.47,40.4L369.83,43.05L373.19,36.1L379.91,39.22L383.28,38.86L386.64,33.81L390,35.86" style="vector-effect: non-scaling-stroke; fill: none; stroke: rgb(99, 110, 250); stroke-opacity: 1; stroke-width: 2px; opacity: 1;"/></g><g class="points"/><g class="text"/></g><g class="trace scatter trace5054f6" style="stroke-miterlimit: 2; opacity: 1;"><g class="fills"/><g class="errorbars"/><g class="lines"><path class="js-line" d="M0,233.27L3.36,230.66L6.72,233.02L10.09,230.27L13.45,235.66L20.17,231.45L23.53,238.41L26.9,229.62L30.26,229.71L33.62,227.94L36.98,224.58L40.34,219.34L43.71,221.88L47.07,216.08L50.43,217.16L53.79,217.33L57.16,212.9L60.52,213.51L63.88,206.52L67.24,205.14L70.6,207.01L77.33,186.44L80.69,192.45L87.41,171.64L90.78,186.83L94.14,174.06L97.5,169.91L100.86,162.07L104.22,164.59L107.59,145.37L110.95,133.45L114.31,143.95L117.67,114.01L121.03,133.32L124.4,135.43L131.12,106.93L134.48,105.75L137.84,112.76L141.21,90.41L144.57,76.81L147.93,83.19L151.29,71.47L154.66,74.77L158.02,72.83L161.38,78.93L164.74,64.38L168.1,56.61L171.47,54.55L174.83,60.27L178.19,50.1L181.55,52.61L184.91,57.06L188.28,50.89L191.64,43.21L195,56.94L201.72,42.91L205.09,49.87L208.45,57.5L211.81,49.51L215.17,61.81L218.53,63.19L221.9,46.54L225.26,51.19L228.62,45.37L231.98,50.15L235.34,37.62L238.71,46.53L242.07,43.5L245.43,45.29L248.79,46.03L252.16,52.7L255.52,63.15L258.88,39.75L262.24,43.45L265.6,51.22L268.97,51.43L272.33,31.02L275.69,42.5L279.05,34.16L285.78,45.22L289.14,33.69L292.5,36.86L295.86,57.87L299.22,45.34L302.59,44.34L305.95,47.39L309.31,41.16L316.03,34L319.4,53.02L322.76,45.86L326.12,46.14L329.48,38.1L332.84,33.5L336.21,45.19L339.57,47.72L342.93,39.36L346.29,60.2L349.66,32.96L353.02,39.89L356.38,45.43L359.74,29.97L363.1,43.38L366.47,41.18L369.83,35.65L373.19,28.64L376.55,47.48L379.91,35.46L383.28,34.41L386.64,46.04L390,47.26" style="vector-effect: non-scaling-stroke; fill: none; stroke: rgb(239, 85, 59); stroke-opacity: 1; stroke-width: 2px; opacity: 1;"/></g><g class="points"/><g class="text"/></g><g class="trace scatter trace9b571d" style="stroke-miterlimit: 2; opacity: 1;"><g class="fills"/><g class="errorbars"/><g class="lines"><path class="js-line" d="M0,232.87L6.72,228.11L10.09,227.57L13.45,229.91L16.81,226.88L20.17,227.65L23.53,223.67L30.26,220.33L33.62,223.06L36.98,223.19L40.34,220.62L43.71,214.4L47.07,217.06L50.43,213.97L53.79,216.18L57.16,209.99L60.52,208.79L63.88,203.64L67.24,206.1L70.6,195.07L73.97,199.48L77.33,195.69L80.69,194.5L84.05,184.24L87.41,168.28L90.78,174.46L94.14,165.72L97.5,146.72L100.86,147.33L104.22,131.7L107.59,131.28L114.31,113.68L117.67,109.34L121.03,84.27L124.4,82.48L127.76,85.63L131.12,78.11L134.48,90.04L137.84,64.3L141.21,73.93L144.57,60.08L147.93,75.38L151.29,62.06L154.66,65.48L158.02,54.63L161.38,50.33L164.74,49.15L168.1,51.37L171.47,46.15L174.83,60.04L178.19,45.84L181.55,52.3L184.91,46.92L191.64,50.78L195,49.25L198.36,49.66L201.72,47.86L205.09,43.87L208.45,53.04L211.81,48.71L215.17,46.78L218.53,42.02L221.9,51.02L225.26,36.54L228.62,46.13L231.98,38.6L235.34,47.44L238.71,38.16L242.07,47.09L245.43,40.51L248.79,43.46L252.16,42.1L255.52,42.68L258.88,44.74L262.24,41.79L268.97,46.35L272.33,45.27L275.69,49L279.05,41.32L282.41,44.38L285.78,42.15L289.14,36.19L292.5,44.71L295.86,40.91L299.22,44.53L302.59,47.43L305.95,47.55L309.31,46.61L312.67,37.16L316.03,38.11L319.4,41.39L322.76,40.63L326.12,47.61L329.48,42.65L332.84,33.09L336.21,36.48L339.57,31.48L342.93,37.35L346.29,37.03L349.66,34.63L353.02,40.53L356.38,38.45L359.74,30.44L363.1,39.78L366.47,42.4L369.83,27.7L373.19,35.59L376.55,42.49L379.91,38.11L383.28,41.74L386.64,32.54L390,42.6" style="vector-effect: non-scaling-stroke; fill: none; stroke: rgb(0, 204, 150); stroke-opacity: 1; stroke-width: 2px; opacity: 1;"/></g><g class="points"/><g class="text"/></g></g></g><g class="overplot"/><path class="xlines-above crisp" d="M0,0" style="fill: none;"/><path class="ylines-above crisp" d="M0,0" style="fill: none;"/><g class="overlines-above"/><g class="xaxislayer-above"><g class="xtick"><text text-anchor="middle" x="0" y="272" transform="translate(168.97,0)" style="font-family: 'Latin Modern Roman'; font-size: 12px; fill: rgb(0, 0, 0); fill-opacity: 1; white-space: pre;">10M</text></g><g class="xtick"><text text-anchor="middle" x="0" y="272" transform="translate(300.3,0)" style="font-family: 'Latin Modern Roman'; font-size: 12px; fill: rgb(0, 0, 0); fill-opacity: 1; white-space: pre;">20M</text></g></g><g class="yaxislayer-above"><g class="ytick"><text text-anchor="end" x="40" y="4.199999999999999" transform="translate(0,215.16)" style="font-family: 'Latin Modern Roman'; font-size: 12px; fill: rgb(0, 0, 0); fill-opacity: 1; white-space: pre;">0</text></g><g class="ytick"><text text-anchor="end" x="40" y="4.199999999999999" transform="translate(0,149.15)" style="font-family: 'Latin Modern Roman'; font-size: 12px; fill: rgb(0, 0, 0); fill-opacity: 1; white-space: pre;">0.5</text></g><g class="ytick"><text text-anchor="end" x="40" y="4.199999999999999" transform="translate(0,83.14)" style="font-family: 'Latin Modern Roman'; font-size: 12px; fill: rgb(0, 0, 0); fill-opacity: 1; white-space: pre;">1</text></g><g class="ytick"><text text-anchor="end" x="40" y="4.199999999999999" transform="translate(0,17.13)" style="font-family: 'Latin Modern Roman'; font-size: 12px; fill: rgb(0, 0, 0); fill-opacity: 1; white-space: pre;">1.5</text></g></g><g class="overaxes-above"/></g></g><g class="polarlayer"/><g class="ternarylayer"/><g class="geolayer"/><g class="funnelarealayer"/><g class="pielayer"/><g class="treemaplayer"/><g class="sunburstlayer"/><g class="glimages"/><defs id="topdefs-0ffba7"><g class="clips"/><clipPath id="legend0ffba7"><rect width="161" height="67" x="0" y="0"/></clipPath></defs><g class="layer-above"><g class="imagelayer"/><g class="shapelayer"/></g><g class="infolayer"><g class="legend" pointer-events="all" transform="translate(438.8,0)"><rect class="bg" shape-rendering="crispEdges" width="161" height="67" x="0" y="0" style="stroke: rgb(68, 68, 68); stroke-opacity: 1; fill: rgb(255, 255, 255); fill-opacity: 1; stroke-width: 0px;"/><g class="scrollbox" transform="" clip-path="url('#legend0ffba7')"><g class="groups"><g class="traces" transform="translate(0,14.5)" style="opacity: 1;"><text class="legendtext" text-anchor="start" x="40" y="4.680000000000001" style="font-family: 'Latin Modern Roman'; font-size: 12px; fill: rgb(0, 0, 0); fill-opacity: 1; white-space: pre;">Bayesian agg. (n=16)</text><g class="layers" style="opacity: 1;"><g class="legendfill"/><g class="legendlines"><path class="js-line" d="M5,0h30" style="fill: none; stroke: rgb(99, 110, 250); stroke-opacity: 1; stroke-width: 2px;"/></g><g class="legendsymbols"><g class="legendpoints"/></g></g><rect class="legendtoggle" x="0" y="-9.5" width="155.671875" height="19" style="fill: rgb(0, 0, 0); fill-opacity: 0;"/></g><g class="traces" transform="translate(0,33.5)" style="opacity: 1;"><text class="legendtext" text-anchor="start" x="40" y="4.680000000000001" style="font-family: 'Latin Modern Roman'; font-size: 12px; fill: rgb(0, 0, 0); fill-opacity: 1; white-space: pre;">Mean agg. (n=14)</text><g class="layers" style="opacity: 1;"><g class="legendfill"/><g class="legendlines"><path class="js-line" d="M5,0h30" style="fill: none; stroke: rgb(239, 85, 59); stroke-opacity: 1; stroke-width: 2px;"/></g><g class="legendsymbols"><g class="legendpoints"/></g></g><rect class="legendtoggle" x="0" y="-9.5" width="155.671875" height="19" style="fill: rgb(0, 0, 0); fill-opacity: 0;"/></g><g class="traces" transform="translate(0,52.5)" style="opacity: 1;"><text class="legendtext" text-anchor="start" x="40" y="4.680000000000001" style="font-family: 'Latin Modern Roman'; font-size: 12px; fill: rgb(0, 0, 0); fill-opacity: 1; white-space: pre;">Attentive agg. (n=14)</text><g class="layers" style="opacity: 1;"><g class="legendfill"/><g class="legendlines"><path class="js-line" d="M5,0h30" style="fill: none; stroke: rgb(0, 204, 150); stroke-opacity: 1; stroke-width: 2px;"/></g><g class="legendsymbols"><g class="legendpoints"/></g></g><rect class="legendtoggle" x="0" y="-9.5" width="155.671875" height="19" style="fill: rgb(0, 0, 0); fill-opacity: 0;"/></g></g></g><rect class="scrollbar" rx="20" ry="3" width="0" height="0" x="0" y="0" style="fill: rgb(128, 139, 164); fill-opacity: 1;"/></g><g class="g-gtitle"/><g class="g-xtitle" transform="translate(0,-3.8000000000000114)"><text class="xtitle" x="236" y="299.8" text-anchor="middle" style="font-family: 'Latin Modern Roman'; font-size: 14px; fill: rgb(0, 0, 0); opacity: 1; font-weight: normal; white-space: pre;">Agent Steps</text></g><g class="g-ytitle" transform="translate(16.1435546875,0)"><text class="ytitle" transform="rotate(-90,-0.14374999999999716,129.5)" x="-0.14374999999999716" y="129.5" text-anchor="middle" style="font-family: 'Latin Modern Roman'; font-size: 14px; fill: rgb(0, 0, 0); opacity: 1; font-weight: normal; white-space: pre;">Avg. Reward</text></g></g></svg>