<svg class="main-svg" xmlns="http://www.w3.org/2000/svg" xmlns:xlink="http://www.w3.org/1999/xlink" width="600" height="300" style="" viewBox="0 0 600 300"><rect x="0" y="0" width="600" height="300" style="fill: rgb(255, 255, 255); fill-opacity: 1;"/><defs id="defs-6c06b8"><g class="clips"><clipPath id="clip6c06b8xyplot" class="plotclip"><rect width="393" height="259"/></clipPath><clipPath class="axesclip" id="clip6c06b8x"><rect x="38" y="0" width="393" height="300"/></clipPath><clipPath class="axesclip" id="clip6c06b8y"><rect x="0" y="0" width="600" height="259"/></clipPath><clipPath class="axesclip" id="clip6c06b8xy"><rect x="38" y="0" width="393" height="259"/></clipPath></g><g class="gradients"/></defs><g class="bglayer"><rect class="bg" x="38" y="0" width="393" height="259" style="fill: rgb(229, 236, 246); fill-opacity: 1; stroke-width: 0;"/></g><g class="layer-below"><g class="imagelayer"/><g class="shapelayer"/></g><g class="cartesianlayer"><g class="subplot xy"><g class="layer-subplot"><g class="shapelayer"/><g class="imagelayer"/></g><g class="gridlayer"><g class="x"><path class="xgrid crisp" transform="translate(114.43,0)" d="M0,0v259" style="stroke: rgb(255, 255, 255); stroke-opacity: 1; stroke-width: 1px;"/><path class="xgrid crisp" transform="translate(191.64,0)" d="M0,0v259" style="stroke: rgb(255, 255, 255); stroke-opacity: 1; stroke-width: 1px;"/><path class="xgrid crisp" transform="translate(268.85,0)" d="M0,0v259" style="stroke: rgb(255, 255, 255); stroke-opacity: 1; stroke-width: 1px;"/><path class="xgrid crisp" transform="translate(346.07,0)" d="M0,0v259" style="stroke: rgb(255, 255, 255); stroke-opacity: 1; stroke-width: 1px;"/><path class="xgrid crisp" transform="translate(423.28,0)" d="M0,0v259" style="stroke: rgb(255, 255, 255); stroke-opacity: 1; stroke-width: 1px;"/></g><g class="y"><path class="ygrid crisp" transform="translate(0,203.12)" d="M38,0h393" style="stroke: rgb(255, 255, 255); stroke-opacity: 1; stroke-width: 1px;"/><path class="ygrid crisp" transform="translate(0,159.15)" d="M38,0h393" style="stroke: rgb(255, 255, 255); stroke-opacity: 1; stroke-width: 1px;"/><path class="ygrid crisp" transform="translate(0,115.18)" d="M38,0h393" style="stroke: rgb(255, 255, 255); stroke-opacity: 1; stroke-width: 1px;"/><path class="ygrid crisp" transform="translate(0,71.21)" d="M38,0h393" style="stroke: rgb(255, 255, 255); stroke-opacity: 1; stroke-width: 1px;"/><path class="ygrid crisp" transform="translate(0,27.24)" d="M38,0h393" style="stroke: rgb(255, 255, 255); stroke-opacity: 1; stroke-width: 1px;"/></g></g><g class="zerolinelayer"><path class="yzl zl crisp" transform="translate(0,247.09)" d="M38,0h393" style="stroke: rgb(255, 255, 255); stroke-opacity: 1; stroke-width: 2px;"/></g><path class="xlines-below"/><path class="ylines-below"/><g class="overlines-below"/><g class="xaxislayer-below"/><g class="yaxislayer-below"/><g class="overaxes-below"/><g class="plot" transform="translate(38,0)" clip-path="url('#clip6c06b8xyplot')"><g class="scatterlayer mlayer"><g class="trace scatter trace52641a" style="stroke-miterlimit: 2; opacity: 1;"><g class="fills"/><g class="errorbars"/><g class="lines"><path class="js-line" d="M0,245.56L3.94,245.34L4.73,244.46L5.51,244.24L6.3,242.26L7.09,242.7L7.88,244.68L8.66,244.68L9.45,241.16L10.24,241.6L11.03,233.46L11.81,236.1L12.6,234.78L14.18,224.45L14.96,231.92L15.75,232.14L16.54,235.22L17.33,231.7L18.11,220.93L18.9,222.25L19.69,219.61L20.48,223.35L21.26,218.29L22.05,216.53L22.84,224.89L24.41,219.83L25.2,207.52L26.78,195.21L27.57,196.75L28.35,204L29.14,224.23L29.93,218.95L30.72,224.01L32.29,217.19L33.08,208.18L33.87,211.7L34.65,208.18L37.02,188.61L37.8,189.49L39.38,169.71L40.17,181.58L40.95,180.48L41.74,170.81L42.53,174.98L43.32,166.41L44.1,171.02L44.89,166.41L47.25,153.66L48.04,159.15L50.4,147.28L51.19,153.22L52.77,137.61L53.56,132.77L54.34,129.91L55.13,132.55L55.92,137.17L56.71,136.07L57.49,136.51L58.28,130.79L59.07,118.7L59.86,121.78L60.64,117.82L61.43,125.3L62.22,114.52L63.01,122L64.58,112.32L65.37,122.44L66.16,115.84L66.94,118.04L67.73,108.81L68.52,111.88L69.31,113.42L70.09,108.59L70.88,111.22L71.67,105.29L72.46,112.98L73.24,105.07L74.03,105.73L74.82,104.63L75.61,95.4L76.39,103.31L77.18,98.91L77.97,102.87L78.76,91.66L79.55,105.07L80.33,88.8L81.12,94.74L81.91,102.21L82.7,99.13L84.27,91.66L85.06,97.37L85.85,101.33L86.63,91.22L88.21,105.29L89,93.42L89.78,103.09L90.57,98.25L92.15,89.24L92.93,101.11L93.72,92.1L94.51,93.86L95.3,99.35L96.08,96.71L96.87,95.18L97.66,97.15L99.23,95.62L100.02,92.54L100.81,93.86L101.6,97.59L102.38,83.96L103.17,95.18L107.11,72.53L107.9,80.66L108.69,80.23L109.47,75.39L110.26,81.1L111.05,75.83L111.84,86.38L112.62,77.81L113.41,78.47L114.2,85.28L114.99,74.73L115.77,89.24L116.56,72.75L117.35,76.49L118.14,84.62L118.92,78.47L119.71,78.69L120.5,82.42L121.29,78.25L122.07,80.45L122.86,85.72L123.65,71.43L124.44,83.3L125.22,71.21L126.01,78.91L126.8,72.53L127.59,73.63L128.37,81.98L129.16,61.76L129.95,69.67L130.74,81.54L131.53,73.19L133.1,70.33L133.89,76.71L134.68,65.28L135.46,80.23L136.25,78.69L137.04,72.53L138.61,76.71L139.4,75.61L140.19,69.01L140.98,70.55L141.76,71.87L142.55,67.25L143.34,68.35L144.13,67.69L144.91,65.93L145.7,66.15L146.49,62.86L147.28,64.84L148.06,68.57L148.85,64.62L149.64,67.47L150.43,61.98L151.21,69.89L152,68.13L152.79,70.77L153.58,63.3L154.36,60.66L155.15,72.09L155.94,60.22L156.73,74.07L157.52,61.98L158.3,66.37L159.09,62.64L159.88,64.18L160.67,53.84L161.45,58.46L162.24,59.56L163.03,59.34L163.82,54.72L164.6,62.42L166.18,56.7L166.97,54.5L167.75,54.06L168.54,57.36L169.33,55.38L170.12,59.78L170.9,54.94L171.69,56.26L172.48,53.84L173.27,54.72L174.05,57.58L174.84,54.72L176.42,62.2L177.2,58.9L177.99,55.82L178.78,59.56L179.57,58.24L180.35,54.5L181.14,53.4L181.93,54.28L183.51,67.25L184.29,65.93L185.87,62.42L186.66,62.86L188.23,54.94L189.02,55.82L189.81,58.24L190.59,63.96L191.38,61.98L192.17,64.84L194.53,59.12L195.32,61.1L196.11,53.62L196.89,67.91L197.68,61.98L198.47,61.76L199.26,64.4L200.04,53.4L200.83,54.72L201.62,54.28L203.19,66.15L203.98,49.45L204.77,58.9L205.56,52.08L207.13,57.36L207.92,47.91L208.71,49.23L209.49,52.96L210.28,54.72L211.07,63.3L211.86,64.62L212.65,56.48L214.22,58.02L215.01,69.89L215.8,56.7L216.58,60.66L218.16,56.48L218.95,60.22L220.52,45.71L221.31,61.76L222.1,58.46L222.88,59.78L223.67,62.86L224.46,60.66L225.25,61.76L226.03,45.27L226.82,54.94L227.61,51.2L228.4,44.61L229.18,51.64L229.97,55.38L230.76,52.96L231.55,59.78L232.33,51.42L233.91,60.66L234.7,62.64L235.48,54.28L236.27,65.06L237.06,52.08L237.85,60.44L238.64,62.42L239.42,49.23L241,61.1L241.79,55.82L242.57,59.56L243.36,56.92L244.15,55.82L244.94,60.66L245.72,55.16L246.51,58.24L247.3,60L248.09,58.68L248.87,58.24L249.66,50.33L251.24,61.76L252.02,59.78L252.81,64.18L253.6,56.92L254.39,54.94L255.17,58.9L255.96,54.28L256.75,56.7L258.32,57.58L259.11,59.78L259.9,55.6L260.69,60.44L261.47,54.72L262.26,58.46L263.05,60.22L263.84,54.94L264.63,60.66L265.41,53.62L266.2,61.98L266.99,58.68L267.78,56.04L268.56,46.15L270.14,64.18L270.93,49.67L271.71,49.89L272.5,58.02L273.29,58.9L274.08,62.42L274.86,64.4L275.65,63.74L276.44,52.74L277.23,55.82L278.8,65.5L279.59,55.38L280.38,61.54L281.16,55.16L281.95,65.28L282.74,62.64L284.31,57.58L285.1,54.5L285.89,54.06L286.68,57.58L288.25,53.84L289.04,63.3L290.62,56.92L291.4,57.58L292.19,60.88L292.98,58.02L294.55,68.13L295.34,58.68L296.13,65.93L296.92,60.44L297.7,62.86L298.49,61.54L299.28,65.71L300.07,61.54L300.85,60L301.64,65.5L302.43,63.3L303.22,71.87L304,62.64L304.79,70.33L305.58,61.54L306.37,65.28L307.15,63.74L307.94,57.36L308.73,68.35L309.52,68.57L310.3,67.47L311.09,60.44L312.67,64.4L313.45,65.93L314.24,67.25L315.03,65.28L315.82,61.76L316.61,68.13L317.39,63.3L318.18,71.43L318.97,56.92L319.76,63.3L320.54,64.18L321.33,61.76L322.12,57.36L322.91,61.54L323.69,59.12L324.48,61.98L325.27,57.14L326.06,61.1L326.84,68.79L327.63,64.62L328.42,57.58L329.21,68.35L330.78,64.62L331.57,63.96L333.93,53.62L334.72,61.32L335.51,61.54L336.29,59.56L337.08,61.54L337.87,59.34L338.66,57.8L339.44,59.56L341.81,63.74L342.6,63.74L343.38,61.1L344.17,65.28L345.75,63.3L346.53,55.38L347.32,65.93L348.11,59.56L348.9,61.98L349.68,59.56L350.47,64.84L351.26,59.34L352.05,59.34L352.83,61.1L353.62,58.02L354.41,61.1L355.2,68.13L355.98,55.82L356.77,58.68L357.56,58.24L358.35,65.5L359.13,60.88L360.71,60.44L361.5,58.68L362.28,68.57L363.07,61.76L364.65,63.3L365.43,65.06L367.01,66.81L367.8,63.3L368.59,58.9L369.37,64.84L370.95,52.96L371.74,67.69L372.52,57.8L373.31,63.96L374.1,61.32L374.89,62.86L375.67,68.57L376.46,68.13L378.04,58.46L378.82,63.52L379.61,62.86L380.4,52.52L381.19,55.38L381.97,65.06L382.76,65.28L383.55,52.96L385.12,56.26L385.91,56.48L386.7,55.16L387.49,59.56L389.06,61.76L389.85,67.25L390.64,68.57L391.42,56.7L392.21,61.54L393,57.14" style="vector-effect: non-scaling-stroke; fill: none; stroke: rgb(99, 110, 250); stroke-opacity: 1; stroke-width: 2px; opacity: 1;"/></g><g class="points"/><g class="text"/></g><g class="trace scatter trace25b65d" style="stroke-miterlimit: 2; opacity: 1;"><g class="fills"><g><path class="js-fill" d="M0,245.34L2.36,243.58L3.15,244.68L4.73,238.74L5.51,240.72L6.3,231.7L7.09,234.34L7.88,235L8.66,234.34L10.24,215.88L11.03,218.29L11.81,218.29L12.6,210.6L13.39,210.6L14.18,196.09L14.96,195.21L15.75,200.93L16.54,207.08L17.33,206.64L18.9,196.75L19.69,188.39L20.48,194.77L21.26,189.93L22.05,195.87L22.84,194.11L23.63,202.68L24.41,189.93L25.2,184.88L25.99,166.85L27.57,164.65L28.35,173.88L29.14,177.62L29.93,174.98L31.5,155.2L32.29,159.59L33.08,163.11L33.87,151.9L36.23,165.53L37.02,149.04L38.59,156.07L39.38,135.41L40.17,135.85L40.95,115.84L41.74,131.67L42.53,132.11L44.1,124.86L44.89,125.74L45.68,122.66L46.47,129.25L47.25,112.32L48.04,121.78L48.83,111.22L49.62,112.98L50.4,132.77L51.19,118.7L51.98,125.3L52.77,118.04L53.56,124.2L54.34,116.94L55.13,110.78L55.92,122.44L56.71,112.32L57.49,118.26L58.28,97.81L59.07,108.59L59.86,104.19L60.64,106.83L61.43,118.04L62.22,103.53L63.01,112.1L63.79,108.81L64.58,104.85L65.37,105.29L66.16,110.57L66.94,105.07L67.73,103.09L68.52,104.19L69.31,92.98L70.09,97.59L70.88,94.74L71.67,88.14L72.46,85.94L73.24,87.7L74.82,84.62L75.61,78.25L76.39,75.39L77.18,81.1L77.97,73.85L78.76,79.57L79.55,72.09L80.33,84.62L81.91,74.73L82.7,85.06L83.48,75.17L84.27,76.49L85.06,73.63L85.85,76.93L86.63,70.99L87.42,73.19L88.21,70.55L89,79.57L90.57,74.51L91.36,81.54L92.15,72.31L92.93,75.83L93.72,85.28L94.51,78.47L95.3,86.6L96.08,76.05L96.87,84.4L97.66,77.15L98.45,76.27L99.23,77.37L100.02,70.11L100.81,70.99L101.6,75.61L102.38,63.3L103.17,61.1L103.96,71.87L104.75,68.13L105.54,58.68L106.32,67.25L107.11,63.74L107.9,61.76L108.69,68.35L109.47,57.14L110.26,62.42L111.05,57.8L111.84,59.56L112.62,50.98L113.41,65.71L114.2,52.08L114.99,55.82L115.77,67.03L116.56,64.84L117.35,49.01L118.14,54.72L118.92,63.74L119.71,51.42L120.5,51.2L121.29,52.08L122.07,67.47L122.86,53.4L123.65,58.24L124.44,50.98L125.22,47.91L126.01,48.35L126.8,55.6L127.59,55.38L128.37,58.24L129.16,50.98L129.95,62.64L130.74,55.16L131.53,64.62L132.31,50.76L133.1,50.11L133.89,59.78L135.46,59.34L136.25,49.89L137.83,60.44L138.61,58.24L139.4,48.13L140.19,51.42L140.98,64.18L141.76,60.66L142.55,59.56L143.34,64.4L144.13,61.98L144.91,56.7L145.7,61.32L146.49,50.76L147.28,51.86L148.06,58.68L150.43,50.54L151.21,62.42L152.79,42.19L153.58,54.94L154.36,51.64L155.15,53.84L155.94,53.62L156.73,47.47L157.52,45.93L158.3,58.46L159.88,49.67L160.67,50.98L161.45,47.47L162.24,47.91L163.03,48.13L163.82,49.89L164.6,50.76L165.39,46.81L166.18,41.97L166.97,49.89L167.75,47.91L168.54,51.2L169.33,41.09L170.12,43.07L170.9,45.49L171.69,41.09L172.48,51.42L173.27,45.05L174.05,44.39L174.84,50.33L176.42,42.19L177.2,44.39L177.99,37.79L178.78,41.75L179.57,46.81L180.35,43.29L181.93,38.23L182.72,42.85L183.51,54.28L184.29,38.45L185.08,47.69L185.87,47.47L186.66,47.25L187.44,41.53L188.23,40.43L189.02,43.07L190.59,48.79L191.38,49.89L192.96,41.09L193.74,44.39L194.53,45.93L195.32,42.19L196.89,47.69L197.68,50.11L199.26,40.65L200.04,42.63L200.83,37.35L201.62,47.03L202.41,49.67L203.19,38.45L203.98,34.28L204.77,44.83L205.56,41.09L206.34,44.39L207.13,42.41L207.92,45.05L209.49,46.15L210.28,31.2L211.07,36.25L211.86,32.96L212.65,41.75L213.43,38.01L214.22,43.51L215.01,39.33L215.8,43.95L216.58,37.57L217.37,44.61L218.16,36.91L219.73,37.79L220.52,44.61L222.1,40.65L222.88,44.61L224.46,35.81L225.25,40.65L226.03,36.91L226.82,41.53L227.61,34.5L228.4,36.69L229.18,38.45L229.97,44.39L230.76,47.25L231.55,41.53L233.12,33.18L233.91,38.01L234.7,39.55L235.48,43.29L236.27,34.06L237.06,40.87L238.64,34.06L239.42,39.77L240.21,42.19L241,41.97L241.79,42.41L242.57,48.13L243.36,41.09L244.15,45.71L244.94,36.03L245.72,39.33L247.3,35.38L248.09,42.41L248.87,38.01L249.66,39.55L250.45,32.74L251.24,45.49L252.02,35.38L252.81,40.43L253.6,41.75L254.39,38.23L255.17,35.16L255.96,39.99L256.75,42.85L257.54,36.25L258.32,47.69L259.11,39.99L260.69,36.25L261.47,46.15L262.26,36.25L263.05,44.61L263.84,43.29L264.63,43.95L265.41,29.88L266.2,42.63L267.78,34.06L268.56,40.21L270.14,44.61L270.93,41.31L271.71,32.96L272.5,47.47L273.29,36.47L274.08,37.57L274.86,31.2L275.65,33.18L276.44,34.72L277.23,42.63L278.01,39.11L278.8,45.27L281.16,32.08L281.95,30.32L284.31,41.53L285.1,39.55L285.89,39.77L286.68,37.13L287.46,31.86L288.25,39.11L289.04,39.77L289.83,47.03L290.62,34.72L291.4,39.55L293.77,30.32L294.55,33.18L295.34,37.13L296.13,32.74L296.92,38.67L297.7,38.67L298.49,36.03L299.28,44.61L300.07,29.44L300.85,36.03L301.64,35.59L302.43,25.7L304,37.35L304.79,30.98L305.58,38.23L306.37,37.35L307.15,29.44L307.94,40.65L308.73,30.1L309.52,40.87L310.3,36.25L311.09,45.05L312.67,32.96L313.45,36.47L314.24,36.25L315.03,44.39L315.82,41.97L316.61,36.03L317.39,38.45L318.18,33.84L319.76,42.41L320.54,32.96L321.33,28.34L322.12,37.13L322.91,37.57L323.69,41.75L325.27,34.72L326.06,29.66L326.84,30.76L327.63,36.25L328.42,36.91L329.21,39.55L329.99,32.74L330.78,32.74L332.36,36.03L333.14,27.9L333.93,29L334.72,41.97L335.51,32.3L336.29,36.69L337.08,38.01L337.87,46.15L338.66,36.25L339.44,36.91L340.23,38.67L341.02,34.72L341.81,39.33L342.6,35.38L343.38,42.63L344.17,30.76L345.75,40.65L346.53,35.59L347.32,41.97L348.11,41.75L348.9,35.38L349.68,47.25L350.47,31.86L351.26,38.45L352.05,39.33L352.83,35.16L353.62,39.11L354.41,34.5L355.2,34.72L355.98,23.5L357.56,42.85L358.35,39.77L359.13,44.61L359.92,42.85L360.71,30.98L361.5,41.31L362.28,32.08L363.07,42.63L363.86,48.35L364.65,46.81L365.43,37.57L366.22,38.45L367.01,41.53L367.8,35.59L369.37,35.81L370.16,33.4L370.95,43.07L371.74,41.53L372.52,48.35L373.31,34.94L374.1,41.75L374.89,39.11L375.67,47.91L376.46,39.77L377.25,40.65L378.04,43.51L378.82,30.32L379.61,42.19L380.4,41.09L381.19,44.17L381.97,35.16L382.76,45.05L383.55,35.81L384.34,44.83L385.12,42.63L385.91,45.05L386.7,46.81L387.49,35.81L388.27,35.16L389.06,51.2L389.85,46.37L390.64,47.47L391.42,50.76L392.21,50.54L393,33.4L393,73.85L392.21,71.43L391.42,65.93L390.64,76.27L389.85,72.31L389.06,70.55L388.27,73.63L387.49,72.31L386.7,72.75L385.91,76.49L385.12,69.45L384.34,72.53L383.55,69.67L382.76,72.31L381.97,68.57L381.19,72.97L380.4,66.81L379.61,71.43L378.82,81.54L378.04,71.21L377.25,74.29L375.67,77.81L374.89,70.55L374.1,75.17L373.31,74.29L372.52,77.81L371.74,77.59L370.16,69.45L369.37,75.17L368.59,68.13L367.8,69.67L367.01,79.13L366.22,74.07L365.43,72.53L364.65,73.41L363.86,74.07L363.07,68.79L362.28,75.83L361.5,72.97L360.71,76.27L359.92,67.47L359.13,78.69L358.35,74.95L357.56,70.11L356.77,72.53L355.98,69.23L355.2,72.09L354.41,65.28L353.62,70.11L352.83,74.73L352.05,72.31L351.26,69.67L350.47,69.89L349.68,78.47L348.9,76.49L347.32,71.65L346.53,67.47L345.75,67.69L344.96,69.89L344.17,74.95L343.38,64.84L341.81,71.65L341.02,69.67L340.23,73.63L339.44,70.77L337.87,74.51L337.08,70.55L336.29,67.25L335.51,67.25L334.72,76.05L333.93,67.03L333.14,79.35L332.36,71.21L331.57,69.67L330.78,76.27L329.99,73.41L329.21,73.63L328.42,63.3L327.63,72.97L326.84,73.85L326.06,66.59L325.27,74.51L324.48,67.47L323.69,70.11L322.91,78.69L322.12,66.15L321.33,69.23L320.54,69.67L319.76,68.13L318.97,69.23L318.18,72.97L317.39,69.23L316.61,76.05L315.82,71.43L315.03,72.53L313.45,77.37L312.67,71.21L311.88,74.51L311.09,68.79L310.3,75.83L309.52,71.65L308.73,72.31L307.94,76.93L307.15,74.95L306.37,67.69L304.79,80.88L304,70.55L302.43,81.32L301.64,75.39L300.85,69.89L300.07,71.21L299.28,75.61L298.49,68.79L296.13,76.71L295.34,70.33L294.55,75.83L293.77,71.65L292.98,64.62L292.19,75.61L290.62,71.87L289.83,74.51L288.25,71.43L287.46,66.15L286.68,69.01L285.89,68.79L285.1,67.91L284.31,73.41L283.53,64.84L282.74,68.35L281.95,71.87L281.16,67.91L280.38,70.55L279.59,69.67L278.8,73.63L278.01,68.57L277.23,66.59L276.44,69.45L275.65,66.59L274.86,70.11L274.08,66.81L273.29,82.64L272.5,82.64L271.71,72.09L270.93,66.81L270.14,72.53L269.35,75.17L268.56,71.65L267.78,65.93L266.99,70.99L266.2,74.07L265.41,71.43L264.63,69.23L263.84,70.11L263.05,78.69L262.26,66.81L260.69,65.5L259.9,66.59L259.11,65.06L258.32,70.55L257.54,73.19L256.75,66.81L255.17,75.83L254.39,67.69L252.81,78.25L252.02,75.17L251.24,75.61L250.45,73.41L249.66,75.17L248.87,83.96L248.09,80.45L247.3,70.55L245.72,67.25L244.94,77.81L244.15,80.66L243.36,72.09L242.57,77.37L241.79,66.81L241,78.25L240.21,72.97L239.42,72.97L238.64,75.61L237.85,73.63L237.06,68.35L236.27,68.35L235.48,76.27L234.7,79.57L233.91,73.41L233.12,74.29L232.33,67.25L230.76,83.08L229.97,74.07L229.18,69.01L228.4,74.51L227.61,72.09L226.82,73.19L226.03,67.69L225.25,71.65L224.46,69.67L223.67,73.63L222.88,79.79L222.1,79.57L221.31,74.07L220.52,80.88L219.73,82.86L218.95,80.66L218.16,76.71L217.37,76.71L216.58,78.69L215.8,74.07L214.22,82.2L213.43,75.61L212.65,72.97L211.86,81.32L211.07,80.45L210.28,76.71L209.49,74.73L208.71,82.42L207.92,78.47L207.13,81.1L206.34,80.45L205.56,76.27L203.98,74.07L203.19,76.93L202.41,76.27L201.62,73.85L200.83,72.53L200.04,68.79L199.26,75.83L198.47,72.31L197.68,69.23L196.89,71.43L196.11,70.55L195.32,72.75L194.53,68.35L193.74,71.21L192.96,67.47L192.17,73.63L191.38,71.21L190.59,77.59L189.81,73.19L189.02,80.23L188.23,71.21L187.44,74.07L186.66,74.51L185.87,83.52L185.08,71.65L184.29,76.71L183.51,78.69L182.72,77.37L181.93,74.73L181.14,77.59L180.35,86.6L179.57,78.69L178.78,79.79L177.99,79.57L177.2,74.51L176.42,80.45L174.05,75.17L173.27,82.2L171.69,76.05L170.9,81.32L170.12,74.07L169.33,80.88L168.54,73.63L167.75,81.32L166.97,79.79L166.18,75.83L165.39,77.81L164.6,83.3L163.82,72.75L163.03,73.41L162.24,78.47L161.45,76.27L160.67,82.42L159.88,76.71L159.09,83.74L158.3,77.37L157.52,77.37L156.73,79.35L155.94,78.69L155.15,82.42L154.36,83.74L153.58,83.08L152.79,80.45L152,82.86L151.21,88.36L150.43,75.61L149.64,86.6L148.85,76.05L148.06,86.6L147.28,78.91L146.49,80.45L145.7,79.35L144.91,87.48L144.13,81.98L143.34,78.03L142.55,84.4L141.76,80.66L140.98,86.16L139.4,81.32L138.61,89.9L137.04,83.08L136.25,81.98L135.46,89.9L134.68,86.16L133.89,83.96L133.1,86.82L132.31,77.37L131.53,80.01L130.74,92.1L129.95,85.5L128.37,94.3L127.59,94.96L126.01,87.48L125.22,105.07L124.44,88.14L123.65,98.25L122.86,91.66L122.07,96.93L121.29,97.37L120.5,94.08L119.71,93.86L118.92,100.01L118.14,99.13L117.35,95.83L116.56,92.32L115.77,95.62L114.2,98.69L113.41,97.59L112.62,99.35L111.84,103.75L110.26,107.93L109.47,107.27L108.69,106.17L107.9,111.44L107.11,113.64L106.32,120.68L104.75,109.91L103.96,115.18L103.17,114.74L102.38,112.76L101.6,122.44L100.81,114.96L100.02,112.1L99.23,121.78L98.45,123.1L97.66,122.88L96.08,116.94L95.3,117.82L94.51,122.22L93.72,120.24L92.93,123.1L92.15,121.34L91.36,124.2L90.57,122.88L89,115.18L88.21,120.9L87.42,130.79L86.63,119.8L85.85,127.05L85.06,113.64L84.27,120.9L83.48,113.42L82.7,117.38L81.91,110.78L80.33,129.03L79.55,108.59L78.76,120.24L77.97,112.98L77.18,121.12L76.39,113.64L74.82,123.32L74.03,116.94L73.24,117.38L72.46,120.68L71.67,116.28L70.88,120.02L70.09,111.88L69.31,119.14L68.52,120.9L67.73,127.05L66.94,125.52L66.16,130.35L64.58,133.65L63.79,149.04L62.22,145.96L61.43,140.69L59.86,180.48L59.07,175.2L57.49,160.25L56.71,163.33L55.92,158.05L55.13,159.15L53.56,188.39L52.77,177.4L51.98,184.44L51.19,181.14L49.62,189.49L48.83,178.94L47.25,203.34L46.47,198.07L45.68,202.46L44.89,200.05L44.1,204.22L43.32,213.9L42.53,220.93L41.74,209.72L40.95,215.44L40.17,211.26L39.38,192.79L38.59,202.9L35.44,232.58L34.65,232.58L33.08,222.91L32.29,222.25L29.14,239.4L28.35,243.36L27.57,244.9L26.78,243.36L25.99,244.68L25.2,244.46L24.41,244.68L23.63,243.36L22.05,244.24L21.26,244.02L19.69,245.56L18.9,245.56L17.33,244.24L16.54,245.34L13.39,244.68L12.6,245.34L11.81,244.24L11.03,245.12L10.24,244.9L9.45,245.56L8.66,245.12L7.88,245.78L6.3,244.9L5.51,244.9L3.15,245.78L2.36,245.56L0,245.78Z" style="fill: rgb(99, 110, 250); fill-opacity: 0.3; stroke-width: 0;"/></g></g><g class="errorbars"/><g class="lines"><path class="js-line" d="M0,245.34L2.36,243.58L3.15,244.68L4.73,238.74L5.51,240.72L6.3,231.7L7.09,234.34L7.88,235L8.66,234.34L10.24,215.88L11.03,218.29L11.81,218.29L12.6,210.6L13.39,210.6L14.18,196.09L14.96,195.21L15.75,200.93L16.54,207.08L17.33,206.64L18.9,196.75L19.69,188.39L20.48,194.77L21.26,189.93L22.05,195.87L22.84,194.11L23.63,202.68L24.41,189.93L25.2,184.88L25.99,166.85L27.57,164.65L28.35,173.88L29.14,177.62L29.93,174.98L31.5,155.2L32.29,159.59L33.08,163.11L33.87,151.9L36.23,165.53L37.02,149.04L38.59,156.07L39.38,135.41L40.17,135.85L40.95,115.84L41.74,131.67L42.53,132.11L44.1,124.86L44.89,125.74L45.68,122.66L46.47,129.25L47.25,112.32L48.04,121.78L48.83,111.22L49.62,112.98L50.4,132.77L51.19,118.7L51.98,125.3L52.77,118.04L53.56,124.2L54.34,116.94L55.13,110.78L55.92,122.44L56.71,112.32L57.49,118.26L58.28,97.81L59.07,108.59L59.86,104.19L60.64,106.83L61.43,118.04L62.22,103.53L63.01,112.1L63.79,108.81L64.58,104.85L65.37,105.29L66.16,110.57L66.94,105.07L67.73,103.09L68.52,104.19L69.31,92.98L70.09,97.59L70.88,94.74L71.67,88.14L72.46,85.94L73.24,87.7L74.82,84.62L75.61,78.25L76.39,75.39L77.18,81.1L77.97,73.85L78.76,79.57L79.55,72.09L80.33,84.62L81.91,74.73L82.7,85.06L83.48,75.17L84.27,76.49L85.06,73.63L85.85,76.93L86.63,70.99L87.42,73.19L88.21,70.55L89,79.57L90.57,74.51L91.36,81.54L92.15,72.31L92.93,75.83L93.72,85.28L94.51,78.47L95.3,86.6L96.08,76.05L96.87,84.4L97.66,77.15L98.45,76.27L99.23,77.37L100.02,70.11L100.81,70.99L101.6,75.61L102.38,63.3L103.17,61.1L103.96,71.87L104.75,68.13L105.54,58.68L106.32,67.25L107.11,63.74L107.9,61.76L108.69,68.35L109.47,57.14L110.26,62.42L111.05,57.8L111.84,59.56L112.62,50.98L113.41,65.71L114.2,52.08L114.99,55.82L115.77,67.03L116.56,64.84L117.35,49.01L118.14,54.72L118.92,63.74L119.71,51.42L120.5,51.2L121.29,52.08L122.07,67.47L122.86,53.4L123.65,58.24L124.44,50.98L125.22,47.91L126.01,48.35L126.8,55.6L127.59,55.38L128.37,58.24L129.16,50.98L129.95,62.64L130.74,55.16L131.53,64.62L132.31,50.76L133.1,50.11L133.89,59.78L135.46,59.34L136.25,49.89L137.83,60.44L138.61,58.24L139.4,48.13L140.19,51.42L140.98,64.18L141.76,60.66L142.55,59.56L143.34,64.4L144.13,61.98L144.91,56.7L145.7,61.32L146.49,50.76L147.28,51.86L148.06,58.68L150.43,50.54L151.21,62.42L152.79,42.19L153.58,54.94L154.36,51.64L155.15,53.84L155.94,53.62L156.73,47.47L157.52,45.93L158.3,58.46L159.88,49.67L160.67,50.98L161.45,47.47L162.24,47.91L163.03,48.13L163.82,49.89L164.6,50.76L165.39,46.81L166.18,41.97L166.97,49.89L167.75,47.91L168.54,51.2L169.33,41.09L170.12,43.07L170.9,45.49L171.69,41.09L172.48,51.42L173.27,45.05L174.05,44.39L174.84,50.33L176.42,42.19L177.2,44.39L177.99,37.79L178.78,41.75L179.57,46.81L180.35,43.29L181.93,38.23L182.72,42.85L183.51,54.28L184.29,38.45L185.08,47.69L185.87,47.47L186.66,47.25L187.44,41.53L188.23,40.43L189.02,43.07L190.59,48.79L191.38,49.89L192.96,41.09L193.74,44.39L194.53,45.93L195.32,42.19L196.89,47.69L197.68,50.11L199.26,40.65L200.04,42.63L200.83,37.35L201.62,47.03L202.41,49.67L203.19,38.45L203.98,34.28L204.77,44.83L205.56,41.09L206.34,44.39L207.13,42.41L207.92,45.05L209.49,46.15L210.28,31.2L211.07,36.25L211.86,32.96L212.65,41.75L213.43,38.01L214.22,43.51L215.01,39.33L215.8,43.95L216.58,37.57L217.37,44.61L218.16,36.91L219.73,37.79L220.52,44.61L222.1,40.65L222.88,44.61L224.46,35.81L225.25,40.65L226.03,36.91L226.82,41.53L227.61,34.5L228.4,36.69L229.18,38.45L229.97,44.39L230.76,47.25L231.55,41.53L233.12,33.18L233.91,38.01L234.7,39.55L235.48,43.29L236.27,34.06L237.06,40.87L238.64,34.06L239.42,39.77L240.21,42.19L241,41.97L241.79,42.41L242.57,48.13L243.36,41.09L244.15,45.71L244.94,36.03L245.72,39.33L247.3,35.38L248.09,42.41L248.87,38.01L249.66,39.55L250.45,32.74L251.24,45.49L252.02,35.38L252.81,40.43L253.6,41.75L254.39,38.23L255.17,35.16L255.96,39.99L256.75,42.85L257.54,36.25L258.32,47.69L259.11,39.99L260.69,36.25L261.47,46.15L262.26,36.25L263.05,44.61L263.84,43.29L264.63,43.95L265.41,29.88L266.2,42.63L267.78,34.06L268.56,40.21L270.14,44.61L270.93,41.31L271.71,32.96L272.5,47.47L273.29,36.47L274.08,37.57L274.86,31.2L275.65,33.18L276.44,34.72L277.23,42.63L278.01,39.11L278.8,45.27L281.16,32.08L281.95,30.32L284.31,41.53L285.1,39.55L285.89,39.77L286.68,37.13L287.46,31.86L288.25,39.11L289.04,39.77L289.83,47.03L290.62,34.72L291.4,39.55L293.77,30.32L294.55,33.18L295.34,37.13L296.13,32.74L296.92,38.67L297.7,38.67L298.49,36.03L299.28,44.61L300.07,29.44L300.85,36.03L301.64,35.59L302.43,25.7L304,37.35L304.79,30.98L305.58,38.23L306.37,37.35L307.15,29.44L307.94,40.65L308.73,30.1L309.52,40.87L310.3,36.25L311.09,45.05L312.67,32.96L313.45,36.47L314.24,36.25L315.03,44.39L315.82,41.97L316.61,36.03L317.39,38.45L318.18,33.84L319.76,42.41L320.54,32.96L321.33,28.34L322.12,37.13L322.91,37.57L323.69,41.75L325.27,34.72L326.06,29.66L326.84,30.76L327.63,36.25L328.42,36.91L329.21,39.55L329.99,32.74L330.78,32.74L332.36,36.03L333.14,27.9L333.93,29L334.72,41.97L335.51,32.3L336.29,36.69L337.08,38.01L337.87,46.15L338.66,36.25L339.44,36.91L340.23,38.67L341.02,34.72L341.81,39.33L342.6,35.38L343.38,42.63L344.17,30.76L345.75,40.65L346.53,35.59L347.32,41.97L348.11,41.75L348.9,35.38L349.68,47.25L350.47,31.86L351.26,38.45L352.05,39.33L352.83,35.16L353.62,39.11L354.41,34.5L355.2,34.72L355.98,23.5L357.56,42.85L358.35,39.77L359.13,44.61L359.92,42.85L360.71,30.98L361.5,41.31L362.28,32.08L363.07,42.63L363.86,48.35L364.65,46.81L365.43,37.57L366.22,38.45L367.01,41.53L367.8,35.59L369.37,35.81L370.16,33.4L370.95,43.07L371.74,41.53L372.52,48.35L373.31,34.94L374.1,41.75L374.89,39.11L375.67,47.91L376.46,39.77L377.25,40.65L378.04,43.51L378.82,30.32L379.61,42.19L380.4,41.09L381.19,44.17L381.97,35.16L382.76,45.05L383.55,35.81L384.34,44.83L385.12,42.63L385.91,45.05L386.7,46.81L387.49,35.81L388.27,35.16L389.06,51.2L389.85,46.37L390.64,47.47L391.42,50.76L392.21,50.54L393,33.4L393,73.85L392.21,71.43L391.42,65.93L390.64,76.27L389.85,72.31L389.06,70.55L388.27,73.63L387.49,72.31L386.7,72.75L385.91,76.49L385.12,69.45L384.34,72.53L383.55,69.67L382.76,72.31L381.97,68.57L381.19,72.97L380.4,66.81L379.61,71.43L378.82,81.54L378.04,71.21L377.25,74.29L375.67,77.81L374.89,70.55L374.1,75.17L373.31,74.29L372.52,77.81L371.74,77.59L370.16,69.45L369.37,75.17L368.59,68.13L367.8,69.67L367.01,79.13L366.22,74.07L365.43,72.53L364.65,73.41L363.86,74.07L363.07,68.79L362.28,75.83L361.5,72.97L360.71,76.27L359.92,67.47L359.13,78.69L358.35,74.95L357.56,70.11L356.77,72.53L355.98,69.23L355.2,72.09L354.41,65.28L353.62,70.11L352.83,74.73L352.05,72.31L351.26,69.67L350.47,69.89L349.68,78.47L348.9,76.49L347.32,71.65L346.53,67.47L345.75,67.69L344.96,69.89L344.17,74.95L343.38,64.84L341.81,71.65L341.02,69.67L340.23,73.63L339.44,70.77L337.87,74.51L337.08,70.55L336.29,67.25L335.51,67.25L334.72,76.05L333.93,67.03L333.14,79.35L332.36,71.21L331.57,69.67L330.78,76.27L329.99,73.41L329.21,73.63L328.42,63.3L327.63,72.97L326.84,73.85L326.06,66.59L325.27,74.51L324.48,67.47L323.69,70.11L322.91,78.69L322.12,66.15L321.33,69.23L320.54,69.67L319.76,68.13L318.97,69.23L318.18,72.97L317.39,69.23L316.61,76.05L315.82,71.43L315.03,72.53L313.45,77.37L312.67,71.21L311.88,74.51L311.09,68.79L310.3,75.83L309.52,71.65L308.73,72.31L307.94,76.93L307.15,74.95L306.37,67.69L304.79,80.88L304,70.55L302.43,81.32L301.64,75.39L300.85,69.89L300.07,71.21L299.28,75.61L298.49,68.79L296.13,76.71L295.34,70.33L294.55,75.83L293.77,71.65L292.98,64.62L292.19,75.61L290.62,71.87L289.83,74.51L288.25,71.43L287.46,66.15L286.68,69.01L285.89,68.79L285.1,67.91L284.31,73.41L283.53,64.84L282.74,68.35L281.95,71.87L281.16,67.91L280.38,70.55L279.59,69.67L278.8,73.63L278.01,68.57L277.23,66.59L276.44,69.45L275.65,66.59L274.86,70.11L274.08,66.81L273.29,82.64L272.5,82.64L271.71,72.09L270.93,66.81L270.14,72.53L269.35,75.17L268.56,71.65L267.78,65.93L266.99,70.99L266.2,74.07L265.41,71.43L264.63,69.23L263.84,70.11L263.05,78.69L262.26,66.81L260.69,65.5L259.9,66.59L259.11,65.06L258.32,70.55L257.54,73.19L256.75,66.81L255.17,75.83L254.39,67.69L252.81,78.25L252.02,75.17L251.24,75.61L250.45,73.41L249.66,75.17L248.87,83.96L248.09,80.45L247.3,70.55L245.72,67.25L244.94,77.81L244.15,80.66L243.36,72.09L242.57,77.37L241.79,66.81L241,78.25L240.21,72.97L239.42,72.97L238.64,75.61L237.85,73.63L237.06,68.35L236.27,68.35L235.48,76.27L234.7,79.57L233.91,73.41L233.12,74.29L232.33,67.25L230.76,83.08L229.97,74.07L229.18,69.01L228.4,74.51L227.61,72.09L226.82,73.19L226.03,67.69L225.25,71.65L224.46,69.67L223.67,73.63L222.88,79.79L222.1,79.57L221.31,74.07L220.52,80.88L219.73,82.86L218.95,80.66L218.16,76.71L217.37,76.71L216.58,78.69L215.8,74.07L214.22,82.2L213.43,75.61L212.65,72.97L211.86,81.32L211.07,80.45L210.28,76.71L209.49,74.73L208.71,82.42L207.92,78.47L207.13,81.1L206.34,80.45L205.56,76.27L203.98,74.07L203.19,76.93L202.41,76.27L201.62,73.85L200.83,72.53L200.04,68.79L199.26,75.83L198.47,72.31L197.68,69.23L196.89,71.43L196.11,70.55L195.32,72.75L194.53,68.35L193.74,71.21L192.96,67.47L192.17,73.63L191.38,71.21L190.59,77.59L189.81,73.19L189.02,80.23L188.23,71.21L187.44,74.07L186.66,74.51L185.87,83.52L185.08,71.65L184.29,76.71L183.51,78.69L182.72,77.37L181.93,74.73L181.14,77.59L180.35,86.6L179.57,78.69L178.78,79.79L177.99,79.57L177.2,74.51L176.42,80.45L174.05,75.17L173.27,82.2L171.69,76.05L170.9,81.32L170.12,74.07L169.33,80.88L168.54,73.63L167.75,81.32L166.97,79.79L166.18,75.83L165.39,77.81L164.6,83.3L163.82,72.75L163.03,73.41L162.24,78.47L161.45,76.27L160.67,82.42L159.88,76.71L159.09,83.74L158.3,77.37L157.52,77.37L156.73,79.35L155.94,78.69L155.15,82.42L154.36,83.74L153.58,83.08L152.79,80.45L152,82.86L151.21,88.36L150.43,75.61L149.64,86.6L148.85,76.05L148.06,86.6L147.28,78.91L146.49,80.45L145.7,79.35L144.91,87.48L144.13,81.98L143.34,78.03L142.55,84.4L141.76,80.66L140.98,86.16L139.4,81.32L138.61,89.9L137.04,83.08L136.25,81.98L135.46,89.9L134.68,86.16L133.89,83.96L133.1,86.82L132.31,77.37L131.53,80.01L130.74,92.1L129.95,85.5L128.37,94.3L127.59,94.96L126.01,87.48L125.22,105.07L124.44,88.14L123.65,98.25L122.86,91.66L122.07,96.93L121.29,97.37L120.5,94.08L119.71,93.86L118.92,100.01L118.14,99.13L117.35,95.83L116.56,92.32L115.77,95.62L114.2,98.69L113.41,97.59L112.62,99.35L111.84,103.75L110.26,107.93L109.47,107.27L108.69,106.17L107.9,111.44L107.11,113.64L106.32,120.68L104.75,109.91L103.96,115.18L103.17,114.74L102.38,112.76L101.6,122.44L100.81,114.96L100.02,112.1L99.23,121.78L98.45,123.1L97.66,122.88L96.08,116.94L95.3,117.82L94.51,122.22L93.72,120.24L92.93,123.1L92.15,121.34L91.36,124.2L90.57,122.88L89,115.18L88.21,120.9L87.42,130.79L86.63,119.8L85.85,127.05L85.06,113.64L84.27,120.9L83.48,113.42L82.7,117.38L81.91,110.78L80.33,129.03L79.55,108.59L78.76,120.24L77.97,112.98L77.18,121.12L76.39,113.64L74.82,123.32L74.03,116.94L73.24,117.38L72.46,120.68L71.67,116.28L70.88,120.02L70.09,111.88L69.31,119.14L68.52,120.9L67.73,127.05L66.94,125.52L66.16,130.35L64.58,133.65L63.79,149.04L62.22,145.96L61.43,140.69L59.86,180.48L59.07,175.2L57.49,160.25L56.71,163.33L55.92,158.05L55.13,159.15L53.56,188.39L52.77,177.4L51.98,184.44L51.19,181.14L49.62,189.49L48.83,178.94L47.25,203.34L46.47,198.07L45.68,202.46L44.89,200.05L44.1,204.22L43.32,213.9L42.53,220.93L41.74,209.72L40.95,215.44L40.17,211.26L39.38,192.79L38.59,202.9L35.44,232.58L34.65,232.58L33.08,222.91L32.29,222.25L29.14,239.4L28.35,243.36L27.57,244.9L26.78,243.36L25.99,244.68L25.2,244.46L24.41,244.68L23.63,243.36L22.05,244.24L21.26,244.02L19.69,245.56L18.9,245.56L17.33,244.24L16.54,245.34L13.39,244.68L12.6,245.34L11.81,244.24L11.03,245.12L10.24,244.9L9.45,245.56L8.66,245.12L7.88,245.78L6.3,244.9L5.51,244.9L3.15,245.78L2.36,245.56L0,245.78" style="vector-effect: non-scaling-stroke; fill: none; stroke: rgb(0, 0, 0); stroke-opacity: 0; stroke-width: 2px; opacity: 1;"/></g><g class="points"/><g class="text"/></g><g class="trace scatter trace6d5cbc" style="stroke-miterlimit: 2; opacity: 1;"><g class="fills"/><g class="errorbars"/><g class="lines"><path class="js-line" d="M0,245.78L0.79,244.9L1.58,245.34L4.73,244.9L5.51,245.12L7.09,245.34L7.88,244.68L9.45,245.56L10.24,244.46L11.81,245.12L12.6,240.28L13.39,236.98L14.18,228.85L14.96,226.87L15.75,221.37L17.33,224.45L18.11,222.91L18.9,222.47L19.69,213.02L20.48,216.53L21.26,213.24L22.05,212.36L22.84,220.05L23.63,213.46L24.41,218.07L25.2,213.68L25.99,216.75L27.57,202.68L28.35,193.23L29.14,191.69L29.93,185.32L30.72,189.49L31.5,179.38L33.08,191.25L33.87,178.28L34.65,155.85L35.44,157.17L37.02,153.44L37.8,151.68L40.17,135.85L40.95,152.12L41.74,123.54L42.53,128.37L43.32,137.83L44.1,133.43L44.89,134.75L45.68,122.66L46.47,121.56L47.25,126.39L48.04,136.95L48.83,122L49.62,127.71L50.4,117.38L51.19,122.66L51.98,110.78L52.77,112.32L53.56,106.39L54.34,114.74L55.13,109.03L55.92,104.19L56.71,109.91L57.49,107.27L58.28,107.71L59.07,104.41L59.86,104.85L60.64,114.52L61.43,103.31L62.22,97.15L63.01,108.15L64.58,93.42L65.37,105.95L66.94,93.42L67.73,97.37L68.52,102.21L69.31,94.52L70.09,97.81L70.88,96.93L71.67,95.62L72.46,96.49L73.24,83.74L74.03,87.92L74.82,86.38L75.61,94.3L76.39,94.74L77.18,76.05L79.55,92.1L80.33,83.74L81.12,81.76L81.91,82.86L82.7,83.74L83.48,80.23L84.27,80.45L85.06,71.65L85.85,72.75L86.63,81.54L87.42,76.05L88.21,81.1L89.78,78.47L90.57,81.98L91.36,77.81L92.15,78.91L92.93,70.77L93.72,73.19L94.51,67.91L95.3,73.63L96.08,66.59L96.87,70.77L97.66,69.01L98.45,63.08L100.02,77.15L100.81,67.25L101.6,73.63L102.38,67.69L103.17,65.28L103.96,69.01L104.75,63.3L105.54,70.55L107.11,57.8L107.9,59.34L108.69,60.44L109.47,57.8L110.26,60.22L111.05,67.47L111.84,62.42L112.62,64.84L113.41,67.69L114.2,55.38L115.77,60.66L116.56,67.25L117.35,68.13L118.14,61.54L118.92,60.22L119.71,67.69L120.5,65.93L121.29,66.37L122.07,58.46L122.86,66.81L124.44,72.53L125.22,68.35L126.01,64.62L126.8,70.99L128.37,57.14L129.16,66.81L129.95,74.29L130.74,65.71L131.53,63.52L132.31,67.47L133.89,56.7L134.68,63.52L135.46,60.88L136.25,62.2L137.04,62.64L137.83,54.94L138.61,60L139.4,53.18L140.98,58.02L141.76,54.06L143.34,62.2L144.13,53.84L144.91,53.18L145.7,47.69L146.49,56.92L147.28,49.01L148.06,47.25L148.85,55.82L149.64,46.59L150.43,52.52L151.21,56.92L152,41.53L154.36,47.91L155.15,44.39L156.73,48.13L157.52,44.61L158.3,56.26L159.09,49.89L160.67,40.87L161.45,53.62L162.24,53.62L163.03,47.25L163.82,52.3L164.6,50.98L165.39,54.94L166.18,51.86L166.97,55.38L167.75,53.84L169.33,46.81L170.12,43.29L170.9,47.25L171.69,46.59L172.48,47.91L173.27,57.14L174.05,49.45L174.84,53.62L175.63,49.23L176.42,49.23L177.2,47.47L177.99,51.2L178.78,45.27L179.57,54.28L180.35,39.11L181.14,44.83L181.93,48.57L182.72,45.71L183.51,41.53L184.29,44.39L185.08,40.65L185.87,46.59L186.66,46.81L187.44,39.33L188.23,48.13L189.02,47.25L189.81,43.29L190.59,50.11L192.17,39.11L192.96,45.27L193.74,40.43L194.53,45.05L195.32,33.84L196.11,50.98L196.89,50.76L197.68,41.97L199.26,47.03L200.04,43.73L200.83,39.55L201.62,39.99L202.41,35.59L203.19,44.39L205.56,41.53L206.34,48.57L207.92,40.87L208.71,41.09L209.49,40.87L210.28,44.61L211.07,40.43L211.86,52.74L212.65,47.69L213.43,50.11L215.01,39.99L215.8,42.85L216.58,45.93L217.37,38.89L218.16,46.37L218.95,35.16L220.52,50.76L221.31,45.05L222.1,38.45L222.88,47.47L223.67,44.61L224.46,37.57L226.03,52.08L226.82,46.15L228.4,40.87L229.18,56.04L230.76,46.59L231.55,50.33L232.33,41.31L233.12,49.01L233.91,38.45L234.7,44.61L236.27,43.07L237.06,37.57L237.85,46.37L238.64,40.21L239.42,43.29L240.21,40.87L241,41.53L241.79,35.16L242.57,43.51L243.36,43.51L244.15,40.87L244.94,47.25L245.72,47.03L246.51,43.51L247.3,45.27L248.09,44.83L248.87,47.47L249.66,40.87L250.45,38.01L251.24,39.33L252.02,41.97L252.81,38.45L255.17,50.54L255.96,38.67L256.75,46.15L257.54,33.84L259.11,44.83L259.9,44.17L260.69,50.98L261.47,41.97L262.26,42.19L263.05,38.89L265.41,43.51L266.2,36.91L268.56,52.74L269.35,39.99L270.93,45.71L271.71,43.73L273.29,50.98L274.08,42.63L274.86,53.62L275.65,45.71L276.44,43.07L277.23,52.08L278.01,38.89L278.8,49.89L280.38,47.25L281.16,50.33L281.95,48.35L282.74,48.57L283.53,44.39L284.31,44.39L285.1,43.95L285.89,45.27L286.68,47.25L287.46,46.81L288.25,41.53L289.04,47.91L289.83,47.25L290.62,44.39L291.4,45.27L292.19,49.01L292.98,33.4L293.77,43.51L294.55,45.05L295.34,42.63L296.92,45.71L297.7,38.45L299.28,38.67L300.07,43.29L301.64,36.47L302.43,38.23L303.22,39.33L304,42.19L305.58,41.53L306.37,40.87L307.15,41.97L307.94,45.05L308.73,41.31L309.52,45.71L310.3,41.31L311.09,43.73L311.88,38.23L312.67,43.07L313.45,40.21L314.24,43.07L315.03,41.97L315.82,43.51L316.61,45.93L317.39,42.41L318.18,43.73L318.97,41.97L319.76,41.31L320.54,45.27L321.33,39.99L322.12,43.73L322.91,42.63L323.69,39.77L324.48,45.93L325.27,42.19L326.06,39.77L326.84,40.87L329.21,45.27L329.99,39.77L331.57,45.49L332.36,46.37L333.14,49.67L333.93,41.53L334.72,42.63L335.51,38.23L337.08,32.52L337.87,39.33L338.66,45.49L339.44,40.65L340.23,36.69L341.02,37.79L341.81,48.57L342.6,42.41L343.38,36.69L344.17,40.43L344.96,36.91L345.75,45.93L346.53,34.5L347.32,46.37L348.11,46.15L348.9,37.13L349.68,34.94L350.47,40.87L352.05,36.03L352.83,28.12L353.62,41.09L354.41,39.11L355.2,35.16L355.98,26.36L357.56,39.33L358.35,34.72L359.13,36.25L359.92,31.2L361.5,49.45L362.28,33.84L363.07,38.45L363.86,36.69L364.65,38.89L365.43,38.45L366.22,38.89L367.01,34.28L367.8,43.07L368.59,35.59L369.37,42.41L370.16,38.67L370.95,49.45L371.74,47.69L373.31,35.81L374.1,37.79L374.89,36.47L375.67,43.29L376.46,49.67L377.25,48.13L378.04,30.98L378.82,50.33L380.4,30.98L381.19,35.16L381.97,26.58L382.76,43.29L383.55,41.31L384.34,30.32L385.91,47.69L386.7,34.5L387.49,44.17L388.27,35.16L391.42,45.93L392.21,36.25L393,40.87" style="vector-effect: non-scaling-stroke; fill: none; stroke: rgb(239, 85, 59); stroke-opacity: 1; stroke-width: 2px; opacity: 1;"/></g><g class="points"/><g class="text"/></g><g class="trace scatter trace3b49eb" style="stroke-miterlimit: 2; opacity: 1;"><g class="fills"><g><path class="js-fill" d="M0,245.78L1.58,243.69L2.36,243.8L3.15,243.36L3.94,244.13L7.09,234.45L7.88,233.9L9.45,228.52L10.24,222.91L11.81,226.98L12.6,219.39L13.39,208.29L14.18,211.15L14.96,204.77L15.75,213.02L16.54,216.09L17.33,207.3L18.11,209.61L18.9,201.47L19.69,201.47L20.48,198.62L21.26,209.39L22.05,206.09L22.84,207.3L23.63,200.16L25.2,204.44L25.99,198.95L26.78,196.97L27.57,189.93L29.93,169.27L30.72,175.42L32.29,166.63L33.08,166.08L35.44,142L36.23,146.18L37.8,128.48L38.59,117.6L39.38,117.71L40.17,116.17L40.95,125.52L41.74,118.92L42.53,105.62L43.32,107.71L44.1,111.22L44.89,99.24L45.68,86.49L46.47,103.64L48.04,97.59L48.83,112.76L49.62,109.14L50.4,100.01L52.77,91L53.56,86.82L54.34,92.54L55.13,85.94L56.71,98.03L57.49,98.8L58.28,91.99L59.07,95.94L59.86,101.77L60.64,101.88L61.43,92.1L62.22,94.41L63.01,94.52L63.79,92.54L65.37,89.02L66.16,84.18L67.73,82.2L68.52,76.6L69.31,76.6L70.09,79.02L70.88,75.28L71.67,80.12L72.46,83.52L73.24,80.12L74.03,79.35L74.82,81.98L75.61,83.41L76.39,80.88L77.97,74.51L78.76,84.29L81.91,68.35L82.7,75.94L83.48,76.6L84.27,72.75L85.06,63.74L85.85,65.93L86.63,75.06L87.42,69.34L88.21,66.92L89,70L89.78,66.37L90.57,67.91L91.36,72.64L92.15,69.12L92.93,67.03L93.72,67.8L95.3,65.5L96.08,61.43L96.87,60.77L97.66,65.17L98.45,58.68L99.23,62.97L100.02,61.76L100.81,65.39L103.17,52.3L103.96,58.35L104.75,49.12L105.54,57.91L106.32,47.69L107.11,47.58L107.9,48.68L108.69,54.83L109.47,49.78L110.26,57.25L111.05,53.18L111.84,53.07L113.41,56.59L114.2,51.31L114.99,51.09L115.77,42.74L116.56,41.97L117.35,58.35L118.14,45.27L118.92,54.39L119.71,57.14L120.5,48.57L121.29,62.53L122.07,54.06L122.86,62.86L123.65,52.19L124.44,69.45L125.22,56.92L126.01,60.22L126.8,50.98L127.59,54.28L128.37,53.51L129.16,59.34L129.95,50.54L130.74,57.03L131.53,53.18L132.31,53.95L133.1,38.67L133.89,50.22L134.68,46.92L135.46,55.82L136.25,49.34L138.61,43.4L139.4,50.33L140.19,44.28L140.98,47.03L141.76,41.86L142.55,42.52L143.34,44.39L144.13,41.86L144.91,42.52L145.7,38.01L146.49,35.92L147.28,43.18L148.06,39.11L148.85,43.4L149.64,29.99L150.43,33.62L151.21,34.72L152,37.24L152.79,42.19L153.58,33.95L154.36,34.61L155.15,26.14L156.73,33.62L157.52,25.92L158.3,22.29L159.09,33.07L160.67,22.4L161.45,29.99L163.82,26.36L164.6,21.63L165.39,31.31L166.18,20.97L167.75,33.84L168.54,26.25L170.12,18.12L170.9,24.82L171.69,23.06L172.48,30.65L173.27,30.1L174.05,34.17L174.84,19.77L175.63,23.72L177.2,21.96L177.99,16.03L178.78,22.84L179.57,22.62L181.14,15.48L181.93,14.82L183.51,31.53L184.29,20.64L185.08,19.99L185.87,26.14L187.44,18.78L188.23,22.95L189.02,27.68L189.81,14.38L191.38,27.68L192.17,17.68L192.96,24.38L193.74,18.45L194.53,25.92L195.32,12.95L196.11,28.12L196.89,17.68L197.68,25.48L198.47,22.07L200.04,25.37L200.83,22.18L201.62,17.9L202.41,23.17L203.19,31.09L203.98,20.64L204.77,21.52L205.56,23.61L206.34,20.86L207.13,14.05L208.71,29.99L209.49,17.35L210.28,34.06L211.07,17.68L211.86,18.67L212.65,24.27L214.22,37.13L215.01,23.39L216.58,30.54L217.37,25.92L218.16,24.6L218.95,28.45L219.73,19.33L220.52,32.52L221.31,26.14L222.1,30.32L222.88,35.59L223.67,22.51L224.46,22.95L225.25,29.66L226.03,28.89L226.82,25.81L228.4,31.09L229.18,34.06L229.97,34.17L230.76,30.54L231.55,38.78L232.33,31.86L233.12,29.77L233.91,29.88L234.7,30.21L235.48,34.28L236.27,35.16L237.06,28.01L237.85,29.77L238.64,28.12L239.42,26.58L240.21,28.45L241,31.42L241.79,23.94L242.57,41.31L243.36,30.87L244.15,24.49L244.94,28.67L245.72,24.6L246.51,38.01L248.09,31.75L248.87,37.02L250.45,25.26L251.24,29.33L252.02,29L252.81,24.93L255.17,39.66L255.96,36.36L256.75,39.22L257.54,31.31L258.32,33.73L259.11,28.12L259.9,27.57L260.69,44.17L262.26,35.92L263.05,35.16L264.63,34.39L265.41,32.41L266.2,29.88L266.99,35.59L269.35,26.36L270.14,32.52L270.93,27.35L271.71,41.09L273.29,33.29L274.08,29.88L274.86,37.9L275.65,33.18L277.23,35.27L278.01,30.65L278.8,24.27L279.59,38.12L280.38,34.83L281.16,34.94L281.95,32.08L282.74,37.57L283.53,29.66L284.31,35.05L285.1,30.43L285.89,43.29L286.68,34.94L287.46,38.56L288.25,34.39L289.04,38.01L290.62,31.31L291.4,39.66L292.19,45.49L292.98,28.01L294.55,40.1L295.34,32.96L296.13,42.41L296.92,33.62L298.49,37.35L299.28,38.12L300.07,34.72L300.85,35.81L301.64,28.56L302.43,35.27L303.22,28.89L304,30.65L304.79,40.54L305.58,34.72L306.37,31.97L307.15,35.38L307.94,34.06L308.73,37.68L309.52,33.29L310.3,37.35L311.88,32.74L312.67,28.23L314.24,35.27L315.03,32.41L316.61,43.4L317.39,41.31L319.76,31.31L320.54,37.24L321.33,33.84L322.12,38.01L322.91,36.36L323.69,36.47L324.48,36.14L325.27,33.62L326.06,34.5L326.84,37.35L327.63,38.89L328.42,37.57L329.21,38.67L329.99,34.61L330.78,38.78L331.57,36.25L332.36,41.31L333.14,39.11L333.93,34.39L334.72,34.5L336.29,22.62L337.08,30.76L338.66,39.22L339.44,39L340.23,30.32L341.02,32.08L341.81,45.49L342.6,38.89L343.38,29.55L344.17,36.36L344.96,30.54L345.75,37.57L346.53,29L347.32,36.03L348.11,39.11L348.9,32.63L349.68,31.97L350.47,29.88L351.26,26.8L352.05,32.19L352.83,26.25L353.62,28.89L354.41,33.4L355.2,29.66L355.98,23.83L356.77,25.15L357.56,33.73L358.35,26.14L359.13,26.14L359.92,24.05L361.5,33.51L362.28,31.2L363.86,28.56L364.65,32.19L365.43,36.03L366.22,28.89L367.01,28.45L367.8,26.8L370.16,29.55L370.95,37.02L371.74,31.31L372.52,32.85L373.31,27.9L374.1,33.4L374.89,33.07L375.67,34.17L376.46,35.05L377.25,28.23L378.04,24.71L378.82,25.7L379.61,26.36L380.4,24.49L381.19,29.77L381.97,22.18L383.55,38.01L384.34,27.9L385.12,28.67L385.91,38.12L386.7,22.07L387.49,30.43L388.27,33.73L389.06,26.8L389.85,23.39L390.64,32.52L391.42,26.36L392.21,30.1L393,32.19L393,52.52L392.21,51.64L391.42,47.36L390.64,46.26L389.85,55.05L389.06,45.05L388.27,47.03L387.49,51.86L386.7,42.19L385.91,52.08L385.12,51.64L384.34,54.61L383.55,48.46L381.97,51.97L381.19,50.11L380.4,44.17L379.61,48.57L378.82,54.28L378.04,50L376.46,58.13L375.67,45.93L374.89,44.28L374.1,48.9L373.31,49.45L372.52,40.21L370.95,54.06L370.16,52.08L369.37,46.59L368.59,47.25L367.01,54.72L366.22,48.68L365.43,49.78L364.65,52.3L363.86,53.07L363.07,51.86L362.28,45.82L361.5,53.95L360.71,53.51L359.92,54.39L358.35,43.4L357.56,48.57L356.77,44.5L355.98,44.94L355.2,40.76L354.41,45.71L353.62,42.52L352.83,52.3L352.05,49.23L351.26,39.33L350.47,49.34L349.68,40.98L347.32,58.57L346.53,42.3L345.75,53.95L344.96,46.15L344.17,57.47L343.38,45.6L342.6,55.16L341.81,53.73L341.02,56.81L340.23,45.71L339.44,52.74L338.66,48.46L337.87,42.19L337.08,47.91L335.51,54.94L334.72,51.09L333.93,47.58L333.14,50L332.36,49.12L331.57,52.08L330.78,48.68L329.99,55.93L328.42,47.36L327.63,50.22L326.84,48.35L326.06,52.41L325.27,48.35L324.48,55.93L322.91,44.94L322.12,49.89L321.33,45.6L320.54,53.18L319.76,52.41L318.97,49.01L318.18,45.82L317.39,50.33L316.61,50.33L315.82,47.03L315.03,45.16L314.24,47.8L313.45,44.06L312.67,48.35L311.88,44.28L311.09,50.54L310.3,49.89L309.52,51.31L308.73,53.84L307.94,46.81L307.15,50.98L306.37,50.98L305.58,45.82L304.79,47.47L304,56.48L303.22,48.79L302.43,43.4L301.64,47.47L300.85,50.22L300.07,48.68L299.28,46.37L298.49,49.23L297.7,49.34L296.92,48.57L296.13,50L295.34,43.95L293.77,50.98L292.98,54.17L292.19,52.85L291.4,55.05L290.62,51.53L289.83,53.07L289.04,55.38L288.25,45.16L287.46,51.31L286.68,48.02L285.1,52.74L284.31,50.11L283.53,52.19L282.74,59.12L281.16,53.4L280.38,53.73L279.59,50.98L278.8,51.97L278.01,47.47L277.23,58.13L276.44,48.35L275.65,51.64L274.86,55.38L274.08,50.65L272.5,56.37L271.71,52.85L270.14,50L269.35,49.12L268.56,57.58L267.78,50.87L266.99,52.08L266.2,48.46L265.41,49.01L264.63,57.69L263.84,56.15L263.05,49.12L262.26,47.91L261.47,52.85L260.69,58.46L259.9,48.9L259.11,50.87L258.32,56.7L257.54,43.18L256.75,58.68L255.96,49.56L255.17,52.85L253.6,47.69L252.81,46.26L252.02,52.3L251.24,45.93L249.66,47.58L248.87,51.09L248.09,50.55L247.3,56.92L246.51,44.61L245.72,50.55L244.94,52.85L244.15,60.22L241.79,47.03L241,45.27L240.21,48.9L239.42,47.69L237.85,48.02L237.06,49.89L236.27,50.33L235.48,52.3L234.7,49.23L233.91,53.07L233.12,51.64L232.33,47.47L231.55,53.73L230.76,52.85L229.97,54.39L229.18,58.24L227.61,47.14L226.82,55.6L226.03,59.89L225.25,51.64L224.46,55.05L223.67,51.64L222.88,49.45L222.1,53.73L221.31,53.18L220.52,54.72L219.73,60.22L218.95,55.49L218.16,51.53L217.37,57.47L215.8,50.76L215.01,50.87L214.22,48.68L213.43,51.64L211.86,54.39L211.07,50.33L210.28,50.22L209.49,44.17L208.71,51.09L207.92,48.02L207.13,53.29L206.34,51.42L205.56,48.24L204.77,52.63L203.98,48.46L203.19,51.09L202.41,48.46L201.62,52.96L200.83,51.42L200.04,54.28L199.26,53.62L198.47,50.54L197.68,47.14L196.89,52.19L196.11,51.75L195.32,45.16L193.74,49.34L192.96,50.87L192.17,56.92L191.38,50.65L190.59,51.53L189.81,50.22L189.02,50.33L188.23,55.93L187.44,50.11L186.66,59.45L185.87,49.78L185.08,57.8L184.29,51.09L183.51,52.3L182.72,59.23L181.93,56.37L180.35,49.01L179.57,58.68L178.78,60.77L177.99,58.46L177.2,51.86L176.42,54.94L173.27,59.67L172.48,54.83L171.69,55.6L170.9,50.65L169.33,57.03L168.54,56.59L167.75,57.47L166.97,57.14L165.39,62.31L164.6,57.8L163.03,49.67L162.24,57.03L161.45,54.72L160.67,55.49L159.88,51.64L159.09,53.07L158.3,59.67L157.52,57.58L156.73,52.08L155.94,53.29L155.15,49.34L154.36,52.85L153.58,48.35L152.79,56.15L152,51.31L151.21,57.69L150.43,56.92L149.64,54.72L148.85,56.04L148.06,55.6L146.49,60.77L145.7,58.13L144.91,59.01L144.13,65.06L142.55,61.87L141.76,62.97L140.19,63.63L139.4,61.21L138.61,69.23L137.83,65.28L137.04,66.7L136.25,70L134.68,65.28L133.89,69.34L133.1,66.81L132.31,69.23L131.53,74.62L130.74,69.01L129.95,80.12L129.16,74.29L128.37,73.3L127.59,66.26L126.8,72.09L126.01,68.79L124.44,74.84L123.65,74.73L122.86,74.95L122.07,76.27L121.29,76.16L120.5,73.74L119.71,72.09L118.92,67.14L117.35,70.99L116.56,71.43L115.77,69.89L114.99,65.28L114.2,77.15L113.41,72.86L112.62,81.21L111.84,75.06L109.47,69.56L108.69,72.31L107.9,77.48L107.11,77.59L106.32,70.22L105.54,81.21L104.75,86.16L103.96,79.46L103.17,84.62L102.38,75.5L101.6,75.94L100.81,71.54L100.02,83.96L99.23,80.88L98.45,68.13L97.66,84.73L96.08,77.92L95.3,78.91L94.51,80.45L93.72,77.26L92.93,74.18L92.15,88.03L91.36,80.56L90.57,95.51L89.78,80.88L89,84.84L87.42,94.08L86.63,84.4L85.85,78.25L85.06,84.4L83.48,90.12L82.7,87.15L81.91,92.54L81.12,90.78L79.55,98.58L78.76,91.44L77.97,84.07L77.18,92.65L75.61,99.13L74.82,88.36L74.03,93.42L73.24,91.88L71.67,106.17L70.88,103.09L70.09,110.89L69.31,104.63L67.73,119.47L66.94,114.41L65.37,126.72L64.58,122.88L63.01,141.67L62.22,130.9L61.43,134.97L60.64,147.83L59.86,143.1L59.07,144.64L57.49,150.14L56.71,155.75L55.92,149.59L55.13,159.7L53.56,158.49L52.77,151.68L51.98,154.65L51.19,164.21L50.4,169.38L49.62,158.27L48.83,175.75L48.04,169.49L47.25,158.93L46.47,168.61L44.89,166.3L44.1,166.3L42.53,183.01L41.74,185.32L40.95,183.67L40.17,194.33L38.59,191.91L37.8,193.12L37.02,205.98L36.23,203.56L34.65,207.52L33.87,212.14L33.08,215.22L32.29,214.67L31.5,204.55L30.72,211.48L29.93,205.65L29.14,220.16L28.35,210.38L27.57,215.66L25.99,227.2L25.2,223.24L24.41,227.42L23.63,223.9L22.84,224.89L22.05,223.46L21.26,227.75L20.48,227.2L17.33,235.22L16.54,239.84L14.96,243.58L14.18,244.24L13.39,245.34L12.6,245.01L11.03,245.45L10.24,245.45L8.66,245.67L7.88,245.34L7.09,246L6.3,245.67L0,245.89Z" style="fill: rgb(239, 85, 59); fill-opacity: 0.3; stroke-width: 0;"/></g></g><g class="errorbars"/><g class="lines"><path class="js-line" d="M0,245.78L1.58,243.69L2.36,243.8L3.15,243.36L3.94,244.13L7.09,234.45L7.88,233.9L9.45,228.52L10.24,222.91L11.81,226.98L12.6,219.39L13.39,208.29L14.18,211.15L14.96,204.77L15.75,213.02L16.54,216.09L17.33,207.3L18.11,209.61L18.9,201.47L19.69,201.47L20.48,198.62L21.26,209.39L22.05,206.09L22.84,207.3L23.63,200.16L25.2,204.44L25.99,198.95L26.78,196.97L27.57,189.93L29.93,169.27L30.72,175.42L32.29,166.63L33.08,166.08L35.44,142L36.23,146.18L37.8,128.48L38.59,117.6L39.38,117.71L40.17,116.17L40.95,125.52L41.74,118.92L42.53,105.62L43.32,107.71L44.1,111.22L44.89,99.24L45.68,86.49L46.47,103.64L48.04,97.59L48.83,112.76L49.62,109.14L50.4,100.01L52.77,91L53.56,86.82L54.34,92.54L55.13,85.94L56.71,98.03L57.49,98.8L58.28,91.99L59.07,95.94L59.86,101.77L60.64,101.88L61.43,92.1L62.22,94.41L63.01,94.52L63.79,92.54L65.37,89.02L66.16,84.18L67.73,82.2L68.52,76.6L69.31,76.6L70.09,79.02L70.88,75.28L71.67,80.12L72.46,83.52L73.24,80.12L74.03,79.35L74.82,81.98L75.61,83.41L76.39,80.88L77.97,74.51L78.76,84.29L81.91,68.35L82.7,75.94L83.48,76.6L84.27,72.75L85.06,63.74L85.85,65.93L86.63,75.06L87.42,69.34L88.21,66.92L89,70L89.78,66.37L90.57,67.91L91.36,72.64L92.15,69.12L92.93,67.03L93.72,67.8L95.3,65.5L96.08,61.43L96.87,60.77L97.66,65.17L98.45,58.68L99.23,62.97L100.02,61.76L100.81,65.39L103.17,52.3L103.96,58.35L104.75,49.12L105.54,57.91L106.32,47.69L107.11,47.58L107.9,48.68L108.69,54.83L109.47,49.78L110.26,57.25L111.05,53.18L111.84,53.07L113.41,56.59L114.2,51.31L114.99,51.09L115.77,42.74L116.56,41.97L117.35,58.35L118.14,45.27L118.92,54.39L119.71,57.14L120.5,48.57L121.29,62.53L122.07,54.06L122.86,62.86L123.65,52.19L124.44,69.45L125.22,56.92L126.01,60.22L126.8,50.98L127.59,54.28L128.37,53.51L129.16,59.34L129.95,50.54L130.74,57.03L131.53,53.18L132.31,53.95L133.1,38.67L133.89,50.22L134.68,46.92L135.46,55.82L136.25,49.34L138.61,43.4L139.4,50.33L140.19,44.28L140.98,47.03L141.76,41.86L142.55,42.52L143.34,44.39L144.13,41.86L144.91,42.52L145.7,38.01L146.49,35.92L147.28,43.18L148.06,39.11L148.85,43.4L149.64,29.99L150.43,33.62L151.21,34.72L152,37.24L152.79,42.19L153.58,33.95L154.36,34.61L155.15,26.14L156.73,33.62L157.52,25.92L158.3,22.29L159.09,33.07L160.67,22.4L161.45,29.99L163.82,26.36L164.6,21.63L165.39,31.31L166.18,20.97L167.75,33.84L168.54,26.25L170.12,18.12L170.9,24.82L171.69,23.06L172.48,30.65L173.27,30.1L174.05,34.17L174.84,19.77L175.63,23.72L177.2,21.96L177.99,16.03L178.78,22.84L179.57,22.62L181.14,15.48L181.93,14.82L183.51,31.53L184.29,20.64L185.08,19.99L185.87,26.14L187.44,18.78L188.23,22.95L189.02,27.68L189.81,14.38L191.38,27.68L192.17,17.68L192.96,24.38L193.74,18.45L194.53,25.92L195.32,12.95L196.11,28.12L196.89,17.68L197.68,25.48L198.47,22.07L200.04,25.37L200.83,22.18L201.62,17.9L202.41,23.17L203.19,31.09L203.98,20.64L204.77,21.52L205.56,23.61L206.34,20.86L207.13,14.05L208.71,29.99L209.49,17.35L210.28,34.06L211.07,17.68L211.86,18.67L212.65,24.27L214.22,37.13L215.01,23.39L216.58,30.54L217.37,25.92L218.16,24.6L218.95,28.45L219.73,19.33L220.52,32.52L221.31,26.14L222.1,30.32L222.88,35.59L223.67,22.51L224.46,22.95L225.25,29.66L226.03,28.89L226.82,25.81L228.4,31.09L229.18,34.06L229.97,34.17L230.76,30.54L231.55,38.78L232.33,31.86L233.12,29.77L233.91,29.88L234.7,30.21L235.48,34.28L236.27,35.16L237.06,28.01L237.85,29.77L238.64,28.12L239.42,26.58L240.21,28.45L241,31.42L241.79,23.94L242.57,41.31L243.36,30.87L244.15,24.49L244.94,28.67L245.72,24.6L246.51,38.01L248.09,31.75L248.87,37.02L250.45,25.26L251.24,29.33L252.02,29L252.81,24.93L255.17,39.66L255.96,36.36L256.75,39.22L257.54,31.31L258.32,33.73L259.11,28.12L259.9,27.57L260.69,44.17L262.26,35.92L263.05,35.16L264.63,34.39L265.41,32.41L266.2,29.88L266.99,35.59L269.35,26.36L270.14,32.52L270.93,27.35L271.71,41.09L273.29,33.29L274.08,29.88L274.86,37.9L275.65,33.18L277.23,35.27L278.01,30.65L278.8,24.27L279.59,38.12L280.38,34.83L281.16,34.94L281.95,32.08L282.74,37.57L283.53,29.66L284.31,35.05L285.1,30.43L285.89,43.29L286.68,34.94L287.46,38.56L288.25,34.39L289.04,38.01L290.62,31.31L291.4,39.66L292.19,45.49L292.98,28.01L294.55,40.1L295.34,32.96L296.13,42.41L296.92,33.62L298.49,37.35L299.28,38.12L300.07,34.72L300.85,35.81L301.64,28.56L302.43,35.27L303.22,28.89L304,30.65L304.79,40.54L305.58,34.72L306.37,31.97L307.15,35.38L307.94,34.06L308.73,37.68L309.52,33.29L310.3,37.35L311.88,32.74L312.67,28.23L314.24,35.27L315.03,32.41L316.61,43.4L317.39,41.31L319.76,31.31L320.54,37.24L321.33,33.84L322.12,38.01L322.91,36.36L323.69,36.47L324.48,36.14L325.27,33.62L326.06,34.5L326.84,37.35L327.63,38.89L328.42,37.57L329.21,38.67L329.99,34.61L330.78,38.78L331.57,36.25L332.36,41.31L333.14,39.11L333.93,34.39L334.72,34.5L336.29,22.62L337.08,30.76L338.66,39.22L339.44,39L340.23,30.32L341.02,32.08L341.81,45.49L342.6,38.89L343.38,29.55L344.17,36.36L344.96,30.54L345.75,37.57L346.53,29L347.32,36.03L348.11,39.11L348.9,32.63L349.68,31.97L350.47,29.88L351.26,26.8L352.05,32.19L352.83,26.25L353.62,28.89L354.41,33.4L355.2,29.66L355.98,23.83L356.77,25.15L357.56,33.73L358.35,26.14L359.13,26.14L359.92,24.05L361.5,33.51L362.28,31.2L363.86,28.56L364.65,32.19L365.43,36.03L366.22,28.89L367.01,28.45L367.8,26.8L370.16,29.55L370.95,37.02L371.74,31.31L372.52,32.85L373.31,27.9L374.1,33.4L374.89,33.07L375.67,34.17L376.46,35.05L377.25,28.23L378.04,24.71L378.82,25.7L379.61,26.36L380.4,24.49L381.19,29.77L381.97,22.18L383.55,38.01L384.34,27.9L385.12,28.67L385.91,38.12L386.7,22.07L387.49,30.43L388.27,33.73L389.06,26.8L389.85,23.39L390.64,32.52L391.42,26.36L392.21,30.1L393,32.19L393,52.52L392.21,51.64L391.42,47.36L390.64,46.26L389.85,55.05L389.06,45.05L388.27,47.03L387.49,51.86L386.7,42.19L385.91,52.08L385.12,51.64L384.34,54.61L383.55,48.46L381.97,51.97L381.19,50.11L380.4,44.17L379.61,48.57L378.82,54.28L378.04,50L376.46,58.13L375.67,45.93L374.89,44.28L374.1,48.9L373.31,49.45L372.52,40.21L370.95,54.06L370.16,52.08L369.37,46.59L368.59,47.25L367.01,54.72L366.22,48.68L365.43,49.78L364.65,52.3L363.86,53.07L363.07,51.86L362.28,45.82L361.5,53.95L360.71,53.51L359.92,54.39L358.35,43.4L357.56,48.57L356.77,44.5L355.98,44.94L355.2,40.76L354.41,45.71L353.62,42.52L352.83,52.3L352.05,49.23L351.26,39.33L350.47,49.34L349.68,40.98L347.32,58.57L346.53,42.3L345.75,53.95L344.96,46.15L344.17,57.47L343.38,45.6L342.6,55.16L341.81,53.73L341.02,56.81L340.23,45.71L339.44,52.74L338.66,48.46L337.87,42.19L337.08,47.91L335.51,54.94L334.72,51.09L333.93,47.58L333.14,50L332.36,49.12L331.57,52.08L330.78,48.68L329.99,55.93L328.42,47.36L327.63,50.22L326.84,48.35L326.06,52.41L325.27,48.35L324.48,55.93L322.91,44.94L322.12,49.89L321.33,45.6L320.54,53.18L319.76,52.41L318.97,49.01L318.18,45.82L317.39,50.33L316.61,50.33L315.82,47.03L315.03,45.16L314.24,47.8L313.45,44.06L312.67,48.35L311.88,44.28L311.09,50.54L310.3,49.89L309.52,51.31L308.73,53.84L307.94,46.81L307.15,50.98L306.37,50.98L305.58,45.82L304.79,47.47L304,56.48L303.22,48.79L302.43,43.4L301.64,47.47L300.85,50.22L300.07,48.68L299.28,46.37L298.49,49.23L297.7,49.34L296.92,48.57L296.13,50L295.34,43.95L293.77,50.98L292.98,54.17L292.19,52.85L291.4,55.05L290.62,51.53L289.83,53.07L289.04,55.38L288.25,45.16L287.46,51.31L286.68,48.02L285.1,52.74L284.31,50.11L283.53,52.19L282.74,59.12L281.16,53.4L280.38,53.73L279.59,50.98L278.8,51.97L278.01,47.47L277.23,58.13L276.44,48.35L275.65,51.64L274.86,55.38L274.08,50.65L272.5,56.37L271.71,52.85L270.14,50L269.35,49.12L268.56,57.58L267.78,50.87L266.99,52.08L266.2,48.46L265.41,49.01L264.63,57.69L263.84,56.15L263.05,49.12L262.26,47.91L261.47,52.85L260.69,58.46L259.9,48.9L259.11,50.87L258.32,56.7L257.54,43.18L256.75,58.68L255.96,49.56L255.17,52.85L253.6,47.69L252.81,46.26L252.02,52.3L251.24,45.93L249.66,47.58L248.87,51.09L248.09,50.55L247.3,56.92L246.51,44.61L245.72,50.55L244.94,52.85L244.15,60.22L241.79,47.03L241,45.27L240.21,48.9L239.42,47.69L237.85,48.02L237.06,49.89L236.27,50.33L235.48,52.3L234.7,49.23L233.91,53.07L233.12,51.64L232.33,47.47L231.55,53.73L230.76,52.85L229.97,54.39L229.18,58.24L227.61,47.14L226.82,55.6L226.03,59.89L225.25,51.64L224.46,55.05L223.67,51.64L222.88,49.45L222.1,53.73L221.31,53.18L220.52,54.72L219.73,60.22L218.95,55.49L218.16,51.53L217.37,57.47L215.8,50.76L215.01,50.87L214.22,48.68L213.43,51.64L211.86,54.39L211.07,50.33L210.28,50.22L209.49,44.17L208.71,51.09L207.92,48.02L207.13,53.29L206.34,51.42L205.56,48.24L204.77,52.63L203.98,48.46L203.19,51.09L202.41,48.46L201.62,52.96L200.83,51.42L200.04,54.28L199.26,53.62L198.47,50.54L197.68,47.14L196.89,52.19L196.11,51.75L195.32,45.16L193.74,49.34L192.96,50.87L192.17,56.92L191.38,50.65L190.59,51.53L189.81,50.22L189.02,50.33L188.23,55.93L187.44,50.11L186.66,59.45L185.87,49.78L185.08,57.8L184.29,51.09L183.51,52.3L182.72,59.23L181.93,56.37L180.35,49.01L179.57,58.68L178.78,60.77L177.99,58.46L177.2,51.86L176.42,54.94L173.27,59.67L172.48,54.83L171.69,55.6L170.9,50.65L169.33,57.03L168.54,56.59L167.75,57.47L166.97,57.14L165.39,62.31L164.6,57.8L163.03,49.67L162.24,57.03L161.45,54.72L160.67,55.49L159.88,51.64L159.09,53.07L158.3,59.67L157.52,57.58L156.73,52.08L155.94,53.29L155.15,49.34L154.36,52.85L153.58,48.35L152.79,56.15L152,51.31L151.21,57.69L150.43,56.92L149.64,54.72L148.85,56.04L148.06,55.6L146.49,60.77L145.7,58.13L144.91,59.01L144.13,65.06L142.55,61.87L141.76,62.97L140.19,63.63L139.4,61.21L138.61,69.23L137.83,65.28L137.04,66.7L136.25,70L134.68,65.28L133.89,69.34L133.1,66.81L132.31,69.23L131.53,74.62L130.74,69.01L129.95,80.12L129.16,74.29L128.37,73.3L127.59,66.26L126.8,72.09L126.01,68.79L124.44,74.84L123.65,74.73L122.86,74.95L122.07,76.27L121.29,76.16L120.5,73.74L119.71,72.09L118.92,67.14L117.35,70.99L116.56,71.43L115.77,69.89L114.99,65.28L114.2,77.15L113.41,72.86L112.62,81.21L111.84,75.06L109.47,69.56L108.69,72.31L107.9,77.48L107.11,77.59L106.32,70.22L105.54,81.21L104.75,86.16L103.96,79.46L103.17,84.62L102.38,75.5L101.6,75.94L100.81,71.54L100.02,83.96L99.23,80.88L98.45,68.13L97.66,84.73L96.08,77.92L95.3,78.91L94.51,80.45L93.72,77.26L92.93,74.18L92.15,88.03L91.36,80.56L90.57,95.51L89.78,80.88L89,84.84L87.42,94.08L86.63,84.4L85.85,78.25L85.06,84.4L83.48,90.12L82.7,87.15L81.91,92.54L81.12,90.78L79.55,98.58L78.76,91.44L77.97,84.07L77.18,92.65L75.61,99.13L74.82,88.36L74.03,93.42L73.24,91.88L71.67,106.17L70.88,103.09L70.09,110.89L69.31,104.63L67.73,119.47L66.94,114.41L65.37,126.72L64.58,122.88L63.01,141.67L62.22,130.9L61.43,134.97L60.64,147.83L59.86,143.1L59.07,144.64L57.49,150.14L56.71,155.75L55.92,149.59L55.13,159.7L53.56,158.49L52.77,151.68L51.98,154.65L51.19,164.21L50.4,169.38L49.62,158.27L48.83,175.75L48.04,169.49L47.25,158.93L46.47,168.61L44.89,166.3L44.1,166.3L42.53,183.01L41.74,185.32L40.95,183.67L40.17,194.33L38.59,191.91L37.8,193.12L37.02,205.98L36.23,203.56L34.65,207.52L33.87,212.14L33.08,215.22L32.29,214.67L31.5,204.55L30.72,211.48L29.93,205.65L29.14,220.16L28.35,210.38L27.57,215.66L25.99,227.2L25.2,223.24L24.41,227.42L23.63,223.9L22.84,224.89L22.05,223.46L21.26,227.75L20.48,227.2L17.33,235.22L16.54,239.84L14.96,243.58L14.18,244.24L13.39,245.34L12.6,245.01L11.03,245.45L10.24,245.45L8.66,245.67L7.88,245.34L7.09,246L6.3,245.67L0,245.89" style="vector-effect: non-scaling-stroke; fill: none; stroke: rgb(0, 0, 0); stroke-opacity: 0; stroke-width: 2px; opacity: 1;"/></g><g class="points"/><g class="text"/></g><g class="trace scatter trace8e0568" style="stroke-miterlimit: 2; opacity: 1;"><g class="fills"/><g class="errorbars"/><g class="lines"><path class="js-line" d="M0,245.56L1.58,245.12L2.36,244.35L5.51,244.9L6.3,244.79L7.88,244.13L8.66,244.13L10.24,243.36L11.03,244.46L11.81,244.46L12.6,240.61L13.39,236.76L14.18,239.29L15.75,240.06L16.54,238.41L18.11,243.58L18.9,243.36L19.69,244.13L20.48,243.69L21.26,244.24L22.05,243.8L23.63,244.68L24.41,242.92L25.2,237.2L25.99,237.53L26.78,240.17L27.57,237.75L28.35,236.43L29.14,232.8L30.72,228.41L31.5,230.61L33.08,227.53L33.87,230.83L34.65,235.77L35.44,230.28L37.8,220.82L38.59,215.55L39.38,218.95L40.17,212.03L40.95,212.47L41.74,219.17L43.32,202.9L44.1,205.1L44.89,206.42L45.68,206.09L46.47,201.36L47.25,205.32L48.04,204.77L48.83,202.68L50.4,194.44L51.19,194.99L51.98,196.86L52.77,196.64L55.13,180.04L55.92,180.92L57.49,178.39L58.28,174.21L59.86,178.17L60.64,174.32L61.43,175.09L62.22,181.25L63.01,170.15L63.79,172.23L65.37,164.43L66.16,168.72L66.94,169.71L67.73,162.45L68.52,165.31L69.31,159.26L70.09,167.51L70.88,164.98L71.67,162.56L72.46,169.82L74.03,158.05L74.82,160.91L75.61,158.05L76.39,164.87L77.18,164.65L77.97,159.37L78.76,164.43L79.55,161.13L80.33,159.15L81.12,152.89L81.91,159.15L82.7,157.61L84.27,150.69L85.06,153.77L85.85,155.42L86.63,149.7L87.42,158.16L88.21,157.94L89,155.53L89.78,160.03L90.57,161.24L91.36,157.83L92.15,157.17L92.93,161.68L94.51,157.83L95.3,160.14L96.08,155.96L96.87,158.38L98.45,162.12L99.23,155.42L100.02,156.4L100.81,158.93L101.6,161.79L102.38,150.91L103.17,153.88L103.96,150.14L104.75,152.34L105.54,157.5L106.32,150.47L107.11,152.56L107.9,155.75L108.69,153.55L109.47,155.2L110.26,159.15L111.05,152.45L111.84,156.73L112.62,153.22L113.41,155.64L114.2,155.09L114.99,149.15L115.77,144.86L116.56,151.57L118.14,141.23L118.92,146.51L119.71,151.68L120.5,150.69L121.29,151.13L122.07,146.07L122.86,147.83L123.65,152.67L125.22,147.06L126.01,148.05L127.59,150.36L128.37,146.29L129.16,145.52L129.95,146.95L130.74,144.09L131.53,144.42L132.31,147.83L133.1,145.96L133.89,143.43L134.68,146.51L135.46,142.55L136.25,144.64L137.04,149.7L137.83,138.82L138.61,146.4L139.4,142.77L140.19,147.28L140.98,141.89L141.76,145.3L142.55,144.42L143.34,143.87L144.13,140.14L144.91,138.27L145.7,140.79L146.49,148.93L147.28,143.87L148.06,144.09L148.85,143.21L150.43,142L151.21,144.86L152.79,140.69L153.58,146.07L154.36,143.65L155.15,146.62L155.94,146.73L156.73,143.1L157.52,136.95L158.3,142.44L159.88,137.5L160.67,141.12L161.45,138.93L162.24,146.84L163.03,140.36L163.82,143.65L164.6,138.16L165.39,143.54L166.97,140.47L167.75,140.79L168.54,144.64L169.33,144.09L170.12,142.33L170.9,145.19L171.69,144.31L172.48,139.04L173.27,144.75L174.05,139.26L175.63,147.94L176.42,140.69L177.2,142.66L177.99,138.82L178.78,139.7L179.57,138.93L180.35,138.16L181.14,145.85L181.93,144.75L182.72,136.29L183.51,138.71L184.29,138.38L185.08,137.83L185.87,134.64L186.66,136.84L187.44,131.12L189.02,139.92L189.81,133.32L190.59,139.26L191.38,134.64L192.17,133.32L192.96,139.48L193.74,140.9L194.53,138.16L195.32,139.15L196.11,133.21L196.89,141.67L197.68,140.14L198.47,143.54L199.26,137.06L200.04,141.34L200.83,133.87L202.41,140.9L203.19,142.44L204.77,137.61L205.56,136.73L206.34,143.43L207.13,134.75L207.92,135.08L208.71,134.09L210.28,133.1L211.07,125.63L211.86,132.11L212.65,129.03L213.43,129.69L214.22,126.39L215.01,137.39L215.8,131.89L217.37,135.52L218.16,130.24L218.95,130.24L219.73,128.48L221.31,132.55L222.1,129.14L223.67,131.78L224.46,131.01L226.03,125.19L226.82,129.91L228.4,134.2L229.18,131.67L229.97,126.5L230.76,135.63L231.55,131.78L232.33,132.33L233.12,130.24L233.91,131.78L234.7,127.27L235.48,131.01L237.06,128.59L237.85,132.77L238.64,136.95L239.42,126.28L240.21,126.17L241,128.7L241.79,131.23L242.57,129.47L243.36,134.64L244.15,129.58L244.94,128.81L245.72,131.34L246.51,133.76L247.3,131.34L249.66,133.32L250.45,129.36L252.02,124.86L252.81,125.3L253.6,126.61L254.39,125.08L255.17,135.96L255.96,128.7L257.54,132L258.32,127.27L259.11,121.34L259.9,124.53L260.69,124.86L261.47,122.66L262.26,126.06L263.05,124.2L264.63,121.34L265.41,118.7L266.2,129.14L266.99,122.77L267.78,126.39L268.56,120.79L269.35,125.74L270.14,122.44L270.93,130.46L271.71,122.44L272.5,119.25L273.29,121.34L274.86,122.11L275.65,122.55L276.44,119.91L277.23,123.87L278.8,129.14L279.59,121.89L280.38,129.14L281.16,122.99L281.95,123.98L282.74,131.01L284.31,120.13L285.1,128.48L285.89,120.13L286.68,125.63L287.46,134.75L288.25,115.62L289.83,128.04L290.62,120.68L291.4,127.27L292.19,123.98L292.98,131.56L293.77,127.93L294.55,121.67L295.34,132L296.13,120.79L296.92,123.87L297.7,121.23L298.49,122.88L299.28,120.35L300.07,126.06L301.64,127.93L302.43,124.2L303.22,122.22L304,128.15L305.58,122.33L306.37,124.64L307.15,124.2L307.94,130.35L308.73,129.36L309.52,125.52L310.3,117.82L311.09,125.84L311.88,125.74L312.67,124.86L313.45,125.95L314.24,129.14L315.03,126.83L315.82,126.94L316.61,126.39L317.39,123.87L318.18,128.81L318.97,127.93L319.76,131.78L320.54,128.48L321.33,124.97L322.12,131.34L322.91,127.6L323.69,131.34L324.48,132.55L325.27,128.04L326.84,124.86L327.63,135.63L329.21,128.37L329.99,130.9L330.78,129.58L331.57,123.76L332.36,128.92L333.14,127.16L335.51,126.06L336.29,126.61L337.08,135.41L337.87,129.47L338.66,126.72L339.44,121.12L340.23,130.13L341.02,129.91L341.81,120.9L342.6,122.88L344.96,127.6L345.75,128.48L346.53,123.21L347.32,130.46L348.11,127.71L348.9,121.89L349.68,124.64L350.47,122.99L352.83,126.17L353.62,118.81L354.41,127.93L355.2,122.77L355.98,120.79L356.77,127.38L357.56,117.38L358.35,118.15L359.13,126.17L359.92,126.39L361.5,122.66L362.28,126.5L363.86,121.34L364.65,125.19L365.43,121.89L366.22,128.92L367.01,117.38L367.8,125.41L368.59,120.35L369.37,126.06L370.95,116.72L371.74,124.75L373.31,120.02L374.1,119.69L375.67,124.64L376.46,122.66L378.04,119.69L378.82,122.22L380.4,128.81L381.19,120.57L381.97,126.5L382.76,123.32L385.12,114.19L385.91,124.75L386.7,118.37L387.49,127.71L388.27,124.2L389.06,124.31L389.85,127.27L390.64,121.45L391.42,115.29L392.21,120.68L393,123.43" style="vector-effect: non-scaling-stroke; fill: none; stroke: rgb(0, 204, 150); stroke-opacity: 1; stroke-width: 2px; opacity: 1;"/></g><g class="points"/><g class="text"/></g><g class="trace scatter tracef950be" style="stroke-miterlimit: 2; opacity: 1;"><g class="fills"><g><path class="js-fill" d="M0,245.28L1.58,243.91L2.36,240.83L3.15,243.58L3.94,243.08L4.73,242.81L5.51,240.77L6.3,238.96L7.09,240.66L7.88,242.04L8.66,240.77L9.45,237.48L10.24,237.42L11.03,237.59L11.81,232.31L12.6,234.23L13.39,229.56L14.18,231.59L14.96,229.23L15.75,228.52L16.54,230.33L17.33,232.31L18.11,228.3L19.69,221.7L20.48,223.9L21.26,228.63L22.05,222.14L22.84,219.94L23.63,215.33L25.2,217.08L25.99,213.68L28.35,222.47L29.14,221.65L30.72,215.38L31.5,220.49L34.65,204.44L35.44,215.38L37.8,197.79L38.59,186.85L39.38,185.37L40.17,195.48L41.74,201.91L42.53,193.5L44.1,186.85L44.89,183.06L45.68,184.27L46.47,174.32L48.04,158.16L48.83,165.36L50.4,141.12L51.19,147.01L51.98,146.4L52.77,138.43L53.56,128.59L54.34,138.1L55.13,142.28L55.92,141.56L56.71,142.5L57.49,146.46L58.28,146.62L59.07,152.94L60.64,145.96L61.43,149.31L62.22,150.96L63.01,144.86L63.79,133.16L64.58,146.68L66.16,139.31L66.94,145.85L67.73,149.2L68.52,145.74L69.31,135.85L70.09,139.48L70.88,130.9L71.67,135.96L72.46,148.65L73.24,147.67L74.03,149.48L74.82,141.23L75.61,146.18L76.39,144.81L77.18,151.4L77.97,141.78L78.76,145.69L79.55,145.74L80.33,138.82L81.12,144.81L81.91,139.53L82.7,144.15L83.48,138.98L84.27,142L86.63,143.93L87.42,149.04L88.21,146.35L89,149.86L89.78,147.06L90.57,136.95L91.36,134.03L92.15,151.46L92.93,144.31L93.72,144.64L95.3,141.45L96.08,148.6L96.87,152.34L97.66,147.06L99.23,138.76L100.02,142.72L100.81,146.4L101.6,142.28L102.38,140.85L103.17,134.69L104.75,140.85L105.54,145.3L106.32,138.21L107.11,140.69L107.9,138.87L108.69,140.58L109.47,141.07L110.26,140.08L112.62,148.11L113.41,144.75L114.2,149.37L114.99,141.07L115.77,135.02L116.56,140.19L117.35,138.93L118.14,135.74L119.71,138.38L120.5,129.91L121.29,130.24L122.07,134.25L123.65,126.06L124.44,122.99L125.22,133.26L126.01,132.77L126.8,124.8L127.59,129.31L128.37,127.38L129.16,135.19L129.95,142.99L130.74,131.95L132.31,124.2L133.1,134.75L133.89,136.73L134.68,141.45L136.25,132.61L137.04,135.13L137.83,132.28L138.61,140.47L139.4,138.49L140.19,134.31L141.76,133.05L142.55,132.22L143.34,137.88L144.13,128.87L144.91,133.98L145.7,131.45L146.49,133.81L147.28,133.05L148.06,133.26L148.85,135.46L150.43,128.1L151.21,128.87L152,133.32L152.79,130.52L154.36,134.31L155.15,129.58L156.73,126.17L157.52,127.22L158.3,133.05L159.09,129.69L159.88,128.21L160.67,121.5L161.45,128.1L162.24,122.82L163.82,128.7L164.6,125.79L165.39,128.92L166.18,122.71L166.97,125.63L167.75,120.24L168.54,117.44L169.33,120.62L170.12,117.99L170.9,126.56L171.69,118.1L172.48,119.19L173.27,122.11L174.05,113.53L175.63,125.3L176.42,113.04L177.2,112.71L177.99,121.61L178.78,109.03L179.57,110.13L180.35,119.19L181.14,114.91L181.93,121.01L182.72,117.11L183.51,112.1L184.29,112.43L185.08,125.19L185.87,116.17L186.66,118.21L187.44,113.97L188.23,115.07L189.02,109.19L189.81,123.1L190.59,115.07L191.38,115.13L192.17,116.17L192.96,109.74L193.74,114.19L194.53,115.95L195.32,115.68L196.11,119.19L196.89,109.03L198.47,113.48L199.26,108.59L200.83,117.6L201.62,110.18L202.41,104.63L203.19,115.18L204.77,112.32L205.56,113.09L206.34,109.74L207.13,113.81L207.92,113.15L208.71,110.78L210.28,124.47L211.07,116.78L211.86,115.51L212.65,120.29L213.43,115.02L214.22,117.33L216.58,109.58L217.37,115.4L218.16,111.44L218.95,119.19L219.73,115.24L220.52,118.31L221.31,122.11L222.1,116.72L222.88,119.96L223.67,119.36L224.46,123.26L225.25,121.61L226.03,120.9L226.82,118.37L227.61,125.52L228.4,120.9L229.18,123.98L229.97,116.12L232.33,126.17L233.12,118.97L234.7,123.26L235.48,114.85L237.06,123.21L237.85,122.22L238.64,124.09L239.42,111.55L241.79,125.95L242.57,118.64L244.15,125.3L244.94,119.47L245.72,123.87L246.51,118.26L247.3,115.4L248.09,122.27L248.87,117.88L249.66,119.3L250.45,103.47L251.24,112.87L252.81,119.41L253.6,117.05L254.39,112.82L255.17,113.97L255.96,111.61L256.75,120.51L257.54,107.1L258.32,114.69L259.11,111.83L259.9,115.79L260.69,114.58L261.47,107.27L263.05,118.1L263.84,116.17L264.63,115.29L265.41,112.82L266.2,111.44L266.99,117L268.56,108.86L269.35,120.18L270.14,110.78L270.93,118.04L272.5,114.58L273.29,114.58L274.08,106.28L274.86,111.55L276.44,115.13L277.23,113.59L278.01,114.14L278.8,112.43L279.59,112.1L280.38,110.57L281.95,113.92L282.74,113.26L283.53,118.48L284.31,113.75L285.1,104.96L285.89,115.57L286.68,111.77L287.46,112.76L288.25,107.16L289.04,115.24L290.62,108.42L291.4,108.92L292.19,112.82L292.98,111.39L293.77,115.07L294.55,102.71L295.34,111.83L296.13,110.78L297.7,105.01L298.49,113.42L299.28,104.9L300.07,117.33L301.64,109.8L302.43,112.54L303.22,113.48L304,116.72L304.79,117.44L305.58,110.02L306.37,114.63L307.15,111.5L307.94,110.95L308.73,115.35L309.52,115.35L310.3,107.05L311.88,116.5L312.67,112.1L313.45,105.62L314.24,112.16L315.03,107.05L315.82,109.63L316.61,108.42L317.39,116.78L318.18,107.76L318.97,117.55L319.76,111L320.54,124.14L321.33,118.64L322.12,118.59L323.69,112.43L324.48,114.3L326.06,107.87L326.84,111.77L327.63,115.95L328.42,112.27L329.99,106.99L330.78,110.46L331.57,111.72L332.36,110.51L333.14,115.13L333.93,109.36L334.72,110.29L335.51,109.47L336.29,109.41L337.08,114.41L337.87,113.75L338.66,114.47L339.44,114.74L340.23,102.54L341.81,114.14L342.6,111.94L343.38,107.6L344.17,113.81L344.96,119.3L345.75,118.86L346.53,113.04L347.32,118.59L348.9,108.86L349.68,108.97L350.47,108.59L351.26,104.13L352.05,110.13L352.83,102.76L353.62,109.69L354.41,107.76L355.2,109.91L355.98,109.69L356.77,107.93L357.56,109.52L358.35,102.32L359.13,108.81L359.92,107.93L360.71,97.98L361.5,115.51L362.28,111.61L363.07,104.74L363.86,105.4L364.65,112.38L365.43,110.35L366.22,101.72L367.01,107.98L368.59,103.58L369.37,103.15L370.95,108.48L371.74,107.87L372.52,106.99L373.31,111.88L374.1,108.15L374.89,108.2L375.67,104.68L376.46,105.01L377.25,108.42L378.04,103.36L379.61,112.49L380.4,102.82L381.97,114.58L382.76,114.03L383.55,106.77L384.34,108.92L385.12,100.67L385.91,108.53L386.7,110.35L387.49,108.75L388.27,105.12L389.06,110.89L389.85,109.58L390.64,110.13L391.42,101.44L392.21,113.48L393,103.25L393,144.59L392.21,138.93L391.42,144.86L390.64,139.04L389.85,144.04L389.06,140.41L388.27,142.33L387.49,138.16L386.7,147.78L385.91,140.58L385.12,145.3L384.34,145.47L383.55,142.61L382.76,147.83L381.97,146.79L381.19,149.81L380.4,149.48L379.61,138.1L378.82,149.09L378.04,143.76L377.25,144.75L375.67,140.08L374.89,151.84L373.31,141.78L372.52,142.33L370.95,144.37L370.16,145.08L369.37,146.4L368.59,142.28L367.8,140.85L367.01,144.37L366.22,143.82L365.43,149.48L364.65,148.82L363.86,144.81L363.07,147.06L362.28,140.3L361.5,145.08L360.71,144.37L359.92,153.11L359.13,149.59L358.35,141.29L357.56,141.01L356.77,146.18L355.98,138.65L355.2,143.32L354.41,142.5L353.62,152.72L352.83,147.78L352.05,138.76L351.26,138.43L349.68,145.58L348.9,138.87L348.11,140.52L347.32,140.19L346.53,140.9L345.75,139.53L344.96,142.72L344.17,140.79L343.38,141.18L342.6,142.88L341.81,141.45L341.02,147.23L340.23,142.06L339.44,147.78L338.66,147.89L337.87,145.41L336.29,144.09L335.51,144.97L333.14,138.43L332.36,140.08L331.57,142.11L330.78,141.23L329.99,142.99L329.21,140.69L328.42,135.9L327.63,138.93L326.06,133.37L325.27,136.34L323.69,141.4L322.91,139.37L322.12,138.98L321.33,139.81L320.54,138.05L319.76,143.05L318.18,136.73L317.39,137.5L316.61,144.04L315.82,134.86L314.24,142.83L313.45,137.83L312.67,134.58L311.88,139.64L311.09,139.75L310.3,136.23L309.52,138.32L308.73,138.27L307.94,137.99L307.15,141.18L306.37,137.22L305.58,137.44L304.79,136.23L304,137.39L303.22,137.33L302.43,138.54L301.64,136.12L300.85,136.62L300.07,140.41L299.28,133.98L297.7,143.05L296.92,141.12L296.13,138.71L295.34,140.08L294.55,134.64L293.77,137.44L292.98,143.27L292.19,136.51L291.4,140.3L290.62,138.21L289.83,142.55L289.04,139.7L288.25,142.55L287.46,139.81L286.68,137.88L285.89,143.93L284.31,140.14L283.53,140.74L282.74,142.88L281.95,138.93L281.16,141.89L280.38,135.02L278.8,140.9L278.01,143.1L277.23,140.9L276.44,142.88L275.65,145.25L274.86,138.98L274.08,144.31L273.29,141.73L272.5,143.43L271.71,139.04L269.35,140.58L268.56,144.09L266.99,146.62L266.2,142.72L265.41,144.64L264.63,139.97L263.84,146.68L263.05,143.87L260.69,133.98L259.9,134.03L258.32,140.14L257.54,136.78L256.75,142.44L255.96,139.7L255.17,141.84L254.39,136.29L253.6,140.03L252.81,139.53L252.02,137.99L251.24,141.12L249.66,144.26L248.87,142.06L248.09,136.84L247.3,138.54L245.72,140.36L244.94,140.19L244.15,134.75L243.36,138.43L241.79,134.86L241,137.5L240.21,140.52L239.42,137.99L237.85,138.87L237.06,138.54L236.27,139.42L235.48,138.05L233.91,140.85L233.12,139.2L231.55,138.76L230.76,143.49L229.97,139.37L229.18,141.84L228.4,138.21L227.61,142.22L226.03,136.34L225.25,139.42L224.46,142L223.67,138.82L222.88,143.54L222.1,139.81L221.31,139.31L220.52,141.07L219.73,134.53L218.95,141.62L217.37,139.86L216.58,145.8L215.8,137.61L215.01,148.43L214.22,146.07L213.43,140.9L212.65,147.17L211.86,142.44L211.07,136.84L210.28,144.04L209.49,150.03L208.71,143.49L207.92,143.1L207.13,146.24L205.56,144.7L204.77,148.65L203.98,149.59L203.19,152.78L201.62,148.11L200.83,150.25L200.04,148.82L199.26,143.38L198.47,148L197.68,147.17L196.89,148.65L196.11,139.48L195.32,152.12L194.53,148.16L193.74,151.46L192.96,150.19L192.17,148.27L191.38,149.97L190.59,152.23L189.81,145.63L189.02,152.01L188.23,146.84L187.44,148.93L186.66,155.64L185.08,145.36L184.29,147.28L183.51,149.2L182.72,144.48L181.93,152.89L181.14,150.41L179.57,146.46L178.78,151.13L177.99,151.51L177.2,154.59L176.42,147.72L175.63,154.37L174.84,156.57L174.05,150.19L172.48,152.61L171.69,150.14L170.9,159.76L170.12,152.72L169.33,150.41L168.54,153.05L166.97,150.69L166.18,144.7L165.39,150.03L164.6,144.97L162.24,153.55L161.45,149.2L160.67,156.9L159.88,150.52L158.3,152.28L157.52,141.84L156.73,154.1L155.94,151.46L154.36,149.59L153.58,148.87L152.79,150.96L152,146.84L151.21,147.67L150.43,153.22L149.64,147.34L148.85,150.08L148.06,152.78L147.28,148L146.49,152.83L145.7,144.97L144.91,142.99L144.13,147.78L143.34,146.57L142.55,147.45L141.76,147.17L140.98,148.38L140.19,151.51L139.4,144.48L138.61,149.26L137.83,146.35L137.04,154.26L136.25,149.75L135.46,154.1L134.68,151.24L133.89,152.06L133.1,160.09L132.31,154.48L131.53,155.25L130.74,152.28L129.95,158.55L129.16,151.24L128.37,151.4L126.8,154.32L126.01,152.12L124.44,154.59L123.65,162.84L122.86,162.01L122.07,157.61L121.29,162.95L120.5,160.36L119.71,159.54L118.92,160.09L118.14,154.43L117.35,164.54L116.56,162.84L115.77,170.81L114.99,172.51L114.2,167.23L113.41,169.49L112.62,177.62L111.84,169.93L111.05,170.2L109.47,183.5L108.69,173.99L107.9,172.18L107.11,179.32L106.32,174.21L105.54,179.16L103.96,171.24L103.17,168.5L102.38,173.28L101.6,167.78L100.81,163.71L100.02,174.38L99.23,169.76L98.45,169.98L97.66,175.81L96.87,169.6L95.3,180.64L94.51,173.55L93.72,170.42L92.93,179.98L92.15,177.02L91.36,180.81L90.57,189.49L89.78,183.61L89,175.26L88.21,179.98L87.42,182.95L86.63,179.98L85.85,182.62L85.06,176.58L82.7,191.2L81.91,178.55L81.12,178.94L80.33,168.55L78.76,175.75L77.97,172.12L77.18,170.64L76.39,181.8L74.82,177.62L74.03,179.05L73.24,177.4L72.46,180.86L70.88,185.48L70.09,191.25L68.52,183.06L67.73,191.53L66.94,192.24L66.16,189.38L65.37,191.58L64.58,190.1L63.79,190.26L63.01,193.83L62.22,195.26L61.43,203.01L60.64,203.23L59.86,198.62L59.07,205.21L58.28,201.8L57.49,214.17L56.71,211.53L55.92,206.15L55.13,209.88L54.34,201.25L53.56,212.52L52.77,214.67L51.98,210.05L51.19,210.93L50.4,214.56L49.62,221.7L48.83,219.67L47.25,220.99L46.47,214.72L44.89,228.46L44.1,228.57L43.32,225.44L42.53,227.97L41.74,230.11L40.95,227.69L39.38,232.2L38.59,231.87L37.8,231.21L37.02,234.73L35.44,238.08L34.65,238.25L33.87,239.84L33.08,239.51L32.29,242.42L31.5,242.15L29.93,240.99L29.14,243.03L25.99,244.95L25.2,244.68L23.63,245.12L22.84,245.45L20.48,245.45L19.69,245.28L11.81,245.34L11.03,244.9L5.51,245.39L4.73,246.05L3.94,245.23L3.15,245.61L1.58,245.61L0.79,245.78L0,245.78Z" style="fill: rgb(0, 204, 150); fill-opacity: 0.3; stroke-width: 0;"/></g></g><g class="errorbars"/><g class="lines"><path class="js-line" d="M0,245.28L1.58,243.91L2.36,240.83L3.15,243.58L3.94,243.08L4.73,242.81L5.51,240.77L6.3,238.96L7.09,240.66L7.88,242.04L8.66,240.77L9.45,237.48L10.24,237.42L11.03,237.59L11.81,232.31L12.6,234.23L13.39,229.56L14.18,231.59L14.96,229.23L15.75,228.52L16.54,230.33L17.33,232.31L18.11,228.3L19.69,221.7L20.48,223.9L21.26,228.63L22.05,222.14L22.84,219.94L23.63,215.33L25.2,217.08L25.99,213.68L28.35,222.47L29.14,221.65L30.72,215.38L31.5,220.49L34.65,204.44L35.44,215.38L37.8,197.79L38.59,186.85L39.38,185.37L40.17,195.48L41.74,201.91L42.53,193.5L44.1,186.85L44.89,183.06L45.68,184.27L46.47,174.32L48.04,158.16L48.83,165.36L50.4,141.12L51.19,147.01L51.98,146.4L52.77,138.43L53.56,128.59L54.34,138.1L55.13,142.28L55.92,141.56L56.71,142.5L57.49,146.46L58.28,146.62L59.07,152.94L60.64,145.96L61.43,149.31L62.22,150.96L63.01,144.86L63.79,133.16L64.58,146.68L66.16,139.31L66.94,145.85L67.73,149.2L68.52,145.74L69.31,135.85L70.09,139.48L70.88,130.9L71.67,135.96L72.46,148.65L73.24,147.67L74.03,149.48L74.82,141.23L75.61,146.18L76.39,144.81L77.18,151.4L77.97,141.78L78.76,145.69L79.55,145.74L80.33,138.82L81.12,144.81L81.91,139.53L82.7,144.15L83.48,138.98L84.27,142L86.63,143.93L87.42,149.04L88.21,146.35L89,149.86L89.78,147.06L90.57,136.95L91.36,134.03L92.15,151.46L92.93,144.31L93.72,144.64L95.3,141.45L96.08,148.6L96.87,152.34L97.66,147.06L99.23,138.76L100.02,142.72L100.81,146.4L101.6,142.28L102.38,140.85L103.17,134.69L104.75,140.85L105.54,145.3L106.32,138.21L107.11,140.69L107.9,138.87L108.69,140.58L109.47,141.07L110.26,140.08L112.62,148.11L113.41,144.75L114.2,149.37L114.99,141.07L115.77,135.02L116.56,140.19L117.35,138.93L118.14,135.74L119.71,138.38L120.5,129.91L121.29,130.24L122.07,134.25L123.65,126.06L124.44,122.99L125.22,133.26L126.01,132.77L126.8,124.8L127.59,129.31L128.37,127.38L129.16,135.19L129.95,142.99L130.74,131.95L132.31,124.2L133.1,134.75L133.89,136.73L134.68,141.45L136.25,132.61L137.04,135.13L137.83,132.28L138.61,140.47L139.4,138.49L140.19,134.31L141.76,133.05L142.55,132.22L143.34,137.88L144.13,128.87L144.91,133.98L145.7,131.45L146.49,133.81L147.28,133.05L148.06,133.26L148.85,135.46L150.43,128.1L151.21,128.87L152,133.32L152.79,130.52L154.36,134.31L155.15,129.58L156.73,126.17L157.52,127.22L158.3,133.05L159.09,129.69L159.88,128.21L160.67,121.5L161.45,128.1L162.24,122.82L163.82,128.7L164.6,125.79L165.39,128.92L166.18,122.71L166.97,125.63L167.75,120.24L168.54,117.44L169.33,120.62L170.12,117.99L170.9,126.56L171.69,118.1L172.48,119.19L173.27,122.11L174.05,113.53L175.63,125.3L176.42,113.04L177.2,112.71L177.99,121.61L178.78,109.03L179.57,110.13L180.35,119.19L181.14,114.91L181.93,121.01L182.72,117.11L183.51,112.1L184.29,112.43L185.08,125.19L185.87,116.17L186.66,118.21L187.44,113.97L188.23,115.07L189.02,109.19L189.81,123.1L190.59,115.07L191.38,115.13L192.17,116.17L192.96,109.74L193.74,114.19L194.53,115.95L195.32,115.68L196.11,119.19L196.89,109.03L198.47,113.48L199.26,108.59L200.83,117.6L201.62,110.18L202.41,104.63L203.19,115.18L204.77,112.32L205.56,113.09L206.34,109.74L207.13,113.81L207.92,113.15L208.71,110.78L210.28,124.47L211.07,116.78L211.86,115.51L212.65,120.29L213.43,115.02L214.22,117.33L216.58,109.58L217.37,115.4L218.16,111.44L218.95,119.19L219.73,115.24L220.52,118.31L221.31,122.11L222.1,116.72L222.88,119.96L223.67,119.36L224.46,123.26L225.25,121.61L226.03,120.9L226.82,118.37L227.61,125.52L228.4,120.9L229.18,123.98L229.97,116.12L232.33,126.17L233.12,118.97L234.7,123.26L235.48,114.85L237.06,123.21L237.85,122.22L238.64,124.09L239.42,111.55L241.79,125.95L242.57,118.64L244.15,125.3L244.94,119.47L245.72,123.87L246.51,118.26L247.3,115.4L248.09,122.27L248.87,117.88L249.66,119.3L250.45,103.47L251.24,112.87L252.81,119.41L253.6,117.05L254.39,112.82L255.17,113.97L255.96,111.61L256.75,120.51L257.54,107.1L258.32,114.69L259.11,111.83L259.9,115.79L260.69,114.58L261.47,107.27L263.05,118.1L263.84,116.17L264.63,115.29L265.41,112.82L266.2,111.44L266.99,117L268.56,108.86L269.35,120.18L270.14,110.78L270.93,118.04L272.5,114.58L273.29,114.58L274.08,106.28L274.86,111.55L276.44,115.13L277.23,113.59L278.01,114.14L278.8,112.43L279.59,112.1L280.38,110.57L281.95,113.92L282.74,113.26L283.53,118.48L284.31,113.75L285.1,104.96L285.89,115.57L286.68,111.77L287.46,112.76L288.25,107.16L289.04,115.24L290.62,108.42L291.4,108.92L292.19,112.82L292.98,111.39L293.77,115.07L294.55,102.71L295.34,111.83L296.13,110.78L297.7,105.01L298.49,113.42L299.28,104.9L300.07,117.33L301.64,109.8L302.43,112.54L303.22,113.48L304,116.72L304.79,117.44L305.58,110.02L306.37,114.63L307.15,111.5L307.94,110.95L308.73,115.35L309.52,115.35L310.3,107.05L311.88,116.5L312.67,112.1L313.45,105.62L314.24,112.16L315.03,107.05L315.82,109.63L316.61,108.42L317.39,116.78L318.18,107.76L318.97,117.55L319.76,111L320.54,124.14L321.33,118.64L322.12,118.59L323.69,112.43L324.48,114.3L326.06,107.87L326.84,111.77L327.63,115.95L328.42,112.27L329.99,106.99L330.78,110.46L331.57,111.72L332.36,110.51L333.14,115.13L333.93,109.36L334.72,110.29L335.51,109.47L336.29,109.41L337.08,114.41L337.87,113.75L338.66,114.47L339.44,114.74L340.23,102.54L341.81,114.14L342.6,111.94L343.38,107.6L344.17,113.81L344.96,119.3L345.75,118.86L346.53,113.04L347.32,118.59L348.9,108.86L349.68,108.97L350.47,108.59L351.26,104.13L352.05,110.13L352.83,102.76L353.62,109.69L354.41,107.76L355.2,109.91L355.98,109.69L356.77,107.93L357.56,109.52L358.35,102.32L359.13,108.81L359.92,107.93L360.71,97.98L361.5,115.51L362.28,111.61L363.07,104.74L363.86,105.4L364.65,112.38L365.43,110.35L366.22,101.72L367.01,107.98L368.59,103.58L369.37,103.15L370.95,108.48L371.74,107.87L372.52,106.99L373.31,111.88L374.1,108.15L374.89,108.2L375.67,104.68L376.46,105.01L377.25,108.42L378.04,103.36L379.61,112.49L380.4,102.82L381.97,114.58L382.76,114.03L383.55,106.77L384.34,108.92L385.12,100.67L385.91,108.53L386.7,110.35L387.49,108.75L388.27,105.12L389.06,110.89L389.85,109.58L390.64,110.13L391.42,101.44L392.21,113.48L393,103.25L393,144.59L392.21,138.93L391.42,144.86L390.64,139.04L389.85,144.04L389.06,140.41L388.27,142.33L387.49,138.16L386.7,147.78L385.91,140.58L385.12,145.3L384.34,145.47L383.55,142.61L382.76,147.83L381.97,146.79L381.19,149.81L380.4,149.48L379.61,138.1L378.82,149.09L378.04,143.76L377.25,144.75L375.67,140.08L374.89,151.84L373.31,141.78L372.52,142.33L370.95,144.37L370.16,145.08L369.37,146.4L368.59,142.28L367.8,140.85L367.01,144.37L366.22,143.82L365.43,149.48L364.65,148.82L363.86,144.81L363.07,147.06L362.28,140.3L361.5,145.08L360.71,144.37L359.92,153.11L359.13,149.59L358.35,141.29L357.56,141.01L356.77,146.18L355.98,138.65L355.2,143.32L354.41,142.5L353.62,152.72L352.83,147.78L352.05,138.76L351.26,138.43L349.68,145.58L348.9,138.87L348.11,140.52L347.32,140.19L346.53,140.9L345.75,139.53L344.96,142.72L344.17,140.79L343.38,141.18L342.6,142.88L341.81,141.45L341.02,147.23L340.23,142.06L339.44,147.78L338.66,147.89L337.87,145.41L336.29,144.09L335.51,144.97L333.14,138.43L332.36,140.08L331.57,142.11L330.78,141.23L329.99,142.99L329.21,140.69L328.42,135.9L327.63,138.93L326.06,133.37L325.27,136.34L323.69,141.4L322.91,139.37L322.12,138.98L321.33,139.81L320.54,138.05L319.76,143.05L318.18,136.73L317.39,137.5L316.61,144.04L315.82,134.86L314.24,142.83L313.45,137.83L312.67,134.58L311.88,139.64L311.09,139.75L310.3,136.23L309.52,138.32L308.73,138.27L307.94,137.99L307.15,141.18L306.37,137.22L305.58,137.44L304.79,136.23L304,137.39L303.22,137.33L302.43,138.54L301.64,136.12L300.85,136.62L300.07,140.41L299.28,133.98L297.7,143.05L296.92,141.12L296.13,138.71L295.34,140.08L294.55,134.64L293.77,137.44L292.98,143.27L292.19,136.51L291.4,140.3L290.62,138.21L289.83,142.55L289.04,139.7L288.25,142.55L287.46,139.81L286.68,137.88L285.89,143.93L284.31,140.14L283.53,140.74L282.74,142.88L281.95,138.93L281.16,141.89L280.38,135.02L278.8,140.9L278.01,143.1L277.23,140.9L276.44,142.88L275.65,145.25L274.86,138.98L274.08,144.31L273.29,141.73L272.5,143.43L271.71,139.04L269.35,140.58L268.56,144.09L266.99,146.62L266.2,142.72L265.41,144.64L264.63,139.97L263.84,146.68L263.05,143.87L260.69,133.98L259.9,134.03L258.32,140.14L257.54,136.78L256.75,142.44L255.96,139.7L255.17,141.84L254.39,136.29L253.6,140.03L252.81,139.53L252.02,137.99L251.24,141.12L249.66,144.26L248.87,142.06L248.09,136.84L247.3,138.54L245.72,140.36L244.94,140.19L244.15,134.75L243.36,138.43L241.79,134.86L241,137.5L240.21,140.52L239.42,137.99L237.85,138.87L237.06,138.54L236.27,139.42L235.48,138.05L233.91,140.85L233.12,139.2L231.55,138.76L230.76,143.49L229.97,139.37L229.18,141.84L228.4,138.21L227.61,142.22L226.03,136.34L225.25,139.42L224.46,142L223.67,138.82L222.88,143.54L222.1,139.81L221.31,139.31L220.52,141.07L219.73,134.53L218.95,141.62L217.37,139.86L216.58,145.8L215.8,137.61L215.01,148.43L214.22,146.07L213.43,140.9L212.65,147.17L211.86,142.44L211.07,136.84L210.28,144.04L209.49,150.03L208.71,143.49L207.92,143.1L207.13,146.24L205.56,144.7L204.77,148.65L203.98,149.59L203.19,152.78L201.62,148.11L200.83,150.25L200.04,148.82L199.26,143.38L198.47,148L197.68,147.17L196.89,148.65L196.11,139.48L195.32,152.12L194.53,148.16L193.74,151.46L192.96,150.19L192.17,148.27L191.38,149.97L190.59,152.23L189.81,145.63L189.02,152.01L188.23,146.84L187.44,148.93L186.66,155.64L185.08,145.36L184.29,147.28L183.51,149.2L182.72,144.48L181.93,152.89L181.14,150.41L179.57,146.46L178.78,151.13L177.99,151.51L177.2,154.59L176.42,147.72L175.63,154.37L174.84,156.57L174.05,150.19L172.48,152.61L171.69,150.14L170.9,159.76L170.12,152.72L169.33,150.41L168.54,153.05L166.97,150.69L166.18,144.7L165.39,150.03L164.6,144.97L162.24,153.55L161.45,149.2L160.67,156.9L159.88,150.52L158.3,152.28L157.52,141.84L156.73,154.1L155.94,151.46L154.36,149.59L153.58,148.87L152.79,150.96L152,146.84L151.21,147.67L150.43,153.22L149.64,147.34L148.85,150.08L148.06,152.78L147.28,148L146.49,152.83L145.7,144.97L144.91,142.99L144.13,147.78L143.34,146.57L142.55,147.45L141.76,147.17L140.98,148.38L140.19,151.51L139.4,144.48L138.61,149.26L137.83,146.35L137.04,154.26L136.25,149.75L135.46,154.1L134.68,151.24L133.89,152.06L133.1,160.09L132.31,154.48L131.53,155.25L130.74,152.28L129.95,158.55L129.16,151.24L128.37,151.4L126.8,154.32L126.01,152.12L124.44,154.59L123.65,162.84L122.86,162.01L122.07,157.61L121.29,162.95L120.5,160.36L119.71,159.54L118.92,160.09L118.14,154.43L117.35,164.54L116.56,162.84L115.77,170.81L114.99,172.51L114.2,167.23L113.41,169.49L112.62,177.62L111.84,169.93L111.05,170.2L109.47,183.5L108.69,173.99L107.9,172.18L107.11,179.32L106.32,174.21L105.54,179.16L103.96,171.24L103.17,168.5L102.38,173.28L101.6,167.78L100.81,163.71L100.02,174.38L99.23,169.76L98.45,169.98L97.66,175.81L96.87,169.6L95.3,180.64L94.51,173.55L93.72,170.42L92.93,179.98L92.15,177.02L91.36,180.81L90.57,189.49L89.78,183.61L89,175.26L88.21,179.98L87.42,182.95L86.63,179.98L85.85,182.62L85.06,176.58L82.7,191.2L81.91,178.55L81.12,178.94L80.33,168.55L78.76,175.75L77.97,172.12L77.18,170.64L76.39,181.8L74.82,177.62L74.03,179.05L73.24,177.4L72.46,180.86L70.88,185.48L70.09,191.25L68.52,183.06L67.73,191.53L66.94,192.24L66.16,189.38L65.37,191.58L64.58,190.1L63.79,190.26L63.01,193.83L62.22,195.26L61.43,203.01L60.64,203.23L59.86,198.62L59.07,205.21L58.28,201.8L57.49,214.17L56.71,211.53L55.92,206.15L55.13,209.88L54.34,201.25L53.56,212.52L52.77,214.67L51.98,210.05L51.19,210.93L50.4,214.56L49.62,221.7L48.83,219.67L47.25,220.99L46.47,214.72L44.89,228.46L44.1,228.57L43.32,225.44L42.53,227.97L41.74,230.11L40.95,227.69L39.38,232.2L38.59,231.87L37.8,231.21L37.02,234.73L35.44,238.08L34.65,238.25L33.87,239.84L33.08,239.51L32.29,242.42L31.5,242.15L29.93,240.99L29.14,243.03L25.99,244.95L25.2,244.68L23.63,245.12L22.84,245.45L20.48,245.45L19.69,245.28L11.81,245.34L11.03,244.9L5.51,245.39L4.73,246.05L3.94,245.23L3.15,245.61L1.58,245.61L0.79,245.78L0,245.78" style="vector-effect: non-scaling-stroke; fill: none; stroke: rgb(0, 0, 0); stroke-opacity: 0; stroke-width: 2px; opacity: 1;"/></g><g class="points"/><g class="text"/></g></g></g><g class="overplot"/><path class="xlines-above crisp" d="M0,0" style="fill: none;"/><path class="ylines-above crisp" d="M0,0" style="fill: none;"/><g class="overlines-above"/><g class="xaxislayer-above"><g class="xtick"><text text-anchor="middle" x="0" y="272" transform="translate(114.43,0)" style="font-family: 'Latin Modern Roman'; font-size: 12px; fill: rgb(0, 0, 0); fill-opacity: 1; white-space: pre;">10M</text></g><g class="xtick"><text text-anchor="middle" x="0" y="272" transform="translate(191.64,0)" style="font-family: 'Latin Modern Roman'; font-size: 12px; fill: rgb(0, 0, 0); fill-opacity: 1; white-space: pre;">20M</text></g><g class="xtick"><text text-anchor="middle" x="0" y="272" transform="translate(268.85,0)" style="font-family: 'Latin Modern Roman'; font-size: 12px; fill: rgb(0, 0, 0); fill-opacity: 1; white-space: pre;">30M</text></g><g class="xtick"><text text-anchor="middle" x="0" y="272" transform="translate(346.07,0)" style="font-family: 'Latin Modern Roman'; font-size: 12px; fill: rgb(0, 0, 0); fill-opacity: 1; white-space: pre;">40M</text></g><g class="xtick"><text text-anchor="middle" x="0" y="272" transform="translate(423.28,0)" style="font-family: 'Latin Modern Roman'; font-size: 12px; fill: rgb(0, 0, 0); fill-opacity: 1; white-space: pre;">50M</text></g></g><g class="yaxislayer-above"><g class="ytick"><text text-anchor="end" x="37" y="4.199999999999999" transform="translate(0,247.09)" style="font-family: 'Latin Modern Roman'; font-size: 12px; fill: rgb(0, 0, 0); fill-opacity: 1; white-space: pre;">0</text></g><g class="ytick"><text text-anchor="end" x="37" y="4.199999999999999" transform="translate(0,203.12)" style="font-family: 'Latin Modern Roman'; font-size: 12px; fill: rgb(0, 0, 0); fill-opacity: 1; white-space: pre;">10</text></g><g class="ytick"><text text-anchor="end" x="37" y="4.199999999999999" transform="translate(0,159.15)" style="font-family: 'Latin Modern Roman'; font-size: 12px; fill: rgb(0, 0, 0); fill-opacity: 1; white-space: pre;">20</text></g><g class="ytick"><text text-anchor="end" x="37" y="4.199999999999999" transform="translate(0,115.18)" style="font-family: 'Latin Modern Roman'; font-size: 12px; fill: rgb(0, 0, 0); fill-opacity: 1; white-space: pre;">30</text></g><g class="ytick"><text text-anchor="end" x="37" y="4.199999999999999" transform="translate(0,71.21)" style="font-family: 'Latin Modern Roman'; font-size: 12px; fill: rgb(0, 0, 0); fill-opacity: 1; white-space: pre;">40</text></g><g class="ytick"><text text-anchor="end" x="37" y="4.199999999999999" transform="translate(0,27.24)" style="font-family: 'Latin Modern Roman'; font-size: 12px; fill: rgb(0, 0, 0); fill-opacity: 1; white-space: pre;">50</text></g></g><g class="overaxes-above"/></g></g><g class="polarlayer"/><g class="ternarylayer"/><g class="geolayer"/><g class="funnelarealayer"/><g class="pielayer"/><g class="treemaplayer"/><g class="sunburstlayer"/><g class="glimages"/><defs id="topdefs-6c06b8"><g class="clips"/><clipPath id="legend6c06b8"><rect width="161" height="67" x="0" y="0"/></clipPath></defs><g class="layer-above"><g class="imagelayer"/><g class="shapelayer"/></g><g class="infolayer"><g class="legend" pointer-events="all" transform="translate(438.86,0)"><rect class="bg" shape-rendering="crispEdges" style="stroke: rgb(68, 68, 68); stroke-opacity: 1; fill: rgb(255, 255, 255); fill-opacity: 1; stroke-width: 0px;" width="161" height="67" x="0" y="0"/><g class="scrollbox" transform="" clip-path="url('#legend6c06b8')"><g class="groups"><g class="traces" transform="translate(0,14.5)" style="opacity: 1;"><text class="legendtext" text-anchor="start" x="40" y="4.680000000000001" style="font-family: 'Latin Modern Roman'; font-size: 12px; fill: rgb(0, 0, 0); fill-opacity: 1; white-space: pre;">Bayesian agg. (n=13)</text><g class="layers" style="opacity: 1;"><g class="legendfill"/><g class="legendlines"><path class="js-line" d="M5,0h30" style="fill: none; stroke: rgb(99, 110, 250); stroke-opacity: 1; stroke-width: 2px;"/></g><g class="legendsymbols"><g class="legendpoints"/></g></g><rect class="legendtoggle" x="0" y="-9.5" width="155.671875" height="19" style="fill: rgb(0, 0, 0); fill-opacity: 0;"/></g><g class="traces" transform="translate(0,33.5)" style="opacity: 1;"><text class="legendtext" text-anchor="start" x="40" y="4.680000000000001" style="font-family: 'Latin Modern Roman'; font-size: 12px; fill: rgb(0, 0, 0); fill-opacity: 1; white-space: pre;">Mean agg. (n=7)</text><g class="layers" style="opacity: 1;"><g class="legendfill"/><g class="legendlines"><path class="js-line" d="M5,0h30" style="fill: none; stroke: rgb(239, 85, 59); stroke-opacity: 1; stroke-width: 2px;"/></g><g class="legendsymbols"><g class="legendpoints"/></g></g><rect class="legendtoggle" x="0" y="-9.5" width="155.671875" height="19" style="fill: rgb(0, 0, 0); fill-opacity: 0;"/></g><g class="traces" transform="translate(0,52.5)" style="opacity: 1;"><text class="legendtext" text-anchor="start" x="40" y="4.680000000000001" style="font-family: 'Latin Modern Roman'; font-size: 12px; fill: rgb(0, 0, 0); fill-opacity: 1; white-space: pre;">Attentive agg. (n=12)</text><g class="layers" style="opacity: 1;"><g class="legendfill"/><g class="legendlines"><path class="js-line" d="M5,0h30" style="fill: none; stroke: rgb(0, 204, 150); stroke-opacity: 1; stroke-width: 2px;"/></g><g class="legendsymbols"><g class="legendpoints"/></g></g><rect class="legendtoggle" x="0" y="-9.5" width="155.671875" height="19" style="fill: rgb(0, 0, 0); fill-opacity: 0;"/></g></g></g><rect class="scrollbar" rx="20" ry="3" width="0" height="0" style="fill: rgb(128, 139, 164); fill-opacity: 1;" x="0" y="0"/></g><g class="g-gtitle"/><g class="g-xtitle" transform="translate(0,-3.8000000000000114)"><text class="xtitle" x="234.5" y="299.8" text-anchor="middle" style="font-family: 'Latin Modern Roman'; font-size: 14px; fill: rgb(0, 0, 0); opacity: 1; font-weight: normal; white-space: pre;">Agent Steps</text></g><g class="g-ytitle" transform="translate(15.8154296875,0)"><text class="ytitle" transform="rotate(-90,0.18437500000000284,129.5)" x="0.18437500000000284" y="129.5" text-anchor="middle" style="font-family: 'Latin Modern Roman'; font-size: 14px; fill: rgb(0, 0, 0); opacity: 1; font-weight: normal; white-space: pre;">Avg. Reward</text></g></g></svg>