<svg class="main-svg" xmlns="http://www.w3.org/2000/svg" xmlns:xlink="http://www.w3.org/1999/xlink" width="700" height="500" style="" viewBox="0 0 700 500"><rect x="0" y="0" width="700" height="500" style="fill: rgb(255, 255, 255); fill-opacity: 1;"/><defs id="defs-c13659"><g class="clips"><clipPath id="clipc13659xyplot" class="plotclip"><rect width="326" height="320"/></clipPath><clipPath class="axesclip" id="clipc13659x"><rect x="80" y="0" width="326" height="500"/></clipPath><clipPath class="axesclip" id="clipc13659y"><rect x="0" y="100" width="700" height="320"/></clipPath><clipPath class="axesclip" id="clipc13659xy"><rect x="80" y="100" width="326" height="320"/></clipPath></g><g class="gradients"/></defs><g class="bglayer"><rect class="bg" x="80" y="100" width="326" height="320" style="fill: rgb(229, 236, 246); fill-opacity: 1; stroke-width: 0;"/></g><g class="layer-below"><g class="imagelayer"/><g class="shapelayer"/></g><g class="cartesianlayer"><g class="subplot xy"><g class="layer-subplot"><g class="shapelayer"/><g class="imagelayer"/></g><g class="gridlayer"><g class="x"><path class="xgrid crisp" transform="translate(207.45,0)" d="M0,100v320" style="stroke: rgb(255, 255, 255); stroke-opacity: 1; stroke-width: 1px;"/><path class="xgrid crisp" transform="translate(335.55,0)" d="M0,100v320" style="stroke: rgb(255, 255, 255); stroke-opacity: 1; stroke-width: 1px;"/></g><g class="y"><path class="ygrid crisp" transform="translate(0,368.11)" d="M80,0h326" style="stroke: rgb(255, 255, 255); stroke-opacity: 1; stroke-width: 1px;"/><path class="ygrid crisp" transform="translate(0,332.22)" d="M80,0h326" style="stroke: rgb(255, 255, 255); stroke-opacity: 1; stroke-width: 1px;"/><path class="ygrid crisp" transform="translate(0,296.34000000000003)" d="M80,0h326" style="stroke: rgb(255, 255, 255); stroke-opacity: 1; stroke-width: 1px;"/><path class="ygrid crisp" transform="translate(0,260.45)" d="M80,0h326" style="stroke: rgb(255, 255, 255); stroke-opacity: 1; stroke-width: 1px;"/><path class="ygrid crisp" transform="translate(0,224.56)" d="M80,0h326" style="stroke: rgb(255, 255, 255); stroke-opacity: 1; stroke-width: 1px;"/><path class="ygrid crisp" transform="translate(0,188.67000000000002)" d="M80,0h326" style="stroke: rgb(255, 255, 255); stroke-opacity: 1; stroke-width: 1px;"/><path class="ygrid crisp" transform="translate(0,152.79)" d="M80,0h326" style="stroke: rgb(255, 255, 255); stroke-opacity: 1; stroke-width: 1px;"/><path class="ygrid crisp" transform="translate(0,116.9)" d="M80,0h326" style="stroke: rgb(255, 255, 255); stroke-opacity: 1; stroke-width: 1px;"/></g></g><g class="zerolinelayer"><path class="yzl zl crisp" transform="translate(0,404)" d="M80,0h326" style="stroke: rgb(255, 255, 255); stroke-opacity: 1; stroke-width: 2px;"/></g><path class="xlines-below"/><path class="ylines-below"/><g class="overlines-below"/><g class="xaxislayer-below"/><g class="yaxislayer-below"/><g class="overaxes-below"/><g class="plot" transform="translate(80,100)" clip-path="url('#clipc13659xyplot')"><g class="scatterlayer mlayer"><g class="trace scatter trace9532c1" style="stroke-miterlimit: 2; opacity: 1;"><g class="fills"/><g class="errorbars"/><g class="lines"><path class="js-line" d="M0,301.85L1.96,300.77L2.61,300.77L5.88,298.98L6.53,299.69L7.19,297.9L7.84,300.05L9.15,298.26L9.8,300.05L11.76,297.9L12.41,300.05L15.03,299.33L15.68,300.05L16.33,300.41L16.99,298.26L18.29,294.31L18.95,295.75L19.6,295.03L20.25,291.8L20.91,292.87L21.56,290.72L22.21,293.59L22.87,290L23.52,290.72L24.17,288.57L25.48,291.8L26.13,292.16L28.09,293.59L28.75,292.87L30.05,286.41L30.71,288.21L31.36,287.49L32.01,290.36L32.67,289.64L33.32,284.98L33.97,287.13L34.63,281.03L35.28,273.5L35.93,279.24L36.59,269.91L37.24,276.73L39.2,255.91L39.85,259.5L40.51,265.6L41.16,261.29L42.46,250.89L43.12,250.89L45.08,234.74L45.73,222.18L46.38,223.25L47.04,220.74L47.69,216.79L48.34,218.23L49.65,199.21L50.3,203.51L50.96,208.9L51.61,205.31L52.26,199.57L52.92,200.64L53.57,193.82L54.22,194.18L54.88,192.03L55.53,188.8L56.18,173.73L56.84,183.42L57.49,180.55L58.8,165.11L59.45,169.42L60.1,159.01L60.76,162.6L61.41,164.76L62.06,153.99L62.72,148.96L63.37,154.71L64.02,152.91L64.68,156.14L65.33,153.63L65.98,147.89L67.29,155.42L67.94,147.53L69.9,137.84L70.56,126.71L71.21,137.48L71.86,136.04L72.52,136.76L73.17,153.63L73.82,141.07L75.13,123.48L75.78,125.28L76.44,137.84L77.09,124.2L77.74,119.54L78.4,138.2L79.05,128.87L79.7,133.89L80.36,120.97L81.01,126.36L81.66,129.59L82.32,119.9L83.62,131.74L84.28,123.13L84.93,123.13L85.58,133.89L86.89,115.23L87.54,120.61L88.85,129.94L89.5,127.07L90.81,118.46L91.46,119.9L92.12,120.61L92.77,125.64L93.42,124.2L94.08,112L94.73,121.33L95.38,118.1L97.34,123.13L98,115.95L98.65,117.38L99.3,108.41L100.61,114.15L101.26,103.39L102.57,108.41L103.22,104.1L103.88,108.41L104.53,104.46L105.18,103.75L105.84,105.54L107.14,90.83L107.8,98.72L108.45,85.08L109.1,98.36L109.76,93.34L110.41,99.08L111.06,102.31L111.72,93.7L113.68,85.44L114.33,89.39L114.98,93.7L115.64,91.9L116.29,98.72L116.94,96.57L117.6,90.83L118.25,101.95L119.56,98L120.21,93.34L120.86,97.64L121.52,94.77L122.17,98.72L122.82,91.19L123.47,102.31L124.13,80.42L124.78,79.34L125.43,92.62L126.09,93.7L126.74,85.08L128.7,80.42L129.35,68.58L130.66,89.39L131.31,88.67L131.97,73.6L132.62,83.65L133.93,77.55L134.58,80.42L135.23,77.91L135.89,82.57L136.54,89.75L137.19,68.58L137.85,84.37L138.5,79.7L139.81,68.58L140.46,79.7L141.11,80.42L141.77,71.45L142.42,72.16L143.07,79.34L143.73,81.5L144.38,68.22L145.03,73.6L145.69,69.65L146.34,62.47L146.99,67.5L147.65,72.16L148.3,63.55L148.95,63.91L149.61,68.22L150.91,74.32L151.57,74.68L152.22,66.78L152.87,69.65L154.83,63.91L155.49,64.27L156.14,81.85L156.79,79.34L157.45,63.91L158.75,75.39L159.41,75.04L160.71,84.37L161.37,72.16L162.02,77.91L162.67,72.16L163.33,78.62L163.98,77.19L164.63,62.83L165.29,80.42L165.94,66.42L166.59,77.91L167.25,77.19L167.9,68.22L169.21,75.75L169.86,74.32L170.51,66.78L171.17,71.09L171.82,57.45L172.47,81.5L173.13,76.47L173.78,64.63L175.09,74.68L175.74,69.29L176.39,68.22L177.05,64.63L178.35,74.68L179.01,75.39L179.66,76.83L180.31,73.6L180.97,89.03L181.62,82.93L182.27,72.16L182.93,82.57L183.58,75.39L184.23,77.91L184.89,76.47L185.54,69.65L186.19,65.35L186.85,78.62L188.15,63.19L188.81,79.7L189.46,66.78L190.11,69.65L190.77,61.4L191.42,63.55L192.73,72.52L193.38,64.99L194.03,66.78L194.69,57.81L195.34,72.16L195.99,68.22L196.65,70.01L197.3,75.04L197.95,61.04L198.61,65.35L199.26,62.83L199.91,67.14L200.57,63.19L201.22,67.86L201.87,60.32L202.53,72.16L203.18,61.76L203.83,69.29L204.48,75.75L205.14,70.73L207.1,63.19L207.75,66.42L208.4,61.76L209.06,78.98L209.71,61.4L210.36,75.39L211.67,51.35L212.32,70.73L212.98,58.89L213.63,77.55L214.28,63.55L214.94,72.52L216.24,61.4L216.9,68.22L217.55,58.89L218.2,80.42L220.16,59.96L220.82,73.6L221.47,56.73L222.12,64.27L222.78,60.32L223.43,61.04L224.08,61.4L224.74,67.5L226.7,59.96L227.35,60.68L228,60.68L228.66,66.42L229.96,64.63L230.62,58.17L232.58,62.47L233.23,58.17L233.88,68.93L234.54,63.91L235.84,59.6L236.5,45.25L238.46,64.27L239.11,66.42L239.76,53.86L240.42,60.32L241.07,60.68L241.72,59.6L242.38,54.94L243.03,57.09L244.34,56.37L244.99,63.55L245.64,53.5L246.3,61.76L246.95,58.53L247.6,51.35L248.91,61.04L249.56,50.63L250.22,36.64L250.87,49.91L251.52,55.3L252.18,53.14L252.83,47.76L253.48,50.27L254.14,56.73L254.79,49.56L255.44,57.09L256.1,46.33L257.4,55.66L258.06,50.99L258.71,54.22L259.36,50.63L260.02,54.94L260.67,47.4L261.98,66.78L262.63,62.83L263.28,63.91L263.94,59.96L264.59,47.76L265.24,60.32L265.9,45.97L266.55,49.91L267.86,65.7L268.51,54.22L269.16,55.3L269.82,58.53L271.78,43.45L272.43,57.45L273.08,62.47L273.74,52.79L274.39,56.73L275.04,52.43L275.7,67.5L276.35,66.42L277,62.47L278.31,47.76L278.96,48.84L280.27,54.94L280.92,51.71L281.58,51.71L282.23,50.63L282.88,47.04L283.54,58.89L284.84,50.99L285.49,52.07L286.8,49.2L287.45,63.19L288.11,65.7L288.76,50.99L289.41,54.58L290.07,47.76L290.72,46.68L291.37,54.58L292.68,57.45L293.33,58.89L293.99,57.45L294.64,49.56L295.29,49.56L295.95,60.68L296.6,49.91L297.25,56.73L297.91,47.76L298.56,53.86L299.21,59.6L299.87,45.61L300.52,48.12L301.17,54.94L301.83,52.79L302.48,57.45L303.13,57.45L303.79,54.94L304.44,62.12L305.09,55.66L306.4,53.86L307.05,50.63L308.36,59.6L309.01,59.6L309.67,50.63L310.32,53.86L310.97,55.3L311.63,50.63L312.93,60.32L313.59,63.91L314.24,52.07L314.89,56.37L315.55,61.4L316.2,58.53L316.85,51.35L317.51,52.07L318.16,55.3L318.81,53.86L319.47,61.4L320.12,56.37L320.77,59.6L321.43,57.09L322.08,57.45L322.73,58.17L323.39,57.09L324.04,52.43L324.69,47.04L325.35,62.47L326,56.37" style="vector-effect: non-scaling-stroke; fill: none; stroke: rgb(99, 110, 250); stroke-opacity: 1; stroke-width: 2px; opacity: 1;"/></g><g class="points"/><g class="text"/></g><g class="trace scatter tracec2e60a" style="stroke-miterlimit: 2; opacity: 1;"><g class="fills"/><g class="errorbars"/><g class="lines"><path class="js-line" d="M0,301.49L2.61,301.13L3.27,300.41L5.23,299.69L5.88,298.98L6.53,296.1L7.19,298.62L8.49,295.03L9.15,299.33L9.8,299.33L10.45,300.41L11.11,291.08L11.76,292.16L12.41,292.87L14.37,296.1L15.03,293.23L15.68,294.31L16.33,292.87L16.99,295.75L17.64,292.52L18.29,267.39L18.95,269.55L19.6,268.11L20.25,262.73L20.91,268.83L21.56,258.78L22.21,274.93L24.17,255.55L24.83,256.99L25.48,244.43L26.13,252.32L26.79,249.81L27.44,259.5L28.75,243.35L29.4,240.12L30.71,225.41L31.36,233.66L32.01,226.84L32.67,233.66L33.32,241.56L33.97,226.12L34.63,231.15L35.28,221.1L35.93,226.84L36.59,206.39L38.55,217.87L39.2,199.21L39.85,194.54L40.51,183.06L41.16,192.75L41.81,185.57L42.46,189.52L43.12,177.67L43.77,178.03L44.42,185.21L45.08,175.52L45.73,178.75L46.38,174.09L47.04,175.88L48.34,160.09L49,160.09L49.65,169.06L50.3,151.48L50.96,171.57L51.61,165.83L52.26,157.22L52.92,181.26L54.22,166.55L54.88,162.6L55.53,171.93L56.18,156.5L57.49,162.96L58.14,153.99L58.8,171.21L59.45,164.76L60.1,175.52L60.76,157.94L61.41,166.19L62.06,154.35L62.72,145.73L63.37,158.3L64.02,140.71L64.68,159.37L65.33,138.56L65.98,147.17L66.64,129.94L67.29,143.22L67.94,151.48L68.6,141.79L69.25,138.2L69.9,149.68L71.21,134.25L71.86,127.79L72.52,127.43L73.17,139.63L73.82,147.53L74.48,142.86L75.13,152.19L75.78,139.63L76.44,121.33L77.09,139.99L77.74,131.74L78.4,141.43L79.05,124.56L79.7,130.3L80.36,132.1L81.01,118.46L81.66,124.56L82.32,111.64L82.97,112L83.62,124.56L84.28,130.66L84.93,120.61L85.58,111.28L86.24,118.46L87.54,124.56L88.2,115.23L88.85,120.97L89.5,104.82L90.81,113.44L91.46,122.05L92.12,117.74L92.77,118.46L93.42,115.59L94.08,119.9L94.73,121.69L95.38,100.16L96.69,118.46L97.34,117.02L99.96,104.46L100.61,109.85L101.26,115.59L101.92,103.39L102.57,98.72L103.22,101.23L104.53,82.21L105.18,85.8L105.84,86.16L106.49,92.62L107.14,90.83L107.8,82.93L108.45,88.31L109.1,87.6L109.76,85.08L110.41,73.6L111.06,77.55L112.37,92.98L113.02,91.9L114.33,70.37L114.98,85.44L115.64,80.78L116.29,81.14L116.94,78.98L117.6,84.73L118.25,74.32L118.9,85.8L119.56,85.44L120.21,76.47L120.86,72.16L121.52,90.47L122.17,84.01L122.82,91.19L123.47,90.11L124.13,94.06L124.78,85.08L125.43,96.93L126.74,80.78L127.39,87.6L128.05,76.11L128.7,86.52L130.01,59.6L130.66,62.47L131.31,58.17L131.97,64.27L132.62,57.81L133.27,65.35L133.93,72.88L134.58,68.93L135.23,69.65L135.89,82.21L136.54,67.14L137.19,69.29L137.85,72.16L138.5,72.88L139.15,80.78L140.46,66.06L141.11,67.86L141.77,68.22L142.42,75.39L143.07,76.83L143.73,58.89L145.03,46.33L145.69,49.91L146.99,70.73L147.65,69.65L148.3,66.42L148.95,78.62L149.61,75.75L150.26,54.94L150.91,58.53L151.57,71.09L152.22,74.32L152.87,60.68L153.53,65.35L154.18,60.68L154.83,64.63L155.49,58.17L156.14,50.27L156.79,60.68L157.45,47.04L158.1,68.93L159.41,45.97L160.06,43.81L160.71,54.22L161.37,44.89L162.02,32.69L162.67,39.15L163.33,44.89L163.98,40.22L165.94,59.6L166.59,42.38L167.25,58.89L167.9,57.45L168.55,56.01L169.21,42.38L169.86,50.99L171.82,34.12L172.47,34.12L173.78,45.61L174.43,49.56L175.09,49.2L175.74,51.71L177.05,61.76L177.7,55.3L178.35,66.78" style="vector-effect: non-scaling-stroke; fill: none; stroke: rgb(239, 85, 59); stroke-opacity: 1; stroke-width: 2px; opacity: 1;"/></g><g class="points"/><g class="text"/></g><g class="trace scatter tracebd0b10" style="stroke-miterlimit: 2; opacity: 1;"><g class="fills"/><g class="errorbars"/><g class="lines"><path class="js-line" d="M0,301.49L1.31,300.23L1.96,300.41L3.27,300.59L3.92,300.41L5.23,300.41L5.88,300.41L8.49,300.41L9.15,299.69L9.8,300.59L10.45,300.05L11.11,299.51L11.76,300.05L13.07,300.05L13.72,299.69L16.33,298.98L16.99,297.72L18.29,297.72L18.95,298.62L19.6,298.26L20.25,295.93L20.91,297.54L21.56,297.18L22.21,297.36L23.52,293.05L24.17,293.59L24.83,291.44L25.48,291.8L26.13,286.24L26.79,285.88L27.44,287.67L29.4,288.75L30.05,290.9L31.36,286.06L32.01,286.59L35.28,276.19L35.93,270.44L36.59,272.42L37.24,271.16L38.55,266.86L39.2,263.99L40.51,250.71L41.16,251.78L41.81,249.63L42.46,244.43L43.12,252.32L43.77,238.15L44.42,248.37L45.08,241.73L45.73,251.78L46.38,249.81L47.04,238.68L47.69,242.45L48.34,243.53L49,238.15L49.65,239.04L50.3,236.35L50.96,228.81L51.61,249.09L52.26,247.66L52.92,236.35L53.57,238.33L54.22,245.14L55.53,240.12L56.18,239.94L56.84,239.4L57.49,237.61L58.14,235.27L58.8,244.61L60.1,249.09L60.76,246.76L62.72,226.3L63.37,213.92L64.02,234.56L64.68,229.89L65.33,219.66L65.98,231.51L67.94,212.67L68.6,222.53L69.25,229.53L69.9,217.69L71.21,210.15L71.86,197.59L72.52,208L73.17,204.59L73.82,210.15L74.48,198.67L75.78,210.69L76.44,204.77L77.09,211.59L77.74,206.03L78.4,213.92L79.05,203.69L80.36,204.77L81.01,199.57L82.32,190.24L82.97,182.52L83.62,182.88L84.28,193.11L84.93,190.95L85.58,199.93L87.54,175.7L88.2,187.19L89.5,170.32L90.16,181.98L90.81,171.57L91.46,176.96L92.77,194.18L93.42,192.93L95.38,174.8L96.04,174.98L96.69,177.14L97.34,165.47L98,183.78L98.65,161.53L99.3,161.88L99.96,174.27L100.61,172.47L101.26,178.93L102.57,159.01L103.22,160.27L104.53,149.68L105.18,165.11L106.49,151.48L107.14,154.35L107.8,136.94L108.45,142.68L109.1,139.27L109.76,142.68L110.41,142.33L111.06,146.45L111.72,145.2L112.37,142.33L113.02,135.69L113.68,143.04L114.33,130.84L114.98,131.74L115.64,134.79L116.94,134.61L117.6,142.5L118.25,149.5L118.9,136.58L119.56,140.17L120.21,132.46L121.52,146.27L122.17,149.32L122.82,139.99L123.47,145.38L124.13,144.12L124.78,130.48L126.09,133.89L126.74,125.46L127.39,122.23L128.05,132.81L130.01,115.77L130.66,121.33L131.31,117.38L131.97,118.82L132.62,118.82L133.27,120.97L133.93,117.56L134.58,131.38L135.23,126.89L135.89,131.92L136.54,119.72L137.19,128.51L137.85,131.92L138.5,120.25L139.15,120.07L139.81,125.28L140.46,112.36L141.11,121.69L141.77,117.02L142.42,122.23L143.73,114.33L144.38,117.92L145.03,118.28L145.69,124.2L146.34,108.41L146.99,118.64L147.65,109.67L148.3,111.28L148.95,112.72L149.61,116.84L150.91,110.39L151.57,114.69L152.22,110.03L152.87,121.15L154.83,103.75L155.49,118.82L156.14,106.44L156.79,111.46L157.45,110.03L158.1,110.74L160.06,105.54L160.71,103.93L161.37,108.41L162.02,100.52L162.67,101.95L163.33,96.21L163.98,108.59L164.63,106.98L165.29,108.77L165.94,102.67L166.59,104.82L167.25,111.64L167.9,107.16L168.55,113.26L169.21,107.69L169.86,106.8L170.51,109.67L171.17,108.59L171.82,104.1L172.47,103.75L173.13,114.69L174.43,96.57L175.09,98.18L175.74,104.28L176.39,103.21L177.05,107.33L177.7,106.8L178.35,99.26L180.31,105L180.97,93.88L182.93,105L183.58,92.62L184.23,110.21L184.89,109.49L185.54,105.54L186.85,98.9L187.5,113.79L188.15,106.62L188.81,112.36L189.46,99.44L190.11,106.98L190.77,111.64L191.42,110.92L192.07,99.44L193.38,113.97L194.03,106.26L194.69,99.08L195.34,101.41L195.99,112.18L196.65,109.49L198.61,98.54L199.26,103.39L200.57,95.85L201.22,98.72L201.87,100.52L202.53,95.49L203.18,107.51L203.83,101.77L204.48,107.16L205.14,97.82L205.79,107.16L206.44,90.29L207.1,107.87L207.75,103.93L208.4,96.75L209.06,103.75L209.71,102.31L210.36,106.98L211.02,96.75L211.67,105.72L212.98,95.67L213.63,109.49L214.28,99.08L214.94,104.1L215.59,105.54L216.24,94.06L217.55,102.13L218.2,98.54L218.86,94.06L219.51,101.23L220.16,98.54L220.82,100.87L221.47,100.7L222.12,102.85L222.78,93.7L223.43,103.57L224.08,103.21L224.74,89.03L225.39,109.67L226.04,94.24L227.35,105.72L228,101.77L228.66,96.21L229.31,99.26L229.96,99.62L230.62,94.06L231.27,101.23L231.92,101.05L232.58,99.8L233.23,100.34L233.88,102.67L235.19,101.41L235.84,105.72L237.8,98.36L238.46,106.8L239.11,101.95L239.76,112L241.07,103.39L241.72,112.36L243.03,99.8L243.68,97.64L244.99,105.72L245.64,99.62L246.3,104.28L246.95,102.13L247.6,113.08L248.26,103.93L248.91,103.03L249.56,96.03L250.22,94.77L250.87,108.77L251.52,105.72L252.18,109.13L253.48,112.9L254.14,105L254.79,101.77L255.44,105.9L256.75,98L257.4,98.36L258.06,104.64L258.71,102.31L259.36,105.72L260.02,100.87L260.67,90.29L261.32,104.28L261.98,92.98L262.63,93.34L263.28,96.75L264.59,104.82L265.24,93.16L265.9,92.44L266.55,109.67L269.16,96.21L269.82,93.52L270.47,97.47L271.12,93.16L271.78,103.75L272.43,97.11L273.08,103.93L273.74,97.11L274.39,102.67L275.04,99.26L275.7,103.75L276.35,95.85L277,94.41L277.66,99.8L278.31,101.95L278.96,92.26L279.62,101.05L280.27,98.54L280.92,97.64L281.58,101.95L282.23,106.62L282.88,93.7L283.54,100.16L284.19,94.77L285.49,107.87L286.15,101.77L286.8,106.62L287.45,99.62L288.11,98.18L288.76,102.49L289.41,97.82L290.07,99.98L290.72,98.9L291.37,101.95L292.03,91.36L292.68,101.95L293.33,103.93L293.99,92.26L294.64,89.39L295.29,102.85L296.6,94.24L297.25,98.18L298.56,92.26L299.21,106.8L300.52,85.08L301.17,99.44L301.83,98.9L302.48,94.41L303.13,104.82L303.79,96.39L304.44,96.39L305.09,103.21L305.75,92.98L306.4,103.21L307.05,96.57L307.71,111.82L308.36,112.18L309.01,109.13L309.67,100.87L310.32,104.82L311.63,103.75L312.28,98.36L312.93,94.77L313.59,99.08L314.24,90.11L314.89,94.59L315.55,104.64L316.2,93.7L316.85,100.34L317.51,95.85L318.16,91.36L318.81,94.24L319.47,103.21L320.12,98.72L320.77,100.34L321.43,95.31L322.08,110.92L322.73,105L323.39,106.62L324.04,98.72L324.69,98.54L325.35,94.59L326,97.29" style="vector-effect: non-scaling-stroke; fill: none; stroke: rgb(0, 204, 150); stroke-opacity: 1; stroke-width: 2px; opacity: 1;"/></g><g class="points"/><g class="text"/></g><g class="trace scatter trace355d2a" style="stroke-miterlimit: 2; opacity: 1;"><g class="fills"/><g class="errorbars"/><g class="lines"><path class="js-line" d="M0,300.41L0.65,300.41L1.31,304L1.96,304L2.61,296.82L3.92,304L4.57,300.41L5.23,296.82L5.88,304L6.53,296.82L7.19,300.41L7.84,300.41L8.49,293.23L9.15,282.47L9.8,296.82L11.11,304L11.76,300.41L12.41,296.82L13.07,300.41L15.03,293.23L15.68,282.47L16.33,300.41L16.99,296.82L17.64,296.82L18.29,300.41L18.95,300.41L19.6,286.06L20.25,282.47L20.91,260.93L22.21,293.23L22.87,286.06L23.52,253.76L24.17,271.7L24.83,278.88L25.48,260.93L26.13,278.88L26.79,260.93L28.09,300.41L28.75,239.4L30.05,257.35L30.71,235.81L31.36,275.29L32.01,250.17L33.32,282.47L33.97,221.46L34.63,282.47L35.28,275.29L35.93,207.1L37.24,260.93L37.89,260.93L39.2,246.58L39.85,250.17L41.16,174.8L41.81,239.4L42.46,217.87L43.12,225.05L43.77,239.4L44.42,199.93L46.38,232.22L47.04,210.69L47.69,217.87L48.34,235.81L49.65,217.87L50.3,257.35L50.96,221.46L51.61,120.97L52.26,235.81L52.92,178.39L53.57,246.58L54.22,189.16L54.88,174.8L55.53,207.1L56.18,153.27L56.84,246.58L57.49,217.87L58.14,142.5L58.8,149.68L59.45,210.69L60.76,160.45L61.41,207.1L62.06,232.22L62.72,131.74L64.02,174.8L64.68,192.75L65.33,135.33L65.98,171.21L66.64,199.93L67.29,120.97L68.6,199.93L69.25,138.92L69.9,185.57L70.56,149.68L71.21,146.09L71.86,149.68L72.52,138.92L73.17,174.8L74.48,113.79L75.13,189.16L75.78,221.46L76.44,160.45L77.09,160.45L77.74,164.04L79.05,196.34L79.7,189.16L80.36,142.5L81.01,156.86L81.66,181.98L82.32,164.04L82.97,178.39L83.62,174.8L84.28,146.09L84.93,174.8L85.58,128.15L86.24,160.45L86.89,156.86L87.54,138.92L88.85,120.97L89.5,128.15L90.16,106.62L90.81,164.04L91.46,70.73L92.12,138.92L92.77,128.15L93.42,153.27L94.08,149.68L94.73,156.86L96.04,88.67L96.69,117.38L97.34,210.69L98,113.79L98.65,99.44L99.3,138.92L99.96,77.91L100.61,142.5L101.26,178.39L101.92,164.04L102.57,124.56L103.22,189.16L104.53,103.03L105.18,192.75L105.84,117.38L106.49,171.21L107.14,131.74L107.8,192.75L108.45,124.56L109.1,153.27L109.76,156.86L110.41,128.15L111.06,138.92L111.72,124.56L112.37,142.5L113.02,128.15L114.33,92.26L114.98,153.27L115.64,160.45L116.29,146.09L116.94,156.86L117.6,120.97L118.25,95.85L118.9,142.5L119.56,103.03L120.21,117.38L120.86,128.15L121.52,88.67L122.17,196.34L122.82,149.68L123.47,164.04L124.13,156.86L124.78,164.04L125.43,153.27L126.09,124.56L126.74,135.33L127.39,135.33L128.05,171.21L128.7,117.38L129.35,138.92L130.01,142.5L130.66,77.91L133.27,185.57L133.93,128.15L135.23,113.79L135.89,131.74L137.19,113.79L137.85,70.73L138.5,120.97L139.15,70.73L139.81,156.86L140.46,99.44L141.11,56.37L141.77,120.97L142.42,164.04L143.07,117.38L143.73,135.33L144.38,117.38L145.03,106.62L145.69,149.68L146.99,138.92L147.65,149.68L148.3,153.27L148.95,117.38L149.61,110.21L150.26,131.74L151.57,92.26L152.22,106.62L152.87,128.15L153.53,99.44L154.18,42.02L154.83,174.8L155.49,92.26L156.14,124.56L156.79,110.21L157.45,120.97L158.1,67.14L158.75,171.21L159.41,95.85L160.06,138.92L160.71,113.79L161.37,167.63L162.02,135.33L162.67,146.09L163.98,124.56L164.63,74.32L165.29,74.32L165.94,156.86L166.59,120.97L167.25,192.75L169.21,74.32L169.86,85.08L170.51,103.03L171.17,81.5L171.82,95.85L172.47,88.67L173.13,110.21L173.78,103.03L174.43,99.44L175.09,70.73L175.74,117.38L176.39,77.91L177.05,149.68L177.7,56.37L179.01,92.26" style="vector-effect: non-scaling-stroke; fill: none; stroke: rgb(171, 99, 250); stroke-opacity: 1; stroke-width: 2px; opacity: 1;"/></g><g class="points"/><g class="text"/></g><g class="trace scatter tracedcafe1" style="stroke-miterlimit: 2; opacity: 1;"><g class="fills"/><g class="errorbars"/><g class="lines"><path class="js-line" d="M0,301.49L9.15,300.77L9.8,300.23L11.11,300.95L11.76,300.41L13.07,300.77L13.72,300.59L15.68,300.77L16.33,300.41L17.64,300.05L18.29,300.41L26.13,299.69L26.79,298.98L28.09,298.98L28.75,299.87L32.01,298.08L32.67,298.08L33.97,293.41L34.63,295.75L36.59,290.54L37.24,285.34L39.2,264.88L39.85,265.96L40.51,260.22L41.16,245.86L41.81,257.17L42.46,244.79L43.12,262.73L43.77,239.58L44.42,246.22L45.08,229.53L47.04,242.81L47.69,232.58L48.34,232.4L49,227.38L50.96,204.77L51.61,212.84L52.26,207.1L52.92,210.15L54.22,189.34L54.88,192.75L56.18,176.06L56.84,184.49L57.49,179.65L58.14,166.19L58.8,172.65L59.45,162.24L60.1,169.6L60.76,168.7L61.41,164.04L62.06,152.73L62.72,161.88L64.02,151.84L64.68,152.55L65.33,166.91L65.98,144.3L66.64,151.12L67.29,147.35L67.94,143.4L68.6,133.71L69.25,135.87L69.9,148.61L70.56,149.5L71.21,143.76L71.86,132.64L72.52,145.2L74.48,134.25L75.13,147.17L75.78,125.46L76.44,128.33L77.09,115.23L77.74,115.95L78.4,124.38L79.7,120.25L80.36,121.33L81.01,123.66L81.66,118.28L82.32,120.07L82.97,116.13L83.62,103.57L84.28,113.26L84.93,107.33L85.58,121.33L86.24,118.1L86.89,130.3L89.5,113.79L90.16,123.3L90.81,130.66L91.46,116.13L92.12,126.36L92.77,113.44L94.08,126.71L94.73,116.84L95.38,127.97L96.04,121.33L96.69,115.95L97.34,102.49L98,115.23L98.65,107.51L99.96,113.44L100.61,110.56L101.26,118.28L101.92,114.15L102.57,114.87L103.22,108.05L103.88,106.8L104.53,112.18L105.18,103.75L105.84,104.1L106.49,115.23L107.14,104.46L107.8,110.21L108.45,107.51L109.1,110.92L110.41,108.05L111.06,109.31L111.72,107.69L112.37,112.36L113.02,104.28L113.68,106.26L114.98,91.54L115.64,101.23L116.29,102.67L116.94,99.26L118.25,106.44L118.9,91.9L119.56,97.64L120.21,94.77L120.86,105L121.52,102.67L122.17,111.46L122.82,102.31L123.47,98.18L124.13,87.42L125.43,89.39L126.09,100.16L126.74,97.29L127.39,98.72L128.05,97.82L128.7,103.57L129.35,104.64L130.01,95.85L131.31,88.49L131.97,94.41L132.62,84.9L133.27,89.57L133.93,89.21L134.58,93.52L135.23,102.31L135.89,98.18L136.54,93.52L137.19,96.21L138.5,91.01L139.15,91.72L139.81,91.19L140.46,82.57L141.11,94.41L141.77,87.96L142.42,95.49L143.07,89.93L143.73,94.24L144.38,83.29L145.03,98.18L145.69,84.9L146.34,89.03L146.99,87.78L147.65,86.88L148.3,83.29L149.61,95.85L150.26,101.59L150.91,85.26L151.57,86.88L152.22,91.36L152.87,92.8L153.53,90.29L154.18,81.32L154.83,87.42L155.49,78.27L156.14,80.06L156.79,75.04L157.45,80.42L158.1,75.21L158.75,82.57L160.71,74.68L161.37,76.83L162.02,77.01L162.67,88.67L163.33,72.88L163.98,79.7L164.63,89.57L165.29,74.5L165.94,79.16L166.59,72.52L167.9,70.55L168.55,88.13L169.21,82.93L169.86,83.83L171.17,83.11L171.82,85.62L172.47,86.16L173.13,84.19L174.43,82.03L175.09,89.75L175.74,82.03L176.39,88.85L177.05,70.55L177.7,79.88L178.35,74.5L179.01,74.86L179.66,86.7L180.31,72.16L180.97,79.16L181.62,80.78L182.27,80.42L182.93,77.55L184.23,79.88L184.89,78.62L185.54,81.14L186.19,87.96L186.85,76.83L187.5,78.27L188.15,78.62L188.81,75.93L189.46,80.06L190.11,83.83L190.77,70.91L191.42,82.39L192.07,80.78L192.73,83.83L193.38,96.03L194.03,78.98L194.69,69.29L195.34,76.65L195.99,80.24L196.65,71.27L197.3,77.01L197.95,70.55L199.26,82.03L199.91,66.42L200.57,86.16L201.22,75.21L201.87,82.75L202.53,71.81L203.83,77.73L204.48,69.65L205.14,64.45L205.79,67.14L207.75,74.14L208.4,64.63L209.06,69.83L209.71,68.4L210.36,65.7L211.02,70.55L211.67,62.83L212.32,74.68L213.63,70.01L214.28,69.11L214.94,67.14L215.59,71.99L216.24,63.73L216.9,70.37L217.55,78.8L218.2,65.88L220.16,65.17L220.82,72.16L221.47,74.5L222.12,72.52L222.78,71.81L223.43,66.6L224.08,77.55L224.74,68.58L225.39,75.39L226.04,68.04L227.35,73.42L228,63.91L229.31,85.98L229.96,73.42L230.62,71.45L231.27,71.81L231.92,75.93L233.23,68.58L233.88,68.04L234.54,58.89L235.19,74.68L235.84,74.86L236.5,70.73L237.15,67.5L237.8,78.27L238.46,70.73L239.11,74.32L239.76,71.63L240.42,85.26L241.07,87.24L241.72,67.86L242.38,79.88L243.03,73.6L243.68,88.49L244.34,80.78L245.64,75.75L246.3,77.55L246.95,77.37L247.6,71.99L248.26,73.06L248.91,80.96L249.56,86.88L250.22,83.11L250.87,87.24L251.52,86.7L252.18,81.67L254.14,75.39L254.79,80.42L255.44,81.32L256.1,68.4L256.75,83.65L257.4,79.34L258.06,92.8L258.71,89.93L259.36,79.7L260.02,87.06L260.67,82.75L261.32,83.47L261.98,77.01L262.63,84.37L263.28,81.67L263.94,85.8L264.59,85.98L265.24,80.6L265.9,84.37L266.55,80.24L267.86,84.73L268.51,78.98L269.82,90.83L270.47,89.39L271.78,82.75L272.43,78.44L273.74,74.86L274.39,78.44L275.04,80.96L275.7,89.03L277.66,77.01L278.31,89.03L278.96,74.32L279.62,82.03L280.27,78.27L280.92,90.11L281.58,85.26L282.23,89.75L282.88,80.42L283.54,86.7L284.84,73.96L285.49,77.91L286.8,87.06L287.45,82.39L288.11,93.7L288.76,81.67L290.07,89.39L290.72,86.16L291.37,80.78L292.03,91.36L292.68,78.98L293.33,83.83L293.99,78.98L294.64,84.73L295.29,82.39L295.95,84.55L296.6,78.8L297.25,86.88L297.91,80.96L298.56,92.44L299.21,91.54L299.87,84.9L300.52,84.9L301.17,90.29L301.83,83.11L302.48,93.34L303.13,73.96L303.79,81.5L305.75,94.77L306.4,77.91L307.05,86.52L307.71,86.34L308.36,88.67L309.67,96.57L310.32,89.93L310.97,82.39L311.63,89.75L312.28,86.88L312.93,98.36L313.59,88.31L314.24,92.44L314.89,98.9L315.55,89.21L316.2,88.31L316.85,96.93L317.51,81.14L318.16,98.18L318.81,103.75L319.47,98.54L321.43,87.06L322.08,106.08L323.39,94.95L324.04,99.44L324.69,92.44L325.35,99.44L326,88.67" style="vector-effect: non-scaling-stroke; fill: none; stroke: rgb(255, 161, 90); stroke-opacity: 1; stroke-width: 2px; opacity: 1;"/></g><g class="points"/><g class="text"/></g><g class="trace scatter trace4aa276" style="stroke-miterlimit: 2; opacity: 1;"><g class="fills"/><g class="errorbars"/><g class="lines"><path class="js-line" d="M0,301.31L2.61,301.13L3.27,301.31L7.19,300.23L7.84,300.41L9.15,300.95L9.8,300.59L11.11,298.62L11.76,300.05L12.41,299.69L13.07,300.23L13.72,300.41L14.37,299.69L16.99,300.05L17.64,300.41L18.95,299.87L19.6,296.64L20.91,297.54L21.56,287.85L22.21,287.85L22.87,286.41L23.52,281.93L24.17,270.98L24.83,277.8L25.48,270.98L26.79,264.16L27.44,271.16L28.09,248.91L28.75,256.99L29.4,244.61L30.05,249.81L30.71,248.01L31.36,239.4L32.01,249.81L32.67,229.71L33.32,232.94L33.97,229.35L34.63,224.87L35.28,231.15L35.93,220.56L36.59,230.97L37.24,222.71L37.89,228.28L40.51,197.77L41.16,199.39L41.81,196.52L42.46,182.52L43.12,185.03L43.77,191.31L45.08,187.01L45.73,179.83L46.38,191.13L47.04,182.52L47.69,181.44L48.34,186.47L49,190.41L49.65,173.19L50.3,175.7L50.96,166.37L51.61,153.99L52.26,157.04L52.92,156.68L53.57,152.19L54.22,164.76L54.88,158.3L57.49,147.89L58.14,147.35L58.8,141.25L59.45,153.99L61.41,136.22L62.06,139.81L62.72,120.07L63.37,134.61L64.02,119.18L64.68,127.97L65.33,116.67L65.98,133.17L66.64,130.84L67.29,142.33L67.94,148.25L68.6,135.15L69.25,136.58L69.9,121.69L71.21,143.94L71.86,125.64L72.52,132.81L73.17,132.28L73.82,136.04L74.48,126.89L75.13,129.05L75.78,140.17L76.44,138.56L77.09,143.22L77.74,132.64L79.05,145.02L79.7,132.46L80.36,117.38L81.01,129.94L82.32,121.33L82.97,122.95L83.62,111.46L84.28,113.61L84.93,101.59L85.58,104.64L86.24,109.31L86.89,105.72L88.2,77.19L88.85,84.9L89.5,92.98L90.16,88.31L90.81,92.98L91.46,85.08L92.12,101.05L92.77,82.39L93.42,84.37L94.08,82.03L94.73,88.31L95.38,79.52L96.04,99.44L96.69,86.52L97.34,67.68L98,77.37L98.65,81.85L99.3,68.58L99.96,70.73L100.61,69.65L101.26,66.96L101.92,69.29L102.57,67.14L103.22,70.91L103.88,50.27L104.53,55.66L105.18,58.17L105.84,46.33L106.49,64.27L107.14,62.65L107.8,65.17L108.45,58.35L109.1,61.04L109.76,64.63L110.41,61.58L111.06,59.42L111.72,66.6L112.37,66.78L113.02,56.37L113.68,67.5L114.33,63.55L114.98,58.35L115.64,65.17L116.29,48.3L116.94,51.35L117.6,41.66L118.25,56.55L118.9,54.58L119.56,48.3L120.86,55.48L121.52,58.89L122.17,46.33L122.82,57.09L123.47,44.71L124.13,65.35L124.78,51.35L125.43,57.27L126.09,50.27L126.74,60.86L127.39,56.37L128.05,58.53L129.35,53.86L130.01,52.96L130.66,54.94L131.31,51.35L133.27,57.99L133.93,47.04L135.23,56.91L135.89,56.01L136.54,45.25L137.19,50.63L138.5,56.55L139.15,52.96L140.46,51.89L141.11,53.32L141.77,51.53L142.42,46.5L143.07,59.24L143.73,40.58L145.69,55.48L146.34,53.5L146.99,51.71L147.65,34.48L148.3,39.51L148.95,50.81L150.26,38.25L150.91,43.1L151.57,37.53L152.22,42.56L152.87,37.35L153.53,47.4L154.18,42.74L154.83,46.5L155.49,48.66L156.14,48.12L156.79,39.69L157.45,50.27L158.1,47.4L158.75,48.48L159.41,44.17L160.06,56.37L162.02,34.84L162.67,41.84L163.33,42.02L163.98,47.4L164.63,34.12L165.29,45.43L166.59,36.64L167.25,43.27L167.9,41.66L168.55,46.86L169.21,54.22L169.86,50.27L170.51,52.79L171.17,43.1L171.82,52.61L172.47,45.43L173.13,42.92L173.78,44.53L174.43,43.81L175.09,40.58L176.39,53.32L177.05,47.76L177.7,58.53L178.35,49.02L179.01,48.66L179.66,62.65L180.31,47.94L180.97,56.19L181.62,53.86L182.27,55.12L182.93,56.37L183.58,45.25L184.23,63.01L184.89,54.04L186.19,48.3L186.85,44.71L187.5,43.1L188.15,52.43L189.46,58.35L190.11,49.02L191.42,57.45L192.07,56.37L193.38,61.76L194.03,60.32L194.69,57.09L195.34,44.71L196.65,56.01L197.3,44.53L198.61,49.2L199.26,40.4L199.91,40.76L200.57,38.07L201.22,46.33L201.87,35.92L202.53,46.5L203.18,37.71L203.83,38.25L204.48,43.63L205.14,50.81L205.79,42.02L206.44,33.94L207.1,43.45L207.75,35.56L208.4,39.87L209.06,42.2L209.71,34.3L211.02,45.61L211.67,47.04L212.32,54.76L212.98,48.12L213.63,47.94L214.28,46.15L216.24,39.69L216.9,52.25L218.2,38.79L218.86,52.61L219.51,53.5L220.16,62.3L220.82,37.71L221.47,51.71L222.12,54.4L222.78,48.3L223.43,40.58L224.08,42.02L224.74,39.69L225.39,30.71L226.7,41.12L227.35,36.64L228.66,45.97L229.31,37.35L229.96,47.22L230.62,42.38L231.27,39.87L231.92,42.38L232.58,49.73L233.23,45.25L234.54,51.35L235.19,49.56L236.5,42.38L237.15,46.68L238.46,33.23L239.11,50.27L240.42,32.51L241.07,38.61L241.72,29.46L242.38,40.94L243.03,42.02L243.68,49.2L244.34,33.76L244.99,43.99L245.64,36.99L246.3,46.86L246.95,47.22L247.6,37.71L248.91,48.84L249.56,41.66L250.87,58.89L251.52,44.53L252.18,44.89L252.83,47.94L253.48,45.25L254.14,58.71L255.44,37.53L256.1,44.35L256.75,50.63L257.4,44.53L258.71,39.33L259.36,50.09L260.67,38.25L261.32,43.1L261.98,36.81L262.63,38.61L263.28,37.89L263.94,32.33L264.59,41.12L265.24,34.84L265.9,40.4L266.55,35.56L267.86,24.97L268.51,31.79L269.16,45.07L269.82,38.25L270.47,43.45L271.12,37.71L271.78,44.53L272.43,41.84L273.08,34.3L273.74,34.48L274.39,36.81L275.04,32.51L275.7,48.48L277,38.43L277.66,38.79L278.31,46.5L278.96,37.35L279.62,43.1L280.27,39.87L280.92,51.17L281.58,38.61L282.23,41.48L282.88,46.33L283.54,42.92L285.49,61.76L286.15,45.25L287.45,54.58L288.11,48.66L288.76,49.2L289.41,60.14L290.07,47.04L290.72,49.91L291.37,56.73L292.03,50.63L292.68,45.61L293.33,47.4L293.99,52.25L294.64,47.22L295.29,46.86L295.95,52.07L296.6,42.38L297.25,42.56L297.91,49.38L299.21,35.2L299.87,33.05L300.52,30.18L301.17,37.17L301.83,40.4L302.48,36.81L303.13,46.5L303.79,35.2L304.44,43.45L305.09,31.61L305.75,35.56L306.4,34.66L307.05,29.1L307.71,41.66L309.01,31.43L309.67,37.89L310.32,20.49L310.97,31.25L311.63,24.43L312.28,40.76L312.93,41.66L313.59,26.41L314.24,31.79L314.89,16L315.55,38.43L316.2,31.07L316.85,27.66L317.51,27.84L318.16,37.35L318.81,17.79L319.47,28.38L320.77,18.33L321.43,32.87L324.04,18.51L324.69,30.18L325.35,28.92L326,43.1" style="vector-effect: non-scaling-stroke; fill: none; stroke: rgb(25, 211, 243); stroke-opacity: 1; stroke-width: 2px; opacity: 1;"/></g><g class="points"/><g class="text"/></g><g class="trace scatter trace3f5dd1" style="stroke-miterlimit: 2; opacity: 1;"><g class="fills"/><g class="errorbars"/><g class="lines"><path class="js-line" d="M0,301.49L1.96,300.77L2.61,301.13L3.92,300.77L4.57,301.13L5.88,300.41L6.53,301.49L8.49,299.33L9.15,299.33L9.8,300.41L10.45,299.69L11.11,299.33L11.76,300.05L12.41,300.41L13.07,299.69L14.37,300.05L15.03,299.69L15.68,300.41L16.33,298.98L17.64,300.77L18.29,300.05L19.6,301.13L20.25,300.41L20.91,299.69L21.56,300.41L23.52,300.05L24.17,300.05L25.48,298.26L26.13,300.05L27.44,297.9L28.09,292.87L28.75,292.87L29.4,300.41L31.36,297.9L32.01,299.33L32.67,294.67L33.32,297.54L33.97,298.62L34.63,288.21L35.28,293.23L35.93,290L37.24,296.82L37.89,293.95L38.55,291.44L39.2,291.8L39.85,291.44L41.81,283.54L42.46,289.29L43.12,290L43.77,286.06L44.42,288.57L45.08,287.13L45.73,291.08L46.38,287.49L47.04,292.87L47.69,284.26L48.34,282.47L49,288.57L50.3,283.9L50.96,285.34L51.61,286.06L52.26,282.83L53.57,280.31L54.22,282.47L54.88,277.08L55.53,286.77L56.18,286.06L56.84,290.72L58.14,284.26L58.8,270.62L59.45,276.37L60.1,270.27L62.06,285.34L62.72,276.73L63.37,276.37L64.02,287.13L65.33,282.47L65.98,281.39L68.6,287.49L69.25,285.7L69.9,283.9L70.56,291.08L71.86,291.44L72.52,290.36L74.48,292.16L75.13,291.08L77.74,285.7L78.4,288.57L79.7,282.11L80.36,287.13L81.01,282.47L81.66,282.83L82.32,287.49L83.62,281.03L84.28,282.83L84.93,279.24L85.58,281.03L86.24,279.96L86.89,282.11L87.54,277.8L88.2,279.6L88.85,276.37L89.5,277.8L90.16,279.6L90.81,272.06L91.46,279.96L92.12,274.21L94.08,241.91L94.73,252.32L96.04,239.04L96.69,239.4L97.34,235.45L98,242.99L98.65,223.97L99.3,239.04L99.96,238.33L100.61,234.38L101.26,227.92L101.92,232.94L102.57,235.45L103.22,234.74L103.88,227.92L104.53,243.71L106.49,229.71L107.14,229.71L108.45,220.74L109.1,219.66L109.76,225.76L110.41,219.66L111.06,215.36L111.72,228.28L113.02,222.53L113.68,206.74L114.33,223.61L114.98,212.84L115.64,233.66L116.29,229.71L117.6,216.79L118.25,223.25L119.56,206.39L120.21,217.87L121.52,210.33L122.17,207.1L122.82,209.61L123.47,219.3L124.13,208.18L124.78,212.13L125.43,211.77L126.09,223.25L127.39,218.95L128.05,202.44L129.35,228.64L130.01,227.92L130.66,227.92L131.31,221.82L131.97,198.13L133.27,205.31L133.93,202.08L134.58,185.21L135.23,196.7L135.89,209.61L136.54,184.85L137.19,209.97L137.85,189.88L138.5,184.49L139.15,171.57L139.81,181.62L140.46,168.7L141.11,186.65L141.77,183.42L143.07,171.57L143.73,173.01L145.03,193.47L145.69,183.06L146.34,179.11L146.99,197.41L147.65,178.75L148.3,187.36L150.26,165.47L150.91,180.9L152.22,185.21L152.87,200.64L154.18,170.5L154.83,173.73L155.49,180.55L156.14,168.34L156.79,178.03L157.45,167.27L158.1,175.52L158.75,166.19L159.41,167.63L160.06,180.19L160.71,140.35L161.37,176.24L162.02,180.19L162.67,167.27L163.33,170.5L163.98,154.71L164.63,165.83L165.29,159.37L165.94,170.14L166.59,166.19L167.25,166.91L167.9,169.78L168.55,184.13L169.21,155.78L171.17,192.75L171.82,172.65L172.47,159.73L173.13,166.91L173.78,183.06L174.43,166.91L175.09,155.78L175.74,178.03L176.39,180.55L177.05,180.19L177.7,169.42L178.35,175.88L179.01,165.83L179.66,169.42L180.31,165.47L180.97,162.6L181.62,166.91L182.27,162.24L182.93,166.91L183.58,155.42L184.23,165.83L184.89,184.85L185.54,166.55L186.85,189.16L187.5,181.26L189.46,165.47L190.11,181.62L190.77,169.42L191.42,172.29L192.73,192.03L193.38,170.14L194.69,183.42L195.34,164.76L196.65,183.42L197.3,181.26L197.95,170.86L198.61,185.93L199.26,177.67L199.91,187.72L200.57,165.47L201.22,176.6L202.53,174.09L203.18,169.78L203.83,173.73L204.48,165.83L205.79,185.57L206.44,176.24L207.1,183.42L207.75,175.16L208.4,187.01L209.06,169.78L209.71,174.8L210.36,192.03L211.67,164.04L212.32,168.7L212.98,178.03L213.63,172.65L214.28,173.73L214.94,180.9L215.59,167.27L216.24,179.83L217.55,173.37L218.2,175.88L218.86,168.7L219.51,178.39L220.16,183.78L220.82,180.55L221.47,177.67L222.12,181.26L222.78,185.21L223.43,180.19L224.08,188.8L224.74,171.21L225.39,176.6L226.04,175.16L226.7,177.67L227.35,187.36L228,178.03L228.66,192.75L229.31,185.93L229.96,195.62L231.27,180.19L231.92,183.42L232.58,178.39L233.23,187.72L233.88,183.78L234.54,173.01L235.84,179.83L236.5,172.29L237.15,179.83L237.8,167.63L239.11,182.7L239.76,178.39L241.07,170.86L241.72,185.21L242.38,179.47L243.03,180.19L243.68,183.78L244.34,174.09L244.99,181.98L245.64,185.21L246.3,168.7L246.95,167.63L247.6,180.9L248.26,174.09L248.91,177.67L249.56,171.57L250.22,174.09L250.87,181.98L251.52,166.55L252.18,179.47L252.83,164.4L253.48,166.55L254.14,183.78L254.79,174.09L255.44,177.67L256.1,171.93L256.75,190.24L257.4,170.14L258.06,178.03L258.71,181.62L259.36,169.06L260.02,174.8L260.67,172.65L261.98,181.62L262.63,173.37L263.28,172.29L263.94,162.6L264.59,179.83L265.24,170.14L265.9,187.36L266.55,158.3L267.86,171.21L268.51,172.65L269.82,162.96L270.47,174.8L271.12,167.27L271.78,183.42L272.43,156.5L273.08,176.96L274.39,160.81L275.04,179.47L276.35,161.53L277,171.57L278.31,160.09L278.96,167.63L280.92,154.71L281.58,163.68L282.23,164.4L282.88,173.73L283.54,162.24L284.19,164.76L284.84,160.81L285.49,161.88L286.15,159.37L286.8,171.93L287.45,166.55L288.11,168.34L289.41,156.14L290.07,162.96L290.72,171.57L291.37,160.09L292.03,162.96L292.68,174.09L293.33,176.24L293.99,165.83L295.95,162.6L296.6,163.32L297.25,184.85L297.91,172.29L299.21,165.47L299.87,173.37L300.52,180.9L301.17,170.86L303.13,156.5L303.79,167.99L304.44,172.29L305.09,164.04L305.75,164.76L306.4,163.32L307.05,164.76L307.71,164.4L308.36,159.37L309.01,171.57L309.67,162.96L310.32,160.09L310.97,165.11L311.63,164.4L312.28,153.63L312.93,168.34L313.59,166.19L314.24,163.32L314.89,169.42L316.2,152.91L316.85,152.19L317.51,169.42L318.16,161.88L318.81,153.99L319.47,159.01L320.12,171.93L320.77,166.19L321.43,154.35L322.08,167.27L322.73,169.42L323.39,157.58L324.04,166.19L324.69,162.24L326,166.55" style="vector-effect: non-scaling-stroke; fill: none; stroke: rgb(255, 102, 146); stroke-opacity: 1; stroke-width: 2px; opacity: 1;"/></g><g class="points"/><g class="text"/></g><g class="trace scatter trace0562b8" style="stroke-miterlimit: 2; opacity: 1;"><g class="fills"/><g class="errorbars"/><g class="lines"><path class="js-line" d="M0,304L0.65,304L1.31,296.82L3.27,304L3.92,300.41L4.57,296.82L5.23,304L5.88,296.82L6.53,304L7.84,296.82L8.49,296.82L9.15,296.82L9.8,300.41L11.11,293.23L11.76,296.82L13.07,293.23L13.72,296.82L15.03,304L15.68,304L17.64,286.06L18.29,300.41L20.25,293.23L20.91,296.82L22.21,289.64L22.87,296.82L23.52,293.23L24.17,300.41L24.83,304L25.48,289.64L26.13,304L26.79,300.41L28.09,293.23L28.75,304L29.4,296.82L30.05,278.88L31.36,296.82L32.01,275.29L33.32,289.64L33.97,293.23L34.63,289.64L35.28,264.52L36.59,286.06L37.24,268.11L37.89,286.06L38.55,278.88L39.2,278.88L39.85,286.06L40.51,293.23L41.16,275.29L41.81,293.23L42.46,264.52L43.12,293.23L43.77,278.88L44.42,286.06L45.08,239.4L45.73,275.29L46.38,271.7L47.04,289.64L47.69,246.58L48.34,257.35L49,246.58L49.65,275.29L50.96,289.64L51.61,260.93L52.26,278.88L52.92,264.52L54.22,253.76L54.88,246.58L56.18,260.93L56.84,246.58L57.49,260.93L58.14,250.17L58.8,214.28L59.45,268.11L60.76,242.99L61.41,210.69L63.37,246.58L64.02,242.99L64.68,221.46L65.33,232.22L65.98,239.4L66.64,264.52L67.29,210.69L67.94,246.58L68.6,250.17L69.25,221.46L69.9,196.34L70.56,214.28L71.21,264.52L71.86,235.81L73.17,203.51L73.82,235.81L74.48,221.46L75.13,253.76L75.78,225.05L76.44,239.4L77.74,217.87L78.4,214.28L79.7,225.05L80.36,192.75L81.01,221.46L81.66,203.51L82.32,199.93L82.97,214.28L83.62,225.05L84.28,210.69L85.58,178.39L86.24,203.51L86.89,164.04L87.54,189.16L88.85,214.28L89.5,199.93L90.16,214.28L90.81,164.04L92.12,203.51L92.77,210.69L93.42,167.63L94.08,214.28L94.73,210.69L95.38,160.45L96.69,196.34L97.34,181.98L98.65,199.93L99.3,160.45L100.61,189.16L101.26,221.46L102.57,167.63L103.22,142.5L103.88,196.34L104.53,164.04L105.18,171.21L105.84,189.16L107.14,174.8L107.8,199.93L108.45,192.75L109.1,171.21L109.76,171.21L110.41,167.63" style="vector-effect: non-scaling-stroke; fill: none; stroke: rgb(182, 232, 128); stroke-opacity: 1; stroke-width: 2px; opacity: 1;"/></g><g class="points"/><g class="text"/></g><g class="trace scatter traceadb17f" style="stroke-miterlimit: 2; opacity: 1;"><g class="fills"/><g class="errorbars"/><g class="lines"><path class="js-line" d="M0,301.13L0.65,301.49L1.31,300.77L3.27,300.41L3.92,300.41L5.88,300.77L6.53,300.77L16.99,300.77L17.64,301.13L18.95,301.13L19.6,300.05L20.91,300.41L21.56,300.41L24.17,299.33L24.83,300.05L26.13,299.69L26.79,299.69L28.75,298.26L29.4,299.33L30.05,297.9L30.71,299.33L32.01,298.98L32.67,297.9L33.97,299.33L34.63,297.9L35.93,296.46L36.59,296.1L37.24,297.18L37.89,292.52L38.55,292.52L39.2,296.46L39.85,295.39L40.51,297.9L41.81,294.67L42.46,289.64L43.12,290.72L43.77,287.13L45.08,281.39L45.73,283.19L47.04,269.55L47.69,270.62L48.34,269.91L49,272.42L49.65,265.6L50.3,267.39L50.96,262.73L51.61,265.24L52.26,268.83L52.92,264.16L53.57,264.88L54.22,270.27L54.88,270.98L55.53,278.16L56.84,258.06L57.49,263.81L58.14,264.16L58.8,253.76L60.1,243.35L60.76,249.81L61.41,239.4L62.06,247.66L62.72,238.68L63.37,254.12L64.02,240.48L64.68,243.71L66.64,233.66L67.29,241.56L68.6,239.4L69.25,232.22L69.9,231.15L70.56,234.74L71.21,231.51L71.86,249.45L72.52,231.15L73.17,237.61L74.48,224.33L75.13,223.97L75.78,226.48L76.44,214.28L77.09,232.58L77.74,223.61L78.4,234.02L79.05,219.66L79.7,222.89L80.36,208.9L81.66,217.87L82.32,215.36L82.97,231.87L83.62,222.53L84.28,218.59L84.93,232.58L85.58,239.4L86.24,227.2L87.54,212.13L88.2,213.92L88.85,209.26L89.5,223.97L90.81,219.3L91.46,219.3L92.12,221.46L92.77,209.97L93.42,223.61L94.08,208.54L94.73,210.69L95.38,209.97L96.04,211.77L96.69,217.51L98,197.05L98.65,199.93L99.3,197.05L99.96,205.67L101.26,214.64L101.92,212.84L102.57,203.87L103.22,205.67L104.53,202.44L105.18,211.41L105.84,216.79L106.49,193.11L107.14,191.67L107.8,200.64L108.45,194.54L109.1,200.28L110.41,182.7L111.06,185.21L111.72,187.36L112.37,183.42L113.02,183.78L113.68,180.19L114.33,193.11L114.98,184.85L115.64,190.24L116.29,179.47L116.94,184.13L117.6,166.91L118.9,175.88L119.56,166.91L120.21,176.24L120.86,167.63L121.52,167.99L122.17,164.4L122.82,168.7L123.47,167.27L124.13,167.27L124.78,183.06L125.43,161.17L126.09,165.11L126.74,174.8L127.39,164.76L128.7,173.01L129.35,166.91L130.01,170.5L130.66,169.42L131.31,164.4L131.97,176.24L132.62,176.24L133.27,187.36L133.93,169.06L134.58,176.96L135.23,162.24L135.89,166.55L136.54,171.93L137.19,165.11L137.85,173.01L138.5,171.93L139.15,159.73L139.81,162.96L140.46,180.9L141.11,185.21L141.77,170.5L142.42,178.75L143.07,174.8L143.73,166.55L144.38,178.75L145.03,170.14L145.69,175.16L146.34,182.34L146.99,180.55L148.3,165.47L148.95,177.67L149.61,179.47L150.26,175.52L150.91,180.55L151.57,175.52L153.53,186.65L154.18,174.44L154.83,179.47L155.49,173.01L156.14,179.83L156.79,165.11L158.1,174.44L158.75,167.99L159.41,165.47L160.06,176.24L160.71,183.06L161.37,179.83L162.67,165.83L163.33,178.39L163.98,167.99L164.63,170.86L165.29,167.63L165.94,173.73L167.25,165.83L167.9,161.88L169.21,173.01L169.86,167.27L171.82,174.44L172.47,160.09L173.13,177.32L173.78,171.57L174.43,176.24L175.09,166.55L175.74,163.68L176.39,173.73L177.05,165.11L177.7,170.5L178.35,170.14L179.01,164.4L179.66,151.48L180.31,159.73L180.97,159.37L181.62,148.61L182.27,168.34L182.93,147.53L184.23,162.24L184.89,161.17L185.54,154.35L186.19,159.73L186.85,156.14L187.5,158.3L188.15,155.78L188.81,162.96L189.46,152.19L190.11,156.5L190.77,158.3L191.42,152.91L192.07,173.37L192.73,153.63L194.03,161.53L194.69,156.5L195.34,169.78L195.99,164.4L196.65,164.76L197.3,162.24L197.95,164.4L198.61,160.45L199.26,159.73L199.91,155.07L200.57,159.01L201.22,155.07L201.87,156.5L202.53,163.68L203.18,154.71L203.83,160.09L204.48,162.24L205.14,150.04L205.79,147.17L206.44,160.45L207.1,158.3L207.75,170.86L209.06,162.96L209.71,160.45L210.36,161.88L211.02,168.34L211.67,158.65L212.32,161.88L213.63,154.35L214.28,153.27L214.94,160.09L215.59,156.5L216.24,160.45L216.9,149.32L217.55,163.32L218.2,162.96L218.86,154.71L219.51,155.07L220.16,164.4L222.12,160.81L222.78,156.14L223.43,160.81L224.08,152.91L224.74,164.4L225.39,157.22L227.35,161.88L228,170.86L229.31,153.63L229.96,161.17L230.62,151.84L231.27,164.76L231.92,167.99L232.58,166.91L233.23,164.4L233.88,150.76L234.54,162.96L235.19,151.84L236.5,165.47L237.15,162.6L237.8,163.32L238.46,178.03L239.76,157.94L240.42,158.65L241.07,165.83L241.72,153.63L242.38,169.42L243.03,147.53L243.68,156.14L244.34,165.47L244.99,165.11L245.64,155.42L246.3,161.53L246.95,160.09L247.6,149.32L248.26,165.83L248.91,153.63L249.56,161.53L250.22,153.99L250.87,156.86L251.52,157.94L252.18,167.63L252.83,160.81L253.48,166.91L254.14,167.99L254.79,156.86L255.44,152.91L256.1,173.73L256.75,161.88L257.4,165.83L258.71,158.3L259.36,172.29L260.02,165.83L260.67,146.81L261.98,159.37L262.63,159.73L263.28,161.53L263.94,157.22L264.59,169.78L265.24,157.94L265.9,168.34L266.55,167.99L267.2,161.17L268.51,166.19L269.16,164.04L269.82,164.76L270.47,175.52L271.12,164.04L271.78,167.99L273.08,161.17L273.74,161.88L275.04,165.11L275.7,160.45L277,172.29L277.66,171.57L278.96,172.29L279.62,166.91L280.27,170.5L280.92,163.68L282.23,165.47L282.88,171.57L283.54,154.71L284.19,162.6L285.49,171.93L286.15,165.83L286.8,151.12L287.45,162.96L288.11,165.11L288.76,170.14L289.41,167.63L290.07,176.24L290.72,165.83L291.37,174.09L292.03,169.42L292.68,159.37L293.33,167.27L293.99,160.09L294.64,165.47L295.29,165.11L295.95,169.42L297.25,166.19L297.91,171.21L298.56,162.6L299.21,165.11L300.52,172.29L301.17,171.21L301.83,165.47L302.48,170.5L303.13,176.6L303.79,165.83L305.75,170.86L306.4,162.24L307.71,167.63L308.36,164.4L309.01,164.4L309.67,169.42L310.32,166.19L310.97,166.55L311.63,180.19L312.28,156.14L312.93,168.7L313.59,168.7L314.24,165.11L314.89,177.32L315.55,173.73L316.85,170.86L317.51,174.8L318.81,160.81L319.47,169.06L320.12,165.83L320.77,167.27L321.43,175.52L322.08,173.37L323.39,163.68L324.04,160.45L324.69,166.91L325.35,166.19L326,170.86" style="vector-effect: non-scaling-stroke; fill: none; stroke: rgb(255, 151, 255); stroke-opacity: 1; stroke-width: 2px; opacity: 1;"/></g><g class="points"/><g class="text"/></g><g class="trace scatter trace7fd916" style="stroke-miterlimit: 2; opacity: 1;"><g class="fills"/><g class="errorbars"/><g class="lines"><path class="js-line" d="M0,300.77L0.65,301.13L1.31,300.41L2.61,300.77L3.27,300.05L4.57,300.77L5.23,300.05L5.88,299.69L6.53,300.41L7.19,300.05L7.84,300.77L16.33,300.41L16.99,299.69L17.64,300.05L18.29,299.33L20.25,300.41L20.91,300.77L22.87,297.9L23.52,299.69L24.17,298.26L24.83,298.62L25.48,299.33L28.09,300.05L28.75,298.62L30.05,299.33L30.71,295.75L31.36,298.26L32.01,297.54L33.97,299.69L34.63,300.05L35.28,299.33L35.93,297.18L36.59,296.1L37.24,298.62L37.89,290L38.55,291.08L39.2,292.16L39.85,290.72L40.51,271.34L41.81,297.54L42.46,274.57L43.12,298.98L43.77,295.39L44.42,295.39L45.73,287.49L46.38,293.23L47.04,292.87L47.69,294.67L49,297.9L49.65,297.18L50.96,298.26L51.61,297.54L52.26,296.46L52.92,288.93L53.57,290.36L54.22,294.67L55.53,281.39L56.18,290.36L56.84,288.93L57.49,284.98L58.8,290.72L59.45,292.52L60.1,288.21L60.76,292.87L61.41,292.16L62.06,288.57L62.72,288.57L63.37,286.77L64.02,287.49L64.68,285.34L65.33,272.06L65.98,276.37L67.29,280.31L67.94,264.88L68.6,272.06L69.25,256.27L71.21,203.87L71.86,215L72.52,203.16L73.17,218.95L74.48,182.7L75.13,185.57L75.78,187.72L76.44,176.96L77.09,187.01L77.74,185.21L78.4,190.59L79.05,203.87L80.36,188.44L81.01,191.67L81.66,194.9L82.32,185.21L82.97,183.78L83.62,168.7L84.28,193.47L84.93,171.93L85.58,172.65L86.24,183.42L86.89,183.42L87.54,192.03L88.2,191.67L88.85,176.24L90.16,184.85L90.81,180.55L91.46,190.95L92.12,169.78L92.77,191.67L93.42,181.98L94.08,181.26L94.73,173.01L96.04,180.19L96.69,174.44L97.34,165.47L98,167.27L99.3,157.22L99.96,159.01L100.61,170.14L101.26,168.7L101.92,159.37L102.57,159.73L103.22,170.86L103.88,165.83L104.53,148.61L105.84,162.24L106.49,160.81L107.14,151.48L107.8,155.42L109.76,145.73L110.41,126.36L111.06,152.55L111.72,140.71L113.02,145.02L113.68,149.32L114.98,132.1L115.64,153.99L116.94,121.33L117.6,133.89L118.9,124.92L119.56,134.97L120.21,124.56L120.86,125.64L121.52,142.15L122.17,133.17L122.82,137.84L123.47,122.77L124.13,123.48L124.78,116.31L125.43,118.82L126.09,130.66L126.74,112.72L127.39,118.46L128.05,119.9L128.7,114.15L130.01,126.36L130.66,116.67L131.31,126.36L131.97,119.9L132.62,123.48L133.27,114.51L133.93,114.15L134.58,106.62L135.23,136.04L135.89,119.54L136.54,116.31L137.19,122.05L137.85,114.15L138.5,120.25L139.15,134.61L139.81,115.23L140.46,123.84L141.11,109.49L141.77,111.64L142.42,120.97L143.07,115.23L143.73,133.17L144.38,111.28L145.03,126L145.69,114.87L146.34,127.07L146.99,125.28L147.65,126.36L149.61,108.41L150.26,112.72L150.91,114.15L151.57,105.18L152.22,105.18L152.87,111.64L153.53,112.72L154.18,120.97L154.83,120.25L155.49,110.92L156.14,115.23L156.79,93.34L157.45,104.82L158.1,95.85L158.75,99.44L159.41,110.21L160.06,120.61L160.71,117.02L161.37,104.46L162.02,114.15L162.67,110.56L163.33,117.02L163.98,119.54L164.63,94.77L165.29,120.97L165.94,93.34L166.59,90.83L167.25,94.41L167.9,91.19L168.55,92.26L169.21,91.19L169.86,96.57L170.51,117.38L171.17,98.72L171.82,107.69L172.47,103.75L173.13,99.08L173.78,83.65L174.43,108.77L175.09,96.57L175.74,105.9L176.39,83.29L177.7,108.41L178.35,98.36L179.01,118.1L179.66,99.8L180.31,123.84L180.97,99.08L181.62,113.44L182.27,100.87L182.93,91.54L183.58,111.28L184.23,109.85L184.89,102.31L186.19,118.1L186.85,113.08L188.15,129.23L188.81,133.89L189.46,120.61L190.11,126L190.77,118.1L191.42,138.92L192.07,112.36L192.73,127.07L193.38,115.95L194.03,132.81L194.69,113.08L195.34,122.41L196.65,117.38L197.3,121.69L198.61,112.72L199.26,128.51L199.91,107.69L200.57,115.95L201.22,127.43L201.87,109.85L202.53,112.72L203.18,99.8L203.83,115.95L204.48,98L205.14,117.02L205.79,113.79L206.44,110.92L207.1,118.46L207.75,122.05L208.4,117.38L209.06,126.71L209.71,113.79L210.36,112.36L211.02,117.02L211.67,120.25L212.32,117.38L212.98,123.84L213.63,116.31L214.28,117.02L214.94,103.75L215.59,99.8L216.24,103.03L217.55,112.36L218.2,117.38L218.86,119.54L219.51,104.82L220.82,117.38L221.47,116.31L222.12,103.39L222.78,108.77L224.74,87.24L225.39,92.26L226.04,88.31L226.7,107.33L227.35,94.06L228,105.9L228.66,105.9L229.31,89.03L230.62,90.47L231.27,106.26L231.92,87.96L232.58,103.39L233.23,95.13L233.88,99.08L234.54,106.98L235.19,94.41L235.84,99.08L236.5,87.6L238.46,107.69L239.11,88.67L240.42,96.93L241.07,94.41L241.72,96.57L242.38,94.41L243.03,107.69L243.68,106.62L244.34,99.08L246.3,100.52L246.95,108.77L247.6,95.49L248.26,103.75L248.91,110.56L249.56,94.77L250.22,92.62L250.87,96.57L251.52,106.26L252.18,100.87L252.83,97.64L253.48,101.95L254.14,113.79L254.79,93.34L255.44,110.21L256.1,109.49L256.75,107.69L257.4,107.69L258.06,105.54L258.71,87.6L259.36,109.85L260.02,94.06L260.67,95.13L261.32,97.64L261.98,90.83L262.63,98.72L263.28,100.16L263.94,99.44L264.59,84.73L265.24,105.54L266.55,98.36L267.2,94.41L267.86,82.93L268.51,89.75L269.16,89.39L269.82,92.98L270.47,75.04L271.12,84.73L271.78,87.6L272.43,78.62L273.74,95.85L274.39,74.32L275.04,79.34L275.7,75.04L276.35,72.88L277,75.39L277.66,69.65L278.31,81.5L278.96,72.88L279.62,77.91L280.27,75.04L280.92,79.34L281.58,78.27L282.23,82.21L282.88,69.65L283.54,86.52L284.19,80.06L284.84,89.39L285.49,84.01L286.15,85.8L286.8,86.16L287.45,80.42L288.11,79.34L288.76,83.29L289.41,83.29L290.07,86.88L290.72,84.37L291.37,89.75L292.03,78.62L292.68,87.96L293.33,93.7L293.99,92.26L294.64,88.67L295.29,71.81L295.95,70.01L296.6,70.37L297.25,81.5L297.91,87.24L298.56,85.8L299.21,79.7L299.87,85.44L300.52,80.78L301.17,65.7L303.13,91.9L303.79,73.6L304.44,72.52L305.09,62.83L305.75,62.12L306.4,65.7L307.71,88.67L308.36,83.29L309.01,80.06L309.67,70.37L310.32,72.16L310.97,94.41L312.28,72.52L312.93,76.47L313.59,89.03L314.24,86.52L314.89,72.52L315.55,81.85L316.2,81.5L316.85,84.37L317.51,81.5L318.16,94.06L318.81,82.21L319.47,82.93L320.12,77.55L320.77,68.93L321.43,89.39L322.08,90.47L322.73,75.75L323.39,79.7L324.04,74.68L324.69,88.67L325.35,74.32L326,74.68" style="vector-effect: non-scaling-stroke; fill: none; stroke: rgb(254, 203, 82); stroke-opacity: 1; stroke-width: 2px; opacity: 1;"/></g><g class="points"/><g class="text"/></g></g></g><g class="overplot"/><path class="xlines-above crisp" d="M0,0" style="fill: none;"/><path class="ylines-above crisp" d="M0,0" style="fill: none;"/><g class="overlines-above"/><g class="xaxislayer-above"><g class="xtick"><text text-anchor="middle" x="0" y="433" transform="translate(207.45,0)" style="font-family: 'Open Sans', verdana, arial, sans-serif; font-size: 12px; fill: rgb(42, 63, 95); fill-opacity: 1; white-space: pre;">20M</text></g><g class="xtick"><text text-anchor="middle" x="0" y="433" transform="translate(335.55,0)" style="font-family: 'Open Sans', verdana, arial, sans-serif; font-size: 12px; fill: rgb(42, 63, 95); fill-opacity: 1; white-space: pre;">40M</text></g></g><g class="yaxislayer-above"><g class="ytick"><text text-anchor="end" x="79" y="4.199999999999999" transform="translate(0,404)" style="font-family: 'Open Sans', verdana, arial, sans-serif; font-size: 12px; fill: rgb(42, 63, 95); fill-opacity: 1; white-space: pre;">0</text></g><g class="ytick"><text text-anchor="end" x="79" y="4.199999999999999" transform="translate(0,368.11)" style="font-family: 'Open Sans', verdana, arial, sans-serif; font-size: 12px; fill: rgb(42, 63, 95); fill-opacity: 1; white-space: pre;">5</text></g><g class="ytick"><text text-anchor="end" x="79" y="4.199999999999999" transform="translate(0,332.22)" style="font-family: 'Open Sans', verdana, arial, sans-serif; font-size: 12px; fill: rgb(42, 63, 95); fill-opacity: 1; white-space: pre;">10</text></g><g class="ytick"><text text-anchor="end" x="79" y="4.199999999999999" transform="translate(0,296.34000000000003)" style="font-family: 'Open Sans', verdana, arial, sans-serif; font-size: 12px; fill: rgb(42, 63, 95); fill-opacity: 1; white-space: pre;">15</text></g><g class="ytick"><text text-anchor="end" x="79" y="4.199999999999999" transform="translate(0,260.45)" style="font-family: 'Open Sans', verdana, arial, sans-serif; font-size: 12px; fill: rgb(42, 63, 95); fill-opacity: 1; white-space: pre;">20</text></g><g class="ytick"><text text-anchor="end" x="79" y="4.199999999999999" transform="translate(0,224.56)" style="font-family: 'Open Sans', verdana, arial, sans-serif; font-size: 12px; fill: rgb(42, 63, 95); fill-opacity: 1; white-space: pre;">25</text></g><g class="ytick"><text text-anchor="end" x="79" y="4.199999999999999" transform="translate(0,188.67000000000002)" style="font-family: 'Open Sans', verdana, arial, sans-serif; font-size: 12px; fill: rgb(42, 63, 95); fill-opacity: 1; white-space: pre;">30</text></g><g class="ytick"><text text-anchor="end" x="79" y="4.199999999999999" transform="translate(0,152.79)" style="font-family: 'Open Sans', verdana, arial, sans-serif; font-size: 12px; fill: rgb(42, 63, 95); fill-opacity: 1; white-space: pre;">35</text></g><g class="ytick"><text text-anchor="end" x="79" y="4.199999999999999" transform="translate(0,116.9)" style="font-family: 'Open Sans', verdana, arial, sans-serif; font-size: 12px; fill: rgb(42, 63, 95); fill-opacity: 1; white-space: pre;">40</text></g></g><g class="overaxes-above"/></g></g><g class="polarlayer"/><g class="ternarylayer"/><g class="geolayer"/><g class="funnelarealayer"/><g class="pielayer"/><g class="treemaplayer"/><g class="sunburstlayer"/><g class="glimages"/><defs id="topdefs-c13659"><g class="clips"/><clipPath id="legendc13659"><rect width="275" height="200" x="0" y="0"/></clipPath></defs><g class="layer-above"><g class="imagelayer"/><g class="shapelayer"/></g><g class="infolayer"><g class="legend" pointer-events="all" transform="translate(412.52,100)"><rect class="bg" shape-rendering="crispEdges" style="stroke: rgb(68, 68, 68); stroke-opacity: 1; fill: rgb(255, 255, 255); fill-opacity: 1; stroke-width: 0px;" width="275" height="200" x="0" y="0"/><g class="scrollbox" transform="" clip-path="url('#legendc13659')"><g class="groups"><g class="traces" transform="translate(0,14.5)" style="opacity: 1;"><text class="legendtext" text-anchor="start" x="40" y="4.680000000000001" style="font-family: 'Open Sans', verdana, arial, sans-serif; font-size: 12px; fill: rgb(42, 63, 95); fill-opacity: 1; white-space: pre;">ppo, mean agg (n=35)</text><g class="layers" style="opacity: 1;"><g class="legendfill"/><g class="legendlines"><path class="js-line" d="M5,0h30" style="fill: none; stroke: rgb(99, 110, 250); stroke-opacity: 1; stroke-width: 2px;"/></g><g class="legendsymbols"><g class="legendpoints"/></g></g><rect class="legendtoggle" x="0" y="-9.5" width="269.90625" height="19" style="fill: rgb(0, 0, 0); fill-opacity: 0;"/></g><g class="traces" transform="translate(0,33.5)" style="opacity: 1;"><text class="legendtext" text-anchor="start" x="40" y="4.680000000000001" style="font-family: 'Open Sans', verdana, arial, sans-serif; font-size: 12px; fill: rgb(42, 63, 95); fill-opacity: 1; white-space: pre;">trl, mean agg (n=31)</text><g class="layers" style="opacity: 1;"><g class="legendfill"/><g class="legendlines"><path class="js-line" d="M5,0h30" style="fill: none; stroke: rgb(239, 85, 59); stroke-opacity: 1; stroke-width: 2px;"/></g><g class="legendsymbols"><g class="legendpoints"/></g></g><rect class="legendtoggle" x="0" y="-9.5" width="269.90625" height="19" style="fill: rgb(0, 0, 0); fill-opacity: 0;"/></g><g class="traces" transform="translate(0,52.5)" style="opacity: 1;"><text class="legendtext" text-anchor="start" x="40" y="4.680000000000001" style="font-family: 'Open Sans', verdana, arial, sans-serif; font-size: 12px; fill: rgb(42, 63, 95); fill-opacity: 1; white-space: pre;">ppo, mean_simple agg (n=32)</text><g class="layers" style="opacity: 1;"><g class="legendfill"/><g class="legendlines"><path class="js-line" d="M5,0h30" style="fill: none; stroke: rgb(0, 204, 150); stroke-opacity: 1; stroke-width: 2px;"/></g><g class="legendsymbols"><g class="legendpoints"/></g></g><rect class="legendtoggle" x="0" y="-9.5" width="269.90625" height="19" style="fill: rgb(0, 0, 0); fill-opacity: 0;"/></g><g class="traces" transform="translate(0,71.5)" style="opacity: 1;"><text class="legendtext" text-anchor="start" x="40" y="4.680000000000001" style="font-family: 'Open Sans', verdana, arial, sans-serif; font-size: 12px; fill: rgb(42, 63, 95); fill-opacity: 1; white-space: pre;">ppo, max agg (n=4)</text><g class="layers" style="opacity: 1;"><g class="legendfill"/><g class="legendlines"><path class="js-line" d="M5,0h30" style="fill: none; stroke: rgb(171, 99, 250); stroke-opacity: 1; stroke-width: 2px;"/></g><g class="legendsymbols"><g class="legendpoints"/></g></g><rect class="legendtoggle" x="0" y="-9.5" width="269.90625" height="19" style="fill: rgb(0, 0, 0); fill-opacity: 0;"/></g><g class="traces" transform="translate(0,90.5)" style="opacity: 1;"><text class="legendtext" text-anchor="start" x="40" y="4.680000000000001" style="font-family: 'Open Sans', verdana, arial, sans-serif; font-size: 12px; fill: rgb(42, 63, 95); fill-opacity: 1; white-space: pre;">ppo, bayes agg (n=40)</text><g class="layers" style="opacity: 1;"><g class="legendfill"/><g class="legendlines"><path class="js-line" d="M5,0h30" style="fill: none; stroke: rgb(255, 161, 90); stroke-opacity: 1; stroke-width: 2px;"/></g><g class="legendsymbols"><g class="legendpoints"/></g></g><rect class="legendtoggle" x="0" y="-9.5" width="269.90625" height="19" style="fill: rgb(0, 0, 0); fill-opacity: 0;"/></g><g class="traces" transform="translate(0,109.5)" style="opacity: 1;"><text class="legendtext" text-anchor="start" x="40" y="4.680000000000001" style="font-family: 'Open Sans', verdana, arial, sans-serif; font-size: 12px; fill: rgb(42, 63, 95); fill-opacity: 1; white-space: pre;">trl, bayes agg (n=34)</text><g class="layers" style="opacity: 1;"><g class="legendfill"/><g class="legendlines"><path class="js-line" d="M5,0h30" style="fill: none; stroke: rgb(25, 211, 243); stroke-opacity: 1; stroke-width: 2px;"/></g><g class="legendsymbols"><g class="legendpoints"/></g></g><rect class="legendtoggle" x="0" y="-9.5" width="269.90625" height="19" style="fill: rgb(0, 0, 0); fill-opacity: 0;"/></g><g class="traces" transform="translate(0,128.5)" style="opacity: 1;"><text class="legendtext" text-anchor="start" x="40" y="4.680000000000001" style="font-family: 'Open Sans', verdana, arial, sans-serif; font-size: 12px; fill: rgb(42, 63, 95); fill-opacity: 1; white-space: pre;">ppo, bayes_simple agg (n=21)</text><g class="layers" style="opacity: 1;"><g class="legendfill"/><g class="legendlines"><path class="js-line" d="M5,0h30" style="fill: none; stroke: rgb(255, 102, 146); stroke-opacity: 1; stroke-width: 2px;"/></g><g class="legendsymbols"><g class="legendpoints"/></g></g><rect class="legendtoggle" x="0" y="-9.5" width="269.90625" height="19" style="fill: rgb(0, 0, 0); fill-opacity: 0;"/></g><g class="traces" transform="translate(0,147.5)" style="opacity: 1;"><text class="legendtext" text-anchor="start" x="40" y="4.680000000000001" style="font-family: 'Open Sans', verdana, arial, sans-serif; font-size: 12px; fill: rgb(42, 63, 95); fill-opacity: 1; white-space: pre;">ppo, bayes_outputvariance agg (n=8)</text><g class="layers" style="opacity: 1;"><g class="legendfill"/><g class="legendlines"><path class="js-line" d="M5,0h30" style="fill: none; stroke: rgb(182, 232, 128); stroke-opacity: 1; stroke-width: 2px;"/></g><g class="legendsymbols"><g class="legendpoints"/></g></g><rect class="legendtoggle" x="0" y="-9.5" width="269.90625" height="19" style="fill: rgb(0, 0, 0); fill-opacity: 0;"/></g><g class="traces" transform="translate(0,166.5)" style="opacity: 1;"><text class="legendtext" text-anchor="start" x="40" y="4.680000000000001" style="font-family: 'Open Sans', verdana, arial, sans-serif; font-size: 12px; fill: rgb(42, 63, 95); fill-opacity: 1; white-space: pre;">ppo, selfatt agg (n=35)</text><g class="layers" style="opacity: 1;"><g class="legendfill"/><g class="legendlines"><path class="js-line" d="M5,0h30" style="fill: none; stroke: rgb(255, 151, 255); stroke-opacity: 1; stroke-width: 2px;"/></g><g class="legendsymbols"><g class="legendpoints"/></g></g><rect class="legendtoggle" x="0" y="-9.5" width="269.90625" height="19" style="fill: rgb(0, 0, 0); fill-opacity: 0;"/></g><g class="traces" transform="translate(0,185.5)" style="opacity: 1;"><text class="legendtext" text-anchor="start" x="40" y="4.680000000000001" style="font-family: 'Open Sans', verdana, arial, sans-serif; font-size: 12px; fill: rgb(42, 63, 95); fill-opacity: 1; white-space: pre;">trl, selfatt agg (n=33)</text><g class="layers" style="opacity: 1;"><g class="legendfill"/><g class="legendlines"><path class="js-line" d="M5,0h30" style="fill: none; stroke: rgb(254, 203, 82); stroke-opacity: 1; stroke-width: 2px;"/></g><g class="legendsymbols"><g class="legendpoints"/></g></g><rect class="legendtoggle" x="0" y="-9.5" width="269.90625" height="19" style="fill: rgb(0, 0, 0); fill-opacity: 0;"/></g></g></g><rect class="scrollbar" rx="20" ry="3" width="0" height="0" style="fill: rgb(128, 139, 164); fill-opacity: 1;" x="0" y="0"/></g><g class="g-gtitle"><text class="gtitle" x="35" y="50" text-anchor="start" dy="0em" style="font-family: 'Open Sans', verdana, arial, sans-serif; font-size: 17px; fill: rgb(42, 63, 95); opacity: 1; font-weight: normal; white-space: pre;">pursuit (by train algo and agg method)</text></g><g class="g-xtitle"><text class="xtitle" x="243" y="460.8" text-anchor="middle" style="font-family: 'Open Sans', verdana, arial, sans-serif; font-size: 14px; fill: rgb(42, 63, 95); opacity: 1; font-weight: normal; white-space: pre;">Agent Steps</text></g><g class="g-ytitle"><text class="ytitle" transform="rotate(-90,38.934375,260)" x="38.934375" y="260" text-anchor="middle" style="font-family: 'Open Sans', verdana, arial, sans-serif; font-size: 14px; fill: rgb(42, 63, 95); opacity: 1; font-weight: normal; white-space: pre;">Avg. Reward</text></g></g></svg>