<svg class="main-svg" xmlns="http://www.w3.org/2000/svg" xmlns:xlink="http://www.w3.org/1999/xlink" width="600" height="300" style="" viewBox="0 0 600 300"><rect x="0" y="0" width="600" height="300" style="fill: rgb(255, 255, 255); fill-opacity: 1;"/><defs id="defs-20f3ec"><g class="clips"><clipPath id="clip20f3ecxyplot" class="plotclip"><rect width="351" height="252"/></clipPath><clipPath class="axesclip" id="clip20f3ecx"><rect x="53" y="0" width="351" height="300"/></clipPath><clipPath class="axesclip" id="clip20f3ecy"><rect x="0" y="7" width="600" height="252"/></clipPath><clipPath class="axesclip" id="clip20f3ecxy"><rect x="53" y="7" width="351" height="252"/></clipPath></g><g class="gradients"/></defs><g class="bglayer"><rect class="bg" x="53" y="7" width="351" height="252" style="fill: rgb(229, 236, 246); fill-opacity: 1; stroke-width: 0;"/></g><g class="layer-below"><g class="imagelayer"/><g class="shapelayer"/></g><g class="cartesianlayer"><g class="subplot xy"><g class="layer-subplot"><g class="shapelayer"/><g class="imagelayer"/></g><g class="gridlayer"><g class="x"><path class="xgrid crisp" transform="translate(168,0)" d="M0,7v252" style="stroke: rgb(255, 255, 255); stroke-opacity: 1; stroke-width: 1px;"/><path class="xgrid crisp" transform="translate(286.9,0)" d="M0,7v252" style="stroke: rgb(255, 255, 255); stroke-opacity: 1; stroke-width: 1px;"/></g><g class="y"><path class="ygrid crisp" transform="translate(0,215.35)" d="M53,0h351" style="stroke: rgb(255, 255, 255); stroke-opacity: 1; stroke-width: 1px;"/><path class="ygrid crisp" transform="translate(0,146.79)" d="M53,0h351" style="stroke: rgb(255, 255, 255); stroke-opacity: 1; stroke-width: 1px;"/><path class="ygrid crisp" transform="translate(0,78.23)" d="M53,0h351" style="stroke: rgb(255, 255, 255); stroke-opacity: 1; stroke-width: 1px;"/></g></g><g class="zerolinelayer"><path class="yzl zl crisp" transform="translate(0,9.67)" d="M53,0h351" style="stroke: rgb(255, 255, 255); stroke-opacity: 1; stroke-width: 2px;"/></g><path class="xlines-below"/><path class="ylines-below"/><g class="overlines-below"/><g class="xaxislayer-below"/><g class="yaxislayer-below"/><g class="overaxes-below"/><g class="plot" transform="translate(53,7)" clip-path="url('#clip20f3ecxyplot')"><g class="scatterlayer mlayer"><g class="trace scatter trace753c6b" style="stroke-miterlimit: 2; opacity: 1;"><g class="fills"/><g class="errorbars"/><g class="lines"><path class="js-line" d="M0,239.4L3.9,233.4L7.8,231.38L11.7,214.08L15.6,201.56L19.5,171.32L23.4,130.32L27.3,126.19L31.2,138.29L35.1,111.41L39,95.35L42.9,111.75L46.8,100.12L50.7,78.53L54.6,97.13L58.5,96.62L62.4,83.09L66.3,84.71L70.2,62.1L74.1,59.88L78,54.77L81.9,45.94L85.8,44.58L89.7,50.62L93.6,44.61L97.5,38.88L101.4,31.08L105.3,30.21L109.2,31.5L113.1,29.4L117,29.7L120.9,25.95L124.8,27.84L128.7,25.21L132.6,26.69L140.4,23.62L144.3,23.26L156,21.33L159.9,22.05L167.7,21.39L171.6,22.85L175.5,23.4L179.4,19.95L183.3,19.33L187.2,21.1L191.1,21.98L195,20.11L202.8,19.28L206.7,20.49L210.6,20.02L214.5,18.42L222.3,18.56L226.2,18.36L234,18.06L237.9,18.68L241.8,18.01L245.7,18.44L249.6,17.8L253.5,18.7L257.4,17.85L261.3,18.44L269.1,18.57L273,17.14L280.8,17.92L284.7,17.16L292.5,16.6L296.4,17.51L300.3,16.6L304.2,16.89L308.1,16.22L312,16.8L323.7,16.07L327.6,16.93L331.5,17.19L335.4,16.61L351,16.8" style="vector-effect: non-scaling-stroke; fill: none; stroke: rgb(99, 110, 250); stroke-opacity: 1; stroke-width: 2px; opacity: 1;"/></g><g class="points"/><g class="text"/></g><g class="trace scatter trace33ef9f" style="stroke-miterlimit: 2; opacity: 1;"><g class="fills"/><g class="errorbars"/><g class="lines"><path class="js-line" d="M0,234.46L3.9,230.59L7.8,218.97L15.6,173.24L19.5,161.01L27.3,100.28L31.2,119.18L35.1,128.39L39,109.59L42.9,76.65L46.8,86.11L50.7,89.68L54.6,97.26L58.5,98.78L62.4,83.29L66.3,96.45L70.2,84.34L74.1,82.5L78,64.5L81.9,51.61L85.8,41.73L93.6,31.01L97.5,33.74L101.4,28.68L105.3,31.64L109.2,28.7L113.1,24.74L117,27.37L120.9,28.92L124.8,27.33L128.7,28.05L132.6,27.43L136.5,24.46L140.4,22.98L144.3,26.41L148.2,21.55L152.1,22.11L159.9,20.52L163.8,22.85L167.7,21.68L171.6,21.83L187.2,19.91L191.1,19.89L195,18.88L198.9,21.5L202.8,19.51L206.7,18.82L210.6,18.61L214.5,19.91L218.4,18.89L222.3,19.21L226.2,18.47L230.1,19.04L234,19.52L237.9,17.92L241.8,19.38L245.7,18.85L249.6,18.09L253.5,19.5L257.4,17.67L261.3,20.09L265.2,17.27L269.1,18.41L280.8,18.64L284.7,17.28L292.5,17.54L296.4,17.04L300.3,18.15L304.2,18.17L308.1,16.98L312,17.29L315.9,16.27L319.8,17.3L323.7,18.58L327.6,17.26L331.5,16.29L335.4,16.22L339.3,18.42L343.2,16.52L347.1,15.88L351,16.99" style="vector-effect: non-scaling-stroke; fill: none; stroke: rgb(239, 85, 59); stroke-opacity: 1; stroke-width: 2px; opacity: 1;"/></g><g class="points"/><g class="text"/></g><g class="trace scatter trace9e0a37" style="stroke-miterlimit: 2; opacity: 1;"><g class="fills"/><g class="errorbars"/><g class="lines"><path class="js-line" d="M0,234.38L11.7,180.08L15.6,177.32L19.5,176.63L23.4,109.81L27.3,101.53L31.2,87.12L35.1,119.84L39,107.37L42.9,97.9L46.8,73.06L50.7,82.49L54.6,111.29L58.5,81.01L62.4,60.18L66.3,58.55L70.2,53.62L74.1,49.86L78,48.89L81.9,42.56L85.8,39.91L89.7,38L93.6,37.2L97.5,35.28L101.4,35.57L105.3,30.98L109.2,31.19L113.1,29.36L117,25.64L120.9,27.73L124.8,24.85L132.6,24.12L136.5,22.74L140.4,22.84L144.3,19.58L152.1,20.64L156,19.98L159.9,19.74L163.8,20.46L167.7,20.97L171.6,18.94L175.5,18.48L179.4,19.56L183.3,18.26L187.2,18.17L191.1,18.1L195,17.07L198.9,17.44L202.8,18.75L214.5,16.8L218.4,17.02L222.3,17.18L226.2,16.49L230.1,18.06L234,17.11L241.8,16.24L245.7,16.84L249.6,15.43L253.5,15.51L261.3,15.51L265.2,15.76L273,14.95L276.9,15.6L284.7,16.02L288.6,15.1L296.4,14.67L300.3,15.41L304.2,14.49L308.1,15.2L315.9,15.57L319.8,15.39L323.7,14.18L327.6,15.35L347.1,14.16L351,15.05" style="vector-effect: non-scaling-stroke; fill: none; stroke: rgb(0, 204, 150); stroke-opacity: 1; stroke-width: 2px; opacity: 1;"/></g><g class="points"/><g class="text"/></g><g class="trace scatter traceaf8375" style="stroke-miterlimit: 2; opacity: 1;"><g class="fills"/><g class="errorbars"/><g class="lines"><path class="js-line" d="M0,238.28L3.9,220.99L7.8,199.28L11.7,185.58L15.6,155.49L19.5,143.09L23.4,97.98L27.3,69.1L31.2,70.22L35.1,85.28L39,84.64L42.9,66.83L46.8,68.54L50.7,66.53L54.6,61.91L58.5,53.09L62.4,47.72L66.3,44.49L70.2,42.34L74.1,40.91L78,35.45L81.9,35.61L85.8,31.81L93.6,29.13L97.5,30.59L105.3,28.34L109.2,25.05L113.1,24.35L117,24.79L124.8,21.63L128.7,23.51L136.5,20.04L140.4,20.93L148.2,20.44L152.1,19L159.9,19.99L163.8,19.1L167.7,18.5L171.6,18.88L175.5,18.25L179.4,18.66L183.3,17.46L187.2,18.79L191.1,17.17L195,17.52L202.8,16.71L206.7,17.82L214.5,16.79L218.4,17.14L222.3,16.22L226.2,16.59L230.1,16.41L234,17.02L245.7,16.12L249.6,16.86L253.5,15.66L257.4,15.36L261.3,16.12L265.2,15.77L273,15.76L276.9,15.26L280.8,16.01L284.7,15.07L288.6,15.41L292.5,14.8L300.3,14.94L304.2,14.41L343.2,14.7L347.1,13.67L351,13.9" style="vector-effect: non-scaling-stroke; fill: none; stroke: rgb(171, 99, 250); stroke-opacity: 1; stroke-width: 2px; opacity: 1;"/></g><g class="points"/><g class="text"/></g><g class="trace scatter trace3f32b0" style="stroke-miterlimit: 2; opacity: 1;"><g class="fills"/><g class="errorbars"/><g class="lines"><path class="js-line" d="M0,238.73L3.9,197.99L7.8,190.49L15.6,152.28L19.5,115.7L23.4,66.71L27.3,48.36L31.2,39.86L35.1,33.44L39,31.01L42.9,29.77L46.8,29.87L50.7,26.89L54.6,24.01L58.5,25.39L66.3,22.68L70.2,22.8L74.1,23.01L78,21.27L89.7,20.21L93.6,19.95L97.5,19.34L101.4,17.84L105.3,18.64L109.2,18.37L113.1,18.72L117,17.26L128.7,16.17L132.6,16L136.5,16.34L140.4,15.85L144.3,15.5L148.2,16.26L152.1,15.44L156,15.43L163.8,15.17L167.7,15.23L171.6,14.49L175.5,15.22L179.4,14.64L183.3,14.86L191.1,13.78L195,14.46L210.6,13.58L214.5,14.15L230.1,14.12L234,13.65L237.9,14.44L241.8,13.04L249.6,14.24L253.5,13.81L257.4,12.67L261.3,13.01L280.8,12.99L284.7,14.16L288.6,13.26L292.5,13.27L296.4,12.6L300.3,13.76L308.1,13.46L312,13.12L315.9,13.96L319.8,13.58L339.3,13.55L343.2,13.64L351,12.67" style="vector-effect: non-scaling-stroke; fill: none; stroke: rgb(255, 161, 90); stroke-opacity: 1; stroke-width: 2px; opacity: 1;"/></g><g class="points"/><g class="text"/></g><g class="trace scatter trace573892" style="stroke-miterlimit: 2; opacity: 1;"><g class="fills"/><g class="errorbars"/><g class="lines"><path class="js-line" d="M0,221.72L7.8,178.42L11.7,131.6L15.6,147.42L19.5,80.97L23.4,67.48L27.3,44.99L31.2,31.69L35.1,30.89L39,27.73L42.9,27.58L46.8,24.32L50.7,23.02L62.4,21.03L66.3,22.46L70.2,22.72L74.1,21.22L78,21.16L81.9,22.34L85.8,20.41L89.7,21L93.6,19.84L97.5,20.34L101.4,20.49L105.3,19.72L109.2,19.46L113.1,18.17L117,18L120.9,18.95L124.8,17.25L128.7,18.09L132.6,16.45L136.5,17.43L148.2,16.75L152.1,16.17L159.9,16.49L163.8,15.67L167.7,14.78L171.6,16.08L175.5,15.46L179.4,15.78L183.3,14.9L187.2,15.16L195,14.77L198.9,14.83L202.8,14.3L206.7,15.07L218.4,14.51L222.3,14.88L226.2,15.43L230.1,15.11L234,13.93L237.9,14.52L261.3,13.99L265.2,14.14L273,13.8L276.9,13.54L284.7,14.31L288.6,13.76L300.3,14.15L304.2,13.9L308.1,14.25L312,13.11L319.8,14.28L323.7,13.44L327.6,13.92L331.5,13.64L335.4,13.47L339.3,14.26L351,13.01" style="vector-effect: non-scaling-stroke; fill: none; stroke: rgb(25, 211, 243); stroke-opacity: 1; stroke-width: 2px; opacity: 1;"/></g><g class="points"/><g class="text"/></g></g></g><g class="overplot"/><path class="xlines-above crisp" d="M0,0" style="fill: none;"/><path class="ylines-above crisp" d="M0,0" style="fill: none;"/><g class="overlines-above"/><g class="xaxislayer-above"><g class="xtick"><text text-anchor="middle" x="0" y="272" transform="translate(168,0)" style="font-family: 'Latin Modern Roman'; font-size: 12px; fill: rgb(0, 0, 0); fill-opacity: 1; white-space: pre;">5M</text></g><g class="xtick"><text text-anchor="middle" x="0" y="272" transform="translate(286.9,0)" style="font-family: 'Latin Modern Roman'; font-size: 12px; fill: rgb(0, 0, 0); fill-opacity: 1; white-space: pre;">10M</text></g></g><g class="yaxislayer-above"><g class="ytick"><text text-anchor="end" x="52" y="4.199999999999999" transform="translate(0,215.35)" style="font-family: 'Latin Modern Roman'; font-size: 12px; fill: rgb(0, 0, 0); fill-opacity: 1; white-space: pre;">−300</text></g><g class="ytick"><text text-anchor="end" x="52" y="4.199999999999999" transform="translate(0,146.79)" style="font-family: 'Latin Modern Roman'; font-size: 12px; fill: rgb(0, 0, 0); fill-opacity: 1; white-space: pre;">−200</text></g><g class="ytick"><text text-anchor="end" x="52" y="4.199999999999999" transform="translate(0,78.23)" style="font-family: 'Latin Modern Roman'; font-size: 12px; fill: rgb(0, 0, 0); fill-opacity: 1; white-space: pre;">−100</text></g><g class="ytick"><text text-anchor="end" x="52" y="4.199999999999999" transform="translate(0,9.67)" style="font-family: 'Latin Modern Roman'; font-size: 12px; fill: rgb(0, 0, 0); fill-opacity: 1; white-space: pre;">0</text></g></g><g class="overaxes-above"/></g></g><g class="polarlayer"/><g class="ternarylayer"/><g class="geolayer"/><g class="funnelarealayer"/><g class="pielayer"/><g class="treemaplayer"/><g class="sunburstlayer"/><g class="glimages"/><defs id="topdefs-20f3ec"><g class="clips"/><clipPath id="legend20f3ec"><rect width="189" height="124" x="0" y="0"/></clipPath></defs><g class="layer-above"><g class="imagelayer"/><g class="shapelayer"/></g><g class="infolayer"><g class="legend" pointer-events="all" transform="translate(411,7)"><rect class="bg" shape-rendering="crispEdges" style="stroke: rgb(68, 68, 68); stroke-opacity: 1; fill: rgb(255, 255, 255); fill-opacity: 1; stroke-width: 0px;" width="189" height="124" x="0" y="0"/><g class="scrollbox" transform="" clip-path="url('#legend20f3ec')"><g class="groups"><g class="traces" transform="translate(0,14.5)" style="opacity: 1;"><text class="legendtext" text-anchor="start" x="40" y="4.680000000000001" style="font-family: 'Latin Modern Roman'; font-size: 12px; fill: rgb(0, 0, 0); fill-opacity: 1; white-space: pre;">Bayes agg. (large) (n=17)</text><g class="layers" style="opacity: 1;"><g class="legendfill"/><g class="legendlines"><path class="js-line" d="M5,0h30" style="fill: none; stroke: rgb(99, 110, 250); stroke-opacity: 1; stroke-width: 2px;"/></g><g class="legendsymbols"><g class="legendpoints"/></g></g><rect class="legendtoggle" x="0" y="-9.5" width="183.625" height="19" style="fill: rgb(0, 0, 0); fill-opacity: 0;"/></g><g class="traces" transform="translate(0,33.5)" style="opacity: 1;"><text class="legendtext" text-anchor="start" x="40" y="4.680000000000001" style="font-family: 'Latin Modern Roman'; font-size: 12px; fill: rgb(0, 0, 0); fill-opacity: 1; white-space: pre;">Mean agg. (large) (n=14)</text><g class="layers" style="opacity: 1;"><g class="legendfill"/><g class="legendlines"><path class="js-line" d="M5,0h30" style="fill: none; stroke: rgb(239, 85, 59); stroke-opacity: 1; stroke-width: 2px;"/></g><g class="legendsymbols"><g class="legendpoints"/></g></g><rect class="legendtoggle" x="0" y="-9.5" width="183.625" height="19" style="fill: rgb(0, 0, 0); fill-opacity: 0;"/></g><g class="traces" transform="translate(0,52.5)" style="opacity: 1;"><text class="legendtext" text-anchor="start" x="40" y="4.680000000000001" style="font-family: 'Latin Modern Roman'; font-size: 12px; fill: rgb(0, 0, 0); fill-opacity: 1; white-space: pre;">Bayes agg. (simple) (n=16)</text><g class="layers" style="opacity: 1;"><g class="legendfill"/><g class="legendlines"><path class="js-line" d="M5,0h30" style="fill: none; stroke: rgb(0, 204, 150); stroke-opacity: 1; stroke-width: 2px;"/></g><g class="legendsymbols"><g class="legendpoints"/></g></g><rect class="legendtoggle" x="0" y="-9.5" width="183.625" height="19" style="fill: rgb(0, 0, 0); fill-opacity: 0;"/></g><g class="traces" transform="translate(0,71.5)" style="opacity: 1;"><text class="legendtext" text-anchor="start" x="40" y="4.680000000000001" style="font-family: 'Latin Modern Roman'; font-size: 12px; fill: rgb(0, 0, 0); fill-opacity: 1; white-space: pre;">Mean agg. (simple) (n=18)</text><g class="layers" style="opacity: 1;"><g class="legendfill"/><g class="legendlines"><path class="js-line" d="M5,0h30" style="fill: none; stroke: rgb(171, 99, 250); stroke-opacity: 1; stroke-width: 2px;"/></g><g class="legendsymbols"><g class="legendpoints"/></g></g><rect class="legendtoggle" x="0" y="-9.5" width="183.625" height="19" style="fill: rgb(0, 0, 0); fill-opacity: 0;"/></g><g class="traces" transform="translate(0,90.5)" style="opacity: 1;"><text class="legendtext" text-anchor="start" x="40" y="4.680000000000001" style="font-family: 'Latin Modern Roman'; font-size: 12px; fill: rgb(0, 0, 0); fill-opacity: 1; white-space: pre;">Bayes agg. (opt) (n=16)</text><g class="layers" style="opacity: 1;"><g class="legendfill"/><g class="legendlines"><path class="js-line" d="M5,0h30" style="fill: none; stroke: rgb(255, 161, 90); stroke-opacity: 1; stroke-width: 2px;"/></g><g class="legendsymbols"><g class="legendpoints"/></g></g><rect class="legendtoggle" x="0" y="-9.5" width="183.625" height="19" style="fill: rgb(0, 0, 0); fill-opacity: 0;"/></g><g class="traces" transform="translate(0,109.5)" style="opacity: 1;"><text class="legendtext" text-anchor="start" x="40" y="4.680000000000001" style="font-family: 'Latin Modern Roman'; font-size: 12px; fill: rgb(0, 0, 0); fill-opacity: 1; white-space: pre;">Mean agg. (opt) (n=18)</text><g class="layers" style="opacity: 1;"><g class="legendfill"/><g class="legendlines"><path class="js-line" d="M5,0h30" style="fill: none; stroke: rgb(25, 211, 243); stroke-opacity: 1; stroke-width: 2px;"/></g><g class="legendsymbols"><g class="legendpoints"/></g></g><rect class="legendtoggle" x="0" y="-9.5" width="183.625" height="19" style="fill: rgb(0, 0, 0); fill-opacity: 0;"/></g></g></g><rect class="scrollbar" rx="20" ry="3" width="0" height="0" style="fill: rgb(128, 139, 164); fill-opacity: 1;" x="0" y="0"/></g><g class="g-gtitle"/><g class="g-xtitle" transform="translate(0,-3.8000000000000114)"><text class="xtitle" x="228.5" y="299.8" text-anchor="middle" style="font-family: 'Latin Modern Roman'; font-size: 14px; fill: rgb(0, 0, 0); opacity: 1; font-weight: normal; white-space: pre;">Agent Steps</text></g><g class="g-ytitle" transform="translate(16.1435546875,0)"><text class="ytitle" transform="rotate(-90,-0.14374999999999716,133)" x="-0.14374999999999716" y="133" text-anchor="middle" style="font-family: 'Latin Modern Roman'; font-size: 14px; fill: rgb(0, 0, 0); opacity: 1; font-weight: normal; white-space: pre;">Avg. Reward</text></g></g></svg>