<svg class="main-svg" xmlns="http://www.w3.org/2000/svg" xmlns:xlink="http://www.w3.org/1999/xlink" width="600" height="300" style="" viewBox="0 0 600 300"><rect x="0" y="0" width="600" height="300" style="fill: rgb(255, 255, 255); fill-opacity: 1;"/><defs id="defs-c0fade"><g class="clips"><clipPath id="clipc0fadexyplot" class="plotclip"><rect width="383" height="259"/></clipPath><clipPath class="axesclip" id="clipc0fadex"><rect x="41" y="0" width="383" height="300"/></clipPath><clipPath class="axesclip" id="clipc0fadey"><rect x="0" y="0" width="600" height="259"/></clipPath><clipPath class="axesclip" id="clipc0fadexy"><rect x="41" y="0" width="383" height="259"/></clipPath></g><g class="gradients"/></defs><g class="bglayer"><rect class="bg" x="41" y="0" width="383" height="259" style="fill: rgb(229, 236, 246); fill-opacity: 1; stroke-width: 0;"/></g><g class="layer-below"><g class="imagelayer"/><g class="shapelayer"/></g><g class="cartesianlayer"><g class="subplot xy"><g class="layer-subplot"><g class="shapelayer"/><g class="imagelayer"/></g><g class="gridlayer"><g class="x"><path class="xgrid crisp" transform="translate(166.67000000000002,0)" d="M0,0v259" style="stroke: rgb(255, 255, 255); stroke-opacity: 1; stroke-width: 1px;"/><path class="xgrid crisp" transform="translate(295.65,0)" d="M0,0v259" style="stroke: rgb(255, 255, 255); stroke-opacity: 1; stroke-width: 1px;"/></g><g class="y"><path class="ygrid crisp" transform="translate(0,149.15)" d="M41,0h383" style="stroke: rgb(255, 255, 255); stroke-opacity: 1; stroke-width: 1px;"/><path class="ygrid crisp" transform="translate(0,83.14)" d="M41,0h383" style="stroke: rgb(255, 255, 255); stroke-opacity: 1; stroke-width: 1px;"/><path class="ygrid crisp" transform="translate(0,17.13)" d="M41,0h383" style="stroke: rgb(255, 255, 255); stroke-opacity: 1; stroke-width: 1px;"/></g></g><g class="zerolinelayer"><path class="yzl zl crisp" transform="translate(0,215.16)" d="M41,0h383" style="stroke: rgb(255, 255, 255); stroke-opacity: 1; stroke-width: 2px;"/></g><path class="xlines-below"/><path class="ylines-below"/><g class="overlines-below"/><g class="xaxislayer-below"/><g class="yaxislayer-below"/><g class="overaxes-below"/><g class="plot" transform="translate(41,0)" clip-path="url('#clipc0fadexyplot')"><g class="scatterlayer mlayer"><g class="trace scatter trace1c591e" style="stroke-miterlimit: 2; opacity: 1;"><g class="fills"/><g class="errorbars"/><g class="lines"><path class="js-line" d="M0,233.27L3.3,230.66L6.6,233.02L9.91,230.27L13.21,235.66L19.81,231.45L23.11,238.41L26.41,229.62L29.72,229.71L33.02,227.94L36.32,224.58L39.62,219.34L42.92,221.88L46.22,216.08L49.53,217.16L52.83,217.33L56.13,212.9L59.43,213.51L62.73,206.52L66.03,205.14L69.34,207.01L75.94,186.44L79.24,192.45L85.84,171.64L89.15,186.83L92.45,174.06L95.75,169.91L99.05,162.07L102.35,164.59L105.66,145.37L108.96,133.45L112.26,143.95L115.56,114.01L118.86,133.32L122.16,135.43L128.77,106.93L132.07,105.75L135.37,112.76L138.67,90.41L141.97,76.81L145.28,83.19L148.58,71.47L151.88,74.77L155.18,72.83L158.48,78.93L161.78,64.38L165.09,56.61L168.39,54.55L171.69,60.27L174.99,50.1L178.29,52.61L181.59,57.06L184.9,50.89L188.2,43.21L191.5,56.94L198.1,42.91L201.41,49.87L204.71,57.5L208.01,49.51L211.31,61.81L214.61,63.19L217.91,46.54L221.22,51.19L224.52,45.37L227.82,50.15L231.12,37.62L234.42,46.53L237.72,43.5L241.03,45.29L244.33,46.03L247.63,52.7L250.93,63.15L254.23,39.75L257.53,43.45L260.84,51.22L264.14,51.43L267.44,31.02L270.74,42.5L274.04,34.16L280.65,45.22L283.95,33.69L287.25,36.86L290.55,57.87L293.85,45.34L297.16,44.34L300.46,47.39L303.76,41.16L310.36,34L313.66,53.02L316.97,45.86L320.27,46.14L323.57,38.1L326.87,33.5L330.17,45.19L333.47,47.72L336.78,39.36L340.08,60.2L343.38,32.96L346.68,39.89L349.98,45.43L353.28,29.97L356.59,43.38L359.89,41.18L363.19,35.65L366.49,28.64L369.79,47.48L373.09,35.46L376.4,34.41L379.7,46.04L383,47.26" style="vector-effect: non-scaling-stroke; fill: none; stroke: rgb(99, 110, 250); stroke-opacity: 1; stroke-width: 2px; opacity: 1;"/></g><g class="points"/><g class="text"/></g><g class="trace scatter trace58118d" style="stroke-miterlimit: 2; opacity: 1;"><g class="fills"><g><path class="js-fill" d="M0,229.65L3.3,227.4L6.6,226.64L9.91,224.26L13.21,228.78L16.51,224.4L19.81,226.18L26.41,224.6L29.72,219.41L33.02,220.89L36.32,219.51L39.62,217.1L42.92,217.82L46.22,212.25L49.53,215.48L52.83,212.85L56.13,203.29L59.43,205.43L62.73,203.23L66.03,195.16L69.34,183.35L72.64,183.93L75.94,165.82L79.24,161.74L82.54,159.75L85.84,151.84L89.15,140.77L92.45,139.69L95.75,121.74L99.05,113.79L102.35,122.89L105.66,105.84L108.96,93.62L112.26,78.24L115.56,83.05L118.86,87.76L122.16,60.03L125.47,47.54L128.77,56.78L132.07,63.02L135.37,35.73L138.67,56.72L141.97,48.12L145.28,34.09L148.58,45.24L151.88,31.02L155.18,33.43L158.48,52.09L161.78,42.63L165.09,32.2L168.39,40.8L171.69,50.43L174.99,36.82L178.29,34.06L181.59,44.14L184.9,36.01L188.2,38.5L191.5,28.51L194.8,40.18L198.1,37.79L201.41,43.77L204.71,40.17L208.01,31.89L211.31,47.87L214.61,36.78L217.91,29.4L221.22,40.12L224.52,34.23L227.82,40.04L231.12,29.66L234.42,32.7L237.72,37.22L241.03,35.28L244.33,32.83L247.63,29.39L250.93,36.78L254.23,33.79L257.53,36.47L260.84,37.4L264.14,41.94L267.44,21.18L270.74,27.27L274.04,22.54L277.34,31.46L280.65,20.88L283.95,27.21L287.25,19.58L290.55,37.02L293.85,41.94L297.16,28.18L300.46,40.93L303.76,31.77L307.06,26.69L310.36,23.95L313.66,34.87L316.97,24.09L320.27,29.98L323.57,31.59L326.87,29.65L330.17,17.57L333.47,38.58L336.78,25.58L340.08,38.74L343.38,21.02L346.68,19.45L349.98,25.8L353.28,21.26L356.59,30.88L359.89,28.43L363.19,27.18L366.49,23.75L373.09,21.6L376.4,18.88L379.7,27.09L383,29.92L383,59.51L379.7,59.4L376.4,55.95L373.09,54.05L369.79,56.77L366.49,49.88L363.19,63.24L359.89,49.25L356.59,62.63L353.28,41.42L349.98,66.05L346.68,63.41L343.38,43.1L340.08,72.4L336.78,49.86L333.47,57.07L330.17,63.47L326.87,53.1L323.57,57.54L320.27,55.46L316.97,54.33L313.66,66.07L310.36,65.26L307.06,49.71L300.46,66.78L297.16,58.18L293.85,64.32L290.55,63.48L287.25,62.95L283.95,65.16L280.65,61.28L277.34,66.5L274.04,53.1L270.74,63.35L264.14,66.42L260.84,77.9L257.53,50.98L254.23,65.27L250.93,71.06L247.63,65.24L244.33,67.96L241.03,55.04L237.72,60.76L234.42,54.39L231.12,61.45L227.82,79.23L224.52,62.66L221.22,59.66L217.91,70.17L214.61,76.28L208.01,90.31L204.71,97.84L201.41,67.91L198.1,71.09L194.8,71.96L191.5,99.19L184.9,97.84L181.59,94.65L178.29,90.22L174.99,113.75L171.69,87.37L168.39,125.96L165.09,127.97L161.78,152.16L158.48,150.92L155.18,150.75L151.88,151.34L148.58,169.69L145.28,150.35L141.97,177.72L138.67,161.84L135.37,162.23L132.07,172.92L128.77,186.78L125.47,190.44L122.16,178.03L118.86,196.71L115.56,189.37L112.26,205.11L108.96,190.34L105.66,196.17L102.35,203.57L99.05,208.83L95.75,209.3L92.45,200.82L89.15,213.8L85.84,211.95L82.54,213.73L75.94,212.86L72.64,215.62L69.34,209.94L66.03,216.17L62.73,213.55L59.43,216.61L56.13,217.39L52.83,224.82L49.53,222.5L46.22,226.22L42.92,227.46L39.62,238.44L36.32,233.85L33.02,230.78L29.72,241.9L26.41,237.23L23.11,246.05L19.81,241.59L13.21,242.23L9.91,238.49L3.3,236.35L0,238.73Z" style="fill: rgb(99, 110, 250); fill-opacity: 0.3; stroke-width: 0;"/></g></g><g class="errorbars"/><g class="lines"><path class="js-line" d="M0,229.65L3.3,227.4L6.6,226.64L9.91,224.26L13.21,228.78L16.51,224.4L19.81,226.18L26.41,224.6L29.72,219.41L33.02,220.89L36.32,219.51L39.62,217.1L42.92,217.82L46.22,212.25L49.53,215.48L52.83,212.85L56.13,203.29L59.43,205.43L62.73,203.23L66.03,195.16L69.34,183.35L72.64,183.93L75.94,165.82L79.24,161.74L82.54,159.75L85.84,151.84L89.15,140.77L92.45,139.69L95.75,121.74L99.05,113.79L102.35,122.89L105.66,105.84L108.96,93.62L112.26,78.24L115.56,83.05L118.86,87.76L122.16,60.03L125.47,47.54L128.77,56.78L132.07,63.02L135.37,35.73L138.67,56.72L141.97,48.12L145.28,34.09L148.58,45.24L151.88,31.02L155.18,33.43L158.48,52.09L161.78,42.63L165.09,32.2L168.39,40.8L171.69,50.43L174.99,36.82L178.29,34.06L181.59,44.14L184.9,36.01L188.2,38.5L191.5,28.51L194.8,40.18L198.1,37.79L201.41,43.77L204.71,40.17L208.01,31.89L211.31,47.87L214.61,36.78L217.91,29.4L221.22,40.12L224.52,34.23L227.82,40.04L231.12,29.66L234.42,32.7L237.72,37.22L241.03,35.28L244.33,32.83L247.63,29.39L250.93,36.78L254.23,33.79L257.53,36.47L260.84,37.4L264.14,41.94L267.44,21.18L270.74,27.27L274.04,22.54L277.34,31.46L280.65,20.88L283.95,27.21L287.25,19.58L290.55,37.02L293.85,41.94L297.16,28.18L300.46,40.93L303.76,31.77L307.06,26.69L310.36,23.95L313.66,34.87L316.97,24.09L320.27,29.98L323.57,31.59L326.87,29.65L330.17,17.57L333.47,38.58L336.78,25.58L340.08,38.74L343.38,21.02L346.68,19.45L349.98,25.8L353.28,21.26L356.59,30.88L359.89,28.43L363.19,27.18L366.49,23.75L373.09,21.6L376.4,18.88L379.7,27.09L383,29.92L383,59.51L379.7,59.4L376.4,55.95L373.09,54.05L369.79,56.77L366.49,49.88L363.19,63.24L359.89,49.25L356.59,62.63L353.28,41.42L349.98,66.05L346.68,63.41L343.38,43.1L340.08,72.4L336.78,49.86L333.47,57.07L330.17,63.47L326.87,53.1L323.57,57.54L320.27,55.46L316.97,54.33L313.66,66.07L310.36,65.26L307.06,49.71L300.46,66.78L297.16,58.18L293.85,64.32L290.55,63.48L287.25,62.95L283.95,65.16L280.65,61.28L277.34,66.5L274.04,53.1L270.74,63.35L264.14,66.42L260.84,77.9L257.53,50.98L254.23,65.27L250.93,71.06L247.63,65.24L244.33,67.96L241.03,55.04L237.72,60.76L234.42,54.39L231.12,61.45L227.82,79.23L224.52,62.66L221.22,59.66L217.91,70.17L214.61,76.28L208.01,90.31L204.71,97.84L201.41,67.91L198.1,71.09L194.8,71.96L191.5,99.19L184.9,97.84L181.59,94.65L178.29,90.22L174.99,113.75L171.69,87.37L168.39,125.96L165.09,127.97L161.78,152.16L158.48,150.92L155.18,150.75L151.88,151.34L148.58,169.69L145.28,150.35L141.97,177.72L138.67,161.84L135.37,162.23L132.07,172.92L128.77,186.78L125.47,190.44L122.16,178.03L118.86,196.71L115.56,189.37L112.26,205.11L108.96,190.34L105.66,196.17L102.35,203.57L99.05,208.83L95.75,209.3L92.45,200.82L89.15,213.8L85.84,211.95L82.54,213.73L75.94,212.86L72.64,215.62L69.34,209.94L66.03,216.17L62.73,213.55L59.43,216.61L56.13,217.39L52.83,224.82L49.53,222.5L46.22,226.22L42.92,227.46L39.62,238.44L36.32,233.85L33.02,230.78L29.72,241.9L26.41,237.23L23.11,246.05L19.81,241.59L13.21,242.23L9.91,238.49L3.3,236.35L0,238.73" style="vector-effect: non-scaling-stroke; fill: none; stroke: rgb(0, 0, 0); stroke-opacity: 0; stroke-width: 2px; opacity: 1;"/></g><g class="points"/><g class="text"/></g><g class="trace scatter tracec5044b" style="stroke-miterlimit: 2; opacity: 1;"><g class="fills"/><g class="errorbars"/><g class="lines"><path class="js-line" d="M0,233.82L6.6,229.6L9.91,228.7L13.21,230.07L16.51,236.53L19.81,234.1L23.11,232.88L26.41,233.99L29.72,229.66L33.02,225.83L36.32,231.86L39.62,224.35L42.92,223.4L46.22,227.65L49.53,225.63L52.83,219.84L56.13,218.34L59.43,220.93L62.73,221.68L66.03,217.09L69.34,214.51L72.64,212.06L75.94,212.66L79.24,210.97L82.54,207.5L85.84,210.8L89.15,193.51L92.45,195.75L95.75,190.9L99.05,180.18L102.35,182.36L105.66,165.37L108.96,173.34L112.26,150.26L115.56,154.96L118.86,140.67L122.16,142.16L125.47,132.12L128.77,134.45L132.07,115L135.37,111.08L138.67,96.69L141.97,106.99L145.28,83.79L148.58,77.27L151.88,68.18L155.18,68.58L161.78,66.11L165.09,54.97L168.39,55.67L171.69,57.64L174.99,46.51L178.29,47.81L184.9,65.63L188.2,53.88L194.8,56.81L198.1,47.37L201.41,48.92L204.71,52.93L208.01,47.89L211.31,53.9L214.61,46.24L217.91,47.42L221.22,41.94L224.52,40.33L227.82,45.13L231.12,56.95L234.42,48.19L237.72,49.48L241.03,46.05L244.33,45.41L247.63,50.07L250.93,39.58L254.23,35.78L257.53,43.36L264.14,39.37L267.44,42.43L270.74,42.02L274.04,49.38L277.34,35.75L280.65,43.42L283.95,44.86L287.25,40.31L290.55,46.51L293.85,41.58L297.16,38.48L300.46,48.29L303.76,42.36L307.06,38L310.36,51.67L313.66,38.09L316.97,41.46L320.27,41.81L323.57,43.56L326.87,37.25L330.17,44.87L333.47,48.35L336.78,35.03L340.08,45.15L343.38,41.43L346.68,32.96L349.98,29.69L353.28,37.36L356.59,46.95L359.89,40.4L363.19,43.05L366.49,36.1L373.09,39.22L376.4,38.86L379.7,33.81L383,35.86" style="vector-effect: non-scaling-stroke; fill: none; stroke: rgb(239, 85, 59); stroke-opacity: 1; stroke-width: 2px; opacity: 1;"/></g><g class="points"/><g class="text"/></g><g class="trace scatter traceacce95" style="stroke-miterlimit: 2; opacity: 1;"><g class="fills"><g><path class="js-fill" d="M0,228.8L3.3,226.78L6.6,228.24L9.91,227.34L13.21,224L16.51,227.9L19.81,226.29L23.11,226.01L26.41,228.32L29.72,226.46L33.02,221.87L36.32,224.16L39.62,219.96L42.92,217.94L46.22,218.28L49.53,219.87L52.83,213.45L56.13,210.98L59.43,216.21L62.73,215.33L66.03,207.97L69.34,208.92L72.64,203.31L79.24,195.73L82.54,193.72L85.84,190.27L89.15,179.87L92.45,175.4L95.75,168.74L99.05,162.4L102.35,158.42L105.66,138.21L108.96,135.06L112.26,138.16L115.56,119.42L118.86,121.96L122.16,90.61L125.47,91.16L128.77,98.5L132.07,88.28L135.37,73.32L138.67,67.96L141.97,85.36L145.28,40.93L148.58,50.86L151.88,56.42L155.18,37.45L158.48,50.77L161.78,49.92L168.39,42.8L171.69,39.56L174.99,36.46L178.29,37.07L181.59,38.53L184.9,34.35L188.2,35.42L191.5,43.2L194.8,32.79L198.1,35.5L201.41,28.07L204.71,37.05L208.01,35.67L211.31,32.52L214.61,37.47L217.91,32.66L221.22,37.55L224.52,29.94L227.82,35.93L231.12,35.42L234.42,28.45L237.72,38.77L241.03,37.7L244.33,34.63L247.63,33.36L250.93,27.84L254.23,31.57L257.53,28.1L260.84,32.41L264.14,32.72L267.44,27.06L270.74,30.01L277.34,30.79L280.65,25.38L283.95,34.76L287.25,32.37L293.85,36.52L297.16,26.34L300.46,37.77L303.76,29.15L307.06,27.5L310.36,37.79L313.66,24.4L316.97,34.34L320.27,33.81L323.57,20.69L326.87,19.75L330.17,28.89L336.78,26.86L340.08,29.64L343.38,26.71L346.68,29.43L349.98,23.27L353.28,26.39L356.59,36.63L359.89,30.29L363.19,31.37L366.49,31.58L369.79,29.25L373.09,22.26L376.4,21.98L379.7,26.05L383,25.77L383,60.84L379.7,44.44L376.4,53.94L373.09,61.39L369.79,51.3L366.49,47.23L363.19,55.87L359.89,66.83L356.59,55.19L353.28,48.56L349.98,57.67L346.68,59.84L343.38,58.37L340.08,74.19L336.78,60.65L333.47,53.67L330.17,57.15L326.87,65.28L323.57,60.31L320.27,57.29L316.97,48.6L310.36,76.01L307.06,64.93L303.76,56.9L300.46,74.84L297.16,62.05L293.85,67.93L290.55,61.05L287.25,66.1L283.95,63.9L280.65,56.53L277.34,69.35L274.04,73.25L270.74,53.63L267.44,65.14L264.14,58.32L260.84,70.59L257.53,69.49L254.23,78.1L250.93,83.78L247.63,78.96L244.33,71.17L241.03,77.49L237.72,80.73L234.42,74.96L227.82,91.56L224.52,82.61L221.22,69.66L217.91,82.8L214.61,81.18L211.31,91.68L208.01,88.29L204.71,86.42L201.41,85.89L198.1,83L194.8,97.56L191.5,90.36L188.2,112.54L184.9,113.88L181.59,93.16L178.29,94.4L174.99,112.97L171.69,101.28L168.39,99.92L165.09,139.58L161.78,124.04L158.48,127.3L155.18,137.28L151.88,124.5L148.58,154.8L145.28,133.59L141.97,160.65L138.67,150.26L135.37,158.53L132.07,172.86L128.77,166.74L125.47,171.08L122.16,180.46L118.86,181.4L115.56,192.24L112.26,182.63L108.96,198.01L105.66,193.59L102.35,199.96L99.05,199.83L95.75,207.23L92.45,212.77L89.15,207.37L85.84,215.6L82.54,215.13L79.24,215.95L75.94,217.74L72.64,217.13L69.34,220.98L66.03,221.86L62.73,227.26L59.43,234.57L56.13,230.5L52.83,224.25L49.53,233.87L46.22,238.76L42.92,240.66L39.62,233.99L36.32,239.48L33.02,234.88L29.72,239.09L26.41,241.59L23.11,239.81L19.81,245.37L16.51,243.48L13.21,232.05L9.91,234.11L6.6,240.93L3.3,236.79L0,236.37Z" style="fill: rgb(239, 85, 59); fill-opacity: 0.3; stroke-width: 0;"/></g></g><g class="errorbars"/><g class="lines"><path class="js-line" d="M0,228.8L3.3,226.78L6.6,228.24L9.91,227.34L13.21,224L16.51,227.9L19.81,226.29L23.11,226.01L26.41,228.32L29.72,226.46L33.02,221.87L36.32,224.16L39.62,219.96L42.92,217.94L46.22,218.28L49.53,219.87L52.83,213.45L56.13,210.98L59.43,216.21L62.73,215.33L66.03,207.97L69.34,208.92L72.64,203.31L79.24,195.73L82.54,193.72L85.84,190.27L89.15,179.87L92.45,175.4L95.75,168.74L99.05,162.4L102.35,158.42L105.66,138.21L108.96,135.06L112.26,138.16L115.56,119.42L118.86,121.96L122.16,90.61L125.47,91.16L128.77,98.5L132.07,88.28L135.37,73.32L138.67,67.96L141.97,85.36L145.28,40.93L148.58,50.86L151.88,56.42L155.18,37.45L158.48,50.77L161.78,49.92L168.39,42.8L171.69,39.56L174.99,36.46L178.29,37.07L181.59,38.53L184.9,34.35L188.2,35.42L191.5,43.2L194.8,32.79L198.1,35.5L201.41,28.07L204.71,37.05L208.01,35.67L211.31,32.52L214.61,37.47L217.91,32.66L221.22,37.55L224.52,29.94L227.82,35.93L231.12,35.42L234.42,28.45L237.72,38.77L241.03,37.7L244.33,34.63L247.63,33.36L250.93,27.84L254.23,31.57L257.53,28.1L260.84,32.41L264.14,32.72L267.44,27.06L270.74,30.01L277.34,30.79L280.65,25.38L283.95,34.76L287.25,32.37L293.85,36.52L297.16,26.34L300.46,37.77L303.76,29.15L307.06,27.5L310.36,37.79L313.66,24.4L316.97,34.34L320.27,33.81L323.57,20.69L326.87,19.75L330.17,28.89L336.78,26.86L340.08,29.64L343.38,26.71L346.68,29.43L349.98,23.27L353.28,26.39L356.59,36.63L359.89,30.29L363.19,31.37L366.49,31.58L369.79,29.25L373.09,22.26L376.4,21.98L379.7,26.05L383,25.77L383,60.84L379.7,44.44L376.4,53.94L373.09,61.39L369.79,51.3L366.49,47.23L363.19,55.87L359.89,66.83L356.59,55.19L353.28,48.56L349.98,57.67L346.68,59.84L343.38,58.37L340.08,74.19L336.78,60.65L333.47,53.67L330.17,57.15L326.87,65.28L323.57,60.31L320.27,57.29L316.97,48.6L310.36,76.01L307.06,64.93L303.76,56.9L300.46,74.84L297.16,62.05L293.85,67.93L290.55,61.05L287.25,66.1L283.95,63.9L280.65,56.53L277.34,69.35L274.04,73.25L270.74,53.63L267.44,65.14L264.14,58.32L260.84,70.59L257.53,69.49L254.23,78.1L250.93,83.78L247.63,78.96L244.33,71.17L241.03,77.49L237.72,80.73L234.42,74.96L227.82,91.56L224.52,82.61L221.22,69.66L217.91,82.8L214.61,81.18L211.31,91.68L208.01,88.29L204.71,86.42L201.41,85.89L198.1,83L194.8,97.56L191.5,90.36L188.2,112.54L184.9,113.88L181.59,93.16L178.29,94.4L174.99,112.97L171.69,101.28L168.39,99.92L165.09,139.58L161.78,124.04L158.48,127.3L155.18,137.28L151.88,124.5L148.58,154.8L145.28,133.59L141.97,160.65L138.67,150.26L135.37,158.53L132.07,172.86L128.77,166.74L125.47,171.08L122.16,180.46L118.86,181.4L115.56,192.24L112.26,182.63L108.96,198.01L105.66,193.59L102.35,199.96L99.05,199.83L95.75,207.23L92.45,212.77L89.15,207.37L85.84,215.6L82.54,215.13L79.24,215.95L75.94,217.74L72.64,217.13L69.34,220.98L66.03,221.86L62.73,227.26L59.43,234.57L56.13,230.5L52.83,224.25L49.53,233.87L46.22,238.76L42.92,240.66L39.62,233.99L36.32,239.48L33.02,234.88L29.72,239.09L26.41,241.59L23.11,239.81L19.81,245.37L16.51,243.48L13.21,232.05L9.91,234.11L6.6,240.93L3.3,236.79L0,236.37" style="vector-effect: non-scaling-stroke; fill: none; stroke: rgb(0, 0, 0); stroke-opacity: 0; stroke-width: 2px; opacity: 1;"/></g><g class="points"/><g class="text"/></g><g class="trace scatter tracea1a2d9" style="stroke-miterlimit: 2; opacity: 1;"><g class="fills"/><g class="errorbars"/><g class="lines"><path class="js-line" d="M0,232.87L6.6,228.11L9.91,227.57L13.21,229.91L16.51,226.88L19.81,227.65L23.11,223.67L29.72,220.33L33.02,223.06L36.32,223.19L39.62,220.62L42.92,214.4L46.22,217.06L49.53,213.97L52.83,216.18L56.13,209.99L59.43,208.79L62.73,203.64L66.03,206.1L69.34,195.07L72.64,199.48L75.94,195.69L79.24,194.5L82.54,184.24L85.84,168.28L89.15,174.46L92.45,165.72L95.75,146.72L99.05,147.33L102.35,131.7L105.66,131.28L112.26,113.68L115.56,109.34L118.86,84.27L122.16,82.48L125.47,85.63L128.77,78.11L132.07,90.04L135.37,64.3L138.67,73.93L141.97,60.08L145.28,75.38L148.58,62.06L151.88,65.48L155.18,54.63L158.48,50.33L161.78,49.15L165.09,51.37L168.39,46.15L171.69,60.04L174.99,45.84L178.29,52.3L181.59,46.92L188.2,50.78L191.5,49.25L194.8,49.66L198.1,47.86L201.41,43.87L204.71,53.04L208.01,48.71L211.31,46.78L214.61,42.02L217.91,51.02L221.22,36.54L224.52,46.13L227.82,38.6L231.12,47.44L234.42,38.16L237.72,47.09L241.03,40.51L244.33,43.46L247.63,42.1L250.93,42.68L254.23,44.74L257.53,41.79L264.14,46.35L267.44,45.27L270.74,49L274.04,41.32L277.34,44.38L280.65,42.15L283.95,36.19L287.25,44.71L290.55,40.91L293.85,44.53L297.16,47.43L300.46,47.55L303.76,46.61L307.06,37.16L310.36,38.11L313.66,41.39L316.97,40.63L320.27,47.61L323.57,42.65L326.87,33.09L330.17,36.48L333.47,31.48L336.78,37.35L340.08,37.03L343.38,34.63L346.68,40.53L349.98,38.45L353.28,30.44L356.59,39.78L359.89,42.4L363.19,27.7L366.49,35.59L369.79,42.49L373.09,38.11L376.4,41.74L379.7,32.54L383,42.6" style="vector-effect: non-scaling-stroke; fill: none; stroke: rgb(0, 204, 150); stroke-opacity: 1; stroke-width: 2px; opacity: 1;"/></g><g class="points"/><g class="text"/></g><g class="trace scatter tracef52590" style="stroke-miterlimit: 2; opacity: 1;"><g class="fills"><g><path class="js-fill" d="M0,225.47L6.6,225.52L9.91,223.2L13.21,223.83L16.51,222.12L19.81,224.8L23.11,220.55L26.41,219.47L29.72,216.3L36.32,221.59L39.62,217.34L42.92,208.5L46.22,213.17L49.53,204.15L52.83,197.56L56.13,190.34L59.43,191.12L62.73,188.35L66.03,181.72L69.34,185.13L72.64,169.45L75.94,158.94L79.24,170.31L82.54,161.82L85.84,135.26L89.15,140.54L92.45,115.16L95.75,126.48L99.05,103.8L102.35,97.19L105.66,95L108.96,75.49L112.26,77.02L115.56,77.59L118.86,61.35L122.16,67.24L125.47,52.95L128.77,63.9L132.07,64.34L135.37,46.71L138.67,45.94L141.97,45.42L145.28,47.01L148.58,58.83L151.88,42.89L155.18,38.59L158.48,36.12L161.78,36.49L165.09,40.22L168.39,42.1L171.69,39.56L174.99,32.94L178.29,43.78L181.59,39.72L184.9,40.85L188.2,45.97L191.5,37.71L194.8,34.59L198.1,35.84L201.41,37.98L204.71,41.28L208.01,41.38L211.31,37.82L214.61,31.59L217.91,43.44L221.22,29.16L224.52,33.52L227.82,32.84L231.12,33.59L234.42,31.44L237.72,38.6L241.03,32.16L244.33,36L247.63,35.48L250.93,38.49L254.23,29.37L257.53,33.05L260.84,29.57L264.14,36.72L270.74,25.82L274.04,36.91L277.34,35.63L280.65,31.41L283.95,27.39L287.25,37.57L290.55,35.54L293.85,31.51L297.16,38.53L300.46,30.95L303.76,36.11L307.06,23.21L310.36,24.92L313.66,32.64L316.97,28.21L320.27,31.6L323.57,39.72L326.87,25.12L330.17,28.75L333.47,20.84L336.78,32.05L340.08,25.59L343.38,29.18L346.68,25L349.98,27.66L353.28,12.95L356.59,30.5L359.89,31.05L363.19,16.13L366.49,29.73L369.79,28.94L373.09,32.09L376.4,32.76L379.7,30.12L383,31.35L383,52.34L379.7,42.65L376.4,48.19L373.09,40.74L369.79,51.39L366.49,45.06L363.19,44.21L359.89,53.02L356.59,47.31L353.28,36.01L349.98,50.44L346.68,55.79L343.38,54.34L340.08,50.48L336.78,52.55L333.47,42.58L330.17,51.83L326.87,52.85L323.57,51.02L320.27,49.89L316.97,57.23L313.66,48.19L310.36,42.88L307.06,44.3L303.76,47.97L300.46,53.89L297.16,55.03L293.85,56.71L290.55,50.33L287.25,56.05L283.95,43.69L280.65,52.17L277.34,53.37L274.04,53.27L270.74,60.43L267.44,50.33L264.14,53.07L260.84,54.93L257.53,52.79L254.23,50.19L250.93,50.3L247.63,46.78L244.33,55.3L241.03,51.11L237.72,51.7L234.42,56.76L231.12,66.21L227.82,47.22L224.52,63.66L221.22,53.71L217.91,61.26L214.61,57.14L211.31,59.47L204.71,60.94L201.41,51.82L198.1,60.71L194.8,58.31L191.5,52.16L188.2,60.22L184.9,59.75L181.59,58.12L178.29,59.1L174.99,55.78L171.69,66.31L168.39,61.08L165.09,55.27L161.78,67.66L158.48,60.62L155.18,76.54L151.88,75.87L148.58,68.23L141.97,99.11L138.67,91.62L135.37,82.5L132.07,108.52L128.77,89.78L125.47,102.63L118.86,123.57L115.56,144.06L112.26,133.97L108.96,162.93L105.66,157.57L102.35,156.5L99.05,174.68L95.75,176.19L92.45,178.05L89.15,195.86L85.84,192.61L82.54,207.18L79.24,204.49L75.94,207.96L72.64,211.91L69.34,211.33L66.03,214.41L62.73,218.84L59.43,214.16L56.13,216.57L52.83,222.56L49.53,219.33L42.92,223.33L39.62,227.12L33.02,225.62L29.72,225.76L26.41,226.34L23.11,228.9L19.81,229.54L16.51,229.15L13.21,235.33L9.91,233.78L6.6,233.44L3.3,243.33L0,237.34Z" style="fill: rgb(0, 204, 150); fill-opacity: 0.3; stroke-width: 0;"/></g></g><g class="errorbars"/><g class="lines"><path class="js-line" d="M0,225.47L6.6,225.52L9.91,223.2L13.21,223.83L16.51,222.12L19.81,224.8L23.11,220.55L26.41,219.47L29.72,216.3L36.32,221.59L39.62,217.34L42.92,208.5L46.22,213.17L49.53,204.15L52.83,197.56L56.13,190.34L59.43,191.12L62.73,188.35L66.03,181.72L69.34,185.13L72.64,169.45L75.94,158.94L79.24,170.31L82.54,161.82L85.84,135.26L89.15,140.54L92.45,115.16L95.75,126.48L99.05,103.8L102.35,97.19L105.66,95L108.96,75.49L112.26,77.02L115.56,77.59L118.86,61.35L122.16,67.24L125.47,52.95L128.77,63.9L132.07,64.34L135.37,46.71L138.67,45.94L141.97,45.42L145.28,47.01L148.58,58.83L151.88,42.89L155.18,38.59L158.48,36.12L161.78,36.49L165.09,40.22L168.39,42.1L171.69,39.56L174.99,32.94L178.29,43.78L181.59,39.72L184.9,40.85L188.2,45.97L191.5,37.71L194.8,34.59L198.1,35.84L201.41,37.98L204.71,41.28L208.01,41.38L211.31,37.82L214.61,31.59L217.91,43.44L221.22,29.16L224.52,33.52L227.82,32.84L231.12,33.59L234.42,31.44L237.72,38.6L241.03,32.16L244.33,36L247.63,35.48L250.93,38.49L254.23,29.37L257.53,33.05L260.84,29.57L264.14,36.72L270.74,25.82L274.04,36.91L277.34,35.63L280.65,31.41L283.95,27.39L287.25,37.57L290.55,35.54L293.85,31.51L297.16,38.53L300.46,30.95L303.76,36.11L307.06,23.21L310.36,24.92L313.66,32.64L316.97,28.21L320.27,31.6L323.57,39.72L326.87,25.12L330.17,28.75L333.47,20.84L336.78,32.05L340.08,25.59L343.38,29.18L346.68,25L349.98,27.66L353.28,12.95L356.59,30.5L359.89,31.05L363.19,16.13L366.49,29.73L369.79,28.94L373.09,32.09L376.4,32.76L379.7,30.12L383,31.35L383,52.34L379.7,42.65L376.4,48.19L373.09,40.74L369.79,51.39L366.49,45.06L363.19,44.21L359.89,53.02L356.59,47.31L353.28,36.01L349.98,50.44L346.68,55.79L343.38,54.34L340.08,50.48L336.78,52.55L333.47,42.58L330.17,51.83L326.87,52.85L323.57,51.02L320.27,49.89L316.97,57.23L313.66,48.19L310.36,42.88L307.06,44.3L303.76,47.97L300.46,53.89L297.16,55.03L293.85,56.71L290.55,50.33L287.25,56.05L283.95,43.69L280.65,52.17L277.34,53.37L274.04,53.27L270.74,60.43L267.44,50.33L264.14,53.07L260.84,54.93L257.53,52.79L254.23,50.19L250.93,50.3L247.63,46.78L244.33,55.3L241.03,51.11L237.72,51.7L234.42,56.76L231.12,66.21L227.82,47.22L224.52,63.66L221.22,53.71L217.91,61.26L214.61,57.14L211.31,59.47L204.71,60.94L201.41,51.82L198.1,60.71L194.8,58.31L191.5,52.16L188.2,60.22L184.9,59.75L181.59,58.12L178.29,59.1L174.99,55.78L171.69,66.31L168.39,61.08L165.09,55.27L161.78,67.66L158.48,60.62L155.18,76.54L151.88,75.87L148.58,68.23L141.97,99.11L138.67,91.62L135.37,82.5L132.07,108.52L128.77,89.78L125.47,102.63L118.86,123.57L115.56,144.06L112.26,133.97L108.96,162.93L105.66,157.57L102.35,156.5L99.05,174.68L95.75,176.19L92.45,178.05L89.15,195.86L85.84,192.61L82.54,207.18L79.24,204.49L75.94,207.96L72.64,211.91L69.34,211.33L66.03,214.41L62.73,218.84L59.43,214.16L56.13,216.57L52.83,222.56L49.53,219.33L42.92,223.33L39.62,227.12L33.02,225.62L29.72,225.76L26.41,226.34L23.11,228.9L19.81,229.54L16.51,229.15L13.21,235.33L9.91,233.78L6.6,233.44L3.3,243.33L0,237.34" style="vector-effect: non-scaling-stroke; fill: none; stroke: rgb(0, 0, 0); stroke-opacity: 0; stroke-width: 2px; opacity: 1;"/></g><g class="points"/><g class="text"/></g></g></g><g class="overplot"/><path class="xlines-above crisp" d="M0,0" style="fill: none;"/><path class="ylines-above crisp" d="M0,0" style="fill: none;"/><g class="overlines-above"/><g class="xaxislayer-above"><g class="xtick"><text text-anchor="middle" x="0" y="272" transform="translate(166.67000000000002,0)" style="font-family: 'Latin Modern Roman'; font-size: 12px; fill: rgb(0, 0, 0); fill-opacity: 1; white-space: pre;">10M</text></g><g class="xtick"><text text-anchor="middle" x="0" y="272" transform="translate(295.65,0)" style="font-family: 'Latin Modern Roman'; font-size: 12px; fill: rgb(0, 0, 0); fill-opacity: 1; white-space: pre;">20M</text></g></g><g class="yaxislayer-above"><g class="ytick"><text text-anchor="end" x="40" y="4.199999999999999" transform="translate(0,215.16)" style="font-family: 'Latin Modern Roman'; font-size: 12px; fill: rgb(0, 0, 0); fill-opacity: 1; white-space: pre;">0</text></g><g class="ytick"><text text-anchor="end" x="40" y="4.199999999999999" transform="translate(0,149.15)" style="font-family: 'Latin Modern Roman'; font-size: 12px; fill: rgb(0, 0, 0); fill-opacity: 1; white-space: pre;">0.5</text></g><g class="ytick"><text text-anchor="end" x="40" y="4.199999999999999" transform="translate(0,83.14)" style="font-family: 'Latin Modern Roman'; font-size: 12px; fill: rgb(0, 0, 0); fill-opacity: 1; white-space: pre;">1</text></g><g class="ytick"><text text-anchor="end" x="40" y="4.199999999999999" transform="translate(0,17.13)" style="font-family: 'Latin Modern Roman'; font-size: 12px; fill: rgb(0, 0, 0); fill-opacity: 1; white-space: pre;">1.5</text></g></g><g class="overaxes-above"/></g></g><g class="polarlayer"/><g class="ternarylayer"/><g class="geolayer"/><g class="funnelarealayer"/><g class="pielayer"/><g class="treemaplayer"/><g class="sunburstlayer"/><g class="glimages"/><defs id="topdefs-c0fade"><g class="clips"/><clipPath id="legendc0fade"><rect width="168" height="67" x="0" y="0"/></clipPath></defs><g class="layer-above"><g class="imagelayer"/><g class="shapelayer"/></g><g class="infolayer"><g class="legend" pointer-events="all" transform="translate(431.66,0)"><rect class="bg" shape-rendering="crispEdges" style="stroke: rgb(68, 68, 68); stroke-opacity: 1; fill: rgb(255, 255, 255); fill-opacity: 1; stroke-width: 0px;" width="168" height="67" x="0" y="0"/><g class="scrollbox" transform="" clip-path="url('#legendc0fade')"><g class="groups"><g class="traces" transform="translate(0,14.5)" style="opacity: 1;"><text class="legendtext" text-anchor="start" x="40" y="4.680000000000001" style="font-family: 'Latin Modern Roman'; font-size: 12px; fill: rgb(0, 0, 0); fill-opacity: 1; white-space: pre;">ppo, mean agg (n=14)</text><g class="layers" style="opacity: 1;"><g class="legendfill"/><g class="legendlines"><path class="js-line" d="M5,0h30" style="fill: none; stroke: rgb(99, 110, 250); stroke-opacity: 1; stroke-width: 2px;"/></g><g class="legendsymbols"><g class="legendpoints"/></g></g><rect class="legendtoggle" x="0" y="-9.5" width="162.75" height="19" style="fill: rgb(0, 0, 0); fill-opacity: 0;"/></g><g class="traces" transform="translate(0,33.5)" style="opacity: 1;"><text class="legendtext" text-anchor="start" x="40" y="4.680000000000001" style="font-family: 'Latin Modern Roman'; font-size: 12px; fill: rgb(0, 0, 0); fill-opacity: 1; white-space: pre;">ppo, bayes agg (n=16)</text><g class="layers" style="opacity: 1;"><g class="legendfill"/><g class="legendlines"><path class="js-line" d="M5,0h30" style="fill: none; stroke: rgb(239, 85, 59); stroke-opacity: 1; stroke-width: 2px;"/></g><g class="legendsymbols"><g class="legendpoints"/></g></g><rect class="legendtoggle" x="0" y="-9.5" width="162.75" height="19" style="fill: rgb(0, 0, 0); fill-opacity: 0;"/></g><g class="traces" transform="translate(0,52.5)" style="opacity: 1;"><text class="legendtext" text-anchor="start" x="40" y="4.680000000000001" style="font-family: 'Latin Modern Roman'; font-size: 12px; fill: rgb(0, 0, 0); fill-opacity: 1; white-space: pre;">ppo, selfatt agg (n=14)</text><g class="layers" style="opacity: 1;"><g class="legendfill"/><g class="legendlines"><path class="js-line" d="M5,0h30" style="fill: none; stroke: rgb(0, 204, 150); stroke-opacity: 1; stroke-width: 2px;"/></g><g class="legendsymbols"><g class="legendpoints"/></g></g><rect class="legendtoggle" x="0" y="-9.5" width="162.75" height="19" style="fill: rgb(0, 0, 0); fill-opacity: 0;"/></g></g></g><rect class="scrollbar" rx="20" ry="3" width="0" height="0" style="fill: rgb(128, 139, 164); fill-opacity: 1;" x="0" y="0"/></g><g class="g-gtitle"/><g class="g-xtitle" transform="translate(0,-3.8000000000000114)"><text class="xtitle" x="232.5" y="299.8" text-anchor="middle" style="font-family: 'Latin Modern Roman'; font-size: 14px; fill: rgb(0, 0, 0); opacity: 1; font-weight: normal; white-space: pre;">Agent Steps</text></g><g class="g-ytitle" transform="translate(16.1435546875,0)"><text class="ytitle" transform="rotate(-90,-0.14374999999999716,129.5)" x="-0.14374999999999716" y="129.5" text-anchor="middle" style="font-family: 'Latin Modern Roman'; font-size: 14px; fill: rgb(0, 0, 0); opacity: 1; font-weight: normal; white-space: pre;">Avg. Reward</text></g></g></svg>