<svg class="main-svg" xmlns="http://www.w3.org/2000/svg" xmlns:xlink="http://www.w3.org/1999/xlink" width="600" height="300" style="" viewBox="0 0 600 300"><rect x="0" y="0" width="600" height="300" style="fill: rgb(255, 255, 255); fill-opacity: 1;"/><defs id="defs-6c9925"><g class="clips"><clipPath id="clip6c9925xyplot" class="plotclip"><rect width="396" height="259"/></clipPath><clipPath class="axesclip" id="clip6c9925x"><rect x="38" y="0" width="396" height="300"/></clipPath><clipPath class="axesclip" id="clip6c9925y"><rect x="0" y="0" width="600" height="259"/></clipPath><clipPath class="axesclip" id="clip6c9925xy"><rect x="38" y="0" width="396" height="259"/></clipPath></g><g class="gradients"/></defs><g class="bglayer"><rect class="bg" x="38" y="0" width="396" height="259" style="fill: rgb(229, 236, 246); fill-opacity: 1; stroke-width: 0;"/></g><g class="layer-below"><g class="imagelayer"/><g class="shapelayer"/></g><g class="cartesianlayer"><g class="subplot xy"><g class="layer-subplot"><g class="shapelayer"/><g class="imagelayer"/></g><g class="gridlayer"><g class="x"><path class="xgrid crisp" transform="translate(115.01,0)" d="M0,0v259" style="stroke: rgb(255, 255, 255); stroke-opacity: 1; stroke-width: 1px;"/><path class="xgrid crisp" transform="translate(192.81,0)" d="M0,0v259" style="stroke: rgb(255, 255, 255); stroke-opacity: 1; stroke-width: 1px;"/><path class="xgrid crisp" transform="translate(270.61,0)" d="M0,0v259" style="stroke: rgb(255, 255, 255); stroke-opacity: 1; stroke-width: 1px;"/><path class="xgrid crisp" transform="translate(348.42,0)" d="M0,0v259" style="stroke: rgb(255, 255, 255); stroke-opacity: 1; stroke-width: 1px;"/><path class="xgrid crisp" transform="translate(426.22,0)" d="M0,0v259" style="stroke: rgb(255, 255, 255); stroke-opacity: 1; stroke-width: 1px;"/></g><g class="y"><path class="ygrid crisp" transform="translate(0,196.61)" d="M38,0h396" style="stroke: rgb(255, 255, 255); stroke-opacity: 1; stroke-width: 1px;"/><path class="ygrid crisp" transform="translate(0,147.17)" d="M38,0h396" style="stroke: rgb(255, 255, 255); stroke-opacity: 1; stroke-width: 1px;"/><path class="ygrid crisp" transform="translate(0,97.74)" d="M38,0h396" style="stroke: rgb(255, 255, 255); stroke-opacity: 1; stroke-width: 1px;"/><path class="ygrid crisp" transform="translate(0,48.3)" d="M38,0h396" style="stroke: rgb(255, 255, 255); stroke-opacity: 1; stroke-width: 1px;"/></g></g><g class="zerolinelayer"><path class="yzl zl crisp" transform="translate(0,246.05)" d="M38,0h396" style="stroke: rgb(255, 255, 255); stroke-opacity: 1; stroke-width: 2px;"/></g><path class="xlines-below"/><path class="ylines-below"/><g class="overlines-below"/><g class="xaxislayer-below"/><g class="yaxislayer-below"/><g class="overaxes-below"/><g class="plot" transform="translate(38,0)" clip-path="url('#clip6c9925xyplot')"><g class="scatterlayer mlayer"><g class="trace scatter tracef8ad18" style="stroke-miterlimit: 2; opacity: 1;"><g class="fills"/><g class="errorbars"/><g class="lines"><path class="js-line" d="M0,244.32L11.11,243.83L11.9,243.45L13.49,243.95L14.28,243.58L17.46,243.83L18.25,243.83L31.74,243.08L32.54,242.59L35.71,242.96L36.51,242.22L38.09,241.97L38.89,241.97L39.68,241.97L40.47,240.61L41.27,238.76L42.06,240.36L44.44,236.78L45.23,233.2L47.62,219.11L48.41,219.85L49.2,215.89L50,206.01L50.79,213.79L51.58,205.26L52.38,217.62L53.17,201.68L53.96,206.25L54.76,194.76L57.14,203.9L57.93,196.86L58.73,196.74L59.52,193.27L61.9,177.7L62.69,183.26L63.49,179.31L64.28,181.41L65.87,167.07L66.66,169.42L68.25,157.93L69.04,163.74L69.84,160.4L70.63,151.13L71.42,155.58L72.22,148.41L73.01,153.48L73.8,152.86L74.6,149.65L75.39,141.86L76.18,148.16L76.98,143.71L77.77,141.24L78.57,141.74L79.36,151.62L80.15,136.05L80.95,140.75L81.74,138.15L82.53,135.43L83.33,128.76L84.12,130.24L84.91,139.02L85.71,139.63L86.5,135.68L87.29,128.02L88.09,136.67L89.68,132.47L90.47,129.13L91.26,138.03L92.06,123.07L92.85,125.05L93.64,116.03L94.44,116.52L95.23,122.33L96.82,119.49L97.61,120.23L98.4,121.84L99.2,118.13L99.99,119.37L100.79,116.65L101.58,107.99L102.37,114.67L103.17,110.59L103.96,120.23L104.75,118.01L105.55,126.41L108.72,115.04L109.52,121.59L110.31,126.66L111.1,116.65L111.9,123.69L112.69,114.79L114.28,123.94L115.07,117.14L115.86,124.8L116.66,120.23L117.45,116.52L118.24,107.25L119.04,116.03L119.83,110.71L121.42,114.79L122.21,112.81L123.01,118.13L123.8,115.29L124.59,115.78L125.39,111.08L126.18,110.22L126.97,113.93L127.77,108.12L128.56,108.37L129.35,116.03L130.15,108.61L130.94,112.57L131.74,110.71L132.53,113.06L133.32,111.08L134.12,111.08L134.91,111.95L135.7,110.84L136.5,114.05L137.29,108.49L138.08,109.85L139.67,99.71L140.46,106.39L141.26,107.38L142.05,105.03L143.64,109.97L144.43,99.96L145.23,103.92L146.02,101.94L146.81,108.98L147.61,107.38L148.4,113.43L149.19,107.13L149.99,104.29L150.78,96.87L152.37,98.23L153.16,105.65L153.96,103.67L154.75,104.66L155.54,104.04L156.34,107.99L157.13,108.74L157.92,102.68L159.51,97.61L160.3,101.69L161.1,95.14L161.89,98.35L162.69,98.11L163.48,101.07L164.27,107.13L165.07,104.29L165.86,101.07L166.65,102.93L168.24,99.34L169.03,99.84L169.83,99.47L170.62,93.53L171.41,101.69L172.21,97.24L173,102.43L173.8,98.6L174.59,101.57L175.38,94.03L176.18,104.29L176.97,95.14L177.76,97.98L178.56,97.12L179.35,96.5L180.14,94.03L181.73,102.68L182.53,106.63L183.32,95.39L184.11,96.5L185.7,100.58L186.49,98.85L187.29,92.67L188.08,96.87L188.87,90.57L189.67,91.8L190.46,88.34L191.25,92.05L192.05,88.47L192.84,93.53L195.22,88.1L196.02,89.58L196.81,89.7L197.6,97.74L198.4,86.86L199.19,91.56L199.98,98.35L200.78,87.97L201.57,91.19L202.36,86.61L203.95,85.25L204.75,97.37L205.54,93.78L206.33,94.4L207.92,93.9L208.71,95.63L209.51,96.01L210.3,94.65L211.89,93.16L212.68,98.48L213.47,93.16L214.27,97.86L215.06,85.25L215.86,91.68L216.65,87.97L217.44,88.22L218.24,96.38L219.03,86.37L220.62,92.3L221.41,92.05L222.2,90.07L223,90.57L223.79,91.68L224.59,90.81L225.38,92.55L226.17,97.24L226.97,89.58L227.76,90.57L228.55,90.81L229.35,88.96L230.93,94.4L231.73,85.5L232.52,93.41L233.31,92.3L234.11,94.4L234.9,102.8L236.49,84.39L237.28,89.46L238.08,91.93L238.87,85.75L239.66,89.7L240.46,85.25L242.04,93.16L242.84,82.41L243.63,96.01L244.42,88.47L245.22,93.66L246.01,86.12L247.6,90.2L248.39,84.64L249.19,81.05L249.98,82.9L252.36,87.72L253.15,81.17L253.95,84.76L254.74,83.77L255.54,81.92L256.33,85.25L257.12,79.94L257.92,88.1L259.5,84.88L260.3,84.26L261.09,82.9L261.88,86.24L262.68,80.56L263.47,85.13L264.26,90.94L265.06,82.04L267.44,81.55L268.23,86.37L269.03,87.97L269.82,86.61L270.61,86.12L271.41,82.53L272.2,90.07L272.99,83.89L273.79,88.59L274.58,83.52L276.17,87.23L276.96,80.68L278.55,95.88L279.34,87.23L280.14,85.87L280.93,86.12L281.72,88.96L282.52,83.89L284.1,83.52L284.9,77.22L285.69,88.1L286.48,88.22L288.07,83.15L288.87,90.57L289.66,85.38L290.45,87.85L291.25,85.99L292.04,95.39L292.83,96.75L293.63,83.4L294.42,91.68L295.21,87.35L296.01,97.61L296.8,92.3L298.39,88.84L299.18,90.07L299.98,89.95L300.77,86.24L301.56,86.98L302.36,92.42L303.15,96.5L303.94,93.9L304.74,96.75L305.53,96.38L307.12,91.68L307.91,91.31L308.71,88.59L309.5,92.05L310.29,92.67L311.09,83.77L311.88,94.28L312.67,91.31L313.47,100.58L314.26,98.6L315.05,91.56L315.85,96.62L316.64,93.66L317.43,94.15L318.23,89.7L319.02,94.77L319.82,92.92L320.61,95.76L321.4,95.88L322.2,92.17L322.99,94.77L323.78,91.93L325.37,95.02L326.16,91.06L327.75,99.22L328.55,98.23L330.13,93.66L330.93,90.69L332.51,88.22L333.31,90.69L334.1,92.42L334.89,97.98L337.27,89.7L338.07,97.98L338.86,87.85L339.66,93.16L340.45,90.57L341.24,98.72L342.04,95.39L342.83,98.48L343.62,92.05L344.42,96.38L346,87.6L346.8,90.32L348.38,96.62L349.18,93.41L349.97,101.2L350.77,92.92L352.35,98.23L353.15,96.01L353.94,92.3L354.73,99.59L355.53,91.06L356.32,94.4L357.11,91.06L357.91,95.02L358.7,93.41L359.49,94.89L360.29,90.94L361.08,96.5L361.88,92.42L362.67,100.33L363.46,99.71L364.26,95.14L365.05,95.14L365.84,98.85L366.64,93.9L367.43,100.95L368.22,87.6L369.02,92.79L371.4,101.94L372.19,90.32L372.99,96.25L373.78,96.13L374.57,97.74L375.37,101.81L376.16,103.17L376.95,98.6L377.75,93.41L378.54,98.48L379.33,96.5L380.13,104.41L380.92,97.49L381.72,100.33L382.51,104.78L383.3,98.11L384.1,97.49L384.89,103.42L385.68,92.55L386.48,104.29L387.27,108.12L388.06,104.53L390.44,96.62L391.24,109.72L392.83,102.06L393.62,105.15L394.41,100.33L395.21,105.15L396,97.74" style="vector-effect: non-scaling-stroke; fill: none; stroke: rgb(99, 110, 250); stroke-opacity: 1; stroke-width: 2px; opacity: 1;"/></g><g class="points"/><g class="text"/></g><g class="trace scatter tracec4e78c" style="stroke-miterlimit: 2; opacity: 1;"><g class="fills"><g><path class="js-fill" d="M0,244.01L2.38,243.33L3.17,243.52L7.14,242.96L7.94,242.34L8.73,242.9L9.52,241.29L11.11,238.82L11.9,240.12L13.49,235.11L14.28,236.72L16.67,234.18L17.46,230.42L18.25,233.13L19.05,230.79L19.84,224.11L20.63,234.25L22.22,222.44L23.01,226.65L24.6,220.03L25.39,219.35L26.98,222.26L27.78,226.46L28.57,222.2L29.36,223.93L30.16,222.07L30.95,222.88L31.74,222.44L32.54,215.21L35.71,208.04L36.51,212.49L37.3,194.33L38.09,203.29L39.68,182.21L40.47,189.2L41.27,188.95L42.06,175.11L42.85,174.61L43.65,164.35L44.44,174.98L45.23,174.06L46.03,175.85L46.82,174.18L47.62,162.25L48.41,165.47L49.2,162.62L50,150.2L50.79,144.27L51.58,146.19L53.17,156.32L53.96,145.69L54.76,157.8L55.55,143.4L57.14,142.29L57.93,135.68L58.73,139.2L59.52,136.3L60.31,131.72L61.11,132.96L61.9,125.73L62.69,126.66L64.28,125.05L65.07,120.91L66.66,114.05L67.45,112.13L69.84,103.11L70.63,94.21L71.42,103.92L72.22,102.87L73.01,103.79L73.8,98.54L74.6,98.6L75.39,100.83L76.18,100.58L76.98,104.72L77.77,102.87L78.57,94.21L79.36,101.2L80.15,90.14L80.95,103.3L81.74,97.49L82.53,90.81L83.33,94.21L84.12,95.08L84.91,91.99L85.71,92.36L86.5,85.62L88.09,93.6L88.88,92.42L90.47,96.13L91.26,87.42L92.85,95.33L93.64,95.39L95.23,92.85L96.02,87.17L96.82,94.21L97.61,93.04L98.4,83.96L99.2,91.68L99.99,82.97L100.79,89.46L101.58,84.2L102.37,87.72L103.17,90.26L103.96,86.8L105.55,83.96L106.34,79.2L107.93,88.65L108.72,88.03L109.52,87.6L110.31,77.65L111.1,89.52L111.9,84.2L112.69,84.2L113.48,80.31L114.28,79.26L115.07,86.8L115.86,78.76L116.66,79.26L117.45,77.22L118.24,83.58L119.04,80.43L119.83,84.94L121.42,78.08L122.21,83.28L123.8,76.11L124.59,81.11L126.18,75.8L126.97,74.38L127.77,74.5L128.56,80.93L129.35,86.12L130.15,76.23L130.94,65.85L131.74,69.87L133.32,64.3L134.12,64.8L134.91,68.01L135.7,67.15L136.5,68.63L137.29,62.64L138.88,67.15L139.67,71.53L140.46,63.75L141.26,68.63L142.05,70.3L142.85,60.23L143.64,61.83L144.43,60.04L146.02,66.1L146.81,65.6L148.4,61.96L149.19,64.37L149.99,53.18L150.78,66.71L151.58,57.69L152.37,64.24L153.96,58.56L154.75,64.98L156.34,60.66L157.13,64.49L158.72,57.26L159.51,63.19L160.3,63.13L161.1,65.42L162.69,53.98L163.48,55.34L165.07,48.67L165.86,62.08L166.65,55.4L167.45,57.01L168.24,57.69L169.03,61.15L169.83,53.24L170.62,59.73L171.41,52.07L172.21,58.43L173,53.74L173.8,55.03L174.59,59.61L175.38,52.69L177.76,63.31L178.56,51.64L180.14,57.75L180.94,56.39L181.73,63.19L182.53,52.69L183.32,55.78L184.11,53.61L184.91,56.39L185.7,54.35L186.49,51.57L187.29,63.62L188.08,51.51L188.87,52.44L189.67,46.14L190.46,56.02L192.05,55.1L192.84,52.19L193.64,54.73L194.43,46.51L195.22,49.78L196.02,46.94L197.6,52.19L198.4,49.66L199.19,46.07L199.98,49.04L200.78,52.93L201.57,46.51L203.16,50.52L203.95,53.67L204.75,56.39L205.54,51.2L206.33,54.05L207.13,53.37L208.71,58.68L209.51,55.1L210.3,58.37L211.09,52.07L213.47,58.99L214.27,54.35L215.06,51.76L215.86,58.06L217.44,55.4L218.24,56.7L219.03,53.67L219.82,56.33L220.62,50.4L221.41,58.25L223,46.75L223.79,54.48L224.59,56.52L225.38,49.9L226.17,46.57L226.97,47.8L227.76,48.24L228.55,53.86L229.35,46.94L230.14,52.01L230.93,50.65L231.73,46.82L232.52,52.69L233.31,50.83L234.11,43.54L234.9,46.01L235.7,48.92L236.49,54.85L237.28,52.5L238.08,44.59L238.87,49.16L239.66,49.04L240.46,52.87L241.25,48.73L242.84,53.06L243.63,43.73L244.42,56.15L245.22,48.05L246.01,57.44L246.81,54.73L249.19,48.67L249.98,54.42L250.77,56.83L251.57,50.09L253.15,47.37L253.95,52.44L254.74,55.22L255.54,54.91L256.33,49.16L257.12,54.23L258.71,41.87L259.5,48.98L260.3,46.63L261.09,40.76L261.88,50.52L262.68,41.38L265.06,55.65L265.85,44.71L266.65,50.71L267.44,49.29L269.03,54.54L269.82,45.15L270.61,50.65L271.41,48.67L272.2,56.46L272.99,49.47L273.79,51.51L274.58,51.02L275.37,52.93L276.17,43.29L277.76,48.67L278.55,49.29L279.34,49.04L280.14,46.26L280.93,51.02L281.72,47.49L282.52,55.71L283.31,47.37L284.1,53.49L284.9,51.02L285.69,48.73L286.48,55.78L287.28,43.6L288.07,47.62L289.66,42.8L290.45,49.47L291.25,53.12L292.04,52.19L292.83,48.98L293.63,50.96L294.42,47.74L295.21,48.85L296.01,46.44L296.8,53.3L297.6,47.68L298.39,53.3L300.77,47.06L301.56,56.21L302.36,47.99L303.15,51.26L303.94,51.64L304.74,56.02L306.32,47.06L307.12,53.8L307.91,51.64L308.71,46.38L310.29,52.99L311.09,49.53L311.88,48.11L312.67,52.87L313.47,45.76L314.26,45.46L315.05,45.58L315.85,54.29L318.23,48.24L319.02,51.76L319.82,45.76L320.61,50.28L322.2,44.78L322.99,46.2L323.78,45.33L324.58,42.55L325.37,49.72L326.16,45.89L326.96,42.86L327.75,51.02L328.55,42.67L329.34,51.08L330.13,48.11L330.93,39.03L331.72,50.52L332.51,50.4L333.31,52.13L334.1,46.14L334.89,47.06L335.69,55.65L336.48,42.55L337.27,51.2L338.86,42.98L339.66,46.88L340.45,49.78L341.24,48.55L342.04,47.68L342.83,48.92L343.62,46.38L344.42,48.17L346,41.07L346.8,52.44L348.38,43.79L349.18,43.35L350.77,48.98L351.56,52.19L352.35,54.23L353.15,46.82L353.94,46.01L354.73,49.29L355.53,51.64L356.32,45.95L357.11,41.38L357.91,48.92L359.49,48.85L360.29,49.84L361.88,53.43L362.67,43.48L363.46,49.35L364.26,49.04L365.05,52.07L365.84,47.06L367.43,50.96L368.22,49.6L369.81,51.39L370.61,48.61L372.19,51.45L372.99,45.7L374.57,53.43L375.37,51.88L376.16,50.15L376.95,51.76L377.75,49.78L378.54,53.06L380.92,47.74L381.72,51.51L383.3,42.55L384.1,49.72L384.89,44.1L385.68,47.31L386.48,45.7L387.27,47.31L388.06,45.39L388.86,49.16L389.65,49.47L390.44,48.05L391.24,50.09L392.03,47.31L392.83,49.35L393.62,53.43L394.41,41.81L395.21,48.24L396,48.11L396,144.27L395.21,146.06L394.41,140.75L393.62,143.96L392.83,142.6L391.24,143.47L390.44,148.16L388.86,140.81L388.06,145.63L387.27,140.01L386.48,142.66L384.89,140.19L384.1,137.47L383.3,140.56L382.51,137.9L381.72,135.8L380.92,141.43L380.13,136.54L379.33,142.72L378.54,138.77L377.75,141.24L376.95,142.85L376.16,141.8L374.57,137.97L373.78,138.21L372.19,143.16L371.4,137.29L370.61,140.56L369.81,140.5L369.02,143.96L368.22,140.5L367.43,144.64L366.64,136.85L365.84,136.92L365.05,144.39L364.26,139.63L363.46,143.28L362.67,139.02L361.88,140.81L361.08,142.04L360.29,136.98L359.49,143.1L358.7,139.39L357.91,134.69L357.11,136.92L356.32,133.64L355.53,134.57L354.73,131.35L353.94,141.3L352.35,136.05L351.56,136.54L350.77,131.29L349.97,132.1L348.38,139.51L347.59,133.08L346.8,130.67L346,134.81L345.21,134.32L344.42,130.92L343.62,133.83L342.83,132.71L341.24,131.48L340.45,137.66L339.66,134.2L338.86,134.38L336.48,127.34L335.69,129.62L334.89,129.93L334.1,137.35L331.72,128.39L330.93,136.36L330.13,129.75L329.34,134.2L328.55,133.08L327.75,133.64L326.16,129.75L325.37,131.11L324.58,131.97L323.78,135.12L322.2,129.56L321.4,130.18L320.61,131.23L319.82,125.61L319.02,124.06L318.23,124.49L317.43,131.66L316.64,130.92L315.85,127.89L315.05,128.26L313.47,135.56L312.67,133.89L311.88,133.76L311.09,132.65L310.29,130.92L309.5,126.47L308.71,126.9L307.91,133.52L306.32,130.18L305.53,132.4L303.94,128.88L303.15,129.75L301.56,135.93L300.77,132.34L299.98,133.7L299.18,132.78L298.39,136.05L297.6,130.18L296.8,131.91L296.01,129.5L295.21,141.67L294.42,131.97L293.63,124.74L292.83,138.58L292.04,129.62L291.25,141.12L289.66,128.7L288.87,133.33L288.07,135.37L287.28,133.83L286.48,133.58L285.69,127.09L284.9,130.18L284.1,128.82L283.31,130.86L282.52,130.67L281.72,131.91L280.93,136.85L280.14,130.18L279.34,131.54L278.55,132.47L277.76,131.79L276.96,134.63L276.17,130.49L275.37,130.3L274.58,128.94L272.99,133.58L272.2,126.35L270.61,135.99L269.82,134.44L268.23,129.19L267.44,137.16L266.65,138.15L265.85,135.87L264.26,139.33L263.47,139.08L262.68,129.07L261.88,132.53L259.5,143.78L258.71,138.71L257.92,136.67L257.12,142.17L256.33,138.4L255.54,142.66L253.95,135.68L253.15,137.53L252.36,134.81L251.57,140.01L249.19,131.6L248.39,136.11L247.6,138.96L246.81,135.12L246.01,139.94L245.22,137.22L244.42,140.75L243.63,137.84L242.84,134.32L242.04,138.65L241.25,131.72L240.46,137.04L238.87,133.95L238.08,130.24L237.28,139.7L236.49,125.85L235.7,139.57L234.9,133.7L234.11,141.12L233.31,135.37L232.52,138.21L231.73,146L230.93,127.71L230.14,137.97L228.55,130.24L227.76,141.18L226.97,142.6L226.17,134.75L225.38,138.89L224.59,134.69L223.79,132.4L223,139.57L222.2,135.68L221.41,140.75L220.62,136.36L219.82,137.84L219.03,142.66L218.24,133.89L217.44,132.4L216.65,139.02L215.86,137.9L215.06,139.14L212.68,133.52L211.89,135.37L211.09,141.92L210.3,132.16L209.51,138.52L208.71,132.65L207.92,136.24L207.13,132.59L204.75,143.78L203.95,136.24L203.16,132.96L202.36,135.68L201.57,142.11L200.78,134.81L199.98,148.97L199.19,140.56L198.4,140.62L197.6,137.72L196.81,145.26L196.02,136.85L192.84,148.9L192.05,137.1L191.25,146.62L190.46,136.92L189.67,135.56L188.87,140.13L188.08,150.39L187.29,143.9L186.49,147.42L185.7,143.03L184.91,135.25L184.11,142.79L183.32,147.36L182.53,146.06L181.73,141.61L180.94,147.98L180.14,149.28L179.35,144.08L178.56,138.28L177.76,149.15L176.18,146.25L175.38,146.74L174.59,132.9L173.8,144.7L172.21,142.66L171.41,146L169.83,152.8L169.03,150.63L168.24,143.96L167.45,145.07L166.65,145.75L165.86,139.57L165.07,139.76L164.27,141.67L163.48,147.85L162.69,142.85L161.89,139.88L161.1,143.53L160.3,147.48L159.51,146.68L158.72,148.66L157.92,147.73L157.13,147.73L156.34,148.6L155.54,142.29L154.75,146.31L153.96,142.72L153.16,143.1L152.37,153.29L151.58,151.07L150.78,155.39L149.99,153.11L149.19,154.9L148.4,154.59L147.61,152.61L146.81,153.97L146.02,157L145.23,156.01L144.43,160.58L143.64,160.15L142.85,161.63L142.05,168.37L141.26,160.52L140.46,162.25L139.67,167.26L138.88,160.77L136.5,173.56L135.7,167.2L134.91,165.4L134.12,168.49L133.32,162.62L132.53,167.07L131.74,168.06L130.94,174.3L130.15,170.22L129.35,172.88L127.77,167.63L126.97,169.17L126.18,179.19L125.39,176.34L124.59,174.24L123.8,175.91L122.21,179L121.42,174.8L120.63,184.44L119.83,177.08L118.24,186.91L117.45,183.76L116.66,189.2L115.86,179.37L115.07,180.24L114.28,193.03L113.48,192.16L112.69,199.27L111.1,192.16L110.31,193.27L109.52,195.99L108.72,193.03L107.93,203.53L107.13,203.53L106.34,190.49L105.55,201.86L104.75,198.1L103.96,206.01L103.17,203.29L102.37,195.81L101.58,204.34L100.79,201.8L99.99,207.98L99.2,207.24L96.82,216.51L96.02,209.96L95.23,210.76L94.44,218.8L93.64,215.65L92.85,220.71L91.26,215.77L90.47,224.79L89.68,220.28L88.88,228.31L87.29,231.4L86.5,234.49L85.71,232.39L84.91,236.22L83.33,234.43L82.53,232.08L80.95,235.67L80.15,237.77L79.36,239.87L78.57,237.27L77.77,239.87L76.98,239.19L76.18,238.2L75.39,232.21L74.6,237.21L73.8,237.21L71.42,240.86L70.63,239.56L69.84,239.81L69.04,241.48L68.25,237.95L67.45,241.11L66.66,239.87L65.87,240.43L65.07,239.68L64.28,242.16L63.49,242.96L62.69,241.97L61.11,241.79L60.31,239.44L59.52,240.24L58.73,239.44L57.93,242.03L57.14,241.17L56.34,240.92L55.55,242.59L54.76,241.23L53.96,242.47L52.38,242.71L51.58,243.15L49.2,243.15L48.41,243.64L46.03,243.08L45.23,243.64L44.44,243.08L43.65,243.45L42.06,243.89L41.27,243.21L38.89,243.83L38.09,243.83L34.92,244.13L34.12,243.89L30.16,244.32L29.36,244.07L26.19,244.32L25.39,244.32L23.01,244.32L22.22,244.32L19.84,244.32L19.05,244.57L15.87,244.32L15.08,244.38L5.56,244.13L4.76,244.57L1.59,244.32L0.79,244.57L0,244.57Z" style="fill: rgb(99, 110, 250); fill-opacity: 0.3; stroke-width: 0;"/></g></g><g class="errorbars"/><g class="lines"><path class="js-line" d="M0,244.01L2.38,243.33L3.17,243.52L7.14,242.96L7.94,242.34L8.73,242.9L9.52,241.29L11.11,238.82L11.9,240.12L13.49,235.11L14.28,236.72L16.67,234.18L17.46,230.42L18.25,233.13L19.05,230.79L19.84,224.11L20.63,234.25L22.22,222.44L23.01,226.65L24.6,220.03L25.39,219.35L26.98,222.26L27.78,226.46L28.57,222.2L29.36,223.93L30.16,222.07L30.95,222.88L31.74,222.44L32.54,215.21L35.71,208.04L36.51,212.49L37.3,194.33L38.09,203.29L39.68,182.21L40.47,189.2L41.27,188.95L42.06,175.11L42.85,174.61L43.65,164.35L44.44,174.98L45.23,174.06L46.03,175.85L46.82,174.18L47.62,162.25L48.41,165.47L49.2,162.62L50,150.2L50.79,144.27L51.58,146.19L53.17,156.32L53.96,145.69L54.76,157.8L55.55,143.4L57.14,142.29L57.93,135.68L58.73,139.2L59.52,136.3L60.31,131.72L61.11,132.96L61.9,125.73L62.69,126.66L64.28,125.05L65.07,120.91L66.66,114.05L67.45,112.13L69.84,103.11L70.63,94.21L71.42,103.92L72.22,102.87L73.01,103.79L73.8,98.54L74.6,98.6L75.39,100.83L76.18,100.58L76.98,104.72L77.77,102.87L78.57,94.21L79.36,101.2L80.15,90.14L80.95,103.3L81.74,97.49L82.53,90.81L83.33,94.21L84.12,95.08L84.91,91.99L85.71,92.36L86.5,85.62L88.09,93.6L88.88,92.42L90.47,96.13L91.26,87.42L92.85,95.33L93.64,95.39L95.23,92.85L96.02,87.17L96.82,94.21L97.61,93.04L98.4,83.96L99.2,91.68L99.99,82.97L100.79,89.46L101.58,84.2L102.37,87.72L103.17,90.26L103.96,86.8L105.55,83.96L106.34,79.2L107.93,88.65L108.72,88.03L109.52,87.6L110.31,77.65L111.1,89.52L111.9,84.2L112.69,84.2L113.48,80.31L114.28,79.26L115.07,86.8L115.86,78.76L116.66,79.26L117.45,77.22L118.24,83.58L119.04,80.43L119.83,84.94L121.42,78.08L122.21,83.28L123.8,76.11L124.59,81.11L126.18,75.8L126.97,74.38L127.77,74.5L128.56,80.93L129.35,86.12L130.15,76.23L130.94,65.85L131.74,69.87L133.32,64.3L134.12,64.8L134.91,68.01L135.7,67.15L136.5,68.63L137.29,62.64L138.88,67.15L139.67,71.53L140.46,63.75L141.26,68.63L142.05,70.3L142.85,60.23L143.64,61.83L144.43,60.04L146.02,66.1L146.81,65.6L148.4,61.96L149.19,64.37L149.99,53.18L150.78,66.71L151.58,57.69L152.37,64.24L153.96,58.56L154.75,64.98L156.34,60.66L157.13,64.49L158.72,57.26L159.51,63.19L160.3,63.13L161.1,65.42L162.69,53.98L163.48,55.34L165.07,48.67L165.86,62.08L166.65,55.4L167.45,57.01L168.24,57.69L169.03,61.15L169.83,53.24L170.62,59.73L171.41,52.07L172.21,58.43L173,53.74L173.8,55.03L174.59,59.61L175.38,52.69L177.76,63.31L178.56,51.64L180.14,57.75L180.94,56.39L181.73,63.19L182.53,52.69L183.32,55.78L184.11,53.61L184.91,56.39L185.7,54.35L186.49,51.57L187.29,63.62L188.08,51.51L188.87,52.44L189.67,46.14L190.46,56.02L192.05,55.1L192.84,52.19L193.64,54.73L194.43,46.51L195.22,49.78L196.02,46.94L197.6,52.19L198.4,49.66L199.19,46.07L199.98,49.04L200.78,52.93L201.57,46.51L203.16,50.52L203.95,53.67L204.75,56.39L205.54,51.2L206.33,54.05L207.13,53.37L208.71,58.68L209.51,55.1L210.3,58.37L211.09,52.07L213.47,58.99L214.27,54.35L215.06,51.76L215.86,58.06L217.44,55.4L218.24,56.7L219.03,53.67L219.82,56.33L220.62,50.4L221.41,58.25L223,46.75L223.79,54.48L224.59,56.52L225.38,49.9L226.17,46.57L226.97,47.8L227.76,48.24L228.55,53.86L229.35,46.94L230.14,52.01L230.93,50.65L231.73,46.82L232.52,52.69L233.31,50.83L234.11,43.54L234.9,46.01L235.7,48.92L236.49,54.85L237.28,52.5L238.08,44.59L238.87,49.16L239.66,49.04L240.46,52.87L241.25,48.73L242.84,53.06L243.63,43.73L244.42,56.15L245.22,48.05L246.01,57.44L246.81,54.73L249.19,48.67L249.98,54.42L250.77,56.83L251.57,50.09L253.15,47.37L253.95,52.44L254.74,55.22L255.54,54.91L256.33,49.16L257.12,54.23L258.71,41.87L259.5,48.98L260.3,46.63L261.09,40.76L261.88,50.52L262.68,41.38L265.06,55.65L265.85,44.71L266.65,50.71L267.44,49.29L269.03,54.54L269.82,45.15L270.61,50.65L271.41,48.67L272.2,56.46L272.99,49.47L273.79,51.51L274.58,51.02L275.37,52.93L276.17,43.29L277.76,48.67L278.55,49.29L279.34,49.04L280.14,46.26L280.93,51.02L281.72,47.49L282.52,55.71L283.31,47.37L284.1,53.49L284.9,51.02L285.69,48.73L286.48,55.78L287.28,43.6L288.07,47.62L289.66,42.8L290.45,49.47L291.25,53.12L292.04,52.19L292.83,48.98L293.63,50.96L294.42,47.74L295.21,48.85L296.01,46.44L296.8,53.3L297.6,47.68L298.39,53.3L300.77,47.06L301.56,56.21L302.36,47.99L303.15,51.26L303.94,51.64L304.74,56.02L306.32,47.06L307.12,53.8L307.91,51.64L308.71,46.38L310.29,52.99L311.09,49.53L311.88,48.11L312.67,52.87L313.47,45.76L314.26,45.46L315.05,45.58L315.85,54.29L318.23,48.24L319.02,51.76L319.82,45.76L320.61,50.28L322.2,44.78L322.99,46.2L323.78,45.33L324.58,42.55L325.37,49.72L326.16,45.89L326.96,42.86L327.75,51.02L328.55,42.67L329.34,51.08L330.13,48.11L330.93,39.03L331.72,50.52L332.51,50.4L333.31,52.13L334.1,46.14L334.89,47.06L335.69,55.65L336.48,42.55L337.27,51.2L338.86,42.98L339.66,46.88L340.45,49.78L341.24,48.55L342.04,47.68L342.83,48.92L343.62,46.38L344.42,48.17L346,41.07L346.8,52.44L348.38,43.79L349.18,43.35L350.77,48.98L351.56,52.19L352.35,54.23L353.15,46.82L353.94,46.01L354.73,49.29L355.53,51.64L356.32,45.95L357.11,41.38L357.91,48.92L359.49,48.85L360.29,49.84L361.88,53.43L362.67,43.48L363.46,49.35L364.26,49.04L365.05,52.07L365.84,47.06L367.43,50.96L368.22,49.6L369.81,51.39L370.61,48.61L372.19,51.45L372.99,45.7L374.57,53.43L375.37,51.88L376.16,50.15L376.95,51.76L377.75,49.78L378.54,53.06L380.92,47.74L381.72,51.51L383.3,42.55L384.1,49.72L384.89,44.1L385.68,47.31L386.48,45.7L387.27,47.31L388.06,45.39L388.86,49.16L389.65,49.47L390.44,48.05L391.24,50.09L392.03,47.31L392.83,49.35L393.62,53.43L394.41,41.81L395.21,48.24L396,48.11L396,144.27L395.21,146.06L394.41,140.75L393.62,143.96L392.83,142.6L391.24,143.47L390.44,148.16L388.86,140.81L388.06,145.63L387.27,140.01L386.48,142.66L384.89,140.19L384.1,137.47L383.3,140.56L382.51,137.9L381.72,135.8L380.92,141.43L380.13,136.54L379.33,142.72L378.54,138.77L377.75,141.24L376.95,142.85L376.16,141.8L374.57,137.97L373.78,138.21L372.19,143.16L371.4,137.29L370.61,140.56L369.81,140.5L369.02,143.96L368.22,140.5L367.43,144.64L366.64,136.85L365.84,136.92L365.05,144.39L364.26,139.63L363.46,143.28L362.67,139.02L361.88,140.81L361.08,142.04L360.29,136.98L359.49,143.1L358.7,139.39L357.91,134.69L357.11,136.92L356.32,133.64L355.53,134.57L354.73,131.35L353.94,141.3L352.35,136.05L351.56,136.54L350.77,131.29L349.97,132.1L348.38,139.51L347.59,133.08L346.8,130.67L346,134.81L345.21,134.32L344.42,130.92L343.62,133.83L342.83,132.71L341.24,131.48L340.45,137.66L339.66,134.2L338.86,134.38L336.48,127.34L335.69,129.62L334.89,129.93L334.1,137.35L331.72,128.39L330.93,136.36L330.13,129.75L329.34,134.2L328.55,133.08L327.75,133.64L326.16,129.75L325.37,131.11L324.58,131.97L323.78,135.12L322.2,129.56L321.4,130.18L320.61,131.23L319.82,125.61L319.02,124.06L318.23,124.49L317.43,131.66L316.64,130.92L315.85,127.89L315.05,128.26L313.47,135.56L312.67,133.89L311.88,133.76L311.09,132.65L310.29,130.92L309.5,126.47L308.71,126.9L307.91,133.52L306.32,130.18L305.53,132.4L303.94,128.88L303.15,129.75L301.56,135.93L300.77,132.34L299.98,133.7L299.18,132.78L298.39,136.05L297.6,130.18L296.8,131.91L296.01,129.5L295.21,141.67L294.42,131.97L293.63,124.74L292.83,138.58L292.04,129.62L291.25,141.12L289.66,128.7L288.87,133.33L288.07,135.37L287.28,133.83L286.48,133.58L285.69,127.09L284.9,130.18L284.1,128.82L283.31,130.86L282.52,130.67L281.72,131.91L280.93,136.85L280.14,130.18L279.34,131.54L278.55,132.47L277.76,131.79L276.96,134.63L276.17,130.49L275.37,130.3L274.58,128.94L272.99,133.58L272.2,126.35L270.61,135.99L269.82,134.44L268.23,129.19L267.44,137.16L266.65,138.15L265.85,135.87L264.26,139.33L263.47,139.08L262.68,129.07L261.88,132.53L259.5,143.78L258.71,138.71L257.92,136.67L257.12,142.17L256.33,138.4L255.54,142.66L253.95,135.68L253.15,137.53L252.36,134.81L251.57,140.01L249.19,131.6L248.39,136.11L247.6,138.96L246.81,135.12L246.01,139.94L245.22,137.22L244.42,140.75L243.63,137.84L242.84,134.32L242.04,138.65L241.25,131.72L240.46,137.04L238.87,133.95L238.08,130.24L237.28,139.7L236.49,125.85L235.7,139.57L234.9,133.7L234.11,141.12L233.31,135.37L232.52,138.21L231.73,146L230.93,127.71L230.14,137.97L228.55,130.24L227.76,141.18L226.97,142.6L226.17,134.75L225.38,138.89L224.59,134.69L223.79,132.4L223,139.57L222.2,135.68L221.41,140.75L220.62,136.36L219.82,137.84L219.03,142.66L218.24,133.89L217.44,132.4L216.65,139.02L215.86,137.9L215.06,139.14L212.68,133.52L211.89,135.37L211.09,141.92L210.3,132.16L209.51,138.52L208.71,132.65L207.92,136.24L207.13,132.59L204.75,143.78L203.95,136.24L203.16,132.96L202.36,135.68L201.57,142.11L200.78,134.81L199.98,148.97L199.19,140.56L198.4,140.62L197.6,137.72L196.81,145.26L196.02,136.85L192.84,148.9L192.05,137.1L191.25,146.62L190.46,136.92L189.67,135.56L188.87,140.13L188.08,150.39L187.29,143.9L186.49,147.42L185.7,143.03L184.91,135.25L184.11,142.79L183.32,147.36L182.53,146.06L181.73,141.61L180.94,147.98L180.14,149.28L179.35,144.08L178.56,138.28L177.76,149.15L176.18,146.25L175.38,146.74L174.59,132.9L173.8,144.7L172.21,142.66L171.41,146L169.83,152.8L169.03,150.63L168.24,143.96L167.45,145.07L166.65,145.75L165.86,139.57L165.07,139.76L164.27,141.67L163.48,147.85L162.69,142.85L161.89,139.88L161.1,143.53L160.3,147.48L159.51,146.68L158.72,148.66L157.92,147.73L157.13,147.73L156.34,148.6L155.54,142.29L154.75,146.31L153.96,142.72L153.16,143.1L152.37,153.29L151.58,151.07L150.78,155.39L149.99,153.11L149.19,154.9L148.4,154.59L147.61,152.61L146.81,153.97L146.02,157L145.23,156.01L144.43,160.58L143.64,160.15L142.85,161.63L142.05,168.37L141.26,160.52L140.46,162.25L139.67,167.26L138.88,160.77L136.5,173.56L135.7,167.2L134.91,165.4L134.12,168.49L133.32,162.62L132.53,167.07L131.74,168.06L130.94,174.3L130.15,170.22L129.35,172.88L127.77,167.63L126.97,169.17L126.18,179.19L125.39,176.34L124.59,174.24L123.8,175.91L122.21,179L121.42,174.8L120.63,184.44L119.83,177.08L118.24,186.91L117.45,183.76L116.66,189.2L115.86,179.37L115.07,180.24L114.28,193.03L113.48,192.16L112.69,199.27L111.1,192.16L110.31,193.27L109.52,195.99L108.72,193.03L107.93,203.53L107.13,203.53L106.34,190.49L105.55,201.86L104.75,198.1L103.96,206.01L103.17,203.29L102.37,195.81L101.58,204.34L100.79,201.8L99.99,207.98L99.2,207.24L96.82,216.51L96.02,209.96L95.23,210.76L94.44,218.8L93.64,215.65L92.85,220.71L91.26,215.77L90.47,224.79L89.68,220.28L88.88,228.31L87.29,231.4L86.5,234.49L85.71,232.39L84.91,236.22L83.33,234.43L82.53,232.08L80.95,235.67L80.15,237.77L79.36,239.87L78.57,237.27L77.77,239.87L76.98,239.19L76.18,238.2L75.39,232.21L74.6,237.21L73.8,237.21L71.42,240.86L70.63,239.56L69.84,239.81L69.04,241.48L68.25,237.95L67.45,241.11L66.66,239.87L65.87,240.43L65.07,239.68L64.28,242.16L63.49,242.96L62.69,241.97L61.11,241.79L60.31,239.44L59.52,240.24L58.73,239.44L57.93,242.03L57.14,241.17L56.34,240.92L55.55,242.59L54.76,241.23L53.96,242.47L52.38,242.71L51.58,243.15L49.2,243.15L48.41,243.64L46.03,243.08L45.23,243.64L44.44,243.08L43.65,243.45L42.06,243.89L41.27,243.21L38.89,243.83L38.09,243.83L34.92,244.13L34.12,243.89L30.16,244.32L29.36,244.07L26.19,244.32L25.39,244.32L23.01,244.32L22.22,244.32L19.84,244.32L19.05,244.57L15.87,244.32L15.08,244.38L5.56,244.13L4.76,244.57L1.59,244.32L0.79,244.57L0,244.57" style="vector-effect: non-scaling-stroke; fill: none; stroke: rgb(0, 0, 0); stroke-opacity: 0; stroke-width: 2px; opacity: 1;"/></g><g class="points"/><g class="text"/></g><g class="trace scatter traceecb25b" style="stroke-miterlimit: 2; opacity: 1;"><g class="fills"/><g class="errorbars"/><g class="lines"><path class="js-line" d="M0,244.57L2.38,243.33L3.17,243.33L3.97,243.83L4.76,243.08L6.35,243.58L7.14,243.58L11.11,242.84L11.9,243.58L13.49,243.58L14.28,243.83L19.05,242.84L19.84,241.6L20.63,239.62L21.43,242.34L22.22,236.66L23.01,238.88L23.81,241.35L24.6,240.86L25.39,240.12L26.19,235.17L26.98,230.97L27.78,237.4L28.57,236.41L29.36,233.2L30.16,229.98L30.95,236.66L31.74,232.7L32.54,238.39L34.92,226.03L35.71,221.33L36.51,223.8L37.3,223.06L38.09,228.25L38.89,216.14L39.68,217.62L40.47,223.56L41.27,219.85L42.06,220.34L43.65,214.16L44.44,213.42L45.23,209.96L46.03,214.66L46.82,222.32L47.62,214.66L48.41,217.38L49.2,215.15L50.79,204.77L51.58,206.5L52.38,196.86L53.17,200.57L55.55,182.77L56.34,182.28L57.93,177.08L58.73,172.39L59.52,172.39L60.31,177.58L61.9,151.13L62.69,154.59L63.49,151.62L64.28,153.35L65.07,152.61L65.87,159.53L66.66,150.63L67.45,155.83L68.25,151.87L69.04,140.5L71.42,155.83L72.22,155.83L73.01,137.53L73.8,140.25L74.6,149.4L75.39,140.75L76.18,124.43L76.98,131.6L77.77,132.59L78.57,132.1L80.15,127.89L80.95,132.59L81.74,119.24L82.53,132.84L84.12,119.49L84.91,122.46L85.71,118.01L86.5,118.99L87.29,119.98L88.09,117.26L88.88,115.53L89.68,111.83L91.26,107.62L92.06,109.11L92.85,112.81L93.64,108.12L94.44,118.5L95.23,111.83L96.02,107.13L96.82,108.61L99.2,115.29L99.99,105.65L100.79,98.72L101.58,103.92L102.37,96.01L103.17,109.85L103.96,112.07L104.75,101.94L105.55,114.05L106.34,112.57L107.13,103.92L107.93,110.59L108.72,109.6L109.52,101.94L110.31,95.51L111.1,97.49L111.9,107.38L112.69,97.74L113.48,99.22L114.28,96.75L115.07,90.32L115.86,94.77L116.66,94.77L117.45,99.22L118.24,87.6L119.04,95.76L119.83,90.57L120.63,92.3L122.21,83.15L123.01,88.1L123.8,86.86L124.59,78.21L127.77,89.83L128.56,81.92L129.35,76.23L130.15,80.43L130.94,84.64L131.74,80.93L132.53,80.19L133.32,64.61L134.91,84.64L135.7,80.68L136.5,66.84L137.29,70.55L138.08,84.64L138.88,73.51L139.67,76.72L140.46,67.58L141.26,66.1L142.05,62.39L143.64,63.62L144.43,68.57L145.23,63.87L146.02,73.02L146.81,72.28L147.61,69.06L149.19,62.88L149.99,64.61L150.78,66.84L151.58,71.53L152.37,64.37L153.16,70.3L153.96,64.61L154.75,72.52L155.54,62.88L156.34,64.86L157.13,62.39L157.92,70.79L159.51,63.87L160.3,65.6L161.1,60.16L161.89,70.55L163.48,55.96L164.27,65.6L165.07,66.1L165.86,65.11L167.45,52.25L168.24,61.65L169.03,53.24L169.83,57.2L170.62,61.89L171.41,52.01L172.21,57.44L173,56.95L174.59,49.53L175.38,53.74L176.18,51.76L176.97,44.84L177.76,59.17L178.56,53.24L179.35,55.96L180.14,42.61L180.94,45.83L181.73,54.73L182.53,56.7L183.32,50.03L184.11,47.31L184.91,48.05L185.7,53.49L186.49,49.53L187.29,50.28L188.08,54.48L188.87,55.22L189.67,53.49L190.46,42.86L191.25,46.07L192.05,52.01L192.84,44.34L194.43,46.32L195.22,43.11L196.81,55.22L197.6,47.31L198.4,47.06L199.19,43.6L199.98,49.53L200.78,39.4L201.57,56.21L202.36,46.07L204.75,53.49L205.54,60.41L206.33,47.56L207.13,62.39L208.71,55.71L209.51,56.21L210.3,57.69L211.09,54.73L211.89,51.26L212.68,55.22L213.47,56.95L214.27,45.33L215.06,60.66L215.86,58.68L217.44,53.49L218.24,52.99L219.03,50.03L219.82,58.43L220.62,52.01L221.41,57.2L223,52.01L223.79,52.99L224.59,60.66L225.38,56.7L226.17,60.41L226.97,56.95L229.35,49.53L230.14,49.78L230.93,61.65L231.73,51.51L232.52,52.5L233.31,55.47L234.11,55.47L234.9,58.93L236.49,54.48L237.28,56.7L238.08,51.02L238.87,57.2L240.46,56.46L241.25,53.74L242.04,63.38L242.84,62.14L243.63,47.06L244.42,59.17L246.01,61.89L246.81,63.13L247.6,53.74L248.39,53.74L249.19,54.48L249.98,59.92L250.77,56.95L251.57,62.64L252.36,66.34L253.15,59.67L253.95,58.43L254.74,63.13L255.54,57.69L256.33,57.94L257.12,64.61L257.92,57.44L258.71,59.17L259.5,65.6L260.3,56.21L261.09,56.7L261.88,65.85L262.68,60.16L263.47,65.85L264.26,55.96L265.06,58.19L265.85,66.1L266.65,61.65L267.44,65.85L268.23,59.17L269.03,62.14L269.82,60.41L270.61,62.64L271.41,67.08L272.2,58.43L272.99,61.4L273.79,68.07L275.37,62.39L276.17,69.56L276.96,62.64L277.76,67.83L278.55,61.15L279.34,74.25L280.14,63.38L280.93,62.88L281.72,61.15L282.52,63.13L284.1,56.95L284.9,60.9L285.69,59.92L286.48,62.14L288.07,57.69L288.87,66.84L290.45,60.9L291.25,68.07L292.04,64.37L292.83,65.35L293.63,59.92L294.42,61.4L295.21,63.62L296.01,63.38L296.8,66.1L297.6,53.74L298.39,73.02L299.18,66.84L299.98,66.34L300.77,59.67L301.56,64.12L302.36,62.39L303.15,68.81L303.94,63.38L304.74,67.33L305.53,63.87L306.32,62.64L307.12,63.38L308.71,67.58L309.5,59.42L310.29,51.02L311.09,66.1L311.88,55.22L312.67,63.13L313.47,61.89L314.26,75.24L315.05,57.44L315.85,61.15L316.64,61.15L317.43,59.92L318.23,66.34L319.02,64.12L319.82,68.32L320.61,67.08L321.4,58.93L322.2,62.88L322.99,65.11L323.78,56.95L324.58,67.33L325.37,64.12L326.16,59.67L326.96,63.38L328.55,61.4L329.34,59.92L330.13,61.89L330.93,60.16L332.51,65.6L333.31,54.23L334.89,64.37L335.69,67.33L336.48,62.39L337.27,64.37L338.07,68.32L338.86,63.13L339.66,60.66L340.45,71.53L341.24,56.21L342.04,57.69L342.83,63.62L343.62,61.15L344.42,64.61L345.21,64.61L346.8,60.66L347.59,69.8L348.38,66.84L349.18,60.41L350.77,65.35L351.56,58.93L352.35,72.52L353.15,64.86L353.94,65.6L354.73,57.2L356.32,64.37L357.11,59.42L357.91,66.34L358.7,58.68L359.49,61.4L360.29,56.95L361.88,59.67L362.67,60.66L363.46,58.19L364.26,51.76L365.84,60.9L366.64,62.14L367.43,64.12L368.22,58.68L369.81,62.14L370.61,58.43L371.4,59.67L372.19,56.95L372.99,63.13L373.78,61.89L376.16,51.76L376.95,57.94L377.75,61.89L378.54,60.41L379.33,53.98L380.13,60.66L380.92,59.17L381.72,63.38L382.51,54.97L383.3,58.93L384.89,63.13L385.68,61.4L388.06,55.71L388.86,62.39L389.65,62.88L390.44,61.15L391.24,64.12L392.03,60.41L392.83,62.88L393.62,56.95L394.41,66.84L395.21,59.17L396,57.69" style="vector-effect: non-scaling-stroke; fill: none; stroke: rgb(239, 85, 59); stroke-opacity: 1; stroke-width: 2px; opacity: 1;"/></g><g class="points"/><g class="text"/></g><g class="trace scatter traceb25f38" style="stroke-miterlimit: 2; opacity: 1;"><g class="fills"><g><path class="js-fill" d="M0,244.07L2.38,241.35L3.17,240.36L4.76,240.12L5.56,239.13L6.35,237.65L7.14,233.2L7.94,237.15L8.73,234.43L9.52,231.47L10.32,233.2L11.11,236.9L11.9,230.72L14.28,241.6L15.08,242.09L17.46,226.03L18.25,228.01L19.05,220.84L19.84,222.07L20.63,216.39L21.43,220.1L23.01,211.2L23.81,208.23L24.6,213.92L25.39,208.48L26.98,217.62L27.78,215.15L28.57,217.13L29.36,206.01L30.16,193.4L30.95,200.32L31.74,189.44L32.54,196.36L34.12,184.5L34.92,188.45L35.71,192.66L36.51,185.24L37.3,182.03L38.09,170.41L38.89,164.97L39.68,174.86L40.47,159.04L41.27,179.8L42.06,164.48L42.85,172.39L43.65,168.43L44.44,171.15L45.23,165.47L46.03,170.41L47.62,156.81L48.41,154.1L49.2,160.28L50,140.75L50.79,150.39L51.58,141.74L52.38,148.66L53.17,148.66L55.55,131.85L56.34,137.78L59.52,110.34L60.31,113.06L61.11,115.04L61.9,99.71L62.69,95.26L63.49,103.42L64.28,93.78L65.07,102.68L65.87,101.69L66.66,96.01L67.45,96.5L68.25,99.71L69.04,88.34L69.84,91.56L70.63,95.26L71.42,86.61L72.22,91.06L73.01,82.66L75.39,68.07L76.18,80.68L78.57,63.87L79.36,71.29L80.15,82.66L80.95,78.7L82.53,74.25L83.33,66.1L84.91,68.81L85.71,63.87L86.5,61.4L87.29,66.1L88.09,73.51L88.88,72.52L90.47,61.65L91.26,69.06L92.06,59.67L92.85,70.79L93.64,51.76L94.44,52.5L95.23,55.71L96.02,53.98L96.82,57.2L97.61,54.73L98.4,56.7L99.2,47.56L100.79,59.67L101.58,50.52L102.37,53.98L103.17,46.57L105.55,57.44L106.34,51.51L107.13,53.98L107.93,62.14L109.52,41.87L110.31,51.76L111.1,51.26L111.9,48.79L112.69,45.83L113.48,60.9L114.28,51.51L115.07,54.48L115.86,45.83L116.66,46.82L117.45,47.8L118.24,44.84L119.04,44.1L119.83,37.17L120.63,49.78L121.42,49.29L123.01,53.74L123.8,50.03L124.59,48.55L125.39,49.78L126.97,40.88L127.77,48.05L129.35,39.65L130.15,43.35L130.94,52.01L131.74,46.57L132.53,42.37L133.32,45.83L134.91,40.88L135.7,40.39L136.5,40.39L137.29,38.16L138.08,38.66L138.88,37.42L139.67,39.4L140.46,34.46L141.26,32.73L142.05,36.19L142.85,38.66L143.64,36.19L144.43,38.66L145.23,33.22L146.02,31.24L146.81,25.31L147.61,34.7L148.4,29.51L149.19,32.97L149.99,30.99L150.78,25.31L151.58,28.77L152.37,33.22L153.16,21.85L153.96,26.55L154.75,22.84L155.54,28.03L156.34,22.1L157.13,21.35L157.92,26.79L159.51,34.46L160.3,26.55L161.1,25.31L161.89,27.78L163.48,30.01L164.27,23.33L165.86,32.97L166.65,30.01L167.45,30.01L168.24,31.98L169.03,31.24L169.83,26.55L170.62,29.26L171.41,27.29L172.21,21.85L173,25.31L173.8,26.79L174.59,35.2L175.38,28.03L176.18,32.97L177.76,23.58L178.56,27.04L180.14,35.94L180.94,34.46L182.53,22.59L183.32,31.74L184.91,19.62L185.7,22.84L186.49,29.76L187.29,24.07L188.08,24.32L188.87,22.1L189.67,30.25L190.46,23.33L191.25,26.55L192.05,24.82L192.84,31.98L193.64,26.79L194.43,20.61L195.22,24.07L196.81,22.1L197.6,26.05L198.4,27.53L199.19,21.6L199.98,25.06L200.78,21.85L201.57,28.52L202.36,22.84L203.16,32.48L203.95,25.06L204.75,26.05L205.54,24.82L206.33,31.49L207.13,24.82L208.71,29.26L209.51,26.79L210.3,31.24L211.09,19.87L212.68,29.26L213.47,28.28L214.27,33.22L215.06,24.57L215.86,23.33L216.65,32.97L218.24,28.52L219.03,27.04L220.62,28.52L221.41,39.4L223,29.02L223.79,31.24L224.59,25.06L225.38,33.96L226.17,37.42L226.97,23.58L227.76,35.44L228.55,31.74L229.35,23.08L230.14,30.01L230.93,35.2L231.73,34.7L232.52,29.51L233.31,31.98L234.11,25.56L234.9,26.55L235.7,30.01L236.49,24.57L237.28,30.99L238.08,28.28L238.87,28.77L239.66,22.34L242.04,25.56L242.84,22.84L244.42,22.59L245.22,35.2L246.01,38.41L246.81,32.48L248.39,18.64L249.19,39.15L249.98,27.04L250.77,26.79L252.36,22.1L253.15,21.85L253.95,34.21L254.74,26.3L256.33,25.8L257.12,27.78L257.92,27.78L258.71,34.46L259.5,16.91L260.3,37.17L261.09,25.8L261.88,27.53L262.68,35.69L263.47,33.47L264.26,22.59L265.06,29.76L266.65,35.69L267.44,28.03L268.23,24.07L269.03,27.53L269.82,26.3L270.61,33.71L272.2,26.3L272.99,29.26L273.79,28.52L274.58,32.97L276.17,32.23L276.96,30.5L277.76,31.74L278.55,23.58L279.34,36.43L280.14,23.08L280.93,28.52L281.72,27.53L282.52,34.95L283.31,28.28L284.9,37.42L285.69,30.99L288.07,26.05L288.87,23.08L289.66,29.02L290.45,22.1L291.25,31.98L292.04,29.51L292.83,29.26L293.63,32.73L294.42,31.24L295.21,31.74L296.01,26.55L296.8,26.55L297.6,18.14L298.39,21.85L299.18,24.57L299.98,23.83L300.77,24.07L301.56,28.52L302.36,25.06L303.15,30.99L304.74,19.62L305.53,25.8L306.32,31.49L307.12,23.08L307.91,24.32L308.71,30.01L309.5,29.51L310.29,21.35L311.09,31.24L311.88,30.25L312.67,32.23L313.47,30.99L314.26,20.61L315.05,25.8L315.85,20.12L316.64,24.82L317.43,21.11L318.23,23.58L319.82,30.01L320.61,21.11L321.4,25.31L322.2,24.82L322.99,28.28L323.78,20.12L324.58,24.82L325.37,20.61L326.16,20.37L326.96,30.75L327.75,22.1L328.55,30.99L330.13,24.82L330.93,24.82L331.72,23.83L332.51,32.73L333.31,26.3L334.1,30.99L335.69,24.82L336.48,23.33L338.07,31.24L338.86,29.02L339.66,25.56L340.45,16.91L342.04,33.47L342.83,19.62L343.62,32.97L344.42,28.77L345.21,28.03L346,25.06L346.8,38.16L347.59,21.6L348.38,31.98L349.18,18.88L350.77,35.69L351.56,26.3L352.35,20.12L353.15,25.56L353.94,12.95L354.73,29.51L355.53,34.95L356.32,16.41L357.11,26.55L357.91,16.91L358.7,24.07L359.49,18.39L360.29,28.52L361.08,23.83L361.88,20.37L362.67,32.48L363.46,28.52L364.26,33.71L365.05,28.28L365.84,28.28L366.64,31.98L367.43,29.02L369.02,26.05L369.81,31.24L370.61,31.24L371.4,22.59L372.19,22.59L372.99,30.75L374.57,26.55L375.37,14.68L376.95,26.05L377.75,18.64L378.54,22.1L379.33,33.71L380.13,30.99L380.92,31.98L383.3,20.86L384.1,27.29L384.89,27.04L385.68,29.02L386.48,25.06L387.27,31.98L388.06,36.19L388.86,30.99L389.65,16.66L390.44,23.58L391.24,24.57L392.03,20.61L392.83,31.74L393.62,23.33L394.41,22.84L395.21,40.64L396,32.48L396,108.86L394.41,112.81L393.62,118.99L392.83,108.37L392.03,111.58L391.24,118.75L390.44,114.79L389.65,112.81L388.86,118.01L388.06,107.87L387.27,108.37L386.48,106.39L385.68,115.04L384.89,115.29L384.1,114.3L383.3,112.57L382.51,113.31L381.72,116.52L380.92,113.56L379.33,108.37L378.54,109.35L377.75,107.38L376.95,115.53L376.16,112.57L375.37,100.46L374.57,119.74L373.78,105.65L372.99,98.23L372.19,113.8L371.4,103.92L370.61,104.41L369.81,96.5L369.02,108.12L368.22,98.23L367.43,101.2L366.64,93.78L365.84,106.88L365.05,92.79L364.26,95.02L362.67,97.24L361.88,95.51L361.08,104.66L360.29,94.77L359.49,110.59L358.7,101.2L357.91,94.03L357.11,107.38L356.32,99.47L355.53,107.87L354.73,105.89L353.94,97.98L353.15,106.88L352.35,99.22L349.97,113.31L349.18,104.16L348.38,104.9L347.59,117.26L346.8,102.68L346,117.51L345.21,116.52L344.42,109.85L343.62,112.07L342.83,100.21L342.04,93.29L341.24,99.96L340.45,109.11L339.66,103.92L338.86,118.25L338.07,103.42L337.27,99.71L336.48,99.71L334.89,110.34L334.1,96.99L333.31,100.21L332.51,99.71L331.72,103.42L330.93,93.53L330.13,107.62L329.34,97.74L328.55,104.66L327.75,104.41L326.96,105.4L326.16,92.3L325.37,92.55L324.58,105.15L323.78,107.13L322.99,115.78L322.2,119.98L321.4,105.15L320.61,100.95L319.82,90.81L319.02,111.33L318.23,98.23L317.43,115.04L316.64,104.9L315.85,110.59L315.05,87.11L314.26,111.08L313.47,102.43L312.67,104.9L311.88,91.31L311.09,117.26L310.29,111.58L309.5,107.13L308.71,92.79L307.91,98.48L307.12,97.24L306.32,95.76L305.53,85.87L304.74,94.52L303.94,91.56L303.15,91.8L302.36,98.23L301.56,89.08L300.77,93.53L299.98,80.68L299.18,85.62L298.39,94.28L297.6,90.07L296.8,100.46L296.01,92.05L295.21,88.34L294.42,79.2L292.83,101.2L292.04,83.65L291.25,106.88L290.45,91.56L289.66,81.17L288.87,81.42L288.07,87.85L287.28,78.46L286.48,96.25L285.69,82.9L284.9,75.24L284.1,89.83L283.31,95.02L282.52,90.07L281.72,96.75L280.93,83.15L280.14,84.88L279.34,79.44L277.76,87.35L276.96,88.1L276.17,93.53L275.37,116.03L274.58,121.47L273.79,97.74L272.99,95.02L272.2,102.93L270.61,80.43L269.82,82.9L269.03,87.6L268.23,103.92L267.44,75.98L266.65,90.07L265.85,76.72L265.06,79.44L264.26,101.44L263.47,85.62L262.68,89.33L261.88,78.21L261.09,94.52L260.3,80.43L259.5,74.25L258.71,83.15L257.92,82.66L257.12,87.85L255.54,97.98L254.74,93.78L253.95,89.58L253.15,78.7L252.36,81.17L251.57,102.93L250.77,81.92L249.98,118.5L249.19,95.76L248.39,107.62L246.81,86.12L246.01,82.16L245.22,80.68L244.42,87.35L242.84,79.69L242.04,88.1L241.25,96.75L240.46,92.79L239.66,101.44L238.87,89.08L237.28,103.17L236.49,81.67L235.7,90.57L234.9,112.32L233.31,99.71L232.52,122.7L231.73,108.86L230.93,125.17L230.14,124.68L229.35,118.01L228.55,108.61L227.76,133.83L226.97,137.78L226.17,129.62L225.38,128.88L224.59,112.57L223.79,124.68L223,120.72L222.2,126.41L221.41,122.21L219.82,114.3L219.03,119.24L218.24,113.06L217.44,115.29L216.65,110.59L215.86,117.26L215.06,111.33L214.27,118.5L213.47,118.75L212.68,113.8L211.89,114.79L211.09,120.72L210.3,123.94L209.51,120.23L208.71,128.39L207.92,122.46L206.33,115.29L205.54,129.13L203.95,107.62L203.16,118.5L201.57,123.94L200.78,127.4L199.19,111.08L198.4,110.1L197.6,114.79L196.81,102.19L196.02,113.8L195.22,110.34L194.43,113.31L193.64,107.87L192.05,121.96L191.25,117.26L189.67,122.46L188.87,120.48L186.49,130.37L185.7,130.61L184.91,124.19L184.11,132.34L183.32,114.55L182.53,131.35L181.73,115.53L180.94,130.86L179.35,121.22L178.56,99.96L177.76,113.8L176.97,113.31L176.18,94.77L175.38,120.23L173.8,99.96L173,109.35L172.21,99.22L171.41,100.46L170.62,110.84L169.83,97.49L169.03,98.48L168.24,118.25L165.86,86.86L165.07,92.55L164.27,90.57L163.48,103.17L162.69,110.84L161.89,105.15L161.1,97.24L160.3,104.16L159.51,106.14L158.72,94.28L157.92,103.92L157.13,97.74L156.34,95.26L155.54,104.66L154.75,107.87L153.96,103.92L153.16,108.12L152.37,118.99L150.78,90.32L149.99,104.66L149.19,104.66L148.4,102.19L147.61,99.22L146.81,111.08L146.02,112.07L145.23,114.3L144.43,115.29L143.64,113.06L142.85,115.53L142.05,97.24L141.26,102.68L140.46,99.22L139.67,107.87L138.88,99.71L137.29,106.63L136.5,98.23L135.7,102.43L134.91,95.76L132.53,114.55L131.74,108.61L130.15,99.96L129.35,104.9L128.56,109.6L127.77,120.23L126.97,120.48L126.18,111.58L125.39,127.89L124.59,120.23L123.8,137.04L123.01,129.13L122.21,126.16L121.42,140.99L119.83,123.2L119.04,123.44L118.24,126.41L117.45,125.67L115.86,121.47L115.07,125.67L113.48,136.79L112.69,134.32L111.9,124.93L111.1,124.43L110.31,127.15L109.52,125.92L107.93,126.41L107.13,134.32L106.34,130.37L105.55,131.11L104.75,138.03L103.96,127.15L102.37,139.02L101.58,139.26L99.99,129.13L99.2,135.06L97.61,129.62L96.82,146.19L96.02,144.95L95.23,130.37L94.44,154.84L93.64,153.11L92.06,164.23L91.26,177.33L90.47,170.16L89.68,175.35L88.09,191.92L87.29,203.04L86.5,176.34L85.71,189.69L84.12,175.6L83.33,176.34L82.53,186.23L81.74,183.02L80.95,175.85L80.15,187.47L79.36,192.9L78.57,172.63L76.18,188.45L75.39,175.85L73.8,183.02L73.01,194.39L72.22,186.97L71.42,196.61L69.84,190.19L69.04,203.78L68.25,196.86L67.45,199.58L65.87,207.49L65.07,219.6L64.28,203.29L63.49,209.22L62.69,220.1L61.9,212.93L60.31,230.23L59.52,220.34L58.73,225.53L57.93,225.29L57.14,228.99L56.34,227.76L55.55,232.7L54.76,222.07L53.96,233.69L53.17,227.26L52.38,231.71L51.58,227.51L50.79,238.39L50,234.43L49.2,231.22L48.41,231.22L46.82,236.16L46.03,234.93L44.44,241.35L43.65,241.11L42.85,238.39L42.06,238.63L41.27,235.42L40.47,242.84L39.68,239.62L38.89,243.08L38.09,241.6L37.3,243.33L36.51,242.59L35.71,243.33L33.33,242.59L32.54,243.08L31.74,243.83L30.95,243.08L29.36,242.59L28.57,244.07L27.78,243.33L26.98,243.83L22.22,243.83L21.43,244.57L20.63,243.58L19.84,244.07L0.79,244.07L0,244.81Z" style="fill: rgb(239, 85, 59); fill-opacity: 0.3; stroke-width: 0;"/></g></g><g class="errorbars"/><g class="lines"><path class="js-line" d="M0,244.07L2.38,241.35L3.17,240.36L4.76,240.12L5.56,239.13L6.35,237.65L7.14,233.2L7.94,237.15L8.73,234.43L9.52,231.47L10.32,233.2L11.11,236.9L11.9,230.72L14.28,241.6L15.08,242.09L17.46,226.03L18.25,228.01L19.05,220.84L19.84,222.07L20.63,216.39L21.43,220.1L23.01,211.2L23.81,208.23L24.6,213.92L25.39,208.48L26.98,217.62L27.78,215.15L28.57,217.13L29.36,206.01L30.16,193.4L30.95,200.32L31.74,189.44L32.54,196.36L34.12,184.5L34.92,188.45L35.71,192.66L36.51,185.24L37.3,182.03L38.09,170.41L38.89,164.97L39.68,174.86L40.47,159.04L41.27,179.8L42.06,164.48L42.85,172.39L43.65,168.43L44.44,171.15L45.23,165.47L46.03,170.41L47.62,156.81L48.41,154.1L49.2,160.28L50,140.75L50.79,150.39L51.58,141.74L52.38,148.66L53.17,148.66L55.55,131.85L56.34,137.78L59.52,110.34L60.31,113.06L61.11,115.04L61.9,99.71L62.69,95.26L63.49,103.42L64.28,93.78L65.07,102.68L65.87,101.69L66.66,96.01L67.45,96.5L68.25,99.71L69.04,88.34L69.84,91.56L70.63,95.26L71.42,86.61L72.22,91.06L73.01,82.66L75.39,68.07L76.18,80.68L78.57,63.87L79.36,71.29L80.15,82.66L80.95,78.7L82.53,74.25L83.33,66.1L84.91,68.81L85.71,63.87L86.5,61.4L87.29,66.1L88.09,73.51L88.88,72.52L90.47,61.65L91.26,69.06L92.06,59.67L92.85,70.79L93.64,51.76L94.44,52.5L95.23,55.71L96.02,53.98L96.82,57.2L97.61,54.73L98.4,56.7L99.2,47.56L100.79,59.67L101.58,50.52L102.37,53.98L103.17,46.57L105.55,57.44L106.34,51.51L107.13,53.98L107.93,62.14L109.52,41.87L110.31,51.76L111.1,51.26L111.9,48.79L112.69,45.83L113.48,60.9L114.28,51.51L115.07,54.48L115.86,45.83L116.66,46.82L117.45,47.8L118.24,44.84L119.04,44.1L119.83,37.17L120.63,49.78L121.42,49.29L123.01,53.74L123.8,50.03L124.59,48.55L125.39,49.78L126.97,40.88L127.77,48.05L129.35,39.65L130.15,43.35L130.94,52.01L131.74,46.57L132.53,42.37L133.32,45.83L134.91,40.88L135.7,40.39L136.5,40.39L137.29,38.16L138.08,38.66L138.88,37.42L139.67,39.4L140.46,34.46L141.26,32.73L142.05,36.19L142.85,38.66L143.64,36.19L144.43,38.66L145.23,33.22L146.02,31.24L146.81,25.31L147.61,34.7L148.4,29.51L149.19,32.97L149.99,30.99L150.78,25.31L151.58,28.77L152.37,33.22L153.16,21.85L153.96,26.55L154.75,22.84L155.54,28.03L156.34,22.1L157.13,21.35L157.92,26.79L159.51,34.46L160.3,26.55L161.1,25.31L161.89,27.78L163.48,30.01L164.27,23.33L165.86,32.97L166.65,30.01L167.45,30.01L168.24,31.98L169.03,31.24L169.83,26.55L170.62,29.26L171.41,27.29L172.21,21.85L173,25.31L173.8,26.79L174.59,35.2L175.38,28.03L176.18,32.97L177.76,23.58L178.56,27.04L180.14,35.94L180.94,34.46L182.53,22.59L183.32,31.74L184.91,19.62L185.7,22.84L186.49,29.76L187.29,24.07L188.08,24.32L188.87,22.1L189.67,30.25L190.46,23.33L191.25,26.55L192.05,24.82L192.84,31.98L193.64,26.79L194.43,20.61L195.22,24.07L196.81,22.1L197.6,26.05L198.4,27.53L199.19,21.6L199.98,25.06L200.78,21.85L201.57,28.52L202.36,22.84L203.16,32.48L203.95,25.06L204.75,26.05L205.54,24.82L206.33,31.49L207.13,24.82L208.71,29.26L209.51,26.79L210.3,31.24L211.09,19.87L212.68,29.26L213.47,28.28L214.27,33.22L215.06,24.57L215.86,23.33L216.65,32.97L218.24,28.52L219.03,27.04L220.62,28.52L221.41,39.4L223,29.02L223.79,31.24L224.59,25.06L225.38,33.96L226.17,37.42L226.97,23.58L227.76,35.44L228.55,31.74L229.35,23.08L230.14,30.01L230.93,35.2L231.73,34.7L232.52,29.51L233.31,31.98L234.11,25.56L234.9,26.55L235.7,30.01L236.49,24.57L237.28,30.99L238.08,28.28L238.87,28.77L239.66,22.34L242.04,25.56L242.84,22.84L244.42,22.59L245.22,35.2L246.01,38.41L246.81,32.48L248.39,18.64L249.19,39.15L249.98,27.04L250.77,26.79L252.36,22.1L253.15,21.85L253.95,34.21L254.74,26.3L256.33,25.8L257.12,27.78L257.92,27.78L258.71,34.46L259.5,16.91L260.3,37.17L261.09,25.8L261.88,27.53L262.68,35.69L263.47,33.47L264.26,22.59L265.06,29.76L266.65,35.69L267.44,28.03L268.23,24.07L269.03,27.53L269.82,26.3L270.61,33.71L272.2,26.3L272.99,29.26L273.79,28.52L274.58,32.97L276.17,32.23L276.96,30.5L277.76,31.74L278.55,23.58L279.34,36.43L280.14,23.08L280.93,28.52L281.72,27.53L282.52,34.95L283.31,28.28L284.9,37.42L285.69,30.99L288.07,26.05L288.87,23.08L289.66,29.02L290.45,22.1L291.25,31.98L292.04,29.51L292.83,29.26L293.63,32.73L294.42,31.24L295.21,31.74L296.01,26.55L296.8,26.55L297.6,18.14L298.39,21.85L299.18,24.57L299.98,23.83L300.77,24.07L301.56,28.52L302.36,25.06L303.15,30.99L304.74,19.62L305.53,25.8L306.32,31.49L307.12,23.08L307.91,24.32L308.71,30.01L309.5,29.51L310.29,21.35L311.09,31.24L311.88,30.25L312.67,32.23L313.47,30.99L314.26,20.61L315.05,25.8L315.85,20.12L316.64,24.82L317.43,21.11L318.23,23.58L319.82,30.01L320.61,21.11L321.4,25.31L322.2,24.82L322.99,28.28L323.78,20.12L324.58,24.82L325.37,20.61L326.16,20.37L326.96,30.75L327.75,22.1L328.55,30.99L330.13,24.82L330.93,24.82L331.72,23.83L332.51,32.73L333.31,26.3L334.1,30.99L335.69,24.82L336.48,23.33L338.07,31.24L338.86,29.02L339.66,25.56L340.45,16.91L342.04,33.47L342.83,19.62L343.62,32.97L344.42,28.77L345.21,28.03L346,25.06L346.8,38.16L347.59,21.6L348.38,31.98L349.18,18.88L350.77,35.69L351.56,26.3L352.35,20.12L353.15,25.56L353.94,12.95L354.73,29.51L355.53,34.95L356.32,16.41L357.11,26.55L357.91,16.91L358.7,24.07L359.49,18.39L360.29,28.52L361.08,23.83L361.88,20.37L362.67,32.48L363.46,28.52L364.26,33.71L365.05,28.28L365.84,28.28L366.64,31.98L367.43,29.02L369.02,26.05L369.81,31.24L370.61,31.24L371.4,22.59L372.19,22.59L372.99,30.75L374.57,26.55L375.37,14.68L376.95,26.05L377.75,18.64L378.54,22.1L379.33,33.71L380.13,30.99L380.92,31.98L383.3,20.86L384.1,27.29L384.89,27.04L385.68,29.02L386.48,25.06L387.27,31.98L388.06,36.19L388.86,30.99L389.65,16.66L390.44,23.58L391.24,24.57L392.03,20.61L392.83,31.74L393.62,23.33L394.41,22.84L395.21,40.64L396,32.48L396,108.86L394.41,112.81L393.62,118.99L392.83,108.37L392.03,111.58L391.24,118.75L390.44,114.79L389.65,112.81L388.86,118.01L388.06,107.87L387.27,108.37L386.48,106.39L385.68,115.04L384.89,115.29L384.1,114.3L383.3,112.57L382.51,113.31L381.72,116.52L380.92,113.56L379.33,108.37L378.54,109.35L377.75,107.38L376.95,115.53L376.16,112.57L375.37,100.46L374.57,119.74L373.78,105.65L372.99,98.23L372.19,113.8L371.4,103.92L370.61,104.41L369.81,96.5L369.02,108.12L368.22,98.23L367.43,101.2L366.64,93.78L365.84,106.88L365.05,92.79L364.26,95.02L362.67,97.24L361.88,95.51L361.08,104.66L360.29,94.77L359.49,110.59L358.7,101.2L357.91,94.03L357.11,107.38L356.32,99.47L355.53,107.87L354.73,105.89L353.94,97.98L353.15,106.88L352.35,99.22L349.97,113.31L349.18,104.16L348.38,104.9L347.59,117.26L346.8,102.68L346,117.51L345.21,116.52L344.42,109.85L343.62,112.07L342.83,100.21L342.04,93.29L341.24,99.96L340.45,109.11L339.66,103.92L338.86,118.25L338.07,103.42L337.27,99.71L336.48,99.71L334.89,110.34L334.1,96.99L333.31,100.21L332.51,99.71L331.72,103.42L330.93,93.53L330.13,107.62L329.34,97.74L328.55,104.66L327.75,104.41L326.96,105.4L326.16,92.3L325.37,92.55L324.58,105.15L323.78,107.13L322.99,115.78L322.2,119.98L321.4,105.15L320.61,100.95L319.82,90.81L319.02,111.33L318.23,98.23L317.43,115.04L316.64,104.9L315.85,110.59L315.05,87.11L314.26,111.08L313.47,102.43L312.67,104.9L311.88,91.31L311.09,117.26L310.29,111.58L309.5,107.13L308.71,92.79L307.91,98.48L307.12,97.24L306.32,95.76L305.53,85.87L304.74,94.52L303.94,91.56L303.15,91.8L302.36,98.23L301.56,89.08L300.77,93.53L299.98,80.68L299.18,85.62L298.39,94.28L297.6,90.07L296.8,100.46L296.01,92.05L295.21,88.34L294.42,79.2L292.83,101.2L292.04,83.65L291.25,106.88L290.45,91.56L289.66,81.17L288.87,81.42L288.07,87.85L287.28,78.46L286.48,96.25L285.69,82.9L284.9,75.24L284.1,89.83L283.31,95.02L282.52,90.07L281.72,96.75L280.93,83.15L280.14,84.88L279.34,79.44L277.76,87.35L276.96,88.1L276.17,93.53L275.37,116.03L274.58,121.47L273.79,97.74L272.99,95.02L272.2,102.93L270.61,80.43L269.82,82.9L269.03,87.6L268.23,103.92L267.44,75.98L266.65,90.07L265.85,76.72L265.06,79.44L264.26,101.44L263.47,85.62L262.68,89.33L261.88,78.21L261.09,94.52L260.3,80.43L259.5,74.25L258.71,83.15L257.92,82.66L257.12,87.85L255.54,97.98L254.74,93.78L253.95,89.58L253.15,78.7L252.36,81.17L251.57,102.93L250.77,81.92L249.98,118.5L249.19,95.76L248.39,107.62L246.81,86.12L246.01,82.16L245.22,80.68L244.42,87.35L242.84,79.69L242.04,88.1L241.25,96.75L240.46,92.79L239.66,101.44L238.87,89.08L237.28,103.17L236.49,81.67L235.7,90.57L234.9,112.32L233.31,99.71L232.52,122.7L231.73,108.86L230.93,125.17L230.14,124.68L229.35,118.01L228.55,108.61L227.76,133.83L226.97,137.78L226.17,129.62L225.38,128.88L224.59,112.57L223.79,124.68L223,120.72L222.2,126.41L221.41,122.21L219.82,114.3L219.03,119.24L218.24,113.06L217.44,115.29L216.65,110.59L215.86,117.26L215.06,111.33L214.27,118.5L213.47,118.75L212.68,113.8L211.89,114.79L211.09,120.72L210.3,123.94L209.51,120.23L208.71,128.39L207.92,122.46L206.33,115.29L205.54,129.13L203.95,107.62L203.16,118.5L201.57,123.94L200.78,127.4L199.19,111.08L198.4,110.1L197.6,114.79L196.81,102.19L196.02,113.8L195.22,110.34L194.43,113.31L193.64,107.87L192.05,121.96L191.25,117.26L189.67,122.46L188.87,120.48L186.49,130.37L185.7,130.61L184.91,124.19L184.11,132.34L183.32,114.55L182.53,131.35L181.73,115.53L180.94,130.86L179.35,121.22L178.56,99.96L177.76,113.8L176.97,113.31L176.18,94.77L175.38,120.23L173.8,99.96L173,109.35L172.21,99.22L171.41,100.46L170.62,110.84L169.83,97.49L169.03,98.48L168.24,118.25L165.86,86.86L165.07,92.55L164.27,90.57L163.48,103.17L162.69,110.84L161.89,105.15L161.1,97.24L160.3,104.16L159.51,106.14L158.72,94.28L157.92,103.92L157.13,97.74L156.34,95.26L155.54,104.66L154.75,107.87L153.96,103.92L153.16,108.12L152.37,118.99L150.78,90.32L149.99,104.66L149.19,104.66L148.4,102.19L147.61,99.22L146.81,111.08L146.02,112.07L145.23,114.3L144.43,115.29L143.64,113.06L142.85,115.53L142.05,97.24L141.26,102.68L140.46,99.22L139.67,107.87L138.88,99.71L137.29,106.63L136.5,98.23L135.7,102.43L134.91,95.76L132.53,114.55L131.74,108.61L130.15,99.96L129.35,104.9L128.56,109.6L127.77,120.23L126.97,120.48L126.18,111.58L125.39,127.89L124.59,120.23L123.8,137.04L123.01,129.13L122.21,126.16L121.42,140.99L119.83,123.2L119.04,123.44L118.24,126.41L117.45,125.67L115.86,121.47L115.07,125.67L113.48,136.79L112.69,134.32L111.9,124.93L111.1,124.43L110.31,127.15L109.52,125.92L107.93,126.41L107.13,134.32L106.34,130.37L105.55,131.11L104.75,138.03L103.96,127.15L102.37,139.02L101.58,139.26L99.99,129.13L99.2,135.06L97.61,129.62L96.82,146.19L96.02,144.95L95.23,130.37L94.44,154.84L93.64,153.11L92.06,164.23L91.26,177.33L90.47,170.16L89.68,175.35L88.09,191.92L87.29,203.04L86.5,176.34L85.71,189.69L84.12,175.6L83.33,176.34L82.53,186.23L81.74,183.02L80.95,175.85L80.15,187.47L79.36,192.9L78.57,172.63L76.18,188.45L75.39,175.85L73.8,183.02L73.01,194.39L72.22,186.97L71.42,196.61L69.84,190.19L69.04,203.78L68.25,196.86L67.45,199.58L65.87,207.49L65.07,219.6L64.28,203.29L63.49,209.22L62.69,220.1L61.9,212.93L60.31,230.23L59.52,220.34L58.73,225.53L57.93,225.29L57.14,228.99L56.34,227.76L55.55,232.7L54.76,222.07L53.96,233.69L53.17,227.26L52.38,231.71L51.58,227.51L50.79,238.39L50,234.43L49.2,231.22L48.41,231.22L46.82,236.16L46.03,234.93L44.44,241.35L43.65,241.11L42.85,238.39L42.06,238.63L41.27,235.42L40.47,242.84L39.68,239.62L38.89,243.08L38.09,241.6L37.3,243.33L36.51,242.59L35.71,243.33L33.33,242.59L32.54,243.08L31.74,243.83L30.95,243.08L29.36,242.59L28.57,244.07L27.78,243.33L26.98,243.83L22.22,243.83L21.43,244.57L20.63,243.58L19.84,244.07L0.79,244.07L0,244.81" style="vector-effect: non-scaling-stroke; fill: none; stroke: rgb(0, 0, 0); stroke-opacity: 0; stroke-width: 2px; opacity: 1;"/></g><g class="points"/><g class="text"/></g><g class="trace scatter trace15a2e6" style="stroke-miterlimit: 2; opacity: 1;"><g class="fills"/><g class="errorbars"/><g class="lines"><path class="js-line" d="M0,246.05L0.79,243.58L1.59,246.05L5.56,246.05L6.35,241.11L7.14,246.05L7.94,243.58L10.32,243.58L11.11,241.11L11.9,241.11L12.7,246.05L13.49,243.58L14.28,246.05L15.08,243.58L15.87,246.05L18.25,246.05L19.05,243.58L19.84,246.05L20.63,243.58L21.43,246.05L22.22,246.05L23.81,246.05L24.6,243.58L25.39,243.58L26.19,246.05L26.98,243.58L27.78,243.58L30.16,243.58L30.95,241.11L31.74,246.05L32.54,243.58L33.33,246.05L34.12,246.05L34.92,243.58L35.71,243.58L36.51,236.16L37.3,246.05L38.09,246.05L38.89,241.11L40.47,246.05L41.27,243.58L42.06,241.11L42.85,243.58L43.65,246.05L44.44,241.11L45.23,241.11L46.03,243.58L46.82,246.05L47.62,246.05L49.2,246.05L50,241.11L50.79,243.58L51.58,243.58L52.38,236.16L53.17,241.11L54.76,246.05L55.55,236.16L57.14,243.58L57.93,238.63L58.73,238.63L59.52,241.11L60.31,238.63L61.11,238.63L61.9,218.86L62.69,236.16L63.49,223.8L64.28,233.69L65.87,221.33L66.66,221.33L67.45,199.08L68.25,221.33L69.04,221.33L69.84,223.8L70.63,204.03L71.42,211.44L72.22,223.8L73.01,221.33L74.6,201.56L75.39,223.8L76.98,211.44L77.77,186.72L79.36,228.75L80.15,208.97L80.95,228.75L81.74,201.56L82.53,176.84L83.33,206.5L84.91,186.72L85.71,204.03L86.5,211.44L87.29,189.2L88.09,162.01L88.88,201.56L89.68,201.56L90.47,206.5L91.26,159.53L92.06,196.61L93.64,164.48L94.44,184.25L95.23,189.2L96.02,204.03L96.82,204.03L97.61,179.31L98.4,174.36L99.2,201.56L99.99,176.84L100.79,206.5L102.37,176.84L103.17,191.67L103.96,201.56L104.75,189.2L105.55,186.72L106.34,191.67L107.93,179.31L108.72,181.78L109.52,179.31L110.31,194.14L111.9,164.48L112.69,211.44L113.48,196.61L114.28,159.53L115.07,191.67L115.86,174.36L116.66,189.2L117.45,154.59L118.24,181.78L119.04,164.48L119.83,189.2L120.63,142.23L121.42,204.03L122.21,184.25L123.01,179.31L123.8,179.31L125.39,166.95L126.18,176.84L126.97,166.95L127.77,176.84L129.35,194.14L130.15,174.36L130.94,179.31L131.74,176.84L132.53,154.59L133.32,179.31L134.12,201.56L134.91,159.53L135.7,142.23L136.5,162.01L137.29,162.01L138.08,157.06L138.88,147.17L139.67,154.59L140.46,162.01L141.26,147.17L142.05,152.12L142.85,184.25L143.64,152.12L144.43,162.01L145.23,159.53L146.02,164.48L147.61,129.87L148.4,169.42L149.99,149.65L150.78,142.23L151.58,174.36L152.37,149.65L153.16,139.76L153.96,139.76L155.54,169.42L156.34,117.51L157.92,157.06L158.72,127.4L159.51,129.87L160.3,139.76L161.1,174.36L161.89,144.7L162.69,159.53L163.48,139.76L165.07,157.06L165.86,154.59L166.65,154.59L167.45,179.31L169.83,137.29L170.62,147.17L171.41,164.48L172.21,119.98L173,137.29L173.8,117.51L174.59,157.06L175.38,157.06L176.18,162.01L176.97,149.65L177.76,137.29L178.56,166.95L180.14,142.23L180.94,139.76L181.73,132.34L182.53,117.51L184.11,152.12L184.91,124.93L185.7,119.98L186.49,179.31L188.08,147.17L188.87,157.06L189.67,122.46L190.46,144.7L191.25,171.89L192.05,144.7L192.84,142.23L193.64,152.12L194.43,134.81L195.22,169.42L196.02,142.23L196.81,162.01L197.6,147.17L198.4,174.36L199.19,139.76L199.98,162.01L200.78,162.01L201.57,169.42L202.36,171.89L203.16,162.01L203.95,169.42L204.75,157.06L205.54,147.17L206.33,147.17L207.13,85.38L207.92,119.98L208.71,119.98L209.51,179.31L210.3,127.4L211.09,179.31L211.89,137.29L212.68,152.12L213.47,127.4L214.27,134.81L215.06,144.7L215.86,134.81L216.65,159.53L217.44,149.65L218.24,127.4L219.03,147.17L219.82,112.57L220.62,129.87L222.2,124.93L223,137.29L223.79,97.74L224.59,117.51L225.38,152.12L226.17,112.57L226.97,147.17L227.76,137.29L228.55,147.17L229.35,134.81L230.14,144.7L230.93,132.34L231.73,171.89L232.52,127.4L233.31,144.7L234.11,122.46L234.9,137.29L235.7,110.1L236.49,134.81L237.28,117.51L238.08,90.32L238.87,137.29L239.66,139.76L240.46,157.06L241.25,149.65L242.04,134.81L243.63,107.62L244.42,134.81L245.22,122.46L246.01,147.17L247.6,166.95L248.39,127.4L249.19,132.34L249.98,124.93L250.77,132.34L251.57,162.01L253.15,97.74L253.95,144.7L254.74,102.68L255.54,134.81L256.33,147.17L257.12,171.89L258.71,134.81L259.5,139.76L260.3,137.29L261.09,157.06L261.88,137.29L262.68,154.59L263.47,137.29L264.26,152.12L265.06,117.51L265.85,117.51L267.44,157.06L268.23,134.81L269.03,137.29L269.82,134.81L270.61,139.76L271.41,127.4L272.99,157.06L273.79,139.76L274.58,107.62L275.37,117.51L276.17,144.7L276.96,144.7L277.76,119.98L278.55,139.76L279.34,137.29L280.14,127.4L280.93,110.1L281.72,159.53L283.31,107.62L284.1,162.01L284.9,134.81L285.69,134.81L287.28,157.06L288.07,115.04L288.87,137.29L289.66,115.04L290.45,110.1L291.25,119.98L292.04,137.29L292.83,134.81L293.63,137.29L294.42,152.12L295.21,152.12L296.01,169.42L298.39,119.98L299.18,110.1L299.98,124.93L300.77,119.98L302.36,159.53L303.15,115.04L303.94,142.23L304.74,85.38L306.32,147.17L307.12,107.62L307.91,115.04L308.71,139.76L309.5,137.29L310.29,122.46L311.09,85.38L311.88,124.93L313.47,142.23L314.26,159.53L315.05,149.65L315.85,149.65L316.64,127.4L317.43,127.4L318.23,107.62L319.02,142.23L320.61,122.46L321.4,117.51L322.2,162.01L322.99,127.4L323.78,117.51L324.58,124.93L325.37,119.98L326.16,110.1L326.96,152.12L327.75,134.81L328.55,119.98L329.34,129.87L330.13,139.76L330.93,127.4L332.51,110.1L333.31,110.1L334.1,107.62L334.89,124.93L335.69,107.62L336.48,112.57L337.27,119.98L338.07,166.95L338.86,129.87L339.66,132.34L340.45,115.04L341.24,134.81L342.83,92.79L343.62,117.51L345.21,134.81L346,134.81L346.8,105.15L347.59,157.06L349.18,100.21L349.97,147.17L350.77,147.17L351.56,149.65L352.35,144.7L353.15,179.31L353.94,117.51L354.73,171.89L355.53,119.98L356.32,124.93L357.11,142.23L357.91,75.49L359.49,139.76L360.29,107.62L361.08,137.29L361.88,132.34L362.67,181.78L363.46,127.4L364.26,127.4L365.05,90.32L365.84,129.87L366.64,107.62L367.43,122.46L368.22,119.98L369.02,137.29L369.81,122.46L370.61,100.21L371.4,139.76L372.99,159.53L373.78,132.34L375.37,142.23L376.16,115.04L376.95,115.04L377.75,129.87L378.54,119.98L379.33,157.06L380.13,115.04L380.92,127.4L381.72,129.87L382.51,154.59L385.68,117.51L386.48,147.17L388.06,117.51L388.86,134.81L389.65,110.1L390.44,122.46L391.24,122.46L392.03,159.53L393.62,119.98L394.41,97.74L395.21,147.17L396,132.34" style="vector-effect: non-scaling-stroke; fill: none; stroke: rgb(0, 204, 150); stroke-opacity: 1; stroke-width: 2px; opacity: 1;"/></g><g class="points"/><g class="text"/></g><g class="trace scatter trace527d69" style="stroke-miterlimit: 2; opacity: 1;"><g class="fills"><g><path class="js-fill" d="M0,246.05L0.79,241.11L1.59,246.05L2.38,246.05L3.17,243.58L4.76,246.05L5.56,244.81L6.35,239.87L7.14,243.58L8.73,239.87L9.52,241.11L10.32,236.16L11.11,238.63L11.9,239.87L12.7,244.81L13.49,241.11L14.28,244.81L15.08,241.11L15.87,244.81L17.46,243.58L18.25,244.81L19.05,239.87L19.84,244.81L20.63,239.87L21.43,243.58L23.01,244.81L23.81,244.81L24.6,237.4L25.39,237.4L26.19,243.58L26.98,239.87L27.78,223.8L28.57,234.93L29.36,241.11L30.16,239.87L30.95,228.75L31.74,238.63L32.54,234.93L33.33,244.81L34.12,244.81L34.92,223.8L36.51,225.04L37.3,231.22L38.09,242.34L38.89,226.27L40.47,242.34L41.27,223.8L42.85,241.11L43.65,231.22L44.44,220.1L45.23,236.16L46.82,233.69L47.62,242.34L48.41,243.58L49.2,229.98L50,206.5L50.79,237.4L52.38,222.57L53.17,228.75L53.96,231.22L54.76,226.27L55.55,227.51L56.34,216.39L57.14,236.16L57.93,229.98L59.52,232.45L60.31,210.21L61.11,227.51L61.9,206.5L62.69,195.38L63.49,213.92L64.28,211.44L65.07,221.33L67.45,171.89L68.25,199.08L69.84,216.39L70.63,169.42L72.22,220.1L73.01,204.03L74.6,183.02L75.39,212.68L76.18,185.49L76.98,185.49L77.77,153.35L78.57,212.68L80.15,184.25L80.95,211.44L82.53,169.42L83.33,179.31L84.12,176.84L84.91,170.66L85.71,187.96L86.5,187.96L88.09,137.29L88.88,199.08L89.68,169.42L90.47,175.6L91.26,154.59L92.06,186.72L93.64,145.94L94.44,158.3L95.23,186.72L96.02,180.54L96.82,185.49L97.61,155.83L98.4,157.06L99.2,189.2L99.99,170.66L100.79,194.14L101.58,178.07L102.37,139.76L103.17,180.54L103.96,175.6L104.75,181.78L105.55,171.89L106.34,168.19L107.13,154.59L107.93,159.53L108.72,147.17L109.52,147.17L110.31,175.6L111.1,132.34L111.9,150.88L112.69,181.78L113.48,180.54L114.28,150.88L115.07,169.42L115.86,111.33L116.66,154.59L117.45,124.93L118.24,171.89L119.04,132.34L119.83,139.76L120.63,115.04L121.42,159.53L123.01,176.84L123.8,153.35L124.59,143.47L125.39,123.69L126.18,155.83L126.97,127.4L127.77,175.6L128.56,164.48L129.35,187.96L130.15,147.17L130.94,166.95L131.74,148.41L132.53,144.7L133.32,162.01L134.12,176.84L134.91,147.17L135.7,123.69L136.5,122.46L137.29,122.46L138.08,121.22L138.88,111.33L139.67,126.16L140.46,145.94L141.26,101.44L142.85,168.19L143.64,123.69L144.43,118.75L145.23,144.7L146.02,137.29L146.81,102.68L147.61,89.08L148.4,158.3L149.19,124.93L149.99,140.99L150.78,117.51L151.58,150.88L153.16,121.22L153.96,122.46L154.75,118.75L155.54,140.99L156.34,102.68L157.13,116.28L157.92,149.65L158.72,105.15L159.51,112.57L160.3,128.63L161.1,164.48L161.89,121.22L162.69,132.34L163.48,105.15L164.27,131.11L165.07,131.11L165.86,121.22L166.65,133.58L167.45,157.06L168.24,144.7L169.03,134.81L169.83,97.74L170.62,119.98L171.41,116.28L172.21,75.49L173,82.9L173.8,91.56L174.59,127.4L176.18,131.11L176.97,131.11L177.76,116.28L178.56,152.12L180.14,89.08L180.94,101.44L181.73,111.33L182.53,92.79L183.32,84.14L184.11,126.16L185.7,87.85L186.49,123.69L187.29,127.4L188.08,103.92L188.87,100.21L189.67,107.62L191.25,138.52L192.05,91.56L192.84,92.79L193.64,115.04L194.43,121.22L195.22,144.7L196.02,110.1L196.81,144.7L197.6,129.87L198.4,143.47L199.19,119.98L199.98,129.87L200.78,127.4L201.57,149.65L203.16,123.69L203.95,143.47L205.54,97.74L206.33,117.51L207.92,61.89L208.71,95.26L209.51,159.53L210.3,85.38L211.09,153.35L211.89,97.74L212.68,126.16L213.47,73.02L215.06,117.51L215.86,81.67L216.65,126.16L217.44,97.74L218.24,101.44L219.03,115.04L220.62,73.02L221.41,79.2L222.2,80.43L223,113.8L223.79,66.84L224.59,85.38L225.38,110.1L226.17,61.89L226.97,103.92L227.76,97.74L228.55,103.92L229.35,95.26L230.14,106.39L230.93,76.72L231.73,136.05L232.52,98.97L233.31,113.8L234.11,106.39L235.7,48.3L236.49,66.84L237.28,80.43L238.08,53.24L239.66,111.33L240.46,112.57L241.25,124.93L242.04,89.08L243.63,55.71L244.42,70.55L246.01,100.21L246.81,131.11L247.6,139.76L248.39,80.43L249.19,107.62L249.98,56.95L250.77,58.19L251.57,139.76L253.15,55.71L253.95,92.79L254.74,82.9L255.54,102.68L257.12,128.63L257.92,95.26L258.71,81.67L259.5,96.5L261.09,123.69L261.88,111.33L263.47,92.79L264.26,117.51L265.85,61.89L266.65,84.14L267.44,145.94L268.23,80.43L270.61,128.63L271.41,97.74L272.2,126.16L272.99,106.39L273.79,103.92L274.58,50.77L276.17,129.87L276.96,97.74L277.76,81.67L278.55,106.39L279.34,110.1L280.14,75.49L280.93,73.02L281.72,143.47L283.31,68.07L284.1,126.16L284.9,101.44L285.69,110.1L287.28,140.99L288.07,106.39L288.87,124.93L289.66,90.32L290.45,66.84L291.25,71.78L292.83,115.04L293.63,95.26L294.42,105.15L295.21,136.05L296.01,149.65L296.8,110.1L297.6,97.74L298.39,61.89L299.18,60.66L299.98,84.14L300.77,84.14L301.56,108.86L302.36,119.98L303.15,80.43L303.94,108.86L304.74,47.06L305.53,61.89L306.32,124.93L307.91,61.89L308.71,98.97L310.29,90.32L311.09,45.83L311.88,94.03L312.67,94.03L313.47,103.92L314.26,129.87L315.05,118.75L315.85,118.75L316.64,77.96L317.43,85.38L318.23,47.06L319.02,121.22L319.82,121.22L320.61,68.07L321.4,89.08L322.2,136.05L322.99,117.51L323.78,74.25L324.58,107.62L325.37,59.42L326.16,81.67L326.96,140.99L328.55,75.49L329.34,79.2L330.13,94.03L330.93,74.25L331.72,76.72L332.51,71.78L333.31,89.08L334.1,73.02L334.89,77.96L335.69,74.25L336.48,55.71L337.27,59.42L338.07,133.58L338.86,95.26L339.66,110.1L340.45,85.38L341.24,85.38L342.04,97.74L342.83,81.67L343.62,116.28L345.21,98.97L346,102.68L346.8,61.89L347.59,148.41L348.38,66.84L349.18,61.89L350.77,132.34L351.56,112.57L352.35,115.04L353.15,149.65L353.94,101.44L354.73,133.58L355.53,79.2L356.32,86.61L357.11,111.33L357.91,55.71L358.7,106.39L359.49,105.15L360.29,84.14L361.08,122.46L361.88,113.8L362.67,154.59L363.46,106.39L364.26,111.33L365.05,53.24L365.84,94.03L366.64,74.25L367.43,79.2L368.22,77.96L369.02,118.75L370.61,76.72L371.4,102.68L372.19,105.15L372.99,136.05L374.57,96.5L375.37,113.8L376.95,45.83L377.75,92.79L378.54,94.03L379.33,119.98L380.92,87.85L381.72,117.51L382.51,116.28L383.3,102.68L384.1,111.33L384.89,108.86L385.68,71.78L386.48,126.16L388.06,85.38L388.86,124.93L389.65,95.26L390.44,110.1L391.24,96.5L392.03,129.87L393.62,84.14L394.41,70.55L395.21,129.87L396,103.92L396,155.83L395.21,162.01L394.41,133.58L393.62,160.77L392.83,183.02L392.03,176.84L391.24,140.99L390.44,144.7L389.65,139.76L388.86,148.41L388.06,150.88L387.27,162.01L386.48,166.95L385.68,147.17L384.89,134.81L384.1,152.12L383.3,168.19L382.51,163.24L381.72,145.94L380.92,169.42L380.13,138.52L379.33,191.67L378.54,140.99L377.75,160.77L376.95,186.72L376.16,149.65L375.37,149.65L374.57,180.54L373.78,154.59L372.99,174.36L372.19,185.49L371.4,164.48L370.61,139.76L369.81,138.52L368.22,166.95L367.43,163.24L366.64,145.94L365.84,164.48L365.05,129.87L364.26,136.05L362.67,186.72L361.88,145.94L361.08,152.12L360.29,137.29L359.49,184.25L358.7,143.47L357.91,102.68L357.11,175.6L356.32,170.66L355.53,147.17L354.73,181.78L353.94,140.99L353.15,191.67L352.35,157.06L351.56,162.01L350.77,159.53L349.97,171.89L349.18,132.34L348.38,173.13L347.59,168.19L346.8,144.7L346,164.48L344.42,155.83L343.62,132.34L342.83,122.46L342.04,148.41L341.24,178.07L340.45,144.7L339.66,166.95L338.86,160.77L338.07,174.36L337.27,173.13L336.48,173.13L335.69,149.65L334.89,174.36L334.1,139.76L333.31,137.29L332.51,152.12L330.93,173.13L330.13,171.89L329.34,179.31L328.55,148.41L327.75,169.42L326.96,152.12L326.16,140.99L325.37,183.02L324.58,139.76L323.78,163.24L322.99,142.23L322.2,183.02L321.4,149.65L320.61,165.71L319.82,149.65L319.02,157.06L318.23,175.6L317.43,155.83L316.64,171.89L315.85,171.89L315.05,168.19L314.26,170.66L313.47,173.13L312.67,164.48L311.88,160.77L311.09,133.58L309.5,162.01L308.71,158.3L307.91,175.6L307.12,144.7L305.53,178.07L304.74,132.34L303.94,175.6L303.15,149.65L302.36,181.78L301.56,165.71L300.77,152.12L299.98,165.71L297.6,152.12L296.8,159.53L296.01,184.25L295.21,166.95L293.63,176.84L292.83,158.3L292.04,174.36L291.25,169.42L289.66,139.76L288.87,154.59L288.07,145.94L287.28,173.13L286.48,169.42L285.69,162.01L284.9,152.12L284.1,171.89L283.31,142.23L282.52,164.48L281.72,169.42L280.93,143.47L280.14,178.07L279.34,164.48L278.55,166.95L277.76,163.24L276.96,178.07L276.17,166.95L275.37,129.87L274.58,165.71L273.79,171.89L272.99,190.43L271.41,157.06L270.61,163.24L269.82,159.53L269.03,174.36L268.23,192.9L267.44,165.71L266.65,168.19L265.85,175.6L264.26,168.19L263.47,186.72L262.68,202.79L261.88,155.83L261.09,185.49L260.3,162.01L258.71,180.54L257.92,174.36L257.12,200.32L256.33,170.66L254.74,134.81L253.95,187.96L253.15,142.23L252.36,184.25L251.57,174.36L250.77,197.85L249.98,191.67L249.19,153.35L247.6,179.31L246.81,173.13L246.01,169.42L245.22,157.06L244.42,201.56L243.63,160.77L242.04,174.36L241.25,162.01L240.46,173.13L239.66,168.19L238.87,178.07L238.08,133.58L237.28,150.88L236.49,187.96L235.7,170.66L234.9,202.79L234.11,147.17L233.31,160.77L232.52,150.88L231.73,194.14L230.93,190.43L230.14,169.42L229.35,153.35L228.55,169.42L227.76,173.13L226.97,171.89L226.17,163.24L225.38,178.07L224.59,127.4L223.79,127.4L222.2,166.95L221.41,171.89L220.62,184.25L219.82,128.63L219.03,162.01L218.24,154.59L217.44,187.96L216.65,181.78L215.86,179.31L215.06,170.66L214.27,152.12L213.47,184.25L211.89,163.24L211.09,191.67L210.3,164.48L209.51,183.02L208.71,144.7L207.92,163.24L207.13,124.93L206.33,159.53L205.54,183.02L204.75,183.02L203.95,189.2L203.16,185.49L202.36,186.72L201.57,178.07L200.78,185.49L199.98,165.71L199.19,170.66L198.4,185.49L197.6,168.19L196.81,168.19L196.02,157.06L195.22,180.54L194.43,149.65L193.64,173.13L192.84,173.13L192.05,192.9L191.25,189.2L190.46,148.41L189.67,148.41L188.87,191.67L188.08,176.84L187.29,179.31L186.49,206.5L185.7,149.65L184.91,129.87L184.11,160.77L183.32,178.07L182.53,150.88L181.73,152.12L180.94,168.19L180.14,183.02L179.35,162.01L178.56,174.36L177.76,160.77L174.59,184.25L173.8,150.88L173,183.02L172.21,164.48L171.41,197.85L170.62,179.31L169.03,153.35L168.24,173.13L167.45,184.25L166.65,162.01L165.86,187.96L165.07,166.95L164.27,153.35L163.48,164.48L162.69,173.13L161.89,163.24L161.1,181.78L160.3,147.17L159.51,163.24L158.72,153.35L157.92,169.42L157.13,164.48L156.34,147.17L155.54,180.54L154.75,201.56L153.96,152.12L153.16,147.17L152.37,174.36L151.58,185.49L150.78,180.54L149.99,162.01L149.19,173.13L148.4,175.6L147.61,165.71L146.81,166.95L146.02,176.84L145.23,165.71L144.43,202.79L143.64,171.89L142.85,195.38L141.26,176.84L140.46,181.78L139.67,189.2L138.88,181.78L138.08,189.2L137.29,189.2L136.5,199.08L135.7,171.89L134.91,166.95L134.12,210.21L132.53,175.6L131.74,197.85L130.15,186.72L129.35,196.61L128.56,200.32L127.77,181.78L126.97,208.97L126.18,194.14L125.39,205.26L124.59,171.89L123.8,202.79L123.01,195.38L121.42,217.62L120.63,168.19L119.83,205.26L119.04,192.9L118.24,197.85L117.45,183.02L116.66,196.61L115.86,223.8L114.28,166.95L113.48,202.79L112.69,216.39L111.9,184.25L111.1,207.74L110.31,205.26L109.52,191.67L108.72,210.21L107.93,196.61L107.13,210.21L104.75,197.85L103.96,210.21L103.17,195.38L102.37,216.39L101.58,205.26L100.79,213.92L99.99,181.78L99.2,216.39L97.61,187.96L96.82,221.33L96.02,218.86L95.23,191.67L94.44,199.08L93.64,179.31L92.06,201.56L91.26,170.66L90.47,222.57L89.68,211.44L88.88,208.97L88.09,197.85L87.29,194.14L86.5,217.62L84.91,201.56L84.12,211.44L83.33,234.93L82.53,187.96L80.95,236.16L80.15,225.04L79.36,233.69L78.57,232.45L77.77,217.62L76.98,217.62L76.18,222.57L75.39,233.69L74.6,220.1L73.8,229.98L73.01,225.04L72.22,226.27L70.63,218.86L69.84,227.51L68.25,231.22L67.45,218.86L65.87,238.63L65.07,238.63L64.28,238.63L63.49,231.22L62.69,238.63L61.9,231.22L61.11,242.34L60.31,242.34L58.73,242.34L57.93,241.11L57.14,246.05L56.34,246.05L55.55,241.11L54.76,246.05L53.96,246.05L53.17,242.34L52.38,238.63L51.58,246.05L50.79,246.05L50,241.11L49.2,246.05L48.41,246.05L46.03,246.05L45.23,242.34L44.44,242.34L43.65,246.05L39.68,246.05L38.89,241.11L38.09,246.05L37.3,246.05L31.74,246.05L30.95,242.34L30.16,246.05L29.36,246.05L12.7,246.05L11.9,242.34L11.11,242.34L10.32,246.05L7.14,246.05L6.35,241.11L5.56,246.05L4.76,246.05L0,246.05Z" style="fill: rgb(0, 204, 150); fill-opacity: 0.3; stroke-width: 0;"/></g></g><g class="errorbars"/><g class="lines"><path class="js-line" d="M0,246.05L0.79,241.11L1.59,246.05L2.38,246.05L3.17,243.58L4.76,246.05L5.56,244.81L6.35,239.87L7.14,243.58L8.73,239.87L9.52,241.11L10.32,236.16L11.11,238.63L11.9,239.87L12.7,244.81L13.49,241.11L14.28,244.81L15.08,241.11L15.87,244.81L17.46,243.58L18.25,244.81L19.05,239.87L19.84,244.81L20.63,239.87L21.43,243.58L23.01,244.81L23.81,244.81L24.6,237.4L25.39,237.4L26.19,243.58L26.98,239.87L27.78,223.8L28.57,234.93L29.36,241.11L30.16,239.87L30.95,228.75L31.74,238.63L32.54,234.93L33.33,244.81L34.12,244.81L34.92,223.8L36.51,225.04L37.3,231.22L38.09,242.34L38.89,226.27L40.47,242.34L41.27,223.8L42.85,241.11L43.65,231.22L44.44,220.1L45.23,236.16L46.82,233.69L47.62,242.34L48.41,243.58L49.2,229.98L50,206.5L50.79,237.4L52.38,222.57L53.17,228.75L53.96,231.22L54.76,226.27L55.55,227.51L56.34,216.39L57.14,236.16L57.93,229.98L59.52,232.45L60.31,210.21L61.11,227.51L61.9,206.5L62.69,195.38L63.49,213.92L64.28,211.44L65.07,221.33L67.45,171.89L68.25,199.08L69.84,216.39L70.63,169.42L72.22,220.1L73.01,204.03L74.6,183.02L75.39,212.68L76.18,185.49L76.98,185.49L77.77,153.35L78.57,212.68L80.15,184.25L80.95,211.44L82.53,169.42L83.33,179.31L84.12,176.84L84.91,170.66L85.71,187.96L86.5,187.96L88.09,137.29L88.88,199.08L89.68,169.42L90.47,175.6L91.26,154.59L92.06,186.72L93.64,145.94L94.44,158.3L95.23,186.72L96.02,180.54L96.82,185.49L97.61,155.83L98.4,157.06L99.2,189.2L99.99,170.66L100.79,194.14L101.58,178.07L102.37,139.76L103.17,180.54L103.96,175.6L104.75,181.78L105.55,171.89L106.34,168.19L107.13,154.59L107.93,159.53L108.72,147.17L109.52,147.17L110.31,175.6L111.1,132.34L111.9,150.88L112.69,181.78L113.48,180.54L114.28,150.88L115.07,169.42L115.86,111.33L116.66,154.59L117.45,124.93L118.24,171.89L119.04,132.34L119.83,139.76L120.63,115.04L121.42,159.53L123.01,176.84L123.8,153.35L124.59,143.47L125.39,123.69L126.18,155.83L126.97,127.4L127.77,175.6L128.56,164.48L129.35,187.96L130.15,147.17L130.94,166.95L131.74,148.41L132.53,144.7L133.32,162.01L134.12,176.84L134.91,147.17L135.7,123.69L136.5,122.46L137.29,122.46L138.08,121.22L138.88,111.33L139.67,126.16L140.46,145.94L141.26,101.44L142.85,168.19L143.64,123.69L144.43,118.75L145.23,144.7L146.02,137.29L146.81,102.68L147.61,89.08L148.4,158.3L149.19,124.93L149.99,140.99L150.78,117.51L151.58,150.88L153.16,121.22L153.96,122.46L154.75,118.75L155.54,140.99L156.34,102.68L157.13,116.28L157.92,149.65L158.72,105.15L159.51,112.57L160.3,128.63L161.1,164.48L161.89,121.22L162.69,132.34L163.48,105.15L164.27,131.11L165.07,131.11L165.86,121.22L166.65,133.58L167.45,157.06L168.24,144.7L169.03,134.81L169.83,97.74L170.62,119.98L171.41,116.28L172.21,75.49L173,82.9L173.8,91.56L174.59,127.4L176.18,131.11L176.97,131.11L177.76,116.28L178.56,152.12L180.14,89.08L180.94,101.44L181.73,111.33L182.53,92.79L183.32,84.14L184.11,126.16L185.7,87.85L186.49,123.69L187.29,127.4L188.08,103.92L188.87,100.21L189.67,107.62L191.25,138.52L192.05,91.56L192.84,92.79L193.64,115.04L194.43,121.22L195.22,144.7L196.02,110.1L196.81,144.7L197.6,129.87L198.4,143.47L199.19,119.98L199.98,129.87L200.78,127.4L201.57,149.65L203.16,123.69L203.95,143.47L205.54,97.74L206.33,117.51L207.92,61.89L208.71,95.26L209.51,159.53L210.3,85.38L211.09,153.35L211.89,97.74L212.68,126.16L213.47,73.02L215.06,117.51L215.86,81.67L216.65,126.16L217.44,97.74L218.24,101.44L219.03,115.04L220.62,73.02L221.41,79.2L222.2,80.43L223,113.8L223.79,66.84L224.59,85.38L225.38,110.1L226.17,61.89L226.97,103.92L227.76,97.74L228.55,103.92L229.35,95.26L230.14,106.39L230.93,76.72L231.73,136.05L232.52,98.97L233.31,113.8L234.11,106.39L235.7,48.3L236.49,66.84L237.28,80.43L238.08,53.24L239.66,111.33L240.46,112.57L241.25,124.93L242.04,89.08L243.63,55.71L244.42,70.55L246.01,100.21L246.81,131.11L247.6,139.76L248.39,80.43L249.19,107.62L249.98,56.95L250.77,58.19L251.57,139.76L253.15,55.71L253.95,92.79L254.74,82.9L255.54,102.68L257.12,128.63L257.92,95.26L258.71,81.67L259.5,96.5L261.09,123.69L261.88,111.33L263.47,92.79L264.26,117.51L265.85,61.89L266.65,84.14L267.44,145.94L268.23,80.43L270.61,128.63L271.41,97.74L272.2,126.16L272.99,106.39L273.79,103.92L274.58,50.77L276.17,129.87L276.96,97.74L277.76,81.67L278.55,106.39L279.34,110.1L280.14,75.49L280.93,73.02L281.72,143.47L283.31,68.07L284.1,126.16L284.9,101.44L285.69,110.1L287.28,140.99L288.07,106.39L288.87,124.93L289.66,90.32L290.45,66.84L291.25,71.78L292.83,115.04L293.63,95.26L294.42,105.15L295.21,136.05L296.01,149.65L296.8,110.1L297.6,97.74L298.39,61.89L299.18,60.66L299.98,84.14L300.77,84.14L301.56,108.86L302.36,119.98L303.15,80.43L303.94,108.86L304.74,47.06L305.53,61.89L306.32,124.93L307.91,61.89L308.71,98.97L310.29,90.32L311.09,45.83L311.88,94.03L312.67,94.03L313.47,103.92L314.26,129.87L315.05,118.75L315.85,118.75L316.64,77.96L317.43,85.38L318.23,47.06L319.02,121.22L319.82,121.22L320.61,68.07L321.4,89.08L322.2,136.05L322.99,117.51L323.78,74.25L324.58,107.62L325.37,59.42L326.16,81.67L326.96,140.99L328.55,75.49L329.34,79.2L330.13,94.03L330.93,74.25L331.72,76.72L332.51,71.78L333.31,89.08L334.1,73.02L334.89,77.96L335.69,74.25L336.48,55.71L337.27,59.42L338.07,133.58L338.86,95.26L339.66,110.1L340.45,85.38L341.24,85.38L342.04,97.74L342.83,81.67L343.62,116.28L345.21,98.97L346,102.68L346.8,61.89L347.59,148.41L348.38,66.84L349.18,61.89L350.77,132.34L351.56,112.57L352.35,115.04L353.15,149.65L353.94,101.44L354.73,133.58L355.53,79.2L356.32,86.61L357.11,111.33L357.91,55.71L358.7,106.39L359.49,105.15L360.29,84.14L361.08,122.46L361.88,113.8L362.67,154.59L363.46,106.39L364.26,111.33L365.05,53.24L365.84,94.03L366.64,74.25L367.43,79.2L368.22,77.96L369.02,118.75L370.61,76.72L371.4,102.68L372.19,105.15L372.99,136.05L374.57,96.5L375.37,113.8L376.95,45.83L377.75,92.79L378.54,94.03L379.33,119.98L380.92,87.85L381.72,117.51L382.51,116.28L383.3,102.68L384.1,111.33L384.89,108.86L385.68,71.78L386.48,126.16L388.06,85.38L388.86,124.93L389.65,95.26L390.44,110.1L391.24,96.5L392.03,129.87L393.62,84.14L394.41,70.55L395.21,129.87L396,103.92L396,155.83L395.21,162.01L394.41,133.58L393.62,160.77L392.83,183.02L392.03,176.84L391.24,140.99L390.44,144.7L389.65,139.76L388.86,148.41L388.06,150.88L387.27,162.01L386.48,166.95L385.68,147.17L384.89,134.81L384.1,152.12L383.3,168.19L382.51,163.24L381.72,145.94L380.92,169.42L380.13,138.52L379.33,191.67L378.54,140.99L377.75,160.77L376.95,186.72L376.16,149.65L375.37,149.65L374.57,180.54L373.78,154.59L372.99,174.36L372.19,185.49L371.4,164.48L370.61,139.76L369.81,138.52L368.22,166.95L367.43,163.24L366.64,145.94L365.84,164.48L365.05,129.87L364.26,136.05L362.67,186.72L361.88,145.94L361.08,152.12L360.29,137.29L359.49,184.25L358.7,143.47L357.91,102.68L357.11,175.6L356.32,170.66L355.53,147.17L354.73,181.78L353.94,140.99L353.15,191.67L352.35,157.06L351.56,162.01L350.77,159.53L349.97,171.89L349.18,132.34L348.38,173.13L347.59,168.19L346.8,144.7L346,164.48L344.42,155.83L343.62,132.34L342.83,122.46L342.04,148.41L341.24,178.07L340.45,144.7L339.66,166.95L338.86,160.77L338.07,174.36L337.27,173.13L336.48,173.13L335.69,149.65L334.89,174.36L334.1,139.76L333.31,137.29L332.51,152.12L330.93,173.13L330.13,171.89L329.34,179.31L328.55,148.41L327.75,169.42L326.96,152.12L326.16,140.99L325.37,183.02L324.58,139.76L323.78,163.24L322.99,142.23L322.2,183.02L321.4,149.65L320.61,165.71L319.82,149.65L319.02,157.06L318.23,175.6L317.43,155.83L316.64,171.89L315.85,171.89L315.05,168.19L314.26,170.66L313.47,173.13L312.67,164.48L311.88,160.77L311.09,133.58L309.5,162.01L308.71,158.3L307.91,175.6L307.12,144.7L305.53,178.07L304.74,132.34L303.94,175.6L303.15,149.65L302.36,181.78L301.56,165.71L300.77,152.12L299.98,165.71L297.6,152.12L296.8,159.53L296.01,184.25L295.21,166.95L293.63,176.84L292.83,158.3L292.04,174.36L291.25,169.42L289.66,139.76L288.87,154.59L288.07,145.94L287.28,173.13L286.48,169.42L285.69,162.01L284.9,152.12L284.1,171.89L283.31,142.23L282.52,164.48L281.72,169.42L280.93,143.47L280.14,178.07L279.34,164.48L278.55,166.95L277.76,163.24L276.96,178.07L276.17,166.95L275.37,129.87L274.58,165.71L273.79,171.89L272.99,190.43L271.41,157.06L270.61,163.24L269.82,159.53L269.03,174.36L268.23,192.9L267.44,165.71L266.65,168.19L265.85,175.6L264.26,168.19L263.47,186.72L262.68,202.79L261.88,155.83L261.09,185.49L260.3,162.01L258.71,180.54L257.92,174.36L257.12,200.32L256.33,170.66L254.74,134.81L253.95,187.96L253.15,142.23L252.36,184.25L251.57,174.36L250.77,197.85L249.98,191.67L249.19,153.35L247.6,179.31L246.81,173.13L246.01,169.42L245.22,157.06L244.42,201.56L243.63,160.77L242.04,174.36L241.25,162.01L240.46,173.13L239.66,168.19L238.87,178.07L238.08,133.58L237.28,150.88L236.49,187.96L235.7,170.66L234.9,202.79L234.11,147.17L233.31,160.77L232.52,150.88L231.73,194.14L230.93,190.43L230.14,169.42L229.35,153.35L228.55,169.42L227.76,173.13L226.97,171.89L226.17,163.24L225.38,178.07L224.59,127.4L223.79,127.4L222.2,166.95L221.41,171.89L220.62,184.25L219.82,128.63L219.03,162.01L218.24,154.59L217.44,187.96L216.65,181.78L215.86,179.31L215.06,170.66L214.27,152.12L213.47,184.25L211.89,163.24L211.09,191.67L210.3,164.48L209.51,183.02L208.71,144.7L207.92,163.24L207.13,124.93L206.33,159.53L205.54,183.02L204.75,183.02L203.95,189.2L203.16,185.49L202.36,186.72L201.57,178.07L200.78,185.49L199.98,165.71L199.19,170.66L198.4,185.49L197.6,168.19L196.81,168.19L196.02,157.06L195.22,180.54L194.43,149.65L193.64,173.13L192.84,173.13L192.05,192.9L191.25,189.2L190.46,148.41L189.67,148.41L188.87,191.67L188.08,176.84L187.29,179.31L186.49,206.5L185.7,149.65L184.91,129.87L184.11,160.77L183.32,178.07L182.53,150.88L181.73,152.12L180.94,168.19L180.14,183.02L179.35,162.01L178.56,174.36L177.76,160.77L174.59,184.25L173.8,150.88L173,183.02L172.21,164.48L171.41,197.85L170.62,179.31L169.03,153.35L168.24,173.13L167.45,184.25L166.65,162.01L165.86,187.96L165.07,166.95L164.27,153.35L163.48,164.48L162.69,173.13L161.89,163.24L161.1,181.78L160.3,147.17L159.51,163.24L158.72,153.35L157.92,169.42L157.13,164.48L156.34,147.17L155.54,180.54L154.75,201.56L153.96,152.12L153.16,147.17L152.37,174.36L151.58,185.49L150.78,180.54L149.99,162.01L149.19,173.13L148.4,175.6L147.61,165.71L146.81,166.95L146.02,176.84L145.23,165.71L144.43,202.79L143.64,171.89L142.85,195.38L141.26,176.84L140.46,181.78L139.67,189.2L138.88,181.78L138.08,189.2L137.29,189.2L136.5,199.08L135.7,171.89L134.91,166.95L134.12,210.21L132.53,175.6L131.74,197.85L130.15,186.72L129.35,196.61L128.56,200.32L127.77,181.78L126.97,208.97L126.18,194.14L125.39,205.26L124.59,171.89L123.8,202.79L123.01,195.38L121.42,217.62L120.63,168.19L119.83,205.26L119.04,192.9L118.24,197.85L117.45,183.02L116.66,196.61L115.86,223.8L114.28,166.95L113.48,202.79L112.69,216.39L111.9,184.25L111.1,207.74L110.31,205.26L109.52,191.67L108.72,210.21L107.93,196.61L107.13,210.21L104.75,197.85L103.96,210.21L103.17,195.38L102.37,216.39L101.58,205.26L100.79,213.92L99.99,181.78L99.2,216.39L97.61,187.96L96.82,221.33L96.02,218.86L95.23,191.67L94.44,199.08L93.64,179.31L92.06,201.56L91.26,170.66L90.47,222.57L89.68,211.44L88.88,208.97L88.09,197.85L87.29,194.14L86.5,217.62L84.91,201.56L84.12,211.44L83.33,234.93L82.53,187.96L80.95,236.16L80.15,225.04L79.36,233.69L78.57,232.45L77.77,217.62L76.98,217.62L76.18,222.57L75.39,233.69L74.6,220.1L73.8,229.98L73.01,225.04L72.22,226.27L70.63,218.86L69.84,227.51L68.25,231.22L67.45,218.86L65.87,238.63L65.07,238.63L64.28,238.63L63.49,231.22L62.69,238.63L61.9,231.22L61.11,242.34L60.31,242.34L58.73,242.34L57.93,241.11L57.14,246.05L56.34,246.05L55.55,241.11L54.76,246.05L53.96,246.05L53.17,242.34L52.38,238.63L51.58,246.05L50.79,246.05L50,241.11L49.2,246.05L48.41,246.05L46.03,246.05L45.23,242.34L44.44,242.34L43.65,246.05L39.68,246.05L38.89,241.11L38.09,246.05L37.3,246.05L31.74,246.05L30.95,242.34L30.16,246.05L29.36,246.05L12.7,246.05L11.9,242.34L11.11,242.34L10.32,246.05L7.14,246.05L6.35,241.11L5.56,246.05L4.76,246.05L0,246.05" style="vector-effect: non-scaling-stroke; fill: none; stroke: rgb(0, 0, 0); stroke-opacity: 0; stroke-width: 2px; opacity: 1;"/></g><g class="points"/><g class="text"/></g></g></g><g class="overplot"/><path class="xlines-above crisp" d="M0,0" style="fill: none;"/><path class="ylines-above crisp" d="M0,0" style="fill: none;"/><g class="overlines-above"/><g class="xaxislayer-above"><g class="xtick"><text text-anchor="middle" x="0" y="272" transform="translate(115.01,0)" style="font-family: 'Latin Modern Roman'; font-size: 12px; fill: rgb(0, 0, 0); fill-opacity: 1; white-space: pre;">10M</text></g><g class="xtick"><text text-anchor="middle" x="0" y="272" transform="translate(192.81,0)" style="font-family: 'Latin Modern Roman'; font-size: 12px; fill: rgb(0, 0, 0); fill-opacity: 1; white-space: pre;">20M</text></g><g class="xtick"><text text-anchor="middle" x="0" y="272" transform="translate(270.61,0)" style="font-family: 'Latin Modern Roman'; font-size: 12px; fill: rgb(0, 0, 0); fill-opacity: 1; white-space: pre;">30M</text></g><g class="xtick"><text text-anchor="middle" x="0" y="272" transform="translate(348.42,0)" style="font-family: 'Latin Modern Roman'; font-size: 12px; fill: rgb(0, 0, 0); fill-opacity: 1; white-space: pre;">40M</text></g><g class="xtick"><text text-anchor="middle" x="0" y="272" transform="translate(426.22,0)" style="font-family: 'Latin Modern Roman'; font-size: 12px; fill: rgb(0, 0, 0); fill-opacity: 1; white-space: pre;">50M</text></g></g><g class="yaxislayer-above"><g class="ytick"><text text-anchor="end" x="37" y="4.199999999999999" transform="translate(0,246.05)" style="font-family: 'Latin Modern Roman'; font-size: 12px; fill: rgb(0, 0, 0); fill-opacity: 1; white-space: pre;">0</text></g><g class="ytick"><text text-anchor="end" x="37" y="4.199999999999999" transform="translate(0,196.61)" style="font-family: 'Latin Modern Roman'; font-size: 12px; fill: rgb(0, 0, 0); fill-opacity: 1; white-space: pre;">10</text></g><g class="ytick"><text text-anchor="end" x="37" y="4.199999999999999" transform="translate(0,147.17)" style="font-family: 'Latin Modern Roman'; font-size: 12px; fill: rgb(0, 0, 0); fill-opacity: 1; white-space: pre;">20</text></g><g class="ytick"><text text-anchor="end" x="37" y="4.199999999999999" transform="translate(0,97.74)" style="font-family: 'Latin Modern Roman'; font-size: 12px; fill: rgb(0, 0, 0); fill-opacity: 1; white-space: pre;">30</text></g><g class="ytick"><text text-anchor="end" x="37" y="4.199999999999999" transform="translate(0,48.3)" style="font-family: 'Latin Modern Roman'; font-size: 12px; fill: rgb(0, 0, 0); fill-opacity: 1; white-space: pre;">40</text></g></g><g class="overaxes-above"/></g></g><g class="polarlayer"/><g class="ternarylayer"/><g class="geolayer"/><g class="funnelarealayer"/><g class="pielayer"/><g class="treemaplayer"/><g class="sunburstlayer"/><g class="glimages"/><defs id="topdefs-6c9925"><g class="clips"/><clipPath id="legend6c9925"><rect width="158" height="67" x="0" y="0"/></clipPath></defs><g class="layer-above"><g class="imagelayer"/><g class="shapelayer"/></g><g class="infolayer"><g class="legend" pointer-events="all" transform="translate(441.92,0)"><rect class="bg" shape-rendering="crispEdges" style="stroke: rgb(68, 68, 68); stroke-opacity: 1; fill: rgb(255, 255, 255); fill-opacity: 1; stroke-width: 0px;" width="158" height="67" x="0" y="0"/><g class="scrollbox" transform="" clip-path="url('#legend6c9925')"><g class="groups"><g class="traces" transform="translate(0,14.5)" style="opacity: 1;"><text class="legendtext" text-anchor="start" x="40" y="4.680000000000001" style="font-family: 'Latin Modern Roman'; font-size: 12px; fill: rgb(0, 0, 0); fill-opacity: 1; white-space: pre;">Bayesian agg. (n=40)</text><g class="layers" style="opacity: 1;"><g class="legendfill"/><g class="legendlines"><path class="js-line" d="M5,0h30" style="fill: none; stroke: rgb(99, 110, 250); stroke-opacity: 1; stroke-width: 2px;"/></g><g class="legendsymbols"><g class="legendpoints"/></g></g><rect class="legendtoggle" x="0" y="-9.5" width="152.90625" height="19" style="fill: rgb(0, 0, 0); fill-opacity: 0;"/></g><g class="traces" transform="translate(0,33.5)" style="opacity: 1;"><text class="legendtext" text-anchor="start" x="40" y="4.680000000000001" style="font-family: 'Latin Modern Roman'; font-size: 12px; fill: rgb(0, 0, 0); fill-opacity: 1; white-space: pre;">Mean agg. (n=21)</text><g class="layers" style="opacity: 1;"><g class="legendfill"/><g class="legendlines"><path class="js-line" d="M5,0h30" style="fill: none; stroke: rgb(239, 85, 59); stroke-opacity: 1; stroke-width: 2px;"/></g><g class="legendsymbols"><g class="legendpoints"/></g></g><rect class="legendtoggle" x="0" y="-9.5" width="152.90625" height="19" style="fill: rgb(0, 0, 0); fill-opacity: 0;"/></g><g class="traces" transform="translate(0,52.5)" style="opacity: 1;"><text class="legendtext" text-anchor="start" x="40" y="4.680000000000001" style="font-family: 'Latin Modern Roman'; font-size: 12px; fill: rgb(0, 0, 0); fill-opacity: 1; white-space: pre;">Max Agg. (n=4)</text><g class="layers" style="opacity: 1;"><g class="legendfill"/><g class="legendlines"><path class="js-line" d="M5,0h30" style="fill: none; stroke: rgb(0, 204, 150); stroke-opacity: 1; stroke-width: 2px;"/></g><g class="legendsymbols"><g class="legendpoints"/></g></g><rect class="legendtoggle" x="0" y="-9.5" width="152.90625" height="19" style="fill: rgb(0, 0, 0); fill-opacity: 0;"/></g></g></g><rect class="scrollbar" rx="20" ry="3" width="0" height="0" style="fill: rgb(128, 139, 164); fill-opacity: 1;" x="0" y="0"/></g><g class="g-gtitle"/><g class="g-xtitle" transform="translate(0,-3.8000000000000114)"><text class="xtitle" x="236" y="299.8" text-anchor="middle" style="font-family: 'Latin Modern Roman'; font-size: 14px; fill: rgb(0, 0, 0); opacity: 1; font-weight: normal; white-space: pre;">Agent Steps</text></g><g class="g-ytitle" transform="translate(15.8154296875,0)"><text class="ytitle" transform="rotate(-90,0.18437500000000284,129.5)" x="0.18437500000000284" y="129.5" text-anchor="middle" style="font-family: 'Latin Modern Roman'; font-size: 14px; fill: rgb(0, 0, 0); opacity: 1; font-weight: normal; white-space: pre;">Avg. Reward</text></g></g></svg>